<svg xmlns="http://www.w3.org/2000/svg" viewBox="0 0 3239.89 1535.86"><defs><style>.cls-1{fill:#ebf3fa;}.cls-2{fill:#ddeaf4;}.cls-3{fill:#c7dfe2;}.cls-4{fill:#c1e0e4;}.cls-5{fill:#a8d29f;}.cls-6{fill:#699ff0;}.cls-7{fill:#4a75cb;}.cls-8{fill:#f1a34f;}.cls-9{fill:#e88f46;}.cls-27,.cls-9{opacity:0.5;}.cls-10{fill:#e59545;}.cls-11{fill:#a2c5f9;}.cls-12{fill:#afcdfb;}.cls-13{fill:#c7dcf9;}.cls-14{fill:#d2e4f9;}.cls-15{fill:#233862;}.cls-16{fill:#2b478b;}.cls-17{fill:#ffb27d;}.cls-18{fill:#ab7041;}.cls-19{fill:#6488d3;}.cls-20{fill:#739cf3;}.cls-21{fill:#ed985f;}.cls-22{fill:#b84c42;}.cls-23{fill:#aa3e39;}.cls-24{fill:#2c3a64;}.cls-25{fill:#415da5;}.cls-26{fill:#ffa412;}.cls-27{fill:#aed3ff;}.cls-28{fill:#ced4ea;}.cls-28,.cls-31{opacity:0.3;}.cls-29{fill:#e2883d;}.cls-30{fill:#f0d170;}.cls-31,.cls-32{fill:#dc8d39;}.cls-33{fill:#ecf2fd;}.cls-34{fill:#e5eaf5;}.cls-35{fill:#d3652c;}.cls-36{fill:#ee9849;}.cls-37{fill:#d8716b;}.cls-38{fill:#82b378;}.cls-39{fill:#e58638;}.cls-40{fill:#2e3552;}</style></defs><title>communityAsset 1</title><g id="Layer_2" data-name="Layer 2"><g id="_Layer_" data-name="&lt;Layer&gt;"><path class="cls-1" d="M3162.3,1527.26l-870.13,2.53-44.2-.15L812.28,1525l-473.56-1.55s-179-315.08-72.31-632.2a616.93,616.93,0,0,1,40.36-93.64,634,634,0,0,1,37.43-61.48q2.16-3.12,4.35-6.24a690.54,690.54,0,0,1,69.89-83.7C621.64,437.82,809,409.56,962.76,423.73c122.68,11.28,223.92,49.59,294.68,45,159.43-10.4,210.55-338.42,682.19-437.36C2033.73,11.59,2139.36.11,2244.85,0c294.89-.34,588.83,87.91,627.54,331.57,5.59,35.16,5.86,73.53.05,115.34a570.77,570.77,0,0,1-21.66,93.85c-19.35,61.35-50.09,128.84-93.92,202.94-139.94,236.53,43.19,277.74,208.65,371.55q10.2,5.77,20.3,11.85C3103.88,1198.3,3162.3,1527.26,3162.3,1527.26Z"/><polygon class="cls-2" points="2452.95 1074.32 2452.95 943.77 2443.16 943.77 2443.16 672.39 2292.6 672.39 2292.6 943.77 2114.18 943.77 2114.18 768.88 1842.53 768.88 1842.53 441.94 1671.43 441.94 1671.43 867.11 1618.04 867.11 1618.04 505.11 1480.7 505.11 1480.7 867.11 1164.3 867.11 1164.3 1198.27 1003.68 1198.27 1003.68 974.38 853.95 974.38 853.95 1198.27 810.6 1198.27 810.6 732.07 645.7 732.07 645.7 1198.27 586.47 1198.27 586.47 1529.08 645.7 1529.08 810.6 1529.08 1164.3 1529.08 1185.97 1529.08 1480.7 1529.08 1618.04 1529.08 1850.68 1529.08 1850.68 1527.35 1978.71 1527.35 2114.18 1527.35 2292.6 1527.35 2367.88 1527.35 2443.16 1527.35 2452.95 1527.35 2764.6 1527.35 2764.6 1074.32 2452.95 1074.32"/><path class="cls-3" d="M765.44,1142.36l7.57-43h2.47v-4.21h-3l-3.21-4.82h-2.58c-.34-3.91-5.89-7.09-13-7.56l-.83-8.64a1.18,1.18,0,0,0-.36-.73,1.13,1.13,0,0,0-.63-.28h-.13a.71.71,0,0,0-.71.63l-1.06,9c-7.1.48-12.65,3.66-13,7.57h-2.41l-3.39,4.82h-3v4.21h2.5l8.93,43h8.9v285.91a2.06,2.06,0,0,0-1.69,1.26l-2.94,7.15h-4.24v94.88h25.87v-94.88h-5.11l-2.42-7.34a1.57,1.57,0,0,0-1.35-1.08v-285.9Z"/><path class="cls-4" d="M2872.44,446.91A626.63,626.63,0,0,1,2853,540.72c-.74,0-1.48,0-2.22,0a41.13,41.13,0,0,1-18.47-4.56c-32.92-16.63-56.79-40.51-76-65.37-2.52-35.78,4.47-80.89,4.47-80.89-4.42,11.39-21.72,27.08-34.35,37.43-26.78-41.79-47.19-75.31-84.87-66.81-69.85,15.75-156.76-5.72-181.25-77.14,15.63-27.6,43.67-45.51,43.67-45.51-20.5,2-39.8,10.09-54.19,17.87-30.94-58.71-106.38-75.49-106.38-75.49q-5.2-1.44-10.08-3.25c.21-42.42,10.91-82.44,10.91-82.44-29.56,15.44-43.41,40.4-49.86,59.52C2245.42,111.11,2240.81,36,2244.85,0c294.9-.35,588.84,87.9,627.55,331.56C2877.41,366.78,2877.65,405.16,2872.44,446.91Z"/><path class="cls-3" d="M855.23,1440.35a114.9,114.9,0,0,1-8.32,36.47c-8.49,20.86-22,36.79-34.64,48.13l-487.36,2.31s-165.22-318.94-58.5-636.06c26.8,13.65,59,33.29,89.63,60.14-30,27.69-52.68,67.15-52.68,67.15,36.27-25.31,65.8-32.58,86.42-33.43,26.3,30,49,66.69,62.5,110.87,53.28,174,159.78,156,254.74,184.69,5.17,1.56,10.22,3.22,15.17,4.94-29.33,24-60.26,63.07-60.26,63.07,59.07-28.6,102.13-31.75,127.89-29.36,16.84,11.8,30.81,25.15,41.46,39.82-33.39-6.37-86.06.86-99.07,2.1,40.36-3,97.08,21.56,117,32.3A122,122,0,0,1,855.23,1440.35Z"/><path class="cls-3" d="M2834.65,1190s-271.91-18.51-391.49,66.24S2122.26,1342,2043.24,1306s-278.73-39.47-425.2,81.64-345.13-65.11-554.61,34.12c0,0-72.22,47.1-86.93,105.53H2843.91Z"/><path class="cls-5" d="M1133.78,1529.67l-808.87-2.41c-1.87-4.46-3-7.12-5.22-12.76-18.91-47.22-49.53-134.49-67.64-242.82,40.15,3,168.41,18.83,249.6,102.8,97.25,100.59,221.52,109.21,316.07,94.84a342.81,342.81,0,0,1,37.56-3.34C957.59,1462,1117.1,1489.12,1133.78,1529.67Z"/><path class="cls-5" d="M2985.81,1127.1q-10.71-6.09-21.58-11.85c-239.67,7.11-330.57,144-413.59,222.11l-1.93-2c.92-20,2-79.07-17.87-73.29-17.1,5-.73,43.73,9.94,65.33-26.47-25.77-57.45-47.76-82.42-42.36-32.09,6.94,20.07,43,69.63,72.11-26,20.7-52.59,33.88-84,33.63-134.79-1-185.14,109.9-196,138.87a.53.53,0,0,1,0,.15l914.38-2.53C3205.82,1297,3103.88,1198.3,2985.81,1127.1Z"/><path class="cls-5" d="M962.76,423.72c-23.32,12.43-41.57,30.73-55.07,48.2a235.25,235.25,0,0,0-29.05,48.76c-.45,1.06-.68,1.63-.68,1.63-.2,1.59-.42,3.16-.66,4.73a179.13,179.13,0,0,1-6,26.41c-54.27-10.6-94.13,7.53-94.13,7.53,34.49-2.26,64.21,16.19,78.75,27.29-46,77.36-152.6,103.62-263.42,104.82-.49-12-3.81-30.43-18.39-40.8.2.72,6.8,23.3-6.61,40.79-43.83.51-86.34,11.41-124.17,26.2h0a512.63,512.63,0,0,0-56.17,26.1l-1.77,1C373.13,753,361.87,759.67,351.81,766c-20.52,13-36.1,24.54-45,31.53a632.81,632.81,0,0,1,37.43-61.48c1.43-2.09,2.89-4.16,4.36-6.24a688.75,688.75,0,0,1,69.88-83.7C621.63,437.82,809,409.55,962.76,423.72Z"/><polygon class="cls-6" points="421.03 1122.72 372.98 1110.32 297.02 1150.62 239.67 1252.93 262.92 1319.59 216.41 1386.24 214.86 1499.4 259.82 1527.3 501.64 1527.3 554.34 1435.84 560.54 1291.68 524.89 1142.87 461.33 1113.42 421.03 1122.72"/><path class="cls-7" d="M417.82,1113.34l-11.43-36.57a6.45,6.45,0,0,0-6.49-4.53c-10.26.52-32.72,1.9-32.72,3.9C367.18,1078.72,417.82,1113.34,417.82,1113.34Z"/><path class="cls-7" d="M424,1114.89l1.65-25.17a5.2,5.2,0,0,1,6.56-4.67l10.32,2.83a8.76,8.76,0,0,1,1.81,16.18Z"/><path class="cls-7" d="M408.48,1115.46l2.31-4.17a5.68,5.68,0,0,1,4.87-2.9l14.53-.18a5.67,5.67,0,0,1,4.6,2.26l2.26,3a5.69,5.69,0,0,1,1.06,4.3l-.36,2.2a5.67,5.67,0,0,1-5.85,4.75l-18.73-.9A5.65,5.65,0,0,1,408.48,1115.46Z"/><path class="cls-7" d="M297,1150.62l30.34,79.77a5.51,5.51,0,0,0,10.15.33l12.35-27.1a11,11,0,0,0-3.12-13.12Z"/><path class="cls-7" d="M265.39,1322.79s37.21,45.3,30,52.54-74.29,10.91-74.29,10.91Z"/><path class="cls-7" d="M554.34,1435.84s-138.24,45.93-130.66,62.47,78,29,78,29Z"/><path class="cls-7" d="M390,1281.74l147.58,17a4.62,4.62,0,0,1,1.07,8.92l-84.42,31.27a15.89,15.89,0,0,1-16.2-3.14l-51.35-46.69A4.23,4.23,0,0,1,390,1281.74Z"/><path class="cls-7" d="M405.94,1129.87l-34.71,8.88A8.8,8.8,0,0,0,366,1152l4.11,6.44a6.67,6.67,0,0,0,10.7.75Z"/><path class="cls-7" d="M424,1128.84l34.71-6.1a8.53,8.53,0,0,1,6.44,1.48l13.84,10a3,3,0,0,1-2.34,5.32Z"/><polygon class="cls-8" points="334.04 1149.27 261.73 1142.38 215.58 1178.89 197.99 1246.8 219.71 1293.22 172.19 1273.25 61.63 1397.11 41.48 1502.48 78.67 1528.83 399.44 1528.83 445.93 1376.97 444.38 1253 334.04 1149.27"/><path class="cls-9" d="M172.19,1273.25s42,55.1,51,57.16,36.5-2.06,35.81-6.2-39.26-31-39.26-31Z"/><path class="cls-9" d="M61.62,1397.11l58.49,43.72a16,16,0,0,1,6.1,15.94c-2.6,12.9-7.39,33.86-11.19,34.81C109.51,1493,61.62,1397.11,61.62,1397.11Z"/><path class="cls-9" d="M435,1388.27s-83.69,43.39-86.78,50.62S374,1505,385.36,1496.74,435,1388.27,435,1388.27Z"/><path class="cls-8" d="M234.18,1156.85s-59.93-15.84-65.43-13.09-33.06,40.64-30.31,47.52S234.18,1156.85,234.18,1156.85Z"/><path class="cls-10" d="M238.31,1119.65l-4.13,37.2,25.48-22.73S250,1115.52,238.31,1119.65Z"/><path class="cls-10" d="M242.27,1159.6c0-.52-.86-8.26-2.24-7.92s-10.68,6-10.68,7.06-1.72,8.78,1.9,8.44S242.27,1159.6,242.27,1159.6Z"/><path class="cls-9" d="M239,1163.69s-9,32.37-7.58,35.13,20,23.76,22.39,22.73S239,1163.69,239,1163.69Z"/><path class="cls-9" d="M241.75,1162s10.33,32.37,13.09,32,17.22-25.83,15.15-27.9S241.75,1162,241.75,1162Z"/><path class="cls-9" d="M243.25,1160.27l8.8-4.52a1.56,1.56,0,0,1,1.32,0l3.67,1.51a.84.84,0,0,1-.23,1.61Z"/><path class="cls-9" d="M236.14,1164.93l-5,5a1.73,1.73,0,0,0,.17,2.6l1.7,1.29a1,1,0,0,0,1.53-.58Z"/><path class="cls-10" d="M235,1156.85c-.78-.26-38.75-4.14-41.84-2.59s-17.31,14.73-11.63,15.5S235,1156.85,235,1156.85Z"/><path class="cls-9" d="M78.67,1528.83s133.47-20,147.24-15.21,61.3,14.46,61.3,14.46,59.23-15.15,65.43-11.71,14.46,12.4,14.46,12.4Z"/><path class="cls-11" d="M1392.83,207.1h-12.5l.11-1,3.77-33.23a2.13,2.13,0,0,1,2.11-1.88,2.6,2.6,0,0,1,.4,0,3.29,3.29,0,0,1,1.85.84,3.33,3.33,0,0,1,1.08,2.14Z"/><path class="cls-12" d="M1381.54,199.56h-.45l3.12-26.68a2.13,2.13,0,0,1,2.11-1.88,2.6,2.6,0,0,1,.4,0,3.33,3.33,0,0,1,1.22,2.53l.18,19.19A6.74,6.74,0,0,1,1381.54,199.56Z"/><rect class="cls-11" x="1376.69" y="354.98" width="24.1" height="1060.88"/><rect class="cls-12" x="1376.69" y="354.98" width="11.13" height="1060.88"/><rect class="cls-11" x="1350.35" y="1246.57" width="76.77" height="280.7"/><rect class="cls-12" x="1350.35" y="1246.57" width="45.75" height="280.7"/><path class="cls-11" d="M1430.69,223.11c0,13.11-19.75,23.73-44.11,23.73q-2.79,0-5.49-.18c-21.77-1.45-38.63-11.44-38.63-23.55s16.86-22.09,38.63-23.54q2.7-.18,5.49-.18C1410.94,199.39,1430.69,210,1430.69,223.11Z"/><polygon class="cls-12" points="1427.03 375.91 1350.27 375.91 1323.2 246 1449.95 246 1427.03 375.91"/><rect class="cls-11" x="1316.36" y="236.21" width="140.44" height="12.46"/><path class="cls-11" d="M1362.93,1246.57h49l-7.17-21.71a4.72,4.72,0,0,0-4.48-3.22h-23a6.16,6.16,0,0,0-5.69,3.79Z"/><path class="cls-12" d="M1408.14,222h-.33c-.76-10.07-11.55-18.63-26.72-22.4-21.08,1.41-37.56,10.82-38.57,22.4h-7.16l-10,14.24h-9v12.46h88.28V236.21h13Z"/><polygon class="cls-13" points="1332.27 252.33 1440.53 252.33 1419.38 369.1 1357.22 369.1 1332.27 252.33"/><path class="cls-13" d="M1345.38,224.51s8.25-17.95,24.53-17.41c0,0-10.36,9.19-9.41,17.41S1345.38,224.51,1345.38,224.51Z"/><polygon class="cls-11" points="1447.83 236.21 1325.33 236.21 1335.36 221.97 1438.3 221.97 1447.83 236.21"/><polygon class="cls-14" points="1339.46 256.41 1364.27 256.41 1371.49 365.44 1364.27 365.44 1339.46 256.41"/><path class="cls-15" d="M1127.28,1494.91s2.27,29.37-3.84,32.43l-78-.16s0-9.17,12.57-11.21,34.65-9.51,38.39-26.16S1127.28,1494.91,1127.28,1494.91Z"/><path class="cls-15" d="M1216.56,1494.91s3.4,29.3-2.72,32.35h-79.27s.12-9.25,12.69-11.29,34.65-9.51,38.39-26.16S1216.56,1494.91,1216.56,1494.91Z"/><path class="cls-16" d="M1176.48,1072.81s-9.48,176-15.62,259.58a5,5,0,0,1-.11,1,27.53,27.53,0,0,1-.11,3c-1.57,18.86-3.91,37.39-6.7,54.91v.22c-.45,2.57-.89,5.14-1.34,7.7a907.41,907.41,0,0,1-21.54,96.76c-25.89,5.47-38.72-7.36-38.72-7.36s-5.47-54.35-6.81-88.39c-.78-19.53-8.71-122.88-15.29-206.91-4.91-61.94-6.81-113.61-6.81-113.61Z"/><path class="cls-15" d="M1176.48,1072.81s-13.25,280.53-22.54,318.51v.22c-.45,2.57-.89,5.14-1.34,7.7l-82.36-205.9c-4.91-61.94-6.81-113.61-6.81-113.61Z"/><path class="cls-16" d="M1071,1069.69s52.52,159.09,80.13,257.83c27.44,98.12,27.44,166.47,27.44,166.47s20,9.54,47,.93c0,0,12.78-191.84-13.24-238.94-14.7-26.61-24.77-100.74-21.66-125.55s5.66-74.52,5.66-74.52Z"/><path class="cls-17" d="M1065.18,823.24s-35.38,43.53-65.62,47.43a68.69,68.69,0,0,1,11.16-22.76c-2-2.9-3.69-5.58-5.36-8-7.36-11.72-10.83-18.75-10.83-18.75l13.4-27,8.14-16.51C1032.37,816.21,1065.18,823.24,1065.18,823.24Z"/><path class="cls-18" d="M995.18,1144.42l-.35,9.48s-18.41,11.72-3.64,29.76c0,0,6.77,7.1,11,2s1.64-3.7,7.78-10.84,7.48-16.1,2.85-21.64l-1.82-7.28Z"/><path class="cls-19" d="M1004.66,1153.05a82.12,82.12,0,0,1-16.47-9.15s21.48-84.31,22.6-92.55-15.56-124.56-15.56-124.56l69.18-50.23s-3.72,160.3-7,181.11c-5.35,34.39-39.49,97.53-39.49,97.53A34.47,34.47,0,0,1,1004.66,1153.05Z"/><path class="cls-20" d="M1194.34,1062.42c-15.51,17.86-30.91,32.37-50.67,43.86-23.21,13.84-53,27-63.72,24.78-9.57-2-13.3-5.71-14.42-6-.89-.22-4.89-22.08-21.74-59.91a39.62,39.62,0,0,1-1.9-4.58l-.33-.55c-6.59-14.73-13.17-30.47-19.65-46.1-14.17-34.48-26.56-68.3-30.35-88.49C987,901.6,992.68,882,999,866.56l5.35-12.28a47.75,47.75,0,0,0,26.9-16.51c8-9.94,16.85-20.76,19.31-20.32,25.89,5.58,54.68,39.85,78.12,85.6,3.12,5.81,6,11.83,8.81,18,3.35,7.37,6.48,14.84,9.49,22.54,13.62,34.83,29,64.18,39.84,84.26,2,3.69,3.91,7.15,5.58,10.16,3,5.69,5.47,10.16,7,13.28C1200.93,1054.16,1196.46,1060.08,1194.34,1062.42Z"/><path class="cls-19" d="M1186.86,1027.82c-79.77,1.84-104.12-134.92-104.12-134.92l22.76-10.49s9.6,8.14,23.22,20.64c3.12,5.81,6,11.83,8.81,18,3.35,7.37,6.48,14.84,9.49,22.54C1160.64,978.39,1176,1007.74,1186.86,1027.82Z"/><path class="cls-7" d="M1200.45,959.37a6.43,6.43,0,0,0-9.06.28l-438.8,466.2-58.14-.43c-2.27,0-5.88,2.54-8,5.67-1.93,2.82-2,5.17-.35,5.63l-86.7,85.43c-1.23,1.21-1.81,2.64-1.31,3.2a.73.73,0,0,0,.58.22,4.23,4.23,0,0,0,2.56-1.4l88.62-87.33,11.47.08-78,85.68c-1.16,1.27-1.57,2.63-.92,3a.94.94,0,0,0,.45.12,4.62,4.62,0,0,0,2.83-1.68L705,1437l13.89.1-74.45,85.83c-1.12,1.29-1.45,2.61-.73,2.94a.92.92,0,0,0,.38.08,4.74,4.74,0,0,0,2.94-1.81l75.48-87,13.46.1-71.25,86c-1.08,1.31-1.33,2.59-.57,2.86a1.13,1.13,0,0,0,.32,0,4.86,4.86,0,0,0,3-1.93l72-86.92,10,.07-59,86.54c-.91,1.33-.86,2.42.11,2.43s2.49-1.07,3.39-2.4l59-86.55,9.07.07-46.61,87.11c-.61,1.15-.42,1.94.4,2a1.82,1.82,0,0,0,.38,0,6.07,6.07,0,0,0,3.31-2.84l46.09-86.15,13.47.09-43.33,87.26c-.54,1.09-.32,1.82.46,1.83a1.79,1.79,0,0,0,.48-.07,6.16,6.16,0,0,0,3.27-2.93l42.73-86.06,13.89.1L757,1525c-.47,1-.23,1.7.51,1.7a1.74,1.74,0,0,0,.6-.11,6.27,6.27,0,0,0,3.22-3l39-86,10.48.07a4.58,4.58,0,0,0,1-.15L781,1525.47c-.31.89,0,1.42.63,1.43a2.14,2.14,0,0,0,.87-.22,6.25,6.25,0,0,0,3-3.18l31.2-89.08a16.26,16.26,0,0,0,2-2.37c2.13-3.13,2-5.71-.26-5.73l-48.43-.35,430.65-457.54A6.43,6.43,0,0,0,1200.45,959.37Z"/><path class="cls-18" d="M1144.61,997.26l-2.48,9.15s-20.59,7.25-10.28,28.16c0,0,5,8.45,10.25,4.39s2.42-3.23,10-8.8,10.93-14,7.67-20.43l-.12-7.5Z"/><path class="cls-20" d="M1149,1013.92a17.15,17.15,0,0,1-10.36-11.65s22.4-88.13,15-91.91-95.83-16.78-95.83-16.78-26.57-5.6-25.71-29.67c1.16-32.32,18.55-46.45,18.55-46.45s135.1,50.44,146.57,68.1c17.22,26.51-32.77,127.52-32.77,127.52A19.69,19.69,0,0,1,1149,1013.92Z"/><path class="cls-21" d="M1023.66,794.45s-2.9,33.15-18.3,45.42c-7.36-11.72-10.83-18.75-10.83-18.75l13.4-27Z"/><path class="cls-17" d="M986.23,824.18s46.94-12.87,38.47-42-8.1-50.38-38.43-43.39-32.9,19.78-32.43,30.18S973.8,826.77,986.23,824.18Z"/><path class="cls-16" d="M1013.49,721.68c.17-.65.88-1.47,2.83-2.58a9,9,0,0,0-4.28.8c-1.83-2.61-5.82-6.87-11.21-5.68a6.8,6.8,0,0,1,5.11,2.93c-8.45-3-22.43-1.25-54,17.89-13,7.88-24.85-.59-24.85-.59s-12.35,32.09,23.48,41.84c7.06,1.92,12.29-10.22,23.16-14.62s20.57,9.94,25.17,10.27,1.34-2.7,5-7.31,8.2,3.24,9.45,9.19,11.32,9.56,11.32,9.56l3-10.63c3-10.63-6.2-44.65-12.53-49.72Z"/><path class="cls-21" d="M2312.13,1156.6c-3,7.37-23,5.36-38.4-5.13s-37.27-20-49.77-28.68c-9.37-6.36-19.08-30.47-26.45-45.31a84.33,84.33,0,0,0-5.13-9.15c-9-2.68-8.48-12.06-16.86-15.07-9.93-3.46-6.91-9-6.91-9a35.67,35.67,0,0,1,15.84-2.12c3.13.45,9.38,9.49,13.06,15.18,3.46,2.56,7.59,6,12,10,12.06,10.72,25.67,24.56,31.14,31.36,6.36,7.93,47.54,16.63,58.7,25.78C2319.27,1140.76,2312.13,1156.6,2312.13,1156.6Z"/><path class="cls-21" d="M2240.82,1270,2284,1509.67l15,1s11.75-104.39,1.68-140.42,17.38-81.61,9.67-112.87S2240.82,1270,2240.82,1270Z"/><path class="cls-17" d="M2290.5,1137.54l-37.71-6.14c-1.79-6.12-2.3-14.54-2.33-22,0-9.24.71-17,.71-17l30.42-2.94,13.52-1.3C2287.69,1102.36,2290.5,1137.54,2290.5,1137.54Z"/><path class="cls-21" d="M2291.62,1095.64s-20.15,17.18-41.16,13.78c0-9.24.71-17,.71-17l30.42-2.94Z"/><path class="cls-17" d="M2269.57,1329c-7.63,21.23-14.49,42.86-11.05,60.6a120,120,0,0,1,1.94,16.19c.28,5.07.3,10.23.09,15.4-1.68,41.79-17.6,84.39-20.06,90.74l-.32.82-13.23-1.41-5.7-251.52s60.45-24.41,63.82,7.61C2286.8,1284,2277.74,1306.28,2269.57,1329Z"/><path class="cls-22" d="M2305.7,1343.27s-3.86.55-9.6,1.17c-10.76,1.18-28.12,2.58-38.85.93-5.11-.78-8-9.22-9.32-20.56-3-25.14,1.47-64.48,5.53-66.22,5.9-2.53,58.11-.39,58.11-.39S2323,1286.39,2305.7,1343.27Z"/><path class="cls-23" d="M2296.94,1344.44c-10.76,1.18-28.12,2.58-38.84.93-5.12-.78-8-9.22-9.33-20.56l28.62-46.84,21.49-8.43S2307.5,1305.45,2296.94,1344.44Z"/><path class="cls-22" d="M2221,1259s-11.23,49.71-9.55,89c0,0,25.56,5.06,51.68,0,0,0,43.25-62.91,39.6-83.13S2232,1252.55,2221,1259Z"/><path class="cls-17" d="M2241.56,1086.39s35.15,27.87,52.17,5.71,33-33.48,11.29-52.21-32.63-13.66-40.1-7.65S2232.86,1078.57,2241.56,1086.39Z"/><path class="cls-24" d="M2336,1048.22a7.62,7.62,0,0,0-4.19,0v0c2.83-5.25.71-13.39.71-13.39.7,4.47-3.31,9.71-3.31,9.71-.24-16.53-41.13-26.76-44.91-27.81s-3.31-7.35-3.31-7.35c-7.8,1.58-16.08,11.55-15.84,21.26s8.27,28.34,13.47,28.6,2.84,4.46-.7,10.23,1,21.45,7.44,27c5.14,4.44,7.84.73,10.85-.9a8.94,8.94,0,0,1,2.38-.91c11.92-2.66,24.33-14.44,30.5-29.48a40.36,40.36,0,0,0,2.78-15A20.56,20.56,0,0,1,2336,1048.22Z"/><path class="cls-21" d="M2260.55,1421.2c-1.68,41.79-17.6,84.39-20.06,90.74l-9.86-.59c1.26-1.68,20.64-88.88,29.91-90.15Z"/><path class="cls-20" d="M2299.82,1527.26h-8.34c-2.8-.39-4.86-1.1-7.73-1.44-4.36-.5-6.36,1.08-6.76,1.44,0,0-35.56,0-35.56,0-.89-1.12,0-3.66.82-5.58a4.87,4.87,0,0,1,3.32-2.68c3.77-1,11.18-1.82,18-7.26,3.82-3,18.44-11.22,18.44-11.22l.08,0c.32,0,1.85.42,8.5,5.39,3.44,2.56,9.3-3.62,9.3-3.62a7.68,7.68,0,0,1,1.92,2.3,7,7,0,0,1,.76,4.82c-.53,2.82,1.18,8.08,2.54,11.63.83,2.15,1.53,3.67,1.53,3.67S2307,1526.47,2299.82,1527.26Z"/><path class="cls-25" d="M2301.78,1504.57c-2,1.25-6.2,3.69-9,4-3.76.44-10.81-8.06-10.81-8.06l.08,0c.32,0,1.85.42,8.5,5.39,3.44,2.56,9.3-3.62,9.3-3.62A7.68,7.68,0,0,1,2301.78,1504.57Z"/><path class="cls-25" d="M2299.82,1527.26h-8.34c-2.8-.39-4.86-1.1-7.73-1.44-4.36-.5-6.36,1.08-6.76,1.44,0,0-35.56,0-35.56,0-.89-1.12,0-3.66.82-5.58,1.08-.85,1.39,3.68,2,4.4s28.93.26,30.56-.79,6.55-2.9,13.39-1.45c6,1.26,14.73-2,16.9-2.82.83,2.15,1.53,3.67,1.53,3.67S2307,1526.47,2299.82,1527.26Z"/><path class="cls-20" d="M2243.93,1527.19h-8.34c-2.8-.39-4.86-1.1-7.73-1.44-4.36-.5-6.36,1.08-6.76,1.44l-.08.07h-35.46c-.89-1.12,0-3.73.8-5.65a4.87,4.87,0,0,1,3.33-2.69c3.76-1,11.17-1.82,18-7.25,3.82-3.05,18.44-11.22,18.44-11.22l.08,0c.32,0,1.85.42,8.5,5.39,3.44,2.56,9.3-3.62,9.3-3.62a7.52,7.52,0,0,1,1.92,2.3,7,7,0,0,1,.76,4.82c-.53,2.82,1.18,8.07,2.54,11.63.83,2.15,1.53,3.67,1.53,3.67S2251.12,1526.4,2243.93,1527.19Z"/><path class="cls-25" d="M2245.89,1504.5c-2,1.24-6.2,3.69-9,4-3.76.44-10.81-8.06-10.81-8.06l.08,0c.32,0,1.85.42,8.5,5.39,3.44,2.56,9.3-3.62,9.3-3.62A7.52,7.52,0,0,1,2245.89,1504.5Z"/><path class="cls-25" d="M2244,1527.28h-8.67c-2.8-.39-4.64-1.19-7.51-1.53-4.36-.5-6.36,1.08-6.76,1.44l-.08.07h-35.46c-.89-1.12,0-3.73.8-5.65,1.08-.85,1.39,3.68,2,4.4s28.93.26,30.56-.79,6.55-2.9,13.39-1.45c6,1.26,14.73-2,16.9-2.82.83,2.15,1.53,3.67,1.53,3.67S2251.22,1526.49,2244,1527.28Z"/><path class="cls-20" d="M2313.71,1259.63a1.84,1.84,0,0,1-1.21,1.43c-5.34,1.9-31.05,10-67.53,3.75A181.12,181.12,0,0,1,2221,1259l5.31-95.46,3.77-43.44s13-6.72,19.85-7.14c0,0,29.07,3.32,40.24.37,0,0,13.19,5.81,18.46,13.18S2323.24,1202.54,2313.71,1259.63Z"/><path class="cls-19" d="M2244.69,1264.86c-7.5-1.5-15.26-2.79-23.67-5.85l5.58-109.78,16.8-2.2S2257.86,1218.25,2244.69,1264.86Z"/><path class="cls-17" d="M2252.2,1156.6c-3.13,7.37-23.11,5.36-38.39-5.13-1.34-.89-2.68-1.79-4.13-2.68-15-9.37-34.38-18.08-45.76-26-10.72-7.37-22-38.06-29.58-51.23a26.34,26.34,0,0,0-2-3.23c-8.92-2.79-8.36-12.06-16.74-15.07-9.93-3.46-7-9-7-9a36.15,36.15,0,0,1,15.85-2.12c3.24.45,9.49,9.49,13.06,15.18,2.45,1.9,5.47,4.24,8.59,6.81,12.72,11,28.68,27.12,34.6,34.59,4.57,5.69,27.12,11.83,43.63,18.08,6.48,2.57,12.06,5.14,15.18,7.7C2259.34,1140.76,2252.2,1156.6,2252.2,1156.6Z"/><path class="cls-20" d="M2252.2,1156.6c-3.13,7.37-23.11,5.36-38.39-5.13-1.34-.89-2.68-1.79-4.13-2.68,15.73-11.72,15.4-26.45,14.61-32,6.48,2.57,12.06,5.14,15.18,7.7C2259.34,1140.76,2252.2,1156.6,2252.2,1156.6Z"/><path class="cls-26" d="M2209.56,1067.32c-1.34,3.68-4.68,7.93-12,10.16a84.33,84.33,0,0,0-5.13-9.15c-9-2.68-8.48-12.06-16.86-15.07-9.93-3.46-6.91-9-6.91-9a35.67,35.67,0,0,1,15.84-2.12c3.13.45,9.38,9.49,13.06,15.18C2201,1059.84,2205.1,1063.31,2209.56,1067.32Z"/><path class="cls-22" d="M2184.55,1060.87c-4.25,3.29-15.61,14.8-15.61,14.8l-26.19-33.86s13.39-8.45,17.86-11.88c4.06-3.11,16-14.3,16-14.3l26.19,33.85S2188.8,1057.58,2184.55,1060.87Z"/><path class="cls-23" d="M2184.55,1060.87c-4.25,3.29-15.61,14.8-15.61,14.8l-18.45-23.85s13.39-8.46,17.86-11.88c4.06-3.11,16-14.31,16-14.31l18.44,23.85S2188.8,1057.58,2184.55,1060.87Z"/><rect class="cls-22" x="2189.34" y="1010.11" width="3.42" height="42.8" transform="translate(-173.23 1555.81) rotate(-37.71)"/><rect class="cls-22" x="2152.78" y="1038.39" width="3.42" height="42.8" transform="translate(-198.18 1539.3) rotate(-37.71)"/><path class="cls-27" d="M2149,1046.52l-27.75,34a9.47,9.47,0,0,1-13.29,1.35L2094,1070.49a10,10,0,0,1-1.43-14l27.41-33.58a18.14,18.14,0,0,1,18.87-6,2.06,2.06,0,0,0,2.32-.88,5.61,5.61,0,0,1,.47-.65l1.46-1.8,10.36,8.45-1.47,1.8a5.46,5.46,0,0,1-.62.65,1.84,1.84,0,0,0-.43,2.19A18.17,18.17,0,0,1,2149,1046.52Z"/><path class="cls-28" d="M2149,1046.52l-27.75,34a9.47,9.47,0,0,1-13.29,1.35l-8.76-7.15a10,10,0,0,1-1.42-14l27.41-33.58a18.16,18.16,0,0,1,18.87-6,2.17,2.17,0,0,0,1,0,2,2,0,0,0,1.34-.91c.14-.22.29-.44.46-.66l1.47-1.79,5.18,4.22-1.47,1.8a5.46,5.46,0,0,1-.62.65,1.84,1.84,0,0,0-.43,2.19A18.17,18.17,0,0,1,2149,1046.52Z"/><path class="cls-28" d="M2143.22,1041.83l-27.74,34a9.47,9.47,0,0,1-13.29,1.34l-3-2.46a10,10,0,0,1-1.42-14l27.41-33.58a18.16,18.16,0,0,1,18.87-6,2.17,2.17,0,0,0,1,0,1.66,1.66,0,0,0,.19.81A18.15,18.15,0,0,1,2143.22,1041.83Z"/><rect class="cls-24" x="2111.07" y="1028.87" width="25.76" height="37.42" transform="translate(-30.61 2030.65) rotate(-50.78)"/><rect class="cls-24" x="2142.07" y="1014.51" width="14.86" height="3.52" transform="translate(1122.52 -1128.14) rotate(39.11)"/><path class="cls-26" d="M2146.06,1064.09c-2,3-5.58,5.69-11.72,7.47a26.34,26.34,0,0,0-2-3.23c-8.92-2.79-8.36-12.06-16.74-15.07-9.93-3.46-7-9-7-9a36.15,36.15,0,0,1,15.85-2.12c3.24.45,9.49,9.49,13.06,15.18C2139.92,1059.18,2142.94,1061.52,2146.06,1064.09Z"/><path class="cls-29" d="M2016.17,1033.42c-4.19,0-86.49-4.19-86.49-4.19l57.19,61L2112.42,1117Z"/><path class="cls-30" d="M2073.1,1111.48c-2.72,8.34-7.53,34.29-7.53,34.29l-66.4-21.73s10.33-23.69,13.24-32.42c2.63-7.93,8.49-34,8.49-34l66.41,21.73S2075.84,1103.14,2073.1,1111.48Z"/><path class="cls-31" d="M2073.1,1111.48c-2.72,8.34-7.53,34.29-7.53,34.29l-46.77-15.3s10.33-23.7,13.24-32.43c2.63-7.92,8.49-34,8.49-34l46.78,15.31S2075.84,1103.14,2073.1,1111.48Z"/><rect class="cls-32" x="2020.04" y="1063.05" width="69.87" height="5.59" transform="translate(433.45 -586.3) rotate(18.12)"/><rect class="cls-32" x="1996.57" y="1134.77" width="69.87" height="5.59" transform="translate(454.54 -575.4) rotate(18.12)"/><path class="cls-33" d="M2085.67,1092.84l24,36.75a9.48,9.48,0,0,1-2.75,13.08l-15.07,9.82a10,10,0,0,1-13.82-2.9l-23.68-36.31a18.17,18.17,0,0,1,0-19.8,2,2,0,0,0-.13-2.47,6.42,6.42,0,0,1-.48-.65l-1.26-1.94,11.19-7.3,1.26,1.94a5.55,5.55,0,0,1,.43.79,1.84,1.84,0,0,0,2,1.07A18.17,18.17,0,0,1,2085.67,1092.84Z"/><path class="cls-34" d="M2085.67,1092.84l24,36.75a9.48,9.48,0,0,1-2.75,13.08l-9.47,6.17a10,10,0,0,1-13.82-2.91l-23.68-36.3a18.15,18.15,0,0,1,0-19.8,2.22,2.22,0,0,0,.33-.92,2,2,0,0,0-.46-1.56,6.28,6.28,0,0,1-.48-.64l-1.27-1.94,5.6-3.65,1.26,1.94a5.55,5.55,0,0,1,.43.79,1.84,1.84,0,0,0,2,1.07A18.17,18.17,0,0,1,2085.67,1092.84Z"/><path class="cls-28" d="M2079.47,1096.89l24,36.75a9.48,9.48,0,0,1-2.75,13.08l-3.26,2.12a10,10,0,0,1-13.82-2.91l-23.68-36.3a18.15,18.15,0,0,1,0-19.8,2.22,2.22,0,0,0,.33-.92,1.66,1.66,0,0,0,.83.06A18.19,18.19,0,0,1,2079.47,1096.89Z"/><rect class="cls-35" x="2060.38" y="1104.12" width="37.42" height="25.76" transform="matrix(0.84, -0.55, 0.55, 0.84, -272.53, 1317.4)"/><rect class="cls-30" x="2049.58" y="1081.39" width="14.86" height="3.52" transform="translate(-257.2 1304.39) rotate(-33.23)"/><path class="cls-33" d="M2003.06,1077.28l8.9,43a9.49,9.49,0,0,1-7.34,11.17l-17.61,3.65a10,10,0,0,1-11.81-7.76l-8.79-42.44a18.18,18.18,0,0,1,7.26-18.43,2.06,2.06,0,0,0,.78-2.35,6.77,6.77,0,0,1-.22-.77l-.46-2.27,13.08-2.71.47,2.27a6.79,6.79,0,0,1,.12.89,1.81,1.81,0,0,0,1.42,1.71A18.15,18.15,0,0,1,2003.06,1077.28Z"/><path class="cls-34" d="M2003.06,1077.28l8.9,43a9.49,9.49,0,0,1-7.34,11.17l-11.07,2.29a10,10,0,0,1-11.8-7.75l-8.79-42.45a18.15,18.15,0,0,1,7.25-18.42,2.3,2.3,0,0,0,.65-.74,2,2,0,0,0,.13-1.61,6.37,6.37,0,0,1-.21-.78l-.47-2.27,6.54-1.35.47,2.27a6.79,6.79,0,0,1,.12.89,1.81,1.81,0,0,0,1.42,1.71A18.15,18.15,0,0,1,2003.06,1077.28Z"/><path class="cls-28" d="M1995.8,1078.79l8.9,43a9.48,9.48,0,0,1-7.34,11.17l-3.81.79a10,10,0,0,1-11.8-7.75l-8.79-42.45a18.15,18.15,0,0,1,7.25-18.42,2.3,2.3,0,0,0,.65-.74,1.64,1.64,0,0,0,.75.36A18.18,18.18,0,0,1,1995.8,1078.79Z"/><rect class="cls-30" x="1969.4" y="1084.49" width="37.42" height="25.76" transform="translate(-181.2 425.88) rotate(-11.7)"/><rect class="cls-30" x="1972.48" y="1056.04" width="14.86" height="3.52" transform="translate(-174.55 427.49) rotate(-11.81)"/><path class="cls-8" d="M2155.5,1360.76l-14.18,90.17-4.13,26-8.14,52.12H2018.78s-14.5-8.93-33.37-20.65c-32.14-20.2-76.56-48.32-81-53.35-2.9-3.23-7.92-27.56-12.83-55-6.92-39.17-13.62-84.93-13.62-84.93l40.4-75.44-34.82-83.36,46-127.08,57.14,61,125.67,26.67Z"/><path class="cls-36" d="M2141.15,1450.93l-12.28,78.13H2018.61s-14.51-8.93-33.37-20.65l-9.15-26.9,106-48.1,12.72-.67Z"/><path class="cls-29" d="M2155.5,1360.76l-14.18,90.17-4.13,26c-7.14-3.57-56.91-29.24-54.9-43.53C2084.41,1418.12,2155.5,1360.76,2155.5,1360.76Z"/><path class="cls-29" d="M1904.39,1455.06s67,20.23,71.84,26.51,18.84,32.78,18.84,32.78Z"/><polygon class="cls-36" points="1979.03 1415.31 1976.23 1481.57 2082.29 1433.41 2155.5 1360.76 2088.53 1272.32 2056.45 1357.41 1979.03 1415.31"/><path class="cls-29" d="M1991.58,1344.16s53-15.35,57.89-22.32,39.06-49.53,39.06-49.53-9.06,69.06-15.34,77.43S1991.58,1344.16,1991.58,1344.16Z"/><path class="cls-36" d="M1948.14,1294.13,1891.56,1400c-6.92-39.17-13.62-84.93-13.62-84.93l32-37.72Z"/><path class="cls-29" d="M1948.14,1294.13s-30.69-12.05-70.2,21l40.4-75.44Z"/><polygon class="cls-29" points="1883.52 1156.31 1976.93 1180.71 2015.99 1240.23 1883.52 1156.31"/><path class="cls-24" d="M1825,706.55c-.08-2-1.63-23.67-34.61-24.8,0,0,16.22,1.93,19,9.06,0,0-11.05-8.81-20-6s-14.28,18.59-14.33,23.77,4.94,21.89,10.65,23.31a17.33,17.33,0,0,0,6.92,0,76.93,76.93,0,0,0-4.43,7.91c-13.17,27,.41,53.42,11.55,50.51,7.15-1.87,9.17,10.32,9.17,10.32l69.43-56.21S1852.82,691.7,1825,706.55Z"/><path class="cls-16" d="M1849.16,1504.58l-12.24,6.38s-66.56-91.8-74.44-170c-1.41-14-.94-27.48,2.1-40,0,0-.62-3.58-1.72-9.9-.51-3-1.13-6.5-1.84-10.57-2.09-11.93-5-28.26-8.22-46.85-7.54-42.78-17.31-97.46-24.89-137.66l55.85-43.37,32-8.43s7.16,14,13.55,80.08c1.18,8.67,2.25,18.23,3.06,28.59a566.08,566.08,0,0,1-3.05,115.77c-1.47,11.48-3.32,23.34-5.62,35.53-1.69,8.93-1.94,21.1-1.23,35.08C1825.71,1403.21,1849.16,1504.58,1849.16,1504.58Z"/><path class="cls-15" d="M1832.38,1152.93l-69.52,138.21c-.51-3-1.13-6.5-1.84-10.57-2.09-11.93-5-28.26-8.22-46.85-7.54-42.78-17.31-97.46-24.89-137.66l55.85-43.37,32-8.43s7.16,14,13.55,80.08C1830.5,1133,1831.57,1142.57,1832.38,1152.93Z"/><path class="cls-16" d="M1801.8,1062l-1.61-13.8c-27,7.16-99-20-99-20s-26.12,23-22.69,78c1.67,26.86,4.73,141,7.92,174.79,1.16,12.24,2.17,21,2.58,24.43a.08.08,0,0,1,0,0,4.87,4.87,0,0,1-.79,3,158.09,158.09,0,0,0-11.78,24.79c-31.35,83.52,2.86,178.9,2.86,178.9l11,2.91s20.89-113.69,37.62-164.26c2.84-8.57,5.56-15.31,8-19.34,7.27-11.74,14-30.91,20.15-53.72C1767.73,1234.59,1801.8,1062,1801.8,1062Z"/><path class="cls-22" d="M1673.69,1527.16h10.11c3.38-.53,5.88-1.51,9.36-2,5.27-.69,7.7,1.47,8.18,2l.09.11h42.93c1.08-1.55.05-5.12-1-7.75a6.09,6.09,0,0,0-4-3.67c-4.55-1.32-13.53-2.49-21.74-9.94-4.63-4.17-22.33-15.36-22.33-15.36l-.1,0c-.39,0-2.24.58-10.29,7.37-4.17,3.51-11.26-5-11.26-5a10.17,10.17,0,0,0-2.33,3.15,10.71,10.71,0,0,0-.92,6.6c.64,3.86-1.42,11-3.07,15.91-1,3-1.85,5-1.85,5S1665,1526.08,1673.69,1527.16Z"/><path class="cls-23" d="M1671.32,1496.1c2.42,1.7,7.51,5.05,10.89,5.49,4.56.6,13.09-11,13.09-11l-.1,0c-.39,0-2.24.58-10.29,7.37-4.17,3.51-11.26-5-11.26-5A10.17,10.17,0,0,0,1671.32,1496.1Z"/><path class="cls-23" d="M1673.69,1527.16h10.11c3.38-.53,5.88-1.51,9.36-2,5.27-.69,7.7,1.47,8.18,2l.09.11h42.93c1.08-1.55.05-5.12-1-7.75-1.3-1.16-1.67,5-2.39,6s-35,.36-37-1.08-7.93-4-16.21-2c-7.21,1.72-17.83-2.69-20.46-3.87-1,3-1.85,5-1.85,5S1665,1526.08,1673.69,1527.16Z"/><path class="cls-22" d="M1824.83,1527.16h10.1c3.39-.53,5.89-1.51,9.36-2,5.27-.69,7.7,1.47,8.18,2l.1.11h42.93c1.08-1.55,0-5.12-1-7.75a6.09,6.09,0,0,0-4-3.67c-4.55-1.32-13.52-2.49-21.74-9.94-4.63-4.17-22.33-15.36-22.33-15.36l-.1,0c-.38,0-2.24.58-10.29,7.37-4.16,3.51-11.26-5-11.26-5a10.06,10.06,0,0,0-2.32,3.15,10.7,10.7,0,0,0-.93,6.6c.65,3.86-1.42,11-3.07,15.91-1,3-1.84,5-1.84,5S1816.13,1526.08,1824.83,1527.16Z"/><path class="cls-23" d="M1822.46,1496.1c2.41,1.7,7.5,5.05,10.88,5.49,4.56.6,13.09-11,13.09-11l-.1,0c-.38,0-2.24.58-10.29,7.37-4.16,3.51-11.26-5-11.26-5A10.06,10.06,0,0,0,1822.46,1496.1Z"/><path class="cls-23" d="M1824.83,1527.16h10.1c3.39-.53,5.89-1.51,9.36-2,5.27-.69,7.7,1.47,8.18,2l.1.11h42.93c1.08-1.55,0-5.12-1-7.75-1.3-1.16-1.67,5-2.39,6s-35,.36-37-1.08-7.92-4-16.21-2c-7.21,1.72-17.83-2.69-20.46-3.87-1,3-1.84,5-1.84,5S1816.13,1526.08,1824.83,1527.16Z"/><path class="cls-21" d="M2018.9,1018.7c-3.35-3.35-23.55-2.57-23.55-2.57s-11.16-4.46-24.89-10.49c-19.09-8.48-43.08-19.86-48.33-25.67-12.16-13.5-26.78-58.81-40.51-88.72q-1.83-4.18-3.68-8a2.61,2.61,0,0,0-.45-.78c-.67-1.23-1.22-2.34-1.78-3.35,0-.11-.11-.22-.23-.33a51,51,0,0,0-7.7-11.39v-.11c-3-3.23-5.91-4.57-8.59-3.45a38.47,38.47,0,0,0-10.6,9,8.18,8.18,0,0,0-1.56,1.9,46.67,46.67,0,0,0-8.26,16.52,57.83,57.83,0,0,0-1.9,18.3c.45,11.5,6.14,25.89,14.29,40.4a16.74,16.74,0,0,0,1.11,2c15.63,27.34,39.62,54.69,54.24,63.61,9.6,5.92,33.71,9.49,54,11.5,13.5,1.45,25.44,2.12,30.35,2.45,2.12,2.35,17.52,20,23.33,14.85C2020.57,1038.9,2022.24,1022.05,2018.9,1018.7Z"/><path class="cls-17" d="M1853.3,894.6c-8.46,3.93-18.68,6.6-31,7.28-46.35,2.54-56.87-38.1-58.79-65.07a38.9,38.9,0,0,1,15.91-2c3.28.18,6.71.52,9.54.87,5.68-3,15.86-17.35,21.75-41.42l2,.93,33.44,15.72s-3.55,10.89-6.17,21.3c-2,8.15-3.52,16-2.29,18.23,2.64,1.07,4.21,1.75,4.21,1.75s0,0,0,0A230.06,230.06,0,0,1,1853.3,894.6Z"/><path class="cls-22" d="M1864.9,925c-.35.92-.74,1.83-1.16,2.75-11.74,25.29-33.47,130-33.47,130-4.73,18.76-141.51-3.69-141.89-20.84-5.09-18.18,18.07-47.39,31.14-62a41.93,41.93,0,0,0,4.38-5.9,41,41,0,0,0,5.92-17.29c2.52-23.84,1.63-46.21,1.8-60.12,0-.28,0-.55,0-.81,2.55-1.89,5-3.64,7.32-5.3a65.64,65.64,0,0,0,8.91-7.39c2.51-2.65,4.09-5.36,4.27-8.42a43.89,43.89,0,0,0-.18-7q-.17-1.68-.42-3.36a95.9,95.9,0,0,0-6.72-22.43c12.44-5,34.56-2,34.56-2s0,1.23,0,3.24c-.07,8.08,0,28.82,2.59,32.75,3.24,4.89,62.49,26.31,65.62,19.67s-5.36-37.09-5.67-38.25c0,0,0,0,0,0,19.85,7.79,26.94,14.32,26.94,14.32C1856.83,874.26,1874.15,900.49,1864.9,925Z"/><path class="cls-21" d="M1846.1,810.91s-3.55,10.87-6.17,21.3c-19.55-5.46-25.49-26-27.28-37Z"/><path class="cls-17" d="M1850.22,822.42s-46.77-10.82-39.58-39.85,6-50,36.16-44.28,33.2,18.19,33.16,28.46S1862.57,824.49,1850.22,822.42Z"/><path class="cls-24" d="M1882.59,750.27c-5-10.52-10.94-9.95-14.65-8.09-22-20.33-43.53-3.72-43.53-3.72a57.13,57.13,0,0,1-26.28,28.23s7.18,7.36,28,7.2c6.36,0,12.76-3,18.58-7a112,112,0,0,1-24.39,18.19c26.07-5,43.55-35.17,45.34-38.37,2.21,3.26,6.44,10.2,6.79,16.06.48,8-2.26,23.44,2.3,24C1874.76,786.8,1890.13,766.05,1882.59,750.27Z"/><path class="cls-22" d="M1868.79,866.5s11.26,19.64,13,24.7c0,0-14.61-.56-20.5,10.67C1861.24,901.87,1859.82,869.15,1868.79,866.5Z"/><path class="cls-23" d="M1791.33,1022.6c-28.52-.3-52.67-29.92-67.43-53.59a41,41,0,0,0,5.92-17.29c2.52-23.84,1.63-46.21,1.8-60.12,0-.28,0-.55,0-.81,2.55-1.89,5-3.64,7.32-5.3a65.64,65.64,0,0,0,8.91-7.39C1771.22,917.58,1830,1023,1791.33,1022.6Z"/><path class="cls-17" d="M1950.48,1044.81s-18.52-13.28-29.57-10.71c-9.82,2.23-30.81-2.23-34.93-3.13h0c-4.9-2.67-10.82-5.91-17.07-9.48-15.07-8.49-32.37-18.86-44.2-27.46-6.8-4.91-11.94-9.26-13.72-12.39-2.79-4.79-5.91-12.38-9.38-21.76-1.78-4.91-3.68-10.27-5.57-16-3.36-9.38-6.7-19.54-10.16-29.69-6.23-18.48-12.92-37.08-19.26-51.46-18.79-6.59-33.19,3.56-38,7.7,0,1-.06,2-.07,3.13a48,48,0,0,0,.12,5.7,120.12,120.12,0,0,0,3,20.2,305.81,305.81,0,0,0,12.72,42.41c1.56,4,3.13,8.14,4.8,12.27,12,29.92,27.57,57.81,40.62,67.3a14.58,14.58,0,0,0,1.56,1.11c5.48,3.46,13.52,6.93,22.77,10.16,13.18,4.47,28.8,8.48,42.75,11.83h.11c8.15,1.78,15.63,3.46,21.87,4.69,0,0,1.34.33,3.69.78h0a250.35,250.35,0,0,1,29.52,9c16.07,6.36,26.12-4.13,33.26-7.14S1950.48,1044.81,1950.48,1044.81Z"/><path class="cls-22" d="M1766.52,862.72c-21.48-5.92-38.06,10.86-38.06,10.86.27-32.32,16.36-36.74,16.36-36.74C1751.29,834.16,1758.79,845.37,1766.52,862.72Z"/><path class="cls-37" d="M1946.05,1052.28c-7.15,3-17.19,13.51-33.26,7.15a248.12,248.12,0,0,0-29.58-9c-2.34-.45-3.68-.78-3.68-.78-6.25-1.23-13.73-2.91-21.87-4.69,6.69-8.26,10.49-18.75,11.94-23.1,6.25,3.57,12.16,6.8,17.07,9.48,4.13.9,25.11,5.36,34.94,3.13,11-2.57,29.57,10.71,29.57,10.71S1953.19,1049.38,1946.05,1052.28Z"/><path class="cls-37" d="M2013.51,1044.37c-5.8,5.13-21.2-12.5-23.33-14.85-4.91-.33-16.85-1-30.35-2.45,4.24-6.92,8.15-16.85,9.93-21.43,13.73,6,24.89,10.49,24.89,10.49s20.2-.78,23.55,2.57S2019.87,1038.9,2013.51,1044.37Z"/><path class="cls-5" d="M1545.48,1527.26c5.09-8.38,5.69-16.85-1.24-24.64-16.56-18.63-63.25,4.41-96.38,24.64Z"/><path class="cls-5" d="M1434.8,1527.26c31.49-35.27,81.37-99.94,49.29-124.89-32.67-25.41-98.63,69.23-132.53,123.36,2.32-42.28-1-98.51-37-85.7-37.39,13.29-6.48,53.56,15.68,87.23Z"/><path class="cls-38" d="M3054.67,1482.23s32.93-158.87-30.16-186.22S3054.67,1482.23,3054.67,1482.23Z"/><path class="cls-38" d="M3031.88,1465s-32-90.34-80.07-110.23S2958.44,1417.86,3031.88,1465Z"/><path class="cls-38" d="M3073.68,1431s33.17-48.42,25.67-79.39S3070.5,1377.69,3073.68,1431Z"/><path class="cls-38" d="M3162.63,1525.53l-.33,1.73H2716s59.73-94.32,141.18-42.59a110.36,110.36,0,0,0,59.29,17.59,71.43,71.43,0,0,0,46.2-17c123.05-103.81,170.72-98.7,207.29-96.47,0,.14,0,.3.05.44C3174.32,1429,3172.39,1474,3162.63,1525.53Z"/><path class="cls-15" d="M2864.3,1461.45s13.92,12.9,11.2,22.07-15.28,15.29-17,26.5-8.49,17.33-14.61,17.33h-29.14s-4.51-7.89,6.36-10.27,15-15.55,14.29-27.78,1-28.53,1-28.53l23.1-5.44Z"/><path class="cls-15" d="M2693.44,1494.83s2.5,29.38-3.62,32.43H2611.5s.08-9.33,12.64-11.37,34.65-9.51,38.39-26.15S2693.44,1494.83,2693.44,1494.83Z"/><path class="cls-16" d="M2627.38,1079.88s4.12,51.49,9,113.39c6.6,84.08,14.52,187.36,15.31,206.92,1.35,34,6.8,88.32,6.8,88.32s12.9,12.91,38.72,7.47c0,0,23-77.58,29.58-159.66.1-1.35.21-2.7.31-4.06,6.11-83.56,15.62-259.51,15.62-259.51Z"/><path class="cls-15" d="M2627.38,1079.88s4.12,51.49,9,113.39l90.41,143c.1-1.35.21-2.7.31-4.06,6.11-83.56,15.62-259.51,15.62-259.51Z"/><path class="cls-16" d="M2646.22,1086s74.39,186.49,123.31,274.12,64.19,112.1,64.19,112.1,28-11.21,30.58-18.86c0,0-18.71-169.18-51.47-210.42-18.51-23.31-40.25-93.25-41.27-117.7s-6.62-72.86-6.62-72.86Z"/><path class="cls-17" d="M2744.1,798.61s-50.34,24.66-79.35,15.51a68.72,68.72,0,0,1,19.64-16c-1-5.91-1.79-11-2.23-15.4a144,144,0,0,1-1.23-15.73l19.42-15.51,18.41-14.85C2717.31,778.41,2744.1,798.61,2744.1,798.61Z"/><path class="cls-36" d="M2770.62,1061.92c.11,3.12-6.47,6.69-9.37,8-21.54,9.6-41.63,16.3-64.4,18.53-26.89,2.79-58.7-3.35-69.64-3.13a4.51,4.51,0,0,1-3-1.22c-.78-.56-1.34-33.48-.78-74.89,0-1.67,0-3.35.11-5v-.56c.22-16.18.78-33.14,1.56-50.11,1.56-37.27,4.47-73.21,9.38-93.07,5.91-23.44,19.3-39,31.47-50.23l10-8.92c10.05,2,20.65,1.45,31.25-3.8,11.61-5.69,24.35-12.3,26.35-10.74,15.18,11.27,25.21,37.08,30.68,69.44a364,364,0,0,1,4.58,61.39c0,8-.23,16.29-.67,24.44-2.68,44.19,0,82.58,1.56,104.79C2770.17,1053.32,2770.51,1058.35,2770.62,1061.92Z"/><path class="cls-39" d="M2769.73,1046.85c-243.85-.33-45-181.8-45-181.8l39.51-8.82a364,364,0,0,1,4.58,61.39c0,8-.23,16.29-.67,24.44C2765.49,986.25,2768.17,1024.64,2769.73,1046.85Z"/><path class="cls-6" d="M2661.25,927.44l-.78,18.52-.78,17.19-2.46,58.7-34.59,59.93s-25.9,27.46-92.52,27.46c-83,0-95.31-45.76-95.31-45.76l1-74.1,30.47-43.64L2451.1,902.1,2488.6,835l49.78-26.34,31.47,8.15,26.45-6.14L2637.93,830Z"/><path class="cls-7" d="M2567.76,810.66l-7.48-24a4.24,4.24,0,0,0-4.26-3c-6.72.34-21.42,1.24-21.42,2.55C2534.6,788,2567.76,810.66,2567.76,810.66Z"/><path class="cls-7" d="M2571.82,811.67l1.09-16.48a3.4,3.4,0,0,1,4.29-3.06L2584,794a5.74,5.74,0,0,1,1.18,10.6Z"/><path class="cls-7" d="M2561.65,812.05l1.51-2.73a3.69,3.69,0,0,1,3.19-1.9l9.52-.12a3.68,3.68,0,0,1,3,1.48l1.48,2a3.73,3.73,0,0,1,.69,2.82l-.23,1.44a3.7,3.7,0,0,1-3.84,3.1l-12.26-.58A3.7,3.7,0,0,1,2561.65,812.05Z"/><path class="cls-7" d="M2488.64,835.08l19.87,52.24a3.61,3.61,0,0,0,6.65.22l8.09-17.75a7.19,7.19,0,0,0-2.05-8.59Z"/><path class="cls-7" d="M2466.28,945.74s22.88,31.78,18.14,36.51-48.66,7.15-48.66,7.15Z"/><path class="cls-7" d="M2657.18,1021.89s-90.54,30.09-85.58,40.92,51.06,19,51.06,19Z"/><path class="cls-7" d="M2660.47,946l-.78,17.19-84.15,8.15a3.17,3.17,0,0,1-2-5.81l52-33a11,11,0,0,1,11.27-.22Z"/><path class="cls-7" d="M2560,821.49l-22.74,5.81a5.76,5.76,0,0,0-3.43,8.69l2.69,4.22a4.38,4.38,0,0,0,7,.49Z"/><path class="cls-7" d="M2571.82,820.81l22.74-4a5.54,5.54,0,0,1,4.21,1l9.07,6.54a2,2,0,0,1-1.53,3.49Z"/><path class="cls-18" d="M2598.59,972.09l-9-2.89s-6.32-20.9-27.67-11.55c0,0-8.67,4.6-4.86,10s3.12,2.57,8.34,10.41,13.48,11.55,20.06,8.59l7.5.22Z"/><path class="cls-36" d="M2744.11,798.56s55.22,87.82-3.6,189.31c-18.36,31.68-157.06,1.57-157.06,1.57s-5.41-9.77,9.07-20.05c0,0,92.34-15.63,103.35-18.26,9.76-2.32,3.25-92.07,14.41-118.11S2744.11,798.56,2744.11,798.56Z"/><path class="cls-21" d="M2719.1,752.63s-12.72,23.55-36.94,30.13a144,144,0,0,1-1.23-15.73l19.42-15.51Z"/><path class="cls-17" d="M2672.08,766.35s48,8,52.52-22,13.74-49.14-16.73-55.5-38.15,4.18-42.09,13.82S2659.7,763.5,2672.08,766.35Z"/><path class="cls-16" d="M2742.05,685.26c.44-.51,1.44-.92,3.68-1a9,9,0,0,0-4.18-1.2c-.47-3.16-2.12-8.75-7.48-10.11a6.79,6.79,0,0,1,3.25,4.92c-6.2-6.47-19.49-11.18-56.29-8.23-48.49,3.89-32.51,35.42-26.23,39.18s22.08-6.55,33.78-5.6,13.92,18.11,17.89,20.46,2.41-1.81,7.78-4.27,5.88,6.57,4.33,12.44,5.82,13.63,5.82,13.63l7.46-8.16c7.45-8.15,14.48-42.69,11.09-50Z"/><rect class="cls-40" y="1527.26" width="3239.89" height="8.59" rx="3.24"/></g></g></svg>