<svg xmlns="http://www.w3.org/2000/svg" viewBox="0 0 2907.77 1104.54"><defs><style>.cls-1{fill:#ebf3fa;}.cls-2{fill:#233862;}.cls-3{fill:#ffb27d;}.cls-4{fill:#f99746;}.cls-5{fill:#ed7d2b;}.cls-6{fill:#0f2949;}.cls-7{fill:#163560;}.cls-8{fill:#2b478b;}.cls-9{fill:#fff;}.cls-10{fill:#ed985f;}.cls-11{fill:#2c3a64;}.cls-12{fill:#35488b;}.cls-13{fill:#dfebfd;}.cls-14{fill:#ea9c68;}.cls-15{fill:#2e3552;}.cls-16{fill:#ed975d;}.cls-17{fill:#d7e9ff;}.cls-18{fill:#afcdfb;}.cls-19{fill:#bc3f3f;}</style></defs><title>growthAsset 1</title><g id="Layer_2" data-name="Layer 2"><g id="Слой_1" data-name="Слой 1"><path class="cls-1" d="M117.7,1101.55S7.16,792.36,164.29,563.74C280.41,394.77,543.44,279,857.74,333.63c106.82,18.57,478.93-40.86,804.09-226.78,448-256.13,1130.49-34.07,1031.2,477-59.24,304.95,316.66,223.92,113,518.31Z"/><path class="cls-2" d="M2395.91,1098.71,2394.66,729s-2.83-26.65-26-26.78c-24.79-.15-26.37,26.46-26.37,26.46a2.82,2.82,0,0,0,2.89,2.32,3,3,0,0,0,3.11-2.28s1.22-20.52,20.33-20.41c17.91.11,20.08,20.65,20.08,20.65l-2.19,369.67Z"/><path class="cls-2" d="M2383.27,1098.64l15.41.09-1.27-16.13s.14-2.23-3-2.38c-2.9-.13-8.61-.58-9.16,1.17C2384.79,1082.92,2383.27,1098.64,2383.27,1098.64Z"/><path class="cls-3" d="M2368.53,682.65l-1.08,5.29s-26.14-.26-32.41,27.71c0,0-1.73,11.65,6.69,9.21s7.14-8.39,19.06-11.58,19.68-5.64,21.54-14.29l2-9.63Z"/><path class="cls-4" d="M2462.31,454s-7.07,27.16-13.18,52c-2.46,10-4.77,19.63-6.39,27-1.66,7.52-2.61,12.61-2.26,13.18,5.13,8.44-4.64,59.7-12.25,78.29-.67,1.65-1.59,3.58-2.69,5.72-10.6,20.48-38.74,60.63-38.74,60.63s-7.87.77-13-1.2c-4.29-1.65-7.19-6.92-7.19-6.92,2.52-4,12.89-51.37,26-77.88,5.62-11.34,14.43-116.84,25.27-131C2427,462,2462.31,454,2462.31,454Z"/><path class="cls-5" d="M2440.48,546.12c5.13,8.44-4.64,59.7-12.25,78.29-.67,1.65-1.59,3.58-2.69,5.72-9.75-44.35,7.21-107,7.21-107,4.13,1.67,7.42,5.1,10,9.8C2441.08,540.46,2440.13,545.55,2440.48,546.12Z"/><path class="cls-6" d="M2510,1058.67s2.42,40.1-5.15,40.62c-1,.07-38.39-.16-38.39-.16l-48.23-.28s.89-11.77,14.85-14.12,37.37-12,45.93-30.4C2488,1035,2510,1058.67,2510,1058.67Z"/><path class="cls-7" d="M2582.51,1059.1s2.42,40.1-5.15,40.62c-1,.07-38.39-.16-38.39-.16l-48.23-.28s.89-11.77,14.85-14.12,37.37-12,45.93-30.4C2560.53,1035.41,2582.51,1059.1,2582.51,1059.1Z"/><path class="cls-8" d="M2512.84,962.07c1.08,17,3.37,38.77,2.39,58.41-1.37,27.46-2.37,50.62-2.37,50.62-18.15,6.06-51.34-1.61-51.34-1.61s-11.38-69.5-20.76-125c-4.21-24.86-7.69-46.37-9-56.52-4.18-32.81,5.88-207.09,5.88-207.09s49.2-31.12,69.35-14.8,32.52,32.21-1.16,209.4C2503.29,889,2510.4,924.09,2512.84,962.07Z"/><path class="cls-2" d="M2512.84,962.07c1.08,17,3.11,44.1,2.13,63.74-16.93-18.13-50.28-56.38-74.21-81.29-4.21-24.86-7.69-46.37-9-56.52-4.18-32.81,5.88-207.09,5.88-207.09s49.2-31.12,69.35-14.8,32.52,32.21-1.16,209.4C2503.29,889,2510.4,924.09,2512.84,962.07Z"/><path class="cls-8" d="M2481.93,684.72s3.36,174.54,10.05,206.93,41.7,180.73,41.7,180.73,33.62,3.26,51.25-4.17c0,0-.71-68.6-6.44-108.94-5.35-37.68-15.14-72.16-13.62-85.76,20-179.26,6.41-194.16-14.94-208.88S2481.93,684.72,2481.93,684.72Z"/><path class="cls-3" d="M2548.35,700.4s-11.8,23.32,10.51,41.33c0,0,9.67,6.7,11.21-1.93s-.19-5.62,2.22-17.72-.5-24.64-7.44-30.14Z"/><path class="cls-3" d="M2451.78,414.39s13.33,20.54,10.54,39.61l19.62,48.09,36.25-54.71s-18.85-20.77-25.77-49Z"/><path class="cls-3" d="M2445.77,431.81s49,2.41,50.06-27,14.42-48.9-22.21-51.7c-30.13-2.31-40.22,10.2-43,19.93S2427.62,430.12,2445.77,431.81Z"/><path class="cls-4" d="M2564.18,693.62c-10.54.92-25,2-42.63,3l-10.9.58c-53.11,2.66-74.16-6.07-74.16-6.07s-1.4-1.14-.92-7.38c2.5-32.09,9.37-41.53,8.58-47.64-1.76-13.73-34.37-125.84-34.37-125.84s-.43-35.35,39-51.71a93.12,93.12,0,0,1,13.48-4.4c1.7,4.59,6.38,12.26,18.46,10.92,17.86-2,30.63-12.42,36.11-17.78,1,0,1.38,0,1.38,0a109.61,109.61,0,0,1,3.22,11.68c3.14,13.92,4.94,28.55,13.4,39.53a300.6,300.6,0,0,1,21.58,32,264.82,264.82,0,0,1,13.1,25.53C2603.85,633.22,2576.57,692.53,2564.18,693.62Z"/><path class="cls-5" d="M2564.18,693.62c-10.54.92-25,2-42.63,3-4.61-86.46,31.1-169.25,31.1-169.25a31.83,31.83,0,0,1,3.75,3.14c6.1,6,10.32,14.87,13.1,25.53C2579.76,595.34,2570.6,659,2564.18,693.62Z"/><path class="cls-9" d="M2430.14,403.66s-9.76,37.78,6.4,43.21,59.15,1.41,59.41-45c0,0-22.63,13.31-33.4,12.91s-17.69-6.66-27.67-1.87C2434.88,412.93,2431.24,412.67,2430.14,403.66Z"/><path class="cls-4" d="M2518.19,447.38s34.25,1,52.2,24.63c13.76,18.12,27.85,115,27.76,129.6s-16.18,94.93-25,103.62a33,33,0,0,1-13.21-.08,26.74,26.74,0,0,1-12.69-6.26s4.88-89.54,4.93-97.94c.07-12.16-37.51-86.84-37.51-86.84S2495.19,478.56,2518.19,447.38Z"/><path class="cls-9" d="M2493.77,362.38c-.8-3-4.49-4.61-4.49-4.61-27.53-12.18-47.77.85-47.77.85,17-22.61,57.84-17.6,66.32,2.93,13.84,33.53-11.88,40.34-11.88,40.34s-25.58-10.93-10.65-24.35c4.95-4.45,7.35-8.41,8.16-11.87h0A11.89,11.89,0,0,0,2493.77,362.38Z"/><path class="cls-9" d="M2438.15,419s3.24,5.11,8.88,4.92a10.4,10.4,0,0,0,8.3-4.92S2445.8,417.2,2438.15,419Z"/><path class="cls-2" d="M2000.62,1104.05s0-13.22,1.88-17.61,8.79-22.29,8.79-22.29h27s5,16.33,5.34,21.66,0,18.24,0,18.24Z"/><path class="cls-2" d="M2172,1104.05s0-13.22-1.88-17.61-8.79-22.29-8.79-22.29h-27s-5,16.33-5.34,21.66,0,18.24,0,18.24Z"/><path class="cls-3" d="M2063.86,362.35s-1,29.42-4.71,42.61l-29.81,20.79,112.2,16.79-26.75-37s-8.08-39.45-3.85-54.05S2063.86,362.35,2063.86,362.35Z"/><path class="cls-10" d="M2063.7,366.41s8.87,21.36,25.59,20.89,20.51-19.37,20.51-19.37Z"/><path class="cls-11" d="M2053.72,349.12s-5.39-26.95-9.16-35.11-6.9-44.57,34.84-46.45c0,0,16,1.88,24.8-3.45,0,0,0,5.33-2.2,7.22a27.74,27.74,0,0,1,25.73,9.1c11.3,12.55-7.53,56.5-6.59,66.85Z"/><path class="cls-3" d="M2121.77,311.57V341a34.65,34.65,0,0,1-3,14h0a44.66,44.66,0,0,1-15,18.17c-5.45,3.82-11.3,6-16.3,5.93-4.35-.09-10-2.22-15.49-5.84-7.38-4.89-14.41-12.49-17.4-21.44l0-.13-.11-.37a28.09,28.09,0,0,1-1.36-8.53V311.57c0-7.29,5.09-13.25,11.3-13.25h46.2C2116.68,298.32,2121.77,304.28,2121.77,311.57Z"/><path class="cls-11" d="M2053,328.22s.06-18.73,14.89-21.61,48,9.13,52.73-4.52-64.15-13.42-67.62-4.71S2053,328.22,2053,328.22Z"/><path class="cls-4" d="M2004,646.41s4.72,144.21-2.34,226.5,0,196.79,0,196.79,22.59,12.45,47.07,0c0,0,26.85-159,26.68-196.79-.18-40.29,29.22-220.21,29.22-220.21Z"/><path class="cls-4" d="M2171,1069.7s-22.58,12.46-47.07,0c0,0-26.84-159-26.67-196.8.08-17-5.12-58.94-11.16-101.69-8.26-58.48-18.07-118.51-18.07-118.51l104.59-6.53s-8.63,144.46-1.57,226.73S2171,1069.7,2171,1069.7Z"/><path class="cls-12" d="M2171.39,670.4s-44.58,8.64-85.26,8.64c-17.74,0-37-1.95-52.36-4-17-2.26-29.13-4.64-29.13-4.64s-9,.79-3.7-43.77c4-33.92,2.78-64.54,1.88-96-.11-3.5,0-7.64.19-12.26,1.73-36.73,12.84-102.86,21.31-106.41,0,0,12.59-4.68,34.83-7,0,.43,12.9,19.3,28.23,21.42,9.51-3.77,17-7,27.41-20.81a298.4,298.4,0,0,1,43,8.28s1.6,7,7.65,128.55C2167.8,590.55,2184.23,670.56,2171.39,670.4Z"/><path class="cls-11" d="M2033.77,675c-17-2.26-29.13-4.64-29.13-4.64s-9,.79-3.7-43.77c4-33.92,2.78-64.54,1.88-96-.11-3.5,0-7.64.19-12.26,2.6,4.17,31.56,50.95,39.36,85.71C2048,629.39,2039.49,659.25,2033.77,675Z"/><path class="cls-5" d="M2097.29,872.9c.08-17-5.12-58.94-11.16-101.69,6.26-25.54,21.52-50.11,21.52-50.11C2127,775.24,2097.29,872.9,2097.29,872.9Z"/><path class="cls-12" d="M1961.61,556.59c-1.06.89,2.65,10.08,8.11,22,11.24,24.61,29.92,60.94,29.92,60.94a108.7,108.7,0,0,1-5.67,16.6c-31.41-24.68-51.67-45.68-64.6-61.78-18.17-22.65-21.9-35.63-21.9-35.63,69.94-142.37,119.17-147.62,119.17-147.62l-5.82,94.09S1964.85,553.9,1961.61,556.59Z"/><path class="cls-3" d="M1995.91,641.38s16.95-15.7,23.85-6.91,8.17,22.6,2.83,21.66-16.32-6-17.89-3.45-8.6,7.31-10.74,3.49S1995.91,641.38,1995.91,641.38Z"/><path class="cls-3" d="M1999.64,639.58a108.7,108.7,0,0,1-5.67,16.6c-31.41-24.68-51.67-45.68-64.6-61.78,9.75-.73,24-4.21,40.35-15.76C1981,603.25,1999.64,639.58,1999.64,639.58Z"/><path class="cls-12" d="M2269.77,558.77s-3.73,13-21.9,35.63c-12.93,16.1-33.18,37.1-64.59,61.78a107.37,107.37,0,0,1-5.67-16.6s18.67-36.33,29.91-60.94c5.46-12,9.17-21.16,8.11-22-2.51-2.09-36.7-31.8-52-45-4.42-3.86-7.25-6.31-7.25-6.31l-3.49-92.69S2199.83,416.4,2269.77,558.77Z"/><path class="cls-3" d="M2181.33,641.38s-16.95-15.7-23.85-6.91-8.16,22.6-2.83,21.66,16.32-6,17.89-3.45,8.6,7.31,10.74,3.49S2181.33,641.38,2181.33,641.38Z"/><path class="cls-3" d="M2177.61,639.58a108.12,108.12,0,0,0,5.66,16.6c31.42-24.68,51.67-45.68,64.6-61.78-9.75-.73-24-4.21-40.35-15.76C2196.28,603.25,2177.61,639.58,2177.61,639.58Z"/><path class="cls-11" d="M2103.67,360.16v13c-5.45,3.82-11.3,6-16.3,5.93-4.35-.09-10-2.22-15.49-5.84v-13A13.19,13.19,0,0,1,2085,347h5.48A13.19,13.19,0,0,1,2103.67,360.16Z"/><path class="cls-11" d="M2118.72,355c-6.21,14.16-20.72,24.28-31.35,24.1-10.22-.19-27.68-11.7-32.89-27.28l0-.13-.11-.37s11,9.36,18.23,4.72h30.49S2111,360.55,2118.72,355Z"/><path class="cls-3" d="M2091.06,358.58h-6.57c-1.51,0-3.43-2.47-3.43-4a7.26,7.26,0,0,1,3.43-1.5h6.57c1.51,0,3.71,1.25,4.07,2.14C2095.13,355.24,2094.22,358.58,2091.06,358.58Z"/><path class="cls-9" d="M2077.75,354s3.78,6.42,10.36,6.19,9.69-6.19,9.69-6.19S2086.68,351.7,2077.75,354Z"/><path class="cls-2" d="M1563.94,1102.78s0-13.22,1.89-17.61,8.78-22.29,8.78-22.29h27s5,16.32,5.33,21.66,0,18.24,0,18.24Z"/><path class="cls-2" d="M1735.33,1102.78s0-13.22-1.89-17.61-8.79-22.29-8.79-22.29h-27s-5,16.32-5.33,21.66,0,18.24,0,18.24Z"/><path class="cls-3" d="M1627.19,361.08s-1,29.42-4.72,42.6l-29.81,20.8,112.21,16.79-26.76-37s-8.08-39.46-3.84-54.05S1627.19,361.08,1627.19,361.08Z"/><path class="cls-10" d="M1627,365.14s8.88,21.36,25.59,20.89,20.52-19.37,20.52-19.37Z"/><path class="cls-11" d="M1617.05,347.85s-5.4-27-9.17-35.11-6.9-44.57,34.84-46.45c0,0,16,1.88,24.8-3.45,0,0,0,5.33-2.2,7.22a27.73,27.73,0,0,1,25.74,9.1c11.3,12.55-7.53,56.49-6.59,66.85Z"/><path class="cls-3" d="M1650.69,377.78c-12.11-.22-34.4-16.34-34.4-36.31V310.31c0-7.3,5.09-13.26,11.3-13.26h46.2c6.22,0,11.3,6,11.3,13.26V339.7C1685.09,360.64,1664.58,378,1650.69,377.78Z"/><path class="cls-11" d="M1616.29,326.94s.07-18.72,14.9-21.6,48,9.13,52.73-4.53-64.16-13.41-67.63-4.7S1616.29,326.94,1616.29,326.94Z"/><path class="cls-8" d="M1567.33,645.14s4.72,144.21-2.34,226.49,0,196.8,0,196.8,22.58,12.45,47.06,0c0,0,26.85-159,26.68-196.8-.18-40.29,29.22-220.2,29.22-220.2Z"/><path class="cls-8" d="M1734.35,1068.43s-22.58,12.45-47.06,0c0,0-26.85-159-26.68-196.8.08-17-5.12-58.94-11.15-101.69-8.26-58.48-18.07-118.51-18.07-118.51L1736,644.89s-8.63,144.46-1.56,226.74S1734.35,1068.43,1734.35,1068.43Z"/><path class="cls-9" d="M1734.72,669.13s-44.59,8.64-85.26,8.64c-17.75,0-37-1.95-52.37-4-17-2.25-29.13-4.63-29.13-4.63s-9,.79-3.7-43.77c4.06-33.92,2.79-64.54,1.88-96.05-.1-3.5,0-7.64.19-12.26,1.73-36.73,12.84-102.86,21.31-106.41,0,0,12.59-4.68,34.83-7,0,.44,12.91,19.31,28.23,21.43,9.52-3.77,17-7,27.41-20.81a298.14,298.14,0,0,1,43,8.28s1.6,7,7.65,128.55C1731.12,589.27,1747.55,669.29,1734.72,669.13Z"/><path class="cls-13" d="M1597.09,673.76c-17-2.25-29.13-4.63-29.13-4.63s-9,.79-3.7-43.77c4.06-33.92,2.79-64.54,1.88-96.05-.1-3.5,0-7.64.19-12.26,2.6,4.16,31.56,50.94,39.36,85.71C1611.37,628.11,1602.81,658,1597.09,673.76Z"/><path class="cls-2" d="M1660.61,871.63c.08-17-5.12-58.94-11.15-101.69,6.26-25.54,21.51-50.11,21.51-50.11C1690.27,774,1660.61,871.63,1660.61,871.63Z"/><path class="cls-9" d="M1524.94,555.32c-1.07.88,2.64,10.07,8.1,22C1544.29,602,1563,638.31,1563,638.31a107,107,0,0,1-5.67,16.59c-31.41-24.68-51.66-45.67-64.59-61.78-18.18-22.64-21.9-35.63-21.9-35.63C1540.74,415.12,1590,409.88,1590,409.88L1584.15,504S1528.18,552.63,1524.94,555.32Z"/><path class="cls-3" d="M1559.23,640.1s17-15.69,23.86-6.9,8.16,22.6,2.82,21.66-16.32-6-17.89-3.46-8.6,7.31-10.73,3.5S1559.23,640.1,1559.23,640.1Z"/><path class="cls-3" d="M1563,638.31a107,107,0,0,1-5.67,16.59c-31.41-24.68-51.66-45.67-64.59-61.78,9.74-.72,24-4.2,40.34-15.75C1544.29,602,1563,638.31,1563,638.31Z"/><path class="cls-9" d="M1833.1,557.49s-3.73,13-21.91,35.63c-12.92,16.11-33.18,37.1-64.59,61.78a107,107,0,0,1-5.67-16.59s18.67-36.33,29.92-60.94c5.46-12,9.17-21.17,8.1-22-2.51-2.09-36.7-31.8-52-45.05l-7.25-6.31-3.5-92.69S1763.15,415.12,1833.1,557.49Z"/><path class="cls-3" d="M1744.65,640.1s-16.94-15.69-23.85-6.9-8.16,22.6-2.83,21.66,16.33-6,17.9-3.46,8.6,7.31,10.73,3.5S1744.65,640.1,1744.65,640.1Z"/><path class="cls-3" d="M1740.93,638.31a107,107,0,0,0,5.67,16.59c31.41-24.68,51.66-45.67,64.59-61.78-9.74-.72-24-4.2-40.35-15.75C1759.6,602,1740.93,638.31,1740.93,638.31Z"/><path class="cls-5" d="M1624,396.51a11.92,11.92,0,0,0-6.39,7.72s20,20.56,33.06,20.88Z"/><path class="cls-5" d="M1650.7,425.11l25.79-29.64s5.33,3.51,5.25,9.27C1681.74,404.74,1661.79,425.89,1650.7,425.11Z"/><path class="cls-4" d="M1646.05,422.92s-19.69,170-12.84,190.68a141.77,141.77,0,0,0,12,26.33,7,7,0,0,0,12.08,0c5.23-9.08,12.06-22.22,12.06-28.88,0-10.8-14.94-188.25-14.94-188.25Z"/><path class="cls-5" d="M1640.89,414.59s11.9-1.19,19.15-.45a2,2,0,0,1,1.53,3c-2,3.66-6.17,10-10.5,10C1645,427.11,1635.5,415,1640.89,414.59Z"/><path class="cls-9" d="M1641.05,357.7a13.21,13.21,0,0,0,10.36,4.92,12.31,12.31,0,0,0,9.68-4.92S1650,355.88,1641.05,357.7Z"/><path class="cls-3" d="M918.54,642.22l-37.8,19.31-7.57-26.22s4.81-9.07,7-23.94a99.28,99.28,0,0,0,.78-21.58l30.8,15.77a59.42,59.42,0,0,0-1.23,7.05,51.36,51.36,0,0,0,.54,16.47C912.16,634.08,914.39,638.84,918.54,642.22Z"/><path class="cls-3" d="M921.23,651.52s50.33-44.89,53.4-51.06S992,539.15,992,539.15l12,1.47s-2.29,66.12-7.34,79-64.33,67.65-64.33,67.65Z"/><path class="cls-3" d="M851.07,647.55s-34.88-45.17-51.86-59.18c0,0-23.22-57.26-25.11-61s-13.94,3.14-13.94,3.14,8.53,55.66,17.53,72.16,36.88,71.87,56.57,73.92S851.07,647.55,851.07,647.55Z"/><path class="cls-11" d="M956.41,1072.5s3.94,7.69,12.67,9.59a21.87,21.87,0,0,1,13.14,8.07,5.13,5.13,0,0,1-4.12,8.17H933.78a6.38,6.38,0,0,1-6.34-7c.33-3.29.68-7.11.83-10,.33-6.4,6.74-11.55,6.74-11.55Z"/><path class="cls-12" d="M957.48,1074.43s-10.64,6.28-28.62,2.49c0,0-30.59-78.2-32.4-115-.08-1.48-.11-2.89-.08-4.23C897,923.08,865,833,873.66,814.48s78.27,8.3,78.27,8.3l1.38,62.81Z"/><path class="cls-11" d="M953.31,885.59l-56.85,76.33c-.08-1.48-.11-2.89-.08-4.23C897,923.08,865,833,873.66,814.48s78.27,8.3,78.27,8.3Z"/><path class="cls-11" d="M842,1072.5s3.94,7.69,12.67,9.59a21.87,21.87,0,0,1,13.14,8.07,5.13,5.13,0,0,1-4.12,8.17H819.37a6.37,6.37,0,0,1-6.34-7c.33-3.29.67-7.11.82-10,.33-6.4,6.74-11.55,6.74-11.55Z"/><path class="cls-12" d="M911.19,824.27s-61.56,229.72-63.44,252.2c0,0-12,6.16-31.5-4.72,0,0-11.32-103,0-131.1S814,827.47,842.79,808.28,911.19,824.27,911.19,824.27Z"/><path class="cls-4" d="M950,675.52c.21-3.15,19.13-15.93,19.13-15.93,4-23.9-11.22-41.11-11.22-41.11L935.07,634.7c-4.4.26-6.29,1.86-6.29,1.86-3.77-1-15.12-.3-15.12-.3.16,5.43-1.18,10.69-10.72,11.94-12.68,1.66-24-7-29.77-12.88a48.2,48.2,0,0,0-17.33,2.47,25.82,25.82,0,0,0-9.64-2.54l-18.65-16.77s-21.86,6.31-25.31,39.25c0,0,24.54,18.68,26.31,33.43h0l.67,5.59,2.38,19.81,4.19,34.74-12.46,69.2A10.14,10.14,0,0,0,831,832.22s1.07.17,3,.45c13.21,1.85,66.83,8.25,108.87-3.17a20.39,20.39,0,0,0,14.9-21.36L948.9,696.51h0S949.74,678.66,950,675.52Z"/><path class="cls-5" d="M851,780.42c-.83,24.14-3.2,44.6-17,52.25-2-.28-3-.45-3-.45a10.14,10.14,0,0,1-7.64-11.72l12.46-69.2-4.19-34.74.31-.93S852.09,749.51,851,780.42Z"/><path class="cls-14" d="M911.05,629.08c-17.51-.46-30.89-17.71-30.89-17.71l30.35,1.24A51.36,51.36,0,0,0,911.05,629.08Z"/><path class="cls-3" d="M919.54,619.33s-34.93,9.22-47-18.55c-13-30,1.26-51.82,13.13-53.29,23.65-2.94,37.39,6.08,41.54,15.61S938.81,614.41,919.54,619.33Z"/><path class="cls-9" d="M905.69,603.69s1.46,3.6,10.68,1.58c0,0,7.74-1.69,6.86-5.77C923.23,599.5,915.2,597.76,905.69,603.69Z"/><path class="cls-11" d="M878.8,610.49s-4.1-12-3.61-18.44c0,0-9.12-11.62-3.8-14.5s8.17,4,9.39,2.65,3.12-24.18,9.57-23.46,30.31,8.11,40.77-.91-14.92-44.27-57.93-30.65S839,586.61,878.8,610.49Z"/><path class="cls-11" d="M852,543.93s-2-5.81.14-10c0,0,.1,5.72,2.35,8.26S852,543.93,852,543.93Z"/><path class="cls-11" d="M852.87,539.87s-5.32-.6-7.83,3.49a6.84,6.84,0,0,1,7.54.15Z"/><path class="cls-3" d="M992,539.15a27.38,27.38,0,0,0-1.45-9.57c-1.68-4.37-.69-15.73,1.46-15.09s1.18,4.72,3.58,4.24,6.24-13.68,9.36-12.48,5.39,5.64,4.43,15.24-5.39,19.13-5.39,19.13Z"/><path class="cls-3" d="M773.84,527.24a30.71,30.71,0,0,1-.24-10.88c1-5.17-2.27-17.56-4.52-16.44s-.41,5.45-3.16,5.38-9.55-13.95-12.77-12-4.89,7.28-2,17.74,9.66,20.16,9.66,20.16Z"/><rect class="cls-15" y="1098.05" width="2907.77" height="6.49" rx="3.02"/><path class="cls-2" d="M573.35,739.54s-29.5-11.8-53,.59S475.68,862.4,547.8,876.37h0S615.48,950.19,573.35,739.54Z"/><path class="cls-3" d="M654,912.69l-1.81-6.51s-8.64-.87-8.75-.7l.77,19.67s4.46-1,6.09-2.87l3.17-5.28C654.29,915.77,654,912.69,654,912.69Z"/><path class="cls-9" d="M631.6,744.31s10.57-.55,16.48,13.38c12.27,28.88,6.94,91.2,6.2,100.13,0,0,4.21,17.71-2,48.36l-7.81-.44S631.51,789.93,633,778,631.6,744.31,631.6,744.31Z"/><path class="cls-2" d="M543.44,1085.13l4,14.43h33.78S591.28,1081.11,543.44,1085.13Z"/><path class="cls-2" d="M615.89,1085.13l4,14.43h33.79S663.73,1081.11,615.89,1085.13Z"/><path class="cls-3" d="M617.36,743.33l-31.7,16.18-4.17-21a91,91,0,0,0,4.13-20.71,110.53,110.53,0,0,0,.21-18.46l25.83,13.21a48.37,48.37,0,0,0-1,5.7,47.3,47.3,0,0,0-.2,10C611,733.84,612.78,739.61,617.36,743.33Z"/><path class="cls-2" d="M643.41,872.62l-64.09,5.06S571.4,990,613.52,1089.42l37.81-2.53Z"/><path class="cls-8" d="M544,878.79s-12.6,64.42-3.77,208.88H579.8l24.79-175.56c.8-5.13,10.91-12.27,10.91-12.27l.39-19.8Z"/><path class="cls-4" d="M544.27,794.19,548,820.34,537.8,872.6a7.85,7.85,0,0,0,7.18,9.33c19.29,1.32,65.93,3.25,97.59-5.71a9.19,9.19,0,0,0,6.68-9.55l-5.57-69.91-2-24.59-2-25.27s-9.65-6-26.42-8.34c.25,3.88-1,7.45-9.06,8.31-9.4,1.08-16.47-3.17-21.68-7.17a7.39,7.39,0,0,0-1.06-1.14c-5.71.54-12.3,1.53-18,2.66-.89.18-21,40.22-21,40.22Z"/><path class="cls-8" d="M537.8,872.6s89.69-45.91,45.64-120.87c-2.11-3.59-5.64-10.16-10.09-12.19a43.54,43.54,0,0,0-8.3,1.39c4.58,1.27,11.18,12,14.67,21.74,6.54,18.21,22.72,52.67-40.75,98.08Z"/><path class="cls-3" d="M566.91,818.05c1-.07,9.33.24,9.33.24s4.15-15.6,15.64-15.6c0,0,5.38-.53,3.73,3.82-.7,1.85-1.84,1.19-3.58,7.52s-3.65,8-9.54,11.32l-5,1.34S564.3,818.24,566.91,818.05Z"/><path class="cls-16" d="M610.66,730.68c-9.7,1.23-24.67-12.56-25-12.84,0,0,17.94.14,25,.45A73,73,0,0,0,610.66,730.68Z"/><path class="cls-3" d="M620.79,724.67s-44.12,5.38-45.06-25.7,17.45-51.21,29.72-51c24.47.46,28.51,10.35,31.35,20.65S641.1,722.48,620.79,724.67Z"/><path class="cls-9" d="M612,707.63s.81,3.24,8.91,2.65c0,0,6.8-.51,6.55-4.08C627.49,706.2,620.86,703.73,612,707.63Z"/><path class="cls-11" d="M585.32,717.84s-3.76-11.07-3.28-17.28c0,0-8.82-11.25-3.68-14s7.91,3.87,9.09,2.56,3-23.4,9.25-22.7,34.5,8.74,44.62,0-19.6-43.73-61.21-30.55S546.78,694.73,585.32,717.84Z"/><path class="cls-11" d="M559.57,654s-1.88-5.63.14-9.64c0,0,.1,5.53,2.27,8S559.57,654,559.57,654Z"/><path class="cls-11" d="M560.44,650.06s-5.15-.58-7.58,3.38a6.62,6.62,0,0,1,7.29.15Z"/><path class="cls-9" d="M563.54,741.22s-7.55-.42-21,22.1c-7.22,12-38,69.18-22.14,75.39s47.72,0,55.88-8.69l-4.62-13.29s-22.09,1-22-.19,5-12.48,11.26-21.38C582.49,764.75,563.54,741.22,563.54,741.22Z"/><path class="cls-9" d="M604.23,746.87s-15.52-7-21-14.54c0,0-5.63,3.26-6.15,7.27S596.1,750.59,604.23,746.87Z"/><path class="cls-9" d="M611.5,734s-1.08,10.9-7.27,12.91c0,0,11.31.81,15.1-7.32C619.33,739.55,615.42,733.85,611.5,734Z"/><path class="cls-5" d="M612.58,789.36a2,2,0,1,1-1.92-2.33A2.15,2.15,0,0,1,612.58,789.36Z"/><path class="cls-5" d="M612.58,820.62a2,2,0,1,1-1.92-2.33A2.16,2.16,0,0,1,612.58,820.62Z"/><path class="cls-5" d="M612.58,854.36a2,2,0,1,1-1.92-2.34A2.15,2.15,0,0,1,612.58,854.36Z"/><polygon class="cls-9" points="652.23 906.18 654.3 900.27 644.24 899.67 644.42 905.74 652.23 906.18"/><path class="cls-3" d="M575.94,815.34s1.61-7.51,1.26-9.27,3.08-.43,3.07,3.21a4,4,0,0,1-1,2.25l-1.79,7.2Z"/><path class="cls-17" d="M575.94,815.34l-9,2,1.64,10.93h6.69l-3.83,5.44,1.72.72,9.34-9S577.5,820.13,575.94,815.34Z"/><path class="cls-4" d="M181.28,1098.33s-9.3-7.92-6.56-20.39,26.09-11.36,60.68-7.82,123.1,4.65,154.49-1.91,42.31,3.82,45.59,12.57-4.37,17.55-4.37,17.55Z"/><path class="cls-3" d="M231.7,962.12s1.4-7.08-.79-7.62-2.59,4.51-2.59,4.51-7.11-10.2-11.76-4.56,9.08,13.3,9.08,13.3Z"/><path class="cls-3" d="M302,986.91c-12.11-.18-34.4-13.42-34.4-29.82v-25.6c0-16.31,17.41-27.83,35.84-27.84,27.08,0,33,21.85,33,27.84v24.15C336.43,972.84,315.92,987.11,302,986.91Z"/><rect class="cls-3" x="265.49" y="980.28" width="72.89" height="89.84" rx="31.56"/><path class="cls-3" d="M286.52,982.1s-7.61,3.31-13.79,1.1c-8.9-3.2-19.1-4.15-21.14-5.94-3.46-3-19.89-15.14-19.89-15.14l-6.06,5.63s10.81,25.51,16.87,29.4,18.24,19.22,34.6,19C285.6,1016.09,286.52,982.1,286.52,982.1Z"/><path class="cls-9" d="M289.54,965.2s4.74,6.74,11.48,6.56,11.3-6.56,11.3-6.56S302.66,958.28,289.54,965.2Z"/><path class="cls-11" d="M292.28,907.76s-4.38,8.47,0,13.94,16.12,2.18,16.12,2.18-4.64-1.91-4.64-3.82c0,0,7.1,3.55,10.93-.28S316,904.2,312.32,902,294.19,900.77,292.28,907.76Z"/><path class="cls-3" d="M317.84,982.1s7.61,3.31,13.79,1.1c8.9-3.2,19.1-4.15,21.14-5.94,3.46-3,19.89-15.14,19.89-15.14l6.06,5.63s-10.82,25.51-16.87,29.4-18.24,19.22-34.6,19C318.76,1016.09,317.84,982.1,317.84,982.1Z"/><path class="cls-3" d="M372.66,962.12s-1.4-7.08.79-7.62S376,959,376,959s7.11-10.2,11.76-4.56-9.08,13.3-9.08,13.3Z"/><path class="cls-3" d="M263,1034s-16.75,12.38-25.92,17.49c-8.54,4.77-18.4,13.76-18.4,14.85s1.94,10.21,7,10.94,57-3.5,63.84-8.13C289.48,1069.19,275.92,1034.31,263,1034Z"/><path class="cls-9" d="M215.06,1047.32s9-1.39,15.72,3.94a5.49,5.49,0,0,0,6.28.27s16,5.75,10.91,24.61c0,0-19.08,3.09-22.33,1.18S215.06,1047.32,215.06,1047.32Z"/><path class="cls-18" d="M225.64,1077.32s-9.9-.09-13.72-9.11-4.1-18.32,1.91-20.5,10.68.27,13.39,4.37S239.37,1074.68,225.64,1077.32Z"/><path class="cls-3" d="M338.82,1034s16.76,12.38,25.92,17.49c8.54,4.77,18.4,13.76,18.4,14.85s-1.94,10.21-7,10.94-57-3.5-63.84-8.13C312.32,1069.19,325.88,1034.31,338.82,1034Z"/><path class="cls-9" d="M386.74,1047.32s-9-1.39-15.72,3.94a5.49,5.49,0,0,1-6.28.27s-16,5.75-10.91,24.61c0,0,19.08,3.09,22.33,1.18S386.74,1047.32,386.74,1047.32Z"/><path class="cls-18" d="M376.16,1077.32s9.9-.09,13.73-9.11,4.1-18.32-1.92-20.5-10.68.27-13.39,4.37S362.43,1074.68,376.16,1077.32Z"/><path class="cls-9" d="M265.49,1022.47s29.16,16.31,72.89,2.73a42.42,42.42,0,0,1,5,5.7c3,5,2.26,8.06,2.26,8.06s-25.88,12.8-27.79,32.2c0,0-21.73,7.94-31.32-.7,0,0-14-31.7-27.77-33.34A32.19,32.19,0,0,1,265.49,1022.47Z"/><polygon class="cls-3" points="1212.95 1009.01 1207.09 1033.67 1199.31 1066.39 1175 1066.39 1173.55 1035.05 1172.43 1010.88 1212.95 1009.01"/><path class="cls-19" d="M1290,472.12s19.24-20.58,31.75-4.44,26.37,27,45.56,39.45-17,109.73-41,107.72S1204.16,536.14,1290,472.12Z"/><path class="cls-5" d="M1194.21,462.34c4.8-3.59,49-18.77,92.12-3.84S1252.94,515,1252.94,515l-24.79,1.07Z"/><path class="cls-2" d="M1165.38,1102.32s0-11.9,1.7-15.86,7.91-20.07,7.91-20.07h24.32s4.52,14.7,4.81,19.5,0,16.43,0,16.43Z"/><path class="cls-2" d="M1319.76,1102.32s0-11.9-1.7-15.86-7.91-20.07-7.91-20.07h-24.32s-4.52,14.7-4.8,19.5,0,16.43,0,16.43Z"/><path class="cls-3" d="M1222.35,434.22s-.86,26.51-4.25,38.38l-26.85,57.88,101.07-24-24.1-33.31s-7.28-35.54-3.46-48.68S1222.35,434.22,1222.35,434.22Z"/><path class="cls-10" d="M1222.2,437.88s8,19.24,23,18.82,18.48-17.45,18.48-17.45Z"/><path class="cls-11" d="M1213.22,422.3s-4.86-24.27-8.26-31.62-6.22-40.14,31.39-41.84c0,0,14.41,1.7,22.33-3.11,0,0,0,4.81-2,6.5a25,25,0,0,1,23.18,8.2c10.18,11.31-6.78,50.89-5.93,60.22Z"/><path class="cls-3" d="M1243.53,449.26c-10.91-.19-31-14.71-31-32.7V388.49c0-6.57,4.58-11.94,10.18-11.94h41.62c5.59,0,10.17,5.37,10.17,11.94V415C1274.51,433.83,1256,449.48,1243.53,449.26Z"/><path class="cls-11" d="M1212.54,403.47s.06-16.86,13.42-19.45,43.25,8.22,47.49-4.08-57.79-12.09-60.91-4.24S1212.54,403.47,1212.54,403.47Z"/><path class="cls-8" d="M1259.12,695.76c6.69-20.83,6.55,86.21-20.31,206.62-4.1,18.37-13.28,62.68-19.87,105.57h-55c-.76-34.63-4.47-83-6.81-119.18-7.33-113.5,11.33-198.67,11.33-198.67Z"/><path class="cls-8" d="M1329.74,888.76c-.61,34.71-7.66,80.81-8.3,114.6h-55.83c-3.75-24.53-9.71-49.79-14-70.17-3-14.47-5.24-26.47-5.21-34,.06-14.74-9.26-57.24-14.81-94.72l0-.15c-.21-1.44-.42-2.88-.62-4.31-7.44-52.68-4.82-104.24-4.82-104.24l94.21-5.89S1331.35,796.21,1329.74,888.76Z"/><path class="cls-2" d="M1161,733.75s21.19,25.68,78.78,22,85-13.73,85-13.73Z"/><path class="cls-4" d="M1324.8,742C1306,744.55,1178,751.2,1161,733.75s27.85-255.57,27.85-255.57,5.08-1.47,13.66-3.09c4.38-.82,9.66-1.68,15.63-2.4.07,1.86,1.55,29.93,24.86,41.53,0,0,28-11.22,25.25-41.07,0-.35-.07-.69-.12-1,3.73.4,7.52.92,11.32,1.58a160.4,160.4,0,0,1,23.16,5.73S1343.61,739.44,1324.8,742Z"/><path class="cls-4" d="M1162.05,619.06c-.76,1,4.34,8.32,11.54,17.74,14.8,19.35,38.49,47.52,38.49,47.52a97.56,97.56,0,0,1-1.65,15.71c-32.54-15.38-54.53-29.75-69.12-41.3-20.49-16.25-26.37-26.9-26.37-26.9,32.87-139.05,75-153.53,75-153.53l13.76,83.79S1164.35,616.05,1162.05,619.06Z"/><path class="cls-9" d="M1279.42,473.7l-8.48,25.78-11.3,16.6-16.22,8.8-15.27-8.8-25.67-41c4.38-.82,9.66-1.68,15.63-2.4a26.74,26.74,0,0,0,3.18,10.48c9.27,17.89,35.42,18.05,44.58.1a20.36,20.36,0,0,0,2.35-10.12,8.77,8.77,0,0,0-.12-1C1271.83,472.52,1275.62,473,1279.42,473.7Z"/><path class="cls-3" d="M1212.08,684.32c0,.27,0,.54,0,.8-.07,1.76-.18,3.41-.3,4.91a27.27,27.27,0,0,1-2.71,3.18,28.29,28.29,0,0,1-4.76,3.85c-.82-.39-1.64-.8-2.45-1.2-27.87-13.79-47.25-26.63-60.51-37.13,8.41-2.59,20.2-8.51,32.27-21.93C1188.39,656.15,1212.08,684.32,1212.08,684.32Z"/><path class="cls-4" d="M1373.65,626.72s-5.67,10.76-25.86,27.39c-14.36,11.83-36.07,26.63-68.31,42.62a97.12,97.12,0,0,1-2-15.67s23.14-28.62,37.58-48.25c7-9.56,12-17,11.2-18-1.84-2.3-26.53-34.78-37.55-49.26l-5.23-6.9,13.94-82.38S1338.13,488.32,1373.65,626.72Z"/><path class="cls-3" d="M1347.79,654.11c-13.1,10.79-32.33,24-60.07,38.44l-2.09,1.07a38.78,38.78,0,0,1-7-13.91l1.8-2.24c6.65-8.3,23.35-29.25,34.68-44.66C1327.42,646,1339.33,651.68,1347.79,654.11Z"/><path class="cls-3" d="M1268.1,472.12a225,225,0,0,0-50,.57.62.62,0,0,1,0-.09S1264.37,444,1268.1,472.12Z"/><polygon class="cls-5" points="1221.7 553.05 1220.75 553.05 1220.05 508.46 1222.45 508.46 1221.7 553.05"/><path class="cls-5" d="M1220.65,551.9c-.86,1.3-2.81,5.61-1.52,6.07s3.56.48,4.16-.13S1222.28,549.43,1220.65,551.9Z"/><polygon class="cls-5" points="1265.49 553.05 1264.54 553.05 1263.85 508.46 1266.24 508.46 1265.49 553.05"/><path class="cls-5" d="M1264.45,551.9c-.87,1.3-2.81,5.61-1.52,6.07s3.56.48,4.16-.13S1266.08,549.43,1264.45,551.9Z"/><path class="cls-5" d="M1228.15,516.08l-39.33-37.9s-8.86-6.29,5.14-15.68S1228.15,516.08,1228.15,516.08Z"/><path class="cls-5" d="M1259.64,516.08l39.33-37.9s8.85-6.29-5.14-15.68S1259.64,516.08,1259.64,516.08Z"/><path class="cls-5" d="M1309,700.6c-7.66.65-14-1.27-19-5.68a23.23,23.23,0,0,1-2.29-2.37c-3.89-4.54-6.07-10.26-7.3-15.08a51.6,51.6,0,0,1-1.56-9.94l0-1.11h-63.52l0,1.19c.24,6.83-.86,12.69-3.3,17.51a25,25,0,0,1-4.62,6.46,26.63,26.63,0,0,1-5.6,4.28,38.5,38.5,0,0,1-18.08,4.74l-1.18,0V727.4h127.67V700.49Z"/><path class="cls-5" d="M1326.31,614.85s-35.42-46.46-7.39-60c11.13-5.37,26.8,58.39,18.4,64.39s-22.22,13.56-22.22,13.56Z"/><path class="cls-5" d="M1166.12,607.19s12.31-58.34,1.51-52.33-26.79,58.39-18.39,64.39,22.21,13.56,22.21,13.56Z"/><path class="cls-19" d="M1321.34,614.72c-16.17-20.07-22.21-52.67-21.39-86.31a394.43,394.43,0,0,1,4.31-48.85l13.27,10.33c-.06.19-7.62,14-8.2,38.59-.54,22.47-1.6,39.59,11.1,78.71Z"/><path class="cls-2" d="M1198.56,1020.36l-28.49,0c-2.53.29-6.47-3.41-6.47-8.68,0,0-.06-12.66-.9-14.91-3.66-9.86,1.79-10.4,7.07-10.4h52c5.28,0-2.81,16.32-2.81,21.6l1.88,6.92C1220.82,1020.14,1203.84,1020.36,1198.56,1020.36Z"/><path class="cls-9" d="M1207.09,1033.68l-7.78,32.71H1175l-1.45-31.34C1177.17,1036.38,1189.37,1039.78,1207.09,1033.68Z"/><polygon class="cls-3" points="1272.23 1009.01 1278.1 1033.67 1285.88 1066.39 1310.19 1066.39 1311.64 1035.05 1312.76 1010.88 1272.23 1009.01"/><path class="cls-2" d="M1286.63,1020.36l28.49,0c2.52.29,6.47-3.41,6.47-8.68,0,0,.06-12.66.9-14.91,3.66-9.86-1.79-10.4-7.07-10.4h-52c-5.28,0,2.8,16.32,2.8,21.6l-1.87,6.92C1264.37,1020.14,1281.35,1020.36,1286.63,1020.36Z"/><path class="cls-9" d="M1278.1,1033.68l7.78,32.71h24.31l1.45-31.34C1308,1036.38,1295.82,1039.78,1278.1,1033.68Z"/><path class="cls-9" d="M1233.17,429.68a13.21,13.21,0,0,0,10.36,4.92,12.31,12.31,0,0,0,9.68-4.92S1242.1,427.86,1233.17,429.68Z"/></g></g></svg>