<svg xmlns="http://www.w3.org/2000/svg" viewBox="0 0 2572.65 1600.5"><defs><style>.cls-1{fill:#ebf3fa;}.cls-2{fill:#dfebfd;}.cls-3{fill:#cde0fb;}.cls-4{fill:#f99746;}.cls-5{fill:#2c3a64;}.cls-6{fill:#ffb27d;}.cls-7{fill:#ed985f;}.cls-8{fill:#fff;}.cls-13,.cls-9{fill:#afcdfb;}.cls-10{fill:#ef7e29;}.cls-11{fill:#ea6c2d;}.cls-12{fill:#78acea;}.cls-13{opacity:0.5;}.cls-14{fill:#95c38b;}.cls-15{fill:#a8d29f;}.cls-16{fill:#82b378;}.cls-17{fill:#558949;}.cls-18{fill:#d1f2c9;}.cls-19{fill:#2e3552;}</style></defs><title>healthAsset 1</title><g id="Layer_2" data-name="Layer 2"><g id="Слой_1" data-name="Слой 1"><path class="cls-1" d="M175.65,1600.5l798.83-4.14,212.93-.06,70.54,0,213.34-.06,974.65-.27s222.94-285.63-15.19-556.93c-246.9-281.27-372.25-41.14-554.58-515.09C1476-516.34-91.85,174.31,403.55,1022.4,581.92,1327.77,52.43,1165.46,175.65,1600.5Z"/><path class="cls-2" d="M1168.86,636.89s-27.43,87.86-43.46,81.75,37.62-95.7,37.62-95.7-55.25-75.16-85.87-87.83c0,0,4.58,102.46-9.46,92.59s-23.75-116.27-23.75-116.27-68.61-54.55-104.8-15.95-28.45,71.65-18.67,80.46,82.62,46.34,75.75,54.73-63.73-2.54-86.48-25.48c0,0-9.39,90.2,32.07,107.43s66.66-.72,92.08,10.39,39.79,27.18,24.07,27.26-54.7-26.32-83.34-20-50.12,8.12-17.47,35.12,100.91,57.27,129.05,36.07l3.52-2.65a16.59,16.59,0,0,1-3.52,2.65c4.66,7.54,4.8,31.74,4.17,49.9-.31,3-.53,7.23-.62,13.1h0c-.16,2.59-.3,4.7-.4,6.18-4.27,39.18-40.78,91.35-40.78,91.35l6.71,6.27c47.25-47,41.38-109.41,41.38-109.41-.24-47.13,17.68-78.58,17.68-78.58s91.44-2,87-73C1201.37,707.21,1192.55,660.34,1168.86,636.89Z"/><path class="cls-3" d="M899.44,964.5s134.53,63.76,121.12,88.06S875.78,970.7,875.78,970.7s-132.87,71.53-160.07,117.72c0,0,165.15,15.8,146.17,36s-191.6,11.79-191.6,11.79-102.87,97.59-49.2,164.28,108.33,61.74,124.66,48.07,92.87-121.89,104.77-109-18.47,101.5-60.35,132.76c0,0,142.38,35.41,179.32-27.11s13.9-106.93,37.44-145.16,52.51-57.58,49.09-32.4-54.5,81.68-50.9,129,1.71,82.11,52.32,35.92,114.51-148.72,86.91-198.58l-3.45-6.23a26.87,26.87,0,0,1,3.45,6.23c13.13-5.77,51.91-.53,80.87,4.59,4.72,1.16,11.46,2.47,20.84,3.95h0c4.11.83,7.47,1.54,9.8,2,61.8,15.67,137.13,85.94,137.13,85.94l11.55-9.34c-64.66-86.3-165.91-91-165.91-91-75.55-10.24-121.87-46-121.87-46s17.44-146.93-97.34-155.9C1019.41,928.29,942.34,931.84,899.44,964.5Z"/><path class="cls-3" d="M1926.19,785.7c2.5-78.25-126.36-92.92-126.36-92.92S1678.38,794,1653.37,789.62s87-106.79,87-106.79c-45.3-18.77-181.73,2.11-181.73,2.11S1521,834.8,1497.87,824.43s40-131,40-131c-49.31-.25-107.57,39.58-107.57,39.58C1351.4,802.73,1445,900.47,1445,900.47s-14.13,51.65-63.69,100.72h0s-10.45,8.66-23.33,24.87l12.32,3.77q3-4.5,6.26-8.54s0,0,0,0l.09-.12c1.43-1.64,3.47-4,6-6.82h0c6-6.22,10.21-10.88,13-14.32l0,0c18.33-19.68,43.77-44.84,56.54-47.85a25,25,0,0,1-.92-6.46c.3,2.06.6,4.21.92,6.46,7.28,51.61,110.38,91.33,172.78,97.23s41.86-18.49,18.46-55-91.83-49.7-108.18-66.22,15.47-18.32,53.7-3.35,45.84,60.1,107.24,85.44,145.92-78.89,145.92-78.89c-47.8.21-118.74-47.8-117.15-63.77s117.06,20.94,136.51,21.94S1923.69,864,1926.19,785.7Z"/><path class="cls-4" d="M1507.47,469.71c10.44,27.51,99.93,99.76,99.93,99.76s29.17-23.7,56.18-49.22c20.22-18.89,39.11-38.78,43.59-50.54,10.6-27.35-.67-66.46-39.77-73.09s-60,34.14-60,34.14-21-40.77-60.15-34.14a53.5,53.5,0,0,0-17.9,6.3C1505,416.51,1498.86,447.17,1507.47,469.71Z"/><path class="cls-5" d="M1196.56,221.72c-1.85-5.63-24-65.64-118.25-41.86,0,0,47.49-7.8,61.26,10.09,0,0-38.47-15.9-61.61-.52s-25.19,64.3-21.1,79,31.91,57.91,49.22,57.25c6.56-.24,13.49-2.69,19.58-5.63a229.6,229.6,0,0,0-6.07,26c-15.14,87.24,44.88,150.86,74,133.49,18.69-11.15,34.4,21.71,34.4,21.71l150.5-215.89S1263.17,156.92,1196.56,221.72Z"/><path class="cls-6" d="M1407.48,1060.13c-.76,23.22,40.43,99,64.07,164.48h0c15.25,42.26,30.31,81.44,38.42,102.23a244,244,0,0,1,11.79,39.94c7,34.59,18.51,107.06,22.3,224.84,0,1.57.09,3.15.14,4.73l-212.93-.06-.85-4.67-4.67-25.58,0-.14,4.52-111.21L1316.82,1434l-38.5,14.52-17,143.08-.55,4.64-213.33-.06c0-1.53,0-3.07,0-4.58-.06-37.29-.1-69.09-.11-96.2a768.15,768.15,0,0,1,49.1-270.82c24.75-65.81,61.38-134.66,53.68-167-1.78-7.48-27.62-73.06-39.83-135.33-1.28-6.5-2.55-13-3.8-19.54-.32,1.27-.62,2.55-.93,3.83-19.73,82.41-45.46,189.34-50.31,207-8.07,29.41-82.47,255.74-82.47,255.74h-36.2s22.63-221.8,43-278.37,30.39-268,49.78-359.86c10.09-47.73,26-68.57,52.1-82.26v0h0c13.38-7,29.45-12.15,48.79-18.08,12.22-3.75,25.74-7.8,40.73-12.82,21.63-7.26,41.73-18.36,47.76-40.38,5.36-19.61,9.24-45.43,9.44-76.4h0q.08-9.4-.34-19.42v0l6.41,1,6.13,1,101.4,16.17h0s0,1.24-.1,3.48c0,.34,0,.72,0,1.13v.18c0,.35,0,.73,0,1.14,0,.7,0,1.49-.07,2.32,0,.57,0,1.17,0,1.79,0,2-.09,4.28-.13,6.77,0,.65,0,1.31,0,2,0,.33,0,.66,0,1,0,1,0,2,0,3.1v.15q0,2.91,0,6c0,4.37,0,9,0,13.87q0,3.13.07,6.35c0,.48,0,1,0,1.45q.06,3.11.13,6.24c.06,2.79.14,5.59.24,8.36.63,18.13-2,31.54,2.93,40.78,5.39,10.14,33.87,17.34,65.13,30.48,16,6.73,32.67,15,47.38,26,18.49,13.81,33.85,32,40.67,56.76,24.91,90.53,41.31,315.24,61.67,371.82s43,278.37,43,278.37h-36.21s-74.39-226.33-82.47-255.74c-2.49-9.09-10.49-41.76-20.37-82.57-9-37.26-19.6-81.29-29-120.33-.89-3.71-1.76-7.38-2.64-11-.48,10.24-1,20.47-1.4,30.52C1427.61,991.51,1408,1043.78,1407.48,1060.13Z"/><path class="cls-7" d="M1341.73,499.81s-1.17,33.69-.06,65.33c-59.79.56-93.41-52.74-107.48-82.46Z"/><path class="cls-6" d="M1362.8,529s-141.24,7.64-144.64-80.39-23.92-146.33,66.11-154.93,108.86,24.32,117.14,53.42S1399.45,524.77,1362.8,529Z"/><path class="cls-5" d="M1395.37,298.34c-22.84-25.66-39.13-19.22-48.08-10.92C1268.45,247.86,1221,312.51,1221,312.51c-7.08,63.52-51.27,101.42-51.27,101.42s26.36,14.94,85.17-2.56c18-5.35,33.67-18.85,46.85-35-22.52,41.19-54.14,71.44-54.14,71.44,69.7-35.46,94.48-135.18,96.93-145.72,8.92,7.43,26.55,23.62,32.36,39.92,7.89,22.15,12.79,68.18,26.18,66.11C1403.11,408.12,1429.63,336.82,1395.37,298.34Z"/><path class="cls-6" d="M937.27,1362s-31,50.31-32.18,65.09,3.15,65.32,3.15,65.32,11.53-3.19,13.93-26.92,38.81-38,46.14-53.56,4.46-47.89,4.46-47.89Z"/><path class="cls-6" d="M973.32,1367.49s10,40.39,5.69,54-9,35.1-15.8,32.94-12.63-43-12.63-43Z"/><path class="cls-6" d="M912.73,1428.27c-.36,2.11-20,58.35-20,58.35s16.25.12,17.31-7.69S912.73,1428.27,912.73,1428.27Z"/><path class="cls-6" d="M1601.58,1367.49s31,50.32,32.17,65.1-3.14,65.32-3.14,65.32-11.54-3.19-13.93-26.93-38.81-38-46.14-53.55-4.9-49.94-4.9-49.94Z"/><path class="cls-6" d="M1565.53,1373s-10,40.39-5.69,54,9,35.1,15.8,32.93,12.63-43,12.63-43Z"/><path class="cls-6" d="M1626.12,1433.73c.36,2.1,20,58.35,20,58.35s-16.25.11-17.31-7.7S1626.12,1433.73,1626.12,1433.73Z"/><path class="cls-4" d="M1096.37,1224.61s146.08,44.94,375.18,0c0,0,65.11,95.36,92,367H1330l-21.67-131-26.59.42-15.61,130.58H1026.53S1033.28,1347.41,1096.37,1224.61Z"/><path class="cls-8" d="M1436.9,782.06c2.65,28.23,11.65,55-2.44,128.64q-1.77,9.24-4,19.52s-140.06,45.64-317.61,0c0,0-1-2.94-2.59-8-1.28-4-2.93-9.42-4.73-15.71-7.25-25.29-17-65.14-14.52-90.35,3.8-39.24,30.2-117-9.58-167.36v0h0c13.38-7,29.45-12.15,48.79-18.08,0,0,35.35,108.37,83.57,114.07a521.22,521.22,0,0,0,90.7,2.38s57,1.92,78.55-37.32c16-29.1,25.85-69.81,26.72-73.46,16,6.73,32.67,15,47.38,26C1451,677.09,1432.44,734.71,1436.9,782.06Z"/><path class="cls-8" d="M1557.45,659.23l-.12-.36C1557.43,658.8,1557.48,658.91,1557.45,659.23Z"/><path class="cls-8" d="M981.41,334.71c-1.88.37-21-42.89-68.6-25.08,0,0-7.52-47.65-63-44.88-45.08,2.25-49.64,51.61-49.64,51.61s-39.69-8.36-55.68,18.35Z"/><path class="cls-9" d="M818.74,370.49a105.56,105.56,0,0,0-96.65-105.18,111.18,111.18,0,1,1,0,210.36A105.56,105.56,0,0,0,818.74,370.49Z"/><path class="cls-8" d="M874.71,447.8c-3.44.69-38.31-78.38-125.39-45.84,0,0-13.75-87.09-115.24-82-82.4,4.11-90.74,94.33-90.74,94.33S470.79,399,441.57,447.81Z"/><path class="cls-8" d="M1188.94,1019.74c-36.13,40.44-37.44,98.93-4,133.19,2.13,2.17,5.81,1.92,8.07-.62h0c2.24-2.5,2.38-6.14.29-8.3-29.2-30.21-27.95-81.5,3.75-117,33-37,86.83-43,119.92-13.46l8.14-9.11C1287.56,970.88,1226.45,977.74,1188.94,1019.74Z"/><path class="cls-8" d="M1306.59,1020.7l25.91,1.69a3.33,3.33,0,0,0,3.38-4l-5.75-24.25c-.46-1.94-2.93-2.38-4.36-.76l-20.57,23C1303.72,1018.1,1304.52,1020.56,1306.59,1020.7Z"/><path class="cls-8" d="M1363.89,1168.12c36.12-40.44,37.43-98.93,4-133.19-2.12-2.17-5.81-1.92-8.07.61h0c-2.23,2.51-2.37,6.15-.28,8.31,29.19,30.2,27.94,81.5-3.76,117-33,37-86.83,43-119.91,13.46l-8.14,9.11C1265.27,1217,1326.37,1210.12,1363.89,1168.12Z"/><path class="cls-8" d="M1246.24,1167.16l-25.92-1.69a3.32,3.32,0,0,0-3.37,4l5.74,24.24c.46,1.95,2.93,2.38,4.37.77l20.56-23C1249.11,1169.76,1248.31,1167.29,1246.24,1167.16Z"/><path class="cls-4" d="M534.85,1498.86A90.71,90.71,0,0,0,488,1419.43v-11.32H444.11a90.75,90.75,0,1,0,0,181.49H488v-11.31A90.72,90.72,0,0,0,534.85,1498.86Z"/><circle class="cls-10" cx="488" cy="1498.86" r="90.75"/><path class="cls-11" d="M769.5,1535.83H487a37,37,0,0,1-37-37h0a37,37,0,0,1,37-37H769.5a37,37,0,0,1,37,37h0A37,37,0,0,1,769.5,1535.83Z"/><path class="cls-4" d="M770.78,1498.86a90.72,90.72,0,0,0-46.86-79.43v-11.32H680a90.75,90.75,0,0,0,0,181.49h43.89v-11.31A90.73,90.73,0,0,0,770.78,1498.86Z"/><circle class="cls-10" cx="723.92" cy="1498.86" r="90.75"/><circle class="cls-4" cx="728.14" cy="1498.86" r="39.16" transform="translate(-144.15 79.04) rotate(-5.65)"/><polygon class="cls-8" points="1543.42 503.27 1534.19 454.81 1530.16 475.51 1475.77 475.51 1475.77 472.23 1527.47 472.23 1534.23 437.49 1543.88 488.16 1548.22 471.06 1557.61 471.06 1564.02 441.22 1572.22 486.71 1576.53 469.29 1595.93 469.29 1603.07 445.89 1609.31 486.87 1614.33 469.29 1630.38 469.29 1635.1 443.59 1645.23 484.03 1648.9 469.29 1669.66 469.29 1670.74 481.57 1682.17 436.88 1689.69 469.41 1723.45 469.41 1723.45 472.69 1687.08 472.69 1682.01 450.72 1669.17 500.93 1666.66 472.57 1651.46 472.57 1645.24 497.54 1635.59 459.04 1633.11 472.57 1616.8 472.57 1608.34 502.21 1602 460.61 1598.35 472.57 1579.09 472.57 1571.71 502.37 1563.74 458.12 1560.25 474.33 1550.76 474.33 1543.42 503.27"/><path class="cls-12" d="M740.26,855.26h-77.4l-38.7-67,38.7-67h77.4l38.69,67Zm-74.48-5.06h71.55l35.78-62-35.78-62H665.78l-35.77,62Z"/><polygon class="cls-12" points="520.07 982.99 515.69 980.45 552.19 917.22 516.42 855.26 443.41 855.26 443.41 850.2 519.34 850.2 558.04 917.22 520.07 982.99"/><polygon class="cls-12" points="519.34 855.26 441.94 855.26 403.98 789.5 408.36 786.97 444.87 850.2 516.42 850.2 552.19 788.23 516.42 726.27 443.41 726.27 443.41 721.2 519.34 721.2 558.04 788.23 519.34 855.26"/><polygon class="cls-12" points="773.09 918.49 735.13 852.73 773.83 785.7 851.22 785.7 889.19 851.46 884.8 853.99 848.3 790.76 776.75 790.76 740.97 852.73 777.48 915.96 773.09 918.49"/><polygon class="cls-12" points="629.81 919.76 553.88 919.76 553.88 914.69 626.89 914.69 662.66 852.73 626.89 790.76 555.34 790.76 518.83 853.99 514.45 851.46 552.41 785.7 629.81 785.7 668.51 852.73 629.81 919.76"/><polygon class="cls-12" points="849.76 790.76 773.83 790.76 735.13 723.74 773.83 656.71 849.76 656.71 849.76 661.77 776.75 661.77 740.97 723.74 776.75 785.7 849.76 785.7 849.76 790.76"/><path class="cls-12" d="M621.42,786.78a6.55,6.55,0,1,1,6.55,6.55A6.54,6.54,0,0,1,621.42,786.78Z"/><path class="cls-12" d="M547.57,786.78a6.55,6.55,0,1,1,6.54,6.55A6.54,6.54,0,0,1,547.57,786.78Z"/><path class="cls-12" d="M547.57,916.59a6.55,6.55,0,1,1,6.54,6.54A6.54,6.54,0,0,1,547.57,916.59Z"/><path class="cls-12" d="M510.44,980.49A6.54,6.54,0,1,1,517,987,6.54,6.54,0,0,1,510.44,980.49Z"/><circle class="cls-12" cx="627.97" cy="916.59" r="6.54"/><path class="cls-12" d="M658.14,851.69a6.54,6.54,0,1,1,6.54,6.54A6.54,6.54,0,0,1,658.14,851.69Z"/><path class="cls-12" d="M731.36,851.69a6.54,6.54,0,1,1,6.54,6.54A6.54,6.54,0,0,1,731.36,851.69Z"/><circle class="cls-12" cx="519.02" cy="851.69" r="6.54"/><path class="cls-12" d="M436.87,851.69a6.54,6.54,0,1,1,6.54,6.54A6.54,6.54,0,0,1,436.87,851.69Z"/><path class="cls-12" d="M400.71,790.16a6.55,6.55,0,1,1,6.55,6.54A6.54,6.54,0,0,1,400.71,790.16Z"/><path class="cls-12" d="M439.12,723.74a6.54,6.54,0,1,1,6.54,6.54A6.54,6.54,0,0,1,439.12,723.74Z"/><path class="cls-12" d="M731.36,723.74a6.54,6.54,0,1,1,6.54,6.54A6.54,6.54,0,0,1,731.36,723.74Z"/><path class="cls-12" d="M658.14,723.74a6.54,6.54,0,1,1,6.54,6.54A6.54,6.54,0,0,1,658.14,723.74Z"/><path class="cls-12" d="M768.28,788.23a6.54,6.54,0,1,1,6.54,6.54A6.54,6.54,0,0,1,768.28,788.23Z"/><path class="cls-12" d="M843.22,788.23a6.54,6.54,0,1,1,6.54,6.54A6.54,6.54,0,0,1,843.22,788.23Z"/><path class="cls-12" d="M880.63,852.09a6.54,6.54,0,1,1,6.54,6.55A6.54,6.54,0,0,1,880.63,852.09Z"/><path class="cls-12" d="M843.22,659.13a6.54,6.54,0,1,1,6.54,6.54A6.54,6.54,0,0,1,843.22,659.13Z"/><circle class="cls-12" cx="774.82" cy="916.59" r="6.54"/><path class="cls-10" d="M2039.15,994.55c-.88-.47-21.71-11.88-42.54-33.84-27.7-29.21-41.78-63.17-40.72-98.21,1.49-49.39,22.69-78.71,40.21-94.61,21.82-19.81,50.24-30.11,78-28.26,53.1,3.54,51.39,60.18,51.37,60.75l-6.33-.26c.08-2.13,1.42-51-45.46-54.18-26-1.73-52.72,8-73.28,26.64-16.61,15.07-36.71,42.94-38.14,90.11-2.44,80.71,79.13,125.85,80,126.3Zm83.1-194.3-3.16-.12h0Z"/><path class="cls-8" d="M2282,1016.54v530.38a44.69,44.69,0,0,1-44.7,44.71h-222a52.81,52.81,0,0,1-52.8-52.8V1018.22a106.8,106.8,0,0,1,73-101.29c20.82-6.93,34.88-26.37,36.08-48.26l.95-18.31H2172l1.44,17.89a56.68,56.68,0,0,0,38,49A105.14,105.14,0,0,1,2282,1016.54Z"/><path class="cls-13" d="M2282,1016.54v530.38a44.69,44.69,0,0,1-44.7,44.71H2078.89a52.81,52.81,0,0,1-52.79-52.8V1018.22a106.79,106.79,0,0,1,73-101.29c20.78-6.93,34.88-26.37,36-48.26l1-18.31H2172l1.44,17.89a56.68,56.68,0,0,0,38,49A105.14,105.14,0,0,1,2282,1016.54Z"/><path class="cls-9" d="M2274.55,1079.7v456.53a42.61,42.61,0,0,1-42.61,42.61h-32.05c-26.87,0-41.29-6.06-56.23-18s-47.77-10-58.73,4-42.32,14-42.32,14h-22.34A50.34,50.34,0,0,1,1970,1528.5V1076.36c28-5.7,69.69-8.84,123.92,1.7C2157.82,1090.48,2228.11,1085.68,2274.55,1079.7Z"/><path class="cls-4" d="M2090.7,796.59h62.05A26.23,26.23,0,0,1,2179,822.82v36.61a0,0,0,0,1,0,0H2065.52a0,0,0,0,1,0,0V821.78A25.19,25.19,0,0,1,2090.7,796.59Z"/><rect class="cls-4" x="1962.49" y="1007.41" width="319.52" height="475.99"/><rect class="cls-10" x="2026.1" y="1007.41" width="229.7" height="475.99"/><path class="cls-10" d="M2180.6,866.85H2063.29a13.12,13.12,0,0,1-13.09-13.08h0a13.13,13.13,0,0,1,13.09-13.08H2180.6a13.13,13.13,0,0,1,13.09,13.08h0A13.12,13.12,0,0,1,2180.6,866.85Z"/><path class="cls-14" d="M1992.36,1563.25s-15.58,17.93-54.67,23.89h0c-16.42,2.5-37,2.9-62.31-1-85.61,13.31-117-22.85-117-22.85-87.76-69.91-88.76-216.69,0-249.9,26-9.72,48.69-8.16,67.21-2.18a161.61,161.61,0,0,0,99.62,0c18.52-6,41.25-7.54,67.21,2.18a92.37,92.37,0,0,1,31.22,19.36l1,1C2079.11,1386.49,2067.73,1503.21,1992.36,1563.25Z"/><path class="cls-15" d="M1992.36,1563.25s-15.58,17.93-54.67,23.89h0c-45.21,3.79-25.39-14.22-74.47-14.22s-78.22-16.15-108.71-91.27-5.83-146,42.52-154.17,72.74,30,133.88-9.67c42.25-27.41,92.7,14.9,92.7,14.9l1,1C2079.11,1386.49,2067.73,1503.21,1992.36,1563.25Z"/><path class="cls-15" d="M1881.19,1259c-17.93-10.69-36.08,4.32-57.15,12.56s-61.63,8.08-61.63,8.08a294.33,294.33,0,0,1,44-47.86C1833.76,1207.94,1881.19,1259,1881.19,1259Z"/><path class="cls-16" d="M1881.19,1259c-16.85-13.84-48-21.78-63.25-15.55s-55.53,36.19-55.53,36.19a294.33,294.33,0,0,1,44-47.86C1833.76,1207.94,1881.19,1259,1881.19,1259Z"/><path class="cls-17" d="M1874,1332.53h0c-11.49-25.39-5.28-56.88,2-78.83,5.75-17.47,16.79-41,22.22-52.26a2.93,2.93,0,0,1,5.41.37l2.18,6.62a23.88,23.88,0,0,1-2.22,19.85c-11.11,18.36-33.41,61.27-23.37,96.6C1881.31,1328.85,1876,1337.07,1874,1332.53Z"/><path class="cls-18" d="M1979,1333.88s35.3,10.62,36.21,37.31-24.67,24.2-37.7,10.58S1958.14,1333,1979,1333.88Z"/><rect class="cls-19" y="1591.62" width="2572.65" height="7.33" rx="3.02"/><path class="cls-10" d="M1099,1217.77s-21.08,42.39-18.55,43.24,262.49,55.7,400.06-14.35l-14.25-36.21S1324.23,1272.52,1099,1217.77Z"/><path class="cls-14" d="M1332.69,834.82c-127.46-28.64-252.88,40.6-286.73,155.52-2.14,7.29,2.66,15,10.63,16.77h0c7.9,1.77,15.77-2.41,17.94-9.62,30.2-100.64,140.3-161.14,252.17-136,116.56,26.19,191.6,135.6,167.27,243.89l28.71,6.45C1550.31,988.84,1465.08,864.56,1332.69,834.82Z"/><path class="cls-14" d="M1466.79,1091.57l26.39,58.37a7.84,7.84,0,0,0,12.3,2.45L1550.2,1110c3.59-3.41,1.66-9.29-3.42-10.43l-72.56-16.31C1469,1082.13,1464.68,1086.91,1466.79,1091.57Z"/><path class="cls-15" d="M1228.18,1364.47c127.46,28.64,252.88-40.6,286.73-155.52,2.15-7.29-2.66-15-10.63-16.77h0c-7.9-1.77-15.77,2.41-17.94,9.62-30.2,100.63-140.3,161.13-252.17,136-116.56-26.19-191.6-135.6-167.27-243.89l-28.71-6.46C1010.56,1210.44,1095.79,1334.73,1228.18,1364.47Z"/><path class="cls-15" d="M1094.08,1107.72l-26.39-58.38a7.85,7.85,0,0,0-12.3-2.44l-44.72,42.35c-3.59,3.4-1.66,9.29,3.42,10.43l72.57,16.31C1091.89,1117.16,1096.19,1112.38,1094.08,1107.72Z"/><path class="cls-7" d="M1295.06,1138.1c0,5.07-2.31,9.18-5.17,9.18s-5.17-4.11-5.17-9.18,2.31-9.18,5.17-9.18S1295.06,1133,1295.06,1138.1Z"/></g></g></svg>