<svg xmlns="http://www.w3.org/2000/svg" viewBox="0 0 2212.81 1607.45"><defs><style>.cls-1{fill:#f7dfc8;}.cls-2{fill:#fbecdb;}.cls-3{fill:#fff4e9;}.cls-4{fill:#f8e7d4;}.cls-5{fill:#a0795f;}.cls-6{fill:#7693ce;}.cls-7{fill:#ebf3fa;}.cls-8{fill:#c94c43;}.cls-9{fill:#fff;opacity:0.7;}.cls-10{fill:#2c3a64;}.cls-11{fill:#ffb27d;}.cls-12{fill:#1e3d70;}.cls-13{fill:#d1a586;}.cls-14{fill:#e5bd9e;}.cls-15{fill:#dfb697;}.cls-16{fill:#2b478b;}.cls-17{fill:#ed975d;}.cls-18{fill:#a9453d;}.cls-19{fill:#2a4e96;}.cls-20{fill:#244583;}.cls-21{fill:#ed985f;}.cls-22{fill:#f99746;}.cls-23{fill:#ed7d2b;}.cls-24{fill:#6bb7bf;}.cls-25{fill:#8ad8db;}.cls-26{fill:#ed9f4a;}.cls-27{fill:#ffb278;}.cls-28{fill:#233862;}.cls-29{fill:#c69d7f;}.cls-30{fill:#e0b594;}.cls-31{fill:#599dad;}.cls-32{fill:#86d1cd;}</style></defs><title>intimateAsset 1</title><g id="Layer_2" data-name="Layer 2"><g id="_Layer_" data-name="&lt;Layer&gt;"><path class="cls-1" d="M2208.14,956.88q-.79,9.27-1.71,18.58-3.63,37-9.39,74.58-1.39,9.07-2.91,18.18-7.3,43.62-17.55,87.9-6.64,28.59-14.55,57.41-12.27,44.61-27.65,89.65-2,5.83-4.06,11.68-19.11,54.45-43,109.25-20.71,47.42-45.11,94.9-10.73,20.84-22.17,41.67-10.76,19.56-22.17,39.1l-3.39,5.78-.09.15-46.54-.1L415.4,1602.27l-14.78,0s-4.12-2.72-11.52-8c-4-2.89-9.07-6.54-14.93-10.93q-3.78-2.83-8-6.08c-16.32-12.48-37.49-29.46-61.42-50.54h0l-1.87-1.66q-7.66-6.78-15.68-14.12c-.8-.72-1.6-1.47-2.4-2.21l-1.2-1.1-3.2-3-.72-.66c-1.88-1.75-3.76-3.52-5.66-5.31-10.9-10.29-22.14-21.29-33.56-33q-5.8-5.92-11.66-12.08l-.41-.43q-11.1-11.65-22.29-24.14-2.26-2.52-4.53-5.08l-2-2.28q-12.42-14.07-24.74-29.11-2.79-3.39-5.57-6.84-11.53-14.34-22.83-29.5c-.67-.88-1.32-1.76-2-2.65a.16.16,0,0,1-.06-.08q-3.14-4.24-6.25-8.55-3.34-4.61-6.64-9.31c-12.26-17.42-24.13-35.57-35.39-54.39q-10.65-17.79-20.51-36.38h0q-4.1-7.69-8-15.54C-12.71,1068.89-41.23,867.12,94.3,645.18c41.26-67.56,91.2-120.57,146.12-161.85Q262.1,467,284.76,453.15a615.73,615.73,0,0,1,81.38-42c250-106.7,539.64-45.37,604.37-14.45,0,0,167.63-448.5,672-391.72,114.88,12.94,218.73,63.94,305.37,143.91a660.37,660.37,0,0,1,50,51.57q11.34,13,22.17,26.76,11.37,14.43,22.17,29.63c97.26,137,158.68,320.14,169,527.1A1290.64,1290.64,0,0,1,2208.14,956.88Z"/><path class="cls-2" d="M2020,227.21V1560.68q-12.35,22.44-25.56,44.88l-145.31-.3-83.86-.17-274.59-.58-92.69-.19-997.4-2.08s-13.06-8.63-34.48-25A1192.73,1192.73,0,0,1,240.42,1465.7V483.33a602.07,602.07,0,0,1,125.72-72.19c250-106.7,539.64-45.37,604.37-14.45,0,0,22.84-61.1,77-135.34a690.77,690.77,0,0,1,86.36-97.79C1239.64,64.86,1403.15-22,1642.47,5c114.88,12.94,218.73,63.94,305.37,143.91a661.37,661.37,0,0,1,46.68,47.77Q2007.62,211.44,2020,227.21Z"/><path class="cls-3" d="M2020,227.21v114L861.22,512.06l1133.3-315.41Q2007.62,211.44,2020,227.21Z"/><path class="cls-4" d="M1288.71,1494.51H1398v109.81l-997.4-2.08s-13.06-8.63-34.48-25A1192.73,1192.73,0,0,1,240.42,1465.7V720l.37-.47H245V911.37h100.5V602.62l3.8-3.69h24.4v-.16h142v.16h.13v46.28h-.13V677h.13v46.27h-.13v32h.13v46.28h-.13v.16l15.06-.16V559.42H690.05v30.66h.08v46.29h-.08V677h.08v46.27h-.08v32h.08v46.28h-.08V831.1h.08v46.29h-.08V907h.08v46.28h-.08v27.85h.08v29.37h-.08v3.21H869.64v264.88h67.11v66.73h72.34V1230.36h130.15V918.16h20.36V887.07h2.9v31.09h16.89v0h84.42v-31h2.9v31h22Z"/><polygon class="cls-4" points="1765.31 512.06 1765.31 1605.09 1490.71 1604.51 1490.71 512.06 1765.31 512.06"/><path class="cls-4" d="M2020,669.82v890.86q-12.35,22.44-25.56,44.88l-145.31-.3V669.82Z"/><path class="cls-5" d="M1437.43,1602.26c39.66-205.85,29.47-332.17,29.42-333.76-.1-3.17,5.59-6,8.66-6.15s16.79-.94,18.38,1.77c2.07,3.56,10.06,159.19-49.06,338.14Z"/><path class="cls-6" d="M1256.89,941.73l11.4-1.7c4.38-1.23,7.73-3.19,7.85-7.4l.67-22.25a8.23,8.23,0,0,0-5.47-8.09c-10.87-3.67-20.58-12.61-18.24-26.17,0,0,6.28-32.52,6.42-33.48l42,1.26c.08,1,5.17,33.83,5.17,33.83,2.5,12.44-8.8,22.13-20,25.08a7.56,7.56,0,0,0-5.72,7.05l-.68,22.55c-.13,4.4,3,6.49,7.73,8.21l10.86,2.5c.84,0,.89,1.06,0,1l-42.05-1.26C1256,942.86,1256.05,942.11,1256.89,941.73Z"/><path class="cls-7" d="M1255,882.93c2,11.44,12.44,18.86,24.18,19.21s23.39-7.75,25.71-18.18a17,17,0,0,0,.22-6.22,44.45,44.45,0,0,0-1.12-5.2c-.19-.65-4.6-28.7-4.6-28.7l-38.1-1.14-5.94,30.15q-.17.72-.27,1.44l-.12.51h0c-.07.47-.15.94-.21,1.42A24,24,0,0,0,1255,882.93Z"/><path class="cls-8" d="M1255,882.93c2,11.44,12.44,18.86,24.18,19.21s23.39-7.75,25.71-18.18c-4.66-.68-17.59-2.26-27.75-.61C1270.38,884.45,1261.65,883.79,1255,882.93Z"/><path class="cls-9" d="M1295.67,883.68a17.27,17.27,0,0,0,.21-6.22,42.5,42.5,0,0,0-1.12-5.2c-.19-.65-4.6-28.7-4.6-28.7l4.81.15s4.41,28,4.59,28.69a42.91,42.91,0,0,1,1.12,5.2,17,17,0,0,1-.21,6.22c-2.32,10.43-14,18.53-25.71,18.18-.83,0-1.66-.09-2.48-.19C1283.13,901.12,1293.5,893.41,1295.67,883.68Z"/><path class="cls-10" d="M1369.4,1284.87l73.25,244.2s33.5-8.18,45.86-27.84c0,0-8.26-237.37-59-272.81S1369.4,1284.87,1369.4,1284.87Z"/><path class="cls-10" d="M1213.36,1599.62h119.1a10.64,10.64,0,0,0,2.53-.74c8-4,7.33-26.72.74-42.43-2.58-6.16,5.2-19.32,2.41-24.34-5.38-9.68-38.51-27-44.28-1.35-.18.8-2.72,15.26-2.94,16h0c-7.27,24-39.77,34.9-58.54,37.94C1218,1587.08,1214.31,1595.44,1213.36,1599.62Z"/><path class="cls-11" d="M1670.52,790.74S1642.58,823.88,1607,810c0,0-7.65-18.51-7.76-32.16,0-1.68,0-3.31-.06-4.86-.19-15.36-.71-24-.71-24h0c1.62-.68,54.39-22.34,54.35-20.54C1652,770,1670.52,790.74,1670.52,790.74Z"/><path class="cls-10" d="M1421,1599.62h39.09c8.2,0,17.31-8.21,19.59-23.23s19.13-23.24,22.77-35.54-15-29.61-15-29.61l-3.12-4L1481,1503l-31,7.29s-.77,7.37-1.25,16.76a214,214,0,0,0-.12,21.5c.91,16.41-4.6,34.07-19.17,37.26S1421,1599.62,1421,1599.62Z"/><path class="cls-11" d="M1415.65,1126.1l-17.91,6.67s-36.07-2.34-42.62,36.41c0,0-1.51,16.2,9.92,13.42s6.64-3.37,22.84-6.94,29.31-14.27,31.22-26.26l7.35-11.57Z"/><path class="cls-12" d="M1406.29,1143.27c-7.78-11.34-7.47-13.62-7.47-13.62s92.9-94.33,101.23-103.56,85.87-166.95,85.87-166.95l27.07-.77c41.25-1.19,65.88,45.52,41.6,78.9-40.94,56.28-90.16,123.13-102.24,136-35.62,38-131.37,82.61-131.37,82.61A38.37,38.37,0,0,1,1406.29,1143.27Z"/><path class="cls-13" d="M1699,1157.87c2.52-63.66,8-119,14.48-157.65,10.39-61.56,19.74-97,19.84-97.36,1.37-5.41,21.13-27.32,65.07-26.64s39.77,29.4,39.77,29.4h0a9.45,9.45,0,0,1-.32,2.56c-.42,1.48-40.75,151.4-39,345,0,2.72.33,7.42.14,10.55,0,0-101.82,2.69-101.84,0C1693.53,1246.77,1695.26,1199.89,1699,1157.87Z"/><path class="cls-14" d="M1686.15,1252.19c0,2.7,1.42,4.85,3.11,4.85h0c1.69,0,3-2.2,3.06-4.85h87.26c0,2.7,1.42,4.85,3.11,4.85h0c1.73,0,3.1-2.27,3.08-5a1385.22,1385.22,0,0,1,7.23-152.82c11.6-113.88,33.05-190,33.35-191.05a9.4,9.4,0,0,0,.32-2.56s4.16-28.72-39.77-29.4-63.7,21.23-65.07,26.65c-.08.28-5.38,20.34-12.41,56.39-2.33,11.94-4.85,25.64-7.43,41-6.51,38.62-12,94-14.48,157.66C1683.9,1199.89,1682.6,1235.28,1686.15,1252.19Z"/><path class="cls-15" d="M1686.15,1252.19c0,2.7,1.42,4.85,3.11,4.85h0c1.69,0,3-2.2,3.06-4.85h87.26c0,2.7,1.42,4.85,3.11,4.85h0c1.73,0,3.1-2.27,3.08-5a1385.22,1385.22,0,0,1,7.23-152.82c-14.42-72.27-70.18-127.55-83.58-140-2.33,11.94-4.85,25.64-7.43,41-6.51,38.62-12,94-14.48,157.66C1683.9,1199.89,1682.6,1235.28,1686.15,1252.19Z"/><path class="cls-13" d="M1774.13,1251.18h-.21l-.15-.16a.45.45,0,0,1-.14-.39h0v-.24c-.12-3.62-7.37-4.35-19-4.35-2.6,0-5.4,0-8.37.07-3.35,0-6.9.08-10.62.08-11.1,0-25.71-.34-40.29-3-9.36-1.68-3-75.61,3.61-144.78,1.13-11.76,2-21,2.42-26.52,4.35-59,29.39-163.31,29.63-164.13,1.09-4.33,16.13-20.69,48.86-20.17,12.15.18,20.83,3.23,25.79,9.06a18,18,0,0,1,4.27,13.38,7,7,0,0,1-.25,2c-.13.57-22.7,135.55-26.4,168.11-6.19,54.4-8.59,168.58-8.62,170.25v.72Zm-19.52-6.15c10.21,0,16.73.53,19.07,3,.37-16.71,2.85-117.78,8.57-168,3.77-33.16,26.32-167.85,26.44-168.27a6.31,6.31,0,0,0,.21-1.75,17.34,17.34,0,0,0-4-12.67c-4.77-5.58-13.19-8.51-25-8.69-32.13-.5-46.82,15.25-47.87,19.43-.25.95-25.32,105.89-29.59,163.94-.41,5.48-1.3,14.77-2.44,26.54-2.46,25.63-5.84,60.73-7.45,90.28-2.36,43.27.34,52.92,3,53.41,14.5,2.6,29,2.94,40.11,2.94,3.71,0,7.26,0,10.61-.08C1749.2,1245.06,1752,1245,1754.61,1245Z"/><path class="cls-14" d="M1792.29,1257.05H1450.2s8-33,206.09-28.13C1796.49,1232.4,1792.29,1257.05,1792.29,1257.05Z"/><path class="cls-13" d="M1820.14,1602.26c-39.67-205.85-29.47-332.17-29.42-333.76.1-3.17-5.6-6-8.66-6.15s-16.79-.94-18.38,1.77c-2.07,3.56-10.06,159.19,49,338.14Z"/><path class="cls-13" d="M1500.73,1602.26c39.66-205.85,29.47-332.17,29.41-333.76-.09-3.17,5.6-6,8.67-6.15s16.79-.94,18.38,1.77c2.07,3.56,10.06,159.19-49.06,338.14Z"/><path class="cls-5" d="M1756.41,1602.26c-39.66-205.85-29.46-332.17-29.41-333.76.1-3.17-5.6-6-8.66-6.15s-16.8-.94-18.38,1.77c-2.08,3.56-10.07,159.19,49,338.14Z"/><path class="cls-13" d="M1450.09,1248.51H1792a7.09,7.09,0,0,1,7.09,7.09v4.9a7.09,7.09,0,0,1-7.09,7.09H1450.09a7.09,7.09,0,0,1-7.09-7.09v-4.9A7.1,7.1,0,0,1,1450.09,1248.51Z" transform="translate(3242.09 2516.1) rotate(180)"/><path class="cls-16" d="M1742.67,1095.86S1775,1218,1718.86,1235.7c0,0-48.33,23.09-278.49,7,0,0,9.83,102-100.71,301.84,0,0-32.45,8.68-52.73-15.5,0,0,43.14-288.24,57.46-352.35C1355.27,1128.06,1662,1112.09,1742.67,1095.86Z"/><path class="cls-11" d="M1304.32,910.51a8.44,8.44,0,0,1-6.13-6.16c-3.6-14.06-13.93-20.78-15.07-19.29-.91,1.17,2.8,8.72,3.46,11.56-22-.44-15.1-14.56-33.82-17.14-3.74-.52-7.39,15.89,7.46,35.66,9.44,12.55,12,8.15,40.65,14.49l13.61,3.42,3.46-21.14A60.87,60.87,0,0,1,1304.32,910.51Z"/><path class="cls-17" d="M1647.56,740.34c-5.09,9.44-22.55,27.89-48.38,34.63-.19-15.36-.71-24-.71-24h0C1600,750.58,1649.07,737.56,1647.56,740.34Z"/><path class="cls-11" d="M1581.69,749.94s68.11,16,77.43-26.55,24.38-69.17-18.71-81.19-55.12,2.36-61.69,15.81S1564.22,744.68,1581.69,749.94Z"/><path class="cls-18" d="M1656.79,735c.93.59,15.58,5.09,43.34-50.19,4.35-8.68,7.32-27.46-2.83-44s-46.17-29.63-76.09-35.31-37.1,11.16-44.14,28.08c-7.4,17.76-28.76,32.38-28.76,32.38,25.8,14.41,56.87-6.2,67.64-2.81s14.57,20.36,15.37,25.79,2,10,15.59,5.11,6.12,19.18,3.95,23.78C1650.86,717.77,1649,730,1656.79,735Z"/><path class="cls-19" d="M1547.61,952.88c3.73,11.79-.79,92.68,8.52,142.22,5.49,29.21,19.77,37.43,20.11,37.69,11,8.55,57.27,28.42,91.92,43.09,77.27,32.71,94.68-9.63,94-19.26-.31-4.32-32.63-240.37-54.79-308.93-12.84-39.76-27.6-71.08-48.21-83.14-2.69-1.51-12,4.39-25.29,12.93-12.29,7.88-23.78,8.18-36.36,7.08L1579.78,802c-13.41,15.59-27.69,36.34-31.59,65.84-.29,2.18-.55,4.5-.75,7C1546.36,886.83,1540.51,930.42,1547.61,952.88Z"/><path class="cls-20" d="M1546.4,919.07c.35,19.66,1.5,41.76,3,64.2.09,1.33.19,2.66.28,4,76.24-47.72,88-135,88-135-37.5,1.65-67.3,10.27-90.26,22.6C1546.36,886.83,1546.09,902,1546.4,919.07Z"/><path class="cls-19" d="M1299.86,920.24c4-12.37,11.51-12.54,11.51-12.54s127.55,19.72,139.06,16.5,109-96.91,109-96.91,37.33-39,68.45-29.88c27.05,7.91,37.84,27.46,41.67,46,4.57,22.09-6.12,44.13-26.62,55.58-46,25.7-142.83,80.12-164.61,85.77-48.49,12.57-175.51-46.63-175.51-46.63S1296.88,929.52,1299.86,920.24Z"/><path class="cls-6" d="M898.89,947.08l11.4-1.71c4.38-1.22,7.73-3.18,7.86-7.4l.67-22.24a8.26,8.26,0,0,0-5.47-8.1c-10.87-3.67-20.59-12.6-18.24-26.16,0,0,6.27-32.52,6.41-33.48l42,1.26c.08,1,5.17,33.82,5.17,33.82,2.49,12.45-8.81,22.14-20,25.08a7.58,7.58,0,0,0-5.72,7.06l-.68,22.54c-.13,4.41,3,6.5,7.73,8.21l10.85,2.5c.84,0,.89,1.06,0,1l-42-1.26C898,948.21,898.05,947.46,898.89,947.08Z"/><path class="cls-7" d="M897,888.27c2,11.44,12.45,18.86,24.19,19.21s23.39-7.75,25.71-18.18a17.26,17.26,0,0,0,.21-6.22,42.91,42.91,0,0,0-1.12-5.2c-.19-.65-4.59-28.69-4.59-28.69L903.33,848,897.4,878.2c-.11.48-.21.95-.28,1.43l-.11.52h0c-.07.48-.16,1-.21,1.43A23.54,23.54,0,0,0,897,888.27Z"/><path class="cls-8" d="M897,888.27c2,11.44,12.45,18.86,24.19,19.21s23.39-7.75,25.71-18.18c-4.67-.67-17.59-2.26-27.76-.61C912.39,889.79,903.65,889.13,897,888.27Z"/><path class="cls-9" d="M937.67,889a17.06,17.06,0,0,0,.21-6.22,42.5,42.5,0,0,0-1.12-5.2c-.18-.66-4.59-28.7-4.59-28.7l4.8.14s4.41,28.05,4.6,28.7a42.5,42.5,0,0,1,1.12,5.2,17.27,17.27,0,0,1-.21,6.22c-2.32,10.43-14.06,18.53-25.71,18.18-.84,0-1.66-.1-2.48-.19C925.14,906.46,935.5,898.76,937.67,889Z"/><path class="cls-13" d="M616,1154.37c-2.52-63.66-8-119-14.48-157.65-10.38-61.56-19.73-97-19.84-97.36-1.37-5.41-21.13-27.32-65.06-26.64s-39.77,29.4-39.77,29.4h0a9.48,9.48,0,0,0,.31,2.56c.42,1.48,40.76,151.4,39,345,0,2.72-.32,7.42-.14,10.54,0,0,101.82,2.7,101.85,0C621.4,1243.27,619.67,1196.39,616,1154.37Z"/><path class="cls-14" d="M628.78,1248.69c0,2.69-1.42,4.85-3.12,4.85h0c-1.69,0-3-2.2-3.06-4.85H535.3c0,2.69-1.42,4.85-3.11,4.85h0c-1.72,0-3.09-2.27-3.07-5a1385,1385,0,0,0-7.24-152.81c-11.6-113.88-33-190-33.35-191.05a9.84,9.84,0,0,1-.31-2.56s-4.17-28.72,39.76-29.4S591.65,894,593,899.37c.08.28,5.37,20.33,12.41,56.39,2.33,11.94,4.84,25.64,7.43,41,6.51,38.62,11.95,94,14.48,157.65C631,1196.39,632.32,1231.78,628.78,1248.69Z"/><path class="cls-15" d="M628.78,1248.69c0,2.69-1.42,4.85-3.12,4.85h0c-1.69,0-3-2.2-3.06-4.85H535.3c0,2.69-1.42,4.85-3.11,4.85h0c-1.72,0-3.09-2.27-3.07-5a1385,1385,0,0,0-7.24-152.81c14.43-72.27,70.18-127.55,83.59-140,2.33,11.94,4.84,25.64,7.43,41,6.51,38.62,11.95,94,14.48,157.65C631,1196.39,632.32,1231.78,628.78,1248.69Z"/><path class="cls-13" d="M540.3,1247.68l0-.56v-.23c0-1.67-2.42-115.85-8.61-170.25-3.7-32.51-26.27-167.54-26.41-168.12a7.1,7.1,0,0,1-.25-2,18,18,0,0,1,4.27-13.3c5-5.83,13.64-8.88,25.79-9.06,32.76-.49,47.77,15.84,48.87,20.19.23.81,25.29,105.42,29.62,164.11.4,5.47,1.3,14.76,2.43,26.52,6.65,69.17,13,143.1,3.6,144.78-14.58,2.62-29.19,3-40.29,3h0c-3.71,0-7.27,0-10.62-.08-3,0-5.77-.07-8.37-.07-11.65,0-18.89.73-19,4.35,0,.39,0,.48-.15.63l-.14.16Zm-3.75-362.55h-1.46c-11.85.18-20.27,3.11-25,8.71a17.23,17.23,0,0,0-4,12.57,7.37,7.37,0,0,0,.21,1.83c.13.42,22.68,135.16,26.44,168.27,5.72,50.21,8.2,151.28,8.58,168,2.33-2.46,8.85-3,19.06-3,2.61,0,5.41,0,8.39.07,3.34,0,6.89.08,10.6.08h0c11.06,0,25.61-.34,40.11-3,2.68-.48,5.38-10.13,3-53.4-1.61-29.55-5-64.65-7.45-90.28-1.13-11.77-2-21.06-2.43-26.54-4.35-59-29.35-163-29.59-163.94C581.92,900.45,567.67,885.13,536.55,885.13Z"/><path class="cls-14" d="M522.63,1253.55H864.72s-8-33-206.08-28.13C518.43,1228.9,522.63,1253.55,522.63,1253.55Z"/><path class="cls-13" d="M494.79,1598.76c39.66-205.85,29.46-332.17,29.41-333.76-.1-3.17,5.6-6,8.66-6.15s16.8-.94,18.38,1.77c2.08,3.56,10.06,159.19-49.05,338.14Z"/><path class="cls-13" d="M814.19,1598.76c-39.66-205.85-29.46-332.17-29.41-333.76.1-3.17-5.6-6-8.66-6.15s-16.8-.94-18.38,1.77c-2.08,3.56-10.07,159.19,49,338.14Z"/><path class="cls-5" d="M877.49,1598.76C837.83,1392.91,848,1266.59,848.08,1265c.1-3.17-5.6-6-8.66-6.15s-16.8-.94-18.38,1.77c-2.08,3.56-10.07,159.19,49.05,338.14Z"/><path class="cls-5" d="M558.51,1598.76C598.18,1392.91,588,1266.59,587.93,1265c-.1-3.17,5.59-6,8.66-6.15s16.79-.94,18.38,1.77c2.07,3.56,10.06,159.19-49.06,338.14Z"/><rect class="cls-13" x="515.83" y="1245" width="356.11" height="19.09" rx="7.1"/><path class="cls-10" d="M688.06,617.22s-46.39-14.71-80.35,32.44-59.82,50.19-50.7,71-15,33-5.91,52.22,19,17.11,9.46,36.13c-11.56,23,3.88,51.58,11.49,60.92,19.6,24.08,11.09,70.72,41,76.29,0,0,146.78-59.74,159.69-78.77s7.84-50-11.43-74.8,15.21-22.81,7.61-45.12-12.67-24.84-5.58-49.17-8.11-21.29-14.7-40.05-3.52-23-21.46-33.8C708.12,613,688.06,617.22,688.06,617.22Z"/><path class="cls-21" d="M757.67,825.57S818.6,953,827.22,953.33s81.62,21.27,81.62,21.27v11.65h-106s-81.36-103.06-64.47-130.78S757.67,825.57,757.67,825.57Z"/><path class="cls-21" d="M974.65,1221.21s87.12,307.86,111,333.91l-37.77-9s.9-7.87,0-10.28c-18.42-49.2-109.67-116.12-122.94-262.59Z"/><path class="cls-11" d="M715.19,872.11c-57.09,23.3-74.28-67.86-70.58-68.65,5.84-6.17,12.38-28.65,9.33-61.42l2.91.29,42.88,4.61a281.59,281.59,0,0,0-.13,29.84c0,1,.12,1.91.2,2.83,1,11.12,9.89,19,12.38,21.25C716,801.06,730.42,865.9,715.19,872.11Z"/><path class="cls-21" d="M699.6,776.78c-22.46-2.58-36.4-22.65-42.75-34.44l42.88,4.6A281.59,281.59,0,0,0,699.6,776.78Z"/><path class="cls-11" d="M715.83,760.24s-63.41,6.7-67-32.85S634.7,662.06,675,656.11s49.58,8.43,54,21.34S732.23,757.48,715.83,760.24Z"/><path class="cls-11" d="M623.42,793.64s38.49-21,94.14,1.31a40.12,40.12,0,0,1,22.66,23.14c9.13,24.29-.86,50.12.44,67.15,0,0-20.7,98.5-22.94,143.29s27,89.62,15.88,92.77c-21.39,6.06-155.07,75.69-153.67,24.67.85-30.72,59.46-92,59.72-123.36S579.11,811.89,623.42,793.64Z"/><path class="cls-11" d="M610.24,1078.29s-73.51,90-45.27,138.41c34.35,58.92,325.58,17.18,345.73,25.85,0,0-26.76,51.07-5.76,189.23,4.66,30.63,26,87.64,11.84,112.79l32.57-16.85s-1.48-115.09,33.5-301.56c0,0-.5-38.11-18.06-47.48C927.79,1158.93,610.24,1078.29,610.24,1078.29Z"/><path class="cls-11" d="M987.38,1583.68s-7.57-2.24-10.61-6.29-16.95-27-23.18-37.07-6.22-34.16-6.22-34.16l-27.13-7.86s10.81,33-3.46,46.27l18.67,20.9s23.23,21.8,24.92,22.31,20,4,20,4Z"/><path class="cls-22" d="M964.8,1178.68s-5.6,40.85-34.35,82.74a195.42,195.42,0,0,1-69.23,62.38c-20.59,11.06-45.2,19.61-74.56,23.94,0,0,13.08-85.92-11.39-93.19h0a12,12,0,0,0-3.28-.49c-28.89-.38-203.48,6.45-221.51-51-17.78-56.6,70.54-171.75,70.23-176.75-8.05-127-21.83-200.61-13.73-212.92,10.62-16.15,45-27.82,45-27.82s40.25,54.9,73.82,70.4c11.93,5.52-8.27-61-8.27-61s28.29,2.8,49.58,42c0,0-12.36,12.76-17.66,18.33,0,0,11.39,30.16,12.51,41.57,1.16,11.78-.88,23.87-7.39,51.49q-.76,3.23-1.84,6.67c-6.46,20.67-20.88,48.14-30.75,90.55a20.57,20.57,0,0,0,0,6.85c2.45,19.47,21.84,60.32,35.69,62.1C773.48,1116.57,950.62,1164.62,964.8,1178.68Z"/><path class="cls-23" d="M722,1045.59a20.57,20.57,0,0,0,0,6.85c-90.12-111.71-95.71-224.71-95.71-224.71L752.76,955C746.3,975.71,731.88,1003.18,722,1045.59Z"/><path class="cls-11" d="M618.94,811c-1.5,4.62-8.06,24.37-5.15,28.26,18.74,25.07,127.14,143.55,158.5,149.63,34.62,6.72,124.78-79.16,124.78-79.16L886,904.51s-100.68,42.34-106.14,37.16c-6.57-6.24-80.35-93.11-96.8-111C658.1,803.45,627.24,785.47,618.94,811Z"/><path class="cls-21" d="M1118.51,1583.68s-12-4.94-18.38-12c-18.91-20.83-20.55-23.77-29.61-41.12-3.71-7.12-22.61,14-22.61,14l35.3,43.46,20.47,7.44Z"/><path class="cls-22" d="M652,785.59s-45.29-1.67-47.07,33.07,23.54,49.85,23.54,49.85,33.18,11.39,66.06-30.88c0,0-15.87-16.62-23.81-24.22C658.77,802,652,785.59,652,785.59Z"/><polygon class="cls-8" points="914.6 1566.25 921.44 1598.76 928.61 1598.76 928.61 1569.02 914.6 1566.25"/><polygon class="cls-8" points="1045.73 1566.25 1052.57 1598.76 1059.74 1598.76 1059.74 1569.02 1045.73 1566.25"/><path class="cls-8" d="M1130.38,1598.76h-50.93s-5.68-25.35-18.93-26.19-19.53-9.55-16.41-16.63a55.9,55.9,0,0,0,3.8-11.37s22.48,8.31,30.76,28.76,39.84,10.35,39.84,10.35C1125.27,1586.71,1130.62,1588.37,1130.38,1598.76Z"/><path class="cls-8" d="M999.25,1598.76H948.32s-5.68-25.35-18.93-26.19S909.86,1563,913,1555.94a55.4,55.4,0,0,0,3.81-11.37s22.47,8.31,30.76,28.76,39.84,10.35,39.84,10.35C994.14,1586.71,999.49,1588.37,999.25,1598.76Z"/><path class="cls-11" d="M884.85,905s9.76-5.34,17.62-5.81,17.27-4.15,16.54-1.35-10.69,6.8-8.46,8.17a29.25,29.25,0,0,0,13.67,3.07c5.12-.28,15.25-6.83,13.26-2.33s-12.59,14.1-21.63,13.27c-8-.74-24.62-4.89-24.62-4.89Z"/><path class="cls-21" d="M908.84,974.6s24.53-6.74,30.94-6.4,30.4,12.11,30.74,18H904.94Z"/><path class="cls-10" d="M725.16,655.63c-10.88-11-18.06-7.75-21.9-3.81-60.91-20.92-86.93,34.92-86.93,34.92S595.22,813.43,616,796.13c5.07-4.23,15.09-9.26,21.25-6.55,10,4.38,47.27,8.17,27.2-28.91-13.64-25.18-2.34-34.33-2.34-34.33,30.57-17.58,45.63-63.34,46.49-68.14,4.19,3.13,14.32,12.48,15.55,20.19,2.87,18.08,10.16,21.94,16.13,20.7C740.27,699.09,741.47,672.16,725.16,655.63Z"/><path class="cls-23" d="M930.45,1261.42c1.74-17.74-14-44.69-25.51-60.7-14.54-20.28-147.28-86.18-147.28-86.18,15.82,2,193,50.08,207.14,64.14C964.8,1178.68,959.2,1219.53,930.45,1261.42Z"/><path class="cls-23" d="M786.66,1347.74s13.08-85.92-11.39-93.19c52.49-1.43,86,69.25,86,69.25C840.63,1334.86,816,1343.41,786.66,1347.74Z"/><path class="cls-24" d="M1178.32,615.57c-29.33-6.29-29.83-30.28-29.83-30.28C1183,596.21,1178.32,615.57,1178.32,615.57Z"/><path class="cls-24" d="M1180.33,610.1s18.3,7.43,31.31-11.23C1211.64,598.87,1190.53,595.28,1180.33,610.1Z"/><path class="cls-24" d="M1140.18,971.8l-3.79,4.36a1,1,0,0,1-1.67-.63c.22-123.5,15.9-233.21,29.07-297.95,14.37-70.65,29-112.42,29.09-112.84h0c-.14.42-13.29,42.86-27.62,113.3-13.19,64.85-28.27,149.6-24.46,292.09A2.46,2.46,0,0,1,1140.18,971.8Z"/><path class="cls-22" d="M1192.63,547.91c-4.67,3.76-22.59,19.78-5.21,32.14,0,0,13.32,4.22,17.73-6,3.37-7.83,4.28-16.56,4.52-20.26a1.77,1.77,0,0,0-1.62-1.87,14,14,0,0,1-3.76-.85c-1.65-.64-2.49-3.13-4.72-3.68a13,13,0,0,0-4.44-.49A4.68,4.68,0,0,0,1192.63,547.91Z"/><path class="cls-24" d="M1182.69,575.58a10.78,10.78,0,0,1,3.34,11l0,2.51a11.87,11.87,0,0,1,7.91-8.22S1188,581.56,1182.69,575.58Z"/><path class="cls-25" d="M1178.32,615.57c-29.33-6.29-29.83-30.28-29.83-30.28S1171.72,598.05,1178.32,615.57Z"/><path class="cls-24" d="M1150.14,599.14s-18.45,7.06-31.08-11.86C1119.06,587.28,1140.24,584.12,1150.14,599.14Z"/><path class="cls-24" d="M1183,961.57l3.7,4.43a1,1,0,0,0,1.68-.59c2.26-123.48-11.22-233.49-23.09-298.48-13-70.92-26.69-113-26.82-113.39h0c.13.41,12.43,43.11,25.34,113.83,11.89,65.1,25.28,150.13,18.6,292.52A2.52,2.52,0,0,0,1183,961.57Z"/><path class="cls-22" d="M1139.08,536.71c4.6,3.86,22.19,20.23,4.57,32.24,0,0-13.4,3.95-17.61-6.4-3.21-7.89-3.94-16.64-4.11-20.34a1.77,1.77,0,0,1,1.66-1.84,14.08,14.08,0,0,0,3.78-.77c1.66-.61,2.55-3.08,4.78-3.59a13.21,13.21,0,0,1,4.45-.4A4.67,4.67,0,0,1,1139.08,536.71Z"/><path class="cls-24" d="M1148.47,564.57a10.78,10.78,0,0,0-3.56,11v2.51a11.89,11.89,0,0,0-7.75-8.38S1143,570.45,1148.47,564.57Z"/><path class="cls-24" d="M1158,577.51s19.48,3.26,28.1-17.79C1186.06,559.72,1164.67,560.83,1158,577.51Z"/><path class="cls-24" d="M1197.65,939.26l-2.75,5.08a1,1,0,0,1-1.76-.25C1166.42,823.52,1157.79,713,1156.53,647c-1.38-72.09,3.73-116,3.79-116.46h0c-.06.43-3.63,44.72-2.25,116.59,1.27,66.16,5,152.16,39.82,290.39A2.48,2.48,0,0,1,1197.65,939.26Z"/><path class="cls-22" d="M1156.4,514.13c-3.74,4.69-17.73,24.24,1.92,32.51,0,0,13.92,1.21,16-9.77,1.58-8.37.56-17.09,0-20.76a1.76,1.76,0,0,0-2-1.46,14.24,14.24,0,0,1-3.86,0c-1.74-.26-3.11-2.51-5.4-2.56a13.32,13.32,0,0,0-4.44.49A4.7,4.7,0,0,0,1156.4,514.13Z"/><path class="cls-24" d="M1152.73,543.3a10.8,10.8,0,0,1,5.67,10.05l.5,2.47a11.87,11.87,0,0,1,5.93-9.76S1159.25,548,1152.73,543.3Z"/><path class="cls-24" d="M1174,555.82s0-15.43,13.29-20.27C1187.32,535.55,1190.25,548.42,1174,555.82Z"/><path class="cls-26" d="M1142.81,531s.4-11.77-10.49-15.16C1132.32,515.87,1129.7,526.82,1142.81,531Z"/><path class="cls-26" d="M1178.53,601.83c.4.35,5.68-11.45-5.07-20.92C1173.46,580.91,1169,593.53,1178.53,601.83Z"/><path class="cls-24" d="M1186.06,600.91c-.3.09-.08-5.86,5.5-6.71C1191.56,594.2,1192.51,599.15,1186.06,600.91Z"/><path class="cls-24" d="M1130.39,580.91s-4.72-9.76-19.8-8.06C1110.59,572.85,1112.85,583.31,1130.39,580.91Z"/><path class="cls-22" d="M1224,974.36l-46.07-310.18a6.29,6.29,0,0,0-6.22-5.36h-14.37a5.88,5.88,0,0,0-5.83,5l-45,310.2a10.65,10.65,0,0,0,10.54,12.19h96.7A10.36,10.36,0,0,0,1224,974.36Z"/><path class="cls-27" d="M1138.49,976.87l23.89-318a5.87,5.87,0,0,0-5.05,5l-45,310.2a10.66,10.66,0,0,0,10.55,12.19h19.33A11.39,11.39,0,0,1,1138.49,976.87Z"/><path class="cls-27" d="M1192.8,986.25h26.77a10.26,10.26,0,0,0,6.21-2.07Z"/><path class="cls-16" d="M1069.93,799v28.84c0,2.09-1.31,3.8-2.91,3.8h-7.91c-1.6,0-2.91-1.71-2.91-3.8V799.12a6,6,0,0,1,1-.1Z"/><path class="cls-16" d="M1066,819.8h-5.11a20.51,20.51,0,0,0-20.45,20.45V978.58a7.49,7.49,0,0,0,7.47,7.47h31a6.72,6.72,0,0,0,6.7-6.7V839.46A19.72,19.72,0,0,0,1066,819.8Z"/><path class="cls-28" d="M1069.93,787v14.51c0,.79-1.31,1.43-2.91,1.43h-7.91c-1.6,0-2.91-.64-2.91-1.43V787c0-.79,1.31-1.43,2.91-1.43H1067C1068.62,785.59,1069.93,786.23,1069.93,787Z"/><rect class="cls-28" x="1040.46" y="849.36" width="45.21" height="86.93"/><path class="cls-29" d="M1361.64,1598.76a7.2,7.2,0,0,1-7.09-6l-34.74-202.3-50-290.94-14-81.35,35.59-1.05,6.17,47.23L1341,1396.27,1366.7,1593A5.11,5.11,0,0,1,1361.64,1598.76Z"/><path class="cls-29" d="M997.47,1018.2l-15.83,92.2h0l-43.74,254.7-39.11,227.68a7.18,7.18,0,0,1-7.08,6,5.1,5.1,0,0,1-5.06-5.76l33.73-258.11,36.06-276.09,5.44-41.65Z"/><path class="cls-5" d="M981.64,1110.4c2.07-39.62-25.2-51.6-25.2-51.6l5.44-41.65,35.59,1.05Z"/><path class="cls-5" d="M1297.64,1064.38c-23.06,10.45-27.79,35.17-27.79,35.17l-14-81.35,35.59-1.05Z"/><rect class="cls-30" x="762.65" y="986.25" width="728.05" height="63.88" rx="29.12"/><path class="cls-14" d="M284.76,453.15V1508.7c-14.22-13.08-29.12-27.44-44.34-43V483.33Q262.1,467,284.76,453.15Z"/><path class="cls-3" d="M1622.59,71.61,1047.53,261.35a690.77,690.77,0,0,1,86.36-97.79Z"/><path class="cls-3" d="M1317.94,272.1a34.34,34.34,0,1,1,34.34,34.34A34.35,34.35,0,0,1,1317.94,272.1Z"/><path class="cls-14" d="M2042.2,256.84V1519q-10.73,20.84-22.17,41.67-10.76,19.56-22.17,39.1V200.45q11.34,13,22.17,26.76Q2031.4,241.64,2042.2,256.84Z"/><path class="cls-31" d="M2162,1213.53q-12.27,44.61-27.65,89.65-2,5.83-4.06,11.68-19.11,54.45-43,109.25a183.79,183.79,0,0,1-29.54,7.28c-40.27,6.07-27.82-10.48-14-35s57.77-35.51,67.78-46.81-10.69-11.32-34.95-.25-27.56,40.62-66.48,59.25-97.45-45.93-97.45-45.93c31-1.58,75.29-35.25,73.69-45.55s-75.17,17.77-87.75,19.12-41.18-14.3-45.61-65,78.61-64.79,78.61-64.79,82.39,61.26,98.45,57.55-60.21-66.14-60.21-66.14c28.7-13.8,117.92-5.14,117.92-5.14s29.73,95.84,44.38,88.28-30.64-83.51-30.64-83.51C2123.2,1196.19,2148.17,1206.64,2162,1213.53Z"/><path class="cls-31" d="M2134.38,1303.18q-2,5.83-4.06,11.68c-35.07-19.21-103.51-37.89-236.47-42.24C1893.85,1272.62,2054.24,1266.43,2134.38,1303.18Z"/><path class="cls-24" d="M138.09,1345q-3.34-4.61-6.64-9.31c-12.26-17.42-24.13-35.57-35.39-54.39.93-35.07-.82-69.53-.82-69.53s117.47-56.5,163.57-52c0,0-72.87,123.42-49.07,120.45s105.58-127.88,105.58-127.88S435.77,1130,455.1,1201.33s-11.9,107.07-29.74,111.53S293,1315.83,296,1330.7s80.29,38.66,123.42,25.28c0,0-47.59,117.47-110,111.53-56.5-5.38-77.71-37.54-109.86-45.82q-12.42-14.07-24.74-29.11-2.79-3.39-5.57-6.84-11.53-14.34-22.83-29.5Z"/><path class="cls-31" d="M146.38,1356.24c49.12-37.19,128-81.76,253.64-132.58-3.41,1.1-159,51.89-261.93,121.3Z"/><path class="cls-32" d="M2194.13,1068.22q-7.3,43.62-17.55,87.9c-39.94-.27-84.06-9.51-114.34-21.78-59-23.9-29.08-36.27,9.12-58.25C2106.72,1055.74,2167.46,1071.5,2194.13,1068.22Z"/><path class="cls-32" d="M2208.14,956.88q-.79,9.27-1.71,18.58-3.63,37-9.39,74.58c-9.83-4.86-25.57-9.2-44-11.16-41.48-4.4-69.47,32.72-136.68,26.82s-94.63-139.42-94.63-139.42c43,22.57,129.43,12.49,135.48-2.66s-115.35-35.92-133.35-44.12-44.07-52-9.69-123.76,157.41-24.63,157.41-24.63S2133.71,879.18,2158.3,887s-28.41-137-28.41-137c20.46,1.76,51.68,16.83,81.35,33.94A1290.64,1290.64,0,0,1,2208.14,956.88Z"/><path class="cls-24" d="M1968,790.09c2.27,1.22,144.05,78.17,240.1,166.79q-.79,9.27-1.71,18.58C2161.32,927.21,2087.4,866.06,1968,790.09Z"/><rect class="cls-5" x="197.36" y="1598.27" width="1987.87" height="9.19" rx="2.97"/></g></g></svg>