<svg xmlns="http://www.w3.org/2000/svg" viewBox="0 0 2726.85 1285.81"><defs><style>.cls-1{fill:#fcecdb;}.cls-2{fill:#e8c6a7;}.cls-3{fill:#c48e6a;}.cls-4{fill:#efcbab;}.cls-5{fill:#f99746;}.cls-6{fill:#db6f26;}.cls-7{fill:#ffa969;}.cls-8{fill:#ed7d2b;}.cls-9{fill:#f8fbff;}.cls-10{fill:#a8d29f;}.cls-11{fill:#f9ddbf;}.cls-12{fill:#82b378;}.cls-13{fill:#fcc191;}.cls-14{fill:#ffb27d;}.cls-15{fill:#2c3a64;}.cls-16{fill:#35488b;}.cls-17{fill:#ffb93e;}.cls-18{fill:#ffa412;}.cls-19{fill:#ea9c68;}.cls-20{fill:#fff;}.cls-21{fill:#2b478b;}.cls-22{fill:#233862;}.cls-23{fill:#f1a34f;}.cls-24{fill:#aa443e;}.cls-25{fill:#ed985f;}.cls-26{fill:#d35c2b;}.cls-27{fill:#79c8cc;}.cls-28{fill:#63c1c6;}.cls-29{fill:#e8945b;}.cls-30{fill:#c65447;}.cls-31{fill:#b5453c;}.cls-32{fill:#5153a0;}.cls-33{fill:#f2a672;}.cls-34{fill:#9e3530;}.cls-35{fill:#2e3552;}.cls-36{fill:#6bb7bf;}.cls-37{fill:#8ad8db;}.cls-38{fill:#ed9f4a;}.cls-39{fill:#ffb278;}</style></defs><title>parentingAsset 1</title><g id="Layer_2" data-name="Layer 2"><g id="Слой_2" data-name="Слой 2"><path class="cls-1" d="M2709,939.37q-.16,8.55-.55,17t-1,16.6a720.61,720.61,0,0,1-12,89.08c-.29,1.47-.58,2.93-.88,4.38l-.16.82q-1.22,5.9-2.47,11.69-2.31,10.41-4.79,20.44c-.31,1.22-.62,2.44-.92,3.66-4.41,17.44-9.19,33.93-14.12,49.28-.82,2.57-1.63,5.1-2.46,7.59-2.23,6.74-4.48,13.24-6.7,19.51q-2.4,6.69-4.78,13h0c-8.5,22.59-16.67,41.35-23.28,55.48-6.74,14.43-12.46,26.29-14.84,31.2l-1.18,2.44s-2460.43.38-2460.56.29c-127.9-97.56-76.55-287.88,82.91-428.94,119.48-105.69,215-133.29,152.26-355.06-17.72-62.67-13.5-119.14,4.07-169.16C453.22,170.19,642.87,76.51,693.21,55.57q7.35-3,14.89-5.93c17.66-6.75,36-12.74,55-18Q779.28,27.1,796,23.3q10-2.31,20.27-4.36A955.19,955.19,0,0,1,938.33,2.8Q949.12,2.05,960,1.5,974.54.77,989.15.39,1002.7,0,1016.25,0h5.2q12.45,0,24.88.27,20.72.44,41.35,1.54l3.47.2q13.33.74,26.55,1.76c2.74.2,5.48.42,8.2.65a1246.29,1246.29,0,0,1,151.52,21.84A829.92,829.92,0,0,1,1395.5,59.93h0l.09,0q24.21,9,46.21,18.92c2.29,1,4.55,2.07,6.8,3.11a658.34,658.34,0,0,1,145.3,91.92q17.64,14.67,33.34,29.48c1.45,1.35,2.88,2.72,4.3,4.08q4.86,4.59,9.54,9.21,2.17,2.12,4.3,4.26c9.24,9.2,18,18.32,26.4,27.3q6.36,6.83,12.43,13.48c22.2,24.39,41.74,47.3,60.32,66.93,2.35,2.49,4.69,4.91,7,7.29,31.89,32.61,61.57,54.73,98,57.11,22.81,1.49,49.38-2.35,79.31-8.16,3-.57,5.93-1.17,9-1.78,39.14-7.91,83.71-18.53,132.77-24.87q9.38-1.23,19-2.21,3.54-.37,7.11-.7c56.19-5.17,117.74-3.59,183.39,14.29q10.42,2.83,21,6.24a497.49,497.49,0,0,1,53.12,20.61q4.48,2,9,4.19,20.55,9.82,41.52,22.14,4.35,2.55,8.71,5.23,21.36,13.08,43.12,29l1.06.79q9.41,6.9,18.87,14.41,11,8.75,22.18,18.3,27,23.15,54.55,51.3,19.86,20.39,36.75,41.3,11.61,14.37,21.86,28.9c1.24,1.74,2.45,3.48,3.65,5.22a529.89,529.89,0,0,1,31.39,51.58c1.16,2.15,2.29,4.32,3.38,6.45a516.71,516.71,0,0,1,30.46,72.06c.69,2,1.34,4,2,6q5.25,16.23,9.35,32.39c1.1,4.38,2.16,8.77,3.14,13.15.74,3.18,1.43,6.34,2.09,9.52h0q2.24,10.72,4,21.41A593.67,593.67,0,0,1,2709,939.37Z"/><path class="cls-2" d="M650.21,1094.1l-9.8,37.14h0l-40.81,154.56h-4.3l23.59-128.23c0-.13.06-.25.08-.39l11.67-63.42Z"/><path class="cls-3" d="M650.21,1094.1l-9.8,37.14h0c-.56.28-18.41,9.5-21.44,25.94l11.67-63.42Z"/><path class="cls-2" d="M843,1285.81h-4.3L805.42,1159.9v0l-7.57-28.63h0L788,1094.1l19.58-.33L814.3,1130l5,27.16c0,.14.06.26.08.39Z"/><path class="cls-3" d="M814.3,1130c-3.61,5.26-8.6,15.14-8.88,29.85l-7.57-28.63h0L788,1094.1l19.58-.33Z"/><rect class="cls-4" x="545.01" y="1058.62" width="337.01" height="38.8" rx="7.91"/><path class="cls-5" d="M2432.66,1024s48.29-196.72,51.77-213.25c1.55-7.37,6.34-10,11.16-10.72-8.48-.87-14.66-.93-14.66-.93-16.71,0-31.55,11.95-36.92,29.73-11.69,38.76-57,103.65-78.82,176.46C2366.29,1005.27,2432.66,1024,2432.66,1024Z"/><path class="cls-5" d="M2147.31,1198c7.7,49.35,58.06,80.77,109.71,80.77h102.31l-7.2-284s-98.42-34.9-122.93-5.1c-21.48,26.11-79.72,129.46-82.79,190.64A87,87,0,0,0,2147.31,1198Z"/><path class="cls-6" d="M2418.89,1021.59s-138-70.44-164.15-24.42c-13.88,24.43-52.07,121.9-54.9,183.07-2.74,59.44,48.76,98.52,101.73,98.52h94.08Z"/><path class="cls-7" d="M2392.94,1060.66c1.16,6,12.33,11.54,28.92,16.46,2.92.87,6,1.71,9.24,2.54,56.44,14.41,156.4,22.46,165.92,18.21,13.17-5.87,94-293,94-293s-77.14-2.9-138.4-4.31c-21-.48-40-.78-53.57-.74a32.66,32.66,0,0,0-4.65.32,22,22,0,0,0-13.63,7c-9.86,10.6-12.3,31.54-21.44,54.68-9,22.88-20.11,51.43-30.62,79.77-2.7,7.31-5.38,14.59-8,21.77-.73,2-1.46,4-2.18,6C2403,1012.86,2391.06,1051,2392.94,1060.66Z"/><path class="cls-6" d="M2147.31,1198c7.7,49.35,58.06,80.77,109.71,80.77h50.18C2273.74,1256.08,2243.48,1186.18,2147.31,1198Z"/><path class="cls-7" d="M2227.87,1234.57c19.75,27.44,50,45,83.78,44.48l145.06.07,69.5,0L2448,1021.63s-197.91-19.69-222.32,6.57c-11.33,12.19-17.69,67.39-21.25,123C2202.44,1182.61,2211.57,1211.94,2227.87,1234.57Z"/><path class="cls-5" d="M2227.87,1234.57c19.75,27.44,50,45,83.78,44.48l145.06.07c-17.07-14.33-70.75-55-128.23-53.06C2284.91,1227.51,2250.31,1226.89,2227.87,1234.57Z"/><path class="cls-5" d="M2348.08,1200.57c8.3,47.86,53.82,78.19,100.48,78.19h94.08l-7.36-287.62s-89.76-31.33-112.31-1.53c-19.75,26.11-73.31,129.46-76.13,190.64A92.69,92.69,0,0,0,2348.08,1200.57Z"/><path class="cls-6" d="M2348.08,1200.57c8.3,47.86,53.82,78.19,100.48,78.19h75.29C2488.61,1254.88,2441.16,1188.88,2348.08,1200.57Z"/><path class="cls-8" d="M2709,939.37q-.16,8.55-.55,17t-1,16.6a720.61,720.61,0,0,1-12,89.08c-.29,1.47-.58,2.93-.88,4.38l-.16.82q-1.22,5.9-2.47,11.69-2.31,10.41-4.79,20.44c-.31,1.22-.62,2.44-.92,3.66-4.41,17.44-9.19,33.93-14.12,49.28-.82,2.57-1.63,5.1-2.46,7.59-2.23,6.74-4.48,13.24-6.7,19.51q-2.4,6.69-4.78,13h0c-8.5,22.59-16.67,41.35-23.28,55.48-6.74,14.43-12.46,26.29-14.84,31.2-6.15-.06-12.44-.13-18.54-.21l-5.43-.07v0h-95.58c-.89,0-1.79,0-2.69-.08l-1.78-.08-2.12-.13c-42.35-3.19-82-31.08-91.57-73.94-.16-.68-.3-1.36-.43-2a93.23,93.23,0,0,1-1.64-22.53c.8-17.39,4.45-37.73,9.58-58.49v0c3.67-14.81,8.08-29.85,12.76-44.19,6.91-21.21,14.41-40.91,20.86-56.14a265.33,265.33,0,0,1,11.69-24.77c7.26-12.79,23.09-16.6,42.21-15.44,3.75.23,7.63.65,11.58,1.23q1,.13,2,.3l.49.08c5.6.9,11.35,2.12,17.15,3.56,4.51,1.11,9,2.36,13.56,3.71,10.15,3,20.17,6.55,29.45,10.11q4.95,1.89,9.57,3.77c5.94,2.41,11.44,4.77,16.31,6.92a.52.52,0,0,1,.13.06l3.55,1.58.18-.6.36-1.19q1.76-5.87,3.5-11.72c.1-.34.21-.68.31-1,20.28-67.87,39.77-132.76,50.7-169.06a43.32,43.32,0,0,1,16.64-23.42c.51-.35,1-.69,1.55-1h0a36.24,36.24,0,0,1,3.87-2.09c.45-.21.9-.4,1.35-.59.94-.39,1.9-.74,2.87-1.05a33.8,33.8,0,0,1,4.46-1.11,35,35,0,0,1,6.16-.55l2,.05c.74,3.18,1.43,6.34,2.09,9.52h0q2.24,10.72,4,21.41A593.67,593.67,0,0,1,2709,939.37Z"/><path class="cls-5" d="M2697.18,808.47h0a18.8,18.8,0,0,0-.57,2.07c-3.49,16.54-51.77,213.26-51.77,213.26l-17.45-4.95c-11.32-3.19-24.28-6.81-26.06-7.15l-.18,0c21.81-72.81,43.35-144.3,55-183.06a43.13,43.13,0,0,1,16.64-23.33c.51-.35,1-.69,1.55-1h0a33,33,0,0,1,3.87-2.09c.45-.21.9-.4,1.35-.59.94-.39,1.9-.74,2.87-1.05a33.8,33.8,0,0,1,4.46-1.11,35,35,0,0,1,6.16-.55l2,.05C2695.83,802.13,2696.52,805.29,2697.18,808.47Z"/><path class="cls-9" d="M1441.83,78.89v607H763.12V31.62Q779.28,27.1,796,23.3q10-2.31,20.27-4.36A955.19,955.19,0,0,1,938.33,2.8Q949.12,2.05,960,1.5,974.54.77,989.15.39,1002.7,0,1016.25,0h5.2q12.45,0,24.88.27,20.72.44,41.35,1.54l3.47.2q13.33.74,26.55,1.76c2.74.2,5.48.42,8.2.65a1246.29,1246.29,0,0,1,151.52,21.84A829.92,829.92,0,0,1,1395.5,59.93h0l.09,0Q1419.83,68.93,1441.83,78.89Z"/><path class="cls-10" d="M1395.53,59.94V274.78s-154.11-19.52-174.82-92.8c-16.74-59.25-49.11-73.71-103-99.83-8.32-4-17.16-8.33-26.55-13.15q-7.47-3.8-15.4-8.08c-34.65-18.71-51.52-41.33-59.5-60.91h5.2q12.45,0,24.88.27,20.72.44,41.35,1.54l3.47.2q13.33.74,26.55,1.76c2.74.2,5.48.42,8.2.65a1246.29,1246.29,0,0,1,151.52,21.84A829.92,829.92,0,0,1,1395.5,59.93Z"/><path class="cls-10" d="M816.23,322.17s101.82,34.25,108.19,158.1,127.44,46.53,135.4,179.18H816.23Z"/><path class="cls-11" d="M1448.63,661.31V82c-2.25-1-4.51-2.08-6.8-3.11q-22-9.93-46.21-18.92l-.09,0V659.45H1117.7V3.77q-13.21-1-26.55-1.76V659.45H816.23V18.94Q806,21,796,23.3q-16.68,3.81-32.84,8.32V659.48A59.16,59.16,0,0,0,705,718.63h0a.3.3,0,0,0,.3.29h787.43a.29.29,0,0,0,.3-.29h0A59.21,59.21,0,0,0,1448.63,661.31Z"/><path class="cls-5" d="M989.15.39C982.53,96,963,259.2,905.58,404.82c-23.11,58.57-52.35,114.3-89.35,161.67a423.66,423.66,0,0,1-53.11,56.84c-32.07,28.37-68.63,51-110.3,65.85,0,0-32-8.66-70.91-29.53-47-25.23-104.08-68.33-126.43-135.54A190.74,190.74,0,0,1,445.85,466s37.87-37.2,85.53-96.39c63.9-79.35,145.38-198.22,176.72-319.94,17.66-6.75,36-12.74,55-18Q779.28,27.1,796,23.3q10-2.31,20.27-4.36A955.19,955.19,0,0,1,938.33,2.8Q949.12,2.05,960,1.5,974.54.77,989.15.39Z"/><path class="cls-8" d="M823.09,257.06C816.87,316.13,695.37,599,581.91,659.65c-47-25.23-104.08-68.33-126.43-135.54,0,0,197.85-30.32,289.73-220.59S830,192,823.09,257.06Z"/><path class="cls-8" d="M763.12,31.62Q779.28,27.1,796,23.3c-8.72,26.07-19.57,54.9-32.84,84.63C718,208.94,644.91,320.35,531.38,369.58c63.9-79.35,145.38-198.22,176.72-319.94C725.76,42.89,744.15,36.9,763.12,31.62Z"/><path class="cls-12" d="M613.51,914.14s-24.63-23-6-41.46c0,0,14-10.7,26.22-11.32,0,0-14.07,30.88-8.16,33.14S638.81,859,638.81,859s33.66-7.06,45.18-3c0,0-26.45,27-20.17,27.75s35.11-26.09,35.11-26.09,32.26,1.89,32.71,21.39-9.8,26.67-14.66,26.69-34.08-7.59-34.26-3.6,18.13,15,30,14.27c0,0-19.6,27.08-35.22,21.62s-18.13-16.59-27.85-19.79-17.61-2.32-13.31,1.57,21.49,6.22,27.82,15,11.76,14.55-3.84,13.94-41.8-9.08-44.32-21.82Z"/><path class="cls-12" d="M716.14,881.25s-86.36,6.2-102.63,32.89c0,0-2.81,13-14.47,25.93l-1.41,5.71s13.17-17.36,18.39-18.9C616,926.88,604.31,897.33,716.14,881.25Z"/><path class="cls-12" d="M599,940.07s-16.95,15.69-15.53,40.22l3.38-.07s3.11-25.87,12.67-36.91S599,940.07,599,940.07Z"/><path class="cls-10" d="M533.71,890.57s32.55-23.26,13.44-47.84c0,0-14.74-14.76-29.08-17.39,0,0,11.75,38.5,4.45,40.25s-10-43.85-10-43.85S474,808.2,459.84,811.18c0,0,26.91,35.89,19.41,35.78S442,810.81,442,810.81s-38.24-2.8-41.8,20.07,7.38,32.9,13.09,33.67,41.27-3.62,40.86,1.11-23.65,14.79-37.53,12.11c0,0,18.85,34.9,38.07,30.9s23.91-16.69,35.84-18.94,21.07,0,15.41,3.91-26.25,4-35.05,13.31-16.1,15.29,2.35,17,50.58-4.19,55.52-18.78Z"/><path class="cls-12" d="M418.09,835.93s100.63,20.71,115.62,54.64c0,0,1.28,15.78,13,32.75l.76,6.94s-12.78-22.47-18.69-25.09C528.77,905.17,547.13,872.23,418.09,835.93Z"/><path class="cls-12" d="M546.7,923.32s17.49,21.09,12,49.73l-4-.61s.36-30.91-9.17-45.39S546.7,923.32,546.7,923.32Z"/><path class="cls-10" d="M585.94,857.67S537.38,837.12,554.87,800c0,0,14.72-23.23,32.41-30.74,0,0-4,52.91,5.86,53s.24-59.28.24-59.28,45.61-28.5,64.71-28.76c0,0-24.28,53.92-14.66,51.62s37.5-57.23,37.5-57.23,48.38-14.61,59.54,13.78,0,44.44-7.13,47.08-54.14,7.23-52.25,13.19,34.69,12.21,51.76,4.77c0,0-14.18,50.33-40.06,50.72s-35.57-14.58-51.56-14.05-27.1,6.08-18.7,9.48,34.91-2.45,48.92,7,25.12,15,1.88,22.54-66.27,9.18-76.83-8.17Z"/><path class="cls-12" d="M718.92,754.08s-123.47,55.63-133,103.59c0,0,2.91,20.67-7.27,45.87l1,9.14s10-32.58,16.82-37.66C596.5,875,563.39,838,718.92,754.08Z"/><path class="cls-12" d="M578.67,903.54s-16.43,32.17-1.14,67.43l4.93-1.93s-9.37-39.66-1.28-61S578.67,903.54,578.67,903.54Z"/><path class="cls-5" d="M605.43,1048a90.13,90.13,0,0,0,79.68-99.49L505.94,968.34A90.12,90.12,0,0,0,605.43,1048Z"/><path class="cls-13" d="M627.4,1044.89a90.16,90.16,0,0,1-110.54-77.76l22.25-2.46A90.15,90.15,0,0,0,627.4,1044.89Z"/><path class="cls-5" d="M696.76,1042.53l-181.65,20.09h0a11.13,11.13,0,0,1,9.83-12.28l159.55-17.64a11.11,11.11,0,0,1,12.27,9.83Z"/><rect class="cls-5" x="502.58" y="958.47" width="185.28" height="2.76" transform="translate(-101.9 71.24) rotate(-6.31)"/><path class="cls-14" d="M2011.86,878.44l-34,17.39-6.82-23.6s4.34-8.17,6.3-21.54a90.1,90.1,0,0,0,.7-19.43l27.71,14.19a52.19,52.19,0,0,0-1.1,6.35,46.24,46.24,0,0,0,.48,14.83C2006.12,871.12,2008.13,875.41,2011.86,878.44Z"/><path class="cls-14" d="M2089.61,756.08c-2.81-1.08-6.26,10.8-8.42,11.23s-1.3-3.24-3.23-3.81-2.82,9.64-1.31,13.58a24.34,24.34,0,0,1,1.3,8.61s-12.85,49.62-15.61,55.18-48.05,45.94-48.05,45.94l10,32.18s53.34-49.29,57.89-60.88,6.6-71.1,6.6-71.1a62,62,0,0,0,4.86-17.21C2094.46,761.16,2092.42,757.16,2089.61,756.08Z"/><path class="cls-14" d="M1951.14,883.24s-31.39-40.64-46.67-53.26c0,0-20.89-51.53-22.59-54.92a1.81,1.81,0,0,0-.3-.41,27.16,27.16,0,0,1-.16-9.47c.92-4.65-2-15.81-4.06-14.8s-.37,4.91-2.84,4.85-8.6-12.56-11.5-10.82-4.4,6.55-1.78,16a68.18,68.18,0,0,0,8.23,17.44l-.14.08S1877,828,1885.1,842.82s33.2,64.68,50.91,66.53S1951.14,883.24,1951.14,883.24Z"/><path class="cls-15" d="M1923.22,1253.84a18.09,18.09,0,0,0,5,13.39,19.67,19.67,0,0,1,6.11,12.46,4.61,4.61,0,0,1-7.06,4.23l-33.7-21.32a5.74,5.74,0,0,1-1.45-8.39c1.83-2.33,3.93-5.08,5.46-7.23,3.32-4.71,10.68-5.55,10.68-5.55Z"/><path class="cls-15" d="M2017.19,1225.89a18,18,0,0,0-.24,14.3,19.65,19.65,0,0,1,1.11,13.83,4.61,4.61,0,0,1-8.12,1.34l-23.53-32.2a5.73,5.73,0,0,1,1.72-8.33c2.56-1.5,5.53-3.28,7.74-4.73,4.82-3.16,12-1.24,12-1.24Z"/><path class="cls-16" d="M2075.44,1156.06c-5,18.58-55.74,78.62-55.74,78.62s-23.59-15.73-23.59-27.88c0,0,25.73-53.6,25.73-60,0-1.53-3.48-7.66-8.75-16.2-9.09-14.75-23.51-36.72-34.67-54.82-9.56-15.55-16.71-28.23-16-31,2.15-7.85,74.84-21.61,74.84-21.61S2080.44,1137.48,2075.44,1156.06Z"/><path class="cls-15" d="M2013.09,1130.57c-9.09-14.75-23.51-36.72-34.67-54.82,1.37-22.67,7.77-42.5,19.92-42.5,30.36,0,25.76,2.3,25.76,2.3S2032,1102.62,2013.09,1130.57Z"/><path class="cls-16" d="M1990.45,1037.85s6.63,124.67-3.81,140.31-56.38,81.88-56.38,81.88-35.94-9.2-34-20.24c0,0,38.66-74.6,38.62-84.72s-18.38-101.59.94-117.23S1990.45,1037.85,1990.45,1037.85Z"/><path class="cls-17" d="M2040.13,908.41c.19-2.83,17.22-14.33,17.22-14.33,3.58-21.51-10.1-37-10.1-37l-20.51,14.59c-4,.23-5.66,1.68-5.66,1.68-3.4-.92-12.87,0-12.87,0,.15,4.89-1.8,9.35-10.38,10.47-11.42,1.49-21.63-6.3-26.8-11.6a43.36,43.36,0,0,0-15.59,2.23,23.23,23.23,0,0,0-8.68-2.28L1930,857.09s-19.67,5.68-22.77,35.32c0,0,22.08,16.8,23.68,30.08h0l.6,5,2.14,17.83,3.77,31.27-11.21,62.27a9.07,9.07,0,0,0-.15,1.63,9.17,9.17,0,0,0,7,8.91s1,.16,2.74.41c11.88,1.67,60.14,7.42,98-2.85a18.37,18.37,0,0,0,13.41-19.23l-8-100.46h0S2039.94,911.24,2040.13,908.41Z"/><path class="cls-18" d="M1951.11,1002.82c-.75,21.72-2.88,40.14-15.31,47-1.78-.25-2.74-.41-2.74-.41a9.17,9.17,0,0,1-7-8.91,9.07,9.07,0,0,1,.15-1.63l11.21-62.27-3.77-31.27c.19-.55.28-.84.28-.84S1952.06,975,1951.11,1002.82Z"/><path class="cls-19" d="M2005.12,866.63c-15.76-.42-27.79-15.94-27.79-15.94l27.31,1.11A46.24,46.24,0,0,0,2005.12,866.63Z"/><path class="cls-14" d="M2012.76,857.85s-31.43,8.3-42.27-16.7c-11.71-27,1.13-46.63,11.81-48,21.28-2.64,33.65,5.47,37.39,14.06S2030.11,853.42,2012.76,857.85Z"/><path class="cls-20" d="M2000.3,843.77s1.32,3.25,9.61,1.43c0,0,7-1.53,6.17-5.2C2016.08,840,2008.86,838.43,2000.3,843.77Z"/><path class="cls-15" d="M1976.1,849.89s-3.69-10.81-3.25-16.59c0,0-8.2-10.46-3.42-13s7.36,3.6,8.45,2.39,2.81-21.77,8.61-21.12,27.28,7.3,36.69-.82-13.42-39.84-52.13-27.58S1940.25,828.4,1976.1,849.89Z"/><path class="cls-15" d="M1952,790s-1.75-5.23.13-9c0,0,.09,5.14,2.11,7.43S1952,790,1952,790Z"/><path class="cls-15" d="M1952.76,786.34s-4.78-.55-7,3.14a6.16,6.16,0,0,1,6.78.13Z"/><path class="cls-14" d="M362.11,1255.74l-18.42,9.54a308.82,308.82,0,0,1-20.86-31.69c-6.89-12.13-13.21-25.75-14.76-36.9-3.76-27.08-32.43-71.58-29.45-79.16s59.84-20.69,59.84-20.69,11.11,76.09,18.5,125.27C359.12,1236.46,361,1248.53,362.11,1255.74Z"/><path class="cls-21" d="M348.08,1149.51a117.58,117.58,0,0,1-28.69,9.68,92.46,92.46,0,0,1-26.06,1.63c-1.54-.16-2.36-.3-2.36-.3s-10.23-7.37-22.08-24.54C258,1120.24,250,1097.72,250,1097.45l86.81-8.45Z"/><path class="cls-22" d="M319.39,1159.19a92.46,92.46,0,0,1-26.06,1.63l9.75-37.91S315.72,1142.65,319.39,1159.19Z"/><path class="cls-23" d="M362.11,1255.74l-18.42,9.54a308.82,308.82,0,0,1-20.86-31.69A72.94,72.94,0,0,0,357,1222.11C359.12,1236.46,361,1248.53,362.11,1255.74Z"/><path class="cls-14" d="M320.26,1114.22s-23.28,32.84-37.37,79c-3.32,10.87-14.62,24.41-26.05,36.43-11.08,11.68-22.28,21.93-26.42,27l-18.76-9A250.4,250.4,0,0,1,228,1211.51a101.93,101.93,0,0,1,12-17.35c6-6.69,4-91.14,10-96.71S320.26,1114.22,320.26,1114.22Z"/><path class="cls-21" d="M331.34,1094.68,297,1164.51c-.2,0-25.61.79-43.65-9.31-10.35-5.79-15-12.64-15-12.64l10.71-47.88Z"/><path class="cls-24" d="M269.8,861.5s-11.68-24.57-39.92-10-.74,70.4-15.56,84.18,5.37,22.79,2.36,32.67,5.59,21.11,25.34,19.79,40.56-.26,49.49-17.54,6.9-55.31,3.45-60.66S269.8,861.5,269.8,861.5Z"/><path class="cls-14" d="M267.46,963.61l.09,0C267.47,963.7,267.46,963.61,267.46,963.61Z"/><path class="cls-14" d="M315.55,992.63l-48-29c.26-.11,1.23-1.55,4.82-11.94a57.73,57.73,0,0,0,2.74-11.31c0-.31.08-.6.11-.89a30.93,30.93,0,0,0,.13-7l10.52,3.8,19.45,7c-.23,4.93.46,8.4,1.51,10.78,2.54,5.78,7.27,5.82,7.41,5.82Z"/><path class="cls-25" d="M306.83,954.17a36.07,36.07,0,0,1-31.72-13.76l-.52-.7.63-.19,10.65-3.18,19.45,7C305.09,948.32,305.78,951.79,306.83,954.17Z"/><path class="cls-14" d="M307.77,947.42S266,952,265.16,923.77s-7-41.16,21.86-43.68,35.72,7.89,37.43,17.45C329.77,927.38,319.54,946.15,307.77,947.42Z"/><path class="cls-26" d="M229.88,851.55c-.58-1.3-1-2.15-1-2.15A6.87,6.87,0,0,1,229.88,851.55Z"/><path class="cls-14" d="M417.59,843.16c-1.58-.92-4.36-.79-7.92.14a47.42,47.42,0,0,0-8.85,3.69c-.26,0-.39.14-.66.27-7.47,4.06-7.26,23.09-7.26,23.36-4.79,3.9-23.12,41.07-27.38,51.25s-44.32,41-44.32,41l10.06,33.81c11.95-6.08,48.37-47.94,56-60.29s18.5-53.25,17.07-60.14a.19.19,0,0,0,0-.07c.15-.25,1-1.72,2.35-3.65,2.25-3.44,5.81-8.72,8.06-11.36,1.71-2,3.16-5.81,3.83-9.37C419.31,847.79,419,844,417.59,843.16Z"/><path class="cls-24" d="M289.27,893.88c-14.78-3.74-9.13,22.45-12.86,20.65-4.18-2-11.36-2-10.23,3.07s2.77,6.85,3.62,10,0,9.39-3.44,8.13S231,898,253.53,869.55s89.85-10.91,68.67,18.82C318.47,893.6,299.79,896.55,289.27,893.88Z"/><path class="cls-5" d="M342.9,1105s-12.55,6.66-32.3,6.35c-12.59-.19-39.32-5.66-56.5-11.87-9.8-3.52-16.49-7.29-15.68-10.45,1.15-4.56,9.54-39.57,17.29-72,7.09-29.61,13.64-57,13.64-57s19.56,13.9,31,9,9.93-10.45,9.93-10.45,7.46-3,11-1.9,13.42-4.52,13.42-4.52,11,8.47,11.38,26.66a51,51,0,0,1-.57,8.73l-7.91,9.12S354.3,1049.55,342.9,1105Z"/><path class="cls-24" d="M392.61,1278.35h-55a69.71,69.71,0,0,1,.21-16.59,4.7,4.7,0,0,1,1.36-2.51,19.86,19.86,0,0,0,13.21,0,27.28,27.28,0,0,0,9.73-6c.57.55,11.93,11.38,17.18,11.38S392.92,1267.14,392.61,1278.35Z"/><path class="cls-23" d="M256.84,1229.64c-11.08,11.68-22.28,21.93-26.42,27l-18.76-9A250.4,250.4,0,0,1,228,1211.51,40.14,40.14,0,0,0,256.84,1229.64Z"/><path class="cls-24" d="M234.48,1251.76s-.68,11.94,3.3,13.52,11.39,5.5,11.39,13.07H221.63s-19-9.34-21.53-13.31,12.65-20.91,12.65-20.91S222.09,1254.45,234.48,1251.76Z"/><path class="cls-8" d="M254.1,1099.45c-9.8-3.52-16.49-7.29-15.68-10.45,1.15-4.56,9.54-39.57,17.29-72,2.29-4.2,3.75-6.7,3.75-6.7S274.16,1077.57,254.1,1099.45Z"/><path class="cls-14" d="M296.84,1058.56c-4.34-2.84-14.87-1.17-16.55-.88-6-3.51-23.08-15.39-31.18-22.35-1.78-1.52-1.71-4.72-.42-6.68,3.32-5.06,8.89-13.82,10.76-18.32,2.73-6.56,20.77-43.58,10.39-46.56,0,0-37.15,7.86-51.8,65.62a17.51,17.51,0,0,0,4,16c6.74,7.47,21.59,18.38,56.13,22.4,0,0,10.79,6.85,21.43.66C303,1066.48,301.55,1061.65,296.84,1058.56Z"/><path class="cls-5" d="M269.36,960s-21.84,1.56-39.65,25.3c0,0,6,21.85,34.31,27.68C264,1013,281.46,973.64,269.36,960Z"/><path class="cls-14" d="M1049.84,1036s-21.82,92.52-19.76,113.49c2.78,28.23,3.81,105,3.81,105h21.69s20.15-62.4,15.08-103c-2.73-21.89,49.68-118.13,49.68-118.13Z"/><path class="cls-16" d="M1125.48,1041.44l-23.8,59.77-13.34,33.5c-2.68.36-5.28.61-7.78.77-35.7,2.21-54.86-14.94-54.86-14.94l16-74.07Z"/><path class="cls-15" d="M1101.68,1101.21l-13.34,33.5c-2.68.36-5.28.61-7.78.77-7.67-49.18,20.12-64.78,20.12-64.78S1101.18,1085,1101.68,1101.21Z"/><path class="cls-14" d="M1076,1039.61s41.37,114,52.34,128.13,68.25,74,68.25,74l11.11-12.57s-6.32-26.19-17.21-47.78c-9-17.95-26.32-25.22-27.12-29.87-5.3-30.59-20.58-118.13-20.58-118.13Z"/><path class="cls-14" d="M1011.17,916.08S991,972.9,986.89,977.53,942,1012.59,942,1012.59l5.27,9.43s54-24.2,63-32.73,34.33-76.11,34.33-76.11Z"/><path class="cls-14" d="M942,1012.59a24.31,24.31,0,0,1-8.41,2c-4.19.09-13.26,4.74-12,6.3s4.31-.61,4.72,1.54-9.22,9.78-7.17,12,6.48,2.56,14.11-1.47a61.53,61.53,0,0,0,14-10.93Z"/><path class="cls-16" d="M1081,1051.2l23.78,80.43s47.27-7,63.18-30.75c0,0-12.89-61.92-25.24-67.54S1081,1051.2,1081,1051.2Z"/><path class="cls-14" d="M1113.34,921s39.54,45.55,41.56,51.37,8.41,56.37,8.41,56.37l10.8.06s5.5-58.92,2.49-70.92-49.37-67.34-49.37-67.34Z"/><path class="cls-16" d="M1098.63,801.13c.8-10.87-3.37-18.16-9.34-24.88-5.72-6.45-12.26-5.76-19.43-10.86-6.75-4.81-18.27-6.88-27-5.54-27.88,4.28-49.4,25.06-39.45,53.16,3.16,8.93,2.8,16.4,11.9,26,11.37,12,24.34,21,42.51,18.22,9.65-1.48,17.76-5,24.11-13.17,3.47-4.46,9.2-5.82,12.13-10.53C1100,824,1097.74,813,1098.63,801.13Z"/><path class="cls-14" d="M1035.22,880.46l37.47,12.42L1076,867.7s-5.71-7.66-9.81-21a93.12,93.12,0,0,1-3.77-19.73l-26.08,18.85a53,53,0,0,1,2.12,6.31,47.59,47.59,0,0,1,1.84,15.22C1039.93,872.08,1038.55,876.77,1035.22,880.46Z"/><path class="cls-27" d="M1039.29,1056.08c40.26,4.55,88.65-8.9,100.54-12.47,1.77-.53,2.73-.85,2.73-.85a9.47,9.47,0,0,0,5.78-10.21,9.79,9.79,0,0,0-.4-1.64l-21.24-61.85-1.06-32.54L1125,918l-1.39-42.35c-17.85-5.88-33.59-8.07-47.69-7.92-4.45,6.22-13.65,15.78-25.55,16-8.94.2-11-4.14-11.65-9.16-12.36,3.53-22.07,13.87-22.07,13.87l18,135.88C1035.32,1033.45,1030.23,1055.05,1039.29,1056.08Z"/><path class="cls-28" d="M1103.59,992.56c3.9,22.12,22.45,46,36.24,51,1.77-.53,2.73-.85,2.73-.85a9.47,9.47,0,0,0,5.78-10.21,9.79,9.79,0,0,0-.4-1.64l-21.24-61.85-1.06-32.54-.41-.8S1096.7,953.48,1103.59,992.56Z"/><path class="cls-29" d="M1040.25,867.33c16-2.9,25.89-20.65,25.89-20.65l-27.73,5.43A47.59,47.59,0,0,1,1040.25,867.33Z"/><path class="cls-14" d="M1037.22,857.84s36.24-1.13,33.15-26.3-20.41-39.13-30.28-37.43c-19.68,3.4-21.71,11.88-22.72,20.53S1020.58,858.59,1037.22,857.84Z"/><path class="cls-20" d="M1044.52,841.94s-.3,3.24-8.18,3.86c0,0-6.61.52-6.9-2.95C1029.44,842.85,1035.45,839.49,1044.52,841.94Z"/><path class="cls-16" d="M1031.32,795.7s30.39-4.69,26.62,17.25c-2.39,13.83,12.57,13.62,12.57,13.62l3.8-22.16-6.93-15.75Z"/><path class="cls-14" d="M1163.31,1028.7a24.36,24.36,0,0,1-2.37,8.32c-2,3.69-2.4,13.88-.43,13.56s1.59-4.06,3.67-3.36,4,12.85,6.88,12.14,5.42-4.39,5.66-13a61.41,61.41,0,0,0-2.61-17.58Z"/><path class="cls-27" d="M1076,867.7l6.82,9.59,6.62,9.31,35.41,49.82c3.16-5.69,29.36-20.26,29.36-20.26s-19.86-30.9-30.52-40.53c-3.07-2.77-8.31-4.6-14.23-5.8a112.55,112.55,0,0,0-15.19-1.88C1084.31,867.32,1076,867.7,1076,867.7Z"/><path class="cls-27" d="M1016.68,888.47,1001,923.79s13.48,15.51,28.48,12.63S1016.68,888.47,1016.68,888.47Z"/><path class="cls-16" d="M1032.33,1215.33s12,3.29,35.43,1.67c0,0-3.8,22-1.37,27.44s9.45,21-1.22,24.07c-8.45,2.42-45.59,2.15-60.66,1.94a12.81,12.81,0,0,1-11.92-8.37c-1.69-4.7-1-10.36,8.58-14l21.61-5.77C1035.15,1236.05,1032.33,1215.33,1032.33,1215.33Z"/><circle class="cls-15" cx="1060.45" cy="1272.78" r="7.54" transform="translate(-31.46 26.88) rotate(-1.43)"/><path class="cls-16" d="M1055.12,1272.78a5.33,5.33,0,1,1,5.33,5.34A5.32,5.32,0,0,1,1055.12,1272.78Z"/><path class="cls-15" d="M1000.71,1272.78a7.55,7.55,0,1,1,7.54,7.55A7.55,7.55,0,0,1,1000.71,1272.78Z"/><path class="cls-16" d="M1002.92,1272.78a5.34,5.34,0,1,1,5.33,5.34A5.33,5.33,0,0,1,1002.92,1272.78Z"/><path class="cls-16" d="M1165.12,1208.56s12.12-2.78,32-15.29c0,0,7,21.14,11.77,24.82s18.28,14.05,10.32,21.79c-6.3,6.12-39.15,23.47-52.52,30.41a12.82,12.82,0,0,1-14.47-1.74c-3.71-3.34-5.8-8.64.94-16.38l16.31-15.31C1177.42,1225.49,1165.12,1208.56,1165.12,1208.56Z"/><path class="cls-15" d="M1210.44,1249.44a7.54,7.54,0,1,1,10.21,3.08A7.54,7.54,0,0,1,1210.44,1249.44Z"/><path class="cls-16" d="M1212.38,1248.39a5.33,5.33,0,1,1,7.23,2.18A5.33,5.33,0,0,1,1212.38,1248.39Z"/><path class="cls-15" d="M1164.45,1274.14a7.55,7.55,0,1,1,10.22,3.08A7.55,7.55,0,0,1,1164.45,1274.14Z"/><path class="cls-16" d="M1166.4,1273.09a5.33,5.33,0,1,1,7.22,2.18A5.33,5.33,0,0,1,1166.4,1273.09Z"/><path class="cls-2" d="M1759.32,533.18l-16.71,178.3-50.81,542.23a14,14,0,0,1-15.42,12.58l-1.22-.12a14.89,14.89,0,0,1-13.14-16.59l69.56-571.66,17.75-145.84Z"/><path class="cls-6" d="M1772.35,1278.35,1578,1257h0a43.88,43.88,0,0,1,48.39-38.82l108.74,11.94a42.31,42.31,0,0,1,37.44,46.67Z"/><path class="cls-3" d="M1759.32,533.18l-16.71,178.3a290.24,290.24,0,0,0-11-33.56l17.75-145.84Z"/><path class="cls-5" d="M1867.47,653l-244.31-26.81a17.93,17.93,0,0,1-15-23.53l11.2-33.34,67.37-200.58a23.49,23.49,0,0,1,24.83-15.88l121.18,13.3,16.87,1.85a16.63,16.63,0,0,1,14.76,15.14l21.18,252.27A16.31,16.31,0,0,1,1867.47,653Z"/><path class="cls-8" d="M1868.75,653.18,1618,625.66a13.76,13.76,0,0,1-11.55-18.07l12.84-38.23C1778.48,523.8,1822,408,1832.7,366.2l16.46,1.81a17.13,17.13,0,0,1,15.21,15.6l21.25,253.13A15.26,15.26,0,0,1,1868.75,653.18Z"/><g id="girl_2" data-name="girl 2"><polygon class="cls-14" points="1361.36 1204.41 1362.77 1237.87 1393.12 1237.87 1393.82 1209.48 1361.36 1204.41"/><path class="cls-30" d="M1485.86,689.3c-1.1,4.52-4.24,14.23-9.12,15.59-10.84,3-7.89,8.53-14.26,13.2-2.23,1.65-10.49,6.72-14.15-4.67a11.19,11.19,0,0,1-.33-1.27c-14.29,6.35-92.8,19.84-95.48,20.28-13,2.15-19.69-8.61-19.22-12.67.91-7.89-3.63-16.57-3.63-16.57-.74,4.88-5,8.75-8.63,11.22a24.85,24.85,0,0,0-2.77-9.36c-3.7-7.68-2.61-13.06-1.38-15.9-16.83-19.9-23.19-43.11-25-52.19-5.42-26.9,13.8-45.75,25.3-56.79s.92-15.18,3.52-27.14,26.37-24.83,22.24-40.82-2.31-53,16.06-65.41,31.68-5.06,31.68-5.06c68.43-12,44.7,61.63,62.63,78.64s18.86,41.39,20.24,52.18,31.36,25.66,22.78,70.37C1494.44,652.76,1509.22,660.72,1485.86,689.3Z"/><path class="cls-14" d="M1459.09,779.64c-1.38-6.56-8-23.1-9.36-27.23s10.62-61.31,17.15-91.06-11.84-80-11.84-80-12.4-3-29.94-8.17a13.25,13.25,0,0,1-9.44-11.9c-.65-10.15,0-21.8,0-21.8l-38,.85c1.09,7.74.32,16.6-.64,23.82a10.52,10.52,0,0,1-7.88,8.81c-13.57,3.43-18.91,6.89-33.62,13.74,0,0,.21,1.58.6,4.48l-.28-.23s-.69,21.41-.23,48.93c.35,21.16,11.14,71.77,16.13,93.58a18.55,18.55,0,0,1-3.19,15.08,164.75,164.75,0,0,0-18.14,32.59S1460.47,786.19,1459.09,779.64Z"/><path class="cls-5" d="M1372.76,459.1s18.73-18.54,40.72.5C1413.48,459.6,1401.5,452.47,1372.76,459.1Z"/><path class="cls-31" d="M1398,480.3s16.1-.29,19.76,5.1,4.15,11.42,6,14.46a11.63,11.63,0,0,1,1.53,6.44s13.86-35.48-18.13-28.42C1404.83,478.39,1398,480.3,1398,480.3Z"/><path class="cls-32" d="M1249.65,697.83l.53-.16Z"/><path class="cls-29" d="M1378.16,548.52s7.5,17.39,19.83,16.35,17.39-16.74,17.39-16.74Z"/><path class="cls-14" d="M1419.93,543.9c-10.06,9.56-22.55,22.31-49.35-1.4-5.24-4.64-7.08-14.13-7.35-24.34-.34-12.09-1-17.12.36-24.08,1.63-8.33,8.77-12.08,23.57-13.32,27.16-2.28,38.37,3.77,39,17.35C1427.56,527.51,1430.16,534.18,1419.93,543.9Z"/><path class="cls-30" d="M1395.13,480.29s-7.24,18-23.8,24.22c0,0,10.7-8.62,11.9-17.93,0,0-14.31,18.06-21.55,19.72s.89-37,16.48-37.31S1395.13,480.29,1395.13,480.29Z"/><path class="cls-30" d="M1395.13,480.29s7.59.08,10.7,5.6,13.2,21.25,22,26.32c0,0,4.26-28.39-3.33-33.57S1395.13,480.29,1395.13,480.29Z"/><path class="cls-14" d="M1369.12,573l-8.71,61.33s-6.74,12.1-17.06,28.09c-7.31,11.3-16.4,24.56-26.18,36.84-1.75,2.21-3.53,4.39-5.32,6.51-14.78,17.55-30.59,31.85-43.83,33.45l-1.22.11-.63,0a36.67,36.67,0,0,1-13.29-2.48l-.76-.28a2.13,2.13,0,0,1-.33-.11c-27.77-10.43-63.06-45.58-63.06-45.58l.67-1.31,5.45-10.64c25.29,14.71,61.4,25.37,68.3,25.75,2.39.13,9.88-12.75,19-30h0c17.07-32.4,39.77-80.19,44.94-86,1.83-2.06,5-4,8.89-5.77C1348.87,576.93,1369.12,573,1369.12,573Z"/><path class="cls-14" d="M1195.88,679.51l-5.45,10.64-.67,1.31a46.88,46.88,0,0,0-6-4.66c-1.38-.85-2.71-1.44-3.6-1.31-4.7.64-15.64.92-20.73-11,0,0-5.27-12.71-2.3-14.26,8.27-4.31,11.86,5,15,6.39s12.27-.57,16.2,5.42A33.07,33.07,0,0,0,1195.88,679.51Z"/><path class="cls-14" d="M1605.94,690.86s-51.83,51.63-79.28,48.32c-12.47-1.51-27.24-14.3-41.28-30.46-1.22-1.42-2.45-2.86-3.67-4.33-25.41-30.56-47.44-70.1-47.44-70.1l-2.93-19.51-6.25-41.61s17,3.19,29.94,8.2c5.49,2.12,10.23,4.57,12.59,7.25,5.74,6.49,33,64.55,50.29,96,6.59,12,11.72,20.14,13.63,20,6.89-.38,43-11,68.29-25.75l5.76,11.26Z"/><path class="cls-14" d="M1634.27,675.2c-5.09,11.95-16,11.68-20.74,11a3,3,0,0,0-1.3.18h0l-.12,0a18.41,18.41,0,0,0-4.09,2.4c-2.19,1.61-4.07,3.35-4.07,3.35l-.35-.69-5.76-11.26a33.16,33.16,0,0,0,7.53-7.5c3.92-6,13.06-4,16.2-5.43s6.74-10.7,15-6.39C1639.54,662.49,1634.27,675.2,1634.27,675.2Z"/><path class="cls-5" d="M1463.38,680.82c-3.24,15.26-7.17,30.58-7.17,30.58s-18.72,11-54.14,9.92h0c-1.88-.06-3.8-.16-5.78-.29a204.06,204.06,0,0,1-48.68-9.63l-8.12-38.3-5.06-23.86,1.92-66.57s21,22.08,60.42,21.73,58.28-23,58.28-23,11.83,60.3,12.52,71.69C1467.86,657.92,1465.81,669.35,1463.38,680.82Z"/><path class="cls-33" d="M1405.51,737.83c0,2.25-1,4.08-2.25,4.08s-2.25-1.83-2.25-4.08,1-4.08,2.25-4.08S1405.51,735.58,1405.51,737.83Z"/><path class="cls-33" d="M1610,687.51c-2.18,1.61-4.06,3.35-4.06,3.35s-51.83,51.63-79.28,48.32c-12.47-1.51-27.24-14.3-41.28-30.46-1.22-1.42-2.45-2.86-3.67-4.33l3.79-6.63,19.41,2.12s16.93,14.9,22.9,25.47c4.81,8.51,56.84-22.55,77.78-35.18Z"/><path class="cls-33" d="M1634.27,675.2c-5.09,11.95-16,11.68-20.74,11a3,3,0,0,0-1.3.18h0l-.12,0s-2.36-5.86,11.44-9.65,13-15.87,13-15.87C1639.54,662.49,1634.27,675.2,1634.27,675.2Z"/><path class="cls-5" d="M1517.91,684.62a47.48,47.48,0,0,1-13,15.26,49.17,49.17,0,0,1-19.53,8.84,359.7,359.7,0,0,1-22-28.46c-16.82-23.91-29.11-46-29.11-46l-2.93-19.51L1455,581.37c5.49,2.12,10.23,4.57,12.59,7.25C1473.36,595.11,1500.65,653.17,1517.91,684.62Z"/><path class="cls-33" d="M1317.17,699.22c-1.75,2.21-3.53,4.39-5.32,6.51-14.78,17.55-30.59,31.85-43.83,33.45l-1.22.11-.63,0a38.65,38.65,0,0,1-13.29-2.48l-.76-.28a2.13,2.13,0,0,1-.33-.11c-27.77-10.43-63.06-45.58-63.06-45.58a45.48,45.48,0,0,0-6-4.66c2,.95,4.21,2.08,6.65,3.35,24.63,12.75,70.19,39.15,79,32.64,12.42-9.16,29-31.33,29-31.33Z"/><path class="cls-33" d="M1183.77,686.8c-1.38-.85-2.71-1.44-3.6-1.31-4.7.64-15.64.92-20.73-11,0,0-5.27-12.71-2.3-14.26,0,0,.8,12.67,10,15.07C1176.11,677.61,1183.42,686.38,1183.77,686.8Z"/><path class="cls-14" d="M1445,1020.22c-5.07,13.19-14,18.24-14,18.24a65.81,65.81,0,0,1-11.6,3.8c-6.12,1.63-12,3.29-16.49,8.06-7.3,7.79-.8,26.81-4.88,39.87s0,36.52,4.11,52.7,8.75-13.48,14.15-26.32c1.74-4.11,3.55-9.19,5.23-14.19,2.8-8.4,5.18-16.59,6.06-19.66,9.3-20.15,27.82-28.26,36.94-30C1450.06,1045.11,1447.46,1031.19,1445,1020.22Z"/><path class="cls-5" d="M1355.41,610.38a439.57,439.57,0,0,1-12.06,52c-1.74,2.69-3.58,5.49-5.51,8.36a407.66,407.66,0,0,1-26,35,45.13,45.13,0,0,1-18.13-10.12h0a37.87,37.87,0,0,1-11.61-21h0c17.07-32.4,39.77-80.19,44.94-86,1.83-2.06,5-4,8.89-5.77Z"/><path class="cls-8" d="M1337.84,670.74a407.66,407.66,0,0,1-26,35,45.13,45.13,0,0,1-18.13-10.12h0S1330.45,669.93,1337.84,670.74Z"/><path class="cls-8" d="M1504.91,699.88a49.17,49.17,0,0,1-19.53,8.84,359.7,359.7,0,0,1-22-28.46C1471.52,680.08,1504.91,699.88,1504.91,699.88Z"/><path class="cls-31" d="M1465.58,787.86c-1.36-1.77-15.85-35.45-15.85-35.45s-28.74,6.08-44.22,6.76-57-10.63-57-10.63c-10,9.38-16.2,25.88-18.9,34.36h0a26.53,26.53,0,0,0-1.56,5.28c-2.15,9.6-5.72,32.52-5.13,74.11.57,39.23,23.33,134.54,23.33,193.52,0,63.16,14.5,166.94,14.5,166.94s13,2.12,17.68,2.12a78.19,78.19,0,0,0,18.26-2.54s12.66-122.89,5.37-145.2c-1.55-4.76,0-21,2.71-43.64,4.67-38.72,12.83-96,14.94-145.75a.45.45,0,0,1,0-.11l.38.23h0c25.45,15.17,69.09,42.13,84.71,57.56l.81.83c-21.47,6.45-51.16,49-66.89,75.74,2.5,11,15.13,28.26,29.54,35.89,46.29-36.67,110.65-94.32,110.65-94.32C1572.42,926.45,1489.58,818.52,1465.58,787.86Z"/><path class="cls-8" d="M1396.29,721c-13.93-.92-33.77-4.71-52.26-10.61l-4.54-37.32C1346.2,682.55,1372.3,717.24,1396.29,721Z"/><path class="cls-8" d="M1463.38,680.26v.56a252.26,252.26,0,0,0-4.3,30.78s-21.59,10.83-57,9.72C1431.23,719.35,1463.38,680.26,1463.38,680.26Z"/><path class="cls-14" d="M1362.77,1237.87s-13.46,35.41-8.9,40.48h51.74l-12.49-40.48Z"/><path class="cls-34" d="M1504.83,945.42c-15.62-15.43-59.26-42.39-84.71-57.56,6.55,1.93,83.26,28.38,92.71,35.77C1523.83,932.22,1520.81,946.45,1504.83,945.42Z"/><path class="cls-34" d="M1419.73,887.42c0,.11,0,.21,0,.32-2.11,49.75-10.27,107-14.94,145.75-2.73-4.4-16.88-158.58-11.13-164.26C1398.94,864,1416.9,884.16,1419.73,887.42Z"/></g><path class="cls-11" d="M2301,375.87q-10.58-3.4-21-6.24c-65.65-17.88-127.2-19.46-183.39-14.29q-3.57.33-7.11.7-9.6,1-19,2.21L2126,600l215.1-49.35Z"/><path class="cls-1" d="M2317.86,534.47l-178,40.84L2089.53,356q3.54-.37,7.11-.7c56.19-5.17,117.74-3.59,183.39,14.29Z"/><rect class="cls-35" y="1278.35" width="2726.85" height="7.23" rx="3.09"/><path class="cls-36" d="M1004,632.46s-20.19,8.2-34.53-12.38C969.44,620.08,992.72,616.13,1004,632.46Z"/><path class="cls-36" d="M1005.39,624s1.41-7.21,9.87-7.46C1015.26,616.56,1012.08,623.86,1005.39,624Z"/><path class="cls-36" d="M1001.13,581.81s-9.78,1.05-13.45-9.67C987.68,572.14,998.28,573.32,1001.13,581.81Z"/><path class="cls-36" d="M977.91,440.05c19.74-4.23,20.08-20.38,20.08-20.38C974.74,427,977.91,440.05,977.91,440.05Z"/><path class="cls-36" d="M976.56,436.37s-12.32,5-21.08-7.56C955.48,428.81,969.69,426.4,976.56,436.37Z"/><path class="cls-36" d="M1003.58,679.83l2.55,2.94a.64.64,0,0,0,1.12-.43c-.14-83.12-10.7-157-19.56-200.55-9.67-47.56-19.49-75.67-19.58-76h0c.09.28,8.94,28.85,18.59,76.26,8.87,43.65,19,100.7,16.46,196.61A1.66,1.66,0,0,0,1003.58,679.83Z"/><path class="cls-5" d="M968.27,394.51c3.15,2.53,15.21,13.32,3.51,21.63,0,0-9,2.84-11.93-4.06a43.74,43.74,0,0,1-3-13.64,1.18,1.18,0,0,1,1.09-1.26,9.24,9.24,0,0,0,2.53-.57c1.11-.43,1.67-2.11,3.17-2.48a9.07,9.07,0,0,1,3-.33A3.16,3.16,0,0,1,968.27,394.51Z"/><path class="cls-36" d="M975,413.13a7.27,7.27,0,0,0-2.25,7.44l0,1.69a8,8,0,0,0-5.32-5.54S971.37,417.16,975,413.13Z"/><path class="cls-37" d="M977.91,440.05c19.74-4.23,20.08-20.38,20.08-20.38S982.35,428.26,977.91,440.05Z"/><path class="cls-36" d="M996.88,429s12.42,4.75,20.92-8C1017.8,421,1003.54,418.88,996.88,429Z"/><path class="cls-36" d="M974.74,672.94l-2.49,3a.64.64,0,0,1-1.13-.4c-1.53-83.11,7.55-157.16,15.54-200.9,8.72-47.75,18-76.05,18.06-76.33h0c-.1.28-8.37,29-17.06,76.62-8,43.82-17,101.05-12.53,196.89A1.66,1.66,0,0,1,974.74,672.94Z"/><path class="cls-5" d="M1004.32,387c-3.1,2.6-14.94,13.62-3.07,21.7,0,0,9,2.66,11.85-4.3a43.86,43.86,0,0,0,2.76-13.7,1.17,1.17,0,0,0-1.11-1.23,9.45,9.45,0,0,1-2.54-.53c-1.12-.41-1.72-2.07-3.23-2.41a8.84,8.84,0,0,0-3-.27A3.25,3.25,0,0,0,1004.32,387Z"/><path class="cls-36" d="M998,405.73a7.24,7.24,0,0,1,2.4,7.38v1.7a8,8,0,0,1,5.21-5.65S1001.68,409.68,998,405.73Z"/><path class="cls-36" d="M991.62,414.43s-13.12,2.2-18.92-12C972.7,402.46,987.09,403.2,991.62,414.43Z"/><path class="cls-36" d="M964.9,657.93l1.85,3.42a.64.64,0,0,0,1.19-.17c18-81.16,23.79-155.53,24.64-200,.93-48.52-2.52-78.1-2.55-78.39h0c0,.29,2.44,30.1,1.51,78.48-.85,44.53-3.38,102.42-26.8,195.46A1.6,1.6,0,0,0,964.9,657.93Z"/><path class="cls-5" d="M992.66,371.78c2.52,3.15,11.94,16.31-1.29,21.87,0,0-9.37.82-10.76-6.57a44.15,44.15,0,0,1,0-14,1.2,1.2,0,0,1,1.34-1,9.41,9.41,0,0,0,2.6,0c1.18-.18,2.09-1.69,3.64-1.72a8.64,8.64,0,0,1,3,.33A3,3,0,0,1,992.66,371.78Z"/><path class="cls-36" d="M995.13,391.41a7.25,7.25,0,0,0-3.81,6.76l-.34,1.66a8,8,0,0,0-4-6.56S990.75,394.56,995.13,391.41Z"/><path class="cls-36" d="M980.8,399.83s0-10.38-8.95-13.64C971.85,386.19,969.88,394.85,980.8,399.83Z"/><path class="cls-38" d="M1001.81,383.15s-.26-7.92,7.06-10.21C1008.87,372.94,1010.64,380.32,1001.81,383.15Z"/><path class="cls-38" d="M977.76,430.81c-.26.23-3.82-7.71,3.42-14.09C981.18,416.72,984.2,425.22,977.76,430.81Z"/><path class="cls-36" d="M972.7,430.19a4.28,4.28,0,0,0-3.7-4.52S968.36,429,972.7,430.19Z"/><path class="cls-36" d="M1010.17,416.72s3.18-6.57,13.33-5.42C1023.5,411.3,1022,418.34,1010.17,416.72Z"/><path class="cls-5" d="M954.06,689.56h65.08a7.18,7.18,0,0,0,7.1-8.21L996,472.56a4,4,0,0,0-3.93-3.4h-9.67a4.24,4.24,0,0,0-4.18,3.61l-31,208.79A7,7,0,0,0,954.06,689.56Z"/><path class="cls-39" d="M1004.72,683.24l-16.08-214a4,4,0,0,1,3.4,3.35l30.29,208.79a7.18,7.18,0,0,1-7.1,8.21h-13A7.69,7.69,0,0,0,1004.72,683.24Z"/><path class="cls-5" d="M1961.13,618s66-29.8,79-63.76c0,0,59.43,50.5,64.92,87.92,0,0-34.46,40.41-74.4,57.39C2030.63,699.52,2010,638.78,1961.13,618Z"/><path class="cls-8" d="M1961.13,618s41.53,73.06,69.5,81.55C2030.63,699.52,2026.44,623.8,1961.13,618Z"/></g></g></svg>