<svg xmlns="http://www.w3.org/2000/svg" viewBox="0 0 2926.9 1467.61"><defs><style>.cls-1{fill:#fcecdb;}.cls-2{fill:#a8d29f;}.cls-3{fill:#7f2722;}.cls-4{fill:#aa443e;}.cls-5{fill:#ffb27d;}.cls-6{fill:#ed975d;}.cls-7{fill:#6bb7bf;}.cls-36,.cls-8{fill:#fff;}.cls-9{fill:#5ea7aa;}.cls-10{fill:#c65447;}.cls-11{fill:#163560;}.cls-12{fill:#c4453b;}.cls-13{fill:#f99746;}.cls-14{fill:#ed7d2b;}.cls-15{fill:#86d1cd;}.cls-16{fill:#f1a34f;}.cls-17{fill:#db7714;}.cls-18{fill:#5685d8;}.cls-19{fill:#739af0;}.cls-20{fill:#1c468a;}.cls-21{fill:#e5b0b4;}.cls-22{fill:#ffb93e;}.cls-23{fill:#ffa412;}.cls-24{fill:#233862;}.cls-25{fill:#2b478b;}.cls-26{fill:#b64c41;}.cls-27{fill:#abddda;}.cls-28{fill:#c5efeb;}.cls-29{fill:#ffb680;}.cls-30{fill:#ffd599;}.cls-31{fill:#599dad;}.cls-32{fill:#a9453d;}.cls-33{fill:#7693ce;}.cls-34{fill:#ebf3fa;}.cls-35{fill:#c94c43;}.cls-36{opacity:0.7;}</style></defs><title>socialAsset 1</title><g id="Layer_2" data-name="Layer 2"><g id="Слой_2" data-name="Слой 2"><path class="cls-1" d="M263.68,1467c.13.08,2363.64-.28,2363.64-.28s6.84-14,15.39-32.32c6.35-13.58,14.21-31.61,22.37-53.3h0c1.52-4,3.05-8.2,4.58-12.48q3.23-9,6.44-18.74c.8-2.39,1.58-4.82,2.37-7.28,4.73-14.76,9.32-30.59,13.56-47.35.3-1.16.59-2.34.89-3.52q2.37-9.62,4.59-19.63,1.22-5.56,2.38-11.23l.16-.78.84-4.21a693.8,693.8,0,0,0,11.52-85.58q.56-7.9.92-15.94t.53-16.32a570.08,570.08,0,0,0-7.47-105.17c-2.35-14-5.28-28.18-8.88-42.35q-3.95-15.54-9-31.11c-.63-1.93-1.25-3.87-1.92-5.81a495.76,495.76,0,0,0-29.25-69.21c-1.06-2.06-2.14-4.14-3.25-6.21A507.85,507.85,0,0,0,2624,828.64q-1.73-2.52-3.5-5-9.87-14-21-27.75-16.22-20.1-35.3-39.68-26.42-27.11-52.4-49.29-10.68-9.18-21.3-17.57-9.09-7.22-18.12-13.85l-1-.75q-20.9-15.36-41.42-27.88c-2.79-1.71-5.57-3.39-8.37-5q-20.13-11.87-39.88-21.26-4.32-2.07-8.6-4c-90.06-41-173.53-46.32-247.37-39.53-57.09,5.25-108.44,17.77-152.6,26.69-2.9.59-5.76,1.16-8.6,1.71-28.75,5.58-54.28,9.26-76.18,7.83-35-2.28-63.47-23.53-94.1-54.85q-3.35-3.43-6.73-7c-17.86-18.87-36.63-40.87-58-64.29q-5.84-6.42-11.94-13-12.09-12.93-25.36-26.23c-1.37-1.37-2.74-2.72-4.14-4.09-3-2.94-6-5.9-9.15-8.85-1.37-1.3-2.74-2.61-4.14-3.91-10.08-9.46-20.72-18.92-32-28.32C1594,362.21,1533,323.15,1452.25,293.28l-.11,0A800.51,800.51,0,0,0,1338.7,260.9a1194.78,1194.78,0,0,0-145.55-21q-18.26-1.53-36.72-2.51-19.79-1-39.71-1.48-11.94-.26-23.9-.26c-19.72,0-39.44.44-59,1.44q-10.44.52-20.81,1.25c-84.81,5.94-166.52,22-235.46,50.69C729.15,309.16,547,399.16,493.5,551.39c-16.88,48-20.93,102.28-3.91,162.49,60.25,213-31.48,239.55-146.26,341.08C190.14,1190.46,140.82,1373.29,263.68,1467Z"/><path class="cls-2" d="M1092.37,1463.67h-70.1c-3.76-3.18,2.6-10.42,9.24-10.91,2.88-.21,6.53.39,10.7,1.27,1-12.81,6.47-70.41,27.23-68.1,23.35,2.6,0,25.37-6.6,38.85-4.88,10-10,24.31-12.4,31.07,1.9.41,3.86.81,5.86,1.18,3.1-9.5,14.61-41.45,29.25-39.59,17.19,2.18,10.28,15-1.9,22.59-8.94,5.6-19.92,13.55-25.13,17.39a74.5,74.5,0,0,0,13.71,1.09C1084.23,1458.23,1090.09,1461.77,1092.37,1463.67Z"/><path class="cls-2" d="M411.82,1463.67S381.71,1381,360.57,1388,411.82,1463.67,411.82,1463.67Z"/><path class="cls-2" d="M400.29,1463.67c-2.56,0-50.61-49.87-53.82-36.81S400.29,1463.67,400.29,1463.67Z"/><path class="cls-2" d="M451.55,1463.67s-19.87-18.22-45-13.48-35.9,9.94-51.71,6.35-23.88,7.13-23.88,7.13Z"/><path class="cls-3" d="M2510.9,605.45l.11-.15A.36.36,0,0,0,2510.9,605.45Z"/><path class="cls-4" d="M1530.75,603.71s29.65-33.25-21-39.59-59.32-46.48-94.13-58.33c-32.21-11-89,11.9-94.22,21.61,0,0,13.66,40.31,3.9,72.82s45.52,67,65,63.07c0,0-33.81,2.8-49.9-6.73,0,0,27.31,26,59,14.34s60.25-18,65.23-2.9S1530.75,603.71,1530.75,603.71Z"/><path class="cls-5" d="M1537.34,1117.28c-7.25,29-12.19,51.63-7.19,63.14,11.95,27.49-16.07,128.59-32.72,183.1-6.48,21.24-11.24,35.4-11.24,35.4h-25.36s.59-14.2,1.38-35.4c1.92-51,5-142.38,4.2-173.66-1.2-44.28-27-272.64-27-272.64s3.9-.39,10.26-1c27.45-2.43,100.7-8.1,103.18.51C1572.76,985.92,1551,1062.91,1537.34,1117.28Z"/><path class="cls-6" d="M1537.34,1117.28c-31.73-15.61-80.09-71.67-80.09-71.67s-9.89-71.09-7.6-129.34c27.45-2.43,100.7-8.1,103.18.51C1572.76,985.92,1551,1062.91,1537.34,1117.28Z"/><path class="cls-5" d="M1453.48,692.66c2.38-.66,4.91-9.48,6.94-18.92,2.45-11.34,4.21-23.56,4.21-23.56l10.85.21,29,.57,2.37,0a136.29,136.29,0,0,0-2.77,17.56,87.53,87.53,0,0,0,.69,23.65c1.15,6,3,9.73,4.89,10.7C1511.29,703.63,1450.68,692.31,1453.48,692.66Z"/><path class="cls-6" d="M1504.78,692.21c-18-4.45-40.16-42-40.16-42a21.92,21.92,0,0,1,10.86.21c9.93,2.42,20.79,10.05,28.61,18.17A87.12,87.12,0,0,0,1504.78,692.21Z"/><path class="cls-5" d="M1513.32,674.39s-51.78-.94-50.7-33.17-4.88-54.07,28.23-54.84,39.11,11.75,41.37,22.6S1526.82,673.8,1513.32,674.39Z"/><path class="cls-5" d="M1427.18,689s58,2.44,106.8,17.31c0,0,18.2,54.7,3.9,97s28.9,123.66,28.9,123.66-123.86,12.81-127.27-3.77S1396.46,766.53,1427.18,689Z"/><path class="cls-5" d="M1784.75,1286.92l-21.63,21.94-38.66-32.13c-47-39-120-99.84-120.75-100.84-46.18-46.56-128.31-266.84-128.31-266.84s12-24.48,74.7-26.87c25.62-1,45.76,37.7,61.33,85.34,17.83,54.52,29.67,120.79,36.94,152.84a33.81,33.81,0,0,0,5.13,11.69,34.2,34.2,0,0,0,12.39,10.89c34.37,17.79,69.87,65.3,93,100.9C1774.71,1268.16,1784.75,1286.92,1784.75,1286.92Z"/><path class="cls-5" d="M1522,702.94s81.69-38,86.74-46,6.18-105,4.23-118.66h12.68s24.7,106.58,17.55,132.59-109.28,80-109.28,80Z"/><path class="cls-6" d="M1653.5,1132.05c-14.6-1.24-82.46-138.78-86.72-141.66,0,0,23.81-15,44.65-22.87,17.83,54.52,29.67,120.79,36.94,152.84A33.81,33.81,0,0,0,1653.5,1132.05Z"/><path class="cls-5" d="M1418.41,703.8s4.14-16.25-83.51,84.35l-80.1-39.45-7.7,8.58s82,74.24,92.68,70.88,78.63-63.59,78.63-63.59Z"/><path class="cls-7" d="M1601.73,882.16c-26.41-34.18-41.89-80.31-51-116.51-.08-.32-.15-.63-.23-.95,39.63-28,18.91-84.7,18.91-84.7-17.24,3.52-58.13,20.29-58.19,20.32h0s-14.6,19.72-35.41,16.79-25.37-26.27-25.39-26.34h0c-.06,0-20.79-4.21-33.21,0-7.54,2.56-56.16,42.92-56.48,46.82s16.46,47.41,49.73,54.51c-3.69,110.95,29,269,29,269,90.15,7.77,161.19-42.81,195-73a241.27,241.27,0,0,0,21.61-21.5S1633.53,923.32,1601.73,882.16Z"/><path class="cls-8" d="M1499,653.07s1.3,5,4.71,5.85,12.36,2,13.17,1.3a44.26,44.26,0,0,0,3.58-5S1506.18,651.6,1499,653.07Z"/><path class="cls-5" d="M1613,538.31s-5.45-1.39-6.26-10.49c-.54-6.08-3.25-10.18-2-10.48s5,6.47,6.34,8c1.17,1.26,3.9-20,6.82-19.5s9.92,4.06,7.81,32.51Z"/><path class="cls-5" d="M1254.8,748.7s-10.42-17.31-13.55-20.73c-6.2-6.78-21.47-9.39-21.94-5.93s10.54,6.88,12.09,14.48c.43,2.1-4.52-1.4-7.44-2.61-1.76-.74-2.61.21-1.59,1.31,5.18,5.63,8.44,11.7,12.88,13.48s11.85,8.58,11.85,8.58Z"/><path class="cls-5" d="M1489.77,1443.27c-12.36,3.48-22.11,11.5-28.94,16.7s-47.79,9.76-53,3.9,16.9-17.12,24.05-20.74,28.94-44.21,28.94-44.21h25.36S1502.11,1439.79,1489.77,1443.27Z"/><path class="cls-5" d="M1809,1373.47c-9.75.8-10.72-19.34-24.26-30.07s-21.63-34.54-21.63-34.54l21.63-21.94s27.68,9.18,27.19,24.3,13.17,28.28,15.61,39.5S1818.77,1372.66,1809,1373.47Z"/><path class="cls-4" d="M1530.75,603.71s-7.66,5.93-31.72,0-20.16,41.37-41.13,35.52-54.51-71.2-7.51-72.17S1523.62,575.51,1530.75,603.71Z"/><path class="cls-9" d="M1656,966.52a241.27,241.27,0,0,1-21.61,21.5c-99.53-37.41-85.15-222.47-85.15-222.47a6.68,6.68,0,0,1,1.45.1c9.13,36.2,24.61,82.33,51,116.51C1633.53,923.32,1656,966.52,1656,966.52Z"/><path class="cls-10" d="M1488.64,1391.46a23.23,23.23,0,0,0,0,14.49c3.92,11.85,10.19,34.75,1.09,37.32-12.36,3.48-22.11,11.5-28.94,16.7s-47.79,9.76-53,3.9,16.9-17.12,24.05-20.74c5.4-2.72,19.12-26.5,25.54-38a29.41,29.41,0,0,0,3.68-13.11c.24-6.17.63-16.14,1.1-28.49,0,0,22.73,11.68,35.22,0C1493.77,1375.52,1490.65,1385.26,1488.64,1391.46Z"/><path class="cls-10" d="M1809,1373.47c-9.75.8-10.72-19.34-24.26-30.07-9.77-7.74-16.7-22.29-19.81-29.8a21.56,21.56,0,0,0-6.18-8.36l-34.3-28.51s8.23-28.09,34.44-32.89c11.23,17.27,19.54,31.73,23.42,38.67a14,14,0,0,0,6.75,6.08c7.76,3.29,23.24,11.29,22.87,22.63-.49,15.12,13.17,28.28,15.61,39.5S1818.77,1372.66,1809,1373.47Z"/><path class="cls-11" d="M1833.73,815.4s36.25,14.11,68.89-22.35c-.76,1.16-22.87,35.13-41.81,41.29,2.44,1.71,4.79,3.5,7.07,5.34,9.72,7.84,18.19,16.43,27.71,21.56h0c23.6,12.71,43.87,18.56,61,19.23,16.16-7.25,25.47-22.88,30.71-36.46,2.53-1.95,5-3.93,7.48-5.85a62.88,62.88,0,0,1-17.1,40.22c23.44-6,38.41-24,45.61-46.51.44-1.36.85-2.75,1.22-4.14.21-.75.41-1.5.59-2.25a108.65,108.65,0,0,0,2.7-16,128.6,128.6,0,0,0-7.62-56.93c-.31-.82-.62-1.62-.94-2.42l0-.1a107.56,107.56,0,0,0-9.85-18.91c-7-10.64-8.23-24.61-6.61-38.78,3.5-31,20.54-62.87,20.54-62.87a48.42,48.42,0,0,0-8.23-9.32c-10.82-9.8-32.91-22.94-69.64-16.17-55.89,10.31-75.23,50.1-68.77,99.14s5,77.41-32.32,90.28l-.38.13C1834.17,797,1830.77,807.22,1833.73,815.4Z"/><path class="cls-5" d="M1955.19,942.21s45.6,51.53,64.64,58.33c19.63,7,90-3.18,90-3.18s-8.13-62-6.41-81.16,44.24-89.19,47.68-118.12-29.36-58.4-29.36-58.4-22.19.05-23.62-2.59c-.65-1.21-1.22-2.43-1.74-3.66-5.72-13.72-3.53-28.52-3.53-28.52l-42.44-1.75c.38,5.14.68,9.53.91,13.34a28.62,28.62,0,0,1-19.76,29c-11.62,3.74-21.62,8.16-22.34,10.89-3.66,13.88,31.14,109.39,19.17,118.7C1978.31,914.05,1955.19,942.21,1955.19,942.21Z"/><path class="cls-6" d="M2050.44,703.16s2.84,21,46,30.27c-5.72-13.72-3.53-28.52-3.53-28.52Z"/><path class="cls-5" d="M2106.67,699.81s-41.73,30.2-60.13,3.92-36.18-40.08-10.32-60.47,38.12-14,46.4-6.75S2117.05,691.28,2106.67,699.81Z"/><path class="cls-8" d="M2085.92,692.22s2.78,2.85,10.72-2.64c0,0,6.67-4.61,4.26-8.13C2100.9,681.45,2092.62,682.91,2085.92,692.22Z"/><path class="cls-11" d="M2074.55,631.19s16.08-25.19-10.24-38.38c-44.21-22.15-45.91,37.32-59.13,41.47s-28.77,30.75-12.77,49.26,36.66,14.12,40.94,23.5,18.48,4.87,17.48,1.5c-.39-1.31-3.84-3.21-5.78-8.11-1.07-2.7,1.85-5.73.77-5.77-10.61-.41-17-16.58-5.56-15.41s16.11-9.71,15.63-14.21-11.36-14.89-1.25-20.68S2068.82,638.93,2074.55,631.19Z"/><path class="cls-5" d="M1990.91,1231.91c-15.46,68.47,46.62,207.58,46.62,207.58h21.33s-9.09-163.32,3.35-204.15c7.27-23.85,22.31-101.08,33.57-161.17,8-42.74,14.08-76.81,14.08-76.81H1945.38s12.6,135.47,36.65,201.47C1988,1215.07,1991.84,1227.81,1990.91,1231.91Z"/><path class="cls-6" d="M1965.2,997.36s-10,136.19,18.15,205.13l112.43-128.32c8-42.74,14.08-76.81,14.08-76.81Z"/><path class="cls-5" d="M1736.68,1082.43c75,70.45,211.73,128.09,211.73,128.09,30.93-14.78,145.71-223.8,145.71-223.8S2044.92,944.64,1971,934c-24-3.45-37,16.21-43.61,44.38-5,21.37-6.41,47.65-6.11,72.42a704.72,704.72,0,0,0,6.11,82.06s-22.47-25.78-56.7-31.5c-92.2-15.4-120-34.25-120-34.25Z"/><path class="cls-5" d="M2121.77,739.68s65.57-10.56,72.95-49.63c5.16-27.27,19.83-123.63,19.83-123.63l15-2.13s6.34,116.24-.69,133.86c-8.93,22.4-75.23,86.41-75.23,86.41Z"/><path class="cls-5" d="M2042.18,744.88l-32.93,11.53s-51.25,63.73-65.76,71c-18.44,9.3-98.34,13.88-98.34,13.88l-.85,10.59s74.73,17.76,110.89,10.6c9.4-1.86,80.44-59.28,80.44-59.28Z"/><path class="cls-5" d="M1736.68,1082.43s-20.67-16.32-27.54-23.19-26.64-33.51-23.2-39.52,20.8,13.35,37.8,14.6,19.34,6.84,23.13,19.8,6,17.85,6,17.85Z"/><path class="cls-10" d="M1915.4,863.38h0s36.38,3.38,42.43,1,17.78-11.27,29.44-20.37c2.53-1.95,5-3.93,7.48-5.85,11.67-9.14,21.83-17,23.9-16.61h0a.82.82,0,0,1,.42.22c1.23,1,2.7,4.87,4.16,10.09,3.83,13.74,7.61,36.74,6.93,40.35a.08.08,0,0,0,0,0,1.25,1.25,0,0,1-.1.31l0,0,0,0c-1.53,2.14-24.51,20.94-34.52,29.07-2.81,2.31-4.6,3.75-4.6,3.75l.67.34,1.75.89c1.73.87,4.32,2.15,7.62,3.71h0c7.57,3.6,18.85,8.7,31.68,13.63,22.85,8.83,50.64,17.15,71.26,15.72,1.49-.11,2.94-.26,4.35-.46,0,0-3.38-19.53,1.5-28.12s37.58-87.56,39-93.34c1.28-5.14,1.74-12.31,2.2-18.72.13-1.7.25-3.33.39-4.86.43-4.76,1-8.49,2.27-9.7a1.12,1.12,0,0,1,.19-.18l.1-.11.28-.27c.16-.17.36-.36.58-.56a.75.75,0,0,1,.15-.16c8.07-8,48.68-48.6,66.23-72.3l.34-.46c3.75-5.12,6.4-9.41,7.35-12.37h0c.4-1.22.75-2.51,1.08-3.84,4.4-18.08,2.77-45.28,2.77-45.28l0,0c-.38-.13-3.16-1-13.63-2.42a88.4,88.4,0,0,0-17-.14h0s-6.54,38.67-8.41,40.76c-5,5.55-60.91,49.28-71,52.3h0a2.88,2.88,0,0,1-.86.16h-.14c-1.29,0-2.56,0-3.75,0h-.2c-4.9,0-9.28-.39-9.28-.39s15.06,20.14,13.35,36.19-48.12,15.47-60.71,5.74c-6.66-5.14-14.5-14.78-20.41-22.74-3.2-4.29-5.82-8.08-7.41-10.43-1.07-1.56-1.66-2.49-1.66-2.49l0,0a5.45,5.45,0,0,0-.53.18c-.11,0-.22.07-.36.11l-.43.15c-2.16.73-6.57,2.29-11,4.19-2.37,1-4.75,2.12-6.8,3.25t0,0a26,26,0,0,0-3.77,2.47c-10.17,8.37-58.59,67.21-64.72,71.31,0,0,0,0-.05,0a1.16,1.16,0,0,1-.35.18c-4,1.22-28.09,6.9-28.09,6.9h0a66.81,66.81,0,0,0-2,14A43.07,43.07,0,0,0,1915.4,863.38Z"/><path class="cls-5" d="M2058.86,1439.49s21,14.06,31.7,16.2,30.93,3.69,32.65,10.44h-88.48a59.37,59.37,0,0,1,2.8-26.64C2042.45,1424.77,2058.86,1439.49,2058.86,1439.49Z"/><path class="cls-6" d="M1921.28,1050.77c4.39-4.67,28.27-23.58,118.21-11.33,0,0-56.51-64.74-112.1-61.09C1922.36,999.72,1921,1026,1921.28,1050.77Z"/><path class="cls-12" d="M1990.91,905.47a445.4,445.4,0,0,0,41.73,18.58c13-16.12,19.58-43.31,17.8-59.84-2.83-26.35-27.68-40.48-31.33-42.42,4.62,3.68,12.54,48.39,11,50.82l0,0c-1.52,2.15-24.51,20.94-34.52,29.07Z"/><path class="cls-12" d="M2153.64,784.57c3.14-3.07,69.5-68.66,75.23-86.42C2228.87,698.15,2143.53,751.85,2153.64,784.57Z"/><path class="cls-10" d="M2108.26,944.44s104.1,91.75,129.62,134.7c.67,1.14,0,3.91,0,5.13,0,0-27.42,4.15-48.9-8.06s-33.5-9.62-48.11-7-33.25.86-49.27-15.46-39.21-8.88-51.24-8.3-26.34-6.3-33.22-14.32-29.2-15.46-38.37-10-26.33,3.15-37.22-5.44-16.61-23.49-38.37-18.9-32.65,4.58-42.39-2.29S1823.88,975.84,1809,980s-37.33-20.52-37.33-20.52-1.09-4.6,0-5.13c14.86-7.18,128.33-55.08,223.85-47.47C1995.51,906.86,2043.82,941.38,2108.26,944.44Z"/><path class="cls-13" d="M1771.66,954.33s1.09,1.2,2.95,3c6.27,6.15,21.28,19.41,32.74,17.83a13.26,13.26,0,0,0,1.64-.34h0c14.89-4.12,32.06,7.58,41.79,14.46s20.62,6.87,42.38,2.29a32.11,32.11,0,0,1,12.31-.46c11,1.94,16.44,10.63,23.59,17.22h0c.8.74,1.62,1.45,2.48,2.13a41.24,41.24,0,0,0,20.71,8.16c6.27.66,12.26-.2,16.51-2.73,2.92-1.73,7.18-2.15,11.86-1.67,9.34,1,20.33,5.59,25.53,10.66a13.48,13.48,0,0,1,1,1c6.88,8,21.19,14.89,33.22,14.31,8.58-.4,22.83-4.3,36.12-.6h0a33.27,33.27,0,0,1,15.12,8.9,53,53,0,0,0,26.05,15h0a58,58,0,0,0,23.22.44c9.54-1.69,18-3.37,28.69-.94h0a72,72,0,0,1,19.4,8c21.48,12.2,48.9,8.06,48.9,8.06-21.91-41.23-129.62-139.83-129.62-139.83-64.43-3.06-112.75-37.59-112.75-37.59C1893,893.56,1771.66,954.33,1771.66,954.33Z"/><path class="cls-14" d="M2117.65,1063.6h0a58,58,0,0,0,23.22.44c9.54-1.69,18-3.37,28.69-.94-.61-.77-40.6-51.86-45.69-48.61S2106.67,1057.08,2117.65,1063.6Z"/><path class="cls-14" d="M2006.16,1024.91a13.48,13.48,0,0,1,1,1c6.88,8,21.19,14.89,33.22,14.31,8.58-.4,22.83-4.3,36.12-.6-.32-.69-20.94-45-31.38-46.51C2036,991.79,2008.59,1011.13,2006.16,1024.91Z"/><path class="cls-14" d="M1774.61,957.36c6.27,6.15,21.28,19.41,32.74,17.83l1.64-.34h0c1.11-.47,72-30.68,75.62-37.46C1888,931.08,1793.07,948.4,1774.61,957.36Z"/><path class="cls-14" d="M1850.79,989.3c9.74,6.87,20.62,6.87,42.38,2.29a32.11,32.11,0,0,1,12.31-.46s41.73-24,39.9-31.51S1850.79,984.17,1850.79,989.3Z"/><path class="cls-14" d="M1929.07,1008.35h0c.8.74,1.62,1.45,2.48,2.13a41.24,41.24,0,0,0,20.71,8.16c6.27.66,12.26-.2,16.51-2.73,2.92-1.73,7.18-2.15,11.86-1.67,2.65-2.36,24.74-22.21,20.53-27.15C1996.69,981.84,1926.64,1001.07,1929.07,1008.35Z"/><path class="cls-5" d="M2214.11,566.42s-1-11.79-5.26-19.85,11.14-23.47,16.36-25.13,9-.71,9,2.37-7.35,8.3-5.93,12.81,3.39,9.72,3,15.17-1.73,12.5-1.73,12.5Z"/><path class="cls-5" d="M1847.66,841.17a78.3,78.3,0,0,1-13.69-7c-6.09-4.11-19.78,6.91-21.56,11s-1.34,7.16,1.13,7.42,7.28-5.17,10.77-3.64,7.5,3.55,11.9,3.71,10.17-.3,10.17-.3Z"/><path class="cls-7" d="M2725.92,1074.28s-8.79,6.61-18.94,6.06c-7.53-.41-15.23-7-15.54-7.45l-5.49,10.66s14.05,7.65,25.65,4.84c3.55-.86,9.21-4.7,11.71-7.49A10.15,10.15,0,0,0,2725.92,1074.28Z"/><path class="cls-15" d="M2724.67,1052.65l14.72-6.91s-.61,31.29-25.95,42C2713.44,1087.76,2728.74,1065.65,2724.67,1052.65Z"/><path class="cls-7" d="M225.36,1217.54s-13-9.79-16.3-24.4c-2.48-10.85,3.74-24.47,4.25-25.09L196,1164.6s-5.14,23,3.57,38.35c2.66,4.7,10.4,11.16,15.38,13.58A15,15,0,0,0,225.36,1217.54Z"/><path class="cls-15" d="M255.53,1207l15.8,18.08s-44.65,11.85-70.17-19.73C201.16,1205.32,238.75,1218,255.53,1207Z"/><path class="cls-7" d="M1856.44,361.2S1854.5,346,1862.19,334c5.7-8.86,19-13.65,19.8-13.72l-9.15-14.05s-19,11.76-23.62,27.8c-1.41,4.91-.67,14.43,1,19.4A14.16,14.16,0,0,0,1856.44,361.2Z"/><path class="cls-15" d="M1883.56,374.65l-1.79,22.66s-37.57-22.4-33.06-60.59C1848.71,336.72,1865,370.59,1883.56,374.65Z"/><path class="cls-16" d="M1253.4,1210.13s6.43-13.86,35.08-6.58c12.83,3.27,35.06,22.15,5.67,38.09-30.56,16.59-40.22-.74-40.22-.74s49.23-8.08,42.2-28c-7.75-21.94-28.38,1.82-28.38,1.82A37.89,37.89,0,0,0,1253.4,1210.13Z"/><path class="cls-17" d="M1248.61,1240s-6.6-10.23,3.3-19.47l12.21,9.74s-11.88,9.37,0,17.8C1264.12,1248.06,1250.32,1244.27,1248.61,1240Z"/><path class="cls-18" d="M1707.51,747.92s16.74-11.63,29.3,5.7l13.8-5.93s-6.81-10.76-33.56-6C1699.56,744.82,1707.51,747.92,1707.51,747.92Z"/><path class="cls-19" d="M1691,759.29s4.56-18.81,38.88-18.81c0,0-12.86,1.22-22.91,17.91Z"/><path class="cls-16" d="M2162.12,1072.7s12.13-7.66,13.41-16.92c0,0,11.81.64,14.36,4.47,0,0-5.42,15.32-11.81,18.19C2178.08,1078.44,2163.72,1079.4,2162.12,1072.7Z"/><path class="cls-14" d="M1226.75,385.42s-7.86-5-8.69-11c0,0-7.66.41-9.32,2.9,0,0,3.52,9.93,7.66,11.8C1216.4,389.15,1225.72,389.77,1226.75,385.42Z"/><path class="cls-15" d="M2165.29,1243.41s10.74-6.79,11.87-15c0,0,10.47.56,12.73,4,0,0-4.81,13.57-10.46,16.12C2179.43,1248.5,2166.7,1249.35,2165.29,1243.41Z"/><path class="cls-11" d="M1146.32,1091.29s51.08,17.73,67.91,15.5c0,0,1.12-8.62-13.69-16.65s-27.56-34.82-35.6-32.79-18.67,9.28-18.67,9.28Z"/><path class="cls-11" d="M1219.11,1012s53.36-8.77,67.08-18.75c0,0-3.12-8.11-20-8.11s-40.83-17.47-46.93-11.85-12,17.06-12,17.06Z"/><path class="cls-20" d="M1146.36,1091.32q-21.83-.67-41-1.84c-194.77-11.5-200.46-54.81-200.46-54.81-32.39-99.26,97.77-197.82,97.77-197.82s79-11.09,75.84,35.33-112.4,137.59-112.4,137.59c36.38,3.41,95.53,23.87,136.08,39.28,25.86,9.84,44.17,17.62,44.17,17.62a24.3,24.3,0,0,1,2.94,12.52A37.81,37.81,0,0,1,1146.36,1091.32Z"/><path class="cls-11" d="M1105.31,1089.48c-194.77-11.5-200.46-54.81-200.46-54.81-32.39-99.26,97.77-197.82,97.77-197.82s79-11.09,75.84,35.33-112.4,137.59-112.4,137.59c36.38,3.41,95.53,23.87,136.08,39.28C1107,1061.68,1110.22,1076.8,1105.31,1089.48Z"/><path class="cls-20" d="M1219.3,1012l-.19,0c-167.66,45.28-226.82,44.62-243.86,41.21-7.56-1.51-12.88-12.54-12.88-12.54C930,941.41,1068.05,829.53,1068.05,829.53s59.48-2.69,76.07,24.44a30.1,30.1,0,0,1,4.18,18.2c-2,29.9-47.26,73-79.22,99.86-16.89,14.22-30.06,23.9-31.19,24.72l-.06,0c55.77-34.41,169.48-6.44,169.48-6.44s6.6,4.64,8.69,8.52A30.93,30.93,0,0,1,1219.3,1012Z"/><path class="cls-5" d="M1287.75,444.82c-6.18-.32-19.83,19.18-22.43,20.81s-1.3-7.16-3.35-13.33-6.73,7.8-6.73,16.58,6.73,15.93,6.73,15.93a9.41,9.41,0,0,1-1.47,4.3c-8,13.26-24.8,43.34-38.3,67.65-11.18,20-20,36.09-20,36.09-16.32.74-35.72,3.31-53.28,6.14-18.17,2.94-34.37,6.26-43.45,8.22-4.79,1-7.62,1.6-7.62,1.6s-1.1,3.31-2.33,8.35c-.86,3.43-1.72,7.85-2.45,12.52-2.21,16.33-1.23,36.21,16.81,37.32a42.68,42.68,0,0,0,10.07-.74c10-1.35,22.59-5,35.73-9.82a559.22,559.22,0,0,0,57.7-24.68c11.17-5.64,19.27-10.06,21.36-11.9,2.7-2.34,9.08-19.77,16.08-41,11.42-34.74,24.68-79.79,26.76-87,0,0,18.32-30.08,19-34.31S1293.93,445.15,1287.75,444.82Z"/><path class="cls-5" d="M1060.34,372c-5.36-1.47,23.9-29.78,5.37-29.59-14.86.16-31.23,32-31.23,32-2.46,4.54-5.15,9.08-5.15,9.08C1004.41,415.45,988.82,441,979.12,461c-18.91,39-15.35,56.35-15.35,56.35a120.34,120.34,0,0,0,1.6,23.45c5,37.69,21.12,92,24.8,104.22.49,1.72.73,2.58.73,2.58l43.95-31.55a42.69,42.69,0,0,0-.12-10.43c-.73-7.49-2.94-16.82-5.65-26.52-.12-.49-.36-1-.49-1.47-4.17-14.61-9.82-30.2-14.73-43-.86-2.21-1.59-4.3-2.45-6.26a4.86,4.86,0,0,1-.49-1.23c-4.79-12-8.35-20.26-8.35-20.26,1.47-3.19,3.07-6.38,4.54-9.7.25-.61.49-1.22.74-1.84,1-2.21,2-4.42,2.82-6.63a13.11,13.11,0,0,1,.49-1.23,6.84,6.84,0,0,0,.61-1.47.36.36,0,0,0,.13-.24c15-36.22,26.39-77,31.06-94.9a8.67,8.67,0,0,1,2.66-3.7c.05,0,22-9.35,28-12.75S1065.71,373.46,1060.34,372Z"/><path class="cls-4" d="M1065.13,734.67S1005.69,673,954.86,635.5c-3.48-9.4-5.37-21.9-5.37-21.9-2.86,5.21-2.41,11.93-1.47,17-13.81-9.73-26.73-17.3-37.31-20.92-3.56-20.68,16.34-42.42,16.34-42.42-17.1,6.93-24,29.73-26.29,40.18a20.55,20.55,0,0,0-5.13.17s-1.71-69.85,105-69.85c41.51,0,35.56-72.12,94.65-66.94,0,0,64.52,12.6,52.48,68.88s7.75,68.88,14.63,81.49S1140,722.06,1065.13,734.67Z"/><path class="cls-5" d="M1117.63,620l-62.22,24.64L1048.8,617c-.65-8.32.2-17.58,1.59-26.09a209.18,209.18,0,0,1,6.79-28.39c.08-.27.13-.41.13-.41l1.6,0,5.17-.14,35-.9a66.09,66.09,0,0,0-2.3,14.54A51.5,51.5,0,0,0,1117.63,620Z"/><path class="cls-21" d="M1022.08,603.28s-83.62,46.26-19.46,233.56l133.67,7.29s-57.11-79.46-43.45-106.77,41-113,41-113Z"/><path class="cls-22" d="M1250.87,579.21s-11.64,39.13-17.24,42.26-78.91,40.75-101.13,43.77c0,0-7.76.8-10.51,2.12h0a1.76,1.76,0,0,0-.89.69.78.78,0,0,0-.07.17c-1.57,4.13-21.25,71.19-21.71,89-.33,12.4,54.33,92.17,53.68,101.22a6.41,6.41,0,0,1-.55,2.22c-3.08,6.78-18.13,6.2-30.49-.27a195.28,195.28,0,0,0-31.47-12.83c-14.33-4.42-30.44-7.33-43.57-4.65-25.22,5.18-51.1-1.29-60.15-29.1s-7.76-84.73-10.35-96.38-4.85-48.15,10.65-72.41h0a0,0,0,0,1,0,0s1.94-3.88-1.29-12S959,539.86,962.51,514.32c0,0,1-24.87,16.61-53.33a44.74,44.74,0,0,1,17.9,9.53c8.24,7.36,13.62,15,14.92,15.32,0,0-8.69,19.42-8.2,21s29.91,85,31.53,89.9c0,0,11.58-1,14.09,1.52,0,0-1,23.93,53.34,4.09,0,0,3.35-.54,3.51,2.26,0,0,70.06-11.19,94.43-12.93,0,0,1.31-.15,8.84-14.23,9-16.76,12.64-20.72,12.64-20.72S1244.24,556.77,1250.87,579.21Z"/><path class="cls-23" d="M1153,858.42a6.41,6.41,0,0,1-.55,2.22c-3.08,6.78-18.13,6.2-30.49-.27a195.28,195.28,0,0,0-31.47-12.83c-8.65-21.53-20.59-54.2-25.15-80.77-6.94-40.49,47.71-91.38,55.69-98.55-1.57,4.13-21.25,71.19-21.71,89C1099,769.6,1153.64,849.37,1153,858.42Z"/><path class="cls-6" d="M1096.75,575.6s-29.14,14.82-46.36,15.34a209.18,209.18,0,0,1,6.79-28.39,16.34,16.34,0,0,1,1.73-.45,13.44,13.44,0,0,1,3.61-.28c.52,0,1,.08,1.56.14C1078.53,563.63,1096.75,575.6,1096.75,575.6Z"/><path class="cls-5" d="M1043.22,569.62s49.68,25.18,64.88-6,31.85-48.93.77-66.32-43.08-8.52-50.69.65S1030.69,562.27,1043.22,569.62Z"/><path class="cls-4" d="M1082.17,497s15.06,15,10.63,29.21,2.73,42.54,22.14,45.77,42.49-62.37,17-75-67.28-18.85-79.88-3-7.75,35.89-7.75,35.89S1061.74,496.06,1082.17,497Z"/><path class="cls-8" d="M1062.36,559.31s-2,3.36-10.9-.15c0,0-7.44-2.95-5.91-6.87C1045.55,552.29,1053.84,551.85,1062.36,559.31Z"/><path class="cls-24" d="M676.42,625.14l6.09-9.72c24.23-32.39,14.65-49.07,7.2-57.6a58.6,58.6,0,0,0-21.17-15.12l-.92-.38A47.63,47.63,0,0,0,655,537.53c-51.63-25.71-83.5,73.58-77,81.87s26.36,12.78,26.36,12.78a17,17,0,0,1-1.35-4c4.67,6.45,26.27,10.41,26.27,10.41-4.52-8.43-5.49-15.63-4.62-21.59L637,619.32c1.33,9.62,4.38,19.24,8.23,24.15,7.54,9.61,26.87,12.82,26.87,12.82-.62-1.18-.51-4.34-.51-4.34.17,2.08,3.26,4.29,3.26,4.29,2.34.62,7.84-.48,7.84-.48S671.59,652.82,676.42,625.14Z"/><path class="cls-5" d="M603.16,680.23l-.09,0Q602.84,680.23,603.16,680.23Z"/><path class="cls-5" d="M663.14,663c.72,6.49,1.59,12.32,2,15.1.87,6.22-58.19,2.17-62,2.16,2.62-1.14,10.63-26.55,13.17-36.24,3.07-11.76,5.49-24.46,5.49-24.46l41.7,2.63,2.48.16a147,147,0,0,0-3.39,16c-.1.67-.2,1.35-.28,2C661.57,645.9,662.24,654.94,663.14,663Z"/><path class="cls-6" d="M663.14,663c-29.17-8.55-41.55-42.25-41.55-42.25,12.34.36,28.41,8.93,41,17.63-.1.67-.2,1.35-.28,2C661.57,645.9,662.24,654.94,663.14,663Z"/><path class="cls-5" d="M665.2,651.13s-52.7-13-44.08-45.73,7.61-56.39,41.63-49.46,37.23,21.13,37,32.74S679.13,653.67,665.2,651.13Z"/><path class="cls-24" d="M686.86,561.47S662.34,596,638.79,595.84s-31.55-8.6-31.55-8.6,20.47-9,30.19-31.48C637.43,555.76,680.85,540.35,686.86,561.47Z"/><path class="cls-24" d="M682.47,563.64s8.47,11.4,8.88,20.42-3,26.46,2.2,27.2c0,0,17.72-23.2,9.46-41.17C694.25,551.05,682.47,563.64,682.47,563.64Z"/><path class="cls-24" d="M684.12,565.46S663.26,602.91,632,608.4c0,0,34.35-17.3,43.73-43.18S684.12,565.46,684.12,565.46Z"/><path class="cls-8" d="M657,630.17s.65,5,3.83,6.15,11.6,3.31,12.46,2.78a42.9,42.9,0,0,0,4-4.41S664,629.6,657,630.17Z"/><path class="cls-5" d="M637.3,1130.31q-1,4.2-2,8.31c-4,16.51-7.67,31.82-10,44.63-3,16.68-3.74,29.08.23,34.3,16.37,21.46,0,191.76,0,191.76L606.9,1428.5S574.52,1260.36,565.74,1234c-4-12-9.82-63.13-15-115.35-.27-2.61-.52-5.22-.77-7.84-.89-9.13-1.75-18.23-2.57-27.11-4.61-49.41-8.06-91.71-8.06-91.71s34.35-24.15,65.56-26.84c18.38-1.61,35.67,4.25,44.21,26.84C661.6,1024.86,649,1081.61,637.3,1130.31Z"/><path class="cls-6" d="M637.3,1130.31c-25.52-18.43-61.43-51.23-74.46-105-2.49-26.73,18.58-52.13,42.11-60.15,18.38-1.61,35.67,4.25,44.21,26.84C661.6,1024.86,649,1081.61,637.3,1130.31Z"/><path class="cls-5" d="M730.37,805.56,855.79,838V852.6S731,851.14,722.93,837.24,730.37,805.56,730.37,805.56Z"/><path class="cls-5" d="M855.79,1288.28l-5.86,24.21S680.26,1224.86,658.32,1208c-8.82-6.76-20.46-43.48-31.25-85C611,1061.1,596.84,988.48,596.84,988.48S620.62,897,684.29,953c38.1,33.51,32.18,98.06,28,148.27-2.77,33.69-4.77,60.93,7.86,68,24.65,13.75,97,77.11,119.85,120.7Z"/><path class="cls-5" d="M568,881.67c-44.31-11.28-93-80-93-80l12.48-10.82c12.91,15.23,66.62,41.46,66.62,41.46-.29-13.94.08-26.65,1-38.22,6-78.64,35.6-104.83,43.69-110.58a19.2,19.2,0,0,1,2.06-1.33s0,.58.07,1.66c.12,2.33.34,7,.56,13.5C603,745.45,605,891.1,568,881.67Z"/><path class="cls-13" d="M603.07,787.3c-2.3,56.09-10.69,111.64-35.11,108.07C538,891,530.22,863.06,528.63,842.29a118.74,118.74,0,0,1,.44-23.08s14.73-.07,17.12-2.27c11.31-10.45,7.95-113,13.55-123.61s42-17.47,42-17.47S605.35,731.85,603.07,787.3Z"/><path class="cls-14" d="M603.07,787.3c-2.3,56.09-10.69,111.64-35.11,108.07C538,891,530.22,863.06,528.63,842.29c7.35-.37,20.29-2.17,25.43-10,7.36-11.23,30.33-83.49,30.33-83.49S593.42,765,603.07,787.3Z"/><path class="cls-13" d="M791.92,805.56c8.11,11.53,3.64,33.87-13.38,51.86-10.56,11.17-24.88,17.78-48.17,14.35-10.16-1.5-38.53-17.52-41.51-37-.54-3.54-.84-5.61-.84-5.61s-12.91,12.93-13.4,15.37c-.21,1.1-1.33,10.87-1.5,12.21-.2,1.62.94,7.55.94,7.55s-61.71,27-112.72-3.74c0,0-14.55-124.66-4.1-145.4,5.19-10.31,34.31-30.38,44.45-39.24,2.27-2,4.59-8,4-11.88-.51-3.27,3.25-8.79,6.41-7.78,6.09,1.95,23.35,10.49,35.49,7.23,6.05-1.61,13.72-8.6,19.58-7,7.16,2-.41,19.2,3.66,19.43,5.59.27,35.82,6.32,38.35,11.19.88,1.7,9.57,24.7,20.45,55.14a.33.33,0,0,1,0,.08C750,799.36,780,788.65,791.92,805.56Z"/><path class="cls-14" d="M688,829.11s-1.5-47.56-5.34-47-59.28,53.94-46.11,75.29S688,829.11,688,829.11Z"/><path class="cls-25" d="M730.37,1024.08s-21.37,6.6-52.84,11c-39,5.39-93.45,7.33-142.11-11,0,0-4-72.4,7.52-110.14s16.92-55.8,16.92-55.8,46.19,11.58,93.1,2.6a151.63,151.63,0,0,0,19.67-5.09s28.94,61.44,36.89,87.76S730.37,1024.08,730.37,1024.08Z"/><path class="cls-24" d="M730.37,1024.08s-21.37,6.6-52.84,11C619.81,1002.31,648,864.59,648,864.59q2.58-2.08,5-3.85a151.63,151.63,0,0,0,19.67-5.09s28.94,61.44,36.89,87.76S730.37,1024.08,730.37,1024.08Z"/><path class="cls-26" d="M608.91,871.77c-34.22,0-48.32-11.78-49.36-12.58l-2.22-16.12c.33.25,46.24,27.81,117.29,1.41l-1.5,12.21C645.79,866.85,626.68,871.77,608.91,871.77Z"/><path class="cls-5" d="M855.79,838s23-11.34,32.16-12.43,24.52-1.47,24.52,0S896,837.22,891.61,838s-12.81,7-10.24,7.69,16.09-2.38,16.28,0-8.23,3.84-9.7,5.67-6.58,4-14.82,2.93-17.34-1.65-17.34-1.65Z"/><path class="cls-5" d="M487.41,790.79l-12.5,10.91s-22.22-16.23-23.29-22.89v-.66c0-6.92,14.11-21.29,25.81-21.83a6.36,6.36,0,0,1,3.2.8c6.24,3.9,7,20.16,6.93,28.57C487.54,788.76,487.41,790.79,487.41,790.79Z"/><path class="cls-25" d="M855.79,1288.28l-5.86,24.21S680.26,1224.86,658.32,1208c-8.82-6.76-20.46-43.48-31.25-85,14.48,3,45.75,4.55,85.22-21.75-2.77,33.69-4.77,60.93,7.86,68,24.65,13.75,97,77.11,119.85,120.7Z"/><path class="cls-13" d="M889.33,1297.68l-.15,0c-.76-.19-4.25-1.34-6.57-6.89-1.52-3.65-2-6.65-3.38-10.27l-5.73-9.89c-6-7.89-8.09-6-8.09-6s-1.57,2-3.88,4.66c-3.82,4.37-9.68,10.47-13.83,12a12.08,12.08,0,0,0-5.93,4.64A11.6,11.6,0,0,0,840,1290s12.31,2.14,11.23,8.2c-2.08,11.74-1.59,13.87-1.38,14.26l.08.07s21,11,27.69,13.14c11.94,3.83,18.17,11.94,22,15.65a6.94,6.94,0,0,0,5.88,1.85c3.14-.5,7.23-1.51,8.12-3.44Z"/><path class="cls-24" d="M625.53,1217.55c16.37,21.46,0,191.76,0,191.76L606.9,1428.5S574.52,1260.36,565.74,1234c-4-12-9.82-63.13-15-115.35,15.52,6.93,53.39,22,84.51,20-4,16.51-7.67,31.82-10,44.63C622.27,1199.93,621.56,1212.33,625.53,1217.55Z"/><path class="cls-13" d="M644.25,1437l-10,5.44c-3.65,1.29-6.66,1.66-10.36,3.08-5.62,2.15-9.57,6.38-9.76,7.14-2.83,11.53-6.86,10.8-6.86,10.8l-40.37.38c-1.91-1,1.32-9.11,2.87-10.63,3.81-3.76,15.24-1.87,19.41-13.69,2.35-6.65,13.93-27.3,13.93-27.3l.08-.07c.39-.2,2.54-.63,14.21,1.79,6,1.25,8.53-11,8.53-11a11.47,11.47,0,0,1,4,1.89,12,12,0,0,1,4.46,6.06c1.45,4.19,7.37,10.22,11.63,14.17,2.58,2.39,4.54,4,4.54,4S652.31,1431.27,644.25,1437Z"/><rect class="cls-24" y="1460.12" width="2926.9" height="7.49" rx="3.26"/><path class="cls-15" d="M668.44,202c4.64,6.6,8.1,14.63,10.6,23.59,16.58,59.37-8.82,159.65-8.82,159.65s-136.37-13.4-171.78-63.82c-26.78-38.11-28-86.05-6.66-121.43a97.4,97.4,0,0,1,27.54-29.57C566.26,137.45,633,151.58,668.44,202Z"/><path class="cls-15" d="M670.22,385.25s7.65,15,13.47,12.28,10.13-13.23,7.49-16.13S670.22,385.25,670.22,385.25Z"/><path class="cls-13" d="M672.37,384.89l-2.77,1.94a1.32,1.32,0,0,1-1.84-.32h0a1.33,1.33,0,0,1,.33-1.84l2.76-1.94a1.32,1.32,0,0,1,1.84.32h0A1.32,1.32,0,0,1,672.37,384.89Z"/><path class="cls-13" d="M791.93,520.83a14.5,14.5,0,0,0-4-5,3.9,3.9,0,0,0-3.52-.76c.22-.53,22.63-53.56,13.79-76.21-4.79-12.28-37.16-1.58-63.16,7-22.94,7.58-41.13,17.13-47.59,9.23-6-7.34,3.31-25.29,9.6-39.7,3.71-8.48,7.91-18.1,6.12-20-2.18-2.32-9.48,1.76-15.35,5-7.33,4.11-13.67,7.65-16.77,4.61-5.55-5.45-1.61-18.75-1.44-19.31l.65.19c0,.13-2.24,13,2.35,17.52,1.91,1.87,8.68-1.91,14.12-5,7.56-4.22,16.56-9.78,19.94-6.19,2.66,2.83-2.14,11.57-7.57,24-5.74,13.15-12.89,29.51-7.89,35.94,3.56,4.58,23.67-2.06,43.13-8.49,29.68-9.81,63-22.11,68.56-7.86,3.87,9.91,2.67,26.6-1.6,50A281.39,281.39,0,0,1,791.93,520.83Z"/><path class="cls-27" d="M668.44,202c4.64,6.6,8.1,14.63,10.6,23.59-.17,41.34-32.94,73.5-97.79,78.4C447,314.13,491.78,200,491.78,200h0a97.4,97.4,0,0,1,27.54-29.57C566.26,137.45,633,151.58,668.44,202Z"/><path class="cls-28" d="M612.1,181.66c-.79,6.15-20,15.76-34.66,13.89s-22-12.77-22.05-19c0-11.86,17.39-14.39,32-12.52S612.88,175.52,612.1,181.66Z"/><path class="cls-14" d="M1653.14,121.67c1.36,10,.6,20.89-1.77,32.27-15.63,75.4-101.32,172.15-101.32,172.15S1406.37,233,1396,156.75c-7.86-57.66,18.3-111.55,62.23-138.6a121.78,121.78,0,0,1,47.53-17C1576.74-8.56,1642.74,45.41,1653.14,121.67Z"/><path class="cls-14" d="M1550.05,326.09s-.12,21,7.91,21.35,18.82-8.88,17.55-13.61S1550.05,326.09,1550.05,326.09Z"/><path class="cls-20" d="M1552.64,326.92l-4.19.57a1.65,1.65,0,0,1-1.86-1.41h0a1.65,1.65,0,0,1,1.41-1.85l4.19-.57a1.65,1.65,0,0,1,1.86,1.41h0A1.65,1.65,0,0,1,1552.64,326.92Z"/><path class="cls-20" d="M1607.39,546.36a18.08,18.08,0,0,0-1.6-7.83,4.87,4.87,0,0,0-3.47-2.85c.56-.46,55.84-46.48,59-76.68,1.72-16.38-40.34-23.07-74.13-28.44-29.81-4.74-55.47-4.57-58.11-17.05-2.45-11.57,18.18-26.17,33.42-38.55,9-7.29,19.16-15.56,18.26-18.69-1.09-3.82-11.53-3.48-19.92-3.2-10.5.34-19.57.64-21.26-4.51-3-9.24,9-21.73,9.47-22.26l.61.59c-.12.11-9.94,13.16-7.43,20.8,1,3.16,10.73,2.84,18.51,2.59,10.81-.36,24-1.37,25.68,4.55,1.33,4.68-9,11.62-22.16,22.3-13.92,11.3-31.24,25.36-29.37,35.37,1.33,7.13,27.46,11.28,52.74,15.3,38.57,6.14,82.6,11.58,80.61,30.59-1.39,13.22-12.29,31.06-30.44,54.55C1624.94,529.6,1607.53,546.24,1607.39,546.36Z"/><path class="cls-13" d="M1653.14,121.67c1.36,10,.6,20.89-1.77,32.27-23.89,45.78-78.7,62.68-153.49,30.94C1343,119.14,1458.2,18.16,1458.2,18.16h0a121.78,121.78,0,0,1,47.53-17C1576.74-8.56,1642.74,45.41,1653.14,121.67Z"/><path class="cls-29" d="M1602.26,66.8c-4.39,6.36-31.24,6-46.43-4.46s-17.13-26.81-13.6-33.69c6.77-13.18,27.55-6,42.73,4.47S1606.65,60.43,1602.26,66.8Z"/><path class="cls-23" d="M2430,317.89a57.1,57.1,0,0,1-13.95,13.38c-37.62,26.59-114.6,33.9-114.6,33.9s-24.81-99.37,1.78-137c20.11-28.42,53.56-41.3,83.81-35.19a72.81,72.81,0,0,1,27.73,12C2449.8,229.75,2456.62,280.3,2430,317.89Z"/><path class="cls-23" d="M2301.47,365.17s-8.64,9.15-5.26,12.57,11.86,3.8,13.23,1.21S2301.47,365.17,2301.47,365.17Z"/><path class="cls-13" d="M2302.26,366.59l-2.06-1.46a1,1,0,0,1-.24-1.37h0a1,1,0,0,1,1.38-.24l2.06,1.46a1,1,0,0,1,.24,1.38h0A1,1,0,0,1,2302.26,366.59Z"/><path class="cls-13" d="M2236.6,484.9a10.89,10.89,0,0,0,2.5-4.07,2.92,2.92,0,0,0-.36-2.67c.43,0,43.4,2.48,57.12-9.43,7.44-6.46-8.22-26.56-20.8-42.71-11.1-14.24-22.39-24.65-18.45-31.18,3.66-6.06,18.63-4,30.36-3.21,6.9.48,14.72,1,15.61-.72,1.09-2.11-3.62-6.23-7.4-9.53-4.73-4.14-8.82-7.71-7.46-10.66,2.45-5.27,12.8-5.84,13.24-5.86l0,.5c-.1,0-9.72,1.7-11.74,6.07-.84,1.8,3.53,5.62,7,8.69,4.87,4.26,11,9.2,9.37,12.47-1.33,2.59-8.69,1.41-18.8.71-10.7-.75-24-1.67-27.29,3.47-2.33,3.66,7.4,16.15,16.81,28.23,14.36,18.43,31.4,38.79,22.76,46.29-6,5.21-18.06,8.56-35.58,11.42A207.68,207.68,0,0,1,2236.6,484.9Z"/><path class="cls-22" d="M2430,317.89a57.1,57.1,0,0,1-13.95,13.38c-29.14,10.27-60-4.72-79.74-49.14-40.87-92,50.73-89.1,50.73-89.1h0a72.81,72.81,0,0,1,27.73,12C2449.8,229.75,2456.62,280.3,2430,317.89Z"/><path class="cls-30" d="M2430.19,273.12c-4.53,1-16.13-10.13-18.49-20.91s3.46-18.72,7.81-20.29c8.35-3,14.5,8.63,16.86,19.41S2434.71,272.13,2430.19,273.12Z"/><path class="cls-5" d="M2295.94,857s-8.51-10.33-13.09-11.78-13.44-8.31-14.6-5.48,6,7.18,5.58,10.41-22.61,8.42-22.47,11.84,5.23,11.68,13.71,10.73,30-6,34.41-3.84S2295.94,857,2295.94,857Z"/><path class="cls-24" d="M2432.87,1460.39h91.89c6.59-4.46-1.77-48.12-1.77-48.12s-25.08-9.51-29.41,9.84S2461.63,1447.6,2447,1450C2437,1451.58,2433.87,1457.07,2432.87,1460.39Z"/><path class="cls-7" d="M2457.6,1015.07s4.13,51.53,9,113.47c6.6,84.15,24.39,292.78,24.39,292.78s11.67,10,37.51,4.5c0,0,22-72,28.58-154.11l.3-4.06c6.12-83.63,15.64-259.72,15.64-259.72Z"/><path class="cls-31" d="M2456.19,997.26s5.54,69.34,10.39,131.28l90.48,143.17.3-4.06c6.12-83.63,15.64-259.72,15.64-259.72Z"/><path class="cls-5" d="M2511.87,756.47a41,41,0,0,0,28.27,3.8,58.63,58.63,0,0,0,19.15-8.08,56.31,56.31,0,0,0,7.73-5.82s-.34-.49-.91-1.45c-3-5.07-11.93-23.26-7.94-52.51,0-.38-2.85.16-7.22,1.2-13,3.08-39.2,10.51-40.36,10.84h0s-.32,6.14-1.4,17.17c-.09,1-.19,2-.29,3-.14,1.29-.27,2.66-.43,4.07C2507.22,740.19,2511.87,756.47,2511.87,756.47Z"/><path class="cls-6" d="M2509.15,721.62c19.44,4.46,48.45-24.24,48.45-24.24a30.29,30.29,0,0,0-6.65-3.77c-13,3.08-39.2,10.51-40.36,10.84h0S2510.23,710.59,2509.15,721.62Z"/><path class="cls-5" d="M2502.55,702.89a98.73,98.73,0,0,0,18.18,4.24c14.9,2,34.5.83,40.65-17.2,10.37-30.35,23.61-48.55-6.9-60.94-16.33-6.63-26.78-7-33.88-4.45-6.16,2.18-9.8,6.55-12.55,10.86C2502.12,644.69,2490.2,697.58,2502.55,702.89Z"/><path class="cls-24" d="M2719.53,1384.56s8,16.38,7.49,25.38c-.42,6.76-4.26,14.86-7.32,21.76a17.49,17.49,0,0,1-8,8.64c-6,3.06-15.33,9.34-17.81,19.78h40.87s17.18-34.45,29.42-39.46c10.61-4.35,10.56-21.76-1.7-28.62-5.95-3.33-17.05-22-17.05-22Z"/><path class="cls-7" d="M2482.52,997.36s71,215.88,108.67,245.82S2720.92,1394,2720.92,1394s26.61-12.2,31-24.39c0,0-69.3-158.84-102.56-171.29-29.46-11-8.32-182.49-68.32-212.36C2541.46,966.21,2482.52,997.36,2482.52,997.36Z"/><path class="cls-32" d="M2484,637.8c17.67,12.7,42.11.21,49.7,3.59s9,16.1,9.09,20.14.67,7.46,11,5a5,5,0,0,1,3.74.23c4.27,2.53-1.19,14.83-2.84,17.49,0,0-2.37,8.8,2.89,13.09.64.51,11,5,35.89-33.09,3.91-6,7.65-19.47,1.61-32.45s-31.29-25.52-52.7-32.17c-8-2.49-14-2.4-18.62-.7-7.77,2.84-11.9,10.18-16,17.55C2500.87,628.89,2484,637.8,2484,637.8Z"/><path class="cls-13" d="M2525.28,806.77c39-52.36-12.25-74.49-40.42-64.44-19.48,6.94-31.3,18.77-41.86,34.8-12.49,19-32,45.6-53.7,64.3h0l-96.6,8.45-.57,19.74c1.52,4.37,72.79,10.48,90.71,16.22C2382.83,885.84,2472.83,877.23,2525.28,806.77Z"/><path class="cls-13" d="M2461.37,1001.89a291.6,291.6,0,0,0,84.64,13.92c9,.07,21.76-1.68,32.34-3.45,10.81-1.83,19.35-3.68,19.35-3.68,9.26-2.14,19.49-7.86,18.12-18.42-4.15-32.09-1.47-116.14-3.6-168.63,0,0-.11-10.24,6.41-17.41l0,0c1.07-1.16-8.64-54.3-19.29-64.23-6.15-5.75-34.72-8.69-36.9-8.23-.65-.14-1.3-.29-2-.41,0,0-30.22,16.41-52.19,4.06,0,0-32.07,7.39-41.29,17.14-3.18,3.36-15.89,24-16.23,46.62-.49,31.55.74,67.4.74,67.41C2449.28,900.92,2437.6,1001.89,2461.37,1001.89Z"/><path class="cls-14" d="M2562.32,731.78s-32.74,33.77-56.15,26.85c0,0-3.12-4.56,7.42-6S2535.51,751.74,2562.32,731.78Z"/><path class="cls-14" d="M2578.35,1012.36c10.81-1.83,19.35-3.68,19.35-3.68,9.26-2.14,19.49-7.86,18.12-18.42-4.15-32.09-1.47-116.14-3.6-168.63,0,0-.11-10.24,6.41-17.41-10.21,9-38,37.59-58.63,58.92C2531.35,892.74,2529.23,946.71,2578.35,1012.36Z"/><path class="cls-8" d="M2502.31,683.3s-.63,3.93,8.5,7.06c0,0,7.67,2.64,9.07-1.39C2519.88,689,2513.79,683.17,2502.31,683.3Z"/><path class="cls-33" d="M2490.09,939.71l7.69-1.15c2.95-.83,5.22-2.15,5.3-5l.45-15a5.55,5.55,0,0,0-3.69-5.46c-7.33-2.48-13.89-8.51-12.31-17.66,0,0,4.24-21.94,4.33-22.59l28.32.85c.06.65,3.49,22.83,3.49,22.83,1.69,8.4-5.94,14.93-13.48,16.92a5.1,5.1,0,0,0-3.86,4.76l-.46,15.22c-.09,3,2,4.38,5.22,5.54l7.32,1.68c.57,0,.6.72,0,.7l-28.38-.85C2489.49,940.47,2489.52,940,2490.09,939.71Z"/><path class="cls-34" d="M2488.84,900c1.35,7.72,8.4,12.72,16.32,13s15.79-5.23,17.35-12.27a11.8,11.8,0,0,0,.15-4.2,29.62,29.62,0,0,0-.76-3.51c-.13-.44-3.1-19.36-3.1-19.36l-25.72-.77-4,20.35c-.08.32-.14.64-.19,1l-.07.35h0c0,.32-.1.63-.14,1A16.12,16.12,0,0,0,2488.84,900Z"/><path class="cls-35" d="M2488.84,900c1.35,7.72,8.4,12.72,16.32,13s15.79-5.23,17.35-12.27c-3.15-.46-11.87-1.52-18.73-.41C2499.19,901.05,2493.3,900.61,2488.84,900Z"/><path class="cls-36" d="M2516.26,900.53a11.53,11.53,0,0,0,.14-4.19,28.78,28.78,0,0,0-.76-3.51c-.12-.44-3.1-19.37-3.1-19.37l3.25.1s3,18.92,3.1,19.36a27.36,27.36,0,0,1,.75,3.51,11.58,11.58,0,0,1-.14,4.2c-1.57,7-9.48,12.51-17.35,12.27-.56,0-1.12-.06-1.67-.13C2507.8,912.3,2514.8,907.1,2516.26,900.53Z"/><path class="cls-5" d="M2535.05,921.75s-26.19-11.63-32.85-7.88-15,16.63-11.22,21.62,45.74,0,45.74,0Z"/><path class="cls-13" d="M2694.86,922.74C2650,763.14,2599.36,740,2599.36,740s-24,37.51-26,59.13c-1.64,17.5,48.06,79.62,69.3,101.52h0s-100.38,12.41-105,14.91-14.63,12.21-11.3,24.4c0,0,120.8,4.08,139.71,2.63C2696.8,940.2,2694.86,922.74,2694.86,922.74Z"/><path class="cls-13" d="M1166.94,406.52l-18,114.29a87.72,87.72,0,0,1-21-4.12c-38.32-12.24-60.27-46.17-60.27-46.17Z"/><path class="cls-14" d="M1128,516.69c-38.32-12.24-60.27-46.17-60.27-46.17l99.26-64S1118.24,459.08,1128,516.69Z"/><path class="cls-13" d="M2588.13,623.13a139.09,139.09,0,0,1-18.9,1.73C2530.11,626.19,2511,611,2511,611l56-86.89Z"/><path class="cls-14" d="M2569.23,624.86C2530.11,626.19,2511,611,2511,611l56-86.89S2559,595.06,2569.23,624.86Z"/><polygon class="cls-13" points="446.73 816.65 451.8 819.32 508.69 702.42 508.69 702.42 446.73 816.65"/><path class="cls-22" d="M506.39,685.44S518,690,523,680.57c0,0-6,10.94,1.9,15.67,0,0-10-4-16.19,6.18C508.69,702.42,515.09,691.77,506.39,685.44Z"/><path class="cls-22" d="M511.18,681.47s-1-7.72-4.84-8.08S509.94,678,511.18,681.47Z"/><path class="cls-22" d="M505.5,691.15s-7.62-1.64-9.24,1.84S501.81,691.15,505.5,691.15Z"/><path class="cls-22" d="M526.05,689.28s11.22-.71,10.8,1.89S530.49,689.37,526.05,689.28Z"/><path class="cls-22" d="M518.72,703.44s8.59,7.25,6.48,8.84S521.86,706.57,518.72,703.44Z"/><path class="cls-22" d="M520.3,679.16s.87-12.13-2.19-10.9S520,676.19,520.3,679.16Z"/><path class="cls-22" d="M525.34,680.54s6.32-8.35,7.62-6.44S525.34,680.54,525.34,680.54Z"/><path class="cls-5" d="M474.91,778.81c-9.18,5.59-23.29,0-23.29,0v-.66c0-6.92,14.11-21.29,25.81-21.83a6.36,6.36,0,0,1,3.2.8C481.29,762,482.22,774.55,474.91,778.81Z"/></g></g></svg>