<svg xmlns="http://www.w3.org/2000/svg" viewBox="0 0 2915.83 1826.33"><defs><style>.cls-1{fill:#ebf3fa;}.cls-2{fill:#dfebfa;}.cls-3{fill:#eef6ff;}.cls-4{fill:#dceaff;}.cls-5{fill:#afcdfb;}.cls-6{fill:#9fc1f4;}.cls-7{fill:#ff9843;}.cls-8{fill:#ffc48a;}.cls-9{fill:#2b478b;}.cls-10{fill:#ffb27d;}.cls-11{fill:#183368;}.cls-12{fill:#b5453c;}.cls-13{fill:#5153a0;}.cls-14{fill:#f2a672;}.cls-15{fill:#e8945b;}.cls-16{fill:#fff;}.cls-17{fill:#ef7e29;}.cls-18{fill:#aec3ff;}.cls-19{fill:#f99746;}.cls-20{fill:#c65447;}.cls-21{fill:#ed985f;}.cls-22{fill:#2c3a64;}.cls-23{fill:#ed7d2b;}.cls-24{fill:#0e274f;}.cls-25{fill:#77a4e5;}</style></defs><title>spitualityAsset 1</title><g id="Layer_2" data-name="Layer 2"><g id="Слой_1" data-name="Слой 1"><rect class="cls-1" width="2915.83" height="1826.33"/><path class="cls-2" d="M1483.89,276.65h-60.65V156.09l-2.8-1.44h-18.08v-.05H1297.17v.05h-.09v18.08h.09v12.42h-.09v18.07h.09V215.7h-.09v18.07h.09v.06l-11.15-.06V139.23H1168v12h-.06v18.06h.06v15.88h-.06v18.07h.06V215.7h-.06v18.07h.06v11.54h-.06v18.07h.06v11.54h-.06V293h.06v10.87h-.06v11.48h.06v1.25H1035V420H985.24v26H931.65V401.2H835.24V279.3H820.17V267.16H818V279.3H805.5v0H743V267.16h-2.16v12.12H724.53v61.3l-81-.33v37.83H574.89V144.19H371.48V394.76H309.36V259.27H105.94v876.55l1390-4.72Z"/><polygon class="cls-2" points="106.14 418.88 106.14 501.03 106.14 623.25 106.14 1129.84 3.97 1129.84 3.97 623.25 3.97 501.03 3.97 418.88 106.14 418.88"/><rect class="cls-3" x="423.81" y="144.19" width="151.08" height="39.65"/><rect class="cls-3" x="423.81" y="205.22" width="151.08" height="39.65"/><rect class="cls-3" x="423.81" y="267.51" width="151.08" height="39.65"/><rect class="cls-3" x="423.81" y="330.8" width="151.08" height="39.65"/><rect class="cls-3" x="423.81" y="391.86" width="151.08" height="39.64"/><rect class="cls-3" x="1168.02" y="139.23" width="75.54" height="24.08"/><rect class="cls-3" x="1168.02" y="176.29" width="75.54" height="24.08"/><rect class="cls-3" x="1168.02" y="214.12" width="75.54" height="24.08"/><rect class="cls-3" x="1168.02" y="252.56" width="75.54" height="24.08"/><rect class="cls-3" x="1168.02" y="289.64" width="75.54" height="24.08"/><rect class="cls-3" x="1168.02" y="330.46" width="75.54" height="24.08"/><rect class="cls-3" x="1168.02" y="367.52" width="75.54" height="24.08"/><rect class="cls-3" x="1168.02" y="405.35" width="75.54" height="24.08"/><rect class="cls-3" x="1168.02" y="443.78" width="75.54" height="24.08"/><rect class="cls-3" x="1168.02" y="480.87" width="75.54" height="24.08"/><rect class="cls-3" x="1297.31" y="155.02" width="75.54" height="24.08"/><rect class="cls-3" x="1297.31" y="192.08" width="75.54" height="24.08"/><rect class="cls-3" x="1297.31" y="229.91" width="75.54" height="24.08"/><rect class="cls-3" x="1297.31" y="268.35" width="75.54" height="24.08"/><rect class="cls-3" x="1297.31" y="305.43" width="75.54" height="24.08"/><rect class="cls-3" x="1297.31" y="344.1" width="75.54" height="24.08"/><rect class="cls-3" x="1297.31" y="381.15" width="75.54" height="24.08"/><rect class="cls-3" x="1297.31" y="418.99" width="75.54" height="24.08"/><rect class="cls-3" x="1297.31" y="457.42" width="75.54" height="24.08"/><rect class="cls-3" x="1297.31" y="494.51" width="75.54" height="24.08"/><rect class="cls-3" x="1297.31" y="537.04" width="75.54" height="24.08"/><rect class="cls-3" x="1297.31" y="574.1" width="75.54" height="24.08"/><rect class="cls-3" x="1297.31" y="611.93" width="75.54" height="24.08"/><rect class="cls-3" x="1297.31" y="650.37" width="75.54" height="24.08"/><rect class="cls-3" x="1297.31" y="687.45" width="75.54" height="24.08"/><rect class="cls-2" x="1059.72" y="268.35" width="3.75" height="49.12"/><rect class="cls-2" x="1122.87" y="226.16" width="5.83" height="95.13"/><rect class="cls-2" x="384.98" y="126.68" width="2.43" height="17.52"/><rect class="cls-2" x="436.47" y="126.68" width="2.43" height="17.52"/><rect class="cls-2" x="554.52" y="126.68" width="2.43" height="17.52"/><rect class="cls-2" x="1179.71" y="125.71" width="1.87" height="13.52"/><rect class="cls-2" x="1268.32" y="125.71" width="1.87" height="13.52"/><rect class="cls-2" x="508.37" y="126.68" width="2.43" height="17.52"/><path class="cls-2" d="M2915.83,276.65H2846V156.09l-2.69-1.44h-17.37v-.05H2724.88v.05h-.08v18.08h.08v12.42h-.08v18.07h.08V215.7h-.08v18.07h.08v.06l-10.7-.06V139.23h-113.4v12h-.05v18.06h.05v15.88h-.05v18.07h.05V215.7h-.05v18.07h.05v11.54h-.05v18.07h.05v11.54h-.05V293h.05v10.87h-.05v11.48h.05v1.25H2473V420h-47.75v26h-51.49V401.2h-92.62V279.3h-14.48V267.16h-2.07V279.3h-12v0h-60.07V267.16h-2.07v12.12h-15.65v61.3l-77.8-.33v37.83h-66V144.19H1835.57V394.76H1775.9V259.27H1580.48v876.55l1335.35-4.72Z"/><polygon class="cls-2" points="1580.66 418.88 1580.66 501.03 1580.66 623.25 1580.66 1129.84 1482.52 1129.84 1482.52 623.25 1482.52 501.03 1482.52 418.88 1580.66 418.88"/><rect class="cls-3" x="1885.85" y="144.19" width="145.14" height="39.65"/><rect class="cls-3" x="1885.85" y="205.22" width="145.14" height="39.65"/><rect class="cls-3" x="1885.85" y="267.51" width="145.14" height="39.65"/><rect class="cls-3" x="1885.85" y="330.8" width="145.14" height="39.65"/><rect class="cls-3" x="1885.85" y="391.86" width="145.14" height="39.64"/><rect class="cls-3" x="2600.81" y="139.23" width="72.57" height="24.08"/><rect class="cls-3" x="2600.81" y="176.29" width="72.57" height="24.08"/><rect class="cls-3" x="2600.81" y="214.12" width="72.57" height="24.08"/><rect class="cls-3" x="2600.81" y="252.56" width="72.57" height="24.08"/><rect class="cls-3" x="2600.81" y="289.64" width="72.57" height="24.08"/><rect class="cls-3" x="2600.81" y="330.46" width="72.57" height="24.08"/><rect class="cls-3" x="2600.81" y="367.52" width="72.57" height="24.08"/><rect class="cls-3" x="2600.81" y="405.35" width="72.57" height="24.08"/><rect class="cls-3" x="2600.81" y="443.78" width="72.57" height="24.08"/><rect class="cls-3" x="2600.81" y="480.87" width="72.57" height="24.08"/><rect class="cls-3" x="2725.02" y="155.02" width="72.57" height="24.08"/><rect class="cls-3" x="2725.02" y="192.08" width="72.57" height="24.08"/><rect class="cls-3" x="2725.02" y="229.91" width="72.57" height="24.08"/><rect class="cls-3" x="2725.02" y="268.35" width="72.57" height="24.08"/><rect class="cls-3" x="2725.02" y="305.43" width="72.57" height="24.08"/><rect class="cls-3" x="2725.02" y="344.1" width="72.57" height="24.08"/><rect class="cls-3" x="2725.02" y="381.15" width="72.57" height="24.08"/><rect class="cls-3" x="2725.02" y="418.99" width="72.57" height="24.08"/><rect class="cls-3" x="2725.02" y="457.42" width="72.57" height="24.08"/><rect class="cls-3" x="2725.02" y="494.51" width="72.57" height="24.08"/><rect class="cls-3" x="2725.02" y="537.04" width="72.57" height="24.08"/><rect class="cls-3" x="2725.02" y="574.1" width="72.57" height="24.08"/><rect class="cls-3" x="2725.02" y="611.93" width="72.57" height="24.08"/><rect class="cls-3" x="2725.02" y="650.37" width="72.57" height="24.08"/><rect class="cls-3" x="2725.02" y="687.45" width="72.57" height="24.08"/><rect class="cls-2" x="2496.77" y="268.35" width="3.6" height="49.12"/><rect class="cls-2" x="2557.44" y="226.16" width="5.6" height="95.13"/><rect class="cls-2" x="1848.55" y="126.68" width="2.33" height="17.52"/><rect class="cls-2" x="1898.02" y="126.68" width="2.33" height="17.52"/><rect class="cls-2" x="2011.42" y="126.68" width="2.33" height="17.52"/><rect class="cls-2" x="2612.04" y="125.71" width="1.8" height="13.52"/><rect class="cls-2" x="2697.17" y="125.71" width="1.8" height="13.52"/><rect class="cls-2" x="1967.09" y="126.68" width="2.33" height="17.52"/><rect class="cls-4" y="814.35" width="2915.83" height="1011.98"/><rect class="cls-5" x="3.97" y="743.63" width="2911.86" height="53.61"/><rect class="cls-5" x="536.82" width="60.57" height="765.38"/><rect class="cls-5" x="2482.38" width="60.57" height="765.38"/><path class="cls-6" d="M952.72.09v167a6.87,6.87,0,0,1-6.86,6.85h-1a6.87,6.87,0,0,1-6.85-6.85V0C942.93,0,947.82,0,952.72.09Z"/><path class="cls-7" d="M941.54,134.87c-53.57,0-97,45.92-97,102.57h194C1038.55,180.79,995.12,134.87,941.54,134.87Z"/><path class="cls-8" d="M949.27,136.12a39.78,39.78,0,0,0-8.52-.93c-34.91,0-63.2,45.78-63.2,102.25h17C894.59,185.64,918.39,142.85,949.27,136.12Z"/><path class="cls-6" d="M2116.19.09v167a6.88,6.88,0,0,1-6.86,6.85h-1a6.87,6.87,0,0,1-6.85-6.85V0C2106.39,0,2111.28,0,2116.19.09Z"/><path class="cls-7" d="M2105,134.87c-53.58,0-97,45.92-97,102.57h194C2202,180.79,2158.58,134.87,2105,134.87Z"/><path class="cls-8" d="M2112.73,136.12a39.64,39.64,0,0,0-8.52-.93c-34.9,0-63.2,45.78-63.2,102.25h17C2058.05,185.64,2081.86,142.85,2112.73,136.12Z"/><polygon class="cls-5" points="2547.35 1091 1636.42 1091 1724.77 897.92 2470.78 897.92 2547.35 1091"/><g id="girl_2" data-name="girl 2"><path class="cls-9" d="M2087.16,429.54s-38.65.19-62.63,35.77-25.9,124.82-19.71,139.51c0,0,38.41,11.84,88.63,11.83,26.15,0,68.46-2.71,86.93-18.67C2184.92,594.05,2179,426.12,2087.16,429.54Z"/><path class="cls-10" d="M2204.12,916.62c-1.95-9.28-29.29-55.66-31.24-61.52s11.26-65.93,20.5-108-16.75-113.23-16.75-113.23-17.56-4.24-42.39-11.57a18.72,18.72,0,0,1-13.35-16.79c-.92-14.37-.06-30.91-.06-30.91l-53.76,1.21c1.54,11,.45,23.5-.92,33.73A14.87,14.87,0,0,1,2055,622c-19.21,4.86-26.77,9.76-47.6,19.45l.85,6.34c-.26-.2-.39-.32-.39-.32s-1,30.3-.33,69.25c.59,35.15,21.84,122.47,26,139.2l.36,3.36c-14.31,23.42-34.7,57.38-34.7,57.38S2206.07,925.89,2204.12,916.62Z"/><path class="cls-11" d="M2272.65,961.29c-49.61,40.05-120.73,61.83-120.73,61.83s-57.25,1.06-122.18,0c-63.06-1-124.72-75.88-124.72-75.88s52.58-.67,67-12.49c10-8.25,22.19-22,34-36.84,8.48-10.69,16.78-22,24-32.34,0,0,14.9,14.06,75.43,12.55s75.26-8,75.26-8,7.14,8.45,16.57,19.14c11.37,12.89,26.06,29.05,35.52,37.61C2237,930.65,2272.65,961.29,2272.65,961.29Z"/><path class="cls-12" d="M2095.87,490.81s22.79-.42,28,7.22,5.88,16.16,8.49,20.46a16.52,16.52,0,0,1,2.16,9.12s19.62-50.22-25.67-40.22C2105.55,488.12,2095.87,490.81,2095.87,490.81Z"/><path class="cls-13" d="M1813.28,798.7c.24-.08.49-.16.74-.22C1813.89,798.52,1813.64,798.61,1813.28,798.7Z"/><path class="cls-14" d="M2279.48,959.44c-15.11,13.08-59.88,27.45-102.08,38.83-11.84,3.18-23.48,6.13-34.2,8.75-9.67,3-29.31,9.25-50.35,16.57-29.69,10.34-42.68,5.4-57.39,2.81s-31.32,7.69-53.12-.28-16.28-50.89-16.28-50.89c7.38-4.84,36.07-6.24,55.5,7.72S2067,994.29,2067,994.29c1,.11,3.37-1.08,6.62-3.11,0,0,18.89-11.06,53.72-38.79,11.2-8.92,24.06-19.57,38.47-32.14,27.47-24,52.87-53.16,80.25-59,46.65-9.9,61.54,5.91,61.54,5.91S2319.13,925.14,2279.48,959.44Z"/><path class="cls-9" d="M2117.49,960.14s87.75-96.92,141.71-103.33,49.9,13.87,49.9,25.13-.59,54.59-21.46,78-120,56.71-120,56.71S2116.51,1008.83,2117.49,960.14Z"/><path class="cls-10" d="M2207.33,985.5s-1,37.38-14.7,41.83c-18.85,6.12-33.66-3.68-49.21-.83s-28.18,6.92-59.52-4c-20.81-7.27-40.33-13.52-51.1-16.91-5.27-1.42-10.74-2.91-16.3-4.48-41.65-11.75-89-27.46-104.18-41.63-36.67-34.3-22.62-95.17-22.62-95.17s11.15-14.08,54.29-4.18c25.32,5.81,52.26,29.78,77.55,53.6,10.5,9.88,20.45,19,29.57,27.28,31.78,28.74,53.56,46.57,53.56,46.57l-.1.19c3.31,2.08,5.73,3.28,6.75,3.17,0,0,16.56,6.57,45.34-3.1C2176.73,981,2199.56,980.35,2207.33,985.5Z"/><path class="cls-15" d="M2067.81,587.37s10.62,24.61,28.06,23.15,24.61-23.7,24.61-23.7Z"/><path class="cls-9" d="M2050.06,557.63a227.07,227.07,0,0,1-13.42-37.56c-3.65-14.43-.12-69.12,54.87-65.24a74.17,74.17,0,0,1,31.5,9.38c12.39,7.13,30.69,23.13,15,71.76l-3.81,16.33Z"/><path class="cls-10" d="M2126.94,580.84c-14.24,13.53-31.93,31.57-69.85-2-7.42-6.56-10-20-10.42-34.45-.47-17.1-1.42-24.22.52-34.08,2.31-11.79,15.37-33.53,36.31-35.29,38.45-3.23,51.36,21.78,52.26,41C2137.73,557.63,2141.41,567.07,2126.94,580.84Z"/><path class="cls-10" d="M2055,622l-12.33,86.81s-9.54,17.13-24.15,39.75c-10.34,16-23.21,34.76-37.06,52.15q-3.72,4.7-7.52,9.22c-20.92,24.84-84,39.63-84.1,39.56-39.31-14.76-95.21-63.09-95.21-63.09l2.89-5.69,10.82-8.75c35.79,20.82,86.9,35.92,96.66,36.45,3.39.18,14-18,26.84-42.46h0c24.16-45.85,56.29-113.49,63.62-121.77,2.57-2.92,7.11-5.67,12.57-8.17C2026.35,627.59,2055,622,2055,622Z"/><path class="cls-10" d="M2390.21,788.84s-73.35,73.07-112.22,68.39c-17.65-2.14-38.55-20.24-58.41-43.11-1.74-2-3.48-4-5.2-6.12-36-43.26-67.15-99.23-67.15-99.23l-4.15-27.62-8.84-58.88s24.12,4.51,42.38,11.6c7.76,3,14.47,6.47,17.82,10.26,8.12,9.19,46.75,91.36,71.17,135.87,9.33,17,16.59,28.51,19.29,28.37,9.76-.53,60.54-15.65,96.35-36.48l8.46,16Z"/><path class="cls-10" d="M1808.27,793.34s-23,18.75-30.75,20.31-34.71,2.44-34.71,2.44,1-6.29,13.35-9.05,18.59-21.62,25.4-27.74a31.25,31.25,0,0,1,26.89-7.36Z"/><path class="cls-10" d="M1802.8,771.35s-20-.24-26.93,2.9c-4.22,1.91-9.39,9.65-20.1,12.81-3.69,1.09-.58,3.54,1.17,4.1,3.61,1.15,26-2.52,26-2.52Z"/><path class="cls-10" d="M1776.44,809.69c-1.09.32-29.58,14.25-29.58,14.25s-1.08-8.58,3-9.63S1776.44,809.69,1776.44,809.69Z"/><path class="cls-10" d="M1751.57,790.56s.74,12.05,2.66,14.26,11.54,2.1,11.54,2.1,4.73-6.63,4.83-7.19-12-.12-12.38-.68S1756.33,789.8,1751.57,790.56Z"/><path class="cls-10" d="M2386.57,792.61s26.85,12.68,34.73,12.33,34.28-6,34.28-6-2.44-5.88-15.14-5.58-22.74-17.62-31.32-20.82c-16.07-6-27.87-.68-27.87-.68Z"/><path class="cls-10" d="M2386.56,770.38s19.41-5.47,26.87-4.08c4.56.84,11.44,7.11,22.59,7.6,3.84.17,1.42,3.3-.15,4.26-3.23,2-25.86,3.81-25.86,3.81Z"/><path class="cls-10" d="M2421.4,800.84c1.13,0,32.13,6.72,32.13,6.72s-1-8.58-5.21-8.63S2421.4,800.84,2421.4,800.84Z"/><path class="cls-10" d="M2440.94,776.29s2.18,11.87.84,14.49-10.69,4.8-10.69,4.8-6.19-5.3-6.42-5.82,11.67-3,11.86-3.63S2436.14,776.7,2440.94,776.29Z"/><path class="cls-9" d="M2065.72,486.08s14.86,17.38,28.43,25.59S2130,519.6,2130,519.6s-11.18-10.39-12.7-18.32c0,0,22.23,28.71,28.28,28.44s-5.34-52.79-25.1-57.16S2050.22,465.14,2065.72,486.08Z"/><path class="cls-9" d="M2081.58,480.17s-25.39,9.34-26.95,27.81c-1.4,16.66-19,43-19,43s-.43-23.74,3.58-38.69S2046,482.4,2055,476.93s23.56-6.2,23.56-6.2Z"/><path class="cls-16" d="M2045.48,624.07s9.4,53.88,58.33,72.75c0,0,45.36-20.66,49.48-70.24,0,0,23.79,1.56,41.15,17.55s86.38,162,93.58,159.12,65.34-30.73,78.61-23.54c0,0,5.24,18.78,3.18,27.85a53.65,53.65,0,0,1-20.53,34.29c-18.47,14-73,21.62-93.69,11.26s-66.66-54.18-66.66-54.18-2.25,35.72,5.86,46.07,14.86,28.76,3.06,38.87c-44.24,37.88-158.9,47.16-194.49,1.22-8-10.33,10.36-27.41,10.36-35.55s-7.65-60.39-7.65-60.39-43.1,79.79-96.77,68.27-91.1-23.44-96-54.47c0,0,10.82-16.5,21.18-18.3,0,0,69.36,11.83,77,9.07s58.88-140.23,87.71-157.26C2017.1,625.88,2045.48,624.07,2045.48,624.07Z"/><path class="cls-9" d="M2072.36,959.9s-85-96.68-138.9-103.09-49.9,13.87-49.9,25.13.59,54.59,21.46,78,120,56.71,120,56.71S2073.33,1008.59,2072.36,959.9Z"/></g><polygon class="cls-5" points="2860.81 1631.37 1949.89 1631.37 2038.23 1438.29 2784.25 1438.29 2860.81 1631.37"/><g id="girl_2-2" data-name="girl 2"><path class="cls-10" d="M2703.59,1333.71s23,18.76,30.75,20.32,34.71,2.44,34.71,2.44-1-6.3-13.36-9.06-18.58-21.62-25.4-27.73a31.22,31.22,0,0,0-26.89-7.36Z"/><path class="cls-10" d="M2709.06,1311.72s20-.24,26.92,2.9c4.22,1.92,9.39,9.66,20.1,12.81,3.69,1.09.58,3.54-1.17,4.1-3.61,1.16-26-2.52-26-2.52Z"/><path class="cls-10" d="M2735.42,1350.07c1.09.32,29.57,14.24,29.57,14.24s1.08-8.57-3-9.62S2735.42,1350.07,2735.42,1350.07Z"/><path class="cls-10" d="M2760.29,1330.94s-.75,12-2.67,14.26-11.54,2.09-11.54,2.09-4.73-6.63-4.83-7.19,12.05-.11,12.39-.68S2755.52,1330.18,2760.29,1330.94Z"/><path class="cls-10" d="M2125.28,1333s-26.85,12.67-34.73,12.33-34.28-6-34.28-6,2.45-5.88,15.14-5.57,22.74-17.63,31.32-20.82c16.07-6,27.88-.68,27.88-.68Z"/><path class="cls-10" d="M2125.29,1310.76s-19.41-5.47-26.86-4.09c-4.56.85-11.44,7.12-22.59,7.61-3.85.17-1.42,3.29.15,4.26,3.22,2,25.85,3.8,25.85,3.8Z"/><path class="cls-10" d="M2090.45,1341.21c-1.13,0-32.13,6.73-32.13,6.73s1-8.59,5.21-8.63S2090.45,1341.21,2090.45,1341.21Z"/><path class="cls-10" d="M2070.91,1316.67s-2.17,11.87-.84,14.48,10.7,4.81,10.7,4.81,6.18-5.3,6.41-5.82-11.66-3-11.86-3.64S2075.72,1317.08,2070.91,1316.67Z"/><path class="cls-9" d="M2422,980.15s-29.59-7.7-58.48,18.92c-23,21.17-18.47,40.09-21.62,67.11-2.05,17.54-32.42,45-22.52,70.48s39.09,3.36,58.23,14.3,66,8,88.22,0c20.54-7.42,31.86,7.49,57.13-15,19.15-17-27.8-61.17-26.57-76C2498.64,1032.6,2469.36,966.19,2422,980.15Z"/><path class="cls-10" d="M2512.66,1457s-206.89,9.28-204.93,0,29.3-55.65,31.25-61.51-11.27-65.93-20.5-108c-3.12-14.22-2.23-31.76.34-48.73,5-33.31,16.4-64.51,16.4-64.51s17.56-4.24,42.39-11.56a18.75,18.75,0,0,0,13.36-16.79c.41-6.35.46-13.1.39-18.67-.07-7.07-.34-12.24-.34-12.24l53.77,1.2a86,86,0,0,0-.76,11.59,168.75,168.75,0,0,0,1.66,22.14,14.92,14.92,0,0,0,11.15,12.46c19.22,4.86,26.77,9.75,47.61,19.44,0,0-.31,2.24-.85,6.34.25-.21.39-.31.39-.31s.58,18.29.55,44.72c0,7.6-.08,15.84-.23,24.53-.58,35.14-21.83,122.46-26,139.19-.12,1.12-.25,2.24-.37,3.36C2492.27,1423,2512.66,1457,2512.66,1457Z"/><path class="cls-16" d="M2339,1395.48c2-5.85-11.27-65.93-20.5-108-3.12-14.22-2.23-31.76.34-48.73l58.79-76.07c1.67,5.55,34.55,20.64,34.55,20.64l46.4-13.06,32.88,32.87,13.1,29.43c0,7.6-.08,15.84-.23,24.53-.58,35.14-21.83,122.46-26,139.19-.12,1.12-.25,2.24-.37,3.36,14.31,23.43,34.7,57.38,34.7,57.38H2307.73C2309.68,1447.72,2337,1401.34,2339,1395.48Z"/><path class="cls-17" d="M2239.21,1501.66c49.6,40.06,120.72,61.84,120.72,61.84s57.26,1.06,122.18,0c63.06-1,124.72-75.89,124.72-75.89s-52.58-.67-67-12.49c-10-8.24-22.19-21.95-34-36.83-8.49-10.7-16.79-22-24-32.34,0,0-14.89,14-75.42,12.54s-75.26-8-75.26-8-7.15,8.45-16.57,19.15c-11.38,12.89-26.06,29-35.53,37.61C2274.89,1471,2239.21,1501.66,2239.21,1501.66Z"/><path class="cls-12" d="M2416,1031.18s-22.79-.41-28,7.22-5.88,16.16-8.49,20.47a16.52,16.52,0,0,0-2.16,9.12s-19.62-50.22,25.67-40.22C2406.3,1028.49,2416,1031.18,2416,1031.18Z"/><path class="cls-13" d="M2698.58,1339.07l-.75-.22A5,5,0,0,0,2698.58,1339.07Z"/><path class="cls-14" d="M2232.37,1499.82c15.11,13.07,59.89,27.45,102.09,38.82,11.83,3.18,23.47,6.13,34.19,8.76,9.68,3,29.31,9.25,50.35,16.57,29.69,10.34,42.68,5.4,57.39,2.8s31.33,7.69,53.12-.27,16.29-50.89,16.29-50.89c-7.39-4.85-36.08-6.24-55.51,7.71s-45.46,11.35-45.46,11.35c-1,.1-3.37-1.09-6.61-3.12,0,0-18.9-11-53.72-38.78-11.2-8.92-24.06-19.58-38.47-32.14-27.48-24-51.18-55.48-78.55-61.29-46.66-9.9-63.25,8.22-63.25,8.22S2192.72,1465.52,2232.37,1499.82Z"/><path class="cls-15" d="M2444,1127.75s-10.61,24.61-28.06,23.14-24.61-23.69-24.61-23.69Z"/><path class="cls-9" d="M2461.79,1098a226.47,226.47,0,0,0,13.43-37.57c3.65-14.42.11-69.12-54.88-65.24a74.17,74.17,0,0,0-31.5,9.38c-12.39,7.13-30.69,23.13-15,71.77l3.8,16.32Z"/><path class="cls-10" d="M2384.92,1121.21c14.23,13.53,31.93,31.57,69.85-2,7.42-6.57,10-20,10.41-34.45.47-17.11,1.42-24.23-.52-34.08-2.3-11.79-15.36-33.53-36.31-35.3-38.45-3.22-51.35,21.78-52.26,41C2374.13,1098,2370.44,1107.45,2384.92,1121.21Z"/><path class="cls-16" d="M2456.84,1162.34l12.32,86.81s9.54,17.13,24.16,39.75c10.34,16,23.2,34.76,37,52.15,2.48,3.12,5,6.21,7.53,9.21,20.91,24.84,40.35,36.5,59,39.4,40.82,6.33,107.6-52.47,107.6-52.47a12.74,12.74,0,0,0,4.57-11.91c-.59-3.48-5.57-13-5.57-13-35.79,20.83-86.89,26-96.66,26.56-3.39.19-14-8.15-26.84-32.56h0c-24.16-45.85-56.29-113.5-63.61-121.78-2.58-2.92-7.12-5.66-12.58-8.16C2485.5,1168,2456.84,1162.34,2456.84,1162.34Z"/><path class="cls-16" d="M2121.64,1334.66s67.89,57.35,106.76,52.67c17.65-2.14,44-10,63.88-32.84,1.73-2,3.47-4,5.19-6.12,36-43.25,67.16-99.22,67.16-99.22l4.15-27.62,8.83-58.89s-24.11,4.51-42.37,11.6c-7.77,3-14.47,6.47-17.82,10.26-8.13,9.19-83.06,151.46-92.52,151.46-9.09,0-53.48-13-94.29-23.69,0,0-7.16,4.11-9,12C2121.06,1326.8,2121.64,1334.66,2121.64,1334.66Z"/><path class="cls-18" d="M2391,1145.86s-17.59,7.25-23.19,19.64c0,0,11.06,29.5,31.33,37.61,0,0,4.51-12.16,13.06-19.82C2412.16,1183.29,2390.94,1158.87,2391,1145.86Z"/><path class="cls-18" d="M2412.16,1183.29s34.19-19.32,33-37.43c0,0,21.79,4.13,26.47,19.88,0,0-14.69,32.64-46.45,39.84C2425.22,1205.58,2421.4,1188,2412.16,1183.29Z"/><path class="cls-11" d="M2407.48,1182.72a4.71,4.71,0,1,1,4.11,5.25A4.71,4.71,0,0,1,2407.48,1182.72Z"/><circle class="cls-11" cx="2409.86" cy="1260.76" r="4.5"/><circle class="cls-11" cx="2409.01" cy="1322.02" r="4.5"/><path class="cls-11" d="M2404.51,1382.82a4.5,4.5,0,1,1,4.5,4.51A4.49,4.49,0,0,1,2404.51,1382.82Z"/><path class="cls-9" d="M2422,1023.59s15.11,5,22,14.22c8.88,11.82,4.46,32.64,12.8,36.82s19.4,6,19.4,6-5.07-57.26-23.54-64-51.8-17.09-69.81,2.28-15.12,63.56-15.12,63.56,8.51-1,18.94-14.46S2389.51,1025.14,2422,1023.59Z"/><path class="cls-19" d="M2401.51,1498.15s-93.9-106.89-153.55-114-55.17,15.33-55.17,27.78.66,60.35,23.73,86.19,132.62,62.69,132.62,62.69S2402.59,1552,2401.51,1498.15Z"/><path class="cls-10" d="M2304.52,1525.88s1,37.38,14.7,41.83c18.85,6.11,33.66-3.68,49.22-.83s28.17,6.91,59.52-4c20.8-7.28,40.32-13.53,51.09-16.92,5.27-1.41,10.74-2.91,16.31-4.48,41.64-11.74,89-27.45,104.18-41.62,36.66-34.3,22.61-95.17,22.61-95.17s-11.93-15.21-55.08-5.31c-25.32,5.81-51.46,30.9-76.76,54.73-10.5,9.88-20.45,19-29.57,27.28-31.78,28.73-53.55,46.57-53.55,46.57l.1.19c-3.31,2.07-5.74,3.28-6.76,3.17,0,0-16.56,6.57-45.34-3.11C2335.12,1521.42,2312.29,1520.72,2304.52,1525.88Z"/><path class="cls-19" d="M2418.77,1504.91s93.9-106.89,153.55-114,55.17,15.34,55.17,27.78-.66,60.35-23.73,86.2-132.63,62.69-132.63,62.69S2417.68,1558.73,2418.77,1504.91Z"/></g><polygon class="cls-5" points="1369.24 1080.42 469.49 1080.42 556.75 889.71 1293.61 889.71 1369.24 1080.42"/><g id="girl_2-3" data-name="girl 2"><path class="cls-20" d="M985.63,459.13c-2.27-6.06-10.52-16.08-16.17-19.22-16.84-9.36-52.07-28.36-90-6.12-50.42,29.6-33.69,73.63-49.38,88.16s-42.91,19.65-28.35,43,1,44,5.71,55.18,54,57.4,98.68,35.42,45.79,10.19,77.59,10.26,78.8-36.7,43.2-66.77c-27.1-22.87,23-45.18-3.29-76.61C1016,513.26,1000.24,498.29,985.63,459.13Z"/><path class="cls-10" d="M1030.22,908.36c-1.92-9.16-28.92-55-30.85-60.74s11.12-65.1,20.25-106.68-16.54-111.81-16.54-111.81-17.34-4.18-41.86-11.42A18.47,18.47,0,0,1,948,601.14c-.91-14.2-.06-30.52-.06-30.52l-53.09,1.19c1.52,10.82.45,23.21-.9,33.3a14.69,14.69,0,0,1-11,12.3c-19,4.8-26.44,9.64-47,19.2,0,0,.3,2.21.83,6.26l-.38-.31s-1,29.91-.32,68.38c.58,34.7,21.56,120.92,25.66,137.44.12,1.11.23,2.22.35,3.33-14.13,23.12-34.26,56.65-34.26,56.65S1032.15,917.52,1030.22,908.36Z"/><path class="cls-17" d="M1097.89,952.47c-49,39.55-119.21,61.06-119.21,61.06s-56.53,1-120.64,0c-62.27-1-123.16-74.94-123.16-74.94s51.92-.66,66.17-12.33c9.92-8.14,21.9-21.67,33.55-36.37,8.38-10.56,16.58-21.72,23.72-31.93,0,0,14.7,13.87,74.47,12.38s74.31-7.88,74.31-7.88,7.06,8.35,16.36,18.91c11.23,12.73,25.74,28.68,35.08,37.14C1062.65,922.22,1097.89,952.47,1097.89,952.47Z"/><path class="cls-12" d="M923.34,487.91s22.5-.41,27.61,7.13,5.81,15.95,8.38,20.2a16.34,16.34,0,0,1,2.14,9s19.37-49.59-25.35-39.72C932.9,485.25,923.34,487.91,923.34,487.91Z"/><path class="cls-13" d="M644.3,791.92c.23-.07.48-.15.73-.21C644.9,791.75,644.65,791.84,644.3,791.92Z"/><path class="cls-14" d="M1104.63,950.65c-14.91,12.91-59.13,27.1-100.79,38.33-11.69,3.14-23.18,6.06-33.77,8.65-9.55,3-28.94,9.13-49.72,16.36-29.32,10.21-42.14,5.33-56.67,2.77s-30.93,7.59-52.45-.27-16.08-50.25-16.08-50.25c7.29-4.78,35.63-6.16,54.81,7.61s44.89,11.21,44.89,11.21c1,.1,3.33-1.07,6.53-3.08,0,0,18.66-10.91,53-38.29,11.06-8.82,23.76-19.33,38-31.74,27.13-23.66,50.53-54.78,77.56-60.52,46.07-9.77,62.45,8.12,62.45,8.12S1143.79,916.78,1104.63,950.65Z"/><path class="cls-15" d="M895.63,583.26s10.48,24.3,27.71,22.85,24.3-23.4,24.3-23.4Z"/><path class="cls-20" d="M878.1,553.89a224.13,224.13,0,0,1-13.26-37.09c-3.6-14.24-.11-68.25,54.19-64.42a73.15,73.15,0,0,1,31.1,9.26c12.24,7,30.31,22.84,14.84,70.86l-3.75,16.12Z"/><path class="cls-10" d="M954,576.8c-14.06,13.37-31.53,31.18-69-2-7.33-6.48-9.9-19.74-10.28-34-.47-16.89-1.41-23.92.51-33.65,2.27-11.64,15.17-33.11,35.85-34.85,38-3.19,50.71,21.5,51.6,40.49C964.66,553.89,968.31,563.21,954,576.8Z"/><path class="cls-10" d="M883,617.41l-12.16,85.72S861.41,720,847,742.38c-10.21,15.8-22.91,34.32-36.58,51.49C807.94,797,805.46,800,803,803c-20.65,24.53-42.76,44.51-61.25,46.74-.56.07-1.13.12-1.71.16l-.88,0c-5.65.19-12-1.11-18.58-3.47l-1.06-.39a3.43,3.43,0,0,1-.45-.16c-38.82-14.58-100.89-22.6-100.89-22.6l3.76-21.17h0c26.86-3.3,103.36-1.17,113-.65,3.34.18,13.8-17.82,26.5-41.92h0C785.24,714.27,817,647.47,824.2,639.3c2.55-2.89,7-5.59,12.42-8.06C854.69,623,883,617.41,883,617.41Z"/><path class="cls-10" d="M1230.43,814.46s-88.89,39.88-127.26,35.25c-17.43-2.11-38.07-20-57.68-42.56-1.72-2-3.44-4-5.13-6-35.52-42.71-66.32-98-66.32-98L970,675.86l-8.73-58.15s23.82,4.46,41.84,11.45c7.67,3,14.29,6.4,17.6,10.14,8,9.07,46.16,90.21,70.28,134.16,9.21,16.79,16.38,28.16,19,28,9.65-.52,87.54,5,111.09-5.25l9.36,7.55Z"/><path class="cls-16" d="M1020.66,639.3c-3.3-3.74-9.92-7.16-17.57-10.13v0s-26.36,31.73-81.44,32.22S837.19,631,837.19,631l-.57.25c-5.39,2.47-9.87,5.17-12.42,8.06-7.23,8.17-39,75-62.81,120.24h0c.07.51,2.17,16.12,16.23,29.27h0A62.89,62.89,0,0,0,803,803a569.89,569.89,0,0,0,36.33-48.9l1.22-1.83,1.08,5.13,4.26,117.88c25.84,8.25,56.4,17.07,75.91,17.07,50,0,97.49-15.77,97.49-15.77s-.65-81.45-4.51-108.4a1.62,1.62,0,0,1,.13-.6,498.24,498.24,0,0,0,30.63,39.6,68.71,68.71,0,0,0,27.28-12.36,66.26,66.26,0,0,0,18.17-21.33C1066.82,729.51,1028.68,648.37,1020.66,639.3Z"/><path class="cls-10" d="M620,823.15S595.78,839.73,588,840.63s-34.36-.44-34.36-.44,1.46-6.12,13.88-7.81,19.23-21.09,27.27-25.22,27.06-5,27.06-5Z"/><path class="cls-10" d="M615.94,802.58s-19.25-3.38-26.3-.86c-4.31,1.54-10,8.73-20.82,11-3.73.77-.87,3.44.81,4.13,3.46,1.43,25.81-.35,25.81-.35Z"/><path class="cls-10" d="M587.3,836.64c-1.1.23-30.27,11.6-30.27,11.6s-.36-8.52,3.72-9.22S587.3,836.64,587.3,836.64Z"/><path class="cls-10" d="M564.39,815.79s-.25,11.91,1.46,14.25S577,833,577,833s5.2-6.14,5.34-6.68-11.85-1.1-12.13-1.68S569.14,815.43,564.39,815.79Z"/><path class="cls-10" d="M1223.8,815.88s24.91,15.45,32.68,16,34.3-2,34.3-2-1.74-6.05-14.22-7.17-20-20.68-28.39-23.94c-16.28-6.3-27.1-2.53-27.1-2.53Z"/><path class="cls-10" d="M1226.87,795.14s19.06-4.26,26.22-2.06c4.38,1.34,10.43,8.26,21.31,10,3.76.6,1,3.39-.62,4.17-3.39,1.58-25.8.83-25.8.83Z"/><path class="cls-10" d="M1257,827.86c1.11.18,30.77,10.2,30.77,10.2s0-8.54-4.14-9S1257,827.86,1257,827.86Z"/><path class="cls-10" d="M1279,806s.81,11.89-.8,14.3-11,3.52-11,3.52-5.47-5.89-5.64-6.43,11.78-1.64,12-2.24S1274.2,805.83,1279,806Z"/><path class="cls-20" d="M893.56,483.23s14.68,17.17,28.07,25.28,35.4,7.83,35.4,7.83-11-10.27-12.54-18.1c0,0,15.18,18.37,21.16,18.1s1.5-42.13-18-46.46S878.25,462.56,893.56,483.23Z"/><path class="cls-20" d="M909.23,477.41s-25.08,9.22-26.62,27.45c-1.38,16.46-8.5,23.63-8.5,23.63s-10.7-4.59-6.74-19.35,6.76-29.53,15.62-34.93,23.27-6.13,23.27-6.13Z"/><path class="cls-19" d="M950.91,946.76s84.94-96.68,138.89-103.09,49.91,13.87,49.91,25.13-.6,54.59-21.47,78-120,56.71-120,56.71S949.93,995.45,950.91,946.76Z"/><path class="cls-10" d="M1033.4,976.38s-1,36.91-14.52,41.3c-18.61,6-33.24-3.63-48.6-.82s-27.82,6.83-58.77-4c-20.54-7.18-39.82-13.35-50.45-16.7-5.21-1.39-10.61-2.87-16.1-4.42-41.12-11.6-87.91-27.11-102.87-41.1-36.2-33.87-22.33-94-22.33-94s11.78-15,54.39-5.25c25,5.74,50.81,30.52,75.79,54,10.37,9.76,20.19,18.79,29.2,26.94,31.38,28.37,52.88,46,52.88,46l-.1.18c3.27,2,5.66,3.24,6.67,3.13,0,0,16.36,6.49,44.77-3.06C1003.18,972,1025.72,971.29,1033.4,976.38Z"/><path class="cls-19" d="M901.56,946.76s-84.94-96.68-138.89-103.09-49.9,13.87-49.9,25.13.59,54.59,21.46,78,120,56.71,120,56.71S902.54,995.45,901.56,946.76Z"/></g><path class="cls-10" d="M505.44,1042.06s-1.42,43.75-7,63.35l-44.31,30.92,166.82,25-39.78-77.11s-12-36.52-5.71-58.22S505.44,1042.06,505.44,1042.06Z"/><path class="cls-21" d="M505.2,1048.11s13.19,31.75,38,31.05,30.5-28.8,30.5-28.8Z"/><path class="cls-22" d="M491.47,1019.25s-9.13-36.92-14.73-49-10.27-66.26,51.8-69.06c0,0,23.8,2.8,36.86-5.14,0,0,0,7.94-3.26,10.74a41.23,41.23,0,0,1,38.26,13.53c16.8,18.67-11.2,84-9.8,99.4Z"/><path class="cls-10" d="M540.39,1066.89c-18-.32-51.15-24.29-51.15-54V966.58c0-10.84,7.56-19.71,16.8-19.71h68.7c9.24,0,16.79,8.87,16.79,19.71v43.71C591.53,1041.42,561,1067.26,540.39,1066.89Z"/><path class="cls-22" d="M489.24,991.32s.1-27.84,22.15-32.12,71.39,13.57,78.39-6.73-95.38-20-100.54-7S489.24,991.32,489.24,991.32Z"/><path class="cls-16" d="M526,1037.05s5.61,7.59,15.41,7.31a18.33,18.33,0,0,0,14.4-7.31S539.32,1034.34,526,1037.05Z"/><polygon class="cls-5" points="993.17 1628.77 82.24 1628.77 170.59 1435.69 916.6 1435.69 993.17 1628.77"/><path class="cls-16" d="M643.09,1428s-149.7,35.94-205.93,0c-22.55-14.4-21.14-111.06-22.48-157.9-.15-5.21,0-11.37.28-18.23,2.58-54.61,10.26-137,22.85-142.23,0,0,32.09-17.86,64.49-25.59,0,.64,15.32,28,38.09,31.12,14.3-1.1,25.27-10.37,40.76-30.94,19.61,2.28,45.06,11.14,67.94,17.29,0,0-17.23,6.89,7.3,186.15C672,1401.82,662.18,1428.19,643.09,1428Z"/><path class="cls-13" d="M259.1,1267.08l.74-.22A6.94,6.94,0,0,1,259.1,1267.08Z"/><path class="cls-11" d="M718.46,1499.48c-49.6,39.78-120.72,61.42-120.72,61.42s-57.25,1-122.18,0c-63.06-1-124.72-75.38-124.72-75.38s52.58-.66,67-12.41c10.05-8.18.05-39.55,11.84-54.34-4.23,1.9-29.52,5.22,122.76-.93,34.32-1.38,99,1.56,100,.93,11.37,12.81,16.72,38,26.19,46.54C682.78,1469.05,718.46,1499.48,718.46,1499.48Z"/><path class="cls-10" d="M213.13,1388.52s-29.65,24.17-39.62,26.18-44.72,3.14-44.72,3.14,1.23-8.11,17.2-11.66,23.95-27.87,32.73-35.75a40.27,40.27,0,0,1,34.66-9.48Z"/><path class="cls-10" d="M206.09,1360.18s-25.8-.3-34.7,3.74c-5.44,2.47-12.1,12.44-25.9,16.51-4.76,1.4-.75,4.56,1.51,5.28,4.65,1.49,33.52-3.25,33.52-3.25Z"/><path class="cls-10" d="M172.12,1409.59C170.72,1410,134,1428,134,1428s-1.39-11,3.84-12.4S172.12,1409.59,172.12,1409.59Z"/><path class="cls-10" d="M140.07,1384.94s1,15.53,3.44,18.38,14.86,2.7,14.86,2.7,6.1-8.54,6.23-9.27-15.53-.14-16-.87S146.21,1384,140.07,1384.94Z"/><path class="cls-10" d="M881.39,1388.52S911,1412.69,921,1414.7s44.73,3.14,44.73,3.14-1.24-8.11-17.21-11.66-23.95-27.87-32.73-35.75a40.24,40.24,0,0,0-34.65-9.48Z"/><path class="cls-10" d="M888.43,1360.18s25.8-.3,34.7,3.74c5.44,2.47,12.1,12.44,25.9,16.51,4.76,1.4.75,4.56-1.51,5.28-4.65,1.49-33.52-3.25-33.52-3.25Z"/><path class="cls-10" d="M922.41,1409.59c1.4.42,38.1,18.36,38.1,18.36s1.39-11-3.84-12.4S922.41,1409.59,922.41,1409.59Z"/><path class="cls-10" d="M954.45,1384.94s-1,15.53-3.44,18.38-14.86,2.7-14.86,2.7-6.1-8.54-6.22-9.27,15.52-.14,16-.87S948.31,1384,954.45,1384.94Z"/><path class="cls-16" d="M502.3,1084s-90.38,10.63-111.1,51.55S339.28,1316.26,310,1319.93C293,1322.06,202,1358.6,202,1358.6s-10.81,29.72,10.81,42.48c4.64,2.75,118.24-5.1,151.89-24.56s89.39-109,89.39-109Z"/><path class="cls-16" d="M581.74,1084s90.38,10.63,111.1,51.55,63.16,173.76,79.85,177.56c36,8.2,131.43,47.53,131.43,47.53s5.38,30.61-23,41c-5.07,1.85-127.06-9.07-160.71-28.52s-90.51-105.61-90.51-105.61Z"/><path class="cls-14" d="M723.25,1481.65c-16.75,14.49-44.65,47.81-91.43,60.41-13.12,3.53-26,6.8-37.9,9.71-10.73,3.35-32.5,10.25-55.82,18.37-32.92,11.47-47.31,6-63.63,3.11s-34.72,8.53-58.88-.3-18-56.42-18-56.42c8.18-5.37,40-6.92,61.53,8.55s50.4,12.58,50.4,12.58c1.1.12,3.73-1.2,7.33-3.45,0,0,20.94-12.26,59.55-43,12.41-9.89,26.67-21.7,42.65-35.63,30.46-26.56,56.73-61.5,87.08-67.94,51.71-11,70.1,9.11,70.1,9.11S767.2,1443.63,723.25,1481.65Z"/><path class="cls-9" d="M505.77,1520.86s145-192.19,250.42-140.42S688.63,1535.27,561.62,1565C561.62,1565,509.37,1565,505.77,1520.86Z"/><path class="cls-10" d="M665,1527.92s-1.09,41.43-16.3,46.37c-20.89,6.77-37.31-4.08-54.55-.92s-31.24,7.66-66-4.48c-23.06-8.07-44.7-15-56.64-18.75-5.85-1.57-11.91-3.23-18.08-5-46.16-13-101.83-57.68-118.63-73.39-40.65-38-21.93-78.25-21.93-78.25s13.23-16.87,61.06-5.89c28.07,6.44,57.05,34.26,85.1,60.67,11.64,11,22.66,21.09,32.77,30.24,35.24,31.85,59.37,51.63,59.37,51.63l-.1.21c3.67,2.3,6.35,3.63,7.49,3.51,0,0,18.35,7.29,50.25-3.44C631.09,1523,656.39,1522.2,665,1527.92Z"/><path class="cls-9" d="M566.85,1524.35s-145-192.19-250.42-140.42S384,1538.76,511,1568.49C511,1568.49,563.25,1568.49,566.85,1524.35Z"/><path class="cls-23" d="M503.72,1070.13s-9.61,4.37-11.42,15.37c0,0,27.61,29.84,47.05,30.3Z"/><path class="cls-23" d="M539.35,1115.8l37.74-46.9s12.11,7.59,12,16.16C589.09,1085.06,555.84,1117,539.35,1115.8Z"/><path class="cls-19" d="M532.44,1112.56s-29.28,252.69-19.08,283.49a210.32,210.32,0,0,0,27.09,53.53s26.65-41.3,26.65-57.35-22.21-279.89-22.21-279.89Z"/><path class="cls-23" d="M524.78,1100.17s17.69-1.77,28.46-.68a3,3,0,0,1,2.28,4.43c-3,5.44-9.18,14.86-15.62,14.86C530.85,1118.78,516.75,1100.8,524.78,1100.17Z"/><path class="cls-10" d="M584.68,989.75s12-13.86,16.69-7.49c9.39,12.67-8,34.78-13.45,31.44S584.68,989.75,584.68,989.75Z"/><path class="cls-10" d="M496.45,989.75s-12-13.86-16.69-7.49c-9.39,12.67,8,34.78,13.44,31.44S496.45,989.75,496.45,989.75Z"/><path class="cls-22" d="M1456.17,832.33s-14.41-19-16.44-32.41-16.21-49.61,0-76.77,33.12-31.7,62.84-31.7,53.37,3.19,62.83,22.78,12.45,94.1-11,119.34S1456.17,832.33,1456.17,832.33Z"/><path class="cls-10" d="M1470.75,850.09s-1.42,43.74-7,63.34l-44.32,30.92,166.83,25-39.78-77.11s-12-36.51-5.72-58.21S1470.75,850.09,1470.75,850.09Z"/><path class="cls-21" d="M1470.5,856.13s13.2,31.75,38,31,30.51-28.8,30.51-28.8Z"/><path class="cls-10" d="M1505.7,874.91c-18-.32-51.15-24.29-51.15-54V774.6c0-10.84,7.56-19.71,16.8-19.71H1540c9.24,0,16.8,8.87,16.8,19.71v43.71C1556.84,849.44,1526.35,875.28,1505.7,874.91Z"/><path class="cls-22" d="M1454.55,787.79s8.16-28.3,24.37-22.21,30.4,14.56,50.67,8.63,27.25-8.15,27.25.39,20.72-36.05-30.63-39.43-76.34-6.06-81.07,11.59S1454.55,787.79,1454.55,787.79Z"/><polygon class="cls-5" points="1958.47 1436.79 1047.55 1436.79 1135.89 1243.71 1881.91 1243.71 1958.47 1436.79"/><path class="cls-16" d="M1608.4,1236s-149.7,35.94-205.94,0c-22.54-14.4-21.13-111.06-22.47-157.9-.16-5.21,0-11.37.28-18.23,2.57-54.61,10.26-136.95,22.85-142.22,0,0,32.09-17.87,64.49-25.6,0,.64,1,32.16,38.09,31.12,27.61.53,38.92-14.84,40.76-30.94,19.61,2.28,45.06,11.14,67.94,17.29,0,0-17.23,6.89,7.3,186.15C1637.33,1209.84,1627.48,1236.21,1608.4,1236Z"/><path class="cls-13" d="M1224.4,1075.1l.75-.22A7.35,7.35,0,0,1,1224.4,1075.1Z"/><path class="cls-24" d="M1683.77,1307.5c-49.61,39.78-120.72,61.42-120.72,61.42s-57.26,1-122.18,0c-63.06-1-124.72-75.38-124.72-75.38s52.57-.66,67-12.41c10-8.18,0-39.55,11.84-54.34-4.23,1.9,60.86,23.21,108,19.82,34-2.43,113.75-19.19,114.73-19.82,11.37,12.81,16.72,38,26.19,46.55C1648.09,1277.07,1683.77,1307.5,1683.77,1307.5Z"/><path class="cls-10" d="M1178.44,1196.54s-29.65,24.17-39.62,26.18-44.73,3.14-44.73,3.14,1.24-8.11,17.21-11.66,24-27.87,32.73-35.74a40.29,40.29,0,0,1,34.66-9.49Z"/><path class="cls-10" d="M1171.4,1168.21s-25.8-.31-34.7,3.73c-5.44,2.47-12.1,12.44-25.9,16.51-4.76,1.4-.75,4.56,1.51,5.28,4.65,1.49,33.52-3.25,33.52-3.25Z"/><path class="cls-10" d="M1137.43,1217.62c-1.41.41-38.11,18.35-38.11,18.35s-1.39-11,3.84-12.4S1137.43,1217.62,1137.43,1217.62Z"/><path class="cls-10" d="M1105.38,1193s1,15.53,3.44,18.38,14.86,2.7,14.86,2.7,6.1-8.54,6.23-9.27-15.53-.14-16-.87S1111.52,1192,1105.38,1193Z"/><path class="cls-10" d="M1846.7,1196.54s29.65,24.17,39.62,26.18,44.73,3.14,44.73,3.14-1.24-8.11-17.21-11.66-23.95-27.87-32.73-35.74a40.29,40.29,0,0,0-34.66-9.49Z"/><path class="cls-10" d="M1853.74,1168.21s25.8-.31,34.7,3.73c5.44,2.47,12.1,12.44,25.9,16.51,4.76,1.4.75,4.56-1.51,5.28-4.65,1.49-33.52-3.25-33.52-3.25Z"/><path class="cls-10" d="M1887.71,1217.62c1.41.41,38.11,18.35,38.11,18.35s1.39-11-3.84-12.4S1887.71,1217.62,1887.71,1217.62Z"/><path class="cls-10" d="M1919.76,1193s-1,15.53-3.44,18.38-14.86,2.7-14.86,2.7-6.1-8.54-6.23-9.27,15.53-.14,16-.87S1913.62,1192,1919.76,1193Z"/><path class="cls-9" d="M1457.61,893.52s-80.38,9.13-101.1,50.05-51.92,180.71-81.24,184.38c-17,2.13-107.94,38.67-107.94,38.67s-10.81,29.72,10.81,42.49c4.64,2.74,118.24-5.11,151.89-24.57s89.38-109,89.38-109Z"/><path class="cls-9" d="M1554.4,893.08s83,9.57,103.75,50.49,63.16,173.76,79.85,177.56c36,8.2,131.43,47.53,131.43,47.53s5.38,30.61-23,41c-5.06,1.86-127-9.06-160.7-28.52s-90.51-105.61-90.51-105.61Z"/><path class="cls-9" d="M1457.61,893.52l-5.5,375s-77.6-17.58-76.07-24.81-12.7-162.62,3.88-234.24S1457.61,893.52,1457.61,893.52Z"/><path class="cls-9" d="M1554.4,893.08l-5.55,375.44s77.59-17.58,76.06-24.81,12.7-162.62-3.87-234.24S1554.4,893.08,1554.4,893.08Z"/><path class="cls-14" d="M1688.56,1289.67c-16.75,14.5-44.65,47.81-91.43,60.42-13.12,3.52-26,6.79-37.9,9.7-10.73,3.35-32.5,10.25-55.82,18.37-32.92,11.47-47.32,6-63.63,3.11s-34.72,8.53-58.88-.3-18.06-56.42-18.06-56.42c8.19-5.37,40-6.92,61.54,8.55s50.4,12.58,50.4,12.58c1.1.12,3.73-1.2,7.32-3.45,0,0,21-12.26,59.56-43,12.41-9.89,26.67-21.7,42.64-35.63,30.46-26.56,56.73-61.5,87.08-67.94,51.72-11,70.11,9.11,70.11,9.11S1732.51,1251.65,1688.56,1289.67Z"/><path class="cls-11" d="M1471.07,1328.88s145-192.19,250.43-140.42-67.56,154.83-194.57,184.56C1526.93,1373,1474.68,1373,1471.07,1328.88Z"/><path class="cls-10" d="M1630.32,1335.94s-1.1,41.43-16.3,46.37c-20.89,6.78-37.31-4.08-54.56-.92s-31.23,7.66-66-4.48c-23.07-8.07-44.7-15-56.64-18.75-5.85-1.57-11.91-3.23-18.08-5-46.16-13-101.83-57.68-118.63-73.39-40.65-38-21.93-78.25-21.93-78.25s13.23-16.87,61.06-5.89c28.07,6.44,57,34.26,85.1,60.67,11.63,11,22.66,21.09,32.77,30.24,35.23,31.85,59.37,51.63,59.37,51.63l-.11.21c3.67,2.3,6.36,3.63,7.5,3.51,0,0,18.35,7.29,50.25-3.44C1596.4,1331,1621.7,1330.22,1630.32,1335.94Z"/><path class="cls-11" d="M1532.16,1332.37s-145-192.19-250.43-140.42,67.57,154.83,194.58,184.56C1476.31,1376.51,1528.56,1376.51,1532.16,1332.37Z"/><path class="cls-11" d="M1457.61,893.52s-19,1.18-32.28,6.54c0,0-9.29,78.33-10.62,103.33,0,0,9.71,11.49,18.27,11.94l-8.11,13L1454.05,1136Z"/><path class="cls-11" d="M1554.4,893.08s14.15-.15,27.45,5.21c0,0,7.26,80.1,8.58,105.1,0,0-9.71,11.49-18.26,11.94l8.1,13L1551.09,1136Z"/><path class="cls-10" d="M1460.86,793.73s-12-13.86-16.69-7.49c-9.39,12.67,8,34.78,13.44,31.44S1460.86,793.73,1460.86,793.73Z"/><path class="cls-10" d="M1547.35,793.73s12-13.86,16.69-7.49c9.39,12.67-8,34.78-13.44,31.44S1547.35,793.73,1547.35,793.73Z"/><path class="cls-22" d="M1529.07,849.85v18.07c-7.85,5.34-16.28,8.4-23.48,8.28-6.28-.13-14.43-3.09-22.32-8.15v-18.2c0-10.09,8.53-18.35,19-18.35h7.9C1520.54,831.5,1529.07,839.76,1529.07,849.85Z"/><path class="cls-22" d="M1550.76,842.59c-9,19.74-29.85,33.87-45.17,33.61-14.73-.26-39.89-16.32-47.39-38l-.07-.19-.15-.52s15.81,13.06,26.27,6.59h43.92S1539.67,850.4,1550.76,842.59Z"/><path class="cls-25" d="M303.31,726.63s-25.83-30.12-1.6-49.26c0,0,17.7-10.71,32.13-9.84,0,0-20.44,34.29-13.83,37.7s20-39.85,20-39.85,40.28-3.91,53.24,2.32c0,0-34.44,28.18-27.18,29.85s44.44-26,44.44-26S448,678,446,700.82s-14.92,29.93-20.6,29.32-38.88-13.28-39.61-8.63,19.27,19.85,33.27,20.56c0,0-26.43,29.15-44,20.74s-19.07-21.75-30-26.75-20.29-5-15.77.11,24.33,10.06,30.59,21.14,11.88,18.54-6.29,15.81-47.71-16-49-31.26Z"/><path class="cls-25" d="M427.61,701.44s-101.82-3.93-124.3,25.19c0,0-5,14.9-20.28,28.46l-2.38,6.5s17.64-18.61,24-19.73C304.6,741.86,294.73,705.79,427.61,701.44Z"/><path class="cls-25" d="M283,755.09s-21.85,16.16-23.37,45l4,.35s7-29.86,19.59-41.53S283,755.09,283,755.09Z"/><path class="cls-25" d="M213,688.75s41.08-23,21.91-54.23c0,0-15.34-19.17-31.77-24.09,0,0,8.77,46.55,0,47.65s-6-52.58-6-52.58-43.27-20.82-60.25-19.17c0,0,26.84,45.46,18.08,44.36s-38.89-47.1-38.89-47.1-44.36-8.22-51.48,18.07,4.38,39.44,11,41.08,48.74,1.1,47.65,6.57-29.58,14.24-45.46,9.31c0,0,17.53,43.27,40.53,41.08s30.12-16.43,44.36-17.53,24.65,2.74,17.53,6.58-31.22,1.25-42.72,11-20.81,15.8.55,20.18,59.7,1.65,67.36-14.78Z"/><path class="cls-25" d="M84.86,609.88s115,37.24,128.16,78.87c0,0-.55,18.62,11,40v8.21s-12-27.93-18.63-31.76C205.35,705.18,231.1,669,84.86,609.88Z"/><path class="cls-25" d="M224,728.73s17.73,26.93,7.62,59.72L227,787.23s4.43-36.12-4.85-54.28S224,728.73,224,728.73Z"/><path class="cls-6" d="M278.37,657s-54.15-30.32-28.88-71.47c0,0,20.22-25.27,41.88-31.77,0,0-11.55,61.37,0,62.81s7.94-69.31,7.94-69.31,57-27.43,79.42-25.27c0,0-35.38,59.93-23.83,58.48s51.26-62.09,51.26-62.09,58.48-10.83,67.86,23.83-5.77,52-14.43,54.15-64.26,1.44-62.82,8.66,39,18.77,59.93,12.27c0,0-23.1,57-53.43,54.15s-39.71-21.66-58.48-23.1S312.3,652,321.69,657s41.15,1.66,56.31,14.55,27.44,20.83-.72,26.6-78.69,2.17-88.8-19.49Z"/><path class="cls-6" d="M447.31,553.06S295.7,602.15,278.37,657c0,0,.72,24.55-14.44,52.71v10.82s15.89-36.82,24.55-41.87C288.48,678.68,254.55,631,447.31,553.06Z"/><path class="cls-6" d="M263.93,709.73s-23.38,35.5-10.05,78.72l6-1.61s-5.84-47.61,6.39-71.55S263.93,709.73,263.93,709.73Z"/><path class="cls-6" d="M276.55,882.18A106.06,106.06,0,0,0,382.61,776.11H170.48A106.07,106.07,0,0,0,276.55,882.18Z"/><path class="cls-5" d="M302.65,881.36A106.08,106.08,0,0,1,183.41,776.11h26.35A106.07,106.07,0,0,0,302.65,881.36Z"/><rect class="cls-6" x="166.99" y="776.11" width="218.03" height="3.25"/></g></g></svg>