<svg xmlns="http://www.w3.org/2000/svg" viewBox="0 0 2890.03 1409.49"><defs><style>.cls-1{fill:#ebf3fa;}.cls-2{fill:#b0d4ff;}.cls-3{fill:#95c0f4;}.cls-4{fill:#cae5ff;}.cls-5{fill:#dfedfb;}.cls-6{fill:#fff;}.cls-7{fill:#ffa412;}.cls-8{fill:#eef6ff;}.cls-9{fill:#78acea;}.cls-10{fill:#bae8e3;}.cls-11{fill:#a1d6ce;}.cls-12{fill:#f99746;}.cls-13{fill:#c0d8fb;}.cls-14{fill:#dfebfd;}.cls-15{fill:#b7d3f3;}.cls-16{fill:#ffb27d;}.cls-17{fill:#233862;}.cls-18{fill:#a9453d;}.cls-19{fill:#ed975d;}.cls-20{fill:#2a4e96;}.cls-21{fill:#5f9aa8;}.cls-22{fill:#1e3d70;}.cls-23{fill:#ed7d2b;}.cls-24{fill:#163560;}.cls-25{fill:#b0d0ff;}.cls-26{fill:#98baf4;}.cls-27{fill:#e8945b;}.cls-28{fill:#f2ccaa;}.cls-29{fill:#b5453c;}.cls-30{fill:#2b478b;}.cls-31{fill:#ebf3ff;}.cls-32{fill:#213f7a;}.cls-33{fill:#e2915a;}.cls-34{fill:#2e3552;}</style></defs><title>workAsset 1</title><g id="Layer_2" data-name="Layer 2"><g id="Слой_1" data-name="Слой 1"><path class="cls-1" d="M202.33,1403.72c.12.09,2521.5-.31,2521.5-.31,83-177.06,82.87-263.57,92.32-365.06C2868.3,477.4,2445.8,391.16,2322,367.77c-379-71.62-206.49-426-1194.08-359.51C1037.43,14.36,824,63.55,750.47,95.43c-51.59,22.33-246,122.28-303,291.35-18,53.37-22.34,113.61-4.18,180.48C507.59,803.87,340,790.27,217.59,903,54.17,1053.52,71.25,1299.63,202.33,1403.72Z"/><path class="cls-2" d="M1704.25,1403.56h.34a3.62,3.62,0,0,0,3.63-3.71l-5.5-238.41-16.2-1.89,13.82,240.32A3.91,3.91,0,0,0,1704.25,1403.56Z"/><path class="cls-3" d="M1798.67,1403.56h.34a3.62,3.62,0,0,0,3.63-3.71l-5.5-238.41-16.2-1.89,13.81,240.32A3.92,3.92,0,0,0,1798.67,1403.56Z"/><path class="cls-2" d="M1538.12,1403.56h-.34a3.63,3.63,0,0,1-3.63-3.71l5.5-238.41,16.21-1.89L1542,1399.87A3.92,3.92,0,0,1,1538.12,1403.56Z"/><path class="cls-2" d="M1809.4,1146.66V983.29a52,52,0,0,0-52-52H1639.65a52.06,52.06,0,0,0-52.05,52V1152.9Z"/><path class="cls-3" d="M1582.15,1146.66H1809.4a0,0,0,0,1,0,0v25.79a0,0,0,0,1,0,0H1566.52a0,0,0,0,1,0,0v-10.16A15.63,15.63,0,0,1,1582.15,1146.66Z" transform="translate(3375.92 2319.11) rotate(180)"/><rect class="cls-4" x="1527.73" y="1146.66" width="195.04" height="25.79" rx="11.56" transform="translate(3250.5 2319.11) rotate(180)"/><rect class="cls-3" x="1256.93" y="286.83" width="678.53" height="585.74"/><rect class="cls-5" x="1269.84" y="296.58" width="652.42" height="564.3"/><polygon class="cls-6" points="1497.87 542.11 1354.91 542.11 1354.91 363.59 1379.15 341.73 1497.87 341.73 1497.87 542.11"/><polygon class="cls-2" points="1354.91 363.59 1378.37 363.59 1379.15 341.73 1354.91 363.59"/><rect class="cls-2" x="1403.5" y="359.11" width="45.77" height="2.18"/><rect class="cls-2" x="1392.72" y="365.65" width="67.33" height="2.18"/><rect class="cls-2" x="1371.83" y="407.65" width="111.79" height="2.8"/><rect class="cls-2" x="1371.83" y="416.16" width="111.79" height="2.8"/><rect class="cls-2" x="1371.83" y="424.67" width="111.79" height="2.8"/><rect class="cls-2" x="1371.83" y="433.18" width="111.79" height="2.8"/><rect class="cls-2" x="1371.83" y="524.27" width="111.79" height="2.8"/><polygon class="cls-6" points="1662.95 789.78 1519.98 789.78 1519.98 611.26 1544.23 589.41 1662.95 589.41 1662.95 789.78"/><polygon class="cls-2" points="1519.98 611.26 1543.45 611.26 1544.23 589.41 1519.98 611.26"/><rect class="cls-2" x="1568.58" y="606.79" width="45.78" height="2.18"/><rect class="cls-2" x="1557.8" y="613.33" width="67.33" height="2.18"/><rect class="cls-2" x="1536.91" y="655.33" width="111.79" height="2.8"/><rect class="cls-2" x="1536.91" y="663.84" width="111.79" height="2.8"/><rect class="cls-2" x="1536.91" y="672.35" width="111.79" height="2.8"/><rect class="cls-2" x="1536.91" y="680.86" width="111.79" height="2.8"/><rect class="cls-2" x="1536.91" y="707.05" width="111.79" height="2.8"/><rect class="cls-2" x="1536.91" y="715.56" width="111.79" height="2.8"/><rect class="cls-2" x="1536.91" y="725.43" width="111.79" height="2.8"/><rect class="cls-2" x="1664.68" y="341.73" width="78.94" height="69.6"/><path class="cls-7" d="M1700.7,350a3.46,3.46,0,1,1,3.45,3.45A3.45,3.45,0,0,1,1700.7,350Z"/><rect class="cls-6" x="1664.68" y="435.86" width="78.94" height="69.6" transform="translate(-28.64 119.82) rotate(-3.99)"/><path class="cls-2" d="M1699.16,448.76a3.45,3.45,0,1,1,3.69,3.21A3.45,3.45,0,0,1,1699.16,448.76Z"/><rect class="cls-6" x="1402.35" y="692.26" width="78.94" height="69.6" transform="translate(-47.13 102.17) rotate(-3.99)"/><path class="cls-2" d="M1436.83,705.16a3.45,3.45,0,1,1,3.69,3.21A3.45,3.45,0,0,1,1436.83,705.16Z"/><rect class="cls-6" x="1301.11" y="739.95" width="78.94" height="69.6" transform="translate(-7.87 13.79) rotate(-0.59)"/><path class="cls-2" d="M1336.89,752.59a3.46,3.46,0,1,1,3.5,3.42A3.47,3.47,0,0,1,1336.89,752.59Z"/><rect class="cls-8" x="1776.17" y="481.64" width="78.94" height="69.6" transform="translate(119.17 -311.37) rotate(10.13)"/><path class="cls-9" d="M1817.15,490.93a3,3,0,1,1,2.43,3.49A3,3,0,0,1,1817.15,490.93Z"/><rect class="cls-8" x="1543.15" y="435.86" width="78.94" height="69.6" transform="translate(-41.45 173.02) rotate(-6.18)"/><path class="cls-9" d="M1576.91,445.76a3,3,0,1,1,3.31,2.67A3,3,0,0,1,1576.91,445.76Z"/><rect class="cls-10" x="1342.39" y="603.8" width="78.94" height="69.6" transform="translate(-102.79 302.22) rotate(-12.04)"/><path class="cls-7" d="M1374.93,616.28a3,3,0,1,1,4.16-.89A3,3,0,0,1,1374.93,616.28Z"/><polygon class="cls-6" points="1620.19 411.33 1545.06 411.33 1545.06 360.85 1565.86 341.73 1620.19 341.73 1620.19 411.33"/><polygon class="cls-2" points="1544.65 360.85 1565.18 360.85 1565.86 341.73 1544.65 360.85"/><path class="cls-2" d="M1582.9,348.17a2.47,2.47,0,1,1,2.47,2.47A2.48,2.48,0,0,1,1582.9,348.17Z"/><polygon class="cls-6" points="1839.73 824.58 1764.59 824.58 1764.59 774.1 1785.39 754.99 1839.73 754.99 1839.73 824.58"/><polygon class="cls-2" points="1764.19 774.1 1784.71 774.1 1785.39 754.99 1764.19 774.1"/><path class="cls-2" d="M1802.43,761.43a2.47,2.47,0,1,1,2.47,2.47A2.47,2.47,0,0,1,1802.43,761.43Z"/><polygon class="cls-6" points="1874 724.4 1798.87 724.4 1798.87 673.91 1819.67 654.8 1874 654.8 1874 724.4"/><polygon class="cls-2" points="1798.46 673.91 1818.99 673.91 1819.67 654.8 1798.46 673.91"/><path class="cls-2" d="M1836.71,661.24a2.47,2.47,0,1,1,2.47,2.47A2.46,2.46,0,0,1,1836.71,661.24Z"/><polygon class="cls-10" points="1774.85 724.4 1699.71 724.4 1699.71 673.91 1720.51 654.8 1774.85 654.8 1774.85 724.4"/><polygon class="cls-11" points="1699.31 673.91 1719.83 673.91 1720.51 654.8 1699.31 673.91"/><path class="cls-12" d="M1737.55,661.24a2.47,2.47,0,1,1,2.47,2.47A2.47,2.47,0,0,1,1737.55,661.24Z"/><polygon class="cls-10" points="1895.2 393.91 1820.07 393.91 1820.07 343.42 1840.87 324.31 1895.2 324.31 1895.2 393.91"/><polygon class="cls-11" points="1819.67 343.42 1840.19 343.42 1840.87 324.31 1819.67 343.42"/><path class="cls-12" d="M1857.91,330.75a2.47,2.47,0,1,1,2.47,2.47A2.48,2.48,0,0,1,1857.91,330.75Z"/><rect class="cls-13" x="997.34" y="110.86" width="166.78" height="161.8" rx="11.93"/><rect class="cls-14" x="1004.57" y="117.87" width="152.33" height="147.78" rx="10.9"/><path class="cls-15" d="M1077.28,132.63a3.46,3.46,0,1,1,3.45,3.46A3.44,3.44,0,0,1,1077.28,132.63Z"/><path class="cls-15" d="M1105.15,137.52a3.45,3.45,0,1,1,1.34,4.69A3.46,3.46,0,0,1,1105.15,137.52Z"/><path class="cls-15" d="M1129,156.49a3.45,3.45,0,1,1-1,4.78A3.45,3.45,0,0,1,1129,156.49Z"/><path class="cls-15" d="M1140.87,185.86a3.46,3.46,0,1,1-3.46,3.45A3.45,3.45,0,0,1,1140.87,185.86Z"/><path class="cls-15" d="M1134.82,219.94a3.45,3.45,0,1,1-4.88,0A3.46,3.46,0,0,1,1134.82,219.94Z"/><path class="cls-15" d="M1113.13,241.69a3.46,3.46,0,1,1-4.89,0A3.46,3.46,0,0,1,1113.13,241.69Z"/><path class="cls-15" d="M1077.28,252.9a3.46,3.46,0,1,1,3.45,3.46A3.44,3.44,0,0,1,1077.28,252.9Z"/><path class="cls-15" d="M1056.2,137.52a3.45,3.45,0,1,0-1.34,4.69A3.46,3.46,0,0,0,1056.2,137.52Z"/><path class="cls-15" d="M1032.32,156.49a3.46,3.46,0,1,0,1,4.78A3.46,3.46,0,0,0,1032.32,156.49Z"/><path class="cls-15" d="M1020.49,185.86a3.46,3.46,0,1,0,3.45,3.45A3.45,3.45,0,0,0,1020.49,185.86Z"/><path class="cls-15" d="M1026.53,219.94a3.45,3.45,0,1,0,4.88,0A3.46,3.46,0,0,0,1026.53,219.94Z"/><path class="cls-15" d="M1048.22,241.69a3.46,3.46,0,1,0,4.89,0A3.46,3.46,0,0,0,1048.22,241.69Z"/><path class="cls-15" d="M1079.8,189.31a3.46,3.46,0,1,1,3.45,3.46A3.45,3.45,0,0,1,1079.8,189.31Z"/><rect class="cls-15" x="1082.78" y="146.15" width="0.94" height="43.16"/><rect class="cls-15" x="1079.71" y="178.86" width="29.09" height="2.83" transform="translate(122.29 714.28) rotate(-38.14)"/><path class="cls-16" d="M2032,1395c-.68,9.28-13.78,9.38-28.64,7.66s-10.91,2-31.72,2.33-28-6.59-29-9.56c-.9-2.64,9.12-4.86,19.84-7.47l4.06-1c12.09-3.07,20.09-12.12,30.43-20,9.8-7.48,22.44-34.57,22.44-34.57l28.42-1.28s-12,24.28-16.47,34.74c-2.64,6.16-1.51,13.72-.37,19.53A36.35,36.35,0,0,1,2032,1395Z"/><path class="cls-17" d="M2003.39,1402.69c-14.86-1.72-10.91,2-31.72,2.33s-28-6.59-29-9.56c-.9-2.64,9.12-4.86,19.84-7.47l.13.19a58.33,58.33,0,0,0,30.53,5.47c14-1.4,28.22-7.23,37.85-8.27a36.35,36.35,0,0,1,1,9.65C2031.35,1404.31,2018.25,1404.41,2003.39,1402.69Z"/><path class="cls-16" d="M2228.34,1397c-.67,9.28-13.77,9.39-28.63,7.68s-10.91,2-31.72,2.36-28-6.56-29-9.53c-.9-2.64,9.12-4.87,19.84-7.49,1.34-.32,2.7-.67,4-1,12.09-3.08,20.08-12.14,30.42-20,9.79-7.49,0-51.86,0-51.86l31.27-3s-1.5,37.35-1.48,54.34c0,6.7,3.09,13.14,4.25,18.94A36.85,36.85,0,0,1,2228.34,1397Z"/><path class="cls-17" d="M2199.71,1404.64c-14.86-1.71-10.91,2-31.72,2.36s-28-6.56-29-9.53c-.9-2.64,9.12-4.87,19.84-7.49l.12.2a58.32,58.32,0,0,0,30.54,5.44c14-1.42,28.21-7.26,37.85-8.32a36.85,36.85,0,0,1,1,9.66C2227.67,1406.24,2214.57,1406.35,2199.71,1404.64Z"/><path class="cls-18" d="M2137.1,630.23c-5.38-22.14,2.42-32.45,9.46-37.94,3.34-8.14,7.15-14,11-16.23,7.11-4,15.62-4.48,21.58-4.13a10.11,10.11,0,0,0-4.55-2.16c3.69-.55,11.93,3.12,11.93,3.12,51.38-19.8,59.45,55.84,58.37,73.42s-.93,38.26,25.8,52.11c51,26.42-16.95,126-16.95,126,1.3-14.2-64.22-89.14-98.41-111.58-8.32-12.26-11.28-33.9-11.5-35.6,1.44,17.16,4.37,26.79,7,32.21C2135.28,695.08,2133,660.64,2137.1,630.23Z"/><path class="cls-16" d="M2157.39,713.92c-.17.08,16.51,8.74,29.05,5.31,11.8-3.22,19.51-18.52,19.35-18.55-5-1-6.44-7.86-6.33-37.37l-2.26.45-38,7.52s.86,12,.89,23.21C2160.13,704,2159.56,712.91,2157.39,713.92Z"/><path class="cls-19" d="M2159.22,671.28s.86,12,.89,23.21c21.25-.6,32.49-20,37.09-30.73Z"/><path class="cls-20" d="M2004.68,1347.44a9.31,9.31,0,0,0,8.44,12.14l14.84.7,15.7.48a12.61,12.61,0,0,0,10.16-4.64c12.54-15.37,51.11-66.62,74.51-141.07.66-2.08,1.35-4.2,2.09-6.34,15.45-45.06,47.49-101.61,64.37-152.81q4-12.23,7.26-23.09c.7-2.33,1.37-4.61,2-6.86,12.45-43.23,16.05-71.61,19.37-101.94l-121.91,1S2075.86,1124.46,2004.68,1347.44Z"/><path class="cls-6" d="M2118.59,854.94c.31,58-8.51,82.9-8.51,82.9s52.19,26.52,114.23,7c.73-.23,51.36-11.78,51.36-11.78-1-2.35-10.27-41.44-11.28-43.6-13.1-28.12-23-40.46-24.59-49.1-2.89-16.15-3-32.85-1.51-48.6a389.71,389.71,0,0,1,15-76.33c-16.9-3.84-32.73-10.6-50.32-17.2-4.05,5-16.42,10.31-27.15,10.07-12.36-.27-16.37-5.56-15.73-11.34-13.16,7.33-23.67,14.25-23.67,14.25-11.19,19.44-33.89,38.32-35.53,68.14C2100.52,786.68,2118.58,853.31,2118.59,854.94Z"/><path class="cls-21" d="M2223.43,861.4c5.33,7.55,15.54,53.39,41,59.15-13.1-32.67-23-47-24.59-57-2.89-18.75-3-38.16-1.51-56.46-8.51-14.91-14.86-25.13-14.86-25.13-.67-2.41-13.52-42.16-17.64-6.63S2217.48,853,2223.43,861.4Z"/><path class="cls-16" d="M2152.12,681.94s50.29.83,50.32-30.49,6.55-52.32-25.56-54.17-38.35,10.09-40.91,20.54S2139,680.92,2152.12,681.94Z"/><path class="cls-18" d="M2154,596.51s13.77,36.75,34.9,42.18,30.3-.22,30.3-.22-16.21-12.88-19.58-35.36C2199.6,603.11,2164.37,579,2154,596.51Z"/><path class="cls-18" d="M2157.39,599.49s-10.28,8.21-12.79,16.18-3.63,24.4-8.42,23.84c0,0-10.37-25,1.29-39.11C2149.83,585.42,2157.39,599.49,2157.39,599.49Z"/><polygon class="cls-16" points="2072.99 895.2 2049.24 967.62 2062.79 973.05 2102.06 909.07 2072.99 895.2"/><path class="cls-12" d="M2137,706.94s-28,11.11-36.11,28.44-20.38,133.55-25.27,145.48-8.56,21.39-8.56,21.39,14.12,11.89,28.32,12.77S2137,706.94,2137,706.94Z"/><path class="cls-12" d="M2160.13,697s-29.09,71.88-30,86.43-3.42,237.87-3.42,237.87,1.71,10.27-18,6-24.81-8.56-24.81-8.56S2102.8,880.92,2097.67,833,2137,706.94,2137,706.94Z"/><path class="cls-22" d="M2028,1360.28l17,.52a9.86,9.86,0,0,0,7.9-3.57c11.46-13.88,51.42-65.82,75.42-142.18.66-2.08,1.35-4.2,2.09-6.34,15.45-45.06,47.49-101.61,64.37-152.81q4-12.23,7.26-23.09c.7-2.33,1.37-4.61,2-6.86l-17.95-13.63s-53.9,87.28-70.58,169.41C2101,1253.08,2043,1338.93,2028,1360.28Z"/><path class="cls-20" d="M2184.24,1189.38c-.29,37.79,1.5,122,6.1,163.18a7.43,7.43,0,0,0,7.4,6.61h12.72c5.36,0,9.37,0,12-.08a4.87,4.87,0,0,0,4.72-3.95c12.65-64.36,21.7-117.84,28.33-164,5.55-38.68,10.47-71.84,14.26-100.38,3.82-28.73,6.47-52.78,7.42-73.1.15-3.2.26-6.32.32-9.34s.08-6,.05-8.85l-105.33-10.27C2173.59,1059.14,2184.41,1166.17,2184.24,1189.38Z"/><path class="cls-22" d="M2210.46,1359.17c4.81,0,8.54,0,11.18-.06a5.94,5.94,0,0,0,5.73-4.8c12.57-64,21.57-117.21,28.17-163.21,5.55-38.68,10.47-71.84,14.26-100.38,3.82-28.73,6.47-52.78,7.42-73.1l-38.65,22.73s24.67,8.71,15.26,74.59S2223.56,1349.85,2210.46,1359.17Z"/><path class="cls-12" d="M2205.48,1017s7.42,26.81,33.09,23.39,62.17-18.83,62.17-18.83-11-34.66-24.61-80.2c-16.51-55.13-37-126.2-46.59-171-2.7-12.56-4.55-23-5.23-30.56L2203,698.42s-31.75,71.27-33.47,89.24S2205.48,1017,2205.48,1017Z"/><path class="cls-16" d="M2231.11,785,2203,698.42c.07,0,35.5,10.54,53.31,19.54,0,0,11.14,14.36,18,47.49,0,0,7.29,79.53-9,108.63,0,0-51.34,10.26-133.48-18V837.28s89.84,4.71,108.24,6.85Z"/><path class="cls-23" d="M2206.62,825.3c1.15,29.1,8,85.57,69,115.8l.48.23c-16.51-55.13-37-126.2-46.59-171C2218.33,787.06,2206,809.29,2206.62,825.3Z"/><path class="cls-12" d="M2203,698.42s52.1,3.67,64.65,31.62,16.54,120.93.57,148.31c0,0-22,6.27-60.88-1l-1.44-.28s-12.41-30.37-1.28-36.36c0,0,32.8,1.71,29.37-9.13S2203,698.42,2203,698.42Z"/><path class="cls-18" d="M2072.37,848.91l1.53,4.94,85.5-26.6a3.29,3.29,0,0,0,.58-3,2.41,2.41,0,0,0-2.11-1.91Z"/><polygon class="cls-18" points="2066.19 853.58 2072.37 848.91 2073.9 853.85 2066.19 853.58"/><path class="cls-16" d="M2052.61,965.64s-21.68,12-24.54,21.11-.89,28.26,2.55,28,8.58-20.55,11.44-22,6.84-5.71,6.84-2.57-2.85,8.85-1.42,9.7,6-8,9.13-9.7,4.46-15.82,7.51-19.61S2052.61,965.64,2052.61,965.64Z"/><path class="cls-16" d="M2131.9,837.28s-19.4-11.94-27.54-10.1-28.87,16.85-18.9,20.1,18.06-.16,21.89,2.21,6.67,6.68,24.55,6.62S2131.9,837.28,2131.9,837.28Z"/><path class="cls-24" d="M606.5,708.94c-3.25-6.27,70.94-28.85,72.11,33,0,0,139-3.42,72.62-80.88-23-26.81-20.61-49-19.92-69.63S717,510.84,665.56,516.88c0,0-13.47-5.48-30.28,3.24C597,540,511.4,731.77,606.5,708.94Z"/><path class="cls-16" d="M833.71,778.14s9-13.78,16.34-14,20.79-4.05,19.71-1.35-9.45,3-10.26,4.59,12.42,4.06,16.2,4.32,12.69,0,12.42,1.9-16.06,9.72-27.2,8.64S836,785.43,836,785.43Z"/><path class="cls-25" d="M702.88,782.59a135.77,135.77,0,0,0,13.84,20.93c10.75,13.46,27.32,29,48.13,32.08,9.94,1.47,19.66-.67,28.6-4.64h0c25.28-11.22,44.28-37,44.28-37,4.46-12.15-2.83-20.39-2.83-20.39s-51,11.48-55.9,9.05-33.22-84.11-40-94.38-29.77-15.59-29.77-15.59Z"/><path class="cls-26" d="M716.72,803.52c10.75,13.46,27.32,29,48.13,32.08,9.94,1.47,19.66-.67,28.6-4.64-1,.13-26.23,3.25-36.29-14.75-10.27-18.36-21.37-47.53-36.61-37.81C714,782.6,714.26,793,716.72,803.52Z"/><path class="cls-17" d="M512.47,1333.5s-15.57,14.21-12.53,24.31,17.09,16.83,19,29.17,9.5,19.07,16.33,19.07h32.6s5-8.68-7.12-11.3-16.74-17.12-16-30.58-1.14-31.42-1.14-31.42l-25.83-6Z"/><path class="cls-17" d="M644.28,1339.53s-5.6,60.21,1.24,63.57l87.49-.17s0-10.1-14-12.35-38.74-10.47-42.92-28.79S644.28,1339.53,644.28,1339.53Z"/><path class="cls-16" d="M581.93,907.6c18-40.38,29-52,26.92-64.51-1.57-9.33,4.77-173.92,4.77-173.92,2.13-.66,6.42-1.25,8.76-1.77a22,22,0,0,0,16-13.95c3.06-8.59,5.5-21.26,5.44-37.14l2.31.45L685,624.44s-.88,12.21-.91,23.71v.28A22.31,22.31,0,0,0,700.14,670l9.16,2.62s14.24,40.66,17,82.42-25.9,59.92.22,143.38C753.13,983.66,572,929.91,581.93,907.6Z"/><path class="cls-27" d="M685,624.44s-.88,12.21-.91,23.71c-21.7-.62-33.17-20.41-37.87-31.39Z"/><path class="cls-16" d="M692.2,635.33s-51.35.85-51.38-31.14-6.69-53.41,26.09-55.3,39.17,10.3,41.78,21S705.55,634.29,692.2,635.33Z"/><path class="cls-24" d="M690.3,548.1s-14.06,37.53-35.63,43.07-30.94-.23-30.94-.23,16.55-13.14,20-36.09C643.72,554.85,679.69,530.24,690.3,548.1Z"/><path class="cls-24" d="M686.81,551.15s10.43,3.9,14.72,11.5A51.64,51.64,0,0,1,708.47,592s10.59-25.5-1.31-39.93C694.54,536.78,686.81,551.15,686.81,551.15Z"/><path class="cls-1" d="M681,615.49a12.91,12.91,0,0,0,10.63,4.33,9.45,9.45,0,0,0,7.91-5.23S689.08,612.07,681,615.49Z"/><path class="cls-25" d="M577,742a346.82,346.82,0,0,0,0,40.44c.86,14.63,15.65,34.21,17.75,39.06,5.27,12.15,11.2,14.12,11.2,14.12l46,11.26,16.15,4L719,835.6s23.2-64.76,13.88-101.21-23.55-61.77-23.55-61.77-41.56,40.7-95.69-3.45Z"/><path class="cls-28" d="M590.42,788.39c.87,14.62,2.21,28.24,4.31,33.09,5.27,12.15,11.2,14.12,11.2,14.12l46,11.26,20-5.86s-66.61-10.1-59.23-67.4Z"/><path class="cls-23" d="M715.73,845.43S741,924,742.57,950.69s-48.22,379.76-50.22,392.08c-1.89,11.61-16.31,19-16.31,19s-6.63,3.91-16.1,1.23c-13.13-3.7-17.28-8.14-17.28-8.14S623,1103.1,635.18,1013.15a1424.15,1424.15,0,0,0,12.29-167.72Z"/><path class="cls-12" d="M608.85,843.09s-38.48,51.63-42.07,86.53-5.62,157.5-13.27,191.52-35.72,99.5-35.72,205.63c0,0,2.92,6.08,11.93,9.32a97.2,97.2,0,0,0,10.49,2.9,16.5,16.5,0,0,0,18.45-8.76c19-38.22,79.46-161.5,82.56-187.09,2.19-18.11,21.29-138,62.94-208.29,10-16.89-6.14-84-6.14-84Z"/><path class="cls-6" d="M682.17,616.34s.89,3.77,10.26,3.19c0,0,7.87-.48,7.63-4.63C700.06,614.9,692.43,612,682.17,616.34Z"/><path class="cls-17" d="M719.76,833.31s-10.13,8-30.25,8.42c-24,.48-83.57-6.13-83.57-6.13a49.13,49.13,0,0,0-2.54,15.2s72.72,18.34,114.86,2.68C718.26,853.48,723.69,843.25,719.76,833.31Z"/><path class="cls-6" d="M684.31,850c0-6.85,4.92-12.41,11-12.41s11,5.56,11,12.41-4.92,12.41-11,12.41S684.31,856.87,684.31,850Zm3.64,0c0,4.84,3.29,8.77,7.33,8.77s7.33-3.93,7.33-8.77-3.29-8.78-7.33-8.78S688,845.19,688,850Z"/><rect class="cls-29" x="559.91" y="761.34" width="98.8" height="135.24" transform="matrix(-0.75, -0.66, 0.66, -0.75, 524.45, 1854.26)"/><path class="cls-16" d="M622.74,847.75S650,851,650,857.43s-6.81,19.79-10.18,20.38-22.21-18-22.21-18Z"/><path class="cls-25" d="M613.61,669.17s-36.44,2.55-50.41,36.52-40.48,91-40.48,100.58,14.8,39.16,94.33,56.17c0,0,8.22-8.66,7.72-15.5,0,0-49.64-42.64-49.5-47.62.25-9.43,8.13-21.87,51.72-65.47C638.84,722,613.61,669.17,613.61,669.17Z"/><path class="cls-2" d="M1016.3,1404.2H1016a3.63,3.63,0,0,1-3.62-3.71l5.5-238.41,16.2-1.89-13.82,240.31A3.92,3.92,0,0,1,1016.3,1404.2Z"/><path class="cls-3" d="M921.88,1404.2h-.35a3.63,3.63,0,0,1-3.62-3.71l5.5-238.41,16.2-1.89L925.79,1400.5A3.92,3.92,0,0,1,921.88,1404.2Z"/><path class="cls-2" d="M1182.42,1404.2h.35a3.64,3.64,0,0,0,3.63-3.71l-5.51-238.41-16.2-1.89,13.82,240.31A3.92,3.92,0,0,0,1182.42,1404.2Z"/><path class="cls-2" d="M911.14,1147.3V983.93a52.05,52.05,0,0,1,52.05-52h117.7a52,52,0,0,1,52,52v169.61Z"/><path class="cls-3" d="M911.14,1147.3H1154a0,0,0,0,1,0,0v25.79a0,0,0,0,1,0,0H926.77a15.63,15.63,0,0,1-15.63-15.63V1147.3a0,0,0,0,1,0,0Z"/><rect class="cls-2" x="997.78" y="1147.3" width="195.04" height="25.79" rx="11.56"/><path class="cls-17" d="M1174.59,1106.59c-16.86,29.35-38.07,40.67-38.07,40.67h-88.23S1187.45,1084.2,1174.59,1106.59Z"/><path class="cls-16" d="M1106.83,1333.65a8.16,8.16,0,0,0-1.46,8.73l0,0c2.11,5.81,9.06,12.31,17.14,18.79,1,.84,2,1.59,2.75,2.3.21.18.42.36.61.55s.32.29.48.43c7.53,6.94,4.69,8.53,18.22,22.62,15.43,16.05,26.05,16.34,29.07,14.87,2.56-1.24-2.63-9.76-8.39-19.32-.28-.46-.55-.93-.84-1.4l-2.29-3.84c-6.74-11.52-5-16.92-3.41-34.06,1.3-13.92,21.67-77.8,21.67-77.8l-29.57-5.09s-8.9,50.86-18.71,58.7c-5.24,4.17-11.12,4.22-16.16,7.32l-1,.66A38.82,38.82,0,0,0,1106.83,1333.65Z"/><path class="cls-17" d="M1106.83,1333.65a8.16,8.16,0,0,0-1.46,8.73l0,0c2.58,5.81,9.36,12.27,17.16,18.73,1,.85,1.92,1.63,2.73,2.36.21.18.42.36.61.55s.32.29.48.43c7.53,6.94,4.69,8.53,18.22,22.62,15.43,16.05,26.05,16.34,29.07,14.87,2.56-1.24-2.63-9.76-8.39-19.32a65.78,65.78,0,0,1-27.5-20.27c-9.29-11.85-15.48-27.08-21.81-35.9l-1,.66A38.82,38.82,0,0,0,1106.83,1333.65Z"/><path class="cls-16" d="M1345.2,1315.19c1.83,9.12,14.84,7.6,29.37,4s11.08.67,31.76-1.62,27-10,27.58-13.08c.56-2.73-9.66-3.69-20.62-5-1.38-.15-2.76-.33-4.15-.5-12.37-1.55-21.44-9.54-32.68-16.09-10.65-6.22-26.54-31.53-26.54-31.53l-28.36,2.25s14.88,22.61,20.64,32.44c3.39,5.78,3.21,13.42,2.78,19.33A37.11,37.11,0,0,0,1345.2,1315.19Z"/><path class="cls-17" d="M1374.57,1319.24c14.53-3.55,11.08.67,31.76-1.62s27-10,27.58-13.08c.56-2.73-9.66-3.69-20.62-5l-.1.21a58.25,58.25,0,0,1-29.62,9.21c-14,.34-28.9-3.68-38.59-3.52a37.11,37.11,0,0,0,.22,9.7C1347,1324.31,1360,1322.79,1374.57,1319.24Z"/><path class="cls-17" d="M1236.5,1133.82,1210,1205.17l-34.62,93.16a56,56,0,0,1-18.39-1.68c-8.28-2.39-17.79-8.66-17.79-8.66s9.61-100,27.55-157.45c4.59-14.74,9.74-26.66,15.42-33.37C1210,1064.32,1236.5,1133.82,1236.5,1133.82Z"/><path class="cls-30" d="M1209.54,1020.5c-17.37-5.6-66.91,1.6-116.68,11.34l-10.42-17.19-107.51-8.4s-35.47,78.67-16,128.8c2.85,7.36,8.53,12.09,18.19,12.25h1.58l84.75,0c53.47,0,113.15-36.75,120.87-38.3,12.64-2.52,17.69,22.75,30.33,49.29s118.79,117.52,118.79,117.52,16.31.17,23-2.36c7.25-2.72,9.9-6.25,9.9-6.25S1248.72,1033.14,1209.54,1020.5Z"/><path class="cls-17" d="M1078.21,701.62c-13.77-7.23-34.73-8.21-38.13-8.66-40.74-5.48-65.26,53.72-66.7,71.65-2.66,33.06-20.15,38.1-44.76,58.81-49.36,41.51-34.89,89.75-7.9,107.68,16.2,10.75,44.74,0,44.74,0,.4.28,78.06-43.42,116.34-64.5C1139.19,858.45,1113.3,720.05,1078.21,701.62Z"/><path class="cls-16" d="M1049.72,848.66c.17.11-18.84,6.6-31.54,1-12-5.28-21-25-20.84-25,5.44-.25,11.41-5,16-36.2l2.31.83,38.94,14s-2.82,12.49-4.65,24.39C1048.42,837.68,1047.59,847.25,1049.72,848.66Z"/><path class="cls-19" d="M1054.6,803.31s-2.82,12.49-4.65,24.39c-22.36-4-31.14-26.31-34.29-38.4Z"/><path class="cls-16" d="M1060.4,815.71s-53.27-7.15-48.31-40.25,1.43-56.33,35.65-53.16,38.92,16.78,40,28.24S1074.38,816.72,1060.4,815.71Z"/><path class="cls-17" d="M1085.75,732.39s-34.1,29.39-57.29,31.76-32-5.08-32-5.08a90.59,90.59,0,0,0,21.9-29.67,16.28,16.28,0,0,1,13.44-9.61C1048.39,718.36,1079.78,717.7,1085.75,732.39Z"/><path class="cls-17" d="M1064.44,729.76s11.4,11,15,19.21c3.46,7.89,4.5,26.78,1.74,34.28,0,0,17.77-34.56,7.71-51.36C1078.22,714.09,1064.44,729.76,1064.44,729.76Z"/><path class="cls-6" d="M1094.57,927.13c-1.61,107.83-.44,85.3-12.23,95.53-2.85,2.46-10.84,3.93-21.35,4.63-33.07,2.19-91.19-3.26-93.4-9.37-7.63-21.14-2.24-27.71-8.6-60.08-.67-3.44-1.49-7.16-2.45-11.22-5.31-22.23-10.47-29.8,8.35-65.52,17.07-32.35,34.8-58.61,36.4-57.66,45,26.73,48.66,4.26,48.66,4.26S1095.36,874.54,1094.57,927.13Z"/><path class="cls-30" d="M1210,1205.17l-34.62,93.16a56,56,0,0,1-18.39-1.68c-8.28-2.39-17.79-8.66-17.79-8.66s9.61-100,27.55-157.45Z"/><path class="cls-6" d="M1050,827.7s46.34,7.85,51.78,27.8,37.46,137.24,37.46,137.24-23.55,4.23-34.44-6.65-37.86-101-37.86-101Z"/><path class="cls-31" d="M1061,1027.29c-33.07,2.19-91.19-3.26-93.4-9.37-7.63-21.14-2.24-27.71-8.6-60.08l15.94-44.9s-2.63,50,12.11,63.16,60.38,25.39,67.55,36.38C1058.05,1017.75,1060.32,1023,1061,1027.29Z"/><path class="cls-16" d="M1023.11,1006.25s32.61-7.26,37.88-4.36,18.12,13.43,19.74,17.1-11.72-2.78-16.06-3.94c-2.81-.76-10.2,1.81-13.85,3-15.4,5.13-24.83,2.49-24.83,2.49Z"/><path class="cls-6" d="M1001.26,823.42s-43.8,2.69-59,23.84C921,877,878.61,1003.9,902.88,1020.82c27.33,19.06,124.37,5,124.37,5s3.23-15.09-1.26-22.39-77.51-19.1-80.88-22.47,42.12-65.72,42.12-75.82S1001.26,823.42,1001.26,823.42Z"/><path class="cls-16" d="M1062.57,1011s6.83,8.81,9.07,9.86a6.61,6.61,0,0,0,3.69.79l-4.61-8.29Z"/><path class="cls-16" d="M1061,1001.89l19.87,9.65s-.85,1.38-3.29,1.27-8.62-2.37-8.62-2.37Z"/><polygon class="cls-12" points="1071.64 1034.34 1228.83 1034.34 1276.12 916.75 1119.17 916.75 1071.64 1034.34"/><polygon class="cls-23" points="1230.67 1029.76 1023.11 1029.76 1023.11 1034.34 1228.83 1034.34 1230.67 1029.76"/><path class="cls-6" d="M1189.15,975.55c1.19-4.14-1.2-7.49-5.34-7.49s-8.44,3.35-9.63,7.49,1.21,7.48,5.34,7.48A10.72,10.72,0,0,0,1189.15,975.55Z"/><path class="cls-9" d="M1892.62,1408.55h.46a5,5,0,0,0,4.8-5.2l-7.28-333.8-21.42-2.64,18.27,336.47A5.32,5.32,0,0,0,1892.62,1408.55Z"/><path class="cls-9" d="M1023.89,1408.55h-.46a5,5,0,0,1-4.8-5.2l7.28-333.8,21.42-2.64-18.27,336.47A5.32,5.32,0,0,1,1023.89,1408.55Z"/><rect class="cls-9" x="988.08" y="1035.42" width="943.94" height="40.28" rx="13.6"/><path class="cls-5" d="M801.89,463.32c-3.47-85.71,68.37-123.79,141.83-123.79s153.39,19,160.31,133C1108.49,545.85,1069.4,591,956.86,591c-38,0-67.46-6-90.06-16.67l-56.26,50,27.65-69.09C813.7,532.42,803.38,500.31,801.89,463.32Z"/><path class="cls-17" d="M2471.39,1408.18s2.06-16.1,6.85-25.67,35.25-3.48,35.25-3.48,6.09,5.22,7.4,29.59Z"/><path class="cls-17" d="M2367.61,1408c7.15-4.37,3.08-37,3.08-37s-33.35-26.68-37.94-6.26-31.68,29.6-47.11,32.11c-10.64,1.72-13.94,7.62-15,11.11Z"/><path class="cls-32" d="M2436.69,1170.93a153.71,153.71,0,0,0-2.45,18c-3.1,60.48-50.91,198.75-59.46,202-13.23,5-34.06-5.62-45-9.1-4.52-1.44-7.57-6-6.56-10.62,23.67-108.83,32.37-265.55,35.54-358.34,1.6-46.74,9.62-79,9.62-79s116.6-31.11,117.29,8.24C2486.32,976.91,2447.09,1113.48,2436.69,1170.93Z"/><path class="cls-17" d="M2436.69,1170.93l-77.89-158.07c1.6-46.74,9.62-79,9.62-79s116.6-31.11,117.29,8.24C2486.32,976.91,2447.09,1113.48,2436.69,1170.93Z"/><path class="cls-32" d="M2410.75,942.22,2472.38,1389s27.07,6.52,48.12,1.3c0,0,18.05-237.59,16.55-295s12.95-153.7-3.3-164.32S2410.75,942.22,2410.75,942.22Z"/><path class="cls-25" d="M2545.76,934.78a8.54,8.54,0,0,1-6.17,8.83c-8.6,2.5-18.51,4.24-37.63,8.2a364.86,364.86,0,0,1-71.8,7.21c-47.22.3-65.09-16-65.09-16-2,0,1.07-9.85,3.87-56.83.95-15.92,1.86-36.09,2.52-61.58.6-22.95,1-50.2,1-82.54.05-38.89,60.26-80.74,61.37-80.74v0c0,5.6,8.83,15.93,22.42,16.83,16.14,1,35.93-7,35.93-16.27,0-.1,29.17,46.66,39.53,96.48C2537,783.5,2534.88,782.82,2545.76,934.78Z"/><path class="cls-25" d="M2433.87,661.36s-56-.47-69.46,18.42-43,120.55-27.6,154.38,44.26-14,60.27-34.71S2433.87,661.36,2433.87,661.36Z"/><path class="cls-16" d="M2433.3,652.82l0,5.79s-1.58,18.09,20.71,20.74,38.83-3.38,38.22-17.35c-2-10.81-3.87-21.92-4-30.86a63.45,63.45,0,0,1,.8-10.84l-43.19-.86-12.72,2.07Z"/><path class="cls-33" d="M2433.13,621.51l.17,31.31a36.52,36.52,0,0,0,15.56,3.43c19.85,0,32.68-14.55,39.38-25.11a63.45,63.45,0,0,1,.8-10.84l-43.19-.86Z"/><path class="cls-16" d="M2492.35,613.35c-5,27-39.81,26.08-54.85,24.38-4.23-.47-6.89-1-6.89-1-4.77-1.27-7.44-8.79-8.67-18.63-2.46-19.48.64-48.08,3.93-55.4,5-11,14.29-22.91,49.33-14.32S2498.77,578.8,2492.35,613.35Z"/><path class="cls-26" d="M2376.62,737.12s-21.65,47.82-21,62.15a74.66,74.66,0,0,1,21,2.7C2393.55,807,2376.62,737.12,2376.62,737.12Z"/><path class="cls-17" d="M2415.12,537a115.84,115.84,0,0,0,33.62-9.09c14.76-6.42,33.39.65,39.44,3.83a8.86,8.86,0,0,0-1.48-3.63s2.72,1.92,3.12,4.61c.28.21.4.35.33.4s3.08-.56,5.06.33c0,0-1.39-.2-1.88.69a1,1,0,0,1-.22.24c23,11.13,25.16,47.53,17.74,56-8.91,10.14-22.38,33.07-22.38,33.07s-1.13-5.5.5-14.42-6.08-8.92-15.81-13-1.62-15.4-10.14-22.29-39.72-2.84-39.32-8.11C2412.12,561.41,2415.12,538.21,2415.12,537Z"/><path class="cls-26" d="M2499.4,826.69c-9.14,36.71-108,55.68-130.46,59.53.95-15.92,1.86-36.09,2.52-61.58Z"/><path class="cls-16" d="M2477.7,838.62c1,0,22-3.14,25.75-5s21-26.37,9.71-32.65-41.57,18.84-41.57,18.84Z"/><path class="cls-25" d="M2349.77,845.9s81.35,4.41,135.94-7.28c0,0,1.38-15.77-15.77-22.77,0,0-85.09-18-105.53-13S2349.77,845.9,2349.77,845.9Z"/><path class="cls-25" d="M2536.59,782.06c-16.88,20.36-39,37-63.28,40.87h0a45.41,45.41,0,0,1-6-27.17,54.45,54.45,0,0,1,8.86-24.94,55.16,55.16,0,0,0,4.78-9.64c13.29-33.9,11.31-99.23,11.31-99.23s56.42,5.91,74,31C2577,708.34,2563.27,749.88,2536.59,782.06Z"/><path class="cls-33" d="M2437.5,637.73c-4.23-.47-6.89-1-6.89-1-4.77-1.27-7.44-8.79-8.67-18.63,8.94,2.2,13,9.11,14.75,12.06C2437.46,631.47,2437.62,634.44,2437.5,637.73Z"/><path class="cls-16" d="M2414.77,653s-19.48-32.16-4.33-33.55,21.24,8.85,23.43,12.62-.57,20.76-.57,20.76Z"/><path class="cls-25" d="M2489,794.67a42.33,42.33,0,0,1-3.32,11.17,53.55,53.55,0,0,1-12.41,17.09h0c-50.6-22.84-60.84-101.28-62.56-144.37-.69-17.33,0-28.94,0-28.94,22.83-7.56,29.25,5.57,29.25,5.57s27,64.1,40.93,106C2486.27,777.2,2489.72,790,2489,794.67Z"/><path class="cls-26" d="M2536.59,782.06c-16.88,20.36-39,37-63.28,40.87h0c-50.6-22.84-60.84-101.28-62.56-144.37,0,0,24,86.85,56.54,117.2,5.89,5.5,12.07,9.14,18.44,10.09,0,0,41.09-11.62,49.72-22.56A4.69,4.69,0,0,1,2536.59,782.06Z"/><polygon class="cls-30" points="1614.88 1035.41 1457.69 1035.41 1410.4 917.83 1567.35 917.83 1614.88 1035.41"/><polygon class="cls-30" points="1455.85 1030.83 1663.41 1030.83 1663.41 1035.41 1457.69 1035.41 1455.85 1030.83"/><path class="cls-6" d="M1497.37,976.62c-1.19-4.13,1.2-7.48,5.34-7.48a10.73,10.73,0,0,1,9.63,7.48c1.18,4.14-1.21,7.49-5.34,7.49A10.71,10.71,0,0,1,1497.37,976.62Z"/><path class="cls-34" d="M2890,1405.57v1a3.13,3.13,0,0,1-3.27,2.92H3.27A3.13,3.13,0,0,1,0,1406.57v-1a3.12,3.12,0,0,1,3.27-2.91H2886.76A3.12,3.12,0,0,1,2890,1405.57Z"/></g></g></svg>