<svg xmlns="http://www.w3.org/2000/svg" viewBox="0 0 99.33 99.33"><defs><style>.cls-1{fill:#e0e0e0;}.cls-2{fill:#fff;}.cls-3{fill:#2a4d80;}.cls-4{fill:#54baa3;}.cls-5{fill:#466eb4;}</style></defs><title>compass_diallAsset 1</title><g id="Layer_2" data-name="Layer 2"><g id="Layer_1-2" data-name="Layer 1"><path class="cls-1" d="M87.52,49.67A37.86,37.86,0,1,1,49.66,11.81,37.84,37.84,0,0,1,87.52,49.67Z"/><path class="cls-2" d="M97.86,49.67a48.2,48.2,0,1,1-48.2-48.2A48.2,48.2,0,0,1,97.86,49.67Z"/><path class="cls-3" d="M49.66,4A45.67,45.67,0,1,0,95.33,49.67,45.72,45.72,0,0,0,49.66,4ZM80.31,49.67c0,.67,0,1.33-.07,2h13A43.71,43.71,0,0,1,51.66,93.28v-13c-.66.05-1.32.07-2,.07s-1.35,0-2-.07v13A43.71,43.71,0,0,1,6.05,51.68h13C19,51,19,50.34,19,49.67s0-1.33.07-2h-13A43.71,43.71,0,0,1,47.66,6.05v13c.66-.05,1.33-.07,2-.07s1.33,0,2,.07v-13A43.72,43.72,0,0,1,93.28,47.66h-13C80.29,48.32,80.31,49,80.31,49.67Z"/><path class="cls-3" d="M99.29,47.66A49.73,49.73,0,0,0,51.66,0c-.66,0-1.33,0-2,0s-1.34,0-2,0A49.73,49.73,0,0,0,0,47.68v.07c0,.64,0,1.28,0,1.92S0,51,0,51.58v.1A49.73,49.73,0,0,0,47.66,99.29c.66,0,1.33,0,2,0s1.34,0,2,0A49.73,49.73,0,0,0,99.29,51.66c0-.66,0-1.32,0-2S99.32,48.33,99.29,47.66ZM49.66,97.33A47.67,47.67,0,1,1,97.33,49.67,47.71,47.71,0,0,1,49.66,97.33Z"/><g id="diall"><polygon class="cls-4" points="64.18 23.11 57.4 53.93 41.9 45.4 64.18 23.11"/><polygon class="cls-5" points="35.15 76.22 41.91 45.39 57.42 53.91 35.15 76.22"/></g><path class="cls-4" d="M86.5,41.53h2A39.83,39.83,0,0,0,57.8,10.78v2.05A37.78,37.78,0,0,1,86.5,41.53Zm-28.71,45v2A39.84,39.84,0,0,0,88.55,57.8h-2A37.81,37.81,0,0,1,57.79,86.5Zm-45-28.7H10.78A39.83,39.83,0,0,0,41.53,88.55v-2A37.84,37.84,0,0,1,12.83,57.8ZM10.78,41.53h2.05a37.82,37.82,0,0,1,28.7-28.7V10.78A39.83,39.83,0,0,0,10.78,41.53Z"/><path class="cls-2" d="M54.79,49.66a5.12,5.12,0,1,1-5.12-5.12A5.12,5.12,0,0,1,54.79,49.66Z"/><circle class="cls-3" cx="49.67" cy="49.66" r="3.08"/></g></g></svg>