<svg id="Слой_2" data-name="Слой 2" xmlns="http://www.w3.org/2000/svg" viewBox="0 0 2925.99 1578.33"><defs><style>.cls-1{fill:#fff3e9;}.cls-2{fill:#f9ddbf;}.cls-3{fill:#ffe3ca;}.cls-4{fill:#f4d4b5;}.cls-5{fill:#efcbab;}.cls-6{fill:#fcecdb;}.cls-7{fill:#b3d6ff;}.cls-8{fill:#d0dff1;}.cls-9{fill:#c5eadb;}.cls-10{fill:#97bbef;}.cls-11{fill:#9fc1f4;}.cls-12{fill:#bdd8ff;}.cls-13{fill:#afcdfb;}.cls-14{fill:#95baef;}.cls-15{fill:#d39e7a;}.cls-16{fill:#e5bd9e;}.cls-17{fill:#c1dfd4;}.cls-18{fill:#ffb27d;}.cls-19{fill:#ed7d2b;}.cls-20{fill:#c6916d;}.cls-21{fill:#2b478b;}.cls-22{fill:#233862;}.cls-23{fill:#f99746;}.cls-24{fill:#ed985f;}.cls-25{fill:#a53d38;}.cls-26{fill:#ce9a78;}.cls-27{fill:#2c3a64;}.cls-28{fill:#ed975d;}.cls-29{fill:#1c468a;}.cls-30{fill:#c65447;}.cls-31{fill:#163560;}.cls-32{fill:#bc3f3f;}.cls-33{fill:#f4a269;}.cls-34{fill:#916140;}.cls-35{fill:#33579e;}.cls-36{fill:#d36922;}.cls-37{fill:#fff5ee;}.cls-38{fill:#2e3552;}</style></defs><title>customize</title><path class="cls-1" d="M2926.64,1780.58l-.42.8c-.92,1.76-1.85,3.54-2.8,5.32l-1612.26-.5-103.62,0-895.82-.28s-.7-.74-2-2.21c-27.91-31.34-334.34-391-57.07-778.86q7.11-9.95,14.25-19.49a940.2,940.2,0,0,1,74.19-87.94q6.71-7,13.47-13.73t13.63-13.22Q375,864,381.88,857.8q16.17-14.55,32.44-27.45C549.89,722.64,689.94,698.55,818.91,724.7a532.73,532.73,0,0,1,74.67,21c.47.17.94.33,1.4.51l3.3,1.2c.48.17,1,.36,1.46.55,18.13,6.74,36,14.43,53.42,22.94q11.36,5.54,22.49,11.52c1.86,1,3.7,2,5.54,3,16.9,9.26,33.4,19.3,49.48,30a105.57,105.57,0,0,0,10.61,6.15c30.58,15.52,75.22,20.72,128.73,11q15.78-2.88,32.54-7.53,15.57-4.35,31.87-10.3a521.85,521.85,0,0,0,81.76-38.75c45.36-26.3,93-61.91,141.07-108.43q17.68-17.09,35.43-36.2c44.63-48.12,89.29-106,132.52-174.81,57.12-91,139.9-155.33,235.88-195.14q7.56-3.15,15.21-6.06c162-62,358.78-56.24,533.16,7.86q7.62,2.79,15.2,5.76c171.35,66.84,319.1,190.68,387.61,362.39q7.11,17.75,13,36.2C2859,772.26,2864,893.34,2829,1028.9,2733.51,1399.07,3117,1414.47,2926.64,1780.58Z" transform="translate(-117.09 -211.79)"/><path class="cls-2" d="M1091.77,1783.69h-782c-27.91-31.34-334.34-391-57.07-778.86q7.11-9.95,14.25-19.49a940.2,940.2,0,0,1,74.19-87.94q6.71-7,13.47-13.73t13.63-13.22Q375,864,381.88,857.8q16.17-14.55,32.44-27.45c49,37.5,94.65,65.2,128.94,68.3,75.61,6.86,192.8-92.25,275.65-173.95a532.73,532.73,0,0,1,74.67,21c.47.17.94.33,1.4.51l3.3,1.2c.48.17,1,.36,1.46.55,18.13,6.74,36,14.43,53.42,22.94q11.36,5.54,22.49,11.52c9,91.38,22.06,210.17,36.22,333.83,35.14,306.88,77,643.76,79.76,666.25.06.61.12,1,.13,1.14A.28.28,0,0,1,1091.77,1783.69Z" transform="translate(-117.09 -211.79)"/><path class="cls-3" d="M895,746.2,868.25,984.85a.11.11,0,0,1,0,.06l-26.46,236.32s-10.8-8.71-25.19-22.14c-26.21-24.45-64.37-64.5-71-95.86-9.56-45.49,130.1-322.4,148-357.54C894.05,745.86,894.52,746,895,746.2Z" transform="translate(-117.09 -211.79)"/><path class="cls-3" d="M694.26,941.34c-1.39,1.49-101,108-152.81,106.94C508.37,1047.58,430,969,354.56,883.67q6.79-6.76,13.63-13.22t13.69-12.65c74.92,64.26,148,119.63,174.55,116.81,53.09-5.64,116.25-26,133.37-31.75C692.54,941.94,694.09,941.39,694.26,941.34Z" transform="translate(-117.09 -211.79)"/><path class="cls-4" d="M716.21,921.15c-3.59,3.93-157.67,171.46-198.12,176.06-19.41,2.2-98.84-95.94-177-199.81q6.71-7,13.47-13.73t13.63-13.22c76.4,77.07,151.08,146.32,175.09,148.79,38.28,4,108.36-46.27,146.52-76.38C705.05,930.84,715.2,922,716.21,921.15Z" transform="translate(-117.09 -211.79)"/><path class="cls-4" d="M820.3,844.08S617.46,1122,568.23,1127c0,0,23.78,46.87,89.38,26.78S820.3,844.08,820.3,844.08Z" transform="translate(-117.09 -211.79)"/><path class="cls-3" d="M568.23,1127s-25.07-8.57-6.8-29.72S760,913.89,812.71,854.38C812.71,854.38,634.87,1129.85,568.23,1127Z" transform="translate(-117.09 -211.79)"/><path class="cls-5" d="M1091.77,1783.69h-782c-27.91-31.34-334.34-391-57.07-778.86q7.11-9.95,14.25-19.49c31.5,62.19,67.81,118.64,106.41,149.92,89.25,72.35,209.71,96.36,305.19,116.82a135.45,135.45,0,0,0,154.24-82.36,384.27,384.27,0,0,0,24.43-95.38c3.76-30.55,7.5-60.64,11.07-89.43a.11.11,0,0,0,0-.06c14.68-117.61,27-214.15,30-237.45.48.17,1,.36,1.46.55,4.07,31.2,23.61,181.57,44.59,351.14,3.66,29.65,22-60.57,19.93-90.36-7.33-106-10.41-182.54-11.1-237.84q11.36,5.54,22.49,11.52c1.86,1,3.7,2,5.54,3,41.07,365.55,107.11,966.67,110.44,997.06.06.61.12,1,.13,1.14A.28.28,0,0,1,1091.77,1783.69Z" transform="translate(-117.09 -211.79)"/><path class="cls-5" d="M1316.18,775.92V1775a15.21,15.21,0,0,1-15.15,15.15H1217.7a15.2,15.2,0,0,1-15.15-15.15V825q15.57-4.35,31.87-10.3A521.85,521.85,0,0,0,1316.18,775.92Z" transform="translate(-117.09 -211.79)"/><path class="cls-1" d="M2926.64,1780.58H1234.42V814.67c67.89-24.89,144.74-71.63,222.83-147.18q17.68-17.09,35.43-36.2c34.7-37.4,69.4-80.68,103.44-130.44q13.74-20.09,27.33-41.59c.59-.92,1.17-1.85,1.75-2.78,57.12-91,139.9-155.33,235.88-195.14q7.56-3.15,15.21-6.06,25.65-9.81,52.39-17.36,7.24-2.07,14.55-3.95l.36-.09c128.45-33.11,272.33-28.4,407.06,10.1q7.47,2.13,14.92,4.4,22.14,6.78,43.88,14.76,7.62,2.79,15.2,5.76C2531.94,310.76,2630,375,2705.11,459.26q17.85,20,33.93,41.59a573.81,573.81,0,0,1,73.22,130.44q7.11,17.75,13,36.2C2859,772.26,2864,893.34,2829,1028.9,2733.51,1399.07,3117,1414.47,2926.64,1780.58Z" transform="translate(-117.09 -211.79)"/><path class="cls-6" d="M2926.64,1780.58H1234.42V814.67c67.89-24.89,144.74-71.63,222.83-147.18q17.68-17.09,35.43-36.2c34.7-37.4,69.4-80.68,103.44-130.44H2739q15.77,21.15,29.65,43.72a567.51,567.51,0,0,1,43.57,86.72q7.11,17.75,13,36.2C2859,772.26,2864,893.34,2829,1028.9,2733.51,1399.07,3117,1414.47,2926.64,1780.58Z" transform="translate(-117.09 -211.79)"/><path class="cls-7" d="M2538.44,1433.81l-1104.73-70.57s28.61-80.43,59.63-149.8l.36-.84c22.36-50,45.93-94,60.71-97.38,20.44-4.57,42.32,10.7,72.86,25.49h.12c36.07,17.43,84.4,34.14,156.65,15.87,82.71-21,156-165.55,207.75-281.68,36.54-82.12,62.27-150.16,72.85-150.16,10.22,0,46.41,62.87,84.28,124.55,37.27,61,76.34,120.7,93.65,117.94,34.87-5.77,55.55-65.16,76.59-64.92,35.1.48,53.37,175,106.39,162.42s63.36,7.81,97,17.43S2538.44,1433.81,2538.44,1433.81Z" transform="translate(-117.09 -211.79)"/><path class="cls-8" d="M1234.42,1304s35.5-8.41,67.18,12.63,87.31-2.68,104.16,35.85l-171.34,35.26Z" transform="translate(-117.09 -211.79)"/><path class="cls-9" d="M1234.42,1379.5s117.52-40.79,314-22.29,365.2,71.82,516.27-48,302.47-161.11,402.72-133.36,199.21,318,104.53,606.58H1234.42Z" transform="translate(-117.09 -211.79)"/><path class="cls-7" d="M825.91,1097.72c-2.74-2.8-22.81-8-22.81-8h0s-32.05-65.12-52.34-98.81c-7-11.56-11.72-56.33-16.59-80.7v0s-2.91-21.53-13.08-33.48c-6.81-8-43.23-11.79-43.23-11.79s0,0,0,.06l-3.39-.71c-3.53-.7-6.86-2.76-7.25-6.33,0-.18,0-.37-.06-.55a111.34,111.34,0,0,1-.5-12.79v-.16c.05-2.93.17-5.51.29-7.44.16-2.27.3-3.66.3-3.66h-.12l-38.17-6.14c0,.41,0,.81-.05,1.2,0,0,0,0,0,0-.53,11.32-1.2,19.81-1.89,26.19a10.5,10.5,0,0,1-9.76,9.32l-2.3.15h0s-24.61-1-34,1.9c-10.6,3.25-34.11,28.88-34.11,28.88l.13.1c-28.22,27.71-58.36,67.11-56.69,74.62,2.34,10.58,42.37,70.69,56.87,81.78,0,.05-14.52,18.35-14.52,21.68,0,2.78,2,12.9,4.76,16.31C519,1123.28,518.5,1142,518.5,1142a67.4,67.4,0,0,0-1.17,11.79v.17c.15,30.45,52.68,172.62,54.68,194.49s3.07,80.12,38.37,173h0s-1.32,15.24-3.28,18.38-10.2,13.73-19.61,17.26-36.34,1.7-38.43,11.48H644s1.31-14.66-2.36-24.32-7.8-22.69-7.84-22.8h0s11.41-121.59-3.49-188.92c0,0-.2-.67-.45-2l0,0c-.85-4.5-2.23-16.61,2.16-36.06,2.35,16,4.12,29.31,4.93,38C640.42,1370,742.78,1518,742.78,1518c-1.3,8.51,5.49,23.4,5,31.24s4.19,19.33,4.19,19.33,9.18,0,19.52.06c12.82,0,27.43.06,28.59-.06,2.08-.2-15.17-24.56-17.78-30.3-2.54-5.58-12.58-19.37-13.21-20.23l0,0c-26.67-161.91-61.18-164.35-61.78-183.17-.22-6.21,2.87-26.1,6.85-50.95,8.09-50.46,19.92-121.43,15.71-140.22-.82-3.67-1.87-7.7-3-11.92-3.15-12.17-7.88-30.2-10.06-36.77-4.92-14.77-20.17-51.55-20.17-51.55l-.36.12c-3.55-9.8-7.11-19.45-8.11-21.73-.48-1.11-.58-4.76-.4-10.2.82-.14,9.49-26,15.07-43.59a38.51,38.51,0,0,0,1.69-7v-.05c4.86,23.35,10.92,46.62,17.57,58.42,12.77,22.72,69.2,80.93,69.2,80.93h0c2.33,5,13.07,7.25,20.6,15.54,0,0,7.58,7.71,22,6.66C836.52,1122.28,828.66,1100.52,825.91,1097.72Zm-255-58-.29-.16c-.61.77-1.2,1.54-1.78,2.3-2.53,3.24-4.91,6.42-7.18,9.51h0l0,0c-1-2.23-32.17-73.46-32.58-79.32-.35-5.11,27.58-24,50.72-40.55a6.56,6.56,0,0,1-.48,4.21s0,0,0,0c-2,5.61-7.68,14.44-3.33,28.62,10.62,34.68,9.92,39.38,9.92,39.38l.71.49c.54,4.6,1.22,9.4,2.11,14.47C588.67,1018.6,586.84,1023.12,570.89,1039.67Z" transform="translate(-117.09 -211.79)"/><path class="cls-10" d="M667.14,857.39c-15.87-2.14-38.2-30.2-38.2-30.2l38.29,5.07s-.05.38-.12,1.06a97.82,97.82,0,0,0-.46,11.12.43.43,0,0,0,0,.16A111.32,111.32,0,0,0,667.14,857.39Z" transform="translate(-117.09 -211.79)"/><path class="cls-7" d="M678.63,834.21s-44.61,14.88-53.45-13-20.56-44.8,7.55-55.49,37-1.79,42.26,6.81S690,829.61,678.63,834.21Z" transform="translate(-117.09 -211.79)"/><rect class="cls-11" x="448.47" y="1356.87" width="296.08" height="211.94"/><rect class="cls-12" x="375.83" y="1356.87" width="296.08" height="211.93"/><polygon class="cls-13" points="642.66 1356.87 375.83 1449.98 375.83 1356.87 642.66 1356.87"/><path class="cls-14" d="M529,972c.41,5.86,31.61,77.09,32.58,79.32-1.49-2-48.7-66.64-39.6-84.46,9.26-18.09,57.74-35.41,57.74-35.41C556.61,948,528.68,966.85,529,972Z" transform="translate(-117.09 -211.79)"/><path class="cls-14" d="M714.1,1283.88c-4,24.85-7.07,44.74-6.85,50.95-25.63-16.67-16-156.52-14.15-181.81,1.23-16.6-16.44-54.76-27.58-87.34-1.69-4.93-3.22-9.74-4.52-14.33-3.18-11.26-4.92-21.18-3.89-28.34,4.22-29.27,47.32-62,47.32-62a38.51,38.51,0,0,1-1.69,7c-5.58,17.55-14.25,43.45-15.07,43.59-.18,5.44-.08,9.09.4,10.2,1,2.28,4.56,11.93,8.11,21.73l.36-.12s15.25,36.78,20.17,51.55c2.18,6.57,6.91,24.6,10.06,36.77,1.17,4.22,2.22,8.25,3,11.92C734,1162.45,722.19,1233.42,714.1,1283.88Z" transform="translate(-117.09 -211.79)"/><path class="cls-14" d="M629.81,1330.52c-.68-1.1-45.2-71.85-44.72-112.82.47-41.29,8.89-64.68,8.89-64.68s35.91,81.23,38,141.44C627.58,1313.91,629,1326,629.81,1330.52Z" transform="translate(-117.09 -211.79)"/><path class="cls-14" d="M800,1568.57c-1.16.12-15.77.1-28.59.06,16.73-9.55-1.8-49.3-2.4-50.59.63.86,10.67,14.65,13.21,20.23C784.87,1544,802.12,1568.37,800,1568.57Z" transform="translate(-117.09 -211.79)"/><polygon class="cls-15" points="2178.57 1569.23 1947.59 1569.23 1983.83 1274.09 2214.81 1274.09 2178.57 1569.23"/><polygon class="cls-5" points="2169.49 1569.23 1938.51 1569.23 1974.75 1274.09 2205.72 1274.09 2169.49 1569.23"/><polygon class="cls-2" points="2157.81 1553.95 1953.93 1553.95 1986.58 1288.09 2190.46 1288.09 2157.81 1553.95"/><polygon class="cls-5" points="2176.88 1429.12 1965.71 1429.12 1967.54 1414.23 2178.7 1414.23 2176.88 1429.12"/><polygon class="cls-16" points="1969.35 1318.07 1974.75 1274.09 2018.73 1274.09 1969.35 1318.07"/><polygon class="cls-16" points="2200.32 1318.07 2205.72 1274.09 2161.74 1274.09 2200.32 1318.07"/><polygon class="cls-16" points="1982.48 1569.27 1938.5 1569.27 1943.9 1525.29 1982.48 1569.27"/><polygon class="cls-16" points="2125.5 1569.27 2169.48 1569.27 2174.88 1525.29 2125.5 1569.27"/><polygon class="cls-15" points="2227.97 1569.15 2052.49 1569.15 2080.02 1344.93 2255.5 1344.93 2227.97 1569.15"/><polygon class="cls-5" points="2220.36 1569.15 2044.89 1569.15 2072.42 1344.93 2247.9 1344.93 2220.36 1569.15"/><polygon class="cls-2" points="2211.5 1557.55 2056.61 1557.55 2081.41 1355.57 2236.3 1355.57 2211.5 1557.55"/><polygon class="cls-5" points="2225.98 1462.71 2065.56 1462.71 2066.95 1451.4 2227.37 1451.4 2225.98 1462.71"/><polygon class="cls-16" points="2068.32 1378.35 2072.42 1344.93 2105.83 1344.93 2068.32 1378.35"/><polygon class="cls-16" points="2243.79 1378.35 2247.9 1344.93 2214.48 1344.93 2243.79 1378.35"/><polygon class="cls-16" points="2078.3 1569.18 2044.89 1569.18 2048.99 1535.77 2078.3 1569.18"/><polygon class="cls-16" points="2186.95 1569.18 2220.36 1569.18 2224.46 1535.77 2186.95 1569.18"/><path class="cls-17" d="M1599,752.71c-57.23,53.88-202.76,61-194.87,183.68,7.48,115.92-152.14,151.31-169.71,154.86V814.67c67.89-24.89,144.74-71.63,222.83-147.18q17.68-17.09,35.43-36.2c34.7-37.4,69.4-80.68,103.44-130.44h59.18C1681.66,601.72,1654.63,700.35,1599,752.71Z" transform="translate(-117.09 -211.79)"/><path class="cls-17" d="M1234.42,1582.13s116.52-25.12,161.79,48.46,110.62,100.5,165.07,65.58,204.38,11.44,206.43,90.53H1234.42Z" transform="translate(-117.09 -211.79)"/><path class="cls-18" d="M1536.45,919.79s-12.89-22.27-6.57-35.44,12.06-16.64,15.5-10.33,3.87,40.13,3.87,40.13Z" transform="translate(-117.09 -211.79)"/><path class="cls-19" d="M1596.17,951l-1.22,1.12a3.18,3.18,0,0,1-4.41.22L1493.3,850.94l10.86-10,92.63,105.45A3.35,3.35,0,0,1,1596.17,951Z" transform="translate(-117.09 -211.79)"/><polygon class="cls-16" points="1387.07 629.16 1376.21 639.15 1368.83 632.63 1381.12 621.33 1387.07 629.16"/><path class="cls-20" d="M1485.92,844.42s-12.1-1.85-13-10.4,6-12.77,3.84-18.17a17,17,0,0,1,10.34,6.61,59.69,59.69,0,0,0,11.06,10.66Z" transform="translate(-117.09 -211.79)"/><path class="cls-18" d="M1799.11,1326c-1.35,10.1,169.6,359.34,170.87,423.77l24.83,1.3s0-173.5-48.43-242a43.13,43.13,0,0,1-7.91-23.45c-1.83-54-12.78-244-75.63-237.11C1789.63,1256.49,1799.11,1326,1799.11,1326Z" transform="translate(-117.09 -211.79)"/><path class="cls-21" d="M1976.05,1582.31c-9.09,33-82.25,48.28-82.25,48.28l-5.45-16.09-1.19-3.48L1855,1516.14l-12.51-36.91-33.06-97.43s18.54-113,63.58-131.54,81.83,228.33,81,238.43S1976.05,1582.31,1976.05,1582.31Z" transform="translate(-117.09 -211.79)"/><path class="cls-22" d="M1926.11,1781h79.78s1.92-12.16-2.25-21.38c-4-8.85-9-12-9.13-24.17-5.06,5.22-13,11.65-24.49,10.1-1.41,2.29-9.12,14.55-13.84,17.94C1951,1767.21,1927.72,1765.87,1926.11,1781Z" transform="translate(-117.09 -211.79)"/><path class="cls-22" d="M1888.35,1614.5l-1.19-3.48L1855,1516.14l5.7-41.48c.58-52.71,27.87-129.48,42.6-124.43C1903.29,1350.23,1879.9,1439.93,1888.35,1614.5Z" transform="translate(-117.09 -211.79)"/><path class="cls-18" d="M1845.86,1036.17s88.79,92.81,103.42,113.66,44.91,112.66,44.91,112.66l-16.71,3.4s-53.27-92.24-57.45-97.91-74.17-52.67-74.17-52.67Z" transform="translate(-117.09 -211.79)"/><path class="cls-23" d="M1957.38,1164.76s-10,12.6-34.07,8.42c0,0-3.08-5.29-4.56-5.92-.88-.38-43.8-30.53-78.19-54.75-23.17-16.3-42.47-29.91-42.47-29.91l47.77-46.44s101.47,105.26,105.09,114S1957.38,1164.76,1957.38,1164.76Z" transform="translate(-117.09 -211.79)"/><path class="cls-19" d="M1918.75,1167.26c-.88-.38-43.8-30.53-78.19-54.75a.17.17,0,0,1,0-.07c3.37-12.2,15.15-20.62,15.15-20.62S1912.76,1144.22,1918.75,1167.26Z" transform="translate(-117.09 -211.79)"/><path class="cls-18" d="M1820.28,1057.44h-45.13a157.18,157.18,0,0,1-9.74-31.68,159.91,159.91,0,0,1-2.62-19.1c-.27-3.65-.27-5.75-.27-5.75l38.72-12.77,4.4,16Z" transform="translate(-117.09 -211.79)"/><path class="cls-24" d="M1805.64,1004.15s-15.52,20.21-40.23,21.61a159.91,159.91,0,0,1-2.62-19.1C1775.15,1002.83,1791.55,1000.9,1805.64,1004.15Z" transform="translate(-117.09 -211.79)"/><path class="cls-18" d="M1747.64,1006.7s46.21,22.89,60-6.1,29.08-45.58.16-61.42-40-7.53-46.93,1S1736,1000,1747.64,1006.7Z" transform="translate(-117.09 -211.79)"/><path class="cls-18" d="M1777.45,1249.27s-6.62,217.1-6.59,282,2.85,214.28,2.85,214.28l12.37,4.77,12.49-14.29s45.06-170.82,41-194.56c-10.19-58.92,65-114.48-13.34-285.14C1803.49,1206.87,1777.45,1249.27,1777.45,1249.27Z" transform="translate(-117.09 -211.79)"/><path class="cls-22" d="M1729.79,1781h79.79s1.91-12.16-2.26-21.38c-4-8.85-10.24-12.88-8.75-23.59-5.07,5.22-13.33,11.07-24.86,9.52-1.42,2.29-9.13,14.55-13.85,17.94C1754.65,1767.21,1731.4,1765.87,1729.79,1781Z" transform="translate(-117.09 -211.79)"/><path class="cls-18" d="M1749.16,1099.68s-120.71-22.78-141.32-39.06-71.39-140.83-71.39-140.83l12.8-5.64s83.82,116.1,89.65,119.35,95.35-5.57,110.26,8.34S1749.16,1099.68,1749.16,1099.68Z" transform="translate(-117.09 -211.79)"/><path class="cls-21" d="M1754.14,1293.18c-.69,2.07-4.26,69.46,6.31,181.2,7,74.35,1.63,152.15,5.81,175.11,0,0,43.65,5,69.5-11,0,0,61.45-347.3,26.52-359.08S1754.14,1293.18,1754.14,1293.18Z" transform="translate(-117.09 -211.79)"/><path class="cls-23" d="M1767.43,1034.69l-48.08,76a2.61,2.61,0,0,0-.28-1,0,0,0,0,1,0,0c-6-12.6-102.57-40.74-109.33-45-6.94-4.42-16.16-21.94-16.16-21.94,3.73-20.05,26.49-32.36,26.49-32.36s18.5,19.16,20.61,21.47,69.76-2.2,89.33-2.84S1767.43,1034.69,1767.43,1034.69Z" transform="translate(-117.09 -211.79)"/><path class="cls-19" d="M1719.06,1109.7c-6-12.6-102.57-40.74-109.33-45C1609.73,1064.67,1706,1066.88,1719.06,1109.7Z" transform="translate(-117.09 -211.79)"/><path class="cls-23" d="M1911.68,1287.44a.1.1,0,0,1,0,0,9.24,9.24,0,0,1-3.1,2.74c-60,33-132.79,14.51-155.1,6.85a11.29,11.29,0,0,1-7.6-10.57c-1.11-103.65-24.54-112.43-28.15-164.81s7.8-84.82,7.8-84.82l40.68-2.61s15.74,6.07,37,4.46c4.44-.35,10.55-5.11,10.55-5.11s26.22-2.32,32.12,2.54c26.34,21.68,27.36,101.57,26.52,154.14-.44,27.17,11.26,40.74,19.73,53.45,8,12,15.56,25,20.17,33.19A9.78,9.78,0,0,1,1911.68,1287.44Z" transform="translate(-117.09 -211.79)"/><path class="cls-19" d="M1911.68,1287.44a.1.1,0,0,1,0,0c-6.79,7.24-39.29-27.12-45.6-47.32s6.34-49.87,6.34-49.87c-.44,27.17,11.26,40.74,19.73,53.45,8,12,15.56,25,20.17,33.19A9.78,9.78,0,0,1,1911.68,1287.44Z" transform="translate(-117.09 -211.79)"/><path class="cls-18" d="M1977.48,1265.89s3.14,20.37,8.19,26,19.25,16.41,21.46,10.1-6.94-23-6.62-25.71,6.62,4.18,8.52,3.11-14.84-17-14.84-17Z" transform="translate(-117.09 -211.79)"/><path class="cls-25" d="M1778.29,919.79s-18.49-4.06-22.5,10.44,16.19,32,22.5,42.53,20,41.74,27.35,42.52,27.12-30.15,34.92-37.09,15.38-39.78-10.5-51.14S1778.29,919.79,1778.29,919.79Z" transform="translate(-117.09 -211.79)"/><path class="cls-25" d="M1856.66,1110.72c-32.08,9.72-28.5,42.33-28.5,42.33s-43.77-8.62-48.82-32.82c-5.8-27.82,4.85-44.19,4.85-44.19-9.51,2.84-13.87,13.21-15.9,23.29-1.19-11.89,2.25-24.12,11.68-34.66,23.22-25.94,58.41-25.51,46.3-41.88-34.86-47.13-9.7-100.39-9.7-100.39s12.32-10.06,42.53-3.33,39,48.86,34.09,66.69c-11.18,40.4,1.26,39.77,13.25,65S1884.89,1102.16,1856.66,1110.72Z" transform="translate(-117.09 -211.79)"/><path class="cls-18" d="M1549.25,914.15s3.46-3.93,4.3-8.14,1.91-16.85-1.26-15.36-4.21,17.28-12,11.69S1549.25,914.15,1549.25,914.15Z" transform="translate(-117.09 -211.79)"/><path class="cls-25" d="M1759.19,924.06s-16.25,16.41,17,64.08c0,0-4.84-21.53,10.31-24.68S1759.19,924.06,1759.19,924.06Z" transform="translate(-117.09 -211.79)"/><g id="man"><path class="cls-18" d="M876.8,1381.83s-19.57-.63-25.25,4.74-17,17-9.15,23.67,25.25-2.29,27.14-3.67,11.68-4.54,11.68-4.54Z" transform="translate(-117.09 -211.79)"/><path class="cls-19" d="M981.23,1357.46l-108.22,20s1.9,18.31,8.21,24.62l112.18-.62Z" transform="translate(-117.09 -211.79)"/><path class="cls-20" d="M897.17,1434.83h0a4.37,4.37,0,0,1-6.14-.27l-52.47-57.19a4.36,4.36,0,0,1,.27-6.14h0a4.36,4.36,0,0,1,6.14.26l52.46,57.2A4.36,4.36,0,0,1,897.17,1434.83Z" transform="translate(-117.09 -211.79)"/><path class="cls-26" d="M856,1361.2l-28.62,26.25a3,3,0,0,1-4.29-.18l-8.5-9.26a3,3,0,0,1,.19-4.29l28.62-26.26a3,3,0,0,1,4.29.19l8.49,9.26A3,3,0,0,1,856,1361.2Z" transform="translate(-117.09 -211.79)"/><path class="cls-18" d="M873.8,1382.62s-16.77-4.08-23.25-2.52,9.7,6.77,9.7,6.77Z" transform="translate(-117.09 -211.79)"/><path class="cls-21" d="M777.94,1540.3h0c-1.7-.63-.73-1.94-.09-3.64l34.79-98.55a3.31,3.31,0,0,1,4.24-1.94h0a3.31,3.31,0,0,1,1.93,4.25l-38.2,97C780,1539.15,779.64,1540.94,777.94,1540.3Z" transform="translate(-117.09 -211.79)"/><path class="cls-21" d="M818.4,1440.46l-5.48-2a1.88,1.88,0,0,1-1.11-2.43h0a1.89,1.89,0,0,1,2.43-1.11l5.49,2.05a1.9,1.9,0,0,1,1.11,2.43h0A1.89,1.89,0,0,1,818.4,1440.46Z" transform="translate(-117.09 -211.79)"/><path class="cls-27" d="M999.89,1781.1h-78c1.23-3,4.2-6.84,11.44-8.11,12.29-2.15,33.61-8.8,30.88-26.53-2.77-18,27.15-20.29,27.15-20.29S1003.8,1774.26,999.89,1781.1Z" transform="translate(-117.09 -211.79)"/><path class="cls-21" d="M1136.46,1600.7a14,14,0,0,1-2.53,4,18.34,18.34,0,0,1-6.46,3.89c-10.18,4.19-29.87,7.86-54.55,10.37a767.88,767.88,0,0,1-88,3.45c-9.64-.16-19.31-.5-28.85-1.06-69.25-3.94-132.17-18.47-132.24-51.15-.08-33.25,106-57.94,186.43-71.88,8.33-1.44,16.39-2.78,24-4,37.42-5.94,64.75-9,64.75-9s1.52,2.69,4,7.28c1.22,2.29,2.66,5,4.27,8.15,8,15.65,20,40.65,26.46,62.7C1138.22,1578.57,1140.15,1592.32,1136.46,1600.7Z" transform="translate(-117.09 -211.79)"/><path class="cls-27" d="M1136.46,1600.7c-2.9,2.66-5.91,5.3-9,7.9-10.18,4.19-29.87,7.86-54.55,10.37-25.64,2.6-143.23,2.75-174.55,2.22,36.76-59.42,148.29-71.21,155.14-79.09.56-.64,73.75-.73,80.25,21.32C1138.22,1578.57,1140.15,1592.32,1136.46,1600.7Z" transform="translate(-117.09 -211.79)"/><path class="cls-21" d="M828.89,1585.24s119.48,149.52,127.52,167.61c0,0,32.92,3.06,40.84-20.46,0,0-57.51-160.63-82.79-173.87S828.89,1585.24,828.89,1585.24Z" transform="translate(-117.09 -211.79)"/><path class="cls-18" d="M1046.73,1242.94s-33.32,45.6-63,48c0,0,3.8-17.17,12.56-28-2.36-3.8-4.4-7.28-6.16-10.37a173.89,173.89,0,0,1-8.42-16.52l13.66-24.72,2.82-13.28a89.53,89.53,0,0,0,8,16.74C1021.76,1239.27,1046.73,1242.94,1046.73,1242.94Z" transform="translate(-117.09 -211.79)"/><path class="cls-28" d="M1007.5,1214.6s4.84,22.84-17.39,38a173.89,173.89,0,0,1-8.42-16.52l13.66-24.72C1006.27,1209.77,1007.5,1214.6,1007.5,1214.6Z" transform="translate(-117.09 -211.79)"/><path class="cls-18" d="M977.53,1249.88s41.8-22.77,27.22-48.58-19-46.13-46.31-32.68-26.87,26.19-24.1,36S966.29,1255.13,977.53,1249.88Z" transform="translate(-117.09 -211.79)"/><path class="cls-21" d="M1004.6,1149.92c.23-.65,1-1.42,3.14-2.36a9.19,9.19,0,0,0-4.45.4c-1.62-2.86-5.28-7.61-10.91-6.93a7,7,0,0,1,4.94,3.51c-8.34-3.9-22.82-3.49-57,13-45,21.68-18,46-10.64,47.27s18.75-14.45,30.31-17.88,20,12.21,24.73,13,1.64-2.62,5.87-7,8.07,4.12,8.76,10.32,10.63,10.91,10.63,10.91l4.12-10.58c4.13-10.58-1.92-46.29-7.9-52.09Z" transform="translate(-117.09 -211.79)"/><path class="cls-22" d="M1254.13,1729.84s9.72,16.05,12,21.25-2.18,16.27-8.85,17.94c-5.87,1.47-6.75,12.81-6.75,12.81H1279a7.49,7.49,0,0,0,6.9-4.59c4-9.63,4.93-22.14,5.74-26.33,1.7-8.8,5.07-16.18,3.58-25.15s-15.52-14.1-41.11-14C1226,1711.85,1254.13,1729.84,1254.13,1729.84Z" transform="translate(-117.09 -211.79)"/><path class="cls-21" d="M1163.83,1564.77c-8.11,30.76-27.76,80.29-50.19,124.21-11.38,22.28-23.48,43.12-35.15,59.32-13.14,18.25-25.71,30.6-36.11,32.54a13.16,13.16,0,0,1-7.74-.74c-6-2.55-10.35-9.57-13.42-19.77h0c-19-62.85,10.69-246.11,10.69-246.11s29.89-.26,61.63,2.29c32.87,2.65,67.73,8.29,73.39,20.3C1168.81,1540.78,1167.5,1550.85,1163.83,1564.77Z" transform="translate(-117.09 -211.79)"/><path class="cls-23" d="M1170.34,1534.3C1148.85,1557.07,991,1510,1004.26,1498c3.37-3,2.22-6.71,3.58-11.62,6.55-23.3-6.48-63.16-12.07-78.62-1.31-3.58-2.21-5.84-2.37-6.3a270.38,270.38,0,0,1-12.17-44c-5.2-27.85-5.1-53.75,2-69.61a1.5,1.5,0,0,1,.11-.22c29.56-8.64,45.84-52.13,45.84-52.13s93.65,26.6,127.65,160.23c0,0,1.75,8.52,3.92,21.31h0c.65,3.93,1.36,8.26,2.06,12.87,3.63,23.78,5.73,54.27,7.89,77q.12,1.17.24,2.4C1172,1519.08,1173.91,1530.51,1170.34,1534.3Z" transform="translate(-117.09 -211.79)"/><path class="cls-21" d="M1257.15,1740.7c-4.12,0-16.49,1.94-33.37,4.9-61.16,10.71-181.39,35.29-181.39,35.29v-.05c-.09-.81-1.43-11.53-1.74-25.36-.48-22.06,1.65-52,15.57-62.24,7.41-5.44,30.08-6,57.43-4.26,57.63,3.63,136,17.47,136,17.47C1262.52,1722.23,1257.15,1740.7,1257.15,1740.7Z" transform="translate(-117.09 -211.79)"/><path class="cls-27" d="M1163.83,1564.77c-31.81-1-111.61-40.18-110.3-40.49a378.32,378.32,0,0,1,40-7.78c32.87,2.65,67.73,8.29,73.39,20.3C1168.81,1540.78,1167.5,1550.85,1163.83,1564.77Z" transform="translate(-117.09 -211.79)"/><path class="cls-19" d="M1061.67,1326.82s-1.85,144.74-53.83,159.51c6.55-23.3-6.48-63.16-12.07-78.62C1009.16,1370.49,1033.83,1332.94,1061.67,1326.82Z" transform="translate(-117.09 -211.79)"/><path class="cls-21" d="M1044.9,1242s-40,8.33-43.94,43.41c-2.85,25.55,25.08,83.41,25.08,83.41l5.32-5.32s-24.52-71.43-20.74-83.59c4.83-15.58,27.85-38.89,49-29.58Z" transform="translate(-117.09 -211.79)"/><path class="cls-21" d="M1170.34,1534.3c-21.49,22.77-182.71-23.84-169.48-35.85a24.9,24.9,0,0,0,7-12.12c6.55-23.3-6.48-63.16-12.07-78.62-1.31-3.58-2.21-5.84-2.37-6.3l8.14-8.13,29.83-29.77s8.82,10,25.5,21.36A184.25,184.25,0,0,0,1160.76,1417h0c.65,3.93,1.36,8.26,2.06,12.87,3.63,23.78,5.73,54.27,7.89,77q.12,1.17.24,2.4C1172,1519.08,1173.91,1530.51,1170.34,1534.3Z" transform="translate(-117.09 -211.79)"/><path class="cls-27" d="M1056.87,1384.87c-6,42.07-19.3,93-49,101.46,6.55-23.3-6.48-63.16-12.07-78.62,1.74-4.82,3.66-9.66,5.77-14.43l29.83-29.77S1040.19,1373.52,1056.87,1384.87Z" transform="translate(-117.09 -211.79)"/><path class="cls-18" d="M842.89,1456s-21.81-4.79-25.48-4.51-14.79,3.44-14.95,4.48-.6,4.2,1.61,4.33,4.42-1.1,4-.21-8.82.34-9,4.56,3.26,17.08,13,17.52,28.75-11,30.39-11.17C856.28,1469.69,842.89,1456,842.89,1456Z" transform="translate(-117.09 -211.79)"/><path class="cls-23" d="M838.93,1462.79c-3.34-9.67,1.32-12.69,1.32-12.69s95.29-45.19,103.08-50.17,60.18-100.38,60.18-100.38,19.42-39,44.15-38.23c21.49.68,33.44,14.08,40.06,28.13a45,45,0,0,1-8.14,50.07c-28.53,30.2-85.83,90-100.68,99.06-33,20.2-132,36.54-132,36.54A32.33,32.33,0,0,1,838.93,1462.79Z" transform="translate(-117.09 -211.79)"/><path class="cls-27" d="M1223.78,1745.6c-61.16,10.71-181.39,35.29-181.39,35.29v-.05a13.16,13.16,0,0,1-7.74-.74c-6-2.55-10.35-9.57-13.42-19.77h0s7.1-2.07,19.42-4.84c9.69-2.19,22.62-4.81,37.85-7.18C1117.06,1742.27,1170.46,1737.76,1223.78,1745.6Z" transform="translate(-117.09 -211.79)"/></g><path class="cls-2" d="M2768.69,544.57c-109.08,20-278.05,110.56-456,106.6-227.27-5-266.81-150.32-266.81-150.32H2739Q2754.81,522,2768.69,544.57Z" transform="translate(-117.09 -211.79)"/><path class="cls-5" d="M1928.68,237.92v85.71c0,2.25,0,4.47.07,6.63v0c0,.13,0,.22,0,.35,0,1.69.07,3.32.15,4.95h0c.79,19.67,3.51,34.23,6.71,34.23h1c3.46,0,6.35-16.92,6.87-38.94h0q.1-3.53.1-7.24V233.88Z" transform="translate(-117.09 -211.79)"/><path class="cls-5" d="M1932.25,330.2c-54.29,0-98.3,46.53-98.3,103.94h196.6C2030.55,376.73,1986.54,330.2,1932.25,330.2Z" transform="translate(-117.09 -211.79)"/><path class="cls-6" d="M1940.08,331.46a40.74,40.74,0,0,0-8.63-.94c-35.37,0-64,46.39-64,103.62h17.27C1884.67,381.65,1908.79,338.29,1940.08,331.46Z" transform="translate(-117.09 -211.79)"/><path class="cls-5" d="M2365.57,248.38v75.25c0,2.48,0,4.89-.1,7.24h0c-.53,22-3.41,38.94-6.87,38.94h-1c-3.22,0-5.94-14.56-6.72-34.23h0c-.08-1.63-.13-3.26-.17-4.95,0-.13,0-.22,0-.35v0c0-2.16-.07-4.38-.07-6.63V244Q2358.12,246.11,2365.57,248.38Z" transform="translate(-117.09 -211.79)"/><path class="cls-5" d="M2354.23,330.2c-54.29,0-98.3,46.53-98.3,103.94h196.6C2452.53,376.73,2408.52,330.2,2354.23,330.2Z" transform="translate(-117.09 -211.79)"/><path class="cls-6" d="M2362.06,331.46a40.74,40.74,0,0,0-8.63-.94c-35.37,0-64,46.39-64,103.62h17.27C2306.65,381.65,2330.77,338.29,2362.06,331.46Z" transform="translate(-117.09 -211.79)"/><path class="cls-20" d="M2910.16,1210.25c-5.79-.54-9.38.81-10.42,3-.12.24-7.43,16.75-17.27,46.49-24.19-3.35-83.13-10.24-118.93-3.68,8.62-24,15.1-37.74,15.3-38.16,1-2.17.84-7-5.78-7.62-5.8-.54-9.39.81-10.43,3-.16.33-13.87,31.3-29.1,85.12-13,45.76-23,118.4-23.45,199.54-128.19.49-133.74,25-133.74,25h-1.59a4.5,4.5,0,0,0-4.34,4.62h0a4.5,4.5,0,0,0,4.34,4.61H2590c0,1.19,8.42,95.91-24.16,250.28h6.08c44.3-122.44,42.72-230.3,40.81-250.28h53.08c0,1.19,8.42,95.91-24.16,250.28h6.08c44.3-122.44,42.72-230.3,40.81-250.28h62.26c-1.91,20-3.49,127.84,40.81,250.28h6.08c-32.58-154.37-24.2-249.09-24.16-250.28h59.76c-1.91,20-3.49,127.84,40.81,250.28h6.08C2847.61,1628,2856,1533.32,2856,1532.13h2.55a4.49,4.49,0,0,0,4.33-4.61h0a4.5,4.5,0,0,0-4.33-4.62h-1.26a5,5,0,0,0-1.1-3.17,3.94,3.94,0,0,0,.18-1.19c-2.56-169.25,58.92-299.38,59.55-300.67C2917,1215.7,2916.79,1210.87,2910.16,1210.25Zm-30.41,57.81q-3,9.46-6.26,20.39c-22.77-3.21-82.64-10.49-119.42-4.13,2.09-6.7,4.15-13,6.13-18.76C2792.42,1257.66,2853.9,1264.58,2879.75,1268.06Zm-32.53,244.87c-12.43-6.09-40.1-13-101.61-14.62-9.28-.24-18-.38-26.3-.42,1.23-82.24,16.94-154,31.91-204.22,33.52-7.47,95.7-.16,119.85,3.16l-.44,1.51C2856.89,1346.91,2846.4,1425.77,2847.22,1512.93Z" transform="translate(-117.09 -211.79)"/><path class="cls-29" d="M2703.26,1067.18s2.23-28.25,42.86-20.91c10.74,1.94,18.12-17.22,35.7-10.39,37.86,14.7,40.09-4.71,51,22.52,4.58,11.4,33.71,24.67,24.82,44.37s6,33-4.47,48.39c-5.41,8-3.22,22.26-28.74,22.77-12.72.26-32.52,23.82-46.79,28.1s-57.12-1.9-55.5-21.48c1.26-15.27-16.56-14-27.5-31.55-9.56-15.35,7.5-19.22-1.62-44C2686.36,1086.79,2703.78,1082.35,2703.26,1067.18Z" transform="translate(-117.09 -211.79)"/><path class="cls-18" d="M2479.92,1762.06c.87,9.44-12.29,11.74-27.52,12.5s-10.63,3.88-31.51,7.66-29.25-1.93-30.76-4.75c-1.34-2.5,8.36-6.42,18.71-10.84,1.3-.55,2.6-1.12,3.91-1.69,11.64-5.12,18.17-15.56,27.25-25.24,8.6-9.17,16.76-38.53,16.76-38.53l28.37-6.06s-8,26.42-10.73,37.7c-1.63,6.64.77,14.06,2.9,19.7A37.36,37.36,0,0,1,2479.92,1762.06Z" transform="translate(-117.09 -211.79)"/><path class="cls-30" d="M2452.4,1774.56c-15.24.76-10.63,3.88-31.51,7.66s-29.25-1.93-30.76-4.75c-1.34-2.5,8.36-6.42,18.71-10.84l.16.17a59.39,59.39,0,0,0,31.62.38c13.82-3.75,27.17-12,36.68-14.67a37.36,37.36,0,0,1,2.62,9.55C2480.79,1771.5,2467.63,1773.8,2452.4,1774.56Z" transform="translate(-117.09 -211.79)"/><path class="cls-31" d="M2762.44,1425.62s-188.53-14.19-224,8.21S2446,1717.15,2446,1717.15s3.51,2.81,11.36,3.66c7.3.79,23.37-3.5,23.37-3.5s81.81-116.74,87.57-146.15,4.36-55.66,17.48-56.36,176.69,19.88,201.43-23.7,4.29-86.74,4.29-86.74Z" transform="translate(-117.09 -211.79)"/><path class="cls-18" d="M2544.78,1763.12c.88,9.45-12.28,11.75-27.51,12.5s-10.63,3.88-31.51,7.66-29.25-1.93-30.76-4.75c-1.34-2.5,8.36-6.42,18.71-10.84,1.3-.55,2.6-1.12,3.91-1.69,11.64-5.12,18.17-15.56,27.25-25.24,8.6-9.17,16.76-38.53,16.76-38.53l28.37-6.06s-8,26.42-10.73,37.7c-1.63,6.64.77,14.06,2.9,19.7A37,37,0,0,1,2544.78,1763.12Z" transform="translate(-117.09 -211.79)"/><path class="cls-30" d="M2517.27,1775.62c-15.24.76-10.63,3.88-31.51,7.66s-29.25-1.93-30.76-4.75c-1.34-2.5,8.36-6.42,18.71-10.84l.16.18a59.45,59.45,0,0,0,31.62.37c13.81-3.75,27.17-12,36.68-14.67a37,37,0,0,1,2.61,9.55C2545.66,1772.57,2532.5,1774.87,2517.27,1775.62Z" transform="translate(-117.09 -211.79)"/><path class="cls-29" d="M2792.1,1408.08S2624.62,1416,2590,1439.77s-81.32,286.7-81.32,286.7,3.62,2.68,11.5,3.22c7.32.51,23.21-4.4,23.21-4.4s77.21-119.84,81.82-149.46,2.18-55.78,15.27-57,177.33,13,200.36-31.53S2792.1,1408.08,2792.1,1408.08Z" transform="translate(-117.09 -211.79)"/><path class="cls-18" d="M2842.23,1194.09c-.06-.09-.14-.16-.22-.26a26.14,26.14,0,0,0-4.67-4.09l-.06,0h0c-13.69-9.56-38.13-11.61-38.13-11.61v0h0s-2.68-.26-6.91-.45c-3.2-8.31-6.85-20.62-8-38.57l-2.43.65-40.75,10.93s1.81,12.93,2.65,25.17c.19,2.68.33,5.33.39,7.8-1.18.43-2.27.86-3.23,1.26h0s-23.3,2.74-28.81,8.67-16.53,45.39-19.31,52.39l156.88,2.56S2853.57,1207.51,2842.23,1194.09Z" transform="translate(-117.09 -211.79)"/><path class="cls-32" d="M2848,1474.7c-18.9,1.79-83.35-37.36-103.09-49-8.69-5.1-20.9-7.51-32.52-9.44-14.8-2.42-28.62-4.06-33-9.34-5.27-6.31,10.21-13.28,22.65-20.52,6.28-3.67,11.79-7.39,13.5-11.12,1.33-2.93,1.22-9.34.34-17.54v0c-.16-1.52-.35-3.13-.57-4.77-6.69,13.89-24.66,30.76-32.47,32.65-9,2.19-18.31-7.78-25.18-17.28-5.12-7.11-8.86-14-10-15.28-2.78-3.07,11.19-9.16,16.92-13.75s28.23-93.39,28.23-93.39c2.78-7,13.8-46.45,19.31-52.39,0,0,21.5,26.26,49.38,24.75,27.69-1.48,75.1-28.19,75.83-28.61h0l.06,0,4.89,4.35c11.35,13.42,7.41,54.42,7.41,54.42s-21.7,95.63-21.7,105.28c0,17.7,14.63,58.39,21.6,87.69C2854,1460,2855.35,1474,2848,1474.7Z" transform="translate(-117.09 -211.79)"/><path class="cls-33" d="M2741.07,1150.66s1.81,12.93,2.65,25.17c23.07-2.19,33.88-24.08,38.1-36.1Z" transform="translate(-117.09 -211.79)"/><path class="cls-18" d="M2734.13,1162.76s54.73-2.74,52.5-36.8,3.33-57.35-31.71-57-41,13.76-43,25.31S2719.83,1162.6,2734.13,1162.76Z" transform="translate(-117.09 -211.79)"/><path class="cls-25" d="M2702,1386.45c-14.14,24.1,38.34,31.35,47,36.45,19.73,11.58,80.06,53.58,99,51.8,7.32-.69,5.95-14.67,1.51-33.22-7-29.3-21.6-70-21.6-87.69,0-9.65-3.21-32.5-7.5-58.63l-22.74-21.83s-24.37,63-47.6,73.3a196,196,0,0,1-34.23,11.14c.87,8.2,1,14.64-.34,17.56C2713.82,1379.07,2708.31,1382.79,2702,1386.45Z" transform="translate(-117.09 -211.79)"/><path class="cls-18" d="M2807.64,1213s17.93-27.81,36.73-5.41-13.36,182.53-41.22,190.76c-30.94,9.13-120.33-1.47-120.33-1.47l1.72-14s95.16-18.24,99.12-23.32S2797.75,1215.53,2807.64,1213Z" transform="translate(-117.09 -211.79)"/><path class="cls-29" d="M2731.83,1081.05s13.08-3,17.35,3.31,1.22,9.92,10.77,12.59,12.78,2.49,11.83,9.17,9.59,11.64,10,17,4.85,8,9,8.4,2.29-68.9-13.93-72-31.87.58-36.64,4.4S2731.83,1081.05,2731.83,1081.05Z" transform="translate(-117.09 -211.79)"/><path class="cls-29" d="M2731.83,1081.05s-12.73-.89-15,6.36.76,9-2.48,13.36S2713,1113,2713,1113s-25.16-46.34,1.37-49.4S2740.16,1065.91,2731.83,1081.05Z" transform="translate(-117.09 -211.79)"/><path class="cls-32" d="M2739.54,1371.33s5.14,47,31.09,52.37,62.91-20.21,74.78-103.17,12.38-125-15.1-122.92-38.23,26.84-37.53,56.34c.72,30.67-3.78,76-16.36,84.17S2739.54,1371.33,2739.54,1371.33Z" transform="translate(-117.09 -211.79)"/><path class="cls-18" d="M2692.31,1382s-31-6-34.48-4.49-23,19-21,22.48,10,6,19,3,28.48-4.49,32-9S2692.31,1382,2692.31,1382Z" transform="translate(-117.09 -211.79)"/><path class="cls-25" d="M2715.86,1357.79v0c-.16-1.52-.35-3.13-.57-4.77-6.69,13.89-24.66,30.76-32.47,32.65-9,2.19-18.31-7.78-25.18-17.28,12.84-6.53,48.14-27,51.47-56.28,4.07-35.85,6.76,45.68,6.76,45.68Z" transform="translate(-117.09 -211.79)"/><rect class="cls-34" x="2354.23" y="1465.95" width="367.86" height="16.5" rx="3.55" transform="translate(4959.23 2736.62) rotate(180)"/><path class="cls-34" d="M2755.25,1784.54h1.36a3.5,3.5,0,0,0,3.41-4.28l-168.9-740.07h-23.87l184.83,741.89A3.26,3.26,0,0,0,2755.25,1784.54Z" transform="translate(-117.09 -211.79)"/><path class="cls-34" d="M2445.79,1784.54h1.37a3.5,3.5,0,0,0,3.41-4.28l-168.91-740.07H2257.8l184.82,741.89A3.28,3.28,0,0,0,2445.79,1784.54Z" transform="translate(-117.09 -211.79)"/><polygon class="cls-26" points="2237.14 1270.66 2560.38 1270.66 2463.61 828.39 2137.28 828.39 2237.14 1270.66"/><polygon class="cls-16" points="2257.03 1242.21 2522.7 1242.21 2443.52 858.7 2174.96 858.7 2257.03 1242.21"/><polygon class="cls-20" points="2145.55 862 2471.28 862 2463.82 828.39 2145.55 828.39 2145.55 862"/><path class="cls-20" d="M2471.33,1781.19l109.58-741h-27.12l-89.5,740.88a3.17,3.17,0,0,0,3.11,3.46h0A3.86,3.86,0,0,0,2471.33,1781.19Z" transform="translate(-117.09 -211.79)"/><path class="cls-34" d="M2580.91,1040.18l7.46,33.59-112.59,705.59a6.09,6.09,0,0,1-6.14,5.16h-2.24Z" transform="translate(-117.09 -211.79)"/><path class="cls-20" d="M2172,1781.19l106.32-741h-23.86L2165,1781.06a3.17,3.17,0,0,0,3.11,3.46h0A3.85,3.85,0,0,0,2172,1781.19Z" transform="translate(-117.09 -211.79)"/><path class="cls-34" d="M2278.31,1040.18l10.72,33.59-112.59,705.59a6.07,6.07,0,0,1-6.14,5.16h-2.23Z" transform="translate(-117.09 -211.79)"/><polygon class="cls-20" points="2120.47 1109.3 2415.53 1109.3 2413.96 1091.3 2118.89 1091.3 2120.47 1109.3"/><polygon class="cls-34" points="2560.38 1270.66 2574.96 1270.66 2474.02 828.39 2463.82 828.39 2560.38 1270.66"/><polygon class="cls-21" points="1418.78 1457.88 1418.6 1460.48 1418.36 1464.09 1411.2 1569.19 1318.01 1569.19 1309.05 1464.08 1308.63 1459.2 1308.52 1457.88 1418.78 1457.88"/><polygon class="cls-35" points="1418.78 1457.88 1418.6 1460.48 1418.36 1464.09 1411.2 1569.19 1372.69 1569.19 1384.79 1457.88 1418.78 1457.88"/><path class="cls-22" d="M1535.7,1672.27l-.24,3.61c-4.06-.41-37-3.59-53.25-3.59s-51.37,3.15-56.07,3.58l-.42-4.88Z" transform="translate(-117.09 -211.79)"/><path class="cls-21" d="M1537.5,1672.29H1425.66a1.32,1.32,0,0,1-1.32-1.31h0a1.33,1.33,0,0,1,1.32-1.32H1537.5a1.32,1.32,0,0,1,1.32,1.32h0A1.32,1.32,0,0,1,1537.5,1672.29Z" transform="translate(-117.09 -211.79)"/><path class="cls-23" d="M1478.21,1707.38c-48.26,0-53.8-36-53.87-36.4h0c.26,1.44,8,35,56.37,33.84,48.55-1.24,58-33.28,58.11-33.61h0c-.08.35-7.58,34.85-58,36.14Z" transform="translate(-117.09 -211.79)"/><path class="cls-23" d="M1487.55,1709H1469.3a4.14,4.14,0,0,1-4.13-4.13h0a4.14,4.14,0,0,1,4.13-4.13h18.25a4.14,4.14,0,0,1,4.13,4.13h0A4.14,4.14,0,0,1,1487.55,1709Z" transform="translate(-117.09 -211.79)"/><polygon class="cls-22" points="1411.95 1569.19 1316.67 1569.19 1317.35 1561.4 1411.73 1561.4 1411.95 1569.19"/><polygon class="cls-19" points="1500.07 1499.71 1499.96 1501.34 1499.8 1503.6 1499.24 1511.89 1496.57 1551.07 1495.34 1569.19 1437.17 1569.19 1435.62 1551.07 1432.29 1512.02 1431.58 1503.58 1431.32 1500.54 1431.26 1499.71 1500.07 1499.71"/><polygon class="cls-23" points="1500.07 1499.71 1499.96 1501.34 1499.81 1503.59 1495.34 1569.19 1471.3 1569.19 1478.85 1499.71 1500.07 1499.71"/><path class="cls-36" d="M1617.05,1713.13l-.15,2.25c-2.53-.25-23.07-2.24-33.23-2.24s-32.07,2-35,2.23l-.26-3Z" transform="translate(-117.09 -211.79)"/><path class="cls-23" d="M1618.18,1713.14h-69.81a.82.82,0,0,1-.82-.82h0a.82.82,0,0,1,.82-.82h69.81a.82.82,0,0,1,.82.82h0A.82.82,0,0,1,1618.18,1713.14Z" transform="translate(-117.09 -211.79)"/><path class="cls-35" d="M1581.17,1735c-30.12,0-33.58-22.49-33.62-22.72h0c.16.9,5,21.87,35.18,21.13s36.22-20.78,36.27-21h0c0,.21-4.73,21.75-36.23,22.55C1582.23,1735,1581.7,1735,1581.17,1735Z" transform="translate(-117.09 -211.79)"/><path class="cls-21" d="M1587,1736.06h-11.39a2.59,2.59,0,0,1-2.58-2.58h0a2.58,2.58,0,0,1,2.58-2.57H1587a2.58,2.58,0,0,1,2.58,2.57h0A2.59,2.59,0,0,1,1587,1736.06Z" transform="translate(-117.09 -211.79)"/><polygon class="cls-36" points="1495.81 1569.19 1436.34 1569.19 1436.76 1564.33 1495.67 1564.33 1495.81 1569.19"/><path class="cls-37" d="M2148.92,849.29c-42.8,24.16-43.64,1.44-53.38-8.3s-62.4,69.13-77.42,78,30.77-76.58,18-74.3-44.48,30.66-44.48,30.66l.12-.48c36.54-82.12,62.27-150.16,72.85-150.16C2074.86,724.74,2111.05,787.61,2148.92,849.29Z" transform="translate(-117.09 -211.79)"/><path class="cls-37" d="M1627.27,1140.71c-2.89-.12-40-1.44-48.69,0-9,1.56-42.8,69.61-50.49,57.11s-34.75,15.62-34.75,15.62l.36-.84c22.36-50,45.93-94,60.71-97.38C1574.85,1110.65,1596.73,1125.92,1627.27,1140.71Z" transform="translate(-117.09 -211.79)"/><rect class="cls-38" y="1569.18" width="2925.99" height="9.15" rx="3.6"/></svg>