<svg id="Layer_1" data-name="Layer 1" xmlns="http://www.w3.org/2000/svg" viewBox="0 0 1786.51 1309.09"><defs><style>.cls-1{fill:#50bfa5;}.cls-2{fill:#3c8f7c;}.cls-3{fill:#355389;}.cls-4{fill:#466eb6;}.cls-5{fill:#f7cc7f;}.cls-6{fill:#fae0b2;}.cls-7{fill:#96d9c9;}.cls-8{fill:#f48c7f;}.cls-9{fill:#b75742;}.cls-10{fill:#86b1f2;}.cls-11{fill:#f47458;}.cls-12{fill:#184655;}.cls-13{fill:#f7a491;}.cls-14{fill:#13375b;}.cls-15{fill:#fff;}.cls-16{fill:#9bc1f9;}</style></defs><title>decisions</title><polygon class="cls-1" points="678.87 248.49 664.85 252.79 655.44 231 634.17 234.76 624.46 219.61 616.79 224.53 629.77 244.79 649.93 241.23 659.73 263.9 680.82 257.42 678.87 248.49"/><polygon class="cls-1" points="1577.78 1032.2 1563.77 1036.5 1554.35 1014.71 1533.08 1018.47 1523.37 1003.32 1515.7 1008.24 1528.69 1028.5 1548.84 1024.94 1558.64 1047.61 1579.73 1041.13 1577.78 1032.2"/><path class="cls-1" d="M1504.2,1718.75s-74.8-253.52-80.8-309.44,35.83-38.6,35.83-38.6-35.19-106.56-9.75-131.85,48.4,21.85,48.4,21.85,7.7-129.36,34.83-129.4c50.52-.09,49.53,141.07,49.53,141.07s12.89-55.26,40-40.11c40.8,22.85-17.71,133.6-17.71,133.6s52,0,70.25,26.26C1707.5,1439.16,1504.2,1718.75,1504.2,1718.75Z" transform="translate(-911.7 -428.58)"/><path class="cls-1" d="M1528.65,1685.2s-215.63-36.06-262.53-74.27-.48-55.43-.48-55.43-108.32-55.53-107.07-93.29,55.07-18.56,55.07-18.56-91.27-104.08-69.66-123.85c40.24-36.81,145.76,71.38,145.76,71.38s-31.33-51.45,1.67-59.6c49.76-12.27,86.48,114.59,86.48,114.59s-9.33-50.1,25-43.42C1464.44,1414.72,1528.65,1685.2,1528.65,1685.2Z" transform="translate(-911.7 -428.58)"/><path class="cls-2" d="M1402.87,1402.75c-34.39-6.22-25,43.42-25,43.42s-36.72-126.86-86.48-114.59c-33,8.15-1.67,59.6-1.67,59.6S1184.22,1283,1144,1319.8l384,365.46C1521.09,1650.35,1460.54,1413.17,1402.87,1402.75Z" transform="translate(-911.7 -428.58)"/><path class="cls-3" d="M1590,1714.94s-113.56-115.48-170.74-127.51-46.9,28.66-46.9,28.66-113.46-99.22-139.76-75.18,2.15,47.25,2.15,47.25-94.51-16.74-108,14.27c-20.79,47.65,134.64,73.59,134.64,73.59s-65.14,4.52-50,34.4C1234.11,1755.48,1590,1714.94,1590,1714.94Z" transform="translate(-911.7 -428.58)"/><path class="cls-4" d="M1126.72,1602.43c13.52-31,108-14.27,108-14.27s-28.44-23.21-2.15-47.25,136.23,61.69,136.23,61.69-25.92-49.55,31.27-37.52S1590,1714.94,1590,1714.94Z" transform="translate(-911.7 -428.58)"/><path class="cls-5" d="M1770.79,523.91c-38.23,6.28-49.58,56.45-17.8,78.89a29.14,29.14,0,0,1,11.34,16.88l5.78,23.33a12.72,12.72,0,0,0,14.4,9.49l14.48-2.39a12.69,12.69,0,0,0,10.6-13.59c-2-24.1-4.49-32.83,3.34-43.58C1835.84,561.51,1809,517.61,1770.79,523.91Z" transform="translate(-911.7 -428.58)"/><path class="cls-6" d="M1774.69,625.9c-2.49-20.64-6-42.44-7.17-48.62-21.91,1.21-13.58-21.88-3.47-12.49,2.88,2.67,4.24,6.3,5.14,10.28a56.52,56.52,0,0,0,20.87-6.08c-.35-5.09-.85-9,.57-12.21,2.15-4.92,8.38-6.26,10.92-1.46a7.67,7.67,0,0,1,.43,6c-1.47,4.07-5.89,6.76-9.74,8.86,1.15,16.41,2.74,32.95,4.75,49.23l-2.06.26c-2-16-3.56-32.29-4.71-48.43a58.63,58.63,0,0,1-20.61,5.87c1.5,7.91,4.81,29.15,7.15,48.53Zm-17.58-53.48c2,2.09,5.21,3,10,2.8-.82-3.51-2-6.66-4.45-8.9C1757.19,561.26,1753.85,568.9,1757.11,572.42Zm35.43-14.8c-1.19,2.73-.74,6.24-.46,10.27,3.13-1.78,6.76-4,7.94-7.27.83-2.29-.1-5.52-2.43-6.12C1797.33,554.44,1793.38,555.7,1792.54,557.62Z" transform="translate(-911.7 -428.58)"/><path class="cls-7" d="M1764.16,619.1c0,.19.12.38.17.58l5.78,23.33a12.72,12.72,0,0,0,14.4,9.49l14.48-2.39a12.69,12.69,0,0,0,10.6-13.59c-.89-10.72-1.88-18.4-2-24.56Z" transform="translate(-911.7 -428.58)"/><path class="cls-6" d="M1742.45,506.48,1731,485.62a4.17,4.17,0,0,1,7.31-4l11.43,20.86a4.17,4.17,0,0,1-7.32,4Z" transform="translate(-911.7 -428.58)"/><path class="cls-6" d="M1717.47,557l-24.91-2.18a4.17,4.17,0,0,1,.72-8.31l24.92,2.18a4.17,4.17,0,0,1-.73,8.31Z" transform="translate(-911.7 -428.58)"/><path class="cls-6" d="M1692.77,633.33a4.16,4.16,0,0,1,0-5.89,136.37,136.37,0,0,1,20-16.33,4.17,4.17,0,0,1,4.63,6.93,128,128,0,0,0-18.79,15.33A4.16,4.16,0,0,1,1692.77,633.33Z" transform="translate(-911.7 -428.58)"/><path class="cls-6" d="M1804,505.35a4.17,4.17,0,0,1-3-5.1,159.06,159.06,0,0,0,5.14-32.37,4.17,4.17,0,0,1,8.33.44,167.18,167.18,0,0,1-5.41,34.08A4.17,4.17,0,0,1,1804,505.35Z" transform="translate(-911.7 -428.58)"/><path class="cls-6" d="M1829.67,537.38a4.17,4.17,0,0,1,2.79-5.2l25.9-7.8a4.17,4.17,0,1,1,2.41,8l-25.9,7.81A4.18,4.18,0,0,1,1829.67,537.38Z" transform="translate(-911.7 -428.58)"/><path class="cls-6" d="M1872.22,606.3a4.45,4.45,0,0,1-1.13-.15,131.89,131.89,0,0,1-25.94-10.4,4.17,4.17,0,1,1,3.92-7.36,122.8,122.8,0,0,0,24.28,9.73,4.17,4.17,0,0,1-1.13,8.18Z" transform="translate(-911.7 -428.58)"/><path class="cls-5" d="M2251.61,790.6l-13.07-30.91-32.86-6.75a4.61,4.61,0,0,1-2.09-8l25.35-22-3.74-33.34a4.62,4.62,0,0,1,7-4.46l28.73,17.32,30.56-13.86a4.61,4.61,0,0,1,6.39,5.25l-7.59,32.68,22.62,24.78a4.61,4.61,0,0,1-3,7.7l-33.43,2.88-16.57,29.17A4.62,4.62,0,0,1,2251.61,790.6Z" transform="translate(-911.7 -428.58)"/><polygon class="cls-8" points="1547.94 255.99 1542.57 277.62 1506.81 272.82 1495.05 303.48 1467.7 304.27 1468.1 318.11 1504.68 317.06 1515.82 288 1553.02 293 1561.11 260.44 1547.94 255.99"/><path class="cls-9" d="M2141,1721.59H1512.36c-24,0-43.47-20.19-43.47-45.09v-26.82c0-24.9,19.46-45.09,43.47-45.09H2141c-28.75,32.6-29.25,82.42-1.15,115.64Z" transform="translate(-911.7 -428.58)"/><path class="cls-6" d="M2131.31,1618H1782.62c-24,0-43.47,20.19-43.47,45.09h0c0,24.91,19.46,45.09,43.47,45.09h348.72A89.43,89.43,0,0,1,2131.31,1618Z" transform="translate(-911.7 -428.58)"/><path class="cls-10" d="M1920.16,1523.33a2.61,2.61,0,0,0-2.59-3.7H1584.93c-26.08,0-47.21,19-47.21,42.49h0c0,23.46,21.13,42.49,47.21,42.49h332.73a2.62,2.62,0,0,0,2.59-3.72h0A81.42,81.42,0,0,1,1920.16,1523.33Z" transform="translate(-911.7 -428.58)"/><path class="cls-5" d="M1918.06,1527.54H1753.2c-30.6,0-55.4,15.94-55.4,35.6s24.8,35.61,55.4,35.61h165.94A81.28,81.28,0,0,1,1918.06,1527.54Z" transform="translate(-911.7 -428.58)"/><path class="cls-9" d="M1875.48,1544.42H1854c-4.61,0-8.36,1.55-8.36,3.46v.31h29.83Z" transform="translate(-911.7 -428.58)"/><path class="cls-11" d="M1893.8,1553.1c0-4.8-5.61-8.68-12.53-8.68h-27.55c5.25,0,9.5,2.95,9.5,6.58l-.13,93.09,15.22-12,15.52,12Z" transform="translate(-911.7 -428.58)"/><path class="cls-6" d="M1859,1516.57H1665.45c-17.16,0-31.07-16.52-31.07-36.89h0c0-20.37,13.91-36.88,31.07-36.88H1859c-14.79,20.45-15.37,50.44-1.38,71.67Z" transform="translate(-911.7 -428.58)"/><path class="cls-4" d="M1634.4,1479.68h0c0-20.37,14.24-36.88,31.81-36.88h196.48a1.8,1.8,0,0,0,1.65-1.93h0a1.79,1.79,0,0,0-1.65-1.89H1551c-19.39,0-35.11,18.22-35.11,40.7h0c0,22.49,15.72,40.71,35.11,40.71h311.69a1.8,1.8,0,0,0,1.65-1.89h0a1.79,1.79,0,0,0-1.65-1.93H1666.21C1648.64,1516.57,1634.4,1500.05,1634.4,1479.68Z" transform="translate(-911.7 -428.58)"/><path class="cls-12" d="M1825.21,1460.92h-21.47c-4.62,0-8.37,1.53-8.37,3.4v.31h29.84Z" transform="translate(-911.7 -428.58)"/><path class="cls-2" d="M1843.52,1469.44c0-4.7-5.61-8.52-12.52-8.52h-27.56c5.25,0,9.5,2.9,9.5,6.46l-.13,91.29,15.23-11.74,15.51,11.74Z" transform="translate(-911.7 -428.58)"/><path class="cls-12" d="M2167.38,897.05l28.58-7.52-19.37,258.3-34.28,1.14,17.29-242.54A10.47,10.47,0,0,1,2167.38,897.05Z" transform="translate(-911.7 -428.58)"/><path class="cls-5" d="M2179.15,1155.19a9.2,9.2,0,0,1-2,0c-5.67-.67-9.87-6.31-9.38-12.6l19-242.88c.49-6.29,5.49-10.85,11.17-10.18s9.87,6.32,9.38,12.61l-19,242.88C2187.92,1150.54,2184,1154.75,2179.15,1155.19Z" transform="translate(-911.7 -428.58)"/><path class="cls-5" d="M1916.18,1168.13c0,.18,0,.35,0,.53h0c.89,9.88,8.55,17.28,17.1,16.51l241.3-21.6c8.55-.76,14.75-9.39,13.86-19.27,0-.42-.09-.83-.16-1.24Z" transform="translate(-911.7 -428.58)"/><path class="cls-13" d="M2084.21,1429c-15.8,8.76-64.1-6.6-64.1-8-.69,13.2-54.08,142.4-54.08,142.4l0,39.75s110,5.24,108.43-4.48-7.5-3.4-29.44-21.76c-2-1.63-32.76-8.78-24.43-27C2037.43,1513.18,2073.09,1451.94,2084.21,1429Z" transform="translate(-911.7 -428.58)"/><path class="cls-2" d="M1962.46,1604.59l120.42,0c4.34-.44,5.36-4,3.82-6.13-3.16-4.42-26.24-14.86-41.75-21.78-27,3.15-74.52-7.24-78.87-13.4C1954.64,1578.63,1960,1604.09,1962.46,1604.59Z" transform="translate(-911.7 -428.58)"/><path class="cls-3" d="M1936,1336.25c-1.63-4.89,103.68-49.58,108.39-44.47,8.34,9-57,178.57-57,178.57l75,22.93s78-195.87,74.75-231.7-42.33-76.53-127-50.48S1936,1336.25,1936,1336.25Z" transform="translate(-911.7 -428.58)"/><path class="cls-13" d="M2154.08,1451.29c-17.78-3.23-40.82-4.15-59.26-4.47,2.17,16.42,12.72,100.63,10.8,105.81a63.2,63.2,0,0,1-25.16,30.77s81.77,73.78,86.71,65.26-3.65-7.38-9-35.49c-.47-2.5-12.3-41.74-13-62.9C2143.75,1509.91,2153.47,1473.71,2154.08,1451.29Z" transform="translate(-911.7 -428.58)"/><path class="cls-4" d="M2127.84,1175.79c-11.41-6.08-41-6.3-73.58-4.19a747.18,747.18,0,0,0-186.55,36.62l-40.41,13.38.13-41.43s-128.56-21.51-133,10.35c-6.73,48,1.63,145.4,44.46,167.14,133.05,67.54,319.5-107.59,320.18-84.68.9,30.77,26.85,145.28,33.48,195.41,18.44.32,50.13.31,63.88-2.85C2159.06,1367.33,2160.32,1193.12,2127.84,1175.79Z" transform="translate(-911.7 -428.58)"/><path class="cls-2" d="M2078,1585.13l91.93,73.42c3.64,2.42,6.66.33,6.84-2.31.36-5.43-10.88-28.13-18.49-43.31-22.9-14.69-53.11-53-52.56-60.5C2096,1560.61,2076.41,1583.2,2078,1585.13Z" transform="translate(-911.7 -428.58)"/><path class="cls-14" d="M1869.9,775.3c-3.08-28.23-6.33-56.56-29.73-77.25-18.94-16.74-43-19.58-66.82-10.62-67.45,25.38-32.7,85.28-118.7,145.68-26.73,18.77-56.18,31.61-76.3,56.88-28.16,35.38-17.53,77.92,8.13,106.33,122.82,135.92,259.93-47.64,269.78-91.71C1863.58,871.83,1871.89,793.47,1869.9,775.3Z" transform="translate(-911.7 -428.58)"/><path class="cls-1" d="M1845,934a375.79,375.79,0,0,0-20.36-33.17c-10.41-18.5-37.29-27.85-37.29-27.85s-9,.18-19.32.69a8.1,8.1,0,0,1-2,3.42c-3.88,2.91-26.12-.84-40.48,8.91-48.15,41.27-34.83,241.32-31,304.5l146.63,1.39s-18.49-136,11.3-170.88C1873.2,996.71,1859.85,961.46,1845,934Z" transform="translate(-911.7 -428.58)"/><path class="cls-13" d="M1778.87,805.32s-8.06,57.56-13.69,71.55,31,43.91,61.39,53-9.3-30.9-8-45.86,6.8-85.75,6.8-85.75Z" transform="translate(-911.7 -428.58)"/><path class="cls-11" d="M1823.79,818.55c.89-11.71,1.54-20.3,1.54-20.3l-46.46,7.07s-1.17,6.76-2.47,16.32C1795.24,832.57,1812.17,829.12,1823.79,818.55Z" transform="translate(-911.7 -428.58)"/><path class="cls-13" d="M1793.44,700.18a52.75,52.75,0,0,0-29.62,21.38c-11.3,17.25-19.06,68.05,18.18,91.76s66.19-9.83,66.67-42.54S1842.14,694.41,1793.44,700.18Z" transform="translate(-911.7 -428.58)"/><path class="cls-13" d="M1857.2,760.54c-3.18,7.89-9.48,12.79-14.08,10.94s-5.75-9.75-2.57-17.64,9.48-12.79,14.07-10.94S1860.37,752.65,1857.2,760.54Z" transform="translate(-911.7 -428.58)"/><path class="cls-14" d="M1798.93,699.11s-23.34,52.36-43.85,57-20.21,31-20.21,31,.46-60.85,19.68-74.8S1798.93,699.11,1798.93,699.11Z" transform="translate(-911.7 -428.58)"/><path class="cls-13" d="M1763.23,767c2.7,8.5.23,16.87-5.52,18.7s-12.6-3.59-15.3-12.09-.23-16.88,5.52-18.71S1760.53,758.52,1763.23,767Z" transform="translate(-911.7 -428.58)"/><path class="cls-13" d="M2025.5,1145.05c-8.79-3.18-21.89-3.58-21.67-4.74.88-4.7,39.75,10.38,34.5,3.52-2.92-3.82-32-17.35-39.08-15.12-6.87,2.17-51.91,14.81-51.91,14.81l-123.11-28.85s-31.07-70.61-34.11-131.28c-25.68,3.48-43.17,9.82-65.49,22.21,10.76,58,36.93,152.06,65.86,169.71,12.16,7.42,157.46-8.89,157.46-8.89s32-2.26,37.25-4.27c4-1.53,14.19-7.28,19.74-8.86,12.64-3.57,35.14,5.41,35.21,2.93C2040.2,1154.42,2034.49,1148.3,2025.5,1145.05Z" transform="translate(-911.7 -428.58)"/><path class="cls-7" d="M1790.88,918.57c-1.18-18.66-8.26-36.69-28.12-42.49-12.31-3.6-26.12-.16-36,7.88-11.7,9.56-15,24.89-14.91,39.4.12,33,2.37,67.12,8.39,99.57,22.32-12.39,48.38-19.84,74.07-23.31C1794.34,999.42,1792.45,943.24,1790.88,918.57Z" transform="translate(-911.7 -428.58)"/><path class="cls-5" d="M1409.45,953.8l-190.86-35.54a7.07,7.07,0,0,1-5.65-8.24l23.91-128.39a7.07,7.07,0,0,1,8.24-5.65l190.85,35.54a7,7,0,0,1,5.65,8.23l-23.91,128.4A7.06,7.06,0,0,1,1409.45,953.8Z" transform="translate(-911.7 -428.58)"/><path class="cls-5" d="M1318.6,807l-58.1-10.82a7.06,7.06,0,0,1-5.64-8.24l3.63-19.53a7.07,7.07,0,0,1,8.24-5.65l58.09,10.82a7,7,0,0,1,5.65,8.23l-3.64,19.54A7.06,7.06,0,0,1,1318.6,807Z" transform="translate(-911.7 -428.58)"/><path class="cls-6" d="M1418.14,948.89a7.06,7.06,0,0,1-8.08,5L1218,918.14a7.07,7.07,0,0,1-5.74-7.56l10-115.09a7.06,7.06,0,0,1,8.33-6.33L1444,828.9a7.07,7.07,0,0,1,5.5,8.86Z" transform="translate(-911.7 -428.58)"/><polygon class="cls-1" points="1381.84 99.77 1349.16 108.69 1342.12 69.09 1352.82 67.19 1357.77 95.08 1378.98 89.29 1381.84 99.77"/><path class="cls-3" d="M1252.31,1072.28c8.19-.67,20.76,2.94,26.39,6.76.84.79,7.32,3.37,14.06,14.53l-1.52,1c-7.1-7.44-11.88-9.11-17.58-10.82-9.38-2.41-18.84-.61-19.61-.19Z" transform="translate(-911.7 -428.58)"/><path class="cls-11" d="M1292,1094.09s-49.87,8.32-45.22,47.28,57.26,69.26,104.22,45.17c63.16-32.41,38.21-114.82-6.75-121.19S1292,1094.09,1292,1094.09Z" transform="translate(-911.7 -428.58)"/><path class="cls-8" d="M1313.16,1076.94s13-13.36,41.51-1.21,30.57,68.82,5.15,65.53S1292.83,1085.11,1313.16,1076.94Z" transform="translate(-911.7 -428.58)"/><path class="cls-10" d="M1656.21,559.39l-205.1,73.16a12.71,12.71,0,0,1-16.24-7.7L1397,518.73a12.71,12.71,0,0,1,7.7-16.24l205.1-73.17a12.72,12.72,0,0,1,16.24,7.7l37.85,106.13A12.7,12.7,0,0,1,1656.21,559.39Z" transform="translate(-911.7 -428.58)"/><path class="cls-15" d="M1520.27,532.11a40.65,40.65,0,1,1-51.94-24.63A40.64,40.64,0,0,1,1520.27,532.11Z" transform="translate(-911.7 -428.58)"/><path class="cls-10" d="M1487.81,526.42a12,12,0,1,1-15.31-7.26A12,12,0,0,1,1487.81,526.42Z" transform="translate(-911.7 -428.58)"/><path class="cls-10" d="M1481.24,548.32h9.9a14.2,14.2,0,0,1,14.2,14.2v4.3a0,0,0,0,1,0,0H1467a0,0,0,0,1,0,0v-4.3A14.2,14.2,0,0,1,1481.24,548.32Z" transform="translate(-1012.63 103.15) rotate(-19.63)"/><path class="cls-15" d="M1525.33,509.93a5.19,5.19,0,0,1-1.75-10.07l89.66-32a5.18,5.18,0,1,1,3.48,9.76l-89.65,32A5.23,5.23,0,0,1,1525.33,509.93Z" transform="translate(-911.7 -428.58)"/><path class="cls-15" d="M1549.53,532.28a5.18,5.18,0,0,1-1.74-10.07l70-25a5.18,5.18,0,1,1,3.48,9.76l-70,25A5.19,5.19,0,0,1,1549.53,532.28Z" transform="translate(-911.7 -428.58)"/><path class="cls-11" d="M1974.89,1359.87H1479.65a27.85,27.85,0,0,0-27.84,27.85v23.42a27.85,27.85,0,0,0,27.84,27.85h495.24l-.26-.27A56.72,56.72,0,0,1,1974.89,1359.87Z" transform="translate(-911.7 -428.58)"/><path class="cls-6" d="M1966.13,1371.58H1701.38a27.85,27.85,0,0,0-27.85,27.85h0a27.85,27.85,0,0,0,27.85,27.85h264.74A56.79,56.79,0,0,1,1966.13,1371.58Z" transform="translate(-911.7 -428.58)"/><path class="cls-6" d="M2380.22,1362.15,2342.68,1268a9.23,9.23,0,0,1,5.16-12l135.08-53.84a9.23,9.23,0,0,1,12,5.16l37.54,94.18a9.23,9.23,0,0,1-5.16,12l-135.08,53.84A9.23,9.23,0,0,1,2380.22,1362.15Z" transform="translate(-911.7 -428.58)"/><path class="cls-4" d="M2507.65,1307.69l-33.73-84.63a2.64,2.64,0,0,1,1.47-3.44h0a2.66,2.66,0,0,1,3.45,1.48l33.73,84.63a2.65,2.65,0,0,1-1.48,3.44h0A2.65,2.65,0,0,1,2507.65,1307.69Z" transform="translate(-911.7 -428.58)"/><path class="cls-4" d="M2491.58,1296.54l-27.7-69.48a2.65,2.65,0,0,1,1.48-3.44h0a2.64,2.64,0,0,1,3.44,1.48l27.7,69.48A2.66,2.66,0,0,1,2495,1298h0A2.64,2.64,0,0,1,2491.58,1296.54Z" transform="translate(-911.7 -428.58)"/><path class="cls-4" d="M2487.58,1315.69l-33.74-84.63a2.64,2.64,0,0,1,1.49-3.44h0a2.64,2.64,0,0,1,3.44,1.48l33.73,84.63a2.65,2.65,0,0,1-1.48,3.44h0A2.65,2.65,0,0,1,2487.58,1315.69Z" transform="translate(-911.7 -428.58)"/><path class="cls-4" d="M2469.85,1300.38l-26-65.32a2.65,2.65,0,0,1,1.48-3.44h0a2.64,2.64,0,0,1,3.44,1.48l26,65.32a2.65,2.65,0,0,1-1.48,3.44h0A2.65,2.65,0,0,1,2469.85,1300.38Z" transform="translate(-911.7 -428.58)"/><path class="cls-3" d="M2506.74,1214l-.68-1.7a1.18,1.18,0,0,0-1.52-.71l-12.82,5.11a1.19,1.19,0,0,0-.62,1.56l.68,1.71a1.2,1.2,0,0,0,1.52.71l12.82-5.11A1.2,1.2,0,0,0,2506.74,1214Z" transform="translate(-911.7 -428.58)"/><path class="cls-3" d="M2509.65,1221.32l-.68-1.7a1.18,1.18,0,0,0-1.52-.71l-12.83,5.11a1.19,1.19,0,0,0-.61,1.56l.68,1.71a1.2,1.2,0,0,0,1.52.71l12.82-5.11A1.2,1.2,0,0,0,2509.65,1221.32Z" transform="translate(-911.7 -428.58)"/><path class="cls-3" d="M2512.55,1228.61l-.68-1.7a1.18,1.18,0,0,0-1.52-.71l-12.82,5.11a1.17,1.17,0,0,0-.61,1.56l.67,1.71a1.2,1.2,0,0,0,1.53.71l12.82-5.12A1.18,1.18,0,0,0,2512.55,1228.61Z" transform="translate(-911.7 -428.58)"/><path class="cls-3" d="M2515.46,1235.9l-.68-1.7a1.18,1.18,0,0,0-1.52-.71l-12.82,5.11a1.19,1.19,0,0,0-.62,1.56l.68,1.71a1.18,1.18,0,0,0,1.52.7l12.82-5.11A1.19,1.19,0,0,0,2515.46,1235.9Z" transform="translate(-911.7 -428.58)"/><path class="cls-3" d="M2518.36,1243.19l-.68-1.7a1.18,1.18,0,0,0-1.52-.71l-12.82,5.11a1.19,1.19,0,0,0-.62,1.56l.68,1.7a1.19,1.19,0,0,0,1.53.71l12.82-5.11A1.18,1.18,0,0,0,2518.36,1243.19Z" transform="translate(-911.7 -428.58)"/><path class="cls-3" d="M2521.27,1250.48l-.68-1.7a1.18,1.18,0,0,0-1.52-.71l-12.82,5.11a1.19,1.19,0,0,0-.62,1.56l.68,1.7a1.18,1.18,0,0,0,1.52.71l12.82-5.11A1.19,1.19,0,0,0,2521.27,1250.48Z" transform="translate(-911.7 -428.58)"/><path class="cls-3" d="M2524.17,1257.77l-.68-1.7a1.18,1.18,0,0,0-1.52-.71l-12.82,5.11a1.18,1.18,0,0,0-.61,1.56l.68,1.7a1.18,1.18,0,0,0,1.52.71l12.82-5.11A1.18,1.18,0,0,0,2524.17,1257.77Z" transform="translate(-911.7 -428.58)"/><path class="cls-3" d="M2527.08,1265.06l-.68-1.7a1.18,1.18,0,0,0-1.52-.71l-12.82,5.11a1.19,1.19,0,0,0-.62,1.56l.68,1.7a1.18,1.18,0,0,0,1.52.71l12.82-5.11A1.19,1.19,0,0,0,2527.08,1265.06Z" transform="translate(-911.7 -428.58)"/><path class="cls-3" d="M2530,1272.35l-.68-1.7a1.18,1.18,0,0,0-1.52-.71l-12.82,5.11a1.18,1.18,0,0,0-.61,1.56l.68,1.7a1.18,1.18,0,0,0,1.52.71l12.82-5.11A1.18,1.18,0,0,0,2530,1272.35Z" transform="translate(-911.7 -428.58)"/><path class="cls-3" d="M2532.89,1279.64l-.68-1.7a1.18,1.18,0,0,0-1.52-.71l-12.82,5.11a1.19,1.19,0,0,0-.62,1.56l.68,1.7a1.18,1.18,0,0,0,1.52.71l12.82-5.11A1.19,1.19,0,0,0,2532.89,1279.64Z" transform="translate(-911.7 -428.58)"/><path class="cls-3" d="M2535.79,1286.93l-.67-1.71a1.19,1.19,0,0,0-1.53-.7l-12.82,5.1a1.2,1.2,0,0,0-.61,1.57l.68,1.7a1.18,1.18,0,0,0,1.52.71l12.82-5.11A1.18,1.18,0,0,0,2535.79,1286.93Z" transform="translate(-911.7 -428.58)"/><path class="cls-3" d="M2538.7,1294.22l-.68-1.71a1.2,1.2,0,0,0-1.52-.71l-12.82,5.12a1.19,1.19,0,0,0-.62,1.56l.68,1.7a1.18,1.18,0,0,0,1.52.71l12.83-5.11A1.19,1.19,0,0,0,2538.7,1294.22Z" transform="translate(-911.7 -428.58)"/><path class="cls-9" d="M2574.12,1286.72l-53.61,76.34a2,2,0,0,0-.28.56l-5.47,16.77a2.11,2.11,0,0,0,3.27,2.33l14.35-10.82a2.24,2.24,0,0,0,.45-.47l53.75-76.54a2.09,2.09,0,0,0-.59-3l-9-5.77A2.11,2.11,0,0,0,2574.12,1286.72Z" transform="translate(-911.7 -428.58)"/><path class="cls-5" d="M2532.77,1371.51l-.13.19-13.85,10.44-3.77-2.53,5.18-15.9C2524.25,1365.93,2529.11,1368.21,2532.77,1371.51Z" transform="translate(-911.7 -428.58)"/><path class="cls-4" d="M2031,460.25c7.72,6.16,21.15,26,38.27,39.89,10,8.14,17.74,6.07,30.53,7.62,60.68,7.33,44.24,19.74,51.52,21-2.07,4.76-21,44.95-24.51,53.07-3.26,7.49-8.89,10.84-17.05,9.72-12.55-1.74-25.21-3-37.57-5.71-31.67-6.87-49.29-22.71-72-41.94-6-5.11-7.5-11.47-4.38-18.69C2010.32,491.59,2029.4,463.34,2031,460.25Z" transform="translate(-911.7 -428.58)"/><path class="cls-10" d="M2157.86,577.06c-.27,13.22.74,15.87-4.94,13.87a79.83,79.83,0,0,1-10-4.45c-2.27-1.17-2.36-2.72-.51-4.58,2.69-2.71,5.46-5.34,8.15-8a11.71,11.71,0,0,1,5.14-14.06c1-.58.27.65,8.72-18.8-27.95-3.45-47.67-5.76-81.76-10a45.85,45.85,0,0,1-24.27-10.57q-36.52-30.55-73-61.15c-3.3-2.76-3.72-6.82-1.1-9.94,2-2.38,4.66-2.5,7.52-2.14,7.78,1,84.07,10.45,91.82,11.36a50.16,50.16,0,0,1,27,11.61q35.88,30.06,71.86,60c3.29,2.74,4.18,5.26,3,8.31-1.27,3.35-4,4.95-8.22,4-3-.65-4.36.26-5.4,3.06-4.7,12.64-8,15.44-6.85,20.06C2165.93,569.34,2161.69,575.51,2157.86,577.06Z" transform="translate(-911.7 -428.58)"/><path class="cls-4" d="M2284.43,1475.39l13.9,13.26a369.49,369.49,0,0,1,79.11,109.62l2.13,4.51s36.41,3.22,41.49-29.7h0a550.09,550.09,0,0,1-79.93-117.4l-6.58-15.39Z" transform="translate(-911.7 -428.58)"/><path class="cls-10" d="M2334.51,1440.25c1.79,2.56-8,12.46-21.81,22.1s-26.56,15.51-28.34,13,8-12.58,21.87-22.22S2332.73,1437.68,2334.51,1440.25Z" transform="translate(-911.7 -428.58)"/><path class="cls-3" d="M2334.57,1440.34l0,0s-27.72,23.46-39.14,25.85l3.53,4.8a142.79,142.79,0,0,0,13.78-8.59C2326.38,1452.82,2336.08,1443,2334.57,1440.34Z" transform="translate(-911.7 -428.58)"/><path class="cls-9" d="M2371.6,1508.45c.05,4-1.5,21.5-30.54,28.78q2.86,3.9,5.63,7.88c18.39-5.44,26.65-14.87,30.37-22.06.58-1.13,1.29-2.66,1.77-3.84Q2375.14,1513.87,2371.6,1508.45Z" transform="translate(-911.7 -428.58)"/><polygon class="cls-9" points="1431.97 1103.49 1389.23 1101.96 1399.36 1110.56 1393.31 1121.54 1433.76 1111.23 1431.97 1103.49"/><polygon class="cls-9" points="1435.87 1113.43 1420.68 1139.88 1431.36 1135.81 1435.47 1144.21 1442.61 1116.39 1435.87 1113.43"/><path class="cls-11" d="M2353.36,1549.18a14,14,0,1,1,12.6-15A13.84,13.84,0,0,1,2353.36,1549.18Z" transform="translate(-911.7 -428.58)"/><path class="cls-16" d="M2444.08,949l-90-80.31c-5.85-5.22-3.42-16,4.65-20.52l71.83-40.68c4.6-2.6,9.78-2.36,13.11.62l90,80.31c5.85,5.22,3.42,16-4.65,20.52l-71.83,40.67C2452.59,952.23,2447.41,952,2444.08,949Z" transform="translate(-911.7 -428.58)"/><path class="cls-15" d="M2439.81,885.13l-7.5-61.71a5.53,5.53,0,0,1,3.84-5.64,3.58,3.58,0,0,1,4.89,2.92l6.9,56.78,68.25,16.5c2.22.54,3.25,2.94,2.29,5.36s-3.55,3.95-5.78,3.41Z" transform="translate(-911.7 -428.58)"/><path class="cls-12" d="M920.42,1720.85c-4.82,0-8.72,4.52-8.72,10.1s3.9,10.09,9.76,3.31H2694.08c2.27,0,4.11-3,4.12-6.66h0c0-3.72-1.83-6.75-4.12-6.75Z" transform="translate(-911.7 -428.58)"/><polygon class="cls-5" points="352.85 173.91 362.15 192.31 383.17 191.63 392.14 213 414.3 205.37 425.51 229.09 446.78 224.58 461.3 245.64 453.33 251.13 442.48 235.39 420.03 240.15 409.25 217.35 386.72 225.1 376.82 201.52 356.3 202.19 347.68 185.13 334.29 188.39 332 178.98 352.85 173.91"/><polygon class="cls-1" points="1478.4 644.69 1497.51 652.45 1512.91 638.13 1533.7 648.35 1545.4 628.04 1569.43 638.56 1582.51 621.19 1607.29 627.53 1604.89 636.9 1586.36 632.16 1572.56 650.5 1549.46 640.38 1537.57 661.04 1514.62 649.76 1499.58 663.74 1481.87 656.55 1473.92 667.79 1466.01 662.21 1478.4 644.69"/></svg>