<?xml version="1.0" encoding="UTF-8"?>
<svg width="800px" height="500px" viewBox="0 0 800 500" version="1.1" xmlns="http://www.w3.org/2000/svg" xmlns:xlink="http://www.w3.org/1999/xlink">
    <!-- Generator: Sketch 64 (93537) - https://sketch.com -->
    <title>Artboard Copy 2</title>
    <desc>Created with Sketch.</desc>
    <g id="Artboard-Copy-2" stroke="none" stroke-width="1" fill="none" fill-rule="evenodd">
        <rect fill="#FFFFFF" x="0" y="0" width="800" height="500"></rect>
        <g id="Group-5" transform="translate(49.000000, -29.000000)">
            <g id="43021">
                <polygon id="Fill-1" fill="#FFFFFF" points="0 529 727 529 727 0 0 0"></polygon>
                <path d="M606.695151,512.072 C602.620628,512.072 598.524949,511.918873 594.38233,511.544635 C578.556945,510.116988 562.516032,509.403494 546.76932,507.365978 C510.630822,502.687016 474.475795,502.411123 438.074169,502.411123 C423.620621,502.411123 409.169056,502.280437 394.718813,502.280437 C373.678462,502.280437 352.645382,502.55699 331.646682,503.915995 C298.882573,506.036015 266.06293,506.373951 233.23932,506.373951 C228.294755,506.373951 223.349528,506.36603 218.404963,506.35547 C218.083656,506.35481 217.762348,506.35481 217.440379,506.35481 C199.272623,506.35481 181.175606,507.437261 163.035616,508.201577 C144.811003,508.969853 127.089506,510.231173 108.970011,510.231173 C107.336368,510.231173 105.696774,510.220613 104.055858,510.198831 C85.9515689,509.95792 58.3845761,504.858519 45.4688082,491.859865 C37.8010628,484.13684 38.8403537,465.556962 46.5199994,458.11049 C49.8752165,454.857856 55.2838927,452.309476 59.7015401,450.760382 C72.2867447,446.344114 85.0954101,446.334213 98.2458778,446.241809 C98.4058704,446.240489 98.5658631,446.239829 98.7258557,446.239829 C107.801801,446.239829 117.23806,448.008712 125.937162,450.466009 C133.850186,452.701534 141.934441,453.485651 149.982334,454.876997 C156.567154,456.016211 163.61278,456.561397 170.580392,456.561397 C175.11572,456.561397 179.617992,456.329726 183.937793,455.880904 C195.622543,454.667767 207.390595,454.10344 219.110385,453.147055 C233.662441,451.958999 247.904429,449.383557 262.406239,448.002772 C269.665408,447.311719 276.757313,445.598279 284.000615,444.819442 C303.21163,442.753544 322.456362,442.306043 341.701094,442.2506 C343.259369,442.24598 344.816983,442.244 346.375258,442.244 C355.539133,442.244 364.703669,442.310663 373.862916,442.310663 C381.308523,442.310663 388.748841,442.288882 396.190481,442.288882 C421.66567,442.288882 447.119702,442.541674 472.526133,444.77522 C480.398828,445.467592 488.219955,445.048473 495.982902,446.69591 C503.776262,448.349949 511.643668,449.85812 519.628754,450.153154 C526.464802,450.405286 533.320023,450.48845 540.1845,450.48845 C552.382284,450.48845 564.603208,450.225757 576.760003,450.183515 C577.978459,450.178895 579.672926,450.171635 581.77597,450.171635 C608.996532,450.171635 703.824555,451.380812 697.021563,475.848168 C694.410113,485.250312 679.210814,497.487291 670.688893,501.425697 C659.921125,506.401012 648.144478,509.345411 636.291141,510.337438 C626.300858,511.174358 616.55982,512.072 606.695151,512.072" id="Fill-3" fill="#F6EAEA"></path>
                <polyline id="Fill-16" fill="#EAC1A4" points="516.413392 183.972318 510.474513 180.634442 508.933661 174.807131 507.538249 174.507483 507.101932 176.217833 504.445153 171.749375 500.481432 170.338 495.89373 173.55669 494.190684 179.107248 497.854814 183.344741 504.138189 185.517693 512.071663 190.44 516.413392 183.972318"></polyline>
                <path d="M505.83115,191.281256 C517.881917,202.621404 525.052635,209.041652 527.343303,210.542 C530.779304,212.792522 536.519651,219.006 548.160116,219.006 C555.920427,219.006 567.913634,211.283378 584.139738,195.838135 L575.231451,173.567314 C565.929862,185.369843 556.502055,191.699405 546.948031,192.556 C537.394006,193.412595 526.60362,189.551621 514.576873,180.973078 L505.83115,191.281256 Z" id="Fill-17" fill="#EED5D5"></path>
                <path d="M644.669428,465.198075 C641.578481,470.48508 637.973823,473.225863 634.646534,473.998351 C631.319245,474.770839 627.352444,475.694728 626.74103,472.707155 C626.129616,469.719581 627.632951,466.71054 632.117087,461.638627 C636.601222,456.566715 640.480772,453.223695 642.140622,452.838351 C643.800472,452.453007 647.760374,459.911069 644.669428,465.198075 Z" id="Fill-18" fill="#353A85"></path>
                <path d="M619.431345,299.626425 C615.816325,319.249641 616.429182,344.119052 621.269915,374.234659 C626.110649,404.350265 633.840183,431.381277 644.458515,455.327693 L633.331696,460.23 L584.498324,366.539996 L578.941253,336.865662 L576.732169,274.368541 L607.792787,272.964 L619.431345,299.626425 Z" id="Fill-19" fill="#353A85"></path>
                <path d="M552.393013,357.212128 C555.13804,392.803898 560.044995,426.437855 567.113878,458.114 L578.432808,458.114 L585.582472,365.01 L601.071325,271.906 L553.296025,278.952985 C549.94899,295.533978 549.647986,321.620359 552.393013,357.212128 Z" id="Fill-20" fill="#353A85"></path>
                <path d="M576.509627,460.381069 C572.316832,464.017913 567.308936,466.200069 563.092568,466.200069 C558.8762,466.200069 556.383317,463.290569 556.383317,460.381069 C556.383317,457.471569 557.800182,456.092225 563.092568,454.562069 C568.384954,453.031913 576.509627,454.562069 576.509627,454.562069 C579.304823,456.01684 579.304823,457.956507 576.509627,460.381069 Z" id="Fill-21" fill="#353A85"></path>
                <path d="M575.231451,173.567314 C578.356938,169.47223 585.053068,170.752017 589.709712,170.338 C594.973095,169.870039 598.409491,168.219148 605.629031,172.454 C612.848571,176.688852 631.404641,186.610133 633.211921,229.258066 C635.0192,271.906 637.050946,276.509298 631.247647,321.682178 C630.119243,330.465676 615.133552,325.908665 605.629031,325.864 C578.146438,325.73485 544.045112,323.775369 536.519651,318.740215 C531.502677,315.383446 538.3029,287.894463 556.920322,236.273264 C562.469532,203.193036 568.573241,182.291053 575.231451,173.567314 Z" id="Fill-22" fill="#EED5D5"></path>
                <path d="M585.357561,176.686 C588.849931,176.338899 592.341646,175.992464 595.833361,175.644696 C595.870695,172.799265 595.68468,169.949836 595.276625,167.135051 C598.188025,166.09841 601.552673,164.542117 602.06356,161.447519 C602.224686,160.473503 602.060285,159.476836 601.895884,158.503487 C601.217322,154.476845 600.538759,150.450203 599.860852,146.423561 C599.626368,145.030492 599.376164,143.59745 598.633414,142.403581 C597.329997,140.308315 594.796523,139.388929 592.395355,138.961215 C586.267988,137.871277 579.587815,139.211715 574.830018,143.288989 C573.564591,144.373598 572.419025,145.678059 571.859015,147.262334 C570.996402,149.706033 571.635666,152.403564 572.280824,154.915885 C572.876204,157.234335 573.470928,159.553451 574.066308,161.871902 C574.750765,164.538786 575.7411,167.570759 578.264749,168.574089 C579.604845,169.107066 581.187939,168.953835 582.400968,169.740642 C584.539487,171.129048 584.247365,174.366217 585.357561,176.686 L556.383317,21.085437" id="Fill-23" fill="#915D38"></path>
                <path d="M550.284398,135.790127 C550.216074,133.069636 550.602141,130.316313 551.151391,127.835498 C552.094668,123.572541 557.175892,121.656444 561.573871,121.354386 C571.072975,120.701678 580.240406,116.438722 589.517289,119.729183 C594.819407,121.609822 601.941082,122.061595 606.739721,124.713138 C608.743024,125.820903 610.341686,127.548543 611.586122,129.458074 C615.898529,136.069859 615.909806,145.179531 611.614645,151.803136 C610.650142,153.28913 609.497911,154.64642 608.286642,155.943299 C605.780524,158.627018 602.78154,161.941119 599.337452,162.932 C599.25984,159.883842 602.078394,150.273147 599.716222,147.770663 C595.968321,143.800571 587.478829,145.172308 582.820156,146.142834 C577.739594,147.200693 573.20762,150.755783 568.170176,151.510271 C564.545658,152.052662 559.924131,150.286937 556.844883,148.428624 C552.020373,145.517048 550.409107,140.706448 550.284398,135.790127" id="Fill-24" fill="#353A85"></path>
                <path d="M550.730424,304.030365 C549.073181,313.964637 548.24456,319.818445 548.24456,321.591789 C548.24456,323.365133 561.238257,324.789203 587.22565,325.864 C587.22565,325.864 585.683727,265.12324 586.197266,257.024913 C586.711458,248.925925 592.504777,231.410384 593.393996,212.536973 C593.908188,201.620486 599.32446,175.628 594.935919,175.628 C590.547378,175.628 584.139738,176.686 584.139738,176.686 C584.139738,176.686 573.0033,219.134122 550.730424,304.030365 Z" id="Fill-25" fill="#FFFFFF"></path>
                <path d="M323.081128,317.210884 L323.075837,351.256 C323.330869,350.573513 323.499127,349.864171 323.499127,349.114876 L323.499127,295.182 L323.085361,295.182 L323.081128,317.210884" id="Fill-26" fill="#D9A3A3"></path>
                <path d="M323.506005,271.717144 L323.500714,238.05 C323.237216,238.747528 323.068959,239.474148 323.068959,240.239115 L323.068959,294.124 L323.482724,294.124 L323.482724,271.717144 L323.506005,271.717144" id="Fill-27" fill="#D9A3A3"></path>
                <path d="M313.234352,392.518 C311.986217,392.643374 310.72946,393.013738 309.529075,393.675148 C305.83242,395.709271 302.158977,397.63721 298.419214,398.866 C302.103932,397.684545 305.75151,395.773237 309.578815,393.769817 C310.805065,393.128237 312.035957,392.722052 313.234352,392.518" id="Fill-28" fill="#D9A3A3"></path>
                <path d="M348.15575,236.992 C344.41598,235.76385 340.741216,233.835271 337.044562,231.800508 C335.843962,231.140377 334.587643,230.769374 333.340611,230.644 C334.538558,230.848052 335.769007,231.254237 336.994813,231.895817 C340.822803,233.899237 344.471035,235.810545 348.15575,236.992" id="Fill-29" fill="#D9A3A3"></path>
                <path d="M323.075308,400.982 L323.0679,471.868 C323.211819,471.868 323.361028,471.868 323.507063,471.866682 L323.507063,403.166585 C323.507063,402.403463 323.338806,401.678563 323.075308,400.982" id="Fill-30" fill="#D9A3A3"></path>
                <path d="M223.978803,281.532875 C224.971386,283.194603 225.38881,284.982715 225.354826,286.718 C225.548469,284.745325 225.150923,282.666996 224.009581,280.759185 C220.331638,274.605778 217.981628,267.772968 218.009841,261.326 C217.777084,267.996984 220.155948,275.132047 223.978803,281.532875" id="Fill-31" fill="#D9A3A3"></path>
                <path d="M266.672489,262.384 C266.39234,268.709639 263.535553,274.72371 260.418891,280.797225 C259.611004,282.37146 259.255288,284.037936 259.265118,285.66 C259.361573,284.297576 259.714217,282.919437 260.388787,281.605524 C263.641838,275.274419 266.611053,269.007541 266.672489,262.384" id="Fill-32" fill="#D9A3A3"></path>
                <path d="M323.499127,189.382 L323.489603,116.38 C323.352033,116.383958 323.213406,116.383298 323.075837,116.387256 L323.075837,187.225628 C323.075837,187.9796 323.244095,188.693993 323.499127,189.382" id="Fill-33" fill="#D9A3A3"></path>
                <path d="M313.705557,392.254172 C312.509912,392.464609 311.281846,392.883503 310.058411,393.545159 C306.239891,395.611266 302.600686,397.582379 298.924426,398.800801 C293.388863,400.680219 287.707732,400.969158 281.592543,397.654284 C269.139842,390.905794 264.529961,374.202126 271.71243,362.034394 C280.570257,347.027414 296.673412,348.877147 309.697137,356.974676 C315.318056,360.468982 322.41186,357.200945 323.810639,351.177439 L323.816594,294.701219 L323.816594,294.701219 L323.816594,293.134487 L323.556556,293.134487 L323.556556,294.397768 L266.137828,294.397768 C261.730419,293.23146 258.870665,289.002274 259.219367,284.60553 C259.20878,283.039459 259.59189,281.430508 260.461991,279.910613 C263.818662,274.046749 266.895445,268.240277 267.197168,262.132992 C267.22959,258.976441 266.503072,255.73677 264.666266,252.363184 C257.904621,239.944115 241.152365,235.338914 228.94316,242.492446 C221.206208,247.025742 217.940186,253.470121 217.686765,260.42575 C217.657652,266.78569 220.082686,273.526264 223.878047,279.596607 C225.055826,281.478664 225.466064,283.528938 225.266239,285.474984 C225.181544,289.570915 222.364137,293.363395 218.164494,294.397768 L168.235252,294.397768 C168.069833,294.649104 167.897798,294.893844 167.738335,295.153097 C163.429515,302.173374 164.317481,307.392734 170.746965,311.811907 C174.867208,314.643238 179.214405,317.074146 182.821189,320.745245 C188.327638,326.350516 188.68428,329.656814 184.480005,336.589354 C179.749037,344.392667 179.774181,344.71195 187.044652,350.255211 C188.995928,351.743441 191.061674,352.862253 188.320359,355.679071 C184.287458,359.821839 185.729907,363.864336 189.203694,366.883676 C194.078906,371.120777 194.811379,376.557171 193.896284,382.63543 C193.096983,387.938569 191.919203,393.174421 190.924046,398.443257 C188.239635,412.658624 191.978754,419.256708 204.861542,422.991796 C218.307415,426.889824 231.689106,423.5136 245.097925,422.223273 C254.086102,421.357778 262.934666,418.241466 272.130608,420.509434 C278.100229,421.982491 281.397349,425.621926 282.163567,432.287297 C283.281796,442.00763 286.183897,451.297193 287.842052,460.861183 C289.194513,468.661857 292.601471,471.098701 299.648297,470.783376 C305.553736,470.519506 313.998678,470.394827 323.800714,470.357885 L323.805345,399.399128 C322.71623,394.78601 318.281693,391.778545 313.705557,392.254172" id="Fill-34" fill="#8CABEF"></path>
                <path d="M371.564009,161.003275 C374.336149,166.550697 382.020757,168.090436 386.688332,163.379986 C397.502134,152.464965 412.780428,146.926137 424.928201,159.499897 C434.777693,169.695625 434.18172,187.047269 423.609493,196.514447 C418.417621,201.164074 412.806974,202.200703 406.968026,201.653299 C403.096852,201.318114 399.085645,200.241156 394.877992,199.112632 C393.530746,198.751662 392.235267,198.628034 391.020091,198.700095 C386.443439,199.297744 382.817822,203.25915 382.833087,208.010589 L390.683612,240.75433 L390.669011,240.757636 L395.891412,262.550655 L395.893403,262.550655 L396.081885,263.336722 L396.259084,264.077833 L396.511278,264.017671 L453.214382,250.533554 C458.76198,251.155664 462.899948,256.681931 461.189013,262.504377 C458.216445,272.616804 455.865071,282.43834 463.673121,291.10094 C473.17087,301.637803 490.590156,302.241401 500.829885,292.435071 C513.459481,280.342603 507.907237,265.119751 496.95672,254.340259 C492.490236,249.943178 493.633072,242.865273 498.473864,239.771912 L533.139883,231.528459 C534.958996,218.790081 534.796397,206.249376 532.762919,194.518538 C526.766682,164.289681 514.993881,140.917256 496.38862,123.939803 C458.2191,89.1115635 414.182758,79.5835632 367.420068,86.9867375 C363.027915,87.6822313 358.724694,88.6441547 354.505095,89.8401131 L371.564009,161.003275" id="Fill-35" fill="#474EBB"></path>
                <polygon id="Fill-36" fill="#474EBB" points="323.286424 295.182 323.28854 295.182 323.28854 294.124 323.286424 294.124"></polygon>
                <path d="M429.69999,471.713172 C438.120903,471.256902 434.034946,466.009147 430.152293,457.859784 C398.651347,391.743748 436.172623,338.449535 442.316129,330.99185 C451.523771,319.814579 458.580492,307.642114 463.502183,295.182 L427.939121,295.182 C422.521419,297.07188 419.766543,303.69241 423.079016,309.00497 C431.19994,322.024509 433.047561,338.118905 417.977861,346.96259 C405.758397,354.13395 388.992726,349.516375 382.226062,337.068164 C376.662008,326.83385 381.228744,317.822866 386.464995,308.672356 C389.480127,303.404101 386.749092,297.069896 381.50953,295.182 L323.339267,295.182 L323.339267,349.632095 C323.339267,350.388576 323.233973,351.10472 323.074375,351.793752 L323.074375,352.025855 C321.601576,357.975868 314.566047,361.176364 308.981464,357.702768 C295.942822,349.592419 279.824812,347.745521 270.967489,362.792483 C263.784282,374.993382 269.098676,391.452133 281.564489,398.210866 C287.59078,401.47815 292.91577,401.274482 298.167252,399.531402 C301.901565,398.261122 305.569656,396.268086 309.260925,394.165281 C310.459561,393.481538 311.714486,393.098669 312.960802,392.969062 C317.75071,392.124634 321.993616,394.774962 323.069078,399.969817 L323.069078,400.131164 C323.233973,400.830115 323.339267,401.557501 323.339267,402.32324 L323.339267,471.258886 C361.298277,471.120683 419.35265,472.27392 429.69999,471.713172" id="Fill-37" fill="#353A85"></path>
                <path d="M322.75837,400.982 L322.75837,400.818687 C321.74507,395.560535 317.747404,392.877914 313.234352,393.732632 C317.549611,393.250054 321.731343,396.301469 322.75837,400.982" id="Fill-38" fill="#353A85"></path>
                <g id="Group-4" transform="translate(121.695779, 167.164000)">
                    <path d="M154.11135,16.9305322 C154.11135,16.9305322 168.19156,17.2881258 168.256722,19.0064092 C168.415223,23.1178193 148.042507,23.867849 144.615354,27.6436713 C143.789385,28.5532428 150.504562,27.1412063 150.386567,28.9200055 C150.088937,33.4128489 129.103348,31.1902668 129.103348,31.1902668 L129.103348,21.4307108 C138.715579,16.6701307 154.11135,16.9305322 154.11135,16.9305322" id="Fill-93" fill="#F0AD95"></path>
                    <path d="M1.08631483,7.25087939 C3.7526365,1.35036191 10.5595989,-1.48043212 16.6625129,0.772083499 C31.851833,6.37826765 59.1371915,15.7588438 72.1185184,15.9510262 C79.9414713,16.0687595 95.8993194,12.7254792 108.892845,9.63497932 C119.802109,7.03965195 130.699174,13.9443655 132.933308,24.8658632 C135.25109,36.1925021 127.311377,47.0603273 115.753831,48.3623194 C99.9702524,50.1421703 79.6974942,51.8112134 70.3705964,50.0071232 C55.0610304,47.0447449 23.2481532,31.5818571 6.74484193,23.2141338 C0.878934251,20.2379045 -1.61137534,13.2223831 1.08631483,7.25087939" id="Fill-108" fill="#DC5573"></path>
                </g>
                <path d="M308.765059,357.342214 C295.852245,349.363178 279.886225,347.540512 271.103832,362.327893 C263.982529,374.317572 268.553153,390.776813 280.899805,397.426551 C286.962917,400.692918 292.595668,400.408208 298.084089,398.556291 C292.881701,400.269753 287.606492,400.46996 281.636537,397.258195 C269.28726,390.614307 264.022548,374.435227 271.138602,362.441647 C279.913123,347.650366 295.880455,349.465881 308.797205,357.438417 C314.329581,360.85299 321.299339,357.706877 322.75837,351.857967 L322.75837,351.629809 C321.371503,357.565172 314.33811,360.785387 308.765059,357.342214" id="Fill-39" fill="#353A85"></path>
                <path d="M375.433283,200.408069 C366.551377,185.370075 350.406316,187.224292 337.348163,195.337894 C331.712385,198.840083 324.599164,195.565292 323.196688,189.529338 C323.036139,188.839873 322.931319,188.123967 322.931319,187.368399 L322.931319,116.38 C303.475778,117.254556 284.547658,123.094842 266.383801,131.967979 C261.499018,134.353671 256.696499,136.962134 251.937766,139.646616 C218.538402,158.493521 199.957252,187.428553 201.532882,229.82566 C202.417225,253.619786 191.785208,270.938367 176.07867,285.493801 C173.238557,288.125401 170.416356,290.743118 168.091058,293.900244 C167.784557,294.31736 167.488007,294.745053 167.199418,295.182 L217.260649,295.182 C221.470731,294.14549 224.29625,290.345172 224.381168,286.240776 C224.416329,284.525378 223.984441,282.757758 222.957462,281.115074 C219.002135,274.787601 216.540835,267.734307 216.781658,261.139775 C217.035749,254.169771 220.310405,247.712074 228.067809,243.169409 C240.309289,236.001094 257.105168,240.615812 263.884687,253.060547 C265.726349,256.441104 266.455451,259.68747 266.422943,262.850545 C266.356601,269.258665 263.149614,275.321722 259.637453,281.446916 C258.909015,282.718095 258.52821,284.051413 258.424053,285.369526 C258.074429,289.775356 260.941743,294.013282 265.360803,295.182 L322.931319,295.182 L322.931319,240.041369 C322.931319,239.276546 323.036803,238.550063 323.201332,237.852666 C324.293326,233.228693 328.740913,230.21369 333.331137,230.690961 C334.578372,230.820525 335.834895,231.203928 337.03569,231.886121 C340.732946,233.988889 344.408309,235.981923 348.148688,237.25112 C353.698884,239.134422 359.395034,239.423957 365.527715,236.101572 C378.012008,229.339796 382.634739,212.601608 375.433283,200.408069" id="Fill-40" fill="#5D66D3"></path>
                <path d="M567.208151,219.535 C552.686526,222.490709 535.001814,221.048091 514.154014,215.207145 L510.064047,228.153605 C547.54214,245.841229 568.482994,255.488028 572.88661,257.094 C579.492033,259.502959 579.492033,259.502959 589.419315,257.094 C596.037502,255.488028 607.681816,245.513544 624.352256,227.170548 L609.846724,195.73 C595.942634,208.644291 581.729777,216.579291 567.208151,219.535 Z" id="Fill-41" fill="#EED5D5"></path>
                <path d="M500.37645,227.47 C495.987618,225.243491 491.267981,210.967325 494.190684,205.781 C497.113387,200.594675 507.90192,216.723909 509.916059,210.542 C511.930197,204.360091 514.103932,210.287385 514.296943,215.749764 C514.489954,221.212144 510.507834,227.289749 510.507834,227.289749 C509.916059,229.696509 504.765282,229.696509 500.37645,227.47 Z" id="Fill-42" fill="#915D38"></path>
            </g>
            <g id="Group" transform="translate(35.000000, 104.000000)">
                <path d="M109.062119,45.4520688 C115.115226,30.4681583 107.493766,13.3691187 92.0672597,7.93295738 C78.1094446,3.01685259 62.3052745,9.91545473 56.4252629,23.4718275 C55.6541999,25.2466512 55.0807108,27.0528878 54.694305,28.8695953 C53.5508238,34.2237343 50.6956174,39.1380939 46.2213535,42.3003168 C42.3922649,45.0087991 39.4181645,48.5270338 37.3882229,52.4483996 C34.2829894,58.4465012 28.7334334,62.6907209 22.411066,65.0903106 C12.754419,68.7533933 4.75704386,76.6746569 1.45248787,87.5679214 C-3.82780794,104.98807 5.73792,123.858443 22.8586672,130.123553 C41.7663225,137.041352 61.2177433,126.45 67.4666762,109.364921 C70.6628288,100.62867 75.6458894,92.5503421 82.4071159,86.1508546 C85.2798066,83.4336465 87.6262162,80.0724758 89.2033112,76.1685616 L89.2575129,76.0341846 C92.360998,68.2438077 96.6621661,60.9560357 102.645336,55.0731144 C105.344931,52.418732 107.554962,49.1814674 109.062119,45.4520688" id="Fill-94" fill="#1A4D79"></path>
                <path d="M56.898918,350.083694 C58.2317112,359.432649 54.3246925,360.579247 47.3794784,362.636555 C40.432473,364.693862 35.2696908,364.502763 34.952615,361.51683 C34.6552445,358.733941 37.2563409,355.201582 43.4384233,349.540254 C50.8619381,342.735313 56.0300945,343.995377 56.898918,350.083694" id="Fill-95" fill="#D25E4D"></path>
                <path d="M55.0409357,346.343003 L53.7684556,355.100358 C53.6795631,356.533984 52.5601757,357.651163 51.2037416,357.651163 C49.8390767,357.651163 48.7147508,356.518249 48.6390276,355.072385 L47.6315789,343.895349 L55.0409357,346.343003" id="Fill-96" fill="#D25E4D"></path>
                <path d="M114.480922,350.747401 C113.468055,360.671478 117.181337,361.556548 123.786108,363.154067 C130.389189,364.748448 135.252302,364.127016 135.473814,360.966502 C135.680108,358.022547 133.135258,354.526208 127.157822,349.077695 C119.979825,342.540107 115.138694,344.281999 114.480922,350.747401" id="Fill-97" fill="#D25E4D"></path>
                <path d="M115.374269,347.821465 L117.172412,356.354773 C117.343824,357.76034 118.552108,358.7904 119.931805,358.704275 C121.321584,358.619872 122.405512,357.436508 122.39879,356.008549 L122.783626,344.953488 L115.374269,347.821465" id="Fill-98" fill="#D25E4D"></path>
                <path d="M102.554135,132.267442 C102.554135,132.267442 115.646288,144.533567 121.740396,169.826221 C127.523832,193.830557 125.745798,332.082736 125.549214,346.107407 C125.540438,346.790898 125.082327,347.395726 124.4171,347.560044 C121.584182,348.259267 118.579253,348.390371 115.268916,347.511098 C114.726555,347.367757 114.307058,346.916758 114.178927,346.371364 L70.9181287,163.307712 L79.917119,132.267442 L102.554135,132.267442" id="Fill-99" fill="#38A58B"></path>
                <path d="M34.9385135,193.773793 C34.9385135,193.773793 33.7319283,156.347305 59.7557375,132.27793 L92.0877193,132.267442 C92.0877193,132.267442 74.2849618,277.706318 56.7055178,346.449739 C56.5739533,346.954935 56.1844531,347.35175 55.6841617,347.477612 C52.5733531,348.265998 49.5577557,348.390112 46.6771851,347.558024 C46.1163047,347.3972 45.7285356,346.872775 45.6852578,346.285419 L34.9385135,193.773793" id="Fill-100" fill="#38A58B"></path>
                <path d="M107.318216,139.079813 C107.318216,139.079813 120.313801,103.393663 116.928544,86.6348199 C114.840031,76.3044808 106.795648,57.1360402 86.6090316,57.1395349 C73.1471821,57.1412822 45.2487261,62.8778356 47.7947065,92.3556471 C49.0069944,106.411339 51.5142661,123.344917 64.4271551,139.106023 C64.4271551,139.106023 87.2494856,149.925621 107.318216,139.079813" id="Fill-101" fill="#DC5573"></path>
                <path d="M81.6629053,70.7124947 L81.6629053,70.7124947 C77.8840854,69.8291122 75.522323,65.9928102 76.390052,62.145822 L81.5754326,39.1511628 L95.2631579,42.3498622 L90.0795267,65.3445214 C89.2100483,69.1932906 85.4434746,71.5958772 81.6629053,70.7124947" id="Fill-102" fill="#F0AD95"></path>
                <path d="M91.9321021,57.0974163 L91.9321021,57.0974163 C85.7758388,55.6842082 79.2259342,46.3555987 80.6387292,40.2053605 L83.5559892,27.5116279 L105.847953,32.6239573 L102.930693,45.3176899 C101.517898,51.4679281 94.6228834,57.7133379 91.9321021,57.0974163" id="Fill-104" fill="#F0AD95"></path>
                <path d="M77.4042455,33.383577 C76.7578192,35.9789906 78.490831,38.5608334 81.2772783,39.1511628 L83.619883,29.7483016 C80.8334358,29.1596685 78.0525135,30.786467 77.4042455,33.383577" id="Fill-105" fill="#F0AD95"></path>
                <path d="M113.854615,0.317252543 C109.104283,-0.626164744 104.399577,0.584060019 100.791641,3.28875542 C97.0099763,6.1242388 92.2561345,7.16531111 87.5233507,7.01185321 L87.3548868,7.0066217 C82.086879,6.90024747 77.1207024,10.0426466 75.0412257,14.8539004 C74.7639621,15.4904019 74.5428532,16.1321349 74.3726344,16.7738679 C73.8075783,18.9030962 72.9003298,20.9678025 71.4455735,22.626194 C70.7664532,23.398715 70.2680807,24.3281816 70.024159,25.3832046 C69.1765748,29.0574749 71.6877404,32.7648782 75.6326043,33.6646994 C77.2681084,34.0378811 78.887819,33.8617533 80.2864206,33.2705917 C81.5709582,32.7265137 82.9835985,32.6881492 84.3435938,32.9898335 C87.3197901,33.6490049 90.3030057,33.2426902 92.9054226,31.9871256 C96.530907,30.2380544 100.777602,29.9119564 104.513641,31.4099147 C105.301561,31.7272935 106.124577,31.9871256 106.979181,32.1806918 C115.962169,34.2297035 124.913571,28.5221161 126.731578,19.4803072 C128.430256,11.0279161 122.36029,2.00703323 113.854615,0.317252543" id="Fill-107" fill="#1A4D79"></path>
                <path d="M179.81282,109.517442 C177.777736,106.171375 171.025116,113.995736 166.272492,112.546529 C164.325127,111.952563 167.691788,105.681953 165.658458,105.816074 C161.36022,106.103477 153.479532,120.776704 153.479532,120.776704 L156.649702,125.918605 C167.149684,124.460688 179.81282,115.866468 179.81282,115.866468 C179.81282,115.866468 180.66545,110.916136 179.81282,109.517442 Z" id="Fill-111" fill="#F0AD95"></path>
                <path d="M159.13726,126.976744 C157.708182,130.151163 140.962841,135.606694 129.605105,140.078034 C110.354854,147.654617 83.3691986,156.31532 72.5075031,150.428844 C57.5486199,142.325088 53.0736649,94.8304572 51.8838741,76.2602983 C51.6084923,71.9448337 54.4541047,68.0549608 58.6695653,66.960332 C63.5928984,65.6818055 68.6062602,68.6434332 69.8207648,73.5456189 C73.395433,87.950934 81.2897126,114.971627 90.8433444,117.850939 C94.4621443,118.940314 115.680186,120.263624 122.783626,114.27907 C131.73177,106.735764 149.913817,108.085099 156.31468,117.850939 L159.13726,126.976744 Z" id="Fill-112" fill="#E36483"></path>
            </g>
        </g>
    </g>
</svg>