<svg id="Layer_1" data-name="Layer 1" xmlns="http://www.w3.org/2000/svg" viewBox="0 0 443.84 448.96"><defs><style>.cls-1{fill:#84d3dd;}.cls-2{isolation:isolate;font-size:36px;fill:#164d51;font-family:OpenSans-Bold, Open Sans;font-weight:700;}</style></defs><title>follow</title><g id="Layer_1-2" data-name="Layer 1-2"><path class="cls-1" d="M535.92,255.84c-1.82,48.3-22.67,87.32-50.82,124.1-39.25,51.34-90.19,83.34-153.87,92.66-54.26,8-102.48-6.18-146.3-41.28C133.07,389.8,103.65,337,94.62,272.49c-8.77-62.58,5.14-120.65,41.94-172.37,14.87-20.89,37.2-32,60.09-42.56,30.74-14.21,62.3-24.45,95.77-29.81,31.85-5.1,62.73.17,91.36,11.94C425.85,57,464.85,79.6,486.59,123.17c10.37,20.8,25.71,39.49,33.68,61C528.67,206.9,531,231.87,535.92,255.84Z" transform="translate(-92.08 -25.8)"/><text class="cls-2" transform="translate(159.18 234.85)">Inhale</text></g></svg>