<svg xmlns="http://www.w3.org/2000/svg" viewBox="0 0 367.63 428.81"><defs><style>.cls-1{fill:#184655;}.cls-2{fill:#cee8e9;}.cls-3{fill:#466eb5;}.cls-4{fill:#14375b;}.cls-5{fill:#b65741;}.cls-6{fill:#fadeb2;}.cls-7{fill:#f17558;}.cls-8{fill:#86b0f1;}.cls-9{fill:#51bea5;}.cls-10{fill:#476eb5;}.cls-11{fill:#f6a492;}.cls-12{fill:#3e8f7d;}.cls-13{fill:#c8e3e7;}.cls-14{fill:#355389;}.cls-15{fill:#f5cb7e;}.cls-16{fill:#95d8c7;}.cls-17{fill:#f5a391;}.cls-18{fill:#f5a08d;}.cls-19{fill:#ef7558;}.cls-20{fill:#fadfb2;}.cls-21{fill:#e0b1ab;}.cls-22{fill:#f8d9c4;}.cls-23{fill:#194755;}</style></defs><title>girl_compassAsset 2</title><g id="Layer_2" data-name="Layer 2"><g id="Layer_1-2" data-name="Layer 1"><g id="Desktop---Values"><g id="Desktop---Screen-2.0"><path class="cls-1" d="M210.1,424.12c.5,0,1,0,1.52,0q77,0,153.91,0c1.05,0,1.79.17,2.1,1.25v1.42c-.37.9-1,1.07-2,1.07q-180.85,0-361.71,0a5.22,5.22,0,0,0-1.12,0,2.26,2.26,0,0,0-1,.45c-.6.57-1.17.73-1.81.12v-2.24c.11-.23.22-.46.32-.7a1.9,1.9,0,0,1,2-1.35c8.81,0,17.63,0,26.45,0,.44,0,.88,0,1.31,0l.71,0H209.08Z"/><path class="cls-2" d="M52.85,187.83c-.41-2.14-.88-4.28-1.22-6.43-.45-2.92-.81-5.86-1.18-8.8-.19-1.57-.38-3.14-.44-4.72-.17-4.73-.43-9.45-.38-14.18.06-4.17.45-8.34.77-12.5a135.31,135.31,0,0,1,3.25-20.41,153.86,153.86,0,0,1,7.4-23.33,139.37,139.37,0,0,1,13-25c3.44-5.16,7.13-10.16,10.87-15.11,1.88-2.49,4.07-4.77,6.2-7.07s4.41-4.69,6.72-6.91A159.57,159.57,0,0,1,115,29.1a155.16,155.16,0,0,1,19.14-11.76,149,149,0,0,1,18-7.91,137.08,137.08,0,0,1,18.13-5.38c4.64-1,9.3-1.91,14-2.56S193.38.49,198,.26s9.27-.35,13.89-.18c4.44.16,8.86.69,13.27,1.16A141.67,141.67,0,0,1,251.86,7,153.16,153.16,0,0,1,270.29,14a138.79,138.79,0,0,1,22.57,12.75c4.73,3.35,9.33,6.9,13.8,10.58a133.4,133.4,0,0,1,10.13,9.33,150.21,150.21,0,0,1,15.3,18.18,165.31,165.31,0,0,1,11.54,18.58,156.6,156.6,0,0,1,8.54,19.24,131.94,131.94,0,0,1,5.33,17.94c1,4.73,1.9,9.5,2.57,14.29.62,4.35,1,8.76,1.23,13.16.24,5,.37,9.95.17,14.91-.2,4.79-.8,9.58-1.36,14.36A143.08,143.08,0,0,1,353.18,207a152,152,0,0,1-9.91,22.75,154,154,0,0,1-14.35,22.16c-2.1,2.72-4.31,5.37-6.63,7.9-3.1,3.4-6.25,6.76-9.56,9.94-2.91,2.81-6,5.47-9.15,8-4.14,3.25-8.3,6.5-12.72,9.34-5.05,3.24-10.33,6.14-15.62,9a132.54,132.54,0,0,1-21.69,9A139.08,139.08,0,0,1,232,310.31c-4.45.71-8.94,1.14-13.42,1.66-1.23.14-2.49.14-3.73.21-.07-.87-.15-1.75-.2-2.62-.24-4.28-.31-8.58-.74-12.85-.53-5.23-1.36-10.43-2.06-15.64a3,3,0,0,1,.46.48c1.12,1.87,2.22,3.75,3.32,5.63.75,1.36,1.48,2.72,2.25,4.06,1.3,2.29,2.62,4.57,3.94,6.84a.82.82,0,0,0,1,.52c4-.72,8.09-1.27,12.11-2.06a136.74,136.74,0,0,0,30.48-10,125.34,125.34,0,0,0,18.73-10.47c3.65-2.49,7.2-5.13,10.67-7.85,2.82-2.19,5.53-4.53,8.15-7s4.81-4.77,7.21-7.16a3.54,3.54,0,0,0,.72-.84.93.93,0,0,0-.14-.81c-1.41-1.36-2.85-2.69-4.3-4s-2.83-2.5-4.24-3.75l-1.68-1.84,5-5.45c.45-.49.9-1.28,1.4-1.33s1.05.7,1.57,1.1c2.45,2.28,4.91,4.54,7.34,6.84,1.66,1.56,1.65,1.57,3-.18,0-.06.1-.1.14-.15a142.68,142.68,0,0,0,13.47-21.05,138.67,138.67,0,0,0,10.86-27.25c.9-3.24,1.71-6.52,2.37-9.82.77-3.82,1.33-7.68,2-11.52a1.35,1.35,0,0,0-.81-1.63c-1.64-.88-3.22-1.86-4.84-2.78-2-1.14-4.06-2.26-6.09-3.39l-.22-.39a3,3,0,0,0,.4-.88,30.82,30.82,0,0,0,.21-3.32c0-4.72-.12-9.43-.2-14.15a3.64,3.64,0,0,0-.2-.77v-.2c3.7-2.11,7.38-4.24,11.09-6.32a1.19,1.19,0,0,0,.69-1.39c-.28-2-.45-4.09-.86-6.09-.86-4.26-1.75-8.51-2.79-12.72a140.76,140.76,0,0,0-22.22-47.3c-2.62-3.59-5.48-7-8.31-10.44-1.61-2-3.37-3.77-5-5.67-.49-.56-.88-.59-1.4,0-1.67,1.86-3.39,3.67-5.07,5.52-.86,1-1.65,2-2.47,2.93L298,66.44l-7-6.46,1.4-1.82c.91-.95,1.83-1.89,2.72-2.85,1.66-1.78,3.29-3.58,4.95-5.36.5-.54.46-1-.13-1.42-.74-.57-1.44-1.22-2.19-1.78-4.73-3.58-9.34-7.33-14.24-10.65A127.53,127.53,0,0,0,263.21,25a130.31,130.31,0,0,0-21.67-7.48c-5.77-1.38-11.64-2.35-17.47-3.46-1.94-.37-1.92-.31-2.87,1.38s-1.9,3.26-2.83,4.91-1.84,3.36-2.76,5.05a6,6,0,0,0-.49.64l-7.25,12.63c-.73,1.26-1.48,2.51-2.3,3.89-2.07-3.6-4-7-6-10.43C198.3,30,197,27.8,195.72,25.63c-1-1.73-1.94-3.47-2.92-5.2-1.1-1.93-2.19-3.87-3.34-5.78-.21-.34-.72-.78-1-.74-3.49.48-7,.94-10.45,1.63a137.09,137.09,0,0,0-37.47,13.08A148.81,148.81,0,0,0,124.78,38a143.92,143.92,0,0,0-21.63,18.26c-.55.56-.63.92,0,1.48,1.9,1.71,3.76,3.48,5.66,5.22.84.77,1.71,1.52,2.57,2.28L114,67.73l-6.51,7-2.62-2.2a3.25,3.25,0,0,0-.31-.4c-2.68-2.48-5.37-4.94-8-7.43-.59-.55-.92-.14-1.24.26-1.31,1.63-2.64,3.24-3.89,4.91A146.65,146.65,0,0,0,78.28,90.82a142.43,142.43,0,0,0-9.58,23.63,154.13,154.13,0,0,0-5.07,23.36c-.26,1.79-.22,1.8,1.43,2.66.24.12.46.27.7.4L75,146.15l.42.4c-.07.11-.18.22-.19.34-.15,2.62-.41,5.24-.39,7.86,0,3.71.24,7.41.37,11.12q-5.41,3.16-10.85,6.31c-.64.37-1,.67-.82,1.57.36,1.74.48,3.53.7,5.3C60.2,181.68,56.2,184.33,52.85,187.83Z"/><path class="cls-3" d="M211.83,281.07c.7,5.21,1.53,10.41,2.06,15.64.43,4.27.5,8.57.74,12.85.05.87.13,1.75.2,2.62,0,3,.1,6.09.1,9.13q0,9.54-.1,19.09c0,2.81-.06,5.62-.11,8.43a19.48,19.48,0,0,0-.07,2c.08.87-.1,1.44-1.08,1.5-1.85.15-3.71.36-5.56.43-3.35.12-6.7.14-10,.21l-1.39-.2c-.3-1.84-.55-3.64-.88-5.43-.29-1.57-.66-3.13-1-4.69-.18-1.37-.29-2.75-.55-4.1-.66-3.57-1.41-7.12-2.09-10.69-1.08-5.72-2.19-11.43-3.15-17.16-.7-4.21-1.2-8.45-1.73-12.69-.11-.88-.5-1.06-1.2-.8a16.81,16.81,0,0,0-2.78,1.21c-4.46,2.68-8.88,5.41-13.31,8.13a10.71,10.71,0,0,0-1,.79v-.06l-.26.24-.56.38c-.73.34-1.47.66-2.18,1-5.93,3.06-11.8,6.24-17.8,9.17-3.2,1.56-6.62,2.68-9.93,4l-33.58,0-7,0c-5.34-2.62-8-7.37-10-12.64a67.57,67.57,0,0,1-3.69-17.91,81.9,81.9,0,0,1,0-15.1c.07-.64.16-1.27.24-1.91,1.82,0,3.63,0,5.45,0,6.59.06,13.18.14,19.78.19q6.18,0,12.38.05v8.36l10.54-3.58,1.06-.29c5.64-1.61,11.26-3.27,16.91-4.8,3.12-.84,6.29-1.44,9.44-2.15,3.13-.5,6.25-1.13,9.4-1.49,6.58-.73,13.16-1.42,19.76-1.93,3.33-.26,6.68-.11,10-.15,1.11.11,2.21.23,3.32.31,3.68.26,6.37,1.88,7.57,5.51C210.52,276.74,211.16,278.91,211.83,281.07Z"/><path class="cls-4" d="M52.85,187.83c3.35-3.5,7.35-6.15,11.37-8.78,2.71-1.7,5.48-3.32,8.12-5.12a48.08,48.08,0,0,0,14.14-14.16l2.9-5.3c.08-.15.17-.3.24-.45,1.41-3.29,2.8-6.59,4.24-9.86A20.77,20.77,0,0,1,105,133c4.11-1.76,8.34-2.65,12.75-1.57,6.69,1.63,11,6.05,13.36,12.32a46.56,46.56,0,0,1,2.54,21.06c-.73,7.57-1.64,15.13-2.54,22.68a31.1,31.1,0,0,1-4.49,13.74c-.33-.43-.67-.85-1-1.28s-.8-1.07-1.2-1.61v0l-.21-.42h0l-.24-.6v0l-.35-.29c-1-1.81-2.1-3.61-3.11-5.44a7.5,7.5,0,0,1-1.17-4.63c.2-1.63.3-3.27.41-4.91.15-2.19.23-4.39.4-6.58s.4-4.28.6-6.43a32.61,32.61,0,0,0,3.39-3,15.15,15.15,0,0,0,3.56-8.79,2.57,2.57,0,0,1,.91-1.88,6.24,6.24,0,0,0,2.07-5.29c-.12-1.88-1.23-2.53-3-1.82a1,1,0,0,1-.33,0c-.32-1.24-.58-2.43-.94-3.58-1.86-5.87-5.9-8.88-11.75-8.89a1.35,1.35,0,0,0-1.43.93A49.35,49.35,0,0,1,106,148.49a21.17,21.17,0,0,1-3.57,2.94,1.92,1.92,0,0,1-1.48.09,2.31,2.31,0,0,0-3,1.2,5.6,5.6,0,0,0,.49,5.51c.9,1.49,2.14,2.44,4.07,1.93a17.07,17.07,0,0,0,5.28,7.11c-.22,1.53-.38,3.07-.68,4.59-.92,4.64-1.9,9.28-2.85,13.92a13.17,13.17,0,0,0-5.72-.32,11.51,11.51,0,0,0-8.27,6.4l-.2.41h0a50.36,50.36,0,0,0-2.39,5.11c-3,8.65-3.73,17.68-4.31,26.72-.2,3.14-.28,6.28-.42,9.42a52.56,52.56,0,0,1-6.54-.4c-2.54-.46-5-1.33-7.48-2a43.59,43.59,0,0,1-10.41-6.76c-4.18-3.7-8-7.72-10-13-3.14-8.08-2.12-15.55,3.46-22.3Z"/><path class="cls-5" d="M210.1,424.12l-1,0H30.79l-.71,0a13,13,0,0,1-7.47-5.4,12.73,12.73,0,0,1-2.08-6.9c0-2.6,0-5.21,0-7.82a12.53,12.53,0,0,1,12.72-12.74l17.58,0c1.48.06,3,.16,4.46.16h76.38l0,3.66q-11,0-21.94,0a14.26,14.26,0,0,0-2.53.13,12.76,12.76,0,0,0-9.94,16.16c1.31,4.63,5.38,9.3,12.86,9.29q48.15-.06,96.29,0c.36,0,.73-.06,1.1-.09Z"/><path class="cls-6" d="M207.53,420.54c-.37,0-.74.09-1.1.09q-48.15,0-96.29,0c-7.48,0-11.55-4.66-12.86-9.29a12.76,12.76,0,0,1,9.94-16.16,14.26,14.26,0,0,1,2.53-.13q11,0,21.94,0v7.51l4.42-3.42,4.51,3.42v-7.51H203l.4,0,.1,0h.1l2.85,2.08a56.57,56.57,0,0,0-1.87,6.25,24.21,24.21,0,0,0,1.6,14.32C206.63,418.66,207.09,419.6,207.53,420.54Z"/><path class="cls-7" d="M97.58,322.12l7,0,33.58,0h25.18l-2.55,3.54c-.31,0-.61-.09-.91-.09H85.74a7.85,7.85,0,0,0,.62,15.68h73.33c.36,0,.73-.06,1.1-.09.8,1.1,1.6,2.2,2.5,3.46H133.48c-.48,0-.95,0-1.42.05l-1.93,0H74.65q-16.46,0-32.92,0l-13.6-.07a51.58,51.58,0,0,1-5.28-.1,7.51,7.51,0,0,1-7.08-7,44.26,44.26,0,0,1,0-8.22c.42-4.33,3.74-7.09,8.18-7.13,3.42,0,6.84,0,10.26,0H96.26C96.7,322.16,97.14,322.13,97.58,322.12Z"/><path class="cls-8" d="M131.67,391.39H55.29c-1.49,0-3-.1-4.46-.16a16.88,16.88,0,0,1-6.15-2.71,11.39,11.39,0,0,1,1.57-19.4c.83-.44,1.74-.74,2.6-1.12a5.27,5.27,0,0,0,.7-.46c1,0,2,.09,3,.09h63.65l1.41,0c0,.62,0,1.24,0,1.85-5.41,0-10.82,0-16.24,0a29.89,29.89,0,0,0-4.73.39,15.83,15.83,0,0,0-9.5,4.79,6.83,6.83,0,0,0-.46,9.16,15.9,15.9,0,0,0,3.89,3.32c3.39,2.08,7.24,2.51,11.12,2.56,4.13.06,8.26,0,12.38,0l17.67,0Z"/><path class="cls-9" d="M82.91,233.52c.14-3.14.22-6.28.42-9.42.58-9,1.35-18.07,4.31-26.72A50.36,50.36,0,0,1,90,192.27c-.07.36-.13.72-.2,1.09a20.76,20.76,0,0,0-.59,3.36c0,4.5.1,9,.19,13.48,0,1,.11,2.09.23,3.12q.56,5,1.19,10c.15,1.22.41,2.42.63,3.7l2-.83c.07.26.14.53.2.79a179.66,179.66,0,0,0,7.72,27,55.16,55.16,0,0,0,6.53,12.88c1.77,2.46,3.91,4,7.12,3.81,3.37-.2,6.75-.22,10.12-.32l.42,4.37-3.8,0q-6.19,0-12.38-.05c-6.6-.05-13.19-.13-19.78-.19-1.82,0-3.63,0-5.45,0q-.53-10.71-1-21.41c0-.17,0-.34-.06-.5,0-2.23-.12-4.45-.13-6.67C82.91,241.83,82.92,237.68,82.91,233.52Z"/><path class="cls-10" d="M117.63,367.66l-1.41,0H52.57c-1,0-2-.06-3-.09-1.69,0-3.38,0-5.07,0a9.87,9.87,0,0,1-9.82-6.73c-1.95-5-.67-10.83,3.27-14.07a21.94,21.94,0,0,1,3.8-2.05q16.46,0,32.92,0h55.48l1.93,0c.29.68.05,1-.68,1-.29,0-.59,0-.88,0-.14,0-.27,0-.41,0h-54a7.51,7.51,0,0,0-4.45,1.51,11.18,11.18,0,0,0-4,11.39c1,4.15,4.2,8,9.94,7.91,11.27-.19,22.55-.06,33.83-.06l6.3,0Z"/><path class="cls-11" d="M198,353c3.35-.07,6.7-.09,10-.21,1.85-.07,3.71-.28,5.56-.43-.29,2.14-.62,4.27-.85,6.41q-.65,6.23-1.2,12.47c-.63,7.07,1.34,13.76,3.07,20.48.15.58.28,1.17.42,1.76a10.36,10.36,0,0,1-1.5-1c-2.8-2.74-5.67-5.42-8.33-8.29a22.35,22.35,0,0,1-5-7.58c-.07-1.64-.06-3.29-.23-4.92C199.35,365.44,198.64,359.22,198,353Z"/><path class="cls-12" d="M200.22,376.59a22.35,22.35,0,0,0,5,7.58c2.66,2.87,5.53,5.55,8.33,8.29a10.36,10.36,0,0,0,1.5,1q2.51,5.37,5,10.74a2.2,2.2,0,0,1,.26,1.07c-.05.49-.15,1.17-.47,1.37a1.65,1.65,0,0,1-1.45-.18c-1.27-.89-2.46-1.91-3.68-2.87l-8.19-6.46-2.85-2.08a.44.44,0,0,0,0-.15l-4.5-3.68c-1.93-1.57-3.83-3.2-5.82-4.7-.85-.64-1-1.18-.28-1.93C195.39,381.92,197.81,379.26,200.22,376.59Z"/><path class="cls-2" d="M82.91,233.52c0,4.16,0,8.31,0,12.46,0,2.22.08,4.44.13,6.67-1.22-1.52-2.56-3-3.62-4.57-3.42-5.19-6.74-10.44-10.07-15.67a6.21,6.21,0,0,1-.49-1.31c2.49.69,4.94,1.56,7.48,2A52.56,52.56,0,0,0,82.91,233.52Z"/><path class="cls-13" d="M335.71,165.86c-1.41-.78-2.84-1.53-4.24-2.34q-5.82-3.35-11.64-6.73a8,8,0,0,1-.64-.49c1.92-1.12,3.74-2.19,5.56-3.24L335.26,147a4.73,4.73,0,0,1,.66-.25,3.64,3.64,0,0,1,.2.77c.08,4.72.16,9.43.2,14.15a30.82,30.82,0,0,1-.21,3.32A3,3,0,0,1,335.71,165.86Z"/><path class="cls-13" d="M75.4,146.55q5.84,3.34,11.67,6.69c.76.43,1.54.82,2.31,1.23q-1.45,2.64-2.9,5.3a6.26,6.26,0,0,0-1.23.37c-1,.53-1.91,1.13-2.87,1.67q-3.59,2-7.19,4.06c-.13-3.71-.36-7.41-.37-11.12,0-2.62.24-5.24.39-7.86C75.22,146.77,75.33,146.66,75.4,146.55Z"/><path class="cls-14" d="M171,354.75l-4.06-1.35c.44-1.16.87-2.28,1.28-3.4,4.58-12.24,9.16-24.48,12.95-37,.22-.74.39-1.5.59-2.25.47-2.16,1-4.3,1.38-6.49.22-1.32-.07-1.56-1.39-1.21-2.28.61-4.52,1.34-6.75,2.1-2,.69-4,1.47-6.06,2.21a10.71,10.71,0,0,1,1-.79c4.43-2.72,8.85-5.45,13.31-8.13a16.81,16.81,0,0,1,2.78-1.21c.7-.26,1.09-.08,1.2.8.53,4.24,1,8.48,1.73,12.69,1,5.73,2.07,11.44,3.15,17.16.68,3.57,1.43,7.12,2.09,10.69.26,1.35.37,2.73.55,4.1-.75,2-1.48,4.06-2.25,6.07-1.42,3.72-2.87,7.43-4.31,11.16L185,359c-.6-.2-1.21-.41-1.82-.59C179.08,357.18,175,356,171,354.75Z"/><path class="cls-15" d="M181.87,264.82l10.15-.95,7-.65,11.57-1.07,7.1-.59c.24-2.9.47-5.66.68-8.42q1.23-15.55,2.44-31.13c.71-9.09,1.39-18.19,2.12-27.29.13-1.71-.08-3.57,1.45-4.89a3.12,3.12,0,0,1,4.6,3.06c-.25,3.16-.51,6.32-.76,9.48q-.22,2.92-.46,5.86c-.32,4.13-.66,8.27-1,12.41-.23,3-.42,5.92-.66,8.88-.31,3.94-.65,7.87-1,11.81-.23,2.89-.43,5.79-.65,8.68-.25,3.2-.53,6.39-.78,9.59a31.16,31.16,0,0,1-.26,3.63,4.3,4.3,0,0,1-4.25,3.65c-5.57.5-11.15,1-16.72,1.56l-3.63.34c-3.35,0-6.7-.11-10,.15-6.6.51-13.18,1.2-19.76,1.93-3.15.36-6.27,1-9.4,1.49-2.28.17-4.57.24-6.83.55-3.2.43-5.65-1.2-6-4.19a7.71,7.71,0,0,1,1-.22c1.63-.17,3.27-.3,4.9-.46,2.47-.25,4.94-.47,7.39-.78,2.29-.29,4.56-.68,6.84-1,3.22-.28,6.43-.55,9.65-.85,1.5-.14,3-.35,4.48-.53Z"/><path class="cls-2" d="M168.9,307.36c2-.74,4-1.52,6.06-2.21,2.23-.76,4.47-1.49,6.75-2.1,1.32-.35,1.61-.11,1.39,1.21-.35,2.19-.91,4.33-1.38,6.49l-13.3-2.65a1.45,1.45,0,0,1-.35-.18l.56-.38.26-.24Z"/><path class="cls-2" d="M125.58,274.77a4,4,0,0,0,.69.78c1.81,1.19,3.65,2.35,5.48,3.53a4.53,4.53,0,0,1,.57.51l-10.54,3.58v-8.36Z"/><path class="cls-14" d="M168.89,307.3l-.26.24Z"/><path class="cls-16" d="M93.47,226.21l-2,.83c-.22-1.28-.48-2.48-.63-3.7q-.63-5-1.19-10c-.12-1-.21-2.08-.23-3.12-.09-4.49-.19-9-.19-13.48a20.76,20.76,0,0,1,.59-3.36c.07-.37.13-.73.2-1.09h0l.2-.41a11.51,11.51,0,0,1,8.27-6.4,13.17,13.17,0,0,1,5.72.32,3.86,3.86,0,0,0,.51.31,10.35,10.35,0,0,1,5.83,6.72c.32,1,.54,2,.8,3,.13,2.18.31,4.36.39,6.54.17,4.21.29,8.41.44,12.62,0,1.58.11,3.16.2,4.73a.85.85,0,0,1-.7,1,4.56,4.56,0,0,0-.91,0c-4,1-8.12,2-12.12,3.19A43,43,0,0,0,93.47,226.21Z"/><path class="cls-9" d="M111.69,220.74a.85.85,0,0,0,.7-1c-.09-1.57-.15-3.15-.2-4.73-.15-4.21-.27-8.41-.44-12.62-.08-2.18-.26-4.36-.39-6.54a36.7,36.7,0,0,0,10,5,9.22,9.22,0,0,0,2.28.38c.87,0,1.22-.43,1.08-1.29-.08-.53-.24-1-.37-1.57.4.54.79,1.07,1.2,1.61s.66.85,1,1.28a7,7,0,0,0,.41,1.22,41.06,41.06,0,0,1,4.61,12.4c.73,4.37.07,8.39-2.85,11.92-2.19,2.64-2.93,5.9-3.55,9.17a72.39,72.39,0,0,0-1.09,13.63c0,1.35,0,2.71,0,4.06-.73-.13-1.45-.28-2.18-.4a1.62,1.62,0,0,1-1.44-1.19c-.88-2.48-1.92-4.9-2.8-7.39A113.83,113.83,0,0,1,111.69,220.74Z"/><path class="cls-17" d="M107.75,167.27a17.07,17.07,0,0,1-5.28-7.11c-1.93.51-3.17-.44-4.07-1.93a5.6,5.6,0,0,1-.49-5.51,2.31,2.31,0,0,1,3-1.2,1.92,1.92,0,0,0,1.48-.09,21.17,21.17,0,0,0,3.57-2.94,49.35,49.35,0,0,0,7.27-11.68,1.35,1.35,0,0,1,1.43-.93c5.85,0,9.89,3,11.75,8.89.36,1.15.62,2.34.94,3.58a1,1,0,0,0,.33,0c1.75-.71,2.86-.06,3,1.82a6.24,6.24,0,0,1-2.07,5.29,2.57,2.57,0,0,0-.91,1.88,15.15,15.15,0,0,1-3.56,8.79,32.61,32.61,0,0,1-3.39,3,6.2,6.2,0,0,0-.87.24,10.43,10.43,0,0,1-8.64-.23C110,168.57,108.91,167.89,107.75,167.27Z"/><path class="cls-18" d="M107.75,167.27c1.16.62,2.28,1.3,3.46,1.84a10.43,10.43,0,0,0,8.64.23,6.2,6.2,0,0,1,.87-.24c-.2,2.15-.44,4.29-.6,6.43s-.25,4.39-.4,6.58c-.11,1.64-.21,3.28-.41,4.91a7.5,7.5,0,0,0,1.17,4.63c1,1.83,2.07,3.63,3.11,5.44l.35.29v0l.24.6h0l.21.42v0c.13.52.29,1,.37,1.57.14.86-.21,1.33-1.08,1.29a9.22,9.22,0,0,1-2.28-.38,36.7,36.7,0,0,1-10-5c-.26-1-.48-2-.8-3a10.35,10.35,0,0,0-5.83-6.72,3.86,3.86,0,0,1-.51-.31c1-4.64,1.93-9.28,2.85-13.92C107.37,170.34,107.53,168.8,107.75,167.27Z"/><path class="cls-9" d="M124.18,198l-.24-.6Z"/><path class="cls-9" d="M124.38,198.37l-.21-.42Z"/><path class="cls-9" d="M123.94,197.38l-.35-.29Z"/><path class="cls-9" d="M90.23,191.86l-.2.41Z"/><path class="cls-19" d="M131.67,391.39c0-.56,0-1.11.05-1.67.05-4.23.12-8.47.14-12.71a7.4,7.4,0,0,0-.38-1.63l-1.42-1a6.44,6.44,0,0,1,1.07-.17c2.05,0,4.11.12,6.17.17a3,3,0,0,1,3.31,3.34c0,4,0,8,0,12v1.73c0,1.22,0,2.44,0,3.66v7.51l-4.51-3.42-4.42,3.42v-7.51C131.69,393.83,131.68,392.61,131.67,391.39Z"/><path class="cls-5" d="M140.62,395.05c0-1.22,0-2.44,0-3.66,1.58,0,3.16,0,4.74,0,.8,0,1.59-.11,2.39-.17l11.86,0a9.65,9.65,0,0,0,1.19.14h31.94c.6,0,1.21-.11,1.81-.16h4.52l4.5,3.68a.23.23,0,0,0-.15.12l-.4,0Z"/><path class="cls-19" d="M203.43,395a.23.23,0,0,1,.15-.12.44.44,0,0,1,0,.15h-.1Z"/><path class="cls-20" d="M160.79,325.66c-.49,1.42-1.07,2.82-1.45,4.27a15.44,15.44,0,0,0,1.11,10.29c.13.3.23.62.34.94-.37,0-.74.09-1.1.09H86.36a7.85,7.85,0,0,1-.62-15.68h74.14C160.18,325.57,160.48,325.63,160.79,325.66Z"/><path class="cls-15" d="M131.48,375.38a7.4,7.4,0,0,1,.38,1.63c0,4.24-.09,8.48-.14,12.71l-17.67,0c-4.12,0-8.25.05-12.38,0-3.88-.05-7.73-.48-11.12-2.56a15.9,15.9,0,0,1-3.89-3.32,6.83,6.83,0,0,1,.46-9.16,15.83,15.83,0,0,1,9.5-4.79,29.89,29.89,0,0,1,4.73-.39c5.42,0,10.83,0,16.24,0v8.88c1.22-.92,2.19-1.65,3.14-2.39,1.37-1.06,1-1.07,2.41,0l3.25,2.41v-8.91l20.93,0a62,62,0,0,0-1.8,6.5A21.75,21.75,0,0,0,147.33,389c.1.22.17.44.26.66l-7,.05c0-4,0-8,0-12a3,3,0,0,0-3.31-3.34c-2.06-.05-4.12-.13-6.17-.17a6.44,6.44,0,0,0-1.07.17c-1.12,0-2.33-.28-3.35,1Z"/><path class="cls-12" d="M126.39,369.51v8.91L123.14,376c-1.45-1.08-1-1.07-2.41,0-1,.74-1.92,1.47-3.14,2.39v-8.88c0-.61,0-1.23,0-1.85V366.4c0-4.48,0-8.95,0-13.43a4.19,4.19,0,0,0-.37-1.19l-1.22-1c2.65,0,5.32-.09,8,.12,1.67.14,2.35,1.27,2.36,3q0,6.27,0,12.55c0,.39,0,.79,0,1.18Z"/><path class="cls-11" d="M111.69,220.74a113.83,113.83,0,0,0,6,23.92c.88,2.49,1.92,4.91,2.8,7.39a1.62,1.62,0,0,0,1.44,1.19c.73.12,1.45.27,2.18.4,2.45.61,4.89,1.25,7.35,1.83,7.78,1.83,15.55,3.67,23.35,5.44a5.15,5.15,0,0,0,2.44-.25c4.26-1.17,8.49-2.45,12.77-3.57a4.7,4.7,0,0,1,2.75.17c2.58,1,5.1,2.14,7.62,3.27a5.94,5.94,0,0,1,1.13.91l-.13.38c-.83-.12-1.67-.18-2.49-.36-1.71-.38-3.4-.84-5.12-1.21a14.57,14.57,0,0,0-2-.17l0,.26,3.58.62a10.06,10.06,0,0,1,5.83,2.79,8.12,8.12,0,0,1,.74,1.07l-.67,0c-1.21-.25-2.45-.43-3.64-.75-3.87-1.05-7.29,0-10.49,2.13-2.28.34-4.55.73-6.84,1-2.45.31-4.92.53-7.39.78-1.63.16-3.27.29-4.9.46a7.71,7.71,0,0,0-1,.22c-2.08.15-4.16.27-6.24.44-2.85.24-5.7.52-8.55.75-2.31.19-4.63.34-7,.5-3.37.1-6.75.12-10.12.32-3.21.2-5.35-1.35-7.12-3.81A55.16,55.16,0,0,1,101.39,254a179.66,179.66,0,0,1-7.72-27c-.06-.26-.13-.53-.2-.79A43,43,0,0,1,98.66,224c4-1.18,8.07-2.15,12.12-3.19A4.56,4.56,0,0,1,111.69,220.74Z"/><path class="cls-20" d="M126.39,366.44q0-6.29,0-12.55c0-1.72-.69-2.85-2.36-3-2.63-.21-5.3-.1-8-.12l-.78,0H115a2.59,2.59,0,0,0-2.47,1h4.7a4.19,4.19,0,0,1,.37,1.19c0,4.48,0,8.95,0,13.43l-6.3,0c-11.28,0-22.56-.13-33.83.06-5.74.1-9-3.76-9.94-7.91a11.18,11.18,0,0,1,4-11.39,7.51,7.51,0,0,1,4.45-1.51h54c.14,0,.27,0,.41,0a44.08,44.08,0,0,0-2.59,6.33,17.42,17.42,0,0,0,2.76,14.35Z"/><path class="cls-21" d="M197.12,163.81l-19.42-8.18-20.54-8.69L151,144.32c1.66-.67,3.05-1.24,4.45-1.79l32-12.37,46.78-18.1q12.06-4.65,24.11-9.3a9,9,0,0,1,1.36-.32l-4,4-9,8.8-9.07,8.86-9.29,9.09-8.78,8.58q-5,4.86-9.93,9.73c-2.32,2.28-4.6,4.6-6.91,6.89C200.84,160.18,199,162,197.12,163.81Z"/><path class="cls-22" d="M197.12,163.81c1.86-1.82,3.72-3.63,5.57-5.46,2.31-2.29,4.59-4.61,6.91-6.89q5-4.87,9.93-9.73l8.78-8.58,9.29-9.09,9.07-8.86,9-8.8,4-4h.2l0,0c-.75,2-1.47,3.91-2.26,5.84-2,4.94-4.07,9.86-6.11,14.78-2.57,6.21-5.16,12.41-7.72,18.61-2,4.77-3.92,9.55-5.9,14.32q-4.35,10.53-8.73,21-2.49,6-5,12a3.43,3.43,0,0,0-.13.79L218,191.48a3,3,0,0,0-2.53,2.91c-.17,2.15-.28,4.32-.45,6.48s-.37,4.57-.56,6.85c-.82-2-1.67-3.95-2.46-5.95q-4.83-12.24-9.63-24.48C200.59,172.81,198.87,168.31,197.12,163.81Z"/><path class="cls-23" d="M214.44,207.72c.19-2.28.39-4.57.56-6.85s.28-4.33.45-6.48a3,3,0,0,1,2.53-2.91l6.16-1.66h.29c-1.53,1.32-1.32,3.18-1.45,4.89-.73,9.1-1.41,18.2-2.12,27.29q-1.2,15.57-2.44,31.13c-.21,2.76-.44,5.52-.68,8.42l-7.1.59L212,243.64q.78-10.87,1.55-21.75C213.84,217.17,214.13,212.44,214.44,207.72Z"/><path class="cls-22" d="M259.92,102.24l.14-.07c0,.1-.08.2-.11.3l0,0Z"/><path class="cls-21" d="M259.92,102.24v.2h-.2Z"/><path class="cls-11" d="M185,359c-2.18,4.18-4.38,8.36-6.55,12.56-.72,1.41-1.41,2.84-2.05,4.29a3.52,3.52,0,0,0,1.32,4.79,57.1,57.1,0,0,0,5.28,2.72,6.85,6.85,0,0,1-.79.13,55,55,0,0,1-17.68-2.25,25.76,25.76,0,0,1-3.56-1.61q2.85-7.1,5.7-14.19c1.31-3.26,2.58-6.54,3.87-9.81.13-.3.31-.59.47-.88,4.06,1.22,8.12,2.43,12.17,3.66C183.74,358.59,184.35,358.8,185,359Z"/><path class="cls-12" d="M160.92,379.63a25.76,25.76,0,0,0,3.56,1.61,55,55,0,0,0,17.68,2.25,6.85,6.85,0,0,0,.79-.13q5.36,2.58,10.71,5.18a3.64,3.64,0,0,1,.68.45c1,.76,1,1.26.22,2.24-.6,0-1.21.16-1.81.16H160.81a9.65,9.65,0,0,1-1.19-.14,14.14,14.14,0,0,1,.37-10.18A9.29,9.29,0,0,1,160.92,379.63Z"/><path class="cls-8" d="M126.39,369.51c0-.63,0-1.26,0-1.89,1.58,0,3.17,0,4.75,0a3.59,3.59,0,0,0,1.07-.4l13.7.05h.92c1.14,0,1.44.52.94,1.56-.12.24-.27.47-.41.7Z"/><path class="cls-8" d="M140.62,389.66l7-.05c.37.5.72,1,.17,1.6-.8.06-1.59.16-2.39.17-1.58,0-3.16,0-4.74,0C140.63,390.81,140.62,390.24,140.62,389.66Z"/><path class="cls-10" d="M132.17,367.21a3.59,3.59,0,0,1-1.07.4c-1.58,0-3.17,0-4.75,0,0-.39,0-.79,0-1.18l4.28,0C131.2,366.61,132.19,366,132.17,367.21Z"/><path class="cls-5" d="M131.48,375.38h-4.77c1-1.31,2.23-1,3.35-1Z"/><path class="cls-23" d="M117.25,351.78h-4.7a2.59,2.59,0,0,1,2.47-1h.23l.78,0Z"/><path class="cls-12" d="M115.25,350.75h0Z"/></g></g></g></g></svg>