<?xml version="1.0" encoding="UTF-8"?>
<svg width="520px" height="385px" viewBox="0 0 520 385" version="1.1" xmlns="http://www.w3.org/2000/svg" xmlns:xlink="http://www.w3.org/1999/xlink">
    <!-- Generator: Sketch 63.1 (92452) - https://sketch.com -->
    <title>404086-PD1EQL-977</title>
    <desc>Created with Sketch.</desc>
    <g id="404086-PD1EQL-977" stroke="none" stroke-width="1" fill="none" fill-rule="evenodd">
        <g id="path" transform="translate(0.000000, 150.000000)" fill="#F9D4AA">
            <path d="M20,119.939 C81.546965,79.527601 186.166965,48.045601 333.86,25.493 L5.68434189e-14,19.036 L5.68434189e-14,5.771 L520,0.161 L520,29.322 L404.488,26.946 C371.334949,139.659911 337.486282,205.489911 302.942,224.436 C251.125577,252.855133 -72.3204475,180.556099 20,119.939 Z" id="Fill-3"></path>
        </g>
        <g id="people" transform="translate(54.000000, 39.000000)">
            <path d="M364,23 C364,23 375.367926,30.7190849 378.156827,38.8561995 C380.945728,46.9933142 382.447366,58.6761995 379.015345,60.1368096 C375.583325,61.5974196 366.574528,60.7623577 366.574528,60.7623577 L364,23" id="Fill-5" fill="#E05960"></path>
            <path d="M349.034275,12.7709544 C349.270866,13.0783521 350.159573,13.3171076 350.6924,13.5091069 C350.579075,14.4591549 350.290792,16.2080391 351.013488,17.1073516 C351.735189,18.0046744 352.963872,18.0464566 354.063324,17.7032456 C354.858588,20.2071941 355.786064,22.6265834 354.952031,24.1307432 C354.548435,24.8599424 355.267155,25.1802727 355.419249,26 C356.520689,25.3692875 354.544459,24.3923795 355.797993,24.1954062 C358.217583,23.815387 359.58146,25.4986134 361.673998,24.2242558 C361.484129,22.757899 361.026852,18.6324025 360.754474,17.179973 C360.457245,15.591254 361.379751,14.0622238 361.782353,12.4963855 C362.386753,10.1446436 361.715749,7.47356619 359.97611,5.77939679 C358.235476,4.0862222 355.462988,3.50027635 353.235256,4.46325696 C351.690456,5.13077761 350.523406,6.40712485 350.575098,7.98689056 C350.708305,11.96217 348.717164,12.3610907 349.034275,12.7709544" id="Fill-6" fill="#AD8376"></path>
            <path d="M349.193146,1.38046189 C350.342269,0.602136882 352.210457,1.17889567 352.543851,2.53597518 C353.211624,1.38545116 354.331156,0.511332298 355.600617,0.151107518 C356.278254,-0.0424758824 357.032828,-0.0853835432 357.661147,0.234927134 C358.289466,0.555237811 358.728401,1.31659933 358.519291,1.99613693 C359.309374,0.834636533 361.124298,0.572201305 362.202402,1.46428151 C363.282479,2.35536386 363.392953,4.20638039 362.426309,5.22219431 C362.92344,5.18028451 363.392953,5.5255415 363.639546,5.96459663 C363.885153,6.40365177 363.94828,6.92153725 363.977872,7.4254528 C364.156405,10.462916 363.248943,13.5542633 361.461637,16 C361.08583,14.3735003 360.658731,12.7589748 360.1833,11.1594171 C360.488088,10.869042 360.761313,10.5267786 360.890528,10.1236462 C361.130216,9.38822882 360.736654,8.44226458 359.988984,8.28161032 C359.241315,8.12095605 358.468986,9.08188808 358.905948,9.71752017 C358.642587,9.33434478 357.069324,9.10084728 356.615593,8.97611571 C355.842278,8.76357311 355.060085,8.58395965 354.270988,8.43927102 C353.019282,8.20976493 351.825772,8.1977907 350.776273,7.40948716 C349.070836,6.13024016 346.447087,3.2404591 349.193146,1.38046189" id="Fill-7" fill="#4FB79A"></path>
            <path d="M347.201934,83.8915431 C346.583649,84.0496721 339.019214,116.530169 339.019214,116.530169 L333,119.683742 L342.261535,120 L342.415371,116.845427 L348.697184,98.8617556 L350.288459,93.0370039 L356,82 L347.201934,83.8915431" id="Fill-8" fill="#EBBA97"></path>
            <path d="M359,85.2610585 C366.597043,96.107369 373.171931,107.66422 378.61367,119.730325 C376.916469,121.016545 375.206151,123.164269 374.133544,125 C376.354435,124.245176 380.170615,123.051549 382,120.23958 L380.608537,116.345697 L371.734053,99.8935637 L373.136615,94.9409151 L370.274985,84 L359,85.2610585" id="Fill-9" fill="#F6C8A6"></path>
            <path d="M379.024034,119.581873 C378.908008,119.344306 378.783694,119.109601 378.665596,118.872034 C379.241583,118.747049 379.813426,118.611569 380.383197,118.463685 C380.894955,118.330113 381.403605,118.169827 381.910183,118 L383,120.113299 C381.120791,122.779013 376.447633,125.118429 373,124.995353 C374.100176,123.255101 377.28157,120.801194 379.024034,119.581873" id="Fill-10" fill="#2C2F42"></path>
            <path d="M343,115.344965 L342.580106,117.638689 L342.127467,120.075634 C342.127467,120.075634 331.38838,121.641312 331.054198,120.697348 C330.236559,118.397115 338.9407,116.313884 338.9407,116.313884 C338.9407,116.313884 338.620001,115.895068 338.807798,115.007525 C340.079038,114.95002 341.731649,115.237549 343,115.344965" id="Fill-11" fill="#2C2F42"></path>
            <path d="M359.012085,66.1559213 C357.355824,64.3197002 355.103546,62.8299548 352.658496,63.0156737 C352.61227,63.1225121 352.566045,63.2293504 352.518835,63.3361887 C351.775288,63.1305 350.654067,63.7305918 350.190825,64.3576428 C349.728567,64.9846938 349.530878,65.7675091 349.344008,66.5273591 C347.688731,73.2451923 346.034437,79.9630254 344.37916,86.6808586 L338,114.166262 L344.98403,115 L355.797916,87.5445514 C357.937089,82.6779167 359.601218,77.9920084 361.738424,73.1243751 C362.737688,70.8508159 360.667362,67.9911438 359.012085,66.1559213" id="Fill-12" fill="#935634"></path>
            <path d="M373.644863,87.9107918 C370.427388,78.7269774 368.683429,69.3085764 368.70232,59.5737332 C361.756312,58.3678584 355.421784,58.814072 350,63.3380988 C354.111329,71.5346532 357.277102,80.2083666 359.412805,89.1306419 L376.562067,119 L383,117.540572 L373.644863,87.9107918" id="Fill-13" fill="#A26338"></path>
            <path d="M371,63.8479701 C363.626929,66.6867696 355.754142,66.3759448 348,64.8742975 C348.564066,54.4646931 349.127126,44.0550886 349.690186,33.6454841 C349.841005,30.8551248 350.00188,28.0173344 350.956066,25.3914701 C351.911257,22.7666149 353.794492,20.337539 356.424787,19.4212112 C359.335607,18.4069938 362.585268,19.2486429 364.485596,21.6837738 C366.384918,24.1178956 367.032437,27.2977951 367.337093,30.3747591 C368.406907,41.1385828 369.250492,48.9203046 371,63.8479701" id="Fill-14" fill="#2C2F42"></path>
            <path d="M355.461005,28 L355.752851,45.4517606 L343.556578,59.903296 L342.241233,60.4588933 C340.642207,61.1336186 339.737079,62.8104212 340.067701,64.4872238 L340.759557,68 L345.56582,62.0005506 L361.153008,48.5500913 L363,30.2634332 L355.461005,28" id="Fill-15" fill="#AD8376"></path>
            <path d="M365,34.5881619 C361.598682,36.6364481 357.072006,36.4398289 353.844492,34.1037082 C353.388135,32.3067703 352.927894,30.5382105 353.009456,28.6804625 C353.091017,26.8227145 353.801769,24.901116 355.263084,23.8379531 C356.957431,22.6055354 359.367386,22.8031682 361.104457,23.9697082 C362.841527,25.1362483 363.963972,27.1115624 364.557236,29.1760647 C365.14953,31.2415804 364.886396,32.435485 365,34.5881619" id="Fill-16" fill="#FFFFFE"></path>
            <path d="M27,25 C27,25 18.7853602,26.5102828 17.568302,29.8335043 C16.3522496,33.1567258 13.0058425,53.0960546 16.6560113,54.6063374 C20.3071858,56.1166202 26.0867034,52.7943976 26.0867034,52.7943976 L27,25" id="Fill-17" fill="#EC9C51"></path>
            <path d="M39.9170342,7.55765796 C39.6453261,6.27970232 38.6066835,4.86335058 37.2717254,5.12345675 C36.5652844,5.26087134 36.0546783,5.83114186 35.6014897,6.36804027 C35.000656,5.03413727 34.3536832,3.64232384 33.1602183,2.74618445 C31.9657281,1.85102659 30.0463412,1.66060924 29.0241037,2.73440606 C28.2110301,3.58735801 28.2274351,4.87512897 28.2920299,6.02842994 C26.2455041,5.12541982 23.6565876,6.33466816 22.6394766,8.25847233 C21.6213403,10.183258 21.9176559,12.5458074 22.8363368,14.514762 C23.4679299,15.8682957 24.4563321,17.1639189 25.8938216,17.7116142 C27.9700814,18.501748 30.3036949,17.5369014 32.1974489,16.4022495 C35.1390733,14.6394167 40.7475381,11.4621952 39.9170342,7.55765796" id="Fill-18" fill="#E05960"></path>
            <path d="M38.9196131,15.8551205 C39.3418912,16.3394821 37.9626449,16.3343728 37.9694874,16.989385 C37.9773073,17.6443973 37.9255001,18.9830338 37.7603033,19.6155652 C37.5804441,20.2991895 36.9655994,20.7855948 36.3096998,20.9715733 C35.6547778,21.15653 34.9597784,21.0901091 34.2872615,20.9920105 C33.9558905,22.2284611 33.6548218,23.6651962 33.6450469,24.5399084 C33.6401594,24.987483 34.4778731,24.5358209 34.1748495,24.8515757 C33.9627329,25.0712756 33.6616643,25.1663085 33.3703706,25.2378387 C31.9178122,25.5924242 28.8318586,28.0448881 28.9129907,26.4865516 C29.0293127,24.2568532 29.2619566,17.1998882 29.2619566,17.1998882 C29.2619566,17.1998882 28.2414512,16.7972754 28.0860294,16.0421208 C27.9306076,15.2879882 27.9540675,14.4286039 28.4232654,13.8318377 C28.8924633,13.2360933 29.9129687,13.1114264 30.3352468,13.7439577 C30.5600708,14.0811715 30.627518,14.596189 31.0028763,14.7167684 C31.2931925,14.8097577 31.5835087,14.5951671 31.8181076,14.391817 C32.9744849,13.3914161 35.4123589,8.30868455 36.8727373,9.07916697 C38.4230453,9.89563309 37.4093824,14.1210241 38.9196131,15.8551205" id="Fill-19" fill="#F3BAA8"></path>
            <path d="M36.5210686,62 C36.4928011,62.6437381 39.8697672,89.7599519 39.8697672,89.7599519 L34.7583832,117.642234 L40,122 L31.5873665,120.501955 L31.201716,117.167953 L32.1254601,99.6025268 L33.5489346,83.3947659 C33.5489346,83.3947659 30.3052299,67.8247268 30.0094299,67.1659481 C29.7126203,66.5071694 36.5210686,62 36.5210686,62" id="Fill-20" fill="#EEA391"></path>
            <path d="M25.8033579,55.4746266 C25.6191957,55.9475825 25.7274669,60.9240739 27.9849717,65.189638 C30.2434884,69.4552021 36.5373834,85.7587377 36.5373834,85.7587377 C36.5373834,85.7587377 31.8270809,88.9917644 30.4711614,90.3130538 C27.5225424,93.186634 20.2764682,103.203341 20.2764682,103.203341 L17,104.009856 L21.7254806,113 L22.1039238,106.48914 L44,86.279487 L40.2094967,54 L25.8033579,55.4746266" id="Fill-21" fill="#F3BAA8"></path>
            <path d="M27.3496445,51.1092755 C22.736862,57.3299089 25.8107039,66.9913396 21,73.0639817 C29.8206337,77.8367005 36.4429251,78.6376533 45,73.4139611 C43.3540203,66.2833813 41.4202466,59.3457901 40.7820507,52.5331916 C35.6290234,50.0643371 32.6793874,49.0413974 27.3496445,51.1092755" id="Fill-22" fill="#2C2F42"></path>
            <path d="M27.9878291,24.5167245 C28.9854636,23.5666762 30.3403385,23.0498261 31.6607073,23.001029 C32.3690988,22.9751367 32.8298578,23.4441857 33.4590881,23.694146 C34.3795912,24.05863 35.3883894,24.3643583 35.8197167,25.3482658 C36.1130192,26.0144946 36.5260784,26.6428808 36.9959714,27.1955819 C38.0930649,28.4882052 39.49158,29.498005 40.6901622,30.7000053 C41.8897594,31.9010097 42.9239298,33.4007715 42.9959869,35.0807835 C43.0721034,36.876315 42.0521414,38.5184845 41.0687153,40.0341799 C39.3525404,42.6791781 40.6140457,48.2261058 40.7906361,51.3570825 C40.9976732,55.0088929 42.390099,58.9853529 40.6871176,60.9939979 C40.2963859,61.4560759 37.739884,61.2768215 37.1725618,61.5018854 C31.9540098,63.5682902 30.1170633,58.6826121 25,56.3971186 C26.9729415,51.3202358 26.9901946,49.3205534 26.3406665,43.9249962 C25.6911385,38.5294389 25.8717884,39.2295269 26.4340362,29.5627357 C26.4563637,29.1922767 27.7239583,24.7676807 27.9878291,24.5167245" id="Fill-23" fill="#2C2F42"></path>
            <path d="M11.1177785,23.292925 C10.3635127,24.2756177 9.34594679,25.0075822 8.47091926,25.8800758 C6.57337653,27.7746912 5.35289131,30.7227693 6.36451815,33.2290401 C7.07523056,34.9912144 8.77282355,36.1963273 10.5773204,36.6826186 C12.3818172,37.169921 14.292228,37.0253479 16.1343391,36.7210366 C18.5367054,36.3247244 20.9598585,35.6281449 22.8989749,34.1288308 C24.8390812,32.6295167 26.2219019,30.19806 25.9704799,27.7271742 C25.5220778,23.315167 20.4698827,20.515706 21.2300876,15.8024206 C21.7200634,12.7734624 25.4527883,10.5644258 21.1538691,7.93582396 C12.8232903,2.8424023 13.6042821,20.0496347 11.1177785,23.292925" id="Fill-24" fill="#E05960"></path>
            <polyline id="Fill-25" fill="#E05960" points="40 65 21.0618062 64.9395397 21 50.6679886 38.2890484 50 40 65"></polyline>
            <path d="M35.8084539,63.843749 C35.8998328,63.9317213 35.9940974,64.027877 35.9998687,64.1659729 C36.0046781,64.3040688 35.8767477,64.4933114 35.7180369,64.5219536 L35.5266222,64.4912656 C35.2168958,64.3766971 34.9081313,64.2611057 34.5993668,64.1465372 C34.7561538,64.6406138 34.9119788,65.1346904 35.0678039,65.628767 C35.1784205,65.979633 35.4467859,66.6619292 34.9244833,66.7857041 C34.6647749,66.6261266 34.1424723,65.2676716 33.9520194,65.0426264 C34.0780261,65.2492589 34.5589677,67.1253178 34.1376629,66.9933595 C33.8510217,67.0741712 33.527829,65.3167724 33.2921676,65.0702456 C33.428755,65.1162776 33.4585734,66.9207312 33.1517326,66.848103 C32.9141475,66.7918417 32.6159637,65.4313409 32.5967261,65.2911991 C32.5688314,65.461006 32.794874,66.7539932 32.4620624,66.6731815 C31.1817959,65.1510573 31.7829729,62.9118571 31,61.0490963 C32.1157845,61.3569991 32.6525153,59.3581882 33.0459255,60.215406 C33.9202773,62.1160153 35.165916,63.2228288 35.8084539,63.843749" id="Fill-26" fill="#F3BAA8"></path>
            <path d="M31.6373132,23 C31.6373132,23 40.379399,27.0680942 32.7152499,34.869664 L31,38 C31,38 37,35.2011842 37,30.2294134 C37,25.7306527 34.6320103,23.9129716 32.2649847,23.132195 C32.0152659,23.0506059 31.8532862,23.0216882 31.6373132,23" id="Fill-27" fill="#EC9C51"></path>
            <path d="M28.7276066,30 L34,32.6663966 C30.7624802,36.8002129 28.9327468,42.0809203 28.8977466,47.3926789 C28.8588574,53.2743773 30.7167855,57.2268946 33.3826351,62.1399959 C32.453185,62.553678 32.0263768,63.7907178 31.0055372,62.2421644 C28.6683007,58.6993225 25.6514767,50.2493894 25.3607805,48.6717881 C24.1396619,42.0749104 26.2075912,34.3641962 28.7276066,30" id="Fill-28" fill="#F3BAA8"></path>
            <path d="M34.4051314,117.541732 C34.4051314,117.541732 41.2579888,121.030641 40.9924793,121.823443 C40.7279389,122.61528 30,120.486978 30,120.486978 L30.9050578,117 L34.4051314,117.541732" id="Fill-29" fill="#A26338"></path>
            <path d="M22.9996876,105.897773 C22.9996876,105.897773 23.0450149,113.748598 22.0436934,113.995853 C21.0413418,114.243107 17,103.352863 17,103.352863 L21.235013,102 L22.9996876,105.897773" id="Fill-30" fill="#A26338"></path>
            <path d="M142.662549,163.828129 C145.537108,161.327776 147.421785,153.416014 144.626297,150.410569 C142.036992,147.627043 137.180669,149.59218 134.925662,152.652854 C136.247839,144.714985 135.876508,136.495951 133.8447,128.709709 C132.191228,122.37548 128.506948,115.540177 122.088235,114.352258 C117.312984,113.468598 112.436643,116.180829 109.42296,119.999642 C106.409278,123.81946 104.908942,128.593227 103.575756,133.27662 C104.104226,125.482345 97.8436531,118.706287 90.8574343,115.254996 C85.7038468,112.709455 79.7045065,111.400033 74.1645751,112.919324 C68.6236428,114.437611 63.7863369,119.251545 63.4059983,125.002358 C64.3528412,118.323703 61.0799278,111.23033 55.3928654,107.633436 C49.7068039,104.036542 41.9158688,104.132941 36.3188866,107.869413 C28.4008383,113.156305 26.1338204,123.612603 24.5203841,133.016543 C23.9829057,128.743851 17.5691965,127.711576 14.2982849,130.500123 C11.0283742,133.290678 10.1826213,137.933905 9.54205113,142.191535 C9.11667248,145.021253 9.0366012,148.372128 7.98766749,150.977918 C7.31106521,150.061122 6.51035245,148.854124 5.53648556,148.165272 C4.36944672,147.341862 2.58986261,147.20128 1.61599572,148.247613 C0.994442445,148.916382 0.838303457,149.883386 0.722200107,150.793153 C0.260789381,154.412139 -0.916258373,158.410696 1.32974091,161.653123 C4.09420171,165.641639 24.3051926,171.135387 82.434937,169.793832 C117.593233,168.983477 139.389635,166.3084 142.431343,164.015907 L142.662549,163.828129" id="Fill-31" fill="#4FB79A"></path>
            <path d="M115.461083,148.005598 L106.195053,280.569719 C106.195053,280.569719 95.5014352,288.245042 95.1506955,286.824647 C94.4590685,284.017821 101.981252,275.460496 101.981252,275.460496 C101.981252,275.460496 93.7497074,181.467765 93.0048783,147.440237 C92.7900995,137.641316 99.7388824,122 99.7388824,122 L116,122.962911 L115.461083,148.005598" id="Fill-32" fill="#F3BAA8"></path>
            <polyline id="Fill-33" fill="#FFFFFE" points="100.451798 260.383647 99 249 109 249 108.031787 261 100.451798 260.383647"></polyline>
            <path d="M138,148.005598 L128.511647,280.569719 C128.511647,280.569719 117.561453,288.245042 117.202298,286.824647 C116.493068,284.017821 124.196742,275.460496 124.196742,275.460496 C124.196742,275.460496 115.767695,181.467765 115.004995,147.440237 C114.785063,137.641316 121.900571,122 121.900571,122 L126.918653,128.565577 L138,148.005598" id="Fill-34" fill="#F3BAA8"></path>
            <polyline id="Fill-35" fill="#FFFFFE" points="123.450907 260.383647 122 249 132 249 131.032729 261 123.450907 260.383647"></polyline>
            <path d="M84,113.777616 C84,113.777616 84.0970573,125.116998 91.4021683,129 L94,125.545397 L88.505937,113 L84,113.777616" id="Fill-36" fill="#F3BAA8"></path>
            <path d="M97.8311688,71 C97.8311688,71 90.8141858,77.1808164 87,97.5023792 L93.1978022,103 L103,79.7142499 L97.8311688,71" id="Fill-37" fill="#F3BAA8"></path>
            <path d="M135,135 L147.564695,135.771041 C147.564695,135.771041 153.495128,171.820245 153.990489,179.300556 C154.48585,186.779858 135.466572,188 135.466572,188 L135,135" id="Fill-38" fill="#A26338"></path>
            <path d="M157.974039,117.989313 C157.054681,102.911828 145.34966,80.1826222 137.214795,72.1058603 C136.020733,70.9193309 133.851168,70.8466659 132.189907,71.1552432 C131.580344,71.26872 131.055999,71.6459806 130.57276,72.0322 C127.792629,74.2539565 131.094097,79.3713625 129.646384,82.6074425 C129.152116,83.7113529 128.74808,84.9775152 129.189211,86.1023292 C129.554147,87.0290565 130.413351,87.6541744 131.215408,88.2514207 C140.844104,95.4143956 147.930278,105.883129 150.973083,117.440842 C154.341723,130.240827 151.381129,140.735442 148.0947,152.965057 C155.766377,154.183439 158.289849,123.16943 157.974039,117.989313" id="Fill-39" fill="#F3BAA8"></path>
            <path d="M146.265846,157.719079 C146.125811,157.967151 145.981746,158.234153 146.001895,158.517096 C146.022044,158.800038 146.281965,159.083976 146.562034,159.022207 C146.68998,158.992319 146.791732,158.901658 146.887439,158.812989 C147.398214,158.343744 147.907981,157.873501 148.417748,157.405252 C148.250512,158.524069 148.083276,159.642887 147.915033,160.760708 C147.797162,161.55474 147.474779,163.137822 148.402636,162.990373 C148.817703,162.469321 149.440304,159.323083 149.723396,158.721332 C149.547094,159.23541 149.105833,163.395857 149.806007,162.807058 C150.318796,162.750271 150.513233,158.951472 150.869869,158.273008 C150.643194,158.470271 150.965576,162.139554 151.48038,161.759973 C151.879329,161.464079 152.114063,158.486211 152.118093,158.187328 C152.200703,158.511118 152.077795,161.296705 152.63592,160.878269 C154.533946,156.822431 153.031845,152.75663 154,148.39095 C152.136227,149.866434 150.57771,146.665401 150.073987,148.698799 C148.956731,153.210932 147.248104,155.971611 146.265846,157.719079" id="Fill-40" fill="#F3BAA8"></path>
            <path d="M103.550414,42.2106834 C103.091452,44.7198011 102.640438,47.3574371 103.434183,49.7802067 C104.722655,53.7170817 109.588446,56.0022966 113.397234,54.4600778 C113.678373,57.5605802 113.958519,60.6620867 114.238664,63.7635932 C111.970677,64.3941358 105.519381,66.7847758 103.251393,67.4153184 C104.148455,70.4656184 115.200299,75.1645664 116.626856,78 C121.508542,75.7961131 121.866175,70.745748 126.747861,68.540857 C127.408488,68.2426545 127.028007,66.933375 126.654479,66.3068486 C126.479636,66.0146704 126.11803,65.9102494 125.789207,65.8299255 C124.685512,65.5588323 123.580825,65.2877392 122.477131,65.016646 C122.171156,59.6490016 122.374808,54.2512356 123.084113,48.9227491 C125.634233,48.6004494 128.118786,46.4628297 127.995602,43.8683678 C127.871424,41.2729019 124.160985,39.4646102 122.493025,41.440578 C121.212502,38.8270392 123.292732,35.2425853 121.535365,32.9302611 C120.796257,31.9583419 119.567391,31.5255969 118.38919,31.2163499 C115.128772,30.3609004 107.596631,28.7182767 104.99982,31.7635565 C103.756053,33.2214352 103.931889,40.120254 103.550414,42.2106834" id="Fill-41" fill="#F3BAA8"></path>
            <path d="M106.855604,36.8546459 C101.959827,36.7920122 96.2541308,34.716152 95.1581215,30.0066934 C94.4952776,27.1663043 95.9700549,23.9749676 98.5771065,22.6049795 C101.185166,21.2349913 104.690784,21.8096308 106.709536,23.9371886 C107.094348,24.3428164 107.442895,24.8071012 107.941539,25.0655896 C109.75479,26.0011185 111.447157,23.7671828 112.868545,22.3146772 C115.310389,19.8202648 119.533248,19.2615323 122.553318,21.0321774 C125.574395,22.8038167 127.096519,26.7308509 126.043826,30.0395016 C127.826856,27.3134439 131.60144,25.7913453 134.60237,27.1185834 C137.6033,28.4458216 138.820192,32.8997744 136.487143,35.1864019 C138.667073,34.079873 141.506825,35.3106752 142.807329,37.3616807 C144.10884,39.4126862 144.174319,42.0065172 143.805624,44.3985284 C143.445996,46.7368536 142.648166,49.118923 140.921548,50.7583356 C138.65297,52.9117422 135.152389,53.380998 132.075907,52.7268237 C129.057852,52.0855738 126.203996,50.5455798 123.640261,48.8952312 C125.008258,48.7113068 126.253357,47.8056035 126.837627,46.5718188 C127.421897,45.3380341 127.326197,43.8139471 126.591831,42.6606915 C126.502175,42.5205113 126.398417,42.3803311 126.249328,42.3057671 C126.06901,42.2152962 125.854442,42.2341857 125.65297,42.2560578 C119.529219,42.9102321 123.064051,37.256297 118.83011,35.7202798 C115.552156,34.4725765 110.393457,36.8993842 106.855604,36.8546459" id="Fill-42" fill="#2C2F42"></path>
            <path d="M126.4005,66.4885 C126.4005,66.4885 126.4645,66.4975 126.5575,66.5135 L126.5995,66.4865 L126.4005,66.4885" id="Fill-43" fill="#2C2F42"></path>
            <path d="M99.4820174,121.981733 C99.4820174,121.981733 87.5641835,138.224438 93.8112032,180.682468 C93.8112032,180.682468 113.332768,187.614043 136.850085,181.438457 C136.850085,181.438457 144.560924,141.163948 130.776621,119.721809 L116.864382,119 L99.4820174,121.981733" id="Fill-44" fill="#2C2F42"></path>
            <path d="M133.493339,88.9899251 C132.048079,83.402982 131.636009,81.8061372 131.636009,81.8061372 L139,71.531357 C132.763673,66.0048242 128.814837,66.0269746 127.864061,65.8638669 C114.801444,74.3494961 108.732961,65 108.732961,65 C108.732961,65 102.955941,66.6492004 96,70.3080491 L101.342838,82.1031543 C101.342838,82.1031543 99.8362706,88.0324223 99.6644073,91.2341667 C99.4985742,94.3130768 103.058456,110.866498 99.1307264,120.574428 L98.4352328,122.090726 C110.68577,130.586423 133.977772,122.588104 133.977772,122.588104 C127.269073,108.444046 134.952669,94.634258 133.493339,88.9899251" id="Fill-45" fill="#E05960"></path>
            <path d="M104.055105,66.0881884 C108.552266,78.9027846 115.586674,91.1385017 121.706388,103.219717 C128.068079,115.779486 134.090399,128.875998 141.792503,140.69436 C142.245332,141.391623 143.313646,140.776627 142.911021,140.04124 C136.30434,127.945979 130.050083,115.631004 123.80687,103.346128 C117.570686,91.0752966 110.360569,78.6329086 105.781075,65.6126448 C105.402546,64.534144 103.671556,64.9976485 104.055105,66.0881884" id="Fill-46" fill="#A26338"></path>
            <polyline id="Fill-47" fill="#B7753F" points="72 101.05628 87.2525048 89 102 117.130327 92.4786965 126 72 101.05628"></polyline>
            <path d="M97.4244549,130 L75,100.818015 L88.5321556,88 C88.5321556,88 105.620826,116.394324 104.982555,116.607793 C104.345296,116.821262 97.4244549,130 97.4244549,130" id="Fill-48" fill="#EC9C51"></path>
            <path d="M74.7464365,101 L72,101.445356 L94.0427625,131 C93.4023288,130.372498 97,130.551641 97,130.551641 L74.7464365,101" id="Fill-49" fill="#F3B067"></path>
            <path d="M91.0663373,120.144383 L91.3212564,120.065535 L91.3661807,120.259542 C91.2742426,121.064619 91.0893218,121.858283 90.8166419,122.621861 C90.7696281,122.754658 90.7194801,122.894716 90.7403751,123.033737 C90.7612701,123.173795 90.8835059,123.308667 91.0245472,123.29103 L91.1520068,123.245381 C93.2415081,122.206873 94.74177,120.209743 96.8761956,119.266683 C97.3034986,119.078901 97.7788601,118.932618 98.2364609,119.032215 C98.340936,119.054002 98.4579481,119.105875 98.4798878,119.21066 L98.4380978,119.394292 C97.9366175,120.426575 96.8897773,121.062544 95.9306963,121.696438 C95.1575808,122.205836 94.4084946,122.750508 93.6844824,123.327341 C93.4212052,123.53691 93.1516595,123.764116 93.0294237,124.076394 L93.0106182,124.24239 C93.0544977,124.368961 93.2331501,124.365849 93.3637439,124.333687 C95.13982,123.895875 96.5105329,122.538864 98.0755693,121.598916 C98.6595849,121.247214 99.4128501,120.952572 100,121.300124 C98.9113698,122.732871 97.4445399,123.880313 95.7875654,124.594092 C95.0907167,124.894958 94.2862587,125.187525 93.9832811,125.87848 L93.949849,126.116061 C94.0198473,126.331854 94.34372,126.267531 94.5453569,126.158597 C95.546228,125.622225 96.5470991,125.085853 97.5479702,124.549481 C97.9857208,124.315013 98.4255608,124.078469 98.8862958,123.890687 C99.0231582,123.835701 99.1694232,123.78279 99.3156883,123.800427 C99.4629982,123.817027 99.610308,123.926999 99.618666,124.073282 C99.6259793,124.196741 99.5382202,124.305675 99.4525507,124.396973 C98.5133198,125.415768 97.3515571,126.23122 96.0706928,126.770704 C95.5107065,127.00621 94.8963931,127.213704 94.5213276,127.689903 L94.4774481,127.780163 C94.4722244,127.899472 94.6592347,127.897397 94.7699783,127.848636 C95.6966721,127.450247 96.6797825,127.18258 97.6816983,127.057046 C97.7840839,127.045634 97.9125882,127.045634 97.959602,127.136931 L97.92617,127.359987 C97.4769272,128.221088 96.6703797,128.891293 95.7374174,129.176597 C95.0071367,129.400691 94.3196908,129.69637 93.5800073,129.890377 C91.7140827,130.377988 90.2681478,129.268932 89.0875796,125.959403 C88.6049048,124.607579 90.2368053,120.983696 91.0663373,120.144383" id="Fill-50" fill="#F3BAA8"></path>
            <path d="M102.33942,276.254438 C102.33942,276.254438 93.3955355,285.815465 94.0324734,287.698284 C94.6683824,289.579075 106.929695,282.051856 106.929695,282.051856 L109,259.15707 L99.7649147,259 L102.33942,276.254438" id="Fill-51" fill="#A26338"></path>
            <path d="M124.339875,276.254438 C124.339875,276.254438 115.395573,285.815465 116.032468,287.698284 C116.669362,289.579075 128.929836,282.051856 128.929836,282.051856 L131,259.15707 L121.764517,259 L124.339875,276.254438" id="Fill-52" fill="#A26338"></path>
            <path d="M399.438077,98.4060087 C396.571557,88.4551408 386.390363,79.3901307 376.60183,82.691053 C370.842811,84.6341278 366.995139,90.3451043 365.588356,96.2735367 C364.182572,102.202971 364.805034,108.402973 365.435488,114.463683 C366.260774,122.402331 367.086061,130.341981 367.911347,138.281632 C366.309732,134.328341 364.644173,130.274841 361.709711,127.18436 C358.777247,124.093879 354.243169,122.144791 350.196669,123.462555 C345.622626,124.95268 343.089817,130.229746 343.40954,135.04284 C343.729264,139.854931 346.296043,144.223091 349.198533,148.069157 C354.438001,155.015725 361.00532,160.951172 368.43989,165.45662 C360.949369,159.370858 348.088493,162.204801 343.834173,170.879993 C343.175742,172.219803 342.705149,173.789094 343.216707,175.190032 C343.959065,177.22029 346.351995,178.013954 348.454177,178.496967 C366.19683,182.582535 384.749782,183.101623 402.692262,180.016153 C406.004397,179.445957 409.407454,178.707408 412.1291,176.732266 C414.851745,174.757124 416.725124,171.227723 415.799925,167.988931 C414.352177,162.913287 407.877777,161.812979 403.235792,159.327767 C409.452415,154.278178 415.502182,148.518098 418.430649,141.05144 C421.357118,133.584782 420.337999,124.03275 414.126372,118.977148 C409.861061,115.506871 399.213272,114.699177 397.601665,120.855087 C401.412369,114.613998 401.463325,105.442765 399.438077,98.4060087" id="Fill-53" fill="#4FB79A"></path>
            <path d="M273.722941,272.494523 C270.36593,268.916026 267.759778,264.44818 267.13307,259.555256 C266.506362,254.663336 268.095479,249.347343 271.854735,246.204979 C275.61399,243.062614 281.592051,242.637535 285.329457,245.806028 C284.124707,240.052898 282.922937,234.042509 284.413728,228.357713 C285.905512,222.672917 290.993667,217.489573 296.781033,218.040265 C301.805624,218.518604 305.669165,223.148241 306.951385,228.088396 C308.233604,233.027547 307.486718,238.245058 306.731888,243.295754 C307.640664,238.723397 312.619567,235.677504 317.197219,236.227192 C321.77487,236.777884 325.651323,240.333269 327.476821,244.61621 C329.30232,248.899152 329.310266,253.786047 328.426319,258.364433 C327.544359,262.928751 325.79335,267.341326 323.138531,271.1399 C320.514501,274.891242 317.035327,278.004464 313.122126,280.339883 C300.366479,287.954114 283.472176,282.889349 273.722941,272.494523" id="Fill-54" fill="#4FB79A"></path>
            <path d="M304.713792,27.6413706 C304.392759,26.4696449 304.072699,25.2979192 303.753612,24.1272195 C303.430634,22.9421555 303.104737,21.7468311 303.020101,20.5166217 C302.935465,19.2874384 303.108629,18.0038755 303.720536,16.9532213 C304.272129,17.3472166 304.675852,17.9669384 304.827613,18.6523261 C305.530966,16.7038961 306.452233,14.9360473 307.415331,13.1158709 C307.597249,12.772151 307.79376,12.4202229 308.099228,12.1955225 C308.405668,11.970822 308.854141,11.9123383 309.140152,12.1667936 C309.452429,12.4438216 309.446592,12.944524 309.414489,13.3734043 C309.389195,13.6976296 309.364875,14.021855 309.339581,14.3460803 C309.744277,13.8464039 310.597445,13.9500329 310.876647,14.5379478 C311.019652,14.8416525 311.007978,15.1987108 310.988522,15.5373005 C310.717103,20.143147 309.562358,24.6894837 307.612814,28.8213045 C307.502885,29.0562653 307.388091,29.291226 307.222711,29.4871977 C306.859847,29.916078 306.257667,30.1017893 305.733314,29.9448068 C305.208961,29.7888503 304.863607,28.1933745 304.713792,27.6413706" id="Fill-55" fill="#F3BAA8"></path>
            <path d="M238.14716,40.2646873 C237.534712,39.3237866 237.510983,38.9451197 236.899665,38.0042189 C236.365186,37.9619313 235.848786,38.2425676 235.548212,38.6202735 C235.248769,38.9989403 235.131251,39.4592993 235.066842,39.9119697 C234.795648,41.7928101 235.357246,43.7524593 236.613781,45.3180643 C236.870286,45.637144 237.208149,45.9667957 237.66014,45.9975503 C238.457904,46.051371 238.878255,45.2075397 238.953964,44.5299758 C239.104251,43.1863811 238.885035,41.814915 238.318917,40.5549345" id="Fill-56" fill="#F3BAA8"></path>
            <path d="M254.207924,146.936201 C254.207924,146.936201 248.856982,148.536367 247.583283,148.739022 C238.503658,159.385397 241.549285,237 241.549285,237 L237.601622,237 C237.601622,237 237.601622,237 229.31153,212.949345 C214.31041,168.790765 230.759006,125.026458 230.759006,125.026458 L244.397027,120.318256 L258.38863,119 C258.38863,119 267.67719,120.290166 268.420516,121.373664 C268.420516,121.373664 282.73657,148.551416 283.920869,159.591061 C285.105168,170.630706 272.604235,191.527177 272.604235,191.527177 L269.708278,190.738631 C269.708278,190.738631 273.497231,168.096524 270.498815,159.985334 C267.340684,151.442752 254.207924,146.936201 254.207924,146.936201" id="Fill-57" fill="#2C2F42"></path>
            <path d="M241.309622,237.247477 C241.309622,237.247477 242.210725,239.974095 241.95397,240.841656 C241.696231,241.709216 229.452648,238.734723 229.067023,238.610786 C228.679431,238.486849 225.587547,235.264482 227.777345,235.017553 C229.969109,234.768733 237.443538,237.247477 237.443538,237.247477 L241.309622,237.247477" id="Fill-58" fill="#2C2F42"></path>
            <path d="M270.186206,191 C270.186206,191 268.571354,192.404068 269.109981,194.191064 C269.648607,195.97806 274.226933,204.530112 275.169529,205.42361 C276.112126,206.317108 277.862662,206.19044 277.997319,204.91304 C278.131975,203.636614 273.14968,191.765855 273.14968,191.765855 L270.186206,191" id="Fill-59" fill="#2C2F42"></path>
            <path d="M240.689855,66.8344456 C240.689855,66.8344456 243.406337,68.5273155 244.991785,68.7391741 C246.576232,68.9510327 248.184701,68.8740841 249.779158,69 C251.399638,67.504998 251.693907,65.0166591 251.636855,62.8151288 C251.55478,59.7032061 251.781987,58.6988766 252.625758,55.3760947 C254.892829,54.8234637 256.869634,52.9906871 258.041705,50.976032 C258.668277,49.8977519 259.05463,48.6995517 259.428972,47.5103456 C260.525974,44.0166778 261.565924,40.2891661 260.646084,36.7445324 C259.647171,32.8971008 256.346156,29.8731195 252.549688,28.6749193 C248.753221,27.4777185 244.558389,27.9573983 240.869019,29.451401 C237.184654,30.943405 237.610042,35.476379 237.118593,39.4157492 C236.771276,42.197892 237.196664,45.4996878 238.265641,48.0929567 C239.470742,51.018004 243.014979,54.5966151 243.014979,54.5966151 L241.972026,62.7951421 L240.689855,66.8344456" id="Fill-60" fill="#F3BAA8"></path>
            <path d="M259.079006,43.995104 C259.912638,43.1876351 260.048955,42.8064442 260.882588,42 C261.371233,42.0922236 261.745581,42.5113287 261.89553,42.9744961 C262.047576,43.4376635 262.010875,43.9387451 261.929085,44.4183078 C261.593535,46.4113624 260.492511,48.2742792 258.894453,49.5551626 C258.567292,49.8164628 258.166729,50.067516 257.752534,49.98349 C257.026907,49.8359323 256.911561,48.865535 257.052073,48.1523391 C257.32995,46.7402933 257.945475,45.3928039 258.834683,44.2471818" id="Fill-61" fill="#F3BAA8"></path>
            <path d="M281,53.3061536 C281,53.3061536 304.523429,28.2549246 305.235404,26.8382178 C305.94738,25.4205077 309,26.2301977 309,26.2301977 C309,26.2301977 296.187466,58.2706474 291.858131,60.4227976 C287.529804,62.5749478 286.81682,61.9669277 286.511255,61.7652577 C286.207708,61.5625843 281,53.3061536 281,53.3061536" id="Fill-62" fill="#F3BAA8"></path>
            <path d="M270.260344,79.247045 C271.933705,78.2624044 283.292307,68.6378188 292,60.1193228 C288.806678,54.7002866 284.05329,53.3151653 281.204867,53 C278.121832,55.3115466 274.897429,57.4313845 271.551709,59.3414467 C265.817766,62.6135448 258.3102,59.8924841 251.772162,58.9811144 C248.38333,58.5093702 244.972441,60.5328517 242.001699,62.2311309 C238.488543,64.2395568 238.608856,69.9255801 238.125597,73.9464467 C236.90642,84.0939658 236.482314,94.3197744 236.060214,104.532535 C235.629091,114.958082 237.654369,129 237.654369,129 C237.654369,129 266.639909,126.799865 269.542473,124.163116 C270.497963,118.341592 269.415141,95.3817008 269.753022,89.4457534 C269.933492,86.2760338 270.079874,82.4167646 270.260344,79.247045" id="Fill-63" fill="#F3B067"></path>
            <path d="M237.976077,129 L229.931314,128.38393 C229.931314,128.38393 227.337072,85.0373667 225.445604,79.6784566 C222.953766,78.943566 222,74.6470521 222,74.6470521 C222,74.6470521 223.572207,60.777989 232.29063,61.0026499 C235.921967,60.435506 249.243563,57.8923452 252.516485,59.5568325 C255.591627,61.120472 242.935658,70.6740498 244.391406,73.7883484 C246.464591,78.2276467 241.251007,80.8157397 240.232988,85.6045105 C239.122604,90.8316196 239.768152,96.2504393 239.537241,101.587383 C239.066382,112.440998 237.976077,129 237.976077,129" id="Fill-64" fill="#F3B067"></path>
            <path d="M228,73.3410471 C228,73.3410471 230.250244,60.9889294 237,60 C237,60 232.178467,66.4235412 232.339477,74 L228,73.3410471" id="Fill-65" fill="#2C2F42"></path>
            <path d="M252.275485,83.4807359 C252.860221,84.5273214 253.14213,85.7138515 253.418062,86.8823888 C253.887246,88.8676026 254.354438,90.8528165 254.823622,92.8370307 C255.145376,94.20249 255.483069,95.603935 256.286957,96.750481 C257.051996,97.8440479 258.177639,98.6177415 259.211637,99.4584086 C261.522691,101.337664 263.471149,103.663743 264.919543,106.271711 C266.440655,109.010626 267.418869,112.20636 266.823175,115.285141 C265.976452,119.668405 261.933103,122.999086 257.552061,123.784775 C253.172015,124.570464 248.612663,123.131034 244.898041,120.671008 C244.18779,120.200195 243.487501,119.680401 243.001382,118.979678 C242.409673,118.129015 242.18056,117.084429 241.977346,116.067831 C240.958291,110.964852 240.296851,105.790901 240,100.595958 C241.584865,101.075768 242.305078,102.867059 242.865907,104.42944 C244.774519,109.750333 247.57468,115.217168 252.577316,117.820137 C253.837439,118.474878 255.239014,118.929698 256.655531,118.846731 C258.70958,118.726778 260.558424,117.488269 261.93111,115.949878 C262.572627,115.232162 263.139433,114.42948 263.451226,113.518841 C264.23818,111.22175 263.251998,108.635774 261.67809,106.791505 C260.105178,104.947235 258.007298,103.648749 256.082748,102.177332 C255.011893,101.359656 253.967934,100.460012 253.254695,99.3154652 C252.481687,98.0749565 252.140009,96.6215321 251.809289,95.1970961 C251.372978,93.3138419 250.936667,91.4295881 250.500356,89.5463339 C250.080979,87.7370504 249.621757,85.8457993 248.395503,84.4533507 C247.371467,83.2888119 244.028407,81.4935228 246.756846,80.2120303 C248.835799,79.235417 251.368994,81.8583783 252.275485,83.4807359" id="Fill-66" fill="#2C2F42"></path>
            <polyline id="Fill-67" fill="#BD3336" points="247 100.590957 249.366126 100 250 100.853838 249.089249 101.898002 248.139959 102 247 100.590957"></polyline>
            <path d="M236.324512,74.9801244 C236.324512,74.9801244 237.949488,71.8981719 237.030938,70.5667522 C236.117321,69.2414213 231.452545,67.8704243 229.827569,68.8557966 C228.20358,69.841169 227.912525,72.6694211 227.912525,72.6694211 L225,72.2381304 C225,72.2381304 227.912525,67.8704243 229.038267,66.6262775 C230.164009,65.3872047 237.445321,65.9859377 238.4872,68.42958 C239.529079,70.8671334 238.660847,76 238.660847,76 L236.324512,74.9801244" id="Fill-68" fill="#E05960"></path>
            <path d="M241.967776,81.423365 L243,74.8931603 L220.14361,73 C220.14361,73 214.175497,80.9191213 214.008846,95.7548677 C213.837146,110.583625 216.221765,121.201697 216.221765,121.201697 L240.42449,127 L241.967776,81.423365" id="Fill-69" fill="#A26338"></path>
            <path d="M225.728255,99.4582185 C226.101612,97.8852914 226.124946,95.3246646 226.124946,95.3246646 C226.124946,95.3246646 233.664104,96.6717144 235.115932,96.2343339 C236.572833,95.8031137 240,87.6602384 240,87.6602384 L237.650291,84 L214.858313,86.3018946 C214.460608,88.3542976 214.155227,90.6274442 214,93.1223613 C215.192102,93.6459858 222.530378,94.7189028 222.530378,94.7189028 L223.066063,100.908967 C223.066063,100.908967 224.373824,101.26421 225.226051,100.571177 C225.440122,100.397663 225.603465,99.9828698 225.728255,99.4582185" id="Fill-70" fill="#905232"></path>
            <path d="M238.673364,75.8359109 C239.600091,75.6438037 240.44275,74.8126665 242.519726,75.0386164 C243.872727,75.1799595 245.023965,75.7732023 245.854755,76.4062601 C246.523343,76.9089239 247.056434,78.005826 247.146436,79.1694181 C247.629086,85.5497648 250.324209,117.964116 248.185913,121.03783 C246.282019,123.77909 244.092293,125.151711 241.687946,125.931088 C241.148922,126.10727 240.756274,126.971254 240.172743,126.999125 C236.999915,127.169334 236,102.46913 236,96.4222338 C236,90.3693652 238.673364,75.8359109 238.673364,75.8359109" id="Fill-71" fill="#905232"></path>
            <path d="M244.165705,102.599063 C248.663227,102.386272 249.117802,100.585436 248.842799,100.602183 C248.569849,100.61302 248.541118,100.097792 248.541118,100.097792 C248.541118,100.097792 249.577508,99.6456123 250.055684,100.68592 C250.532833,101.726228 252.915504,113.40408 251.617452,117.397839 C250.317346,121.390612 247.585792,123.297843 244.650037,124.970611 C241.719414,126.648305 239.837493,127 239.837493,127 C239.837493,127 236.866851,120.070524 236.371231,113.454322 C235.87048,106.838121 236.021321,101.73805 236.021321,101.73805 C237.070024,101.815876 239.423964,102.816779 244.165705,102.599063" id="Fill-72" fill="#E05960"></path>
            <path d="M225,91.6268371 L221.623708,91 C221.623708,91 221.223294,93.4516295 221.065264,95.3838797 C221.022553,95.9758926 220.956351,96.8972436 221.040705,97.7787954 C221.149618,98.9080972 221.422967,99.7886541 222.410655,99.9697403 C223.763521,100.224455 224.502419,98.8066093 224.593179,98.1340031 C224.68394,97.461397 225,91.6268371 225,91.6268371" id="Fill-73" fill="#E05960"></path>
            <path d="M223.002309,98 C222.445727,98 222,98.4448296 222,98.9971115 C222,99.5470826 222.445727,100 223.002309,100 C223.554273,100 224,99.5470826 224,98.9971115 C224,98.4448296 223.554273,98 223.002309,98" id="Fill-74" fill="#FFFFFE"></path>
            <path d="M242,74.7251741 C242,74.7251741 238.014972,80.3850672 236.802444,85.0301715 C235.589916,89.6802164 234.864816,93.2255545 233.720769,93.8935167 C232.571688,94.561479 216.122998,91.8916062 214.681862,91.3076333 C213.235691,90.7236604 212,90.8926272 212,89.5171783 C212,88.137777 212.595186,82.0905448 214.636544,78.2596429 C216.676894,74.4218244 220.330592,71 220.753567,71 C221.182584,71 242,74.7251741 242,74.7251741" id="Fill-75" fill="#2C2F42"></path>
            <path d="M233.888398,113.162006 C233.392388,108.795509 234.056354,107.282307 233.392388,106.525209 C232.728422,105.76811 226.098588,105.76811 221.124739,104.846858 C216.15089,103.921626 215.102885,102.978487 214.578392,103.000374 C214.048987,103.023256 213,103.503779 213,105.18014 C213,106.86446 213.201351,117.329529 214.494905,118.61789 C215.782566,119.905255 215.800246,119.98982 215.800246,119.98982 L237,125 C235.054266,121.19859 234.379497,117.471796 233.888398,113.162006" id="Fill-76" fill="#2C2F42"></path>
            <path d="M234,106.006873 L233.845382,105.770635 C233.166667,104.960827 226.389558,104.960827 221.305221,103.975437 C216.220884,102.98579 215.149598,101.976989 214.613454,102.0004 C214.072289,102.024875 213,102.538853 213,104.331922 C213,104.87676 213.018072,106.272907 213.080321,108 L231.730924,107.479637 L234,106.006873" id="Fill-77" fill="#2C2F42"></path>
            <path d="M213.153012,104 C213.056634,104.262086 213,104.585031 213,104.968834 C213,106.630675 213.203685,116.956074 214.512239,118.227239 C215.814832,119.497423 215.832716,119.580859 215.832716,119.580859 L235,124 C235,124 233.713305,120.962945 233.001897,117.936687 C232.286514,114.916319 231.536356,107.872393 231.536356,107.872393 C231.536356,107.872393 231.028633,107.955828 225.619547,107.12638 C220.214434,106.295951 213.15798,104 213.153012,104" id="Fill-78" fill="#353D4F"></path>
            <path d="M213,108 C213.010889,108.194478 213.016828,108.393994 213.021778,108.60661 C215.944931,109.619307 219.743149,110.815397 222.790039,111.352479 C226.46551,112.004434 229.932114,112.627166 232,113 L231.921798,112.411528 C229.820256,112.033656 226.403147,111.421 222.885068,110.797259 C219.799573,110.248085 215.927113,109.017735 213,108" id="Fill-79" fill="#FFFFFE"></path>
            <path d="M236.136533,40.6926057 C237.269353,42.0808524 238.797856,43.3996867 238.881211,45.1806089 C238.916361,45.9411698 238.675335,46.7394116 238.966574,47.443451 C239.645463,49.0825737 242.521701,48.8693787 243.146359,50.5303167 C243.549072,51.6042246 242.745654,52.9637148 243.433581,53.8878904 C243.677619,54.21512 244.066273,54.4064997 244.450909,54.5522656 C247.543066,55.7253341 251.381398,54.5195427 253.218213,51.7975876 C253.779602,50.9656312 254.184324,49.9998081 254.962635,49.3612146 C256.395733,48.1841798 258.639279,48.4677787 260.110539,47.3403241 C261.668167,46.1454404 261.843914,43.7834378 263.327226,42.5003012 C264.25417,41.7000761 265.594874,41.414494 266.375194,40.473461 C267.552202,39.0524914 266.887374,36.8937678 265.853977,35.367688 C264.82058,33.8416083 263.426649,32.419647 263.186627,30.5990607 C262.924512,28.6118847 263.932802,26.0823009 262.293829,24.900308 C261.455261,24.2954291 260.271223,24.4154133 259.359343,23.9245689 C257.998553,23.191773 257.676181,21.3969684 256.615669,20.2804214 C255.307101,18.9030823 253.110756,18.7999555 251.244817,19.2134546 C249.379882,19.6269538 247.602318,20.4559354 245.697212,20.6145922 C244.410739,20.7216855 243.013795,20.5431966 241.924158,21.2254207 C239.22166,22.9180901 240.769244,28.1825198 237.798605,29.3575715 C236.997195,29.674885 236.057195,29.5568841 235.286918,29.9446015 C234.207324,30.4870093 233.817666,31.8891385 234.077773,33.0582405 C234.555807,35.2030817 234.702431,38.9374652 236.136533,40.6926057" id="Fill-80" fill="#E05960"></path>
        </g>
    </g>
</svg>