<svg xmlns="http://www.w3.org/2000/svg" xmlns:xlink="http://www.w3.org/1999/xlink" viewBox="0 0 566.25 291.45"><defs><style>.cls-1{fill:none;}.cls-2{clip-path:url(#clip-path);}.cls-3{fill:#ddd;}.cls-4{opacity:0.8;font-size:38.47px;fill:#515151;font-family:MyriadPro-Regular, Myriad Pro;}.cls-5{fill:#1d1d1b;opacity:0.5;}.cls-6{fill:#e0e0e0;}.cls-7{letter-spacing:0.02em;}.cls-8{letter-spacing:-0.01em;}.cls-9{letter-spacing:0em;}</style><clipPath id="clip-path" transform="translate(0 -20.37)"><rect class="cls-1" x="16.08" width="515.09" height="326.66"/></clipPath></defs><title>keywords_maskAsset 10</title><g id="Layer_2" data-name="Layer 2"><g id="Layer_1-2" data-name="Layer 1"><g class="cls-2"><rect class="cls-3" x="144.23" width="295.8" height="85.4" rx="42.69"/><text class="cls-4" transform="translate(175.68 52.78)">challenge</text><circle class="cls-5" cx="386.08" cy="42.7" r="21.55"/><rect class="cls-6" x="384" y="50.42" width="4.15" height="25.3" transform="translate(614.48 360.3) rotate(-135)"/><rect class="cls-6" x="384" y="50.42" width="4.15" height="25.3" transform="translate(68.48 271.1) rotate(-45)"/><rect class="cls-3" x="54.38" y="103.03" width="242.6" height="85.4" rx="42.69"/><text class="cls-4" transform="translate(85.83 155.8)">sala<tspan class="cls-7" x="61.4" y="0">r</tspan><tspan x="74.94" y="0">y</tspan></text><circle class="cls-5" cx="252.08" cy="145.72" r="21.55"/><rect class="cls-6" x="250" y="153.44" width="4.15" height="25.3" transform="translate(312.88 441.42) rotate(-135)"/><rect class="cls-6" x="250" y="153.44" width="4.15" height="25.3" transform="translate(-43.62 206.52) rotate(-45)"/><rect class="cls-3" x="323.65" y="103.03" width="242.6" height="85.4" rx="42.69"/><text class="cls-4" transform="translate(355.11 155.8)">fitness</text><circle class="cls-5" cx="521.35" cy="145.72" r="21.55"/><rect class="cls-6" x="519.28" y="153.44" width="4.15" height="25.3" transform="translate(772.56 631.82) rotate(-135)"/><rect class="cls-6" x="519.28" y="153.44" width="4.15" height="25.3" transform="translate(35.25 396.93) rotate(-45)"/><rect class="cls-3" x="273.14" y="206.05" width="242.6" height="85.4" rx="42.69"/><text class="cls-4" transform="translate(304.6 258.83)"><tspan class="cls-8">r</tspan><tspan x="12.2" y="0">elaxing</tspan></text><circle class="cls-5" cx="470.84" cy="248.75" r="21.55"/><rect class="cls-6" x="468.77" y="256.47" width="4.15" height="25.3" transform="translate(613.48 771.98) rotate(-135)"/><rect class="cls-6" x="468.77" y="256.47" width="4.15" height="25.3" transform="translate(-52.39 391.39) rotate(-45)"/><rect class="cls-3" y="206.05" width="242.6" height="85.4" rx="42.69"/><text class="cls-4" transform="translate(22.62 258.83)">f<tspan class="cls-9" x="11.23" y="0">r</tspan><tspan x="23.97" y="0">iends</tspan></text><circle class="cls-5" cx="188.87" cy="248.75" r="21.55"/><rect class="cls-6" x="186.79" y="256.47" width="4.15" height="25.3" transform="translate(132.12 572.6) rotate(-135)"/><rect class="cls-6" x="186.79" y="256.47" width="4.15" height="25.3" transform="translate(-134.98 192) rotate(-45)"/><text y="-20.37"/></g></g></g></svg>