<svg xmlns="http://www.w3.org/2000/svg" viewBox="0 0 2635.13 1434.98"><defs><style>.cls-1{fill:#cceaff;}.cls-1,.cls-3{opacity:0.25;}.cls-16,.cls-2{fill:#3babfd;}.cls-2{opacity:0.5;}.cls-13,.cls-3{fill:#06cdf4;}.cls-4{fill:#b2ddff;opacity:0.31;}.cls-5{fill:#c5dadd;}.cls-6{fill:#299cd6;}.cls-7{fill:#76cbff;}.cls-8{fill:#3ab3ef;}.cls-9{fill:#f1a34f;}.cls-10{fill:#ffb973;}.cls-11{fill:#d86713;}.cls-12{fill:#cfe1e5;}.cls-14{fill:#c65447;}.cls-15{fill:#ffb27d;}.cls-17{fill:#b5453c;}.cls-18{fill:#5153a0;}.cls-19{fill:#f2a672;}.cls-20{fill:#abbfdb;}.cls-21{fill:#e8945b;}.cls-22{fill:#2691d3;}.cls-23{fill:#e9f3fe;}.cls-24{fill:#2e3552;}.cls-25{fill:#2a96d8;}</style></defs><title>learn_blueAsset 3</title><g id="Layer_2" data-name="Layer 2"><g id="_Layer_" data-name="&lt;Layer&gt;"><path class="cls-1" d="M2493.1,1427.42c-.08.59-.19,1.19-.29,1.78l-537.8-1.93-860.47-3.09-378.92-1.35-81.67-.3L90.42,1420.6s-2.67-5.15-7.08-14.75c-2.28-4.94-5-11.1-8.11-18.33a953.77,953.77,0,0,1-34.43-95.09C32.31,1264.57,24,1233,17.18,1198.72c-.39-2-.79-4-1.17-6q-3.21-16.58-5.92-34c-.66-4.28-1.3-8.65-1.92-13Q7,1137,5.89,1128.05,3.52,1108.28,2,1087.72A759.66,759.66,0,0,1,3.72,956.85c.87-8.63,1.92-17.33,3.14-26.05a647.42,647.42,0,0,1,19.56-91.32A604.28,604.28,0,0,1,67.31,735.76a620.07,620.07,0,0,1,90.94-132.92c65.46-73.49,129-123,189.75-155.32q12.67-6.76,25.17-12.53c89.8-41.54,173.19-47,247.39-39.58q6.74.66,13.39,1.47c7.47.9,14.85,1.93,22.12,3,4.9.75,9.75,1.55,14.54,2.37C753,416.52,821.72,441,872.2,437.43c114.11-8.17,163-225.74,414.44-349.59a732.26,732.26,0,0,1,119.28-46q22.55-6.59,46.79-12.17A1141.16,1141.16,0,0,1,1577.47,8.45q22-2.56,44.4-4.3,25.47-2,51.24-2.91c33.81-1.18,67.81-.93,101.47,1,49.21,2.69,97.68,8.82,143.77,18.86Q1937,25.12,1955,30C2161,86.1,2306.63,227.77,2228.83,502q-1.48,5.22-3.08,10.49c-11.86,39.47-28.28,81.63-49.76,126.6q-12.73,26.7-27.86,54.74c-186.26,344.88,300.11,244.27,349.43,582.67C2503.79,1319.19,2503.06,1368.91,2493.1,1427.42Z"/><path class="cls-2" d="M2228.83,501.41a37.49,37.49,0,0,1-18.93-4.13c-30.13-15.21-52-37.07-69.57-59.82-2.31-32.73,4.09-74,4.09-74-4,10.42-19.88,24.78-31.43,34.25-24.5-38.24-43.19-68.9-77.66-61.13-63.93,14.4-143.45-5.24-165.86-70.59,14.3-25.27,40-41.65,40-41.65-18.77,1.83-36.42,9.23-49.59,16.35-28.31-53.72-97.35-69.07-97.35-69.07q-4.76-1.33-9.22-3c.18-38.81,10-75.43,10-75.43-27,14.11-39.72,36.95-45.62,54.45C1670,105.75,1668.25,30.6,1673.11.72c83.25-2.92,167.64,2.92,245.24,19.81q18.62,4,36.66,9C2161,85.57,2306.63,227.24,2228.83,501.41Z"/><rect class="cls-3" x="230.22" y="768.41" width="113.07" height="618.58"/><polygon class="cls-3" points="1167.44 1221.19 923.02 1221.19 923.02 700.6 840.42 700.6 840.42 1077.84 780.29 1077.84 780.29 700.6 697.69 700.6 697.69 1077.84 572.2 1077.84 572.2 947.76 407 947.76 407 1387 532.49 1387 572.2 1387 697.69 1387 780.29 1387 840.42 1387 853.7 1387 916.68 1387 923.02 1387 1167.44 1387 1237.89 1387 1280.52 1387 1280.52 768.41 1167.44 768.41 1167.44 1221.19"/><polygon class="cls-3" points="1860.24 1221.19 1860.24 700.6 1762.5 700.6 1762.5 1077.84 1717.51 1077.84 1717.51 918.52 1634.91 918.52 1634.91 1077.84 1509.42 1077.84 1509.42 947.76 1344.22 947.76 1344.22 1387 1469.71 1387 1509.42 1387 1634.91 1387 1717.51 1387 1762.5 1387 1790.92 1387 1853.9 1387 1860.24 1387 2175.11 1387 2175.11 1221.19 1860.24 1221.19"/><path class="cls-4" d="M620.56,395.41V926.15L348,447.52q12.67-6.76,25.17-12.53C463,393.45,546.36,388,620.56,395.41Z"/><polygon class="cls-4" points="793.34 428.7 1330.18 1376.76 1073.66 1376.76 697.7 700.61 703.18 408.52 793.34 428.7"/><path class="cls-5" d="M2493.1,1427.42H2284.49V1208.28h170.63l42.44,68.17C2503.79,1319.19,2503.06,1368.91,2493.1,1427.42Z"/><path class="cls-4" d="M1909.17,568.3V902.88l-513.59-861q22.55-6.59,46.79-12.17A1141.16,1141.16,0,0,1,1567.13,8.45Z"/><path class="cls-2" d="M572,1314c-4.23,63.06-67.68,91.3-67.68,91.3H83.34c-2.28-4.95-5-11.1-8.11-18.33-35.7-83.8-117-314.49-48.81-548,25.87,11.77,58.66,29.72,89.65,55.27C88.63,918,68,951.88,68,951.88c33.12-21.74,60.09-28,78.93-28.71,24,25.79,44.71,57.25,57.08,95.19,48.64,149.35,145.92,133.9,232.64,158.55q7.08,2,13.86,4.24c-26.79,20.57-55,54.14-55,54.14,53.95-24.54,93.28-27.25,116.79-25.19,15.4,10.12,28.15,21.57,37.88,34.18-30.84-5.53-79.67.87-90.87,1.82,36.89-2.76,89,18.46,107.24,27.7A99,99,0,0,1,572,1314Z"/><path class="cls-5" d="M1955,29.5q-18-4.93-36.66-9V1387H670.61V401.77c-11.93-2.06-24.15-3.91-36.66-5.43V1387H75.23c9.07,21.26,16.84,36.66,16.84,36.66H1955Z"/><path class="cls-6" d="M2505.06,1003.67s-72.8,54.13-87,50.85,53.21-58.44,53.21-58.44c-25.36-12.19-104.2-4.55-104.2-4.55s-26.26,84.69-39.21,78,27.08-73.8,27.08-73.8C2326.69,994,2292,1015,2292,1015c-47.43,37.46,3.12,96.43,3.12,96.43s-9.74,29.15-39.69,55.7c0,0-42.77,31.63-45.75,88.16l7.77.69s12.31-52.65,34.68-77.55c.87-.9,2.12-2.19,3.68-3.75,3.65-3.39,6.21-5.93,7.93-7.81,11.13-10.7,26.51-24.32,33.92-25.64a14.41,14.41,0,0,1-.32-3.72c.1,1.19.21,2.42.32,3.72,2.53,29.81,60.36,55.84,95.93,61.19s24.57-9.27,12.32-31-51-31.38-59.9-41.37,9.45-10,30.88-.22,24.37,35.89,58.75,52.36,86.11-40.59,86.11-40.59c-27.4-1.39-66.53-31.15-65.11-40.25s66.42,15.71,77.53,16.9,36.4-12.63,40.31-57.39S2505.06,1003.67,2505.06,1003.67Z"/><path class="cls-7" d="M2118.43,1037.28s80.41-45,42.89-106.14c0,0-30-37.52-62.19-47.17,0,0,17.16,91.13,0,93.27s-11.79-102.92-11.79-102.92-84.69-40.74-117.93-37.52c0,0,52.54,89,35.38,86.84s-76.12-92.2-76.12-92.2-86.83-16.08-100.77,35.38,8.58,77.19,21.44,80.4,95.42,2.15,93.27,12.87-57.89,27.87-89,18.22c0,0,34.31,84.7,79.33,80.41s59-32.16,86.84-34.31,48.24,5.36,34.31,12.87-61.11,2.46-83.62,21.6-40.74,30.93,1.07,39.51,116.85,3.21,131.86-29Z"/><path class="cls-8" d="M2139.87,1115.54c-22.51-41.81-21.44-78.26-21.44-78.26C2092.7,955.8,1867.57,882.9,1867.57,882.9c286.24,115.78,235.85,186.54,235.85,186.54,7.72,4.5,19.28,26,27.31,42.42,1.14,2.8,2.95,6.68,5.64,11.94h0c1.09,2.38,2,4.33,2.57,5.69,14.74,36.87,6.93,100.55,6.93,100.55l8.93,2.4C2174.59,1168.26,2139.87,1115.54,2139.87,1115.54Z"/><path class="cls-7" d="M2246.35,975.18s-106-59.35-56.53-139.91c0,0,39.57-49.46,82-62.18,0,0-22.61,120.12,0,122.95s15.55-135.67,15.55-135.67,111.64-53.7,155.45-49.46c0,0-69.25,117.3-46.64,114.47s100.34-121.53,100.34-121.53,114.47-21.2,132.84,46.63-11.31,101.75-28.27,106-125.77,2.83-122.94,17,76.31,36.74,117.29,24c0,0-45.22,111.65-104.57,106s-77.73-42.39-114.47-45.22-63.6,7.07-45.23,17,80.56,3.24,110.23,28.47,53.71,40.78-1.41,52.08-154,4.24-173.82-38.15Z"/><path class="cls-8" d="M2577,771.68s-296.77,96.1-330.69,203.5c0,0,1.41,48.05-28.26,103.16,0,0-45.77,69.5-19.68,154.1l11.78-3.16s-10.3-83.94,9.13-132.55c.8-1.79,1.95-4.36,3.38-7.5,3.55-6.94,5.93-12,7.44-15.74,10.58-21.7,25.83-50,36-55.91C2266.14,1017.58,2199.72,924.3,2577,771.68Z"/><path class="cls-9" d="M2242.78,1415.9c114.66,0,207.62-93,207.62-207.61H2035.16C2035.16,1323,2128.12,1415.9,2242.78,1415.9Z"/><path class="cls-10" d="M2293.87,1414.31a207.1,207.1,0,0,1-25.8,1.59c-114.66,0-207.6-93-207.6-207.62H2112C2112,1314.22,2191.38,1401.61,2293.87,1414.31Z"/><path class="cls-9" d="M2427.65,1400.85H2057.91a25.61,25.61,0,0,0-25.61,25.62h421A25.61,25.61,0,0,0,2427.65,1400.85Z"/><rect class="cls-11" x="2028.34" y="1208.28" width="426.78" height="6.37"/><path class="cls-7" d="M5.89,1127.51q1.07,9,2.28,17.71c8.72-6.65,16.33-11.76,16.33-11.76A59.41,59.41,0,0,0,5.89,1127.51Z"/><path class="cls-7" d="M121.45,1185.87s-65.22,13-73.58,6.36,53.58-22,53.58-22c-13-16-67.59-35.75-67.59-35.75s-11.6,12.62-23.77,23.76q2.72,17.37,5.92,34c.38,2,.78,4,1.17,6C24,1232.5,32.31,1264,40.8,1291.89c21.65,1.68,48.39-9.36,48.39-9.36C71.48,1273,54.92,1241,58.71,1235.42s39.06,31.26,46.05,35.55,28.07,3.06,44.73-25.37S121.45,1185.87,121.45,1185.87Z"/><path class="cls-7" d="M340.3,875.86c-19,4.75-140.76,3.17-137.6,19S288.12,936,334,921.72c0,0-50.6,124.94-117,118.63S130,992.9,88.83,989.73s-71.17,7.91-50.61,19,90.16,3.63,123.36,31.86,60.1,45.64-1.58,58.29c-44.36,9.1-114.07,7.57-158-11.66A759.76,759.76,0,0,1,3.72,956.32q1.3-13,3.14-26A647.12,647.12,0,0,1,26.42,839,603.32,603.32,0,0,1,67.31,735.24c35-13,73.39-24.45,95.85-22.28,0,0-77.49,131.27-52.18,128.11s112.29-136,112.29-136,128.1-23.72,148.66,52.2S359.28,871.12,340.3,875.86Z"/><path class="cls-8" d="M313,781.09c-174.66,70.7-264.26,130-309.31,175.23q1.3-13,3.14-26C111.63,847.58,303.33,784.26,313,781.09Z"/><path class="cls-12" d="M460.19,1243.26l.5,0Z"/><path class="cls-12" d="M461.17,1243.18l1.29-.12Z"/><path class="cls-13" d="M1919.52,1423.66H482.69a11.75,11.75,0,0,1,11.75-11.82H1907.7a11.82,11.82,0,0,1,11.82,11.82Z"/><g id="girl_2" data-name="girl 2"><path class="cls-14" d="M1485.76,928.76c19-99.08-47.44-132-50.49-156s-5.1-77.94-44.85-115.66c-38.58-36.6,9.85-191.34-126-176.14a29.59,29.59,0,0,1,11.3-5.3c-10.47-.24-16.55,3.61-19.57,6.41-1.5.23-3,.47-4.55.74,0,0-29.49-16.32-70.2,11.21s-44.78,109.53-35.6,145-43.51,64-49.28,90.49,17.68,35.67-7.8,60.13-68.09,66.24-56.09,125.87c4,20.12,18.15,71.56,55.43,115.68-2.72,6.29-5.14,18.2,3.07,35.24,4.25,8.8,5.87,15.59,6.13,20.74,8-5.47,17.49-14.06,19.14-24.86,0,0,10.06,19.24,8,36.72-1,9,13.73,32.84,42.61,28.08,5.94-1,179.94-30.88,211.62-45a27.62,27.62,0,0,0,.72,2.82c8.11,25.24,26.41,14,31.37,10.35,14.1-10.35,7.57-22.56,31.59-29.26,10.83-3,17.79-24.53,20.22-34.56C1514.33,968.2,1481.58,950.54,1485.76,928.76Z"/><path class="cls-15" d="M1801,965.69c-18.32-9.56-26.3,11-33.25,14.16s-27.22-1.26-35.9,12c-5.94,9.06-16.7,16.62-16.7,16.62h0c-56.06,32.61-136.07,56.25-151.36,57.07-4.22.23-15.59-17.8-30.2-44.41-38.25-69.71-98.73-198.38-111.45-212.76-5.24-5.93-15.72-11.35-27.85-16l0-.07-.41-.1c-28.33-10.93-65.4-17.91-66-18h0A29.31,29.31,0,0,1,1307,747.88c-1.44-22.51-.09-48.4-.09-48.4l-84.18,1.89c2.41,17.16.7,36.8-1.43,52.81a23.31,23.31,0,0,1-17.45,19.51c-.21,0-45,8.84-73.53,21.92-8.55,3.92-15.66,8.21-19.7,12.79-11.46,13-61.78,118.88-99.6,190.68h0c-20.14,38.23-36.73,66.77-42,66.48-15.29-.82-95.31-24.46-151.36-57.07h0s-10.77-7.55-16.7-16.64c-8.7-13.27-28.94-8.85-35.9-12s-14.94-23.72-33.27-14.16c-6.59,3.44,5.09,31.6,5.09,31.6,11.29,26.5,35.55,25.88,46,24.46,2-.27,4.91,1,8,2.91A102.39,102.39,0,0,1,804,1035s78.21,77.9,139.76,101a7.63,7.63,0,0,0,.72.26l1.68.61c10.52,3.74,20.5,5.81,29.46,5.5.48,0,.94,0,1.39-.06.92-.06,1.84-.14,2.73-.24,29.32-3.55,64.38-35.23,97.13-74.12,4-4.71,7.9-9.54,11.78-14.44,17.59-22.08,34.17-45.58,48.45-67,10.46,61.11,28.46,135,33,153.48.19,1.76.38,3.52.56,5.28-22.4,36.67-54.33,89.84-54.33,89.84s323.95,14.52,320.89,0-45.86-87.15-48.92-96.33c-2.47-7.4,10.55-70.17,23.28-128.78,12.91,18.42,27.06,37.4,41.71,55,2.69,3.24,5.42,6.44,8.14,9.59,31.09,35.82,63.83,64.15,91.47,67.5,60.85,7.34,175.72-107.09,175.72-107.09l-.47-.92.47.92s4.16-3.85,9-7.41a39.74,39.74,0,0,1,9.08-5.32,1.58,1.58,0,0,1,.26-.09h0a6.66,6.66,0,0,1,2.89-.42c10.43,1.42,34.69,2,46-24.46C1795.91,997.29,1807.59,969.13,1801,965.69Z"/><path class="cls-16" d="M1544.6,1310.73c-77.67,65.1-189,100.5-189,100.5s-89.64,1.72-191.31,0c-98.74-1.66-195.3-123.34-195.3-123.34s82.33-1.09,104.92-20.31c15.74-13.39,34.75-35.67,53.22-59.87,13.28-17.38,26.28-35.76,37.6-52.56,0,0,23.32,22.84,118.1,20.39s117.85-13,117.85-13,11.18,13.74,25.95,31.12c17.81,21,40.8,47.23,55.62,61.14C1488.73,1260.93,1544.6,1310.73,1544.6,1310.73Z"/><path class="cls-16" d="M1211.88,521.35s41.53-41.11,90.25,1.1C1302.13,522.45,1273.11,516.34,1211.88,521.35Z"/><path class="cls-17" d="M1267.8,568.32s35.69-.65,43.8,11.3,9.2,25.31,13.29,32a26,26,0,0,1,3.39,14.28s30.72-78.64-40.2-63C1283,564.1,1267.8,568.32,1267.8,568.32Z"/><path class="cls-18" d="M825.3,1050.43c.37-.12.77-.24,1.16-.34C826.26,1050.16,825.86,1050.29,825.3,1050.43Z"/><path class="cls-16" d="M1544.6,1310.73c-77.67,65.1-189,100.5-189,100.5s-89.64,1.72-191.31,0c-98.74-1.66-195.3-123.34-195.3-123.34s82.33-1.09,104.92-20.31c15.74-13.39,34.75-35.67,53.22-59.87,4.23,2.68,93.47,58.67,146.33,55.92,53.72-2.79,151.63-68.92,153.17-70,17.81,21,40.8,47.23,55.62,61.14C1488.73,1260.93,1544.6,1310.73,1544.6,1310.73Z"/><path class="cls-19" d="M1555.3,1302.14c-23.65,20.47-93.76,43-159.84,60.79-18.53,5-36.76,9.6-53.54,13.71-15.16,4.72-45.9,14.48-78.85,25.95-46.49,16.19-66.83,8.45-89.87,4.38s-49,12-83.17-.42-25.5-79.69-25.5-79.69c11.56-7.58,56.49-9.77,86.92,12.08s71.18,17.76,71.18,17.76c1.56.17,5.28-1.69,10.35-4.87,0,0,29.59-17.31,84.12-60.73,17.54-14,37.67-30.66,60.24-50.33,43-37.52,80.13-86.87,123-96,73.05-15.5,99,12.87,99,12.87S1617.39,1248.43,1555.3,1302.14Z"/><path class="cls-20" d="M1395.46,1362.93c-18.53,5-36.76,9.6-53.54,13.71-15.16,4.72-45.9,14.48-78.85,25.95-46.49,16.19-66.83,8.45-89.87,4.38s-49,12-83.17-.42-25.5-79.69-25.5-79.69c11.56-7.58,56.49-9.77,86.92,12.08s71.18,17.76,71.18,17.76c1.56.17,5.28-1.69,10.35-4.87,0,0,29.59-17.31,84.12-60.73,10.37,20.33,31.27,49.23,71.28,68A68.58,68.58,0,0,1,1395.46,1362.93Z"/><path class="cls-15" d="M1442.33,1342.94s-1.54,58.53-23,65.5c-29.51,9.57-52.7-5.76-77.06-1.3s-44.12,10.83-93.2-6.33c-32.58-11.39-63.14-21.17-80-26.48-8.25-2.21-16.81-4.55-25.53-7-65.21-18.39-139.4-43-163.13-65.17-57.41-53.71-35.41-149-35.41-149s18.68-23.82,86.24-8.32c39.65,9.1,80.59,48.39,120.21,85.69,16.43,15.48,32,29.8,46.29,42.72,49.77,45,83.86,72.93,83.86,72.93l-.15.29c5.18,3.26,9,5.14,10.58,5,0,0,25.93,10.29,71-4.86C1394.42,1336,1430.17,1334.87,1442.33,1342.94Z"/><path class="cls-21" d="M1223.87,719.52s16.61,38.54,43.93,36.25,38.54-37.11,38.54-37.11Z"/><path class="cls-14" d="M1196.07,673a355.85,355.85,0,0,1-21-58.82c-5.71-22.59-.17-108.23,85.93-102.16a116,116,0,0,1,49.33,14.69c19.4,11.16,48,36.22,23.53,112.37l-6,25.56Z"/><path class="cls-15" d="M1316.44,709.29c-22.29,21.19-50,49.43-109.37-3.12-11.62-10.28-15.69-31.31-16.31-53.94-.73-26.79-2.22-37.94.82-53.37,3.6-18.46,19.42-26.76,52.22-29.52,60.21-5.05,85,8.35,86.46,38.46C1333.34,673,1339.11,687.74,1316.44,709.29Z"/><path class="cls-14" d="M1223.87,543.25c-34.56.76-52.59,86.38-36.54,82.7s47.78-43.71,47.78-43.71c-2.68,20.64-26.38,39.75-26.38,39.75,36.7-13.76,52.75-53.69,52.75-53.69S1258.42,542.48,1223.87,543.25Z"/><path class="cls-14" d="M1326.46,564.65c-16.82-11.46-65,3.65-65,3.65s16.82.18,23.7,12.41,29.26,47.1,48.65,58.33C1333.83,639,1343.28,576.12,1326.46,564.65Z"/><path class="cls-19" d="M1279.5,1130c-2.76,0-5,4-5,9s2.23,9.05,5,9.05,5-4.05,5-9.05S1282.25,1130,1279.5,1130Z"/><path class="cls-19" d="M1737.7,1027.58c-4.84,3.56-9,7.41-9,7.41S1613.83,1149.42,1553,1142.08c-27.64-3.35-60.38-31.68-91.47-67.5-2.72-3.15-5.45-6.35-8.14-9.59l8.4-14.71,43,4.7s37.52,33,50.76,56.46c10.66,18.85,126-50,172.39-78Z"/><path class="cls-19" d="M1795.91,997.29c-11.27,26.5-35.53,25.88-46,24.46a6.66,6.66,0,0,0-2.89.42h0a1.58,1.58,0,0,0-.26.09s-5.23-13,25.35-21.41S1801,965.69,1801,965.69C1807.59,969.13,1795.91,997.29,1795.91,997.29Z"/><path class="cls-19" d="M1088.68,1053.52c-3.88,4.9-7.81,9.73-11.78,14.44-32.75,38.89-67.81,70.57-97.13,74.12-.89.1-1.81.18-2.73.24-.45,0-.91,0-1.39.06-8.71.25-18.71-1.8-29.46-5.5l-1.68-.61a7.63,7.63,0,0,1-.72-.26C882.24,1112.89,804,1035,804,1035a102.39,102.39,0,0,0-13.27-10.33c4.38,2.11,9.35,4.62,14.76,7.43,54.58,28.27,155.55,86.76,175.15,72.33,27.52-20.29,64.21-69.43,64.21-69.43Z"/><path class="cls-19" d="M790.76,1024.66c-3.07-1.88-6-3.18-8-2.91-10.41,1.42-34.67,2-46-24.46,0,0-11.68-28.16-5.09-31.6,0,0,1.78,28.07,22.16,33.39C773.78,1004.29,790,1023.73,790.76,1024.66Z"/><path class="cls-16" d="M1422.14,808.4c-5.24-5.93-15.73-11.35-27.86-16.06a.18.18,0,0,1,0-.06s-41.82,50.33-129.17,51.1-133.91-48.16-133.91-48.16l0,1.6-.85-1.21c-8.55,3.92-15.66,8.21-19.7,12.79-11.46,13-61.78,118.88-99.6,190.68h0c.1.82,3.44,25.57,25.73,46.42v0c9.52,8.91,22.5,17.1,40.18,22.43,20.84-24.73,40.71-52.38,57.61-77.56l1.92-2.89,1.73,8.13,18,84.88c41,13.09,77,19.3,107.89,21.35q6.56.44,12.8.62h0c78.5,2.48,120-22,120-22s8.7-34,15.89-67.79c.06-.32.13-.63.2-1a789.23,789.23,0,0,0,48.57,62.8,108.9,108.9,0,0,0,43.26-19.6,105.2,105.2,0,0,0,28.82-33.82C1495.34,951.45,1434.86,822.78,1422.14,808.4Z"/><path class="cls-22" d="M1036.72,1045.51v0c9.52,8.91,22.5,17.1,40.18,22.43,20.84-24.73,40.71-52.38,57.61-77.56C1118.13,988.61,1036.72,1045.51,1036.72,1045.51Z"/><path class="cls-22" d="M1412.74,1011.49a789.73,789.73,0,0,0,48.77,63.09,108.9,108.9,0,0,0,43.26-19.6S1430.78,1011.1,1412.74,1011.49Z"/><path class="cls-22" d="M1138.16,995.64l18,84.88c41,13.09,77,19.3,107.89,21.35C1210.87,1093.46,1153,1016.57,1138.16,995.64Z"/><path class="cls-22" d="M1276.86,1102.49c78.5,2.48,120-22,120-22s8.7-34,15.89-67.79v-1.24S1341.49,1098.14,1276.86,1102.49Z"/><path class="cls-23" d="M1442.33,1342.94s-1.54,58.53-23,65.5c-29.51,9.57-52.7-5.76-77.06-1.3s-44.12,10.83-93.2-6.33c-32.58-11.39-63.14-21.17-80-26.48-8.25-2.21-16.81-4.55-25.53-7,12.69-10.58,44.35-41.57,54.2-94.1,49.77,45,83.86,72.93,83.86,72.93l-.15.29c5.18,3.26,9,5.14,10.58,5,0,0,25.93,10.29,71-4.86C1394.42,1336,1430.17,1334.87,1442.33,1342.94Z"/></g><rect class="cls-24" y="1423.66" width="2591.56" height="11.33" rx="3.77"/><path class="cls-25" d="M1407.79,847.94c5-22.51-22.77-37.71-39.11-21.44-20.84,20.77-55.89,44.22-110.31,49.24-101.89,9.4-23.27,44.41-7.59,56s28.84,28.2,58.92,15.69,53.58-42.6,73.32-52.94C1392.5,889.58,1403,869.34,1407.79,847.94Z"/></g></g></svg>