<svg id="_Layer_" data-name="&lt;Layer&gt;" xmlns="http://www.w3.org/2000/svg" viewBox="0 0 2635.13 1434.98"><defs><style>.cls-1{fill:#e5f2f3;}.cls-2{fill:#c1e0e4;}.cls-3{fill:#e1eef0;}.cls-4{fill:#eff;}.cls-5{fill:#e7f7f7;}.cls-6{fill:#c5dadd;}.cls-7{fill:#c7dfe2;}.cls-8{fill:#599dad;}.cls-9{fill:#79c8cc;}.cls-10{fill:#6bb7bf;}.cls-11{fill:#f1a34f;}.cls-12{fill:#ffb973;}.cls-13{fill:#d86713;}.cls-14{fill:#cfe1e5;}.cls-15{fill:#59b5b5;}.cls-16{fill:#c65447;}.cls-17{fill:#ffb27d;}.cls-18{fill:#63c1c6;}.cls-19{fill:#b5453c;}.cls-20{fill:#5153a0;}.cls-21{fill:#f2a672;}.cls-22{fill:#abbfdb;}.cls-23{fill:#e8945b;}.cls-24{fill:#e9f3fe;}.cls-25{fill:#2e3552;}</style></defs><title>learm</title><path class="cls-1" d="M2651.24,1598.69c-.08.59-.19,1.18-.29,1.78l-537.79-1.94-860.47-3.08-378.93-1.36-81.67-.29-543.53-1.93s-2.66-5.15-7.08-14.75c-2.28-4.94-5-11.1-8.1-18.33a953.39,953.39,0,0,1-34.44-95.09c-8.48-27.87-16.76-59.39-23.61-93.71-.4-2-.79-4-1.17-6q-3.22-16.59-5.93-34c-.66-4.29-1.29-8.66-1.91-13q-1.23-8.76-2.29-17.69-2.37-19.78-3.85-40.33a759.76,759.76,0,0,1,1.68-130.88c.87-8.63,1.92-17.33,3.14-26a647.85,647.85,0,0,1,19.56-91.33A604.6,604.6,0,0,1,225.45,907,620,620,0,0,1,316.4,774.1c65.45-73.49,129-123,189.74-155.31q12.68-6.76,25.17-12.54c89.8-41.53,173.19-47,247.39-39.57,4.5.43,9,.93,13.39,1.46q11.2,1.35,22.12,3.05c4.9.74,9.75,1.55,14.54,2.37,82.4,14.22,151.11,38.74,201.59,35.13,114.11-8.16,163-225.74,414.45-349.58a731.78,731.78,0,0,1,119.27-46q22.55-6.57,46.8-12.16a1142.94,1142.94,0,0,1,124.75-21.27q22-2.55,44.4-4.3,25.47-2,51.24-2.9c33.82-1.19,67.81-.93,101.47.94,49.21,2.7,97.68,8.83,143.78,18.87q18.61,4.06,36.66,9c206,56.07,351.61,197.75,273.81,471.93q-1.48,5.22-3.08,10.49c-11.85,39.46-28.28,81.62-49.76,126.6q-12.74,26.7-27.86,54.74c-186.26,344.87,300.11,244.27,349.43,582.67C2661.93,1490.46,2661.2,1540.17,2651.24,1598.69Z" transform="translate(-158.14 -171.27)"/><path class="cls-2" d="M2387,672.68a37.59,37.59,0,0,1-18.93-4.13c-30.13-15.21-52-37.07-69.57-59.83-2.31-32.72,4.09-74,4.09-74-4,10.42-19.88,24.78-31.43,34.25-24.5-38.24-43.18-68.91-77.66-61.14-63.93,14.41-143.45-5.23-165.86-70.58,14.3-25.27,40-41.65,40-41.65-18.77,1.83-36.42,9.23-49.59,16.35-28.31-53.72-97.35-69.08-97.35-69.08q-4.76-1.32-9.22-3c.19-38.82,10-75.44,10-75.44-27.06,14.12-39.72,37-45.63,54.46-47.66-41.89-49.38-117-44.52-146.92,83.25-2.92,167.64,2.91,245.25,19.81q18.61,4,36.66,9C2319.15,256.84,2464.77,398.5,2387,672.68Z" transform="translate(-158.14 -171.27)"/><rect class="cls-3" x="230.22" y="768.41" width="113.07" height="618.58"/><polygon class="cls-3" points="1167.44 1221.19 923.02 1221.19 923.02 700.6 840.42 700.6 840.42 1077.84 780.29 1077.84 780.29 700.6 697.69 700.6 697.69 1077.84 572.2 1077.84 572.2 947.76 407 947.76 407 1387 532.49 1387 572.2 1387 697.69 1387 780.29 1387 840.42 1387 853.7 1387 916.68 1387 923.02 1387 1167.44 1387 1237.89 1387 1280.52 1387 1280.52 768.41 1167.44 768.41 1167.44 1221.19"/><polygon class="cls-3" points="1860.24 1221.19 1860.24 700.6 1762.5 700.6 1762.5 1077.84 1717.51 1077.84 1717.51 918.52 1634.91 918.52 1634.91 1077.84 1509.42 1077.84 1509.42 947.76 1344.22 947.76 1344.22 1387 1469.71 1387 1509.42 1387 1634.91 1387 1717.51 1387 1762.5 1387 1790.92 1387 1853.9 1387 1860.24 1387 2175.11 1387 2175.11 1221.19 1860.24 1221.19"/><path class="cls-4" d="M778.7,566.68v530.74L506.14,618.79q12.68-6.76,25.17-12.54C621.11,564.72,704.5,559.29,778.7,566.68Z" transform="translate(-158.14 -171.27)"/><polygon class="cls-5" points="793.34 428.7 1330.18 1376.76 1073.66 1376.76 697.7 700.61 703.18 408.52 793.34 428.7"/><path class="cls-6" d="M2651.24,1598.69H2442.63V1379.55h170.63l42.44,68.17C2661.93,1490.46,2661.2,1540.17,2651.24,1598.69Z" transform="translate(-158.14 -171.27)"/><path class="cls-4" d="M2067.31,739.57v334.58l-513.59-861q22.54-6.57,46.8-12.16a1142.94,1142.94,0,0,1,124.75-21.27Z" transform="translate(-158.14 -171.27)"/><path class="cls-7" d="M730.11,1485.3c-4.23,63-67.68,91.29-67.68,91.29H241.48c-2.28-4.94-5-11.09-8.1-18.33-35.71-83.79-117-314.48-48.82-548,25.88,11.78,58.66,29.73,89.65,55.27-27.44,23.78-48.11,57.66-48.11,57.66,33.12-21.74,60.09-28,78.93-28.71,24,25.79,44.71,57.25,57.08,95.19C410.75,1339,508,1323.53,594.75,1348.17c4.72,1.34,9.34,2.77,13.86,4.25-26.79,20.57-55,54.14-55,54.14,53.94-24.55,93.27-27.25,116.79-25.2,15.39,10.13,28.14,21.58,37.87,34.18-30.84-5.52-79.67.87-90.87,1.83,36.89-2.76,89,18.46,107.24,27.7A98.9,98.9,0,0,1,730.11,1485.3Z" transform="translate(-158.14 -171.27)"/><path class="cls-6" d="M2113.16,200.76q-18-4.92-36.66-9V1558.26H828.75V573c-11.93-2.06-24.15-3.91-36.66-5.43v990.65H233.38c9.06,21.27,16.83,36.66,16.83,36.66h1863Z" transform="translate(-158.14 -171.27)"/><path class="cls-8" d="M2663.2,1174.93s-72.8,54.14-87,50.85,53.2-58.43,53.2-58.43c-25.36-12.2-104.2-4.55-104.2-4.55s-26.26,84.68-39.21,78,27.08-73.8,27.08-73.8c-28.25-1.7-62.9,19.27-62.9,19.27-47.43,37.46,3.12,96.43,3.12,96.43s-9.73,29.15-39.68,55.69c0,0-42.78,31.64-45.75,88.16l7.76.7s12.31-52.65,34.68-77.55c.87-.9,2.12-2.19,3.68-3.75,3.65-3.39,6.21-5.93,7.93-7.82,11.13-10.69,26.51-24.31,33.92-25.63a14.46,14.46,0,0,1-.32-3.73c.1,1.2.21,2.43.32,3.73,2.54,29.8,60.36,55.83,95.93,61.19s24.57-9.27,12.32-31-51.05-31.39-59.9-41.37,9.45-10,30.88-.22,24.37,35.89,58.75,52.36,86.12-40.59,86.12-40.59c-27.4-1.39-66.53-31.15-65.12-40.25s66.42,15.7,77.53,16.89,36.4-12.63,40.31-57.39S2663.2,1174.93,2663.2,1174.93Z" transform="translate(-158.14 -171.27)"/><path class="cls-9" d="M2276.57,1208.54s80.41-45,42.89-106.13c0,0-30-37.52-62.18-47.17,0,0,17.15,91.13,0,93.27s-11.8-102.92-11.8-102.92-84.69-40.74-117.92-37.52c0,0,52.53,89,35.37,86.83s-76.11-92.19-76.11-92.19S2000,986.62,1986,1038.08s8.58,77.19,21.44,80.41,95.42,2.14,93.27,12.87-57.89,27.87-89,18.22c0,0,34.31,84.69,79.34,80.41s59-32.17,86.83-34.31,48.25,5.36,34.31,12.86-61.11,2.46-83.62,21.6-40.74,30.94,1.07,39.51,116.86,3.22,131.86-28.94Z" transform="translate(-158.14 -171.27)"/><path class="cls-10" d="M2298,1286.81c-22.52-41.81-21.45-78.27-21.45-78.27-25.73-81.47-250.86-154.37-250.86-154.37C2312,1170,2261.56,1240.71,2261.56,1240.71c7.72,4.5,19.28,26,27.31,42.42,1.15,2.8,3,6.67,5.64,11.94h0c1.09,2.38,2,4.33,2.57,5.68,14.74,36.88,6.93,100.56,6.93,100.56l8.93,2.4C2332.74,1339.53,2298,1286.81,2298,1286.81Z" transform="translate(-158.14 -171.27)"/><path class="cls-10" d="M2404.49,1146.45s-106-59.36-56.52-139.91c0,0,39.57-49.46,82-62.18,0,0-22.61,120.12,0,122.95s15.55-135.67,15.55-135.67,111.64-53.7,155.45-49.46c0,0-69.25,117.29-46.64,114.47s100.34-121.54,100.34-121.54,114.47-21.2,132.84,46.64-11.31,101.75-28.26,106-125.78,2.82-122.95,17,76.31,36.74,117.29,24c0,0-45.22,111.64-104.57,106s-77.73-42.4-114.47-45.22-63.6,7.06-45.22,17,80.55,3.24,110.22,28.47,53.71,40.77-1.41,52.08-154,4.24-173.82-38.16Z" transform="translate(-158.14 -171.27)"/><path class="cls-8" d="M2735.18,943s-296.77,96.09-330.69,203.5c0,0,1.42,48-28.26,103.16,0,0-45.77,69.5-19.68,154.1l11.78-3.16s-10.29-83.94,9.13-132.55c.8-1.8,1.95-4.36,3.38-7.5,3.55-6.94,5.94-12,7.44-15.74,10.58-21.7,25.83-50,36-55.92C2424.28,1188.84,2357.86,1095.57,2735.18,943Z" transform="translate(-158.14 -171.27)"/><path class="cls-11" d="M2400.92,1587.17c114.67,0,207.62-93,207.62-207.62H2193.31C2193.31,1494.22,2286.26,1587.17,2400.92,1587.17Z" transform="translate(-158.14 -171.27)"/><path class="cls-12" d="M2452,1585.58a207,207,0,0,1-25.8,1.59c-114.66,0-207.6-93-207.6-207.62h51.58C2270.19,1485.48,2349.52,1572.88,2452,1585.58Z" transform="translate(-158.14 -171.27)"/><path class="cls-11" d="M2585.79,1572.12H2216.05a25.62,25.62,0,0,0-25.61,25.61h421A25.62,25.62,0,0,0,2585.79,1572.12Z" transform="translate(-158.14 -171.27)"/><rect class="cls-13" x="2028.34" y="1208.28" width="426.78" height="6.37"/><path class="cls-8" d="M164,1298.78q1.07,8.94,2.29,17.71c8.71-6.66,16.32-11.76,16.32-11.76A58.9,58.9,0,0,0,164,1298.78Z" transform="translate(-158.14 -171.27)"/><path class="cls-8" d="M279.6,1357.14s-65.23,13-73.59,6.36,53.58-22,53.58-22c-13-16-67.58-35.74-67.58-35.74s-11.61,12.62-23.78,23.76q2.72,17.36,5.93,34c.38,2,.77,4,1.17,6,6.85,34.31,15.13,65.84,23.61,93.7,21.65,1.68,48.4-9.36,48.4-9.36-17.72-9.54-34.28-41.53-30.49-47.11s39.06,31.26,46,35.54,28.07,3.06,44.73-25.36S279.6,1357.14,279.6,1357.14Z" transform="translate(-158.14 -171.27)"/><path class="cls-10" d="M498.44,1047.12c-19,4.75-140.76,3.17-137.6,19s85.42,41.13,131.27,26.89c0,0-50.6,124.94-117,118.62S288.1,1164.17,247,1161s-71.17,7.91-50.61,19,90.16,3.64,123.36,31.87,60.1,45.64-1.57,58.29c-44.36,9.09-114.07,7.57-158-11.66a759.75,759.75,0,0,1,1.68-130.88q1.3-13,3.14-26a647.25,647.25,0,0,1,19.56-91.33A604,604,0,0,1,225.45,906.5c35-13,73.39-24.45,95.85-22.28,0,0-77.49,131.28-52.18,128.12s112.29-136,112.29-136,128.1-23.71,148.66,52.2S517.42,1042.38,498.44,1047.12Z" transform="translate(-158.14 -171.27)"/><path class="cls-8" d="M471.17,952.36c-174.65,70.69-264.26,130-309.31,175.23q1.3-13,3.14-26C269.77,1018.85,461.47,955.53,471.17,952.36Z" transform="translate(-158.14 -171.27)"/><path class="cls-14" d="M618.34,1414.53a4.35,4.35,0,0,1,.49,0Z" transform="translate(-158.14 -171.27)"/><path class="cls-14" d="M619.31,1414.44l1.3-.11C620.1,1414.37,619.68,1414.42,619.31,1414.44Z" transform="translate(-158.14 -171.27)"/><path class="cls-15" d="M2077.66,1594.92H640.83a11.74,11.74,0,0,1,11.75-11.81H2065.84a11.82,11.82,0,0,1,11.82,11.81Z" transform="translate(-158.14 -171.27)"/><g id="girl_2" data-name="girl 2"><path class="cls-16" d="M1643.91,1100c19-99.09-47.45-132-50.5-155.95s-5.1-78-44.85-115.67c-38.58-36.59,9.85-191.33-126-176.13a29.42,29.42,0,0,1,11.31-5.3c-10.48-.25-16.56,3.61-19.58,6.4-1.5.23-3,.48-4.54.74,0,0-29.5-16.31-70.21,11.21s-44.78,109.53-35.6,145-43.51,64-49.28,90.48,17.68,35.67-7.8,60.14-68.09,66.24-56.09,125.87c4,20.12,18.15,71.56,55.43,115.68-2.72,6.28-5.13,18.2,3.07,35.23,4.25,8.8,5.87,15.6,6.14,20.74,8-5.47,17.48-14,19.13-24.85,0,0,10.06,19.23,8,36.72-1,9,13.73,32.84,42.61,28.07,5.94-1,179.94-30.87,211.62-44.94a27.62,27.62,0,0,0,.72,2.82c8.11,25.24,26.41,14,31.37,10.35,14.1-10.35,7.58-22.56,31.59-29.26,10.83-3,17.79-24.53,20.22-34.56C1672.47,1139.46,1639.72,1121.81,1643.91,1100Z" transform="translate(-158.14 -171.27)"/><path class="cls-17" d="M1959.14,1137c-18.32-9.56-26.3,11-33.25,14.15s-27.22-1.25-35.9,12c-5.93,9.06-16.7,16.61-16.7,16.61h0c-56.06,32.62-136.07,56.25-151.36,57.08-4.22.23-15.59-17.8-30.19-44.42-38.26-69.7-98.74-198.37-111.46-212.76-5.24-5.92-15.72-11.34-27.85-16a.26.26,0,0,1,0-.07l-.41-.09c-28.33-10.94-65.39-17.91-66-18h0a29.29,29.29,0,0,1-20.9-26.28c-1.44-22.51-.1-48.41-.1-48.41l-84.18,1.89c2.41,17.16.71,36.81-1.43,52.82A23.33,23.33,0,0,1,1362,945c-.21,0-45,8.83-73.53,21.92-8.55,3.91-15.66,8.21-19.69,12.78-11.47,13-61.79,118.89-99.61,190.69h0c-20.14,38.22-36.73,66.77-42,66.48-15.29-.83-95.31-24.46-151.36-57.08h0s-10.77-7.55-16.7-16.63c-8.7-13.27-28.94-8.85-35.9-12s-14.93-23.71-33.27-14.15c-6.59,3.43,5.1,31.6,5.1,31.6,11.28,26.49,35.54,25.88,45.95,24.46,2-.28,4.91,1,8,2.9a102.65,102.65,0,0,1,13.28,10.34s78.2,77.9,139.75,101a4.77,4.77,0,0,0,.72.26l1.68.62c10.52,3.74,20.51,5.81,29.46,5.5l1.4-.06c.91-.06,1.83-.14,2.72-.25,29.32-3.54,64.38-35.22,97.13-74.12,4-4.71,7.9-9.54,11.79-14.43,17.58-22.09,34.16-45.58,48.44-67,10.46,61.11,28.46,135,33,153.48.19,1.76.38,3.52.56,5.27-22.4,36.67-54.33,89.84-54.33,89.84s324,14.53,320.9,0-45.87-87.15-48.93-96.32c-2.47-7.41,10.55-70.18,23.28-128.79,12.91,18.43,27.06,37.4,41.71,55q4,4.86,8.14,9.58c31.1,35.83,63.83,64.16,91.47,67.5,60.85,7.34,175.72-107.08,175.72-107.08l-.47-.92.47.92s4.16-3.85,9-7.42a40.11,40.11,0,0,1,9.08-5.32,2.66,2.66,0,0,1,.27-.09h0a6.66,6.66,0,0,1,2.89-.41c10.43,1.42,34.69,2,46-24.46C1954.05,1168.56,1965.73,1140.39,1959.14,1137Z" transform="translate(-158.14 -171.27)"/><path class="cls-18" d="M1702.75,1482c-77.68,65.09-189,100.5-189,100.5s-89.65,1.72-191.31,0c-98.75-1.66-195.3-123.35-195.3-123.35s82.33-1.08,104.91-20.3c15.74-13.4,34.75-35.67,53.22-59.87,13.28-17.39,26.28-35.76,37.6-52.57,0,0,23.32,22.85,118.1,20.39s117.85-13,117.85-13,11.19,13.73,26,31.12c17.81,21,40.8,47.22,55.62,61.14C1646.87,1432.19,1702.75,1482,1702.75,1482Z" transform="translate(-158.14 -171.27)"/><path class="cls-18" d="M1370,692.62s41.52-41.11,90.24,1.09C1460.27,693.71,1431.25,687.6,1370,692.62Z" transform="translate(-158.14 -171.27)"/><path class="cls-19" d="M1425.94,739.58s35.69-.64,43.8,11.31,9.2,25.31,13.29,32a25.92,25.92,0,0,1,3.39,14.29s30.72-78.64-40.2-63C1441.1,735.37,1425.94,739.58,1425.94,739.58Z" transform="translate(-158.14 -171.27)"/><path class="cls-20" d="M983.44,1221.7l1.16-.35C984.4,1221.42,984,1221.56,983.44,1221.7Z" transform="translate(-158.14 -171.27)"/><path class="cls-15" d="M1702.75,1482c-77.68,65.09-189,100.5-189,100.5s-89.65,1.72-191.31,0c-98.75-1.66-195.3-123.35-195.3-123.35s82.33-1.08,104.91-20.3c15.74-13.4,34.75-35.67,53.22-59.87,4.23,2.68,93.47,58.67,146.33,55.92,53.72-2.79,151.63-68.92,153.17-70,17.81,21,40.8,47.22,55.62,61.14C1646.87,1432.19,1702.75,1482,1702.75,1482Z" transform="translate(-158.14 -171.27)"/><path class="cls-21" d="M1713.45,1473.4c-23.66,20.48-93.77,43-159.85,60.79-18.53,5-36.76,9.6-53.54,13.72-15.15,4.72-45.9,14.48-78.85,25.94-46.49,16.19-66.83,8.46-89.87,4.39s-49,12-83.17-.43-25.5-79.68-25.5-79.68c11.56-7.59,56.49-9.77,86.92,12.08s71.18,17.76,71.18,17.76c1.56.17,5.28-1.7,10.35-4.88,0,0,29.59-17.3,84.12-60.72,17.54-14,37.68-30.66,60.24-50.34,43-37.51,80.13-86.87,123-96,73-15.5,99,12.88,99,12.88S1775.54,1419.69,1713.45,1473.4Z" transform="translate(-158.14 -171.27)"/><path class="cls-22" d="M1553.6,1534.19c-18.53,5-36.76,9.6-53.54,13.72-15.15,4.72-45.9,14.48-78.85,25.94-46.49,16.19-66.83,8.46-89.87,4.39s-49,12-83.17-.43-25.5-79.68-25.5-79.68c11.56-7.59,56.49-9.77,86.92,12.08s71.18,17.76,71.18,17.76c1.56.17,5.28-1.7,10.35-4.88,0,0,29.59-17.3,84.12-60.72,10.37,20.33,31.27,49.23,71.28,68A65.74,65.74,0,0,1,1553.6,1534.19Z" transform="translate(-158.14 -171.27)"/><path class="cls-17" d="M1600.48,1514.21s-1.55,58.53-23,65.5c-29.51,9.57-52.7-5.77-77.06-1.3s-44.12,10.82-93.2-6.33c-32.58-11.39-63.14-21.18-80-26.48-8.26-2.22-16.82-4.56-25.54-7-65.21-18.39-139.4-43-163.13-65.18-57.41-53.71-35.41-149-35.41-149s18.68-23.82,86.25-8.32c39.64,9.1,80.58,48.4,120.2,85.7,16.43,15.47,32,29.8,46.29,42.72,49.77,45,83.86,72.93,83.86,72.93l-.15.29c5.18,3.25,9,5.13,10.58,5,0,0,25.93,10.29,71-4.87C1552.56,1507.22,1588.31,1506.14,1600.48,1514.21Z" transform="translate(-158.14 -171.27)"/><path class="cls-23" d="M1382,890.79s16.62,38.54,43.93,36.24,38.54-37.1,38.54-37.1Z" transform="translate(-158.14 -171.27)"/><path class="cls-16" d="M1354.21,844.23a355.21,355.21,0,0,1-21-58.83c-5.72-22.58-.18-108.23,85.92-102.16a116.2,116.2,0,0,1,49.33,14.69c19.4,11.17,48,36.22,23.53,112.38l-6,25.56Z" transform="translate(-158.14 -171.27)"/><path class="cls-17" d="M1474.58,880.56c-22.29,21.19-50,49.43-109.37-3.12-11.62-10.29-15.69-31.32-16.3-54-.74-26.78-2.23-37.93.81-53.36,3.61-18.46,19.43-26.76,52.22-29.52,60.21-5.05,85,8.35,86.47,38.46C1491.48,844.23,1497.26,859,1474.58,880.56Z" transform="translate(-158.14 -171.27)"/><path class="cls-16" d="M1382,714.52c-34.56.76-52.59,86.38-36.54,82.7s47.78-43.72,47.78-43.72c-2.68,20.64-26.37,39.75-26.37,39.75,36.69-13.76,52.74-53.68,52.74-53.68S1416.56,713.75,1382,714.52Z" transform="translate(-158.14 -171.27)"/><path class="cls-16" d="M1484.6,735.92c-16.82-11.47-65,3.65-65,3.65s16.82.17,23.7,12.4,29.26,47.11,48.65,58.34C1492,810.31,1501.42,747.39,1484.6,735.92Z" transform="translate(-158.14 -171.27)"/><path class="cls-21" d="M1437.64,1301.31c-2.76,0-5,4-5,9s2.23,9,5,9,5-4.05,5-9S1440.39,1301.31,1437.64,1301.31Z" transform="translate(-158.14 -171.27)"/><path class="cls-21" d="M1895.84,1198.84c-4.84,3.57-9,7.42-9,7.42S1772,1320.68,1711.12,1313.34c-27.64-3.34-60.37-31.67-91.47-67.5q-4.08-4.72-8.14-9.58l8.4-14.71,43,4.69s37.51,33,50.76,56.47c10.65,18.85,126-50,172.38-78Z" transform="translate(-158.14 -171.27)"/><path class="cls-21" d="M1954.05,1168.56c-11.27,26.49-35.53,25.88-46,24.46a6.66,6.66,0,0,0-2.89.41h0a2.66,2.66,0,0,0-.27.09s-5.22-13,25.36-21.4,28.86-35.16,28.86-35.16C1965.73,1140.39,1954.05,1168.56,1954.05,1168.56Z" transform="translate(-158.14 -171.27)"/><path class="cls-21" d="M1246.83,1224.79c-3.89,4.89-7.82,9.72-11.79,14.43-32.75,38.9-67.81,70.58-97.13,74.12-.89.11-1.81.19-2.72.25l-1.4.06c-8.71.24-18.71-1.8-29.46-5.5l-1.68-.62a4.77,4.77,0,0,1-.72-.26c-61.55-23.11-139.75-101-139.75-101a102.65,102.65,0,0,0-13.28-10.34c4.38,2.11,9.35,4.62,14.76,7.43,54.58,28.27,155.55,86.77,175.15,72.34,27.52-20.29,64.21-69.43,64.21-69.43Z" transform="translate(-158.14 -171.27)"/><path class="cls-21" d="M948.9,1195.92c-3.07-1.88-6-3.18-8-2.9-10.41,1.42-34.67,2-45.95-24.46,0,0-11.69-28.17-5.1-31.6,0,0,1.78,28.07,22.16,33.39C931.92,1175.56,948.13,1195,948.9,1195.92Z" transform="translate(-158.14 -171.27)"/><path class="cls-9" d="M1580.28,979.66c-5.24-5.92-15.72-11.35-27.86-16a.21.21,0,0,1,0-.06s-41.82,50.33-129.16,51.09-133.92-48.16-133.92-48.16l0,1.61-.85-1.21c-8.55,3.91-15.66,8.21-19.69,12.78-11.47,13-61.79,118.89-99.61,190.69h0c.1.81,3.44,25.56,25.73,46.42h0c9.52,8.92,22.51,17.11,40.18,22.43,20.84-24.72,40.71-52.38,57.61-77.56l1.93-2.89,1.72,8.14,18,84.88c41,13.09,77,19.29,107.89,21.34,4.37.29,8.64.51,12.8.63h0c78.5,2.48,120-22,120-22s8.7-34,15.89-67.79c.06-.32.13-.64.2-1a791.42,791.42,0,0,0,48.57,62.79,108.87,108.87,0,0,0,43.27-19.6,105.35,105.35,0,0,0,28.82-33.82C1653.48,1122.72,1593,994.05,1580.28,979.66Z" transform="translate(-158.14 -171.27)"/><path class="cls-18" d="M1194.86,1216.78h0c9.52,8.92,22.51,17.11,40.18,22.43,20.84-24.72,40.71-52.38,57.61-77.56C1276.27,1159.87,1194.86,1216.78,1194.86,1216.78Z" transform="translate(-158.14 -171.27)"/><path class="cls-18" d="M1570.88,1182.76a793.72,793.72,0,0,0,48.77,63.08,108.87,108.87,0,0,0,43.27-19.6S1588.92,1182.36,1570.88,1182.76Z" transform="translate(-158.14 -171.27)"/><path class="cls-18" d="M1296.3,1166.91l18,84.88c41,13.09,77,19.29,107.89,21.34C1369,1264.72,1311.16,1187.84,1296.3,1166.91Z" transform="translate(-158.14 -171.27)"/><path class="cls-18" d="M1435,1273.76c78.5,2.48,120-22,120-22s8.7-34,15.89-67.79v-1.24S1499.63,1269.4,1435,1273.76Z" transform="translate(-158.14 -171.27)"/><path class="cls-24" d="M1600.48,1514.21s-1.55,58.53-23,65.5c-29.51,9.57-52.7-5.77-77.06-1.3s-44.12,10.82-93.2-6.33c-32.58-11.39-63.14-21.18-80-26.48-8.26-2.22-16.82-4.56-25.54-7,12.69-10.58,44.36-41.57,54.2-94.1,49.77,45,83.86,72.93,83.86,72.93l-.15.29c5.18,3.25,9,5.13,10.58,5,0,0,25.93,10.29,71-4.87C1552.56,1507.22,1588.31,1506.14,1600.48,1514.21Z" transform="translate(-158.14 -171.27)"/></g><rect class="cls-25" y="1423.66" width="2591.56" height="11.33" rx="3.77"/><path class="cls-18" d="M1565.93,1019.21c5-22.51-22.77-37.72-39.11-21.44-20.84,20.76-55.89,44.22-110.31,49.24-101.89,9.4-23.27,44.4-7.59,56s28.84,28.2,58.92,15.69,53.58-42.59,73.32-52.93C1550.64,1060.84,1561.17,1040.6,1565.93,1019.21Z" transform="translate(-158.14 -171.27)"/></svg>