<svg xmlns="http://www.w3.org/2000/svg" viewBox="0 0 1607.67 1233.58"><defs><style>.cls-1{fill:#fcecdb;}.cls-2{fill:#afcdfb;}.cls-3{fill:#9abcef;}.cls-4{fill:#e9f3fe;}.cls-5{fill:#d8e8fd;}.cls-6{fill:#bbd5fc;}.cls-7{fill:#d2e4fd;}.cls-8{fill:#c65447;}.cls-9{fill:#ffb27d;}.cls-10{fill:#e58638;}.cls-11{fill:#233862;}.cls-12{fill:#2b478b;}.cls-13{fill:#ee9849;}.cls-14{fill:#ed985f;}.cls-15{fill:#2c3a64;}.cls-16{fill:#1c468a;}</style></defs><title>listAsset 2</title><g id="Layer_2" data-name="Layer 2"><g id="_Layer_" data-name="&lt;Layer&gt;"><path class="cls-1" d="M1408.46,1228.48s117.16,40.24,174.83-142.13c74.83-236.59-30.19-461.35-211.35-477.54C1110.67,585.47,1255.47-18.9,843.18,145.09,727.25,191.19,475.09-46.83,326.66,356.48,301.42,425.05,226,421.69,125.44,538.68c-177.33,206.38-113.49,692,35.92,694.2S1408.46,1228.48,1408.46,1228.48Z"/><path class="cls-2" d="M334.84,0S221.2-5.55,281.48,340.78c0,0,40.56,117.56-10.64,193.33h753.6V0Z"/><rect class="cls-3" x="382.62" y="205" width="786.78" height="1026.07"/><rect class="cls-4" x="408.34" y="205" width="773.56" height="1026.07"/><path class="cls-4" d="M1181.91,205H408.34c4.28-58.49-2.17-101-12.5-131.52C376,14.74,341.81,0,341.81,0h729.54C1133.62,0,1181.9,37.51,1195,87.3c.49,1.88,1,3.74,1.34,5.61C1208.86,149.87,1182.42,203.94,1181.91,205Z"/><path class="cls-5" d="M1181.91,205H408.34c4.28-58.49-2.17-101-12.5-131.52C474.9,88,670.69,118.8,880.26,113.6c135.59-3.37,242.73-12.44,316.12-20.69C1208.86,149.87,1182.42,203.94,1181.91,205Z"/><rect class="cls-6" x="559.67" y="422.35" width="425.54" height="19.24" rx="7.66"/><rect class="cls-6" x="559.67" y="454.73" width="265.16" height="19.24" rx="6.04"/><path class="cls-6" d="M520.16,470.85v-39.3H515q-4.71,0-4.71-3.93c0-1.89,1.23-3.22,3.69-4a27.38,27.38,0,0,1,6-.94c2.76-.21,5-.32,6.65-.32s2.64.33,3.06,1,.63,2.31.63,5v42.52h5.35q5.19,0,5.19,4.49,0,4.71-5.19,4.71H514.11a5.88,5.88,0,0,1-3.81-1.22,4.1,4.1,0,0,1-1.54-3.42c0-3,1.76-4.56,5.27-4.56Z"/><rect class="cls-7" x="559.67" y="625" width="425.54" height="19.24" rx="7.66"/><rect class="cls-7" x="559.67" y="657.37" width="265.16" height="19.24" rx="6.04"/><path class="cls-7" d="M541.65,672.69q0,3.93-5.49,3.93H513.37q-4.94,0-4.93-4a5,5,0,0,1,1.32-2.92c1.3-1.48,3.19-3.71,5.7-6.67q5.68-7.16,9.51-12.37,1.32-1.73,3.76-5.28a12.76,12.76,0,0,0,2-6A6.12,6.12,0,0,0,529,635a5.94,5.94,0,0,0-4.44-1.77,6.8,6.8,0,0,0-4.59,1.67,7.92,7.92,0,0,0-2.08,4.16c-.65,2.64-1.07,4.17-1.25,4.59a3.53,3.53,0,0,1-3.41,2.22,3.89,3.89,0,0,1-3.26-1.53,5.2,5.2,0,0,1-1.11-3.47,16.74,16.74,0,0,1,.76-4.93,14.79,14.79,0,0,1,5.91-8.2,17.1,17.1,0,0,1,9.79-2.71,15.19,15.19,0,0,1,10.56,3.83,13.38,13.38,0,0,1,4.38,10.3,17.92,17.92,0,0,1-3.13,9.6q-1.74,2.71-7.15,9.6-2.79,3.55-8.76,10.3h15Q541.65,668.63,541.65,672.69Z"/><rect class="cls-7" x="559.67" y="794.04" width="425.54" height="19.24" rx="7.66"/><rect class="cls-7" x="559.67" y="826.42" width="265.16" height="19.24" rx="6.04"/><path class="cls-7" d="M541.65,829.54a14.87,14.87,0,0,1-5.19,11.86A18.24,18.24,0,0,1,524,845.66a17.39,17.39,0,0,1-9.95-2.77q-6.53-4.39-6.53-10.58a4.43,4.43,0,0,1,1.14-3,3.71,3.71,0,0,1,2.91-1.28q1.85,0,3.48,2.49c1.75,2.74,2.77,4.26,3,4.54a7.93,7.93,0,0,0,6,2.49q5,0,7.1-3.7a9.84,9.84,0,0,0,1-4.68q0-7-8.16-7.74-4.62-.43-4.62-3.91a3.71,3.71,0,0,1,2.68-3.62q5-1.85,5.08-1.92c1.78-1.18,2.68-3.24,2.68-6.18a5.54,5.54,0,0,0-1.56-4.15,5.7,5.7,0,0,0-4.17-1.53,7.66,7.66,0,0,0-5.1,1.56,10.32,10.32,0,0,0-2.62,4.62,3.23,3.23,0,0,1-3.25,2.49,3.36,3.36,0,0,1-2.8-1.49,5.42,5.42,0,0,1-1.09-3.27,9.09,9.09,0,0,1,1.2-4.4,13.68,13.68,0,0,1,6.11-5.76,18,18,0,0,1,8.24-1.91,14.4,14.4,0,0,1,10.05,3.65,12.43,12.43,0,0,1,4,9.63,13.19,13.19,0,0,1-6,11.36Q541.65,820,541.65,829.54Z"/><path class="cls-6" d="M674.22,250.79H929.78a8,8,0,0,1,8,8v6.45a8,8,0,0,1-8,8H674.22a8,8,0,0,1-8-8v-6.45a8,8,0,0,1,8-8Z"/><path class="cls-6" d="M607.58,285.26H996.41a9.75,9.75,0,0,1,9.75,9.75v2.84a9.76,9.76,0,0,1-9.76,9.76H607.58a9.76,9.76,0,0,1-9.76-9.76V295A9.75,9.75,0,0,1,607.58,285.26Z"/><path class="cls-8" d="M772,545.35c-84.27,0-164.24-10.57-223.86-25.68-60.23-15.28-92.67-40.23-92.67-62.37,0-20.06,26.44-38.52,76.46-53.36h0c-47.93,14.23-73.57,35.12-73.57,53.36,0,20.24,33.23,40.28,91.17,55C609,527.33,688,535.62,772,535.62s163.06-8.29,222.47-23.35c57.94-14.69,91.17-34.73,91.17-55,0-21.43-35-48.07-91.32-69.52-64.05-24.39-143-33.44-222.31-33.44-148.91,0-210.21,17.38-263.39,39.17h0c53.41-21.88,114-46.68,263.38-46.68,79.64,0,158.93,13.5,223.28,38,57.52,21.9,93.25,49.67,93.25,72.47,0,22.14-33.17,42.74-93.4,58C935.53,530.42,856.29,545.35,772,545.35Z"/><path class="cls-9" d="M1283.75,742.9s-2.77,27-5.82,32.08-16,21.41-21.53,24.61,3.38-21.48,2.25-26.29-4.54,8.77-7,9.09-1.8-11.9-1.89-16.34,11.84-15.42,16-24.88S1283.75,742.9,1283.75,742.9Z"/><path class="cls-9" d="M952.32,494.09l-6.21-11.7s3.08-20.84-23-34c0,0-9.54-3.89-14.93,3.9-5,7.17,9.46,5.87,8.68,18.14s5,19.47,13.16,23.47l6.7,7.76Z"/><path class="cls-10" d="M1199.16,466.12s-22.43,110.1-145.87,146.07c-38.53,11.23-126.07-115.63-126.07-115.63s3.08-11.7,22.36-9c0,0,85.23,56.43,96,62.56,9.52,5.44,72.13-69.92,100.68-82.08S1199.16,466.12,1199.16,466.12Z"/><rect class="cls-8" x="914.74" y="406.68" width="23.06" height="115.97" transform="translate(326.36 1309.66) rotate(-81.27)"/><polygon class="cls-9" points="842.3 451.77 867.2 467.26 870.7 444.47 842.3 451.77"/><path class="cls-9" d="M997.49,471.68l-1.1,7.21a8.12,8.12,0,0,1-9.26,6.79l-5.3-.81,3.5-22.79,5.76.88A7.65,7.65,0,0,1,997.49,471.68Z"/><path class="cls-11" d="M1346.53,1158.21s15.31,14,12.32,23.9-16.8,16.55-18.67,28.69-9.34,18.75-16.06,18.75h-32s-5-8.54,7-11.11,16.46-16.84,15.71-30.08,1.12-30.89,1.12-30.89l25.4-5.88Z"/><path class="cls-11" d="M1158.66,1194.35s2.75,31.8-4,35.11l-86-.17s0-9.93,13.82-12.14,38.1-10.3,42.2-28.32S1158.66,1194.35,1158.66,1194.35Z"/><path class="cls-12" d="M1086,745.09s4.54,55.75,9.88,122.77c7.24,91,16,202.84,16.82,224,1.5,36.78,7.48,95.62,7.48,95.62s14.18,14,42.58,8.09c0,0,25.3-84,32.52-172.87.12-1.45.23-2.92.34-4.39,6.72-90.47,17.18-281,17.18-281Z"/><path class="cls-11" d="M1086,745.09s4.54,55.75,9.88,122.77l99.4,154.87c.12-1.45.23-2.92.34-4.39,6.72-90.47,17.18-281,17.18-281Z"/><path class="cls-12" d="M1106.75,751.71s81.79,201.9,135.57,296.79,70.59,121.36,70.59,121.36,30.82-12.14,33.62-20.42c0,0-20.57-183.17-56.59-227.82-20.35-25.23-44.25-101-45.37-127.43s-7.29-78.88-7.29-78.88Z"/><path class="cls-9" d="M1214.37,440.57s-55.35,26.7-87.25,16.8a75.2,75.2,0,0,1,21.59-17.28c-1.1-6.41-2-12-2.45-16.68a153.87,153.87,0,0,1-1.35-17l21.35-16.8,20.25-16.07C1184.91,418.7,1214.37,440.57,1214.37,440.57Z"/><path class="cls-13" d="M1243.53,725.65c.12,3.38-7.12,7.25-10.31,8.7-23.68,10.39-45.77,17.64-70.8,20.06-29.58,3-64.55-3.63-76.57-3.39a5,5,0,0,1-3.32-1.33c-.86-.6-1.47-36.25-.86-81.07,0-1.82,0-3.63.13-5.44v-.6c.24-17.53.85-35.89,1.71-54.26,1.72-40.35,4.91-79.26,10.31-100.77,6.51-25.37,21.23-42.17,34.61-54.37l11-9.67c11,2.18,22.7,1.57,34.36-4.1,12.76-6.17,26.5-12.81,28.71-11.12,16.69,12.2,28,39.63,34,74.67a388.33,388.33,0,0,1,5,66.46c0,8.7-.25,17.64-.74,26.46-2.94,47.85,0,89.41,1.72,113.45C1243,716.34,1243.41,721.78,1243.53,725.65Z"/><path class="cls-10" d="M1242.55,723.45c-193.8-.39-35.75-210.29-35.75-210.29l31.4-10.2a608.27,608.27,0,0,1,3.64,71c0,9.3-.18,18.85-.53,28.27C1239.18,653.35,1241.31,697.76,1242.55,723.45Z"/><path class="cls-14" d="M1186.88,390.79s-14,25.49-40.62,32.62a153.87,153.87,0,0,1-1.35-17l21.35-16.8Z"/><path class="cls-9" d="M1135.17,405.64s52.8,8.64,57.76-23.82,15.1-53.2-18.4-60.09-42,4.53-46.28,15S1121.57,402.56,1135.17,405.64Z"/><path class="cls-15" d="M1212.11,317.85c.48-.55,1.59-1,4.05-1.13a10,10,0,0,0-4.6-1.29c-.51-3.42-2.33-9.48-8.22-10.95a7.38,7.38,0,0,1,3.58,5.32c-6.82-7-21.43-12.1-61.89-8.91-53.33,4.21-35.75,38.35-28.85,42.42s24.28-7.08,37.14-6.06,15.31,19.6,19.67,22.15,2.65-1.95,8.55-4.62,6.47,7.11,4.77,13.47,6.4,14.75,6.4,14.75l8.2-8.83c8.2-8.82,15.92-46.22,12.2-54.19C1212.78,319.28,1212.45,318.56,1212.11,317.85Z"/><path class="cls-13" d="M1202.52,428s33.41,15.82,49.42,40.14c24.84,37.72,53.64,175.19,54.17,187.92s-21,102.6-21,102.6-21.86-1.44-27.5-12.47c0,0,4.37-92.34,1.6-98.28s-91.12-123.87-81.19-149S1202.52,428,1202.52,428Z"/><path class="cls-9" d="M946,481.84s1.82-7.18-3.16-10.4-9.56-12-11.65-10.81c-4.35,2.46,2.38,10.11,1.14,19.66C931.9,483.63,939.69,492.39,946,481.84Z"/><path class="cls-7" d="M1006.51,1007.92H530.83a5.8,5.8,0,0,1-5.79-5.78h0a5.81,5.81,0,0,1,5.79-5.79h475.68a5.8,5.8,0,0,1,5.78,5.79h0A5.8,5.8,0,0,1,1006.51,1007.92Z"/><path class="cls-7" d="M1006.51,1031.1H530.83a5.81,5.81,0,0,1-5.79-5.79h0a5.81,5.81,0,0,1,5.79-5.79h475.68a5.8,5.8,0,0,1,5.78,5.79h0A5.8,5.8,0,0,1,1006.51,1031.1Z"/><path class="cls-7" d="M1006.51,1056.77H530.83A5.81,5.81,0,0,1,525,1051h0a5.81,5.81,0,0,1,5.79-5.79h475.68a5.8,5.8,0,0,1,5.78,5.79h0A5.8,5.8,0,0,1,1006.51,1056.77Z"/><rect class="cls-7" x="525.04" y="1070.87" width="424.42" height="11.58" rx="5.4"/><rect class="cls-16" y="1228.56" width="1573.37" height="5.03" rx="2.3"/></g></g></svg>