<svg xmlns="http://www.w3.org/2000/svg" viewBox="0 0 423 537.4"><defs><style>.cls-1{opacity:0.4;}.cls-2{fill:#9fd6e2;}.cls-3{fill:#f987ad;}.cls-4{fill:#9c1d44;}</style></defs><title>lungsAsset 2</title><g id="Layer_2" data-name="Layer 2"><g id="Layer_1-2" data-name="Layer 1"><g class="cls-1"><path class="cls-2" d="M423,537.4H356.28Q349,501,341.71,464.66a10.34,10.34,0,0,0-1-2.16c-.31.47-.85.92-.91,1.42-1.77,16.59-5.17,33.36-7.19,50-.63,7.84-1.16,15.67-1.54,23.49H94.05c0-33.19-3.63-66.48-12.83-99.9-.49-1.79-1-3.57-1.45-5.36-.46,1.88-1,3.73-1.36,5.63C72.89,471,67.78,504.21,62.27,537.4H0c6.23-58.48,9.55-117.3,13.47-176,3.62-54.16,17.41-80.07,80.86-99.28,17.49-5.3,34.43-14.64,49.54-25.13,34.66-24.06,36.28-48.25,6-77.45-28.59-27.61-33.31-60.84-23-96.68S163,5.26,199.71.86c62-7.43,112.3,33.93,104.9,93-1.3,10.42,6.63,25,14.58,33.84,2.78,3.08,1.76,5.52.78,7.62l-6.88,2.77c-1,1.73-.48,5.1-1.12,6.77-2.06,5.34-3.43,11-5,16.46-3.19,11-3.28,25-10.35,32.07-7.56,7.54-21.82,8.18-32.87,12.53-2.49,1-5.82,5.22-5.42,7.34a45,45,0,0,0,10.28,21.8,195.18,195.18,0,0,0,19.68,14.41c6.53,3.26,13.54,5.94,20.47,8.63,18.57,7.22,38.75,10.8,56.52,19.46,32.25,15.73,40.54,46.18,42.94,79.11C412.57,417,415.46,477.39,423,537.4Z"/></g><path class="cls-3" d="M205.42,327.31a81.74,81.74,0,0,1-1.92,23.21c-.77,3.54.21,7.43.23,11.17,0,10.2.18,20.4-.12,30.6a75.66,75.66,0,0,1-2,13.14c-1.11,5.33-4.27,9.42-8.26,13.13-13.29,12.34-29.2,20.57-45,28.9C141.64,451,134.62,454,127.63,457c-3.12,1.34-6.59,1.85-9.77,3.1a27.28,27.28,0,0,0-11.64,8.32,2.18,2.18,0,0,1-.25.28c-3.6,3.79-6.94,3.16-8-2a94,94,0,0,1-1.69-15.45c-.28-7.41-.29-14.86,0-22.27a288.94,288.94,0,0,1,12.5-76.2,229.23,229.23,0,0,1,27-58.19,183.92,183.92,0,0,1,20.35-26.32c4.67-4.9,9.81-9.26,16.79-10.59a30.45,30.45,0,0,1,13.2.38c6.14,1.52,9.69,5.76,11.41,11.64,2,7,1.36,14,.22,21.11-.63,3.87-1.08,7.79-1.34,11.7a14.48,14.48,0,0,0,2.92,9.46c1,1.44,1.88,3,2.82,4.51-2.37.86-4.72,1.77-7.11,2.57-6,2-9.07.94-12.52-4.45-.41-.64-.69-1.36-1.13-2-1.27-1.79-1-3,.71-4.6,5.34-5.06,8-11.24,6-18.68-.63-2.4-1.83-4.65-.9-7.21l.25-.16-.17-.13-.06.32-1.75,2.27a10,10,0,0,1-1.6-1.35c-1.1-1.41-2.1-2.9-3.14-4.35l-.14,0,.16,0c.74,1.91,1.11,4.11,2.31,5.67a9.6,9.6,0,0,1,2.1,5.92c.22,7-3.18,12.25-8.59,16.91-1.74-2.59-3.49-4.85-4.87-7.32-1.13-2-.36-3.63,1.46-5a40.55,40.55,0,0,0,3.61-3.45L175,290.22c.26,2.11-1.09,2.93-2.82,3.36l-3.78-9.21c2.47-1.79,2-4.67,2.65-7.19-1.72,1.63-.83,4.7-3.66,6.22v-5.31l-.63-.08a19.81,19.81,0,0,0-.85,4.1,19.56,19.56,0,0,0,.71,4.46c.32,1.39.77,2.75,1.19,4.19a5.47,5.47,0,0,1-5.73-4.28,26.09,26.09,0,0,0-1.54-3.58l-.6-.56h-.63l.4.28.51.59a9.21,9.21,0,0,1,.72,2.33c.15,3.94,2.24,6.24,5.87,7.47a1.87,1.87,0,0,1,.81,1.65,36.5,36.5,0,0,1-1.35,4.23,29.76,29.76,0,0,0-3.41,0c-1.36.15-1.77-.54-2.27-1.66-.94-2.11-2.18-4.09-3.29-6.13l-.61-.54a.39.39,0,0,0-.07-.16s-.08,0-.12,0l.22.12.31.82,2.73,7.13-.59.43c-4-2.08-7.3-6.34-12.89-3.91,5.37,0,5.4,0,9.34,3.35a8.42,8.42,0,0,0,6,2.38,14.85,14.85,0,0,1,4.13.56,3.35,3.35,0,0,1,1.64,1.33c1.64,2.32,3,4.88,4.84,7a14.22,14.22,0,0,1,3.58,7.11c.72,4.1.69,4.37-3.63,4.9-.7.09-1.4.11-2.09.14-4.06.16-8.12.3-12.17.49-3.49.16-4.47-.61-5-4.09-.38-2.6-.06-3,2.54-3.49,4.55-.79,9.09-1.51,13.14,1.68.09.07.33,0,.64-.09-4.29-4.75-9.8-3.6-15.3-3.25a39,39,0,0,0,2.18-4.53,3.75,3.75,0,0,0-1.38-4.51c.76,2.4.91,4.34-.93,5.93-1.55-1.42-2.83-2.72-2.3-5.11.22-.95-.58-2.12-.92-3.19-.28,1.15.2,2.22-.07,3.05-.78,2.36.2,4.06,1.57,5.74.3.37.76.91.68,1.25-.57,2.26-1.27,4.49-1.91,6.66a15.11,15.11,0,0,0-2.86-1.94,4.56,4.56,0,0,1-2.61-3c-1.19-3.24-1.13-6.26,1-9.2,1.71-2.38,1.53-3.93-.22-5.76l-.4-.11.16.35c1.22,2.51,1.07,3.47-1,5.25l-5.22-3.71-.33.37a49.06,49.06,0,0,0,3.63,3.44,2,2,0,0,1,.86,2.48,25.57,25.57,0,0,0-.29,5.61,12,12,0,0,0,.47,2.33l-.49.32-3.77-4.31c.78,4.57,4.18,6.15,7.5,7.77-3.05,3.08-6.85,2.75-8.91-.52-.51-.8-.89-1.69-1.4-2.48a7,7,0,0,0-7.49-2.95c4.25.38,6.27,2.64,7.74,5.91,1.56,3.48,4.93,4.56,8.49,3.14,1-.39,1.91-1,3.09-1.54a17.41,17.41,0,0,1,1.37,2.68,4.17,4.17,0,0,0,3.91,3.07c1.58.15,3.15.35,4.73.51,2.23.22,4.47.41,6.8.62-1.62,3.5-1.77,3.58-5,2.64a8.14,8.14,0,0,1-2.12-.83,15.92,15.92,0,0,0-10.83-2c-3.06.43-6.07,1.27-9.1,1.93,0,.26.09.51.13.77,3.72-.44,7.42-1.45,11.71-.74-4,2.59-5.58,6.21-7.26,9.89a32,32,0,0,1-4.92,6.87,3.65,3.65,0,0,1-2.7.85,15,15,0,0,1-10.19-4.95,12.57,12.57,0,0,0-1-.91l-.33.39c2.16,3.8,5.58,6.11,9.84,7.42l-.11.59-9.58,3.73a1.65,1.65,0,0,0,1.26.16c2.76-.93,5.58-1.74,8.23-2.9a12.46,12.46,0,0,1,5.09-1.16c4,0,7.65-1.11,10-4.83a10.52,10.52,0,0,1,1.28-1.4l.33.32c-.84,2.65-1.66,5.31-2.52,8a12.26,12.26,0,0,1-6.32,7.69,3.33,3.33,0,0,0-.7.61l.34.52c1.39-.88,3.13-1.5,4.1-2.72a42,42,0,0,0,4.18-6.87c1.51-2.89,2.8-5.9,4.19-8.85l.26.24-.24,4.84c.56,0,.64-.08.64-.13.08-.43.12-.87.21-1.3.71-3.31,1.62-6.28,5.76-7,2.69-.44,5.62-1.6,6.82-4.12,2.18-4.58,5.7-6.55,10.46-7a1.32,1.32,0,0,0,.55-.14c1.76-1.05,2.92-.34,3.86,1.32-.41.43-.78.86-1.19,1.24a64.9,64.9,0,0,0-11.25,13.85,5.79,5.79,0,0,1-3.12,2.53c-10.82,4.18-19.22,11.09-24.51,21.63a22,22,0,0,1-4.54,5.78,9.24,9.24,0,0,1-9.13,2.49,4.4,4.4,0,0,0-1.09,0,8.62,8.62,0,0,0,8.36.26c3.59-1.63,6-4.47,8.14-7.75,1.63-2.56,3.49-5,5.3-7.42a14.4,14.4,0,0,1,1.75-1.59A45.67,45.67,0,0,1,147.76,375a4.45,4.45,0,0,0,1.38-2c.9-3.61,2.42-7.26,2.35-10.88-.09-4.71,2.29-7,5.85-8.91,2.59-1.38,5.21-2.71,7.81-4.06-2.49,7.35-5.08,14.34-8.12,21.14A20.63,20.63,0,0,1,146.09,381a18.93,18.93,0,0,0-3,1.67,14.26,14.26,0,0,0-5.82,8.1c.46-.06.56-.43.75-.75,2.35-3.89,5.91-6.05,10.09-7.65,2.61-1,4.91-2.81,7.33-4.28A17.57,17.57,0,0,0,157,376.8c-.34,3.65-.73,7-.94,10.45a8.3,8.3,0,0,1-2.7,5.89,24,24,0,0,1-3.91,2.65c-1.45.86-2.49,1.91-2.64,3.29,1.58-1,3.19-2,4.71-3,1.76-1.24,3.44-2.59,5.16-3.9.14,1.9.28,3.86.42,5.82l.45,5.91.61,0V395.2l3.37,4.65c-1.26-3.48-2.85-6.63-3.48-10s.27-6.93,1.29-10.32a1.06,1.06,0,0,1,.39.66,45.27,45.27,0,0,0,7.91,21.36,2.6,2.6,0,0,1,.51,1.75,94.54,94.54,0,0,1-1.95,9.64,7.19,7.19,0,0,1-4.52,4.83c-3.14,1.22-4.14,3-3.32,6.29s1.87,6.32,2.82,9.47a13.82,13.82,0,0,0-.12-3.52c-.41-2.12-1-4.19-1.43-6.31s.29-3.52,2.4-4.05c3.57-.9,5.8-3.26,7.34-6.4.84-1.68,1.49-3.46,2.31-5.38.65.9,1.15,1.68,1.75,2.39a24.26,24.26,0,0,0,2.1,2.2,46.52,46.52,0,0,1,3.52,3.18c2,2.3,1.81,4.6-.36,6.73-.54.53-1.11,1.05-1.94,1.84,3.9-1.11,5.74-4.72,4.13-7.82a16.14,16.14,0,0,0-3.2-3.95,15,15,0,0,1-4.84-10.33c4.5.37,8.78.79,13-.39a3.61,3.61,0,0,0-1.41-.32c-3.59-.4-7.19-.7-10.74-1.3a5,5,0,0,1-2.8-1.95A36,36,0,0,1,165.35,386a16.5,16.5,0,0,1-.23-1.75,20.74,20.74,0,0,1,7.37,5.15,24.28,24.28,0,0,0,4.12,3.27,5.85,5.85,0,0,0,2,.43c-1.66-1.26-3.42-2.1-4.47-3.48a25.56,25.56,0,0,0-8.64-7.31,2.4,2.4,0,0,1-1.17-1.69c0-4.93-.55-10,.41-14.75.79-3.95,3.13-7.7,5.25-11.27C178.19,340.82,189.3,330.78,205.42,327.31ZM171.4,276a2.36,2.36,0,0,0-.12.28s.07.08.11.12a2.28,2.28,0,0,0,.13-.28S171.45,276,171.4,276Zm5.35,14.29s-.1.07-.11.11.06.07.09.11.11-.06.11-.1S176.78,290.32,176.75,290.28Zm-37.33,9.15s-.1.06-.1.09.05.08.08.12.1-.07.1-.1S139.45,299.46,139.42,299.43Z"/><path class="cls-3" d="M229.11,316.84A20.89,20.89,0,0,1,231,313c3.57-4.72,3.91-10.06,3.24-15.61-.8-6.6-2.74-13.11-2-19.82a41.12,41.12,0,0,1,2.29-10.5c2.42-6.28,7.64-8.83,14.11-9.64,10-1.24,18,2.5,24.75,9.49a190.15,190.15,0,0,1,28.75,39.19c16.09,28.49,25.44,59.23,29.86,91.55a252.27,252.27,0,0,1,2.65,36c-.05,8.94-.14,17.87-.5,26.8a25.34,25.34,0,0,1-1.81,7.91c-1.26,3.29-3.62,3.66-6.27,1.34s-4.92-4.82-7.74-6.69a29.4,29.4,0,0,0-8.9-4.16c-9-2.2-17.49-5.68-25.9-9.41-11-4.9-21.87-10.21-31.74-17.23a102.65,102.65,0,0,1-9.15-8,10.06,10.06,0,0,1-1.51-2.18c-1.76-2.7-3.31-5.58-5.31-8.09-4.73-5.93-6.87-12.79-7.81-20.14-1.63-12.77-1.24-25.56-.52-38.37a24.67,24.67,0,0,0-.36-6.6,72.35,72.35,0,0,1-1.43-21.36A40.86,40.86,0,0,1,239.34,334c10.91,7.8,19.22,18,26.23,29.27a5,5,0,0,1,.65,1.76,48,48,0,0,1,.42,15.32,4.23,4.23,0,0,1-1.66,2.22c-1.78,1.4-3.86,2.46-5.51,4-2.35,2.19-3.82,5.36-7.27,6.36,2.63.09,4.44-1.28,6-3.11a18.81,18.81,0,0,1,7.91-5.63c-1.65,6.3-3.67,11.85-7.94,16.35a3.93,3.93,0,0,1-.8.52c-3,1.83-6.19,3.34-10,3a4.61,4.61,0,0,0,2.62.63c1.92-.34,3.8-.92,5.69-1.4l.31.33a41.46,41.46,0,0,1-16.72,8.28,13.54,13.54,0,0,0,5.32-.67c4.23-1.79,8.33-3.87,12.48-5.83l.37.41a14.1,14.1,0,0,1-5,7.44c-2.38,2-2.76,4.76-1.37,6.39.38-1.38.38-3.38,1.37-4.54a77.82,77.82,0,0,1,7-6.58c.65,1.52,1.31,3.37,2.2,5.1,1.44,2.77,3.37,5,6.58,5.94,2.93.83,3.59,2,2.94,5.11-.48,2.23-1.1,4.44-1.51,6.68a12.67,12.67,0,0,0,.14,2.83c.55-2.16,1-4.12,1.53-6,.37-1.34.93-2.64,1.24-4,.74-3.14-.19-5-3.19-6.18a7.15,7.15,0,0,1-4.53-4.58,62.27,62.27,0,0,1-2-8.85,5.13,5.13,0,0,1,.81-3.32,45.66,45.66,0,0,0,6.22-13.82c.49-2,.88-4,1.31-5.94.84,3.17,1.94,6.42,1.57,9.49s-2.23,5.83-3.44,8.74l.23.16L273,394.8v9.1h.43c.27-3.67.54-7.33.8-10.84l9.93,6.2c0-1.83-1.2-3-2.87-3.88-2.66-1.34-4.9-3.27-5.44-6.24-.65-3.51-.73-7.12-1.1-11.06.77.55,1.18.91,1.65,1.17,2.37,1.29,4.64,2.9,7.16,3.74,4,1.34,7.12,3.5,9.13,7.25.24.46,1,.65,1.48,1a4.51,4.51,0,0,0-.13-1.67,19.88,19.88,0,0,0-8.45-8.53,26,26,0,0,1-13.19-14.83,98.91,98.91,0,0,0-7.61-15.28c-.27-.45-.44-1-.8-1.73a10.44,10.44,0,0,1,1.59.49c4,2.26,8.05,4.55,12.08,6.81,1.13.63,1.31,1.61,1.48,2.83.6,4.19,1.35,8.36,2.2,12.51a15.36,15.36,0,0,0,1.55,3.29l.55-.2a40.37,40.37,0,0,1-3.15-16.19,8.44,8.44,0,0,1,1.49,1.15c2.8,3.51,5.55,7,8.33,10.56a29,29,0,0,0,3.37,4.07c3,2.56,7.84,2.72,10.67.42a10.83,10.83,0,0,0-1.23.15c-5.59,1.27-8.89-.32-11.48-5.49a40.9,40.9,0,0,0-2.28-4.16c-6.63-10.19-16.19-16.6-27.23-21.12a8.62,8.62,0,0,1-2.9-2.21c-3.95-4.37-7.83-8.81-11.73-13.22-.32-.36-.66-.7-1-1,2-2.08,4.11-3.19,6.9-1.54a10.08,10.08,0,0,0,3.14.65,8.87,8.87,0,0,1,6.39,4.58,14.13,14.13,0,0,0,4.26,4.38,18.23,18.23,0,0,0,5.45,2.14,3.38,3.38,0,0,1,2.59,2.22c.65,1.87,1.24,3.75,1.86,5.63h.26v-5.35a15.94,15.94,0,0,1,1.29,1.91c1.1,2.63,2.22,5.25,3.21,7.92a13.93,13.93,0,0,0,6.26,7.85A16,16,0,0,0,290,359l.27-.48a11,11,0,0,1-6.3-6c-1.1-2.75-1.88-5.62-2.8-8.43l.47-.3c2,2.34,4.57,4.11,7.51,4.09,4.23,0,7.82,1.57,11.53,3.12a32.58,32.58,0,0,0,4.18,1.27,16.09,16.09,0,0,0,1.71.31l.08-.33-10.3-4.09L298,347c-1.53-.31-3.3-.14-4.2-1a22.78,22.78,0,0,1-5.49-6.41c-2-4.07-3.37-8.45-7.55-11.07l.27-.6,11.06,1c-6.13-2.26-12.27-4.13-18.67-1.05a19.45,19.45,0,0,1-3.87,1.52c-2.94.71-3.31.4-4.08-2.79.63-.08,1.25-.16,1.86-.22,3-.28,5.94-.56,8.91-.82,2.21-.19,3.81-1,4.49-3.37s2.43-3.75,5.16-3.89a80.63,80.63,0,0,0,8.3-1.11,7.42,7.42,0,0,0,5.41-3.26c-3.61,2.64-7.77,2.13-11.82,2.6L291.3,311l-.49-.32-3.7,4.25-.46-.27c.89-3,1.45-6.05.09-9.09-.11-.26.47-.91.82-1.28,1.09-1.14,2.22-2.23,3.34-3.34.24-.4.49-.8.73-1.21l-.31-.19-.77,1L285.76,304c-1.54-1.57-1.94-3.08-1.12-4.83l.3-.35.39-.39.29-.51-.55.24-.43.33-.37.39c-1.56,1.87-.86,3.66.24,5.39,3.55,5.57,1.69,11.31-4.49,13.67a48.78,48.78,0,0,0-1.6-4.83,2.19,2.19,0,0,1,.43-2.84,5.15,5.15,0,0,0,1.46-5.55c-.23-.71.3-1.66.47-2.51l.35-.35.16-.45-.42.17-.42.34c-.36,1.08-1.1,2.19-1,3.23.22,2.24-.93,3.5-2.31,4.75l-.69,0c-.28-1.85-.57-3.69-.86-5.64-2.21,3.13.22,5.85,1,8.48-2.84,0-5.5-.14-8.14,0a9.73,9.73,0,0,0-6.71,3.6,3.77,3.77,0,0,0,1.69-.64,10.12,10.12,0,0,1,7.07-1.64c1.57.19,3.16.31,4.71.63.85.17,2.23.54,2.36,1.07a23.38,23.38,0,0,1,.47,5.49c0,.34-1,.91-1.59,1a43.89,43.89,0,0,1-5.13,0c-4.74-.25-9.5-.38-14.22-.9-3.22-.35-3.43-1-2.42-4a9.72,9.72,0,0,0,.59-2,7.78,7.78,0,0,1,2.19-4.29,42.32,42.32,0,0,0,5.35-7.35,4.83,4.83,0,0,1,4.42-2.84,12.09,12.09,0,0,1,1.89-.13,7.85,7.85,0,0,0,6.45-2.68c2.33-2.35,5-3.57,8.41-3,.05,0,.12-.13.3-.32a8.94,8.94,0,0,0-8.33,1.38c-1.37,1-2.82,1.9-4.24,2.84l-.64-.51q1.4-3.48,2.78-7c.08-.18.15-.35.22-.53l.34-.43.07-.29c0,.11,0,.22,0,.33l-.51.24-.34.42a42.78,42.78,0,0,0-2.75,4.51c-1.52,3.28-1.79,3.54-5.4,3.19-.37,0-.94-.28-1-.55-.55-1.6-1-3.24-1.45-4.85,7.61-3.09,6.65-5.61,6.87-10-.69,1.59-1.07,3.33-1.89,4.83-.92,1.68-2.64,2.32-4.85,2.56,1-4.56,3.34-8.8.3-13.11v5.65c-2.73-1.81-1.9-5-3.73-6.69.85,2.64.28,5.79,2.82,7.59l-3.91,9.53-3.38-3.14-1.37-.74a9.4,9.4,0,0,0,3.87,4.89c1.9,1.27,2.64,3,1.54,5-1.41,2.51-3.19,4.81-5.08,7.59-1.41-1.56-2.41-2.8-3.55-3.9a1.82,1.82,0,0,1,0-3.05c1.08-1,2.26-1.85,3.28-2.89,1.28-1.32,1.14-2.55.08-3.21-.37.87-.53,2-1.18,2.54a43.83,43.83,0,0,1-4.6,3.08,15.73,15.73,0,0,1-2.39-7.75c-.1-2.93,0-5.7,2.24-8.14,1.26-1.38,1.73-3.47,2.55-5.24l-.31-.11-4.71,6-1.8-2.63c1.46,2.69-.43,4.87-1,7.23a20.6,20.6,0,0,0-.4,2,18.66,18.66,0,0,0,1.86,10.74,6.28,6.28,0,0,0-4,5.69c.84-.84,1.42-1.89,2.23-2.72,1.49-1.55,2.51-1.39,3.85.18,1.15,1.35,2.45,2.56,3.62,3.89.32.36.67,1.05.53,1.39-2.37,5.65-6.51,10.26-14,8.46C234.05,318.48,231.59,317.6,229.11,316.84Zm71.81-3.93c.06-.22.11-.44.16-.65h.07l0,0-.42.34-.18.38Zm-41.6-37.19,0,.17h.23c0-.05,0-.12-.05-.16S259.37,275.73,259.32,275.72Zm40.92,37.84-.14-.12-.12.13s.09.12.13.12S300.19,313.61,300.24,313.56Z"/><path class="cls-4" d="M290.9,300.92c-1.12,1.11-2.25,2.2-3.34,3.34-.35.37-.93,1-.82,1.28,1.36,3,.8,6-.09,9.09l.46.27,3.7-4.25.49.32-3.52,5.57c4.05-.47,8.21,0,11.82-2.6a7.42,7.42,0,0,1-5.41,3.26,80.63,80.63,0,0,1-8.3,1.11c-2.73.14-4.43,1.4-5.16,3.89s-2.28,3.18-4.49,3.37c-3,.26-5.94.54-8.91.82-.61.06-1.23.14-1.86.22.77,3.19,1.14,3.5,4.08,2.79a19.45,19.45,0,0,0,3.87-1.52c6.4-3.08,12.54-1.21,18.67,1.05l-11.06-1-.27.6c4.18,2.62,5.54,7,7.55,11.07A22.78,22.78,0,0,0,293.8,346c.9.81,2.67.64,4.2,1l-1.61,1.22,10.3,4.09-.08.33a16.09,16.09,0,0,1-1.71-.31,32.58,32.58,0,0,1-4.18-1.27c-3.71-1.55-7.3-3.15-11.53-3.12-2.94,0-5.5-1.75-7.51-4.09l-.47.3c.92,2.81,1.7,5.68,2.8,8.43a11,11,0,0,0,6.3,6L290,359a16,16,0,0,1-2.11-.78,13.93,13.93,0,0,1-6.26-7.85c-1-2.67-2.11-5.29-3.21-7.92a15.94,15.94,0,0,0-1.29-1.91v5.35h-.26c-.62-1.88-1.21-3.76-1.86-5.63a3.38,3.38,0,0,0-2.59-2.22,18.23,18.23,0,0,1-5.45-2.14,14.13,14.13,0,0,1-4.26-4.38,8.87,8.87,0,0,0-6.39-4.58,10.08,10.08,0,0,1-3.14-.65c-2.79-1.65-4.86-.54-6.9,1.54.3.32.64.66,1,1,3.9,4.41,7.78,8.85,11.73,13.22a8.62,8.62,0,0,0,2.9,2.21c11,4.52,20.6,10.93,27.23,21.12a40.9,40.9,0,0,1,2.28,4.16c2.59,5.17,5.89,6.76,11.48,5.49a10.83,10.83,0,0,1,1.23-.15c-2.83,2.3-7.7,2.14-10.67-.42a29,29,0,0,1-3.37-4.07c-2.78-3.52-5.53-7.05-8.33-10.56a8.44,8.44,0,0,0-1.49-1.15,40.37,40.37,0,0,0,3.15,16.19l-.55.2a15.36,15.36,0,0,1-1.55-3.29c-.85-4.15-1.6-8.32-2.2-12.51-.17-1.22-.35-2.2-1.48-2.83-4-2.26-8-4.55-12.08-6.81a10.44,10.44,0,0,0-1.59-.49c.36.78.53,1.28.8,1.73a98.91,98.91,0,0,1,7.61,15.28A26,26,0,0,0,285.57,381a19.88,19.88,0,0,1,8.45,8.53,4.51,4.51,0,0,1,.13,1.67c-.51-.32-1.24-.51-1.48-1-2-3.75-5.12-5.91-9.13-7.25-2.52-.84-4.79-2.45-7.16-3.74-.47-.26-.88-.62-1.65-1.17.37,3.94.45,7.55,1.1,11.06.54,3,2.78,4.9,5.44,6.24,1.67.85,2.84,2.05,2.87,3.88l-9.93-6.2c-.26,3.51-.53,7.17-.8,10.84H273v-9.1l-3.42,4.95-.23-.16c1.21-2.91,3.07-5.73,3.44-8.74s-.73-6.32-1.57-9.49c-.43,2-.82,4-1.31,5.94a45.66,45.66,0,0,1-6.22,13.82,5.13,5.13,0,0,0-.81,3.32,62.27,62.27,0,0,0,2,8.85,7.15,7.15,0,0,0,4.53,4.58c3,1.17,3.93,3,3.19,6.18-.31,1.35-.87,2.65-1.24,4-.53,1.93-1,3.89-1.53,6a12.67,12.67,0,0,1-.14-2.83c.41-2.24,1-4.45,1.51-6.68.65-3.07,0-4.28-2.94-5.11-3.21-.9-5.14-3.17-6.58-5.94-.89-1.73-1.55-3.58-2.2-5.1a77.82,77.82,0,0,0-7,6.58c-1,1.16-1,3.16-1.37,4.54-1.39-1.63-1-4.38,1.37-6.39a14.1,14.1,0,0,0,5-7.44l.09-.64-.46.23c-4.15,2-8.25,4-12.48,5.83a13.54,13.54,0,0,1-5.32.67A41.46,41.46,0,0,0,256,403.53c.11-.14.22-.28.32-.43l-.63.1c-1.89.48-3.77,1.06-5.69,1.4a4.61,4.61,0,0,1-2.62-.63c3.79.38,6.93-1.13,10-3a3.93,3.93,0,0,0,.8-.52c4.27-4.5,6.29-10.05,7.94-16.35a18.81,18.81,0,0,0-7.91,5.63c-1.53,1.83-3.34,3.2-6,3.11,3.45-1,4.92-4.17,7.27-6.36,1.65-1.53,3.73-2.59,5.51-4a4.23,4.23,0,0,0,1.66-2.22,48,48,0,0,0-.42-15.32,5,5,0,0,0-.65-1.76c-7-11.31-15.32-21.47-26.23-29.27a40.86,40.86,0,0,0-13.65-6.47c-3.3-1.85-6.6-3.72-9.94-5.5a1.83,1.83,0,0,0-1.48.18c-3,1.67-5.91,3.41-8.85,5.13-16.12,3.48-27.23,13.52-35.39,27.27-2.12,3.57-4.46,7.32-5.25,11.27-1,4.76-.42,9.82-.41,14.75a2.4,2.4,0,0,0,1.17,1.69,25.56,25.56,0,0,1,8.64,7.31c1,1.38,2.81,2.22,4.47,3.48a5.85,5.85,0,0,1-2-.43,24.28,24.28,0,0,1-4.12-3.27,20.74,20.74,0,0,0-7.37-5.15,16.5,16.5,0,0,0,.23,1.75,36,36,0,0,0,5.54,12.23,5,5,0,0,0,2.8,1.95c3.55.6,7.15.9,10.74,1.3a3.61,3.61,0,0,1,1.41.32c-4.21,1.18-8.49.76-13,.39a15,15,0,0,0,4.84,10.33,16.14,16.14,0,0,1,3.2,3.95c1.61,3.1-.23,6.71-4.13,7.82.83-.79,1.4-1.31,1.94-1.84,2.17-2.13,2.36-4.43.36-6.73a46.52,46.52,0,0,0-3.52-3.18,24.26,24.26,0,0,1-2.1-2.2c-.6-.71-1.1-1.49-1.75-2.39-.82,1.92-1.47,3.7-2.31,5.38-1.54,3.14-3.77,5.5-7.34,6.4-2.11.53-2.83,1.83-2.4,4.05s1,4.19,1.43,6.31a13.82,13.82,0,0,1,.12,3.52c-.95-3.15-2-6.28-2.82-9.47s.18-5.07,3.32-6.29a7.19,7.19,0,0,0,4.52-4.83,94.54,94.54,0,0,0,1.95-9.64,2.6,2.6,0,0,0-.51-1.75,45.27,45.27,0,0,1-7.91-21.36,1.06,1.06,0,0,0-.39-.66c-1,3.39-1.94,6.89-1.29,10.32s2.22,6.47,3.48,10l-3.37-4.65v8.65l-.61,0-.45-5.91c-.14-2-.28-3.92-.42-5.82-1.72,1.31-3.4,2.66-5.16,3.9-1.52,1.08-3.13,2-4.71,3,.15-1.38,1.19-2.43,2.64-3.29a24,24,0,0,0,3.91-2.65,8.3,8.3,0,0,0,2.7-5.89c.21-3.41.6-6.8.94-10.45a17.57,17.57,0,0,1-1.55,1.27c-2.42,1.47-4.72,3.29-7.33,4.28C144,384,140.39,386.11,138,390c-.19.32-.29.69-.75.75a14.26,14.26,0,0,1,5.82-8.1,18.93,18.93,0,0,1,3-1.67A20.63,20.63,0,0,0,157,370.32c3-6.8,5.63-13.79,8.12-21.14-2.6,1.35-5.22,2.68-7.81,4.06-3.56,1.89-5.94,4.2-5.85,8.91.07,3.62-1.45,7.27-2.35,10.88a4.45,4.45,0,0,1-1.38,2,45.67,45.67,0,0,0,2.92-16.41,14.4,14.4,0,0,0-1.75,1.59c-1.81,2.45-3.67,4.86-5.3,7.42-2.09,3.28-4.55,6.12-8.14,7.75a8.62,8.62,0,0,1-8.36-.26,4.4,4.4,0,0,1,1.09,0,9.24,9.24,0,0,0,9.13-2.49,22,22,0,0,0,4.54-5.78c5.29-10.54,13.69-17.45,24.51-21.63a5.79,5.79,0,0,0,3.12-2.53,64.9,64.9,0,0,1,11.25-13.85c.41-.38.78-.81,1.19-1.24-.94-1.66-2.1-2.37-3.86-1.32a1.32,1.32,0,0,1-.55.14c-4.76.4-8.28,2.37-10.46,7-1.2,2.52-4.13,3.68-6.82,4.12-4.14.69-5.05,3.66-5.76,7-.09.43-.13.87-.21,1.3,0,.05-.08.09-.64.13l.24-4.84,0-.49-.23.25c-1.39,2.95-2.68,6-4.19,8.85a42,42,0,0,1-4.18,6.87c-1,1.22-2.71,1.84-4.1,2.72l-.34-.52a3.33,3.33,0,0,1,.7-.61,12.26,12.26,0,0,0,6.32-7.69c.86-2.64,1.68-5.3,2.52-8l.09-.62-.42.3a10.52,10.52,0,0,0-1.28,1.4c-2.31,3.72-5.92,4.8-10,4.83a12.46,12.46,0,0,0-5.09,1.16c-2.65,1.16-5.47,2-8.23,2.9a1.65,1.65,0,0,1-1.26-.16l9.58-3.73.11-.59c-4.26-1.31-7.68-3.62-9.84-7.42l.33-.39a12.57,12.57,0,0,1,1,.91A15,15,0,0,0,135.6,346a3.65,3.65,0,0,0,2.7-.85,32,32,0,0,0,4.92-6.87c1.68-3.68,3.26-7.3,7.26-9.89-4.29-.71-8,.3-11.71.74,0-.26-.09-.51-.13-.77,3-.66,6-1.5,9.1-1.93a15.92,15.92,0,0,1,10.83,2,8.14,8.14,0,0,0,2.12.83c3.27.94,3.42.86,5-2.64-2.33-.21-4.57-.4-6.8-.62-1.58-.16-3.15-.36-4.73-.51a4.17,4.17,0,0,1-3.91-3.07,17.41,17.41,0,0,0-1.37-2.68c-1.18.59-2.1,1.15-3.09,1.54-3.56,1.42-6.93.34-8.49-3.14-1.47-3.27-3.49-5.53-7.74-5.91a7,7,0,0,1,7.49,2.95c.51.79.89,1.68,1.4,2.48,2.06,3.27,5.86,3.6,8.91.52-3.32-1.62-6.72-3.2-7.5-7.77l3.77,4.31.49-.32a12,12,0,0,1-.47-2.33,25.57,25.57,0,0,1,.29-5.61,2,2,0,0,0-.86-2.48,49.06,49.06,0,0,1-3.63-3.44l.33-.37,5.22,3.71c2-1.78,2.17-2.74,1-5.25l.24-.24c1.75,1.83,1.93,3.38.22,5.76-2.12,2.94-2.18,6-1,9.2a4.56,4.56,0,0,0,2.61,3,15.11,15.11,0,0,1,2.86,1.94c.64-2.17,1.34-4.4,1.91-6.66.08-.34-.38-.88-.68-1.25-1.37-1.68-2.35-3.38-1.57-5.74.27-.83-.21-1.9.07-3.05.34,1.07,1.14,2.24.92,3.19-.53,2.39.75,3.69,2.3,5.11,1.84-1.59,1.69-3.53.93-5.93a3.75,3.75,0,0,1,1.38,4.51A39,39,0,0,1,154,313c5.5-.35,11-1.5,15.3,3.25-.31,0-.55.16-.64.09-4-3.19-8.59-2.47-13.14-1.68-2.6.45-2.92.89-2.54,3.49.5,3.48,1.48,4.25,5,4.09,4-.19,8.11-.33,12.17-.49.69,0,1.39-.05,2.09-.14,4.32-.53,4.35-.8,3.63-4.9a14.22,14.22,0,0,0-3.58-7.11c-1.85-2.13-3.2-4.69-4.84-7a3.35,3.35,0,0,0-1.64-1.33,14.85,14.85,0,0,0-4.13-.56,8.42,8.42,0,0,1-6-2.38c-3.94-3.37-4-3.33-9.34-3.35,5.59-2.43,8.92,1.83,12.89,3.91l.59-.43-2.73-7.13a2,2,0,0,0,.27-.24c1.11,2,2.35,4,3.29,6.13.5,1.12.91,1.81,2.27,1.66a29.76,29.76,0,0,1,3.41,0,36.5,36.5,0,0,0,1.35-4.23,1.87,1.87,0,0,0-.81-1.65c-3.63-1.23-5.72-3.53-5.87-7.47a9.21,9.21,0,0,0-.72-2.33l.32-.3a26.09,26.09,0,0,1,1.54,3.58,5.47,5.47,0,0,0,5.73,4.28c-.42-1.44-.87-2.8-1.19-4.19a19.56,19.56,0,0,1-.71-4.46,19.81,19.81,0,0,1,.85-4.1l.63.08v5.31c2.83-1.52,1.94-4.59,3.66-6.22-.62,2.52-.18,5.4-2.65,7.19l3.78,9.21c1.73-.43,3.08-1.25,2.82-3.36l1.73,1.26a40.55,40.55,0,0,1-3.61,3.45c-1.82,1.36-2.59,3-1.46,5,1.38,2.47,3.13,4.73,4.87,7.32,5.41-4.66,8.81-9.87,8.59-16.91a9.6,9.6,0,0,0-2.1-5.92c-1.2-1.56-1.57-3.76-2.31-5.67l0,0c1,1.45,2,2.94,3.14,4.35a10,10,0,0,0,1.6,1.35l1.75-2.27,0,0c-.93,2.56.27,4.81.9,7.21,1.94,7.44-.7,13.62-6,18.68-1.69,1.6-2,2.81-.71,4.6.44.61.72,1.33,1.13,2,3.45,5.39,6.49,6.48,12.52,4.45,2.39-.8,4.74-1.71,7.11-2.57a50.77,50.77,0,0,0,5.62-3.43,6.35,6.35,0,0,0,2.32-5.37c-.06-17.89,0-35.78,0-53.66a18.41,18.41,0,0,0-.15-2.47,4.39,4.39,0,0,1,3-5.24,6.87,6.87,0,0,1,5.89.26,4,4,0,0,1,2.42,4c-.06,18.84,0,37.68-.2,56.52,0,4.16,1.82,6.68,5.19,8.5.94.5,2,.85,3,1.27,2.48.76,4.94,1.64,7.46,2.25,7.45,1.8,11.59-2.81,14-8.46.14-.34-.21-1-.53-1.39-1.17-1.33-2.47-2.54-3.62-3.89-1.34-1.57-2.36-1.73-3.85-.18-.81.83-1.39,1.88-2.23,2.72a6.28,6.28,0,0,1,4-5.69,18.66,18.66,0,0,1-1.86-10.74,20.6,20.6,0,0,1,.4-2c.58-2.36,2.47-4.54,1-7.23l1.8,2.63,4.71-6,.31.11c-.82,1.77-1.29,3.86-2.55,5.24-2.23,2.44-2.34,5.21-2.24,8.14a15.73,15.73,0,0,0,2.39,7.75,43.83,43.83,0,0,0,4.6-3.08c.65-.55.81-1.67,1.18-2.54,1.06.66,1.2,1.89-.08,3.21-1,1-2.2,1.92-3.28,2.89a1.82,1.82,0,0,0,0,3.05c1.14,1.1,2.14,2.34,3.55,3.9,1.89-2.78,3.67-5.08,5.08-7.59,1.1-2,.36-3.69-1.54-5a9.4,9.4,0,0,1-3.87-4.89l1.37.74,3.38,3.14,3.91-9.53c-2.54-1.8-2-4.95-2.82-7.59,1.83,1.73,1,4.88,3.73,6.69v-5.65c3,4.31.74,8.55-.3,13.11,2.21-.24,3.93-.88,4.85-2.56.82-1.5,1.2-3.24,1.89-4.83-.22,4.38.74,6.9-6.87,10,.47,1.61.9,3.25,1.45,4.85.09.27.66.52,1,.55,3.61.35,3.88.09,5.4-3.19a42.78,42.78,0,0,1,2.75-4.51l.26.26q-1.38,3.48-2.78,7l.64.51c1.42-.94,2.87-1.84,4.24-2.84a8.94,8.94,0,0,1,8.33-1.38c-.18.19-.25.33-.3.32-3.37-.6-6.08.62-8.41,3a7.85,7.85,0,0,1-6.45,2.68,12.09,12.09,0,0,0-1.89.13,4.83,4.83,0,0,0-4.42,2.84,42.32,42.32,0,0,1-5.35,7.35,7.78,7.78,0,0,0-2.19,4.29,9.72,9.72,0,0,1-.59,2c-1,3-.8,3.64,2.42,4,4.72.52,9.48.65,14.22.9a43.89,43.89,0,0,0,5.13,0c.57-.05,1.58-.62,1.59-1a23.38,23.38,0,0,0-.47-5.49c-.13-.53-1.51-.9-2.36-1.07-1.55-.32-3.14-.44-4.71-.63a10.12,10.12,0,0,0-7.07,1.64,3.77,3.77,0,0,1-1.69.64,9.73,9.73,0,0,1,6.71-3.6c2.64-.18,5.3,0,8.14,0-.8-2.63-3.23-5.35-1-8.48.29,1.95.58,3.79.86,5.64l.69,0c1.38-1.25,2.53-2.51,2.31-4.75-.1-1,.64-2.15,1-3.23l.33.29c-.17.85-.7,1.8-.47,2.51a5.15,5.15,0,0,1-1.46,5.55,2.19,2.19,0,0,0-.43,2.84,48.78,48.78,0,0,1,1.6,4.83c6.18-2.36,8-8.1,4.49-13.67-1.1-1.73-1.8-3.52-.24-5.39l.37.29c-.82,1.75-.42,3.26,1.12,4.83l4.79-3.46ZM140.33,345.39a5.08,5.08,0,0,0,4.84-2.39,18.21,18.21,0,0,1,11.92-8.69,34.89,34.89,0,0,0,3.7-1.38c-1.82-1.06-3.25-2-4.78-2.73a4.57,4.57,0,0,0-2.65-.46c-3.88.75-6.08,3.56-7.51,6.9a28.24,28.24,0,0,1-5.48,8.78.91.91,0,0,0-.13.08s0,.06,0,.1Zm129.83-12.48a32.89,32.89,0,0,0,3.18,1.21c4.82,1.26,8.89,3.36,11.2,8.22,1.09,2.31,4.55,3.8,6.74,3.5-3.17-2.56-4.78-5.95-6.31-9.45-1.23-2.84-3.1-5.32-6.2-6.31a6.2,6.2,0,0,0-3.74.1A34,34,0,0,0,270.16,332.91Zm-54.61-85.36c-2.09,0-4,1.25-4.05,2.71s1.7,2.77,3.92,2.79h.19c2.07-.05,3.82-1.25,3.88-2.67S217.64,247.57,215.55,247.55Zm65.54,95.89.08-.13-.13,0Z"/><path class="cls-3" d="M270.16,332.91a34,34,0,0,1,4.87-2.73,6.2,6.2,0,0,1,3.74-.1c3.1,1,5,3.47,6.2,6.31,1.53,3.5,3.14,6.89,6.31,9.45-2.19.3-5.65-1.19-6.74-3.5-2.31-4.86-6.38-7-11.2-8.22A32.89,32.89,0,0,1,270.16,332.91Z"/><path class="cls-3" d="M140.37,345.42a28.24,28.24,0,0,0,5.48-8.78c1.43-3.34,3.63-6.15,7.51-6.9a4.57,4.57,0,0,1,2.65.46c1.53.72,3,1.67,4.78,2.73a34.89,34.89,0,0,1-3.7,1.38A18.21,18.21,0,0,0,145.17,343a5.08,5.08,0,0,1-4.84,2.39Z"/><path class="cls-3" d="M215.55,247.55c2.09,0,4,1.4,3.94,2.83s-1.81,2.62-3.88,2.67h-.19c-2.22,0-4-1.27-3.92-2.79S213.46,247.52,215.55,247.55Z"/></g></g></svg>