<svg xmlns="http://www.w3.org/2000/svg" viewBox="0 0 542.2 529.2"><defs><style>.cls-1{fill:#9cd3ff;}.cls-2{fill:#034a84;}.cls-3{fill:none;stroke:#c7effd;stroke-miterlimit:10;stroke-width:25px;}.cls-4{fill:#c7effd;}</style></defs><title>lung_blueAsset 5</title><g id="Layer_2" data-name="Layer 2"><g id="Layer_1-2" data-name="Layer 1"><path class="cls-1" d="M255.07,202.8a118.51,118.51,0,0,1-2.79,33.77c-1.11,5.15.32,10.81.34,16.25.06,14.83.26,29.68-.17,44.5-.19,6.4-1.52,12.82-2.84,19.12-1.62,7.76-6.21,13.71-12,19.1-19.34,17.95-42.48,29.93-65.51,42-9.79,5.15-20,9.53-30.16,13.88-4.55,1.95-9.59,2.7-14.21,4.51a39.64,39.64,0,0,0-16.93,12.11,4.61,4.61,0,0,1-.37.4c-5.24,5.52-10.1,4.6-11.64-2.86a137.45,137.45,0,0,1-2.46-22.47c-.4-10.79-.42-21.61,0-32.4,1.3-37.71,7-74.74,18.19-110.84,9.32-30,22-58.37,39.25-84.63,8.87-13.52,18.43-26.57,29.61-38.29,6.79-7.12,14.27-13.47,24.42-15.41a44.41,44.41,0,0,1,19.2.56c8.93,2.21,14.1,8.37,16.6,16.93,3,10.19,2,20.43.31,30.71-.91,5.63-1.57,11.32-1.94,17a21,21,0,0,0,4.24,13.76c1.49,2.1,2.74,4.37,4.1,6.57-3.44,1.25-6.87,2.57-10.34,3.74-8.78,2.94-13.19,1.35-18.21-6.48-.59-.93-1-2-1.64-2.87-1.85-2.61-1.43-4.35,1-6.69,7.77-7.36,11.61-16.34,8.78-27.17-.91-3.49-2.66-6.76-1.31-10.48l.37-.24-.25-.18-.08.45-2.55,3.31a14.46,14.46,0,0,1-2.33-2c-1.59-2.05-3.06-4.21-4.57-6.33l-.2-.07.24,0c1.07,2.79,1.61,6,3.36,8.25a14.13,14.13,0,0,1,3.06,8.61c.31,10.25-4.64,17.81-12.5,24.59-2.54-3.76-5.09-7.05-7.1-10.64-1.63-2.92-.51-5.28,2.13-7.26a56.44,56.44,0,0,0,5.25-5l-2.51-1.83c.38,3.06-1.59,4.26-4.1,4.88l-5.5-13.4c3.59-2.6,3-6.79,3.85-10.46-2.5,2.38-1.2,6.85-5.32,9.06v-7.74l-.92-.11c-.44,2-1.22,4-1.24,6a28.45,28.45,0,0,0,1.05,6.48c.45,2,1.12,4,1.72,6.1-4.51,0-7.25-2.32-8.34-6.23a40.08,40.08,0,0,0-2.23-5.2l-.87-.82h-.92l.58.4c.25.28.5.57.74.86a13.18,13.18,0,0,1,1.05,3.38c.22,5.74,3.26,9.09,8.53,10.87a2.76,2.76,0,0,1,1.19,2.4,57.27,57.27,0,0,1-2,6.16,45.63,45.63,0,0,0-5,0c-2,.21-2.58-.78-3.3-2.41-1.37-3.08-3.17-6-4.79-8.91l-.89-.8a.92.92,0,0,0-.09-.23s-.12,0-.18,0l.32.18.46,1.2,4,10.36-.86.63c-5.77-3-10.62-9.22-18.74-5.69,7.8,0,7.85,0,13.58,4.87,2.56,2.19,5.24,3.59,8.73,3.47a21.19,21.19,0,0,1,6,.81,4.8,4.8,0,0,1,2.37,1.93c2.39,3.38,4.36,7.1,7.05,10.21a20.51,20.51,0,0,1,5.2,10.33c1.05,6,1,6.36-5.28,7.14-1,.12-2,.15-3,.19-5.9.24-11.8.44-17.7.72-5.08.24-6.5-.89-7.23-5.95-.54-3.79-.09-4.43,3.71-5.09,6.61-1.15,13.21-2.19,19.1,2.45.13.11.48-.06.93-.13-6.24-6.91-14.26-5.23-22.24-4.73a57.59,57.59,0,0,0,3.16-6.58,5.45,5.45,0,0,0-2-6.56c1.09,3.49,1.32,6.31-1.36,8.62-2.25-2.07-4.11-3.95-3.34-7.43.31-1.38-.85-3.08-1.34-4.64-.41,1.67.29,3.23-.11,4.44-1.12,3.42.29,5.89,2.29,8.35.44.53,1.11,1.32,1,1.82-.83,3.28-1.85,6.52-2.77,9.68a21.85,21.85,0,0,0-4.16-2.82c-2.14-.86-3.07-2.45-3.79-4.41-1.74-4.71-1.65-9.11,1.43-13.38,2.49-3.46,2.22-5.71-.32-8.38l-.58-.16.24.51c1.77,3.65,1.55,5-1.39,7.64l-7.59-5.4-.48.53a71.16,71.16,0,0,0,5.28,5c1.36,1.05,1.64,1.83,1.24,3.62a38.16,38.16,0,0,0-.41,8.16,17,17,0,0,0,.68,3.38l-.72.46-5.47-6.27c1.13,6.66,6.07,8.94,10.91,11.31-4.45,4.48-10,4-13-.76-.74-1.17-1.28-2.46-2-3.61a10.2,10.2,0,0,0-10.89-4.28c6.19.55,9.12,3.83,11.26,8.59,2.27,5.06,7.18,6.63,12.35,4.57,1.44-.58,2.78-1.38,4.5-2.25a28.17,28.17,0,0,1,2,3.9,6.05,6.05,0,0,0,5.69,4.46c2.29.22,4.58.52,6.87.75,3.25.32,6.51.6,9.89.91-2.35,5.08-2.57,5.2-7.33,3.83a12.1,12.1,0,0,1-3.08-1.2,23.08,23.08,0,0,0-15.75-2.93c-4.46.62-8.83,1.85-13.24,2.81.07.37.13.75.19,1.12,5.41-.64,10.8-2.11,17-1.08-5.82,3.77-8.11,9-10.55,14.39-1.68,3.67-4.52,6.85-7.16,10-.75.9-2.63,1.33-3.94,1.23a21.72,21.72,0,0,1-14.81-7.19,15.49,15.49,0,0,0-1.48-1.32l-.48.56c3.14,5.53,8.12,8.89,14.33,10.8-.06.28-.12.56-.17.85L137,239.12a2.35,2.35,0,0,0,1.83.23c4-1.35,8.11-2.52,12-4.21a18.2,18.2,0,0,1,7.39-1.7c5.88,0,11.14-1.6,14.49-7a14.83,14.83,0,0,1,1.86-2l.48.46c-1.21,3.85-2.41,7.72-3.66,11.56-1.6,4.92-4.42,8.86-9.2,11.19a5.3,5.3,0,0,0-1,.89l.51.76c2-1.29,4.55-2.18,6-4a61.73,61.73,0,0,0,6.08-10c2.19-4.2,4.07-8.57,6.09-12.87.12.12.25.23.38.34q-.16,3.53-.35,7.05c.82-.06.93-.12.94-.19.11-.63.17-1.26.3-1.89,1-4.82,2.35-9.13,8.38-10.13,3.91-.65,8.18-2.34,9.92-6,3.17-6.67,8.28-9.53,15.2-10.11a1.89,1.89,0,0,0,.8-.2c2.57-1.53,4.26-.5,5.62,1.92-.6.63-1.13,1.25-1.73,1.8a94.62,94.62,0,0,0-16.36,20.14,8.41,8.41,0,0,1-4.53,3.68c-15.74,6.09-28,16.14-35.66,31.47a32.22,32.22,0,0,1-6.6,8.41,13.48,13.48,0,0,1-13.28,3.62,6.49,6.49,0,0,0-1.59,0,12.54,12.54,0,0,0,12.16.39c5.23-2.39,8.8-6.51,11.84-11.29,2.37-3.72,5.08-7.23,7.71-10.78a20.46,20.46,0,0,1,2.54-2.31c-.13,8.65-1.3,16.38-4.24,23.86a6.38,6.38,0,0,0,2-2.86c1.31-5.26,3.53-10.57,3.43-15.83-.14-6.86,3.33-10.21,8.51-13,3.77-2,7.57-3.94,11.36-5.91-3.63,10.69-7.4,20.87-11.82,30.75a30,30,0,0,1-15.91,15.51,26.66,26.66,0,0,0-4.33,2.43A20.68,20.68,0,0,0,156,295.09c.67-.08.81-.63,1.09-1.1,3.41-5.65,8.6-8.79,14.68-11.11,3.79-1.45,7.14-4.09,10.66-6.24a21.88,21.88,0,0,0,2.25-1.84c-.49,5.31-1.06,10.25-1.37,15.2a12.09,12.09,0,0,1-3.93,8.57,34.1,34.1,0,0,1-5.68,3.84c-2.11,1.26-3.62,2.78-3.84,4.8,2.29-1.47,4.64-2.85,6.86-4.42,2.55-1.8,5-3.77,7.49-5.67.2,2.76.41,5.61.62,8.46s.43,5.73.65,8.59l.89,0V301.56l4.9,6.77c-1.83-5.07-4.14-9.64-5.06-14.48s.39-10.08,1.87-15a1.48,1.48,0,0,1,.57,1,65.82,65.82,0,0,0,11.51,31.06,3.91,3.91,0,0,1,.75,2.55,140.34,140.34,0,0,1-2.85,14,10.48,10.48,0,0,1-6.58,7c-4.56,1.77-6,4.4-4.82,9.14s2.72,9.19,4.1,13.78a20,20,0,0,0-.17-5.13c-.59-3.07-1.5-6.09-2.09-9.17s.42-5.13,3.49-5.9c5.21-1.3,8.44-4.74,10.69-9.29,1.21-2.46,2.17-5,3.36-7.84.94,1.31,1.67,2.45,2.54,3.48a35.59,35.59,0,0,0,3.06,3.2,68.35,68.35,0,0,1,5.11,4.63c2.92,3.34,2.64,6.69-.52,9.78-.79.78-1.61,1.53-2.82,2.69,5.67-1.63,8.35-6.88,6-11.39a23.59,23.59,0,0,0-4.65-5.74,21.73,21.73,0,0,1-7-15c6.54.55,12.77,1.16,18.89-.56a5.26,5.26,0,0,0-2.06-.46c-5.21-.59-10.45-1-15.61-1.9a7.18,7.18,0,0,1-4.07-2.83,52.27,52.27,0,0,1-8.06-17.8,24.41,24.41,0,0,1-.34-2.54,30.07,30.07,0,0,1,10.72,7.5,36.12,36.12,0,0,0,6,4.76c.71.49,1.83.4,3,.61-2.41-1.82-5-3-6.5-5.06a37.22,37.22,0,0,0-12.56-10.62,3.51,3.51,0,0,1-1.71-2.47c0-7.17-.81-14.54.59-21.45,1.16-5.76,4.56-11.21,7.64-16.4C215.47,222.46,231.63,207.86,255.07,202.8ZM205.6,128.16a2.44,2.44,0,0,0-.18.41s.11.11.16.17a2.5,2.5,0,0,0,.19-.41S205.66,128.23,205.6,128.16Zm7.77,20.8c-.05,0-.14.09-.15.14s.08.11.13.17.15-.09.15-.15S213.42,149,213.37,149Zm-54.29,13.3c-.06,0-.15.09-.15.14s.08.1.12.16.14-.09.15-.14S159.12,162.31,159.08,162.26Z"/><path class="cls-1" d="M289.54,187.58c.9-1.9,1.53-4,2.77-5.65,5.2-6.85,5.69-14.62,4.72-22.69-1.16-9.6-4-19.07-3-28.83a60.88,60.88,0,0,1,3.33-15.28c3.52-9.14,11.11-12.85,20.53-14,14.57-1.81,26.16,3.63,36,13.8,16.55,17.09,30.16,36.37,41.81,57,23.42,41.45,37,86.16,43.45,133.17A368.92,368.92,0,0,1,443,357.47c-.07,13-.21,26-.72,39A37.41,37.41,0,0,1,439.68,408c-1.84,4.79-5.26,5.32-9.12,1.95s-7.16-7-11.26-9.73a42.65,42.65,0,0,0-12.95-6.05c-13.09-3.2-25.44-8.26-37.67-13.69-16.05-7.13-31.81-14.85-46.16-25.06-4.78-3.39-9-7.63-13.32-11.58a15,15,0,0,1-2.19-3.17c-2.56-3.93-4.81-8.12-7.73-11.77-6.87-8.63-10-18.6-11.36-29.3-2.37-18.57-1.8-37.18-.76-55.8a35.48,35.48,0,0,0-.52-9.61,105,105,0,0,1-2.07-31.07,59.32,59.32,0,0,1,19.85,9.42c15.86,11.34,28,26.12,38.15,42.57a7.75,7.75,0,0,1,.95,2.56,69.79,69.79,0,0,1,.6,22.29c-.16,1.17-1.37,2.41-2.4,3.22-2.6,2-5.63,3.58-8,5.81-3.43,3.19-5.56,7.8-10.58,9.24,3.82.14,6.47-1.85,8.69-4.52a27.37,27.37,0,0,1,11.51-8.19c-2.4,9.17-5.34,17.25-11.56,23.79a5.13,5.13,0,0,1-1.16.75c-4.43,2.66-9,4.86-14.51,4.31a6.72,6.72,0,0,0,3.8.92c2.8-.49,5.53-1.34,8.29-2l.44.48a60.46,60.46,0,0,1-24.32,12.05c2.68,0,5.41,0,7.74-1,6.15-2.6,12.12-5.63,18.16-8.48l.54.6c-1.1,4.5-3.82,7.88-7.29,10.82s-4,6.92-2,9.29c.55-2,.55-4.92,2-6.6,3.05-3.56,6.84-6.49,10.23-9.58.95,2.22,1.91,4.91,3.21,7.43,2.09,4,4.9,7.32,9.56,8.63,4.28,1.21,5.23,3,4.28,7.44-.69,3.25-1.59,6.45-2.19,9.71a18.45,18.45,0,0,0,.21,4.12c.79-3.14,1.45-6,2.22-8.8.53-1.95,1.35-3.84,1.81-5.8,1.07-4.57-.28-7.29-4.66-9a10.43,10.43,0,0,1-6.58-6.66A93,93,0,0,1,338.62,315a7.53,7.53,0,0,1,1.18-4.83,66.06,66.06,0,0,0,9.05-20.09c.72-2.86,1.28-5.77,1.92-8.65,1.22,4.61,2.82,9.34,2.27,13.8s-3.24,8.49-5,12.71l.34.24,5-7.2v13.24H354c.39-5.33.78-10.67,1.16-15.76,5,3.1,9.72,6.06,14.44,9,0-2.67-1.74-4.41-4.17-5.64-3.87-2-7.12-4.77-7.92-9.08-.95-5.11-1.06-10.36-1.59-16.1a28.8,28.8,0,0,0,2.4,1.71c3.44,1.87,6.74,4.22,10.41,5.44,5.84,1.94,10.35,5.09,13.28,10.54.35.67,1.41.95,2.15,1.41-.05-.81.17-1.78-.19-2.42-2.95-5.26-6.82-9.74-12.29-12.41-9.4-4.58-15.53-11.95-19.18-21.58a144.42,144.42,0,0,0-11.08-22.23c-.38-.64-.63-1.37-1.16-2.51a14.31,14.31,0,0,1,2.32.72c5.87,3.28,11.71,6.61,17.57,9.9,1.64.92,1.9,2.34,2.15,4.11.88,6.1,2,12.17,3.2,18.2.34,1.68,1.48,3.2,2.25,4.8l.8-.29c-3.29-7.38-4.44-15.12-4.57-23.56a14.49,14.49,0,0,1,2.17,1.67c4.06,5.1,8.07,10.25,12.11,15.37,1.59,2,3,4.27,4.9,5.91,4.32,3.73,11.41,4,15.52.61-.8.09-1.31.11-1.79.22-8.13,1.85-12.93-.46-16.69-8a60.38,60.38,0,0,0-3.33-6.06c-9.64-14.81-23.54-24.14-39.6-30.72a12.17,12.17,0,0,1-4.22-3.21C327.28,218,321.64,211.5,316,205.08c-.46-.52-1-1-1.39-1.48,3-3,6-4.64,10-2.25,1.27.75,3,.66,4.58,1a12.94,12.94,0,0,1,9.29,6.66,20.7,20.7,0,0,0,6.19,6.38,26.77,26.77,0,0,0,7.94,3.11,4.88,4.88,0,0,1,3.75,3.23c.95,2.72,1.82,5.46,2.72,8.19l.37,0v-7.78a20.47,20.47,0,0,1,1.88,2.78c1.61,3.82,3.23,7.63,4.67,11.52,1.79,4.83,4.5,8.88,9.1,11.41a21.25,21.25,0,0,0,3.07,1.14l.39-.7c-4.19-1.77-7.49-4.55-9.16-8.7-1.6-4-2.74-8.16-4.08-12.25l.7-.44c2.92,3.4,6.64,6,10.91,5.95,6.16,0,11.38,2.27,16.77,4.54a48.47,48.47,0,0,0,6.08,1.84,22.92,22.92,0,0,0,2.5.45l.11-.47-15-6,2.34-1.77c-2.22-.45-4.79-.21-6.11-1.38-3-2.72-6.22-5.75-8-9.32-2.93-5.92-4.9-12.3-11-16.12l.38-.86,16.1,1.44c-8.92-3.29-17.85-6-27.15-1.53a28.74,28.74,0,0,1-5.63,2.21c-4.29,1-4.83.59-5.94-4.06.92-.11,1.81-.23,2.71-.31,4.31-.41,8.63-.82,12.95-1.19,3.21-.28,5.54-1.5,6.54-4.91,1.05-3.62,3.53-5.45,7.5-5.66a112.42,112.42,0,0,0,12.07-1.62c3.18-.51,6-1.8,7.86-4.74-5.24,3.85-11.29,3.11-17.18,3.78,1.83-2.88,3.47-5.49,5.12-8.09l-.72-.47-5.38,6.18-.67-.4c1.3-4.41,2.11-8.8.14-13.22-.17-.38.67-1.32,1.19-1.86,1.58-1.66,3.23-3.24,4.85-4.85.36-.59.72-1.17,1.07-1.76l-.45-.28-1.13,1.46-7,5c-2.24-2.29-2.83-4.47-1.63-7l.43-.51.57-.58.43-.74-.81.36-.62.48-.54.57c-2.27,2.71-1.26,5.31.35,7.84,5.16,8.09,2.46,16.45-6.54,19.87a69.49,69.49,0,0,0-2.32-7c-.74-1.67-.68-2.77.63-4.12,2.16-2.23,3.18-4.81,2.12-8.08-.33-1,.43-2.42.69-3.65l.5-.51.24-.66-.62.25-.6.49c-.52,1.57-1.6,3.2-1.45,4.71.32,3.26-1.37,5.09-3.37,6.91l-1,0-1.25-8.21c-3.21,4.56.33,8.5,1.49,12.34-4.12,0-8-.2-11.84.06a14.09,14.09,0,0,0-9.76,5.24,5.58,5.58,0,0,0,2.45-.94,14.76,14.76,0,0,1,10.29-2.38c2.28.27,4.59.45,6.85.91,1.24.25,3.24.79,3.43,1.56a32.71,32.71,0,0,1,.68,8c0,.49-1.47,1.33-2.3,1.39a61.89,61.89,0,0,1-7.46,0c-6.91-.36-13.83-.55-20.69-1.3-4.69-.52-5-1.47-3.53-5.81a13.81,13.81,0,0,0,.87-2.91c.25-2.53,1.6-4.34,3.18-6.24,2.82-3.39,5.78-6.81,7.79-10.68a7,7,0,0,1,6.42-4.14,17.14,17.14,0,0,1,2.76-.18c3.82.31,6.8-1.31,9.37-3.91,3.39-3.42,7.34-5.19,12.24-4.32.07,0,.18-.19.43-.47a13,13,0,0,0-12.11,2c-2,1.46-4.1,2.76-6.16,4.14l-.94-.75,4-10.13c.1-.25.21-.51.32-.76l.49-.62.09-.43c0,.16,0,.32-.05.48l-.74.35-.5.61a64.21,64.21,0,0,0-4,6.56c-2.21,4.78-2.6,5.14-7.85,4.65-.54-.06-1.36-.41-1.5-.81-.8-2.33-1.43-4.72-2.11-7.06,11.07-4.49,9.68-8.15,10-14.52-1,2.31-1.55,4.84-2.74,7-1.34,2.46-3.84,3.38-7.06,3.73,1.52-6.62,4.85-12.8.45-19.06v8.21c-4-2.64-2.77-7.21-5.44-9.73,1.24,3.84.41,8.42,4.11,11-1.86,4.54-3.64,8.86-5.69,13.87-1.58-1.46-3.17-2.95-4.92-4.58l-2-1.07a13.75,13.75,0,0,0,5.63,7.11c2.76,1.85,3.84,4.37,2.24,7.22-2.05,3.65-4.65,7-7.4,11-2.05-2.28-3.5-4.07-5.15-5.67s-1.54-3,0-4.43,3.29-2.7,4.76-4.21c1.88-1.93,1.66-3.72.13-4.67-.55,1.25-.77,2.89-1.71,3.7a64.62,64.62,0,0,1-6.71,4.47,23,23,0,0,1-3.47-11.27c-.15-4.27,0-8.29,3.26-11.85,1.83-2,2.51-5,3.71-7.61l-.46-.17L313.54,141l-2.61-3.82c2.11,3.91-.64,7.09-1.48,10.51-.24,1-.43,2-.58,3-.83,5.46.41,10.59,2.7,15.61-3.64,1.72-5.56,4.43-5.75,8.28,1.22-1.22,2.06-2.75,3.23-4,2.17-2.24,3.66-2,5.61.27,1.66,2,3.57,3.72,5.27,5.66.46.52,1,1.52.76,2-3.44,8.23-9.47,14.93-20.3,12.31C296.72,190,293.15,188.68,289.54,187.58ZM394,181.86c.07-.31.15-.63.22-.94h.11l-.07.06-.61.48c-.09.19-.17.38-.26.56Zm-60.51-54.09-.07.24h.34a.78.78,0,0,0-.08-.23S333.55,127.78,333.49,127.77ZM393,182.82l-.19-.19-.18.2c.06.06.13.17.19.16S392.93,182.88,393,182.82Z"/><path class="cls-2" d="M379.41,164.43c-1.62,1.61-3.27,3.19-4.85,4.85-.52.54-1.36,1.48-1.19,1.86,2,4.42,1.16,8.81-.14,13.22l.67.4,5.38-6.18.72.47c-1.65,2.6-3.29,5.21-5.12,8.09,5.89-.67,11.94.07,17.18-3.78-1.88,2.94-4.68,4.23-7.86,4.74a112.42,112.42,0,0,1-12.07,1.62c-4,.21-6.45,2-7.5,5.66-1,3.41-3.33,4.63-6.54,4.91-4.32.37-8.64.78-12.95,1.19-.9.08-1.79.2-2.71.31,1.11,4.65,1.65,5.09,5.94,4.06a28.74,28.74,0,0,0,5.63-2.21c9.3-4.48,18.23-1.76,27.15,1.53l-16.1-1.44-.38.86c6.08,3.82,8.05,10.2,11,16.12,1.76,3.57,4.94,6.6,8,9.32,1.32,1.17,3.89.93,6.11,1.38l-2.34,1.77,15,6-.11.47a22.92,22.92,0,0,1-2.5-.45,48.47,48.47,0,0,1-6.08-1.84c-5.39-2.27-10.61-4.58-16.77-4.54-4.27,0-8-2.55-10.91-5.95l-.7.44c1.34,4.09,2.48,8.26,4.08,12.25,1.67,4.15,5,6.93,9.16,8.7l-.39.7a21.25,21.25,0,0,1-3.07-1.14c-4.6-2.53-7.31-6.58-9.1-11.41-1.44-3.89-3.06-7.7-4.67-11.52a20.47,20.47,0,0,0-1.88-2.78v7.78l-.37,0c-.9-2.73-1.77-5.47-2.72-8.19a4.88,4.88,0,0,0-3.75-3.23,26.77,26.77,0,0,1-7.94-3.11,20.7,20.7,0,0,1-6.19-6.38,12.94,12.94,0,0,0-9.29-6.66c-1.54-.29-3.31-.2-4.58-1-4.05-2.39-7.06-.77-10,2.25.43.46.93,1,1.39,1.48,5.68,6.42,11.32,12.88,17.07,19.23a12.17,12.17,0,0,0,4.22,3.21c16.06,6.58,30,15.91,39.6,30.72a60.38,60.38,0,0,1,3.33,6.06c3.76,7.52,8.56,9.83,16.69,8,.48-.11,1-.13,1.79-.22-4.11,3.35-11.2,3.12-15.52-.61-1.91-1.64-3.31-3.9-4.9-5.91-4-5.12-8.05-10.27-12.11-15.37A14.49,14.49,0,0,0,364,248.5c.13,8.44,1.28,16.18,4.57,23.56l-.8.29c-.77-1.6-1.91-3.12-2.25-4.8-1.23-6-2.32-12.1-3.2-18.2-.25-1.77-.51-3.19-2.15-4.11-5.86-3.29-11.7-6.62-17.57-9.9a14.31,14.31,0,0,0-2.32-.72c.53,1.14.78,1.87,1.16,2.51a144.42,144.42,0,0,1,11.08,22.23c3.65,9.63,9.78,17,19.18,21.58,5.47,2.67,9.34,7.15,12.29,12.41.36.64.14,1.61.19,2.42-.74-.46-1.8-.74-2.15-1.41-2.93-5.45-7.44-8.6-13.28-10.54-3.67-1.22-7-3.57-10.41-5.44a28.8,28.8,0,0,1-2.4-1.71c.53,5.74.64,11,1.59,16.1.8,4.31,4.05,7.11,7.92,9.08,2.43,1.23,4.13,3,4.17,5.64-4.72-3-9.48-5.92-14.44-9-.38,5.09-.77,10.43-1.16,15.76h-.63V301l-5,7.2-.34-.24c1.76-4.22,4.47-8.33,5-12.71s-1.05-9.19-2.27-13.8c-.64,2.88-1.2,5.79-1.92,8.65a66.06,66.06,0,0,1-9.05,20.09,7.53,7.53,0,0,0-1.18,4.83,93,93,0,0,0,2.93,12.88,10.43,10.43,0,0,0,6.58,6.66c4.38,1.7,5.73,4.42,4.66,9-.46,2-1.28,3.85-1.81,5.8-.77,2.81-1.43,5.66-2.22,8.8a18.45,18.45,0,0,1-.21-4.12c.6-3.26,1.5-6.46,2.19-9.71.95-4.46,0-6.23-4.28-7.44-4.66-1.31-7.47-4.61-9.56-8.63-1.3-2.52-2.26-5.21-3.21-7.43-3.39,3.09-7.18,6-10.23,9.58-1.44,1.68-1.44,4.6-2,6.6-2-2.37-1.47-6.37,2-9.29s6.19-6.32,7.29-10.82l.12-.93-.66.33c-6,2.85-12,5.88-18.16,8.48-2.33,1-5.06,1-7.74,1a60.46,60.46,0,0,0,24.32-12.05l.47-.62-.91.14c-2.76.7-5.49,1.55-8.29,2a6.72,6.72,0,0,1-3.8-.92c5.5.55,10.08-1.65,14.51-4.31a5.13,5.13,0,0,0,1.16-.75c6.22-6.54,9.16-14.62,11.56-23.79a27.37,27.37,0,0,0-11.51,8.19c-2.22,2.67-4.87,4.66-8.69,4.52,5-1.44,7.15-6.05,10.58-9.24,2.39-2.23,5.42-3.77,8-5.81,1-.81,2.24-2.05,2.4-3.22a69.79,69.79,0,0,0-.6-22.29,7.75,7.75,0,0,0-.95-2.56c-10.19-16.45-22.29-31.23-38.15-42.57a59.32,59.32,0,0,0-19.85-9.42c-4.81-2.68-9.61-5.4-14.47-8a2.72,2.72,0,0,0-2.15.26c-4.32,2.44-8.59,5-12.88,7.47-23.44,5.06-39.6,19.66-51.47,39.66-3.08,5.19-6.48,10.64-7.64,16.4-1.4,6.91-.61,14.28-.59,21.45a3.51,3.51,0,0,0,1.71,2.47,37.22,37.22,0,0,1,12.56,10.62c1.53,2,4.09,3.24,6.5,5.06-1.14-.21-2.26-.12-3-.61a36.12,36.12,0,0,1-6-4.76,30.07,30.07,0,0,0-10.72-7.5,24.41,24.41,0,0,0,.34,2.54,52.27,52.27,0,0,0,8.06,17.8,7.18,7.18,0,0,0,4.07,2.83c5.16.88,10.4,1.31,15.61,1.9a5.26,5.26,0,0,1,2.06.46c-6.12,1.72-12.35,1.11-18.89.56a21.73,21.73,0,0,0,7,15,23.59,23.59,0,0,1,4.65,5.74c2.35,4.51-.33,9.76-6,11.39,1.21-1.16,2-1.91,2.82-2.69,3.16-3.09,3.44-6.44.52-9.78a68.35,68.35,0,0,0-5.11-4.63,35.59,35.59,0,0,1-3.06-3.2c-.87-1-1.6-2.17-2.54-3.48-1.19,2.8-2.15,5.38-3.36,7.84-2.25,4.55-5.48,8-10.69,9.29-3.07.77-4.1,2.67-3.49,5.9s1.5,6.1,2.09,9.17a20,20,0,0,1,.17,5.13c-1.38-4.59-2.94-9.13-4.1-13.78s.26-7.37,4.82-9.14a10.48,10.48,0,0,0,6.58-7,140.34,140.34,0,0,0,2.85-14,3.91,3.91,0,0,0-.75-2.55,65.82,65.82,0,0,1-11.51-31.06,1.48,1.48,0,0,0-.57-1c-1.48,4.92-2.81,10-1.87,15s3.23,9.41,5.06,14.48l-4.9-6.77v12.59l-.89,0c-.22-2.86-.44-5.73-.65-8.59s-.42-5.7-.62-8.46c-2.49,1.9-4.94,3.87-7.49,5.67-2.22,1.57-4.57,2.95-6.86,4.42.22-2,1.73-3.54,3.84-4.8a34.1,34.1,0,0,0,5.68-3.84,12.09,12.09,0,0,0,3.93-8.57c.31-4.95.88-9.89,1.37-15.2a21.88,21.88,0,0,1-2.25,1.84c-3.52,2.15-6.87,4.79-10.66,6.24-6.08,2.32-11.27,5.46-14.68,11.11-.28.47-.42,1-1.09,1.1a20.68,20.68,0,0,1,8.47-11.78,26.66,26.66,0,0,1,4.33-2.43,30,30,0,0,0,15.91-15.51c4.42-9.88,8.19-20.06,11.82-30.75-3.79,2-7.59,3.9-11.36,5.91-5.18,2.75-8.65,6.1-8.51,13,.1,5.26-2.12,10.57-3.43,15.83a6.38,6.38,0,0,1-2,2.86c2.94-7.48,4.11-15.21,4.24-23.86a20.46,20.46,0,0,0-2.54,2.31c-2.63,3.55-5.34,7.06-7.71,10.78-3,4.78-6.61,8.9-11.84,11.29a12.54,12.54,0,0,1-12.16-.39,6.49,6.49,0,0,1,1.59,0,13.48,13.48,0,0,0,13.28-3.62,32.22,32.22,0,0,0,6.6-8.41c7.69-15.33,19.92-25.38,35.66-31.47a8.41,8.41,0,0,0,4.53-3.68A94.62,94.62,0,0,1,219.22,205c.6-.55,1.13-1.17,1.73-1.8-1.36-2.42-3-3.45-5.62-1.92a1.89,1.89,0,0,1-.8.2c-6.92.58-12,3.44-15.2,10.11-1.74,3.66-6,5.35-9.92,6-6,1-7.35,5.31-8.38,10.13-.13.63-.19,1.26-.3,1.89,0,.07-.12.13-.94.19q.18-3.52.35-7.05c0-.23,0-.47,0-.7l-.34.36c-2,4.3-3.9,8.67-6.09,12.87a61.73,61.73,0,0,1-6.08,10c-1.41,1.78-3.94,2.67-6,4l-.51-.76a5.3,5.3,0,0,1,1-.89c4.78-2.33,7.6-6.27,9.2-11.19,1.25-3.84,2.45-7.71,3.66-11.56.05-.3.09-.6.14-.9l-.62.44a14.83,14.83,0,0,0-1.86,2c-3.35,5.42-8.61,7-14.49,7a18.2,18.2,0,0,0-7.39,1.7c-3.87,1.69-8,2.86-12,4.21a2.35,2.35,0,0,1-1.83-.23l13.93-5.43c0-.29.11-.57.17-.85-6.21-1.91-11.19-5.27-14.33-10.8l.48-.56a15.49,15.49,0,0,1,1.48,1.32A21.72,21.72,0,0,0,153.51,230c1.31.1,3.19-.33,3.94-1.23,2.64-3.14,5.48-6.32,7.16-10,2.44-5.36,4.73-10.62,10.55-14.39-6.23-1-11.62.44-17,1.08-.06-.37-.12-.75-.19-1.12,4.41-1,8.78-2.19,13.24-2.81a23.08,23.08,0,0,1,15.75,2.93,12.1,12.1,0,0,0,3.08,1.2c4.76,1.37,5,1.25,7.33-3.83-3.38-.31-6.64-.59-9.89-.91-2.29-.23-4.58-.53-6.87-.75a6.05,6.05,0,0,1-5.69-4.46,28.17,28.17,0,0,0-2-3.9c-1.72.87-3.06,1.67-4.5,2.25-5.17,2.06-10.08.49-12.35-4.57-2.14-4.76-5.07-8-11.26-8.59a10.2,10.2,0,0,1,10.89,4.28c.76,1.15,1.3,2.44,2,3.61,3,4.76,8.52,5.24,13,.76-4.84-2.37-9.78-4.65-10.91-11.31l5.47,6.27.72-.46a17,17,0,0,1-.68-3.38,38.16,38.16,0,0,1,.41-8.16c.4-1.79.12-2.57-1.24-3.62a71.16,71.16,0,0,1-5.28-5l.48-.53,7.59,5.4c2.94-2.6,3.16-4,1.39-7.64l.35-.35c2.53,2.67,2.8,4.92.31,8.38-3.08,4.27-3.17,8.67-1.43,13.38.72,2,1.65,3.55,3.79,4.41a21.85,21.85,0,0,1,4.16,2.82c.92-3.16,1.94-6.4,2.77-9.68.13-.5-.54-1.29-1-1.82-2-2.46-3.41-4.93-2.29-8.35.4-1.21-.3-2.77.11-4.44.49,1.56,1.65,3.26,1.34,4.64-.77,3.48,1.09,5.36,3.34,7.43,2.68-2.31,2.45-5.13,1.36-8.62a5.45,5.45,0,0,1,2,6.56,57.59,57.59,0,0,1-3.16,6.58c8-.5,16-2.18,22.24,4.73-.45.07-.8.24-.93.13-5.89-4.64-12.49-3.6-19.1-2.45-3.8.66-4.25,1.3-3.71,5.09.73,5.06,2.15,6.19,7.23,5.95,5.9-.28,11.8-.48,17.7-.72,1,0,2-.07,3-.19,6.28-.78,6.33-1.17,5.28-7.14a20.51,20.51,0,0,0-5.2-10.33c-2.69-3.11-4.66-6.83-7.05-10.21a4.8,4.8,0,0,0-2.37-1.93,21.19,21.19,0,0,0-6-.81c-3.49.12-6.17-1.28-8.73-3.47-5.73-4.9-5.78-4.84-13.58-4.87,8.12-3.53,13,2.66,18.74,5.69l.86-.63-4-10.36.38-.36c1.62,3,3.42,5.84,4.79,8.92.72,1.63,1.33,2.62,3.3,2.41a45.63,45.63,0,0,1,5,0,57.27,57.27,0,0,0,2-6.16,2.76,2.76,0,0,0-1.19-2.4c-5.27-1.78-8.31-5.13-8.53-10.87a13.18,13.18,0,0,0-1.05-3.38l.47-.43a40.08,40.08,0,0,1,2.23,5.2c1.09,3.91,3.83,6.19,8.34,6.23-.6-2.1-1.27-4.08-1.72-6.1a28.45,28.45,0,0,1-1.05-6.48c0-2,.8-4,1.24-6l.92.11V139c4.12-2.21,2.82-6.68,5.32-9.06-.9,3.67-.26,7.86-3.85,10.46l5.5,13.4c2.51-.62,4.48-1.82,4.1-4.88l2.51,1.83a56.44,56.44,0,0,1-5.25,5c-2.64,2-3.76,4.34-2.13,7.26,2,3.59,4.56,6.88,7.1,10.64,7.86-6.78,12.81-14.34,12.5-24.59a14.13,14.13,0,0,0-3.06-8.61c-1.75-2.27-2.29-5.46-3.36-8.25l0,0c1.51,2.12,3,4.28,4.57,6.33a14.46,14.46,0,0,0,2.33,2l2.55-3.31,0,0c-1.35,3.72.4,7,1.31,10.48,2.83,10.83-1,19.81-8.78,27.17-2.46,2.34-2.88,4.08-1,6.69.63.89,1.05,1.94,1.64,2.87,5,7.83,9.43,9.42,18.21,6.48,3.47-1.17,6.9-2.49,10.34-3.74a77.58,77.58,0,0,0,8.18-5c2.39-1.87,3.39-4.58,3.38-7.82-.09-26-.05-52-.06-78.06a26.78,26.78,0,0,0-.22-3.58c-.53-3.77.84-6.19,4.35-7.63a10,10,0,0,1,8.56.38A5.87,5.87,0,0,1,278,91.16c-.09,27.41,0,54.81-.29,82.21-.06,6,2.65,9.72,7.55,12.36,1.37.74,2.87,1.24,4.31,1.85,3.61,1.1,7.18,2.39,10.85,3.28,10.83,2.62,16.86-4.08,20.3-12.31.21-.5-.3-1.5-.76-2-1.7-1.94-3.61-3.7-5.27-5.66-2-2.29-3.44-2.51-5.61-.27-1.17,1.21-2,2.74-3.23,4,.19-3.85,2.11-6.56,5.75-8.28-2.29-5-3.53-10.15-2.7-15.61.15-1,.34-2,.58-3,.84-3.42,3.59-6.6,1.48-10.51l2.61,3.82,6.84-8.73.46.17C319.64,135,319,138,317.13,140c-3.25,3.56-3.41,7.58-3.26,11.85a23,23,0,0,0,3.47,11.27,64.62,64.62,0,0,0,6.71-4.47c.94-.81,1.16-2.45,1.71-3.7,1.53.95,1.75,2.74-.13,4.67-1.47,1.51-3.19,2.78-4.76,4.21s-1.68,2.84,0,4.43,3.1,3.39,5.15,5.67c2.75-4.05,5.35-7.39,7.4-11,1.6-2.85.52-5.37-2.24-7.22a13.75,13.75,0,0,1-5.63-7.11l2,1.07c1.75,1.63,3.34,3.12,4.92,4.58,2.05-5,3.83-9.33,5.69-13.87-3.7-2.62-2.87-7.2-4.11-11,2.67,2.52,1.45,7.09,5.44,9.73v-8.21c4.4,6.26,1.07,12.44-.45,19.06,3.22-.35,5.72-1.27,7.06-3.73,1.19-2.17,1.75-4.7,2.74-7-.31,6.37,1.08,10-10,14.52.68,2.34,1.31,4.73,2.11,7.06.14.4,1,.75,1.5.81,5.25.49,5.64.13,7.85-4.65a64.21,64.21,0,0,1,4-6.56l.39.37-4,10.13.94.75c2.06-1.38,4.17-2.68,6.16-4.14a13,13,0,0,1,12.11-2c-.25.28-.36.48-.43.47-4.9-.87-8.85.9-12.24,4.32-2.57,2.6-5.55,4.22-9.37,3.91a17.14,17.14,0,0,0-2.76.18,7,7,0,0,0-6.42,4.14c-2,3.87-5,7.29-7.79,10.68-1.58,1.9-2.93,3.71-3.18,6.24a13.81,13.81,0,0,1-.87,2.91c-1.45,4.34-1.16,5.29,3.53,5.81,6.86.75,13.78.94,20.69,1.3a61.89,61.89,0,0,0,7.46,0c.83-.06,2.3-.9,2.3-1.39a32.71,32.71,0,0,0-.68-8c-.19-.77-2.19-1.31-3.43-1.56-2.26-.46-4.57-.64-6.85-.91a14.76,14.76,0,0,0-10.29,2.38,5.58,5.58,0,0,1-2.45.94,14.09,14.09,0,0,1,9.76-5.24c3.84-.26,7.72-.06,11.84-.06-1.16-3.84-4.7-7.78-1.49-12.34l1.25,8.21,1,0c2-1.82,3.69-3.65,3.37-6.91-.15-1.51.93-3.14,1.45-4.71l.48.43c-.26,1.23-1,2.62-.69,3.65,1.06,3.27,0,5.85-2.12,8.08-1.31,1.35-1.37,2.45-.63,4.12a69.49,69.49,0,0,1,2.32,7c9-3.42,11.7-11.78,6.54-19.87-1.61-2.53-2.62-5.13-.35-7.84l.54.42c-1.2,2.55-.61,4.73,1.63,7l7-5Zm-219,64.68c3,.11,5.55-.94,7-3.47,4-6.78,9.83-10.78,17.35-12.65a50.68,50.68,0,0,0,5.37-2c-2.64-1.54-4.71-2.92-6.94-4a6.8,6.8,0,0,0-3.86-.67c-5.63,1.09-8.84,5.18-10.92,10a41.49,41.49,0,0,1-8,12.77.59.59,0,0,0-.19.11s0,.09,0,.14ZM349.24,211a48.2,48.2,0,0,0,4.63,1.76c7,1.84,12.94,4.89,16.29,11.95,1.6,3.37,6.62,5.53,9.81,5.1-4.61-3.72-7-8.66-9.18-13.76-1.79-4.13-4.52-7.73-9-9.17a9,9,0,0,0-5.44.15C354,207.86,351.85,209.45,349.24,211ZM269.82,86.79c-3,0-5.81,1.82-5.9,3.94s2.47,4,5.7,4.06h.28c3-.07,5.56-1.81,5.65-3.87S272.86,86.83,269.82,86.79Zm95.33,139.48.11-.19-.19,0Z"/><path class="cls-1" d="M349.24,211c2.61-1.51,4.72-3.1,7.09-4a9,9,0,0,1,5.44-.15c4.5,1.44,7.23,5,9,9.17,2.22,5.1,4.57,10,9.18,13.76-3.19.43-8.21-1.73-9.81-5.1-3.35-7.06-9.27-10.11-16.29-11.95A48.2,48.2,0,0,1,349.24,211Z"/><path class="cls-1" d="M160.46,229.16a41.49,41.49,0,0,0,8-12.77c2.08-4.87,5.29-9,10.92-10a6.8,6.8,0,0,1,3.86.67c2.23,1.06,4.3,2.44,6.94,4a50.68,50.68,0,0,1-5.37,2c-7.52,1.87-13.37,5.87-17.35,12.65-1.48,2.53-4.06,3.58-7,3.47Z"/><path class="cls-1" d="M269.82,86.79c3,0,5.81,2,5.73,4.13s-2.63,3.8-5.65,3.87h-.28c-3.23,0-5.78-1.85-5.7-4.06S266.78,86.75,269.82,86.79Z"/><line class="cls-3" x1="77.86" y1="31.16" x2="416.76" y2="31.16"/><polygon class="cls-4" points="407.64 62.32 461.61 31.16 407.64 0 407.64 62.32"/><line class="cls-3" x1="511.04" y1="64.54" x2="511.04" y2="403.44"/><polygon class="cls-4" points="479.88 394.32 511.03 448.29 542.2 394.32 479.88 394.32"/><line class="cls-3" x1="31.16" y1="448.28" x2="31.16" y2="109.39"/><polygon class="cls-4" points="62.32 118.51 31.16 64.54 0 118.51 62.32 118.51"/><line class="cls-3" x1="447.2" y1="498.04" x2="108.3" y2="498.04"/><polygon class="cls-4" points="117.42 466.87 63.45 498.03 117.42 529.2 117.42 466.87"/></g></g></svg>