<svg xmlns="http://www.w3.org/2000/svg" viewBox="0 0 482.19 616.2"><defs><style>.cls-1{fill:#9fd6e2;opacity:0.4;}.cls-2{fill:#fefefe;}.cls-3{fill:#f987ad;}.cls-4{fill:#9c1d44;}</style></defs><title>nervous_systemAsset 1</title><g id="Layer_2" data-name="Layer 2"><g id="Layer_1-2" data-name="Layer 1"><path class="cls-1" d="M482.19,616.2H432.94a34.49,34.49,0,0,0-.34-4.57q-30.11-150.57-60.28-301.12a10.93,10.93,0,0,0-1-2.16c-.31.47-.85.92-.9,1.42-1.77,16.59-5.18,33.36-7.2,50-.66,8.19-1.21,16.37-1.58,24.54,0,3.94.2,7.87.61,11.77,7.66,73.64,20.11,146.78,30.65,220.13H95.41c3.24-23.13,5.68-46.41,9.86-69.36,15.94-87.53,30.91-175,6.55-263.49-.49-1.79-1-3.57-1.45-5.36-.19.78-.4,1.55-.61,2.33-.29,1.09-.57,2.19-.75,3.3q-3.51,21.09-6.86,42.21v0c-6.56,41-13,82-20.84,122.73C70.53,504.7,57.3,560.34,45.14,616.2H0q3.45-25.76,7.06-51.48c1.48-30.6,3.28-61.13,9.9-90.57,2.71-12,5.09-24.11,7.23-36.2q3-23.77,5.65-47.58c6.72-60.83,10.15-122,14.23-183.14,3.62-54.16,17.41-80.07,80.86-99.28,17.49-5.3,34.44-14.64,49.54-25.13,34.66-24.06,36.28-48.25,6-77.45-1.83-1.77-3.56-3.55-5.19-5.37H339.57c-.69,2.39-1.34,4.8-2,7.19-3.19,11-3.27,25-10.35,32.07-7.56,7.54-21.81,8.18-32.87,12.53-2.49,1-5.81,5.22-5.42,7.34a45,45,0,0,0,10.29,21.8,195,195,0,0,0,19.67,14.41c6.53,3.26,13.54,5.94,20.47,8.63,18.57,7.22,38.75,10.8,56.52,19.46,32.26,15.73,40.54,46.18,42.94,79.11,6.46,88.68,9.65,177.43,29.17,265C478.69,515.79,477.82,566.57,482.19,616.2Z"/><path class="cls-2" d="M91.31,616.2H49.25a5.74,5.74,0,0,1-.12-1.53q30.3-154.12,60.66-308.24a7.49,7.49,0,0,1,.83-1.68c.42.6,1.17,1.19,1.2,1.82,2.3,43.16,9.08,86.69,5.69,129.41C112.72,496.37,100.41,556.15,91.31,616.2Z"/><path class="cls-3" d="M263.94,171.75l0,0v0Z"/><path class="cls-3" d="M264.89,369.85l0-.05s0,0,0,0Z"/><path class="cls-4" d="M246.94,213.93c-.49,4.7,1.83,8.78,6.13,11.74,3.39,2.33,7,4.3,10.56,6.43l1.09.89h0c0,3.23-.57,6.11-4,7.46l-12.53-5.88-1.11-.5c0,.45,0,.89,0,1.34,0,8.67,6.08,12.62,12.52,16.35,1.7,1,3.3,2.17,4.95,3.27l-2.85,7.84-15-5.95c.28,5.56.37,11.69,6.67,15.4,3.41,2,6.88,3.89,10.33,5.83l1,.84h0c.2,3.42.25,6.76-3.89,8.1l-14.05-5.42c-.78,8.3,1.58,15.22,9.94,19.29,2.81,1.37,5.42,3.14,8.12,4.73-.09.34-.18.69-.28,1q-1,3.78-2,7.56l-2.19-.73L247,309.09c-1.56,5.17,1.29,14.49,6.07,17.3,4,2.33,7.74,5,11.6,7.54l-2.94,7.85-15.5-6.35c-1.55,12.87.94,24.47,14.67,31a18.14,18.14,0,0,1,3.07,2.39l.91,1c-1.36,2.29-2.72,4.59-4.09,6.87l-14.51-7.38c-2.47,10.86-1.18,14.52,7.66,20.33-.11,1.38-.21,2.76-.32,4.14l-7.94-.85a52.28,52.28,0,0,1,0,6c-.58,5.11.88,9,5.87,11.12a11.7,11.7,0,0,1,2.34,1.75c-.06,1.53-.11,3.06-.17,4.6l-8-1.05c.86,7-3.39,16.25,7.23,20.69l1.1.74,0,0L252.75,441l-7.14-1.52c-.8,6.68-1.13,13.41,6.07,17.82a12.28,12.28,0,0,1,2.27,2.52L251.74,464l-6.15-2.78c-2.19,8.94,1.2,15.5,8.14,20.67-.32,1.66-.65,3.32-1,5L245.13,484c-1.25,7.26,1.6,13.24,7.73,17.87l1.11.88c-.4,1.61-.8,3.23-1.19,4.84l-7.91-2.67v16.06q-.08,7.27-.16,14.54-.48,34.72-1,69.44h-3c0-9.94.11-19.89,0-29.83-.18-11.91-.59-23.81-.91-35.72q-.06-6.87-.13-13.73V504.4L234,508.07l-3.08-2.3c1.16-2.22,1.84-5,3.59-6.55,5-4.44,6.31-9.67,5-16.5-1.16,1.29-2,2.22-2.8,3.14l-5.2-1.12c.7-1.74.92-4,2.18-5.13,5.5-4.86,7.38-10.67,5.72-17.72l-5.29,3.17-2.51-4.2c6.12-5.9,10.56-12.38,7.4-21.49,0,0-.22-.09-.33,0-1,.56-2,1.15-2.93,1.73l-4.18-3.2c.37-.7.56-1.79,1.13-2.06,9.77-4.69,6.42-13.2,6.92-21.07L233.9,417l-3.18-3.21c.85-1.17,1.44-2.88,2.59-3.44,8.19-4,5.72-10.91,5.62-16.86l-7,.4c-.31-1.27-.61-2.53-.92-3.79,8.92-4.28,8.5-12.19,7.84-20.18,0-.25-.32-.48-.28-.42L225,376.92l-4.29-6.17c1.33-1.62,2.32-3.91,4-4.74,13.36-6.51,15.38-17.83,13.72-30.75L225,342c-1.4-2.34-2.8-4.7-4.19-7.05,2.38-1.95,4.54-4.34,7.2-5.77,8.61-4.62,11.07-12,10.43-21.77-3.14,1.92-5.85,3.69-8.67,5.27-2.08,1.16-4.07,1.51-5.71.75h0a5.65,5.65,0,0,1-2.66-2.9,4.83,4.83,0,0,1-.18-4.42,7.4,7.4,0,0,1,3.64-3.14c1.34-.64,2.7-1.27,4-2,8.7-5.16,9.72-7.39,9.36-19.3l-13.24,6.08c-3.13-1.58-5.22-3.83-4.88-7.62a86.16,86.16,0,0,1,7.64-5.31c8.49-4.73,10.73-8.31,10.1-16.46L224,264q-2.13-4-4.24-8.08c2.46-2.07,4.72-4.47,7.42-6.13,7.81-4.79,10.32-8.13,10.42-14.65l-12.71,5.62q-2.1-3.45-4.18-6.9a80.89,80.89,0,0,1,7.66-5.86c6-3.56,10.9-7.55,9.48-15.07L224,218.13l-3.09-6.2c3.47-2.34,6.93-4.72,10.43-7,3.84-2.51,7.39-5.14,5.84-10.6l.27-1.26-1.18.22-12.44,4.55c-1-2.24-1.95-4.48-2.93-6.71,3.43-2.09,6.85-4.2,10.29-6.27,3.88-2.35,7.76-4.68,6.64-9.79l-14.9,2.76c-.69-2.33-1.37-4.67-2-7a73.59,73.59,0,0,1,7.87-3.88c7.5-2.67,9.11-4.73,9.05-11.7l-15.07,1.52-1.8-7.67c2.38-1,4.67-2.47,7.16-3,7.86-1.79,10.12-4.62,9.69-11.87l-16,1.58c-.6-2.25-1.21-4.49-1.82-6.74,2.31-1,4.59-2.16,6.94-3.12a18.13,18.13,0,0,1,2.9-.55c7.88-1.71,8.69-2.9,7.65-11.32-5,1.91-9.3,7-15.48,3.69l-2.25-6.8c2.25-2,4.23-4.51,6.81-5.82,7.18-3.63,10-7.77,8.45-15-2.88,6-6,10.75-13.06,7.72l-3.06-6c1.31-2.09,2.55-4.23,3.94-6.26,3.93-5.75,8.4-11.2,11.7-17.28,2.22-4.11,2.81-9.09,4.2-13.92l-11.56,6L222,56.79c-.92-4.33.89-7.19,4.48-9.6C231.23,44,235.21,40,237,35.12l-10.9,4.17c-1.48-1.19-2.94-2.38-4.42-3.59-.38-4.26,1.47-7.07,5-9.48,7.09-4.8,11.6-10.82,10.37-20.4-.25-1.93-.38-3.86-.45-5.82h10.84a80.13,80.13,0,0,0,.76,13.17c.75,4.87,6.51,9,10,13.41,1.6,2,3.26,4,4.9,6L260.55,39c-5.83,2.19-9.13-1.59-12.74-5.17,1.76,5.87,5.63,10.14,10.53,13.43,3.19,2.13,5.09,4.58,4.64,8.52l-3.75,4.45c-5.62,1.35-8.23-3.36-11.64-6.34-1.49,8.55.18,15.93,6,21.92,3.86,4,8.16,7.53,12.26,11.28q-1.18,4.5-2.35,9c-7.63,2.65-10.7-4-15.51-7.51.77,2.45,1.5,5,3.15,6.6,3.88,3.8,8.35,7,12.28,10.76,2.41,2.3,4.28,5.18,6.38,7.8-1.73,2.09-3.47,4.17-5.21,6.26-5.44.66-8.27-3.47-11.71-6.44-1.87-1.62-3.59-3.43-5.32-5.11-3.12,10.51.33,16.37,11,18.82,1.85.42,3.52,1.62,5.28,2.46-.38,2.63-.77,5.27-1.15,7.91l-15.38-1.32c-.91,3.86.47,5.94,6.11,7.57,3.73,1.08,7.45,2.21,11.18,3.33l-.87,7.29c-6.2,3.39-11-1.5-16.35-2.73-1.84,9.11.81,14,9.38,17.05l6,2.16,1.12.7q-1.14,3.89-2.29,7.76l-14.7-3.62c-.55,3.7,2.3,6.2,5.47,8.17,3.61,2.23,7.53,4,11.32,5.92,1.33,3.12.38,5.61-2.1,7.68l-13.94-4.21c-.81,4.57,2.06,7.79,5.87,10.29,3.54,2.32,7.33,4.26,11,6.37.78,3.49.35,6.58-2.85,8.78Z"/><path class="cls-3" d="M218.81,91.81c1,2,2,4,3.05,6q-22.08,12.06-44.15,24.11c-12,6.52-24.09,12.75-35.84,19.64-4.27,2.51-7.65,6.54-11.43,9.88l.93,1.36c3.21-1.19,6.65-2,9.59-3.63,10.55-6,21.4-11.57,31.27-18.54,12.33-8.7,25.47-14.87,40.24-17.74,2.43-.48,4.79-1.33,7.19-2l2.25,6.8a15,15,0,0,1-2.82,1c-18.76,2.79-34.8,11.41-50.16,22.13-12.15,8.47-25.12,15.71-40,18.72-1.62.33-3.62,2.48-4.09,4.16-3.89,14.08-7.63,28.22-11.07,42.42a128.7,128.7,0,0,0-3.47,37.07A275.62,275.62,0,0,1,97.6,341.69c-2.93,9.17-7.81,17.86-9.66,27.19-3,15.11-4.33,30.55-6.21,45.87-.68,5.52-.92,11.1-1.37,16.65l-1.74-.15,4.71-55.89-.68-.9a16.56,16.56,0,0,0-.77,2.14c-3,13.95-6.29,27.85-8.95,41.87-2.13,11.25-3.19,22.7-5.37,33.93A77.89,77.89,0,0,1,62,468.86a143.8,143.8,0,0,0-12.22,66.62,264.84,264.84,0,0,1-6,69.44h-2c2-15.49,5.61-31,5.51-46.45s-3.91-30.86-6.09-46.29a8,8,0,0,0-3.32,3.88c-7.16,19.36-10.45,39.05-5.72,59.61,2.22,9.67,3.77,19.49,5.62,29.25h-2l-5.64-30-1,.26-1.38,29.73h-2C26.13,591.61,26,578.27,27,565c1-12.75,2.89-25.43,4.81-38.08a29.6,29.6,0,0,1,4-11.21c4.13-6.51,4.69-13.32,4.69-20.81,0-38.49,5.76-76.28,15.37-113.49a118.29,118.29,0,0,1,6.42-17.81c10.08-23.07,12.78-47.42,12.65-72.22-.12-20.48-.8-40.95-1-61.43a79.5,79.5,0,0,1,1.27-15.41c.71-3.73-.59-6.07-2.48-9a54.3,54.3,0,0,1-6.14-14.63c2.35,5.52,3.8,11.47,9,15.34,6-7.95-1-15.84.52-23.65l1.46,4.77c2.61-5.6,4.8-10.29,7-15l.59.21L78.8,191l1.75.63c2.66-6.33,5.32-12.66,7.84-18.68l.86,2.33c7.23-9,16-15.44,26.73-18.68a16.66,16.66,0,0,0,10.15-7.8c6.08-9.87,16-15.34,25.82-20.71,12.25-6.72,25-12.62,37-19.63,12.3-7.15,21.43-16.79,21.36-32.48a117.05,117.05,0,0,1,1.57-18.39c1.25-8.12,3.72-15.86,9.76-21.92l4.43,3.59c-6.68,9.53-10,18.17-9.33,24.8l5.23-7.3,5.07,3.52c-2.16,4.06-4.5,8-6.45,12.19-3.57,7.6-6.91,15.31-10.34,23l-.06,1.21.77-.53ZM86.8,199l-2.57-1.18c-4.39,8.73-.55,16.84.8,25.08l3.77-11c1.52,2.11,1.65,2.17,2.82-.37,2.93-6.39,5.89-13.18,12.36-16.37s9.2-7.77,9.9-14.48a53.39,53.39,0,0,1,2.17-8.67c.91-3.23,1.93-6.43,3-10.06-13.81,4.07-23.17,11.82-30.34,24.46C86.48,190.38,84.8,194.36,86.8,199ZM70.53,391.34c-8.86,6.5-17.9,19.47-19.35,30.46-2.94,22.24-5.11,44.57-7.47,66.88-.37,3.47-.05,7-.05,11.6,16.17-23,29-62.25,26.66-79.83L57.43,449.06l-1.44-.6C64.09,430.26,74.31,412.57,70.53,391.34Zm4.11-12.28,1.47.63c1.26-2.72,3.23-5.34,3.64-8.18,1.33-9.2,2-18.49,3.07-27.73,1.88-16.68,3.09-33.46,6-50C91.17,280,95.63,266.46,99,252.75c2.32-9.53-2.16-15.19-12.29-17.66C80.2,282.93,75.11,330.8,74.64,379.06Zm33-139.28c-14,40.21-22.38,82.1-23.27,126.81C102.79,325.11,109.44,282.88,107.65,239.78ZM102,241.73c2.94-15.61,6-31.61,9-47.61l-1.68-1.19c-3.53,3.28-8.18,5.95-10.32,10-4.1,7.66-6.93,16-10,24.21-1.21,3.27.83,5.56,3.55,7.43C95.72,236.71,98.69,239.19,102,241.73Zm-47.37,163c5.15-6,9.85-11.39,14.34-16.91,1.19-1.46,2.48-3.4,2.51-5.15.22-11.49.12-23,.12-32.76C65.4,366.5,56.89,384.39,54.62,404.68ZM81.55,216.3l-2.4.29v49.85c1.72-9.91,4.31-20.78,5.25-31.8C84.91,228.65,82.59,222.42,81.55,216.3ZM46.89,534.57c1-12.71,2-26.38,3-39.8-4.41,5.61-7.28,11.86-5.78,19.73C45.4,521.45,46.06,528.52,46.89,534.57Zm31-150.79c-5.63,3.8-3.21,9.57-3.46,14.77Q76.14,391.17,77.87,383.78Z"/><path class="cls-3" d="M260.55,39l2.63-6.5C271,38.41,272.37,47.16,273.65,56c1,6.92,1.53,13.94,3.08,20.73,3.54,15.54,11.89,27.33,26.61,34.76,15.59,7.85,30.73,16.61,45.88,25.31,7.1,4.08,11.78,10.61,15.7,17.75a15.91,15.91,0,0,0,5.59,5.87c10.53,6.18,19.41,14,26.11,24.27l2.92,4.48V178.91c2.26,6.51-.78,14.17,6.12,21,.39-7.59,1.78-14.3.76-20.62S402,167,400.55,160.42l8.5,20.3c.61-.73,1.19-1.4,2.14-2.52-1.85,9.62-3.58,18.64-5.31,27.65l1.19.49,4.83-4.6.65.61a24.67,24.67,0,0,0-3,4.25c-.82,1.88-1.92,4.17-1.52,6,4,18.23,4.06,36.71,3.63,55.2-.64,27.41.44,54.66,8.12,81.16,2.9,10,7.76,19.47,10.88,29.45,7.66,24.57,11.33,50,13.87,75.48,1.65,16.52,1.54,33.21,2.3,49.82a10.2,10.2,0,0,0,1.15,4.73c8.69,14.05,11,29.9,12.61,45.82S463,586.1,464.12,602a21.06,21.06,0,0,0,.64,2.89h-3V594.85l-1.13-.34-5.87,10.41h-2c1.09-2.52,1.81-5.3,3.35-7.5a25,25,0,0,0,4.51-17.92c-1.71-14.51-3-29.08-5-43.55-1.17-8.39-3.43-16.64-9-24.62-.91,6.21-1.23,11.54-2.52,16.61-6.58,25.85-3.94,51.43,1.72,77h-2c-2.23-18.63-5-37.21-6.5-55.89-1-12.55.38-25.28-.41-37.86C436,497,431.7,483.46,426,470.4c-8-18.25-10.13-37.69-12.2-57.31-1.31-12.44-5.45-24.59-8.37-36.87-.09-.39-.66-.66-1.5-1.46,2.58,28,5.1,55.34,7.63,82.73l-.65.14c-.94-5.72-2.18-11.41-2.77-17.17-1.25-12.25-2.4-24.52-3.15-36.81-1-16.65-3.82-32.76-10.14-48.41a239.05,239.05,0,0,1-17-76.63c-.81-14.61-.72-29.28-.68-43.92.06-19.89-5.13-38.86-10.25-57.76-2.25-8.31-9.62-13.37-16.4-18.24-17.28-12.4-37.11-19.25-57-25.82-6-2-12.14-3.63-17.94-6.09-3.89-1.64-7.28-4.45-10.9-6.74,1.74-2.09,3.48-4.17,5.21-6.26,14.52,10,31.87,13.46,47.7,20.42l1,.37-.55-.79c-8-8.66-16.68-16.4-27.53-21.74-9.32-4.59-18-10.55-26.89-15.91q1.17-4.51,2.35-9l-6.6-26.86L263,55.81c4.75,5.89,5.14,13,5.82,20.1.84,8.72,2.58,17,10.87,22.12l2.15.81a3.71,3.71,0,0,0,.23.32l-.29-.26-1.47-1.56c-7.07-11.18-10.38-23.56-12-36.57C267.28,53,265.92,45.28,260.55,39Zm59.58,88.48-1.88-.53-.18.58,1.53.54c10,10.82,21.46,19.42,36,23.33C346.3,139.74,333.25,133.58,320.13,127.51ZM397.73,197c-.3-2.07-.06-4.42-1-6.15-6.25-11.63-15-20.94-26.84-27.05l-.64-.55,0,1.14c2,7.9,3.93,15.81,6,23.68a6.35,6.35,0,0,0,1.95,3.24c5.27,4.06,10.67,7.94,15.87,11.78l3.7-4.16c-5.79,10.26,2.86,18,4.36,27,2.83-9.15,4.2-18.23-.6-27C400.09,198,398.69,197.57,397.73,197Zm46.14,302.15a39,39,0,0,0,0-3.9q-3.39-34.47-6.85-68.92c-1.5-15-10-25.89-21.09-35.59.48,9.24.9,18.53,3.15,27.34s6.33,17.09,9.61,25.61l-1.13.47c-3.4-7.82-6.81-15.64-10.78-24.76C417.38,449.74,428.47,475.07,443.87,499.11Zm-31-118.86c-.52-49.46-5.4-97.44-12.21-145.69-11.93,6.25-13.61,9.84-11.08,22,.31,1.46.64,2.91,1,4.37,3.46,15,7.83,29.94,10.15,45.15,2.66,17.4,3.28,35.1,5.23,52.62C406.68,365.88,405.78,373.8,412.83,380.25Zm-9.69-13.59a408.71,408.71,0,0,0-23.32-126.84C378,282.84,384.6,325.17,403.14,366.66ZM376.32,193.34l9.36,49.26c3.36-2.81,6.47-5.58,9.77-8.11,2.68-2.05,3.93-4.43,2.85-7.75-1.85-5.66-3.37-11.45-5.66-16.93C389.64,202.65,385.23,196.53,376.32,193.34ZM432.9,404.81c-2.39-20.54-10.84-38.47-17-54.62,0,9.25-.06,20.73.08,32.2a7.83,7.83,0,0,0,1.7,4.48C422.51,392.76,427.51,398.49,432.9,404.81ZM407.27,218.69l-2,0c-1,4.62-3.24,9.4-2.72,13.84,1.43,12.11,4,24.09,6.16,36.12h.68Q408.33,243.65,407.27,218.69Zm30.24,275.8c1.06,13.55,2.13,27.25,3.14,40.07.87-6.75,1.65-14.49,2.93-22.15C444.83,504.91,440.89,499.59,437.51,494.49ZM409.3,382.25c1.46,6.29,2.61,11.26,3.76,16.23C412.59,393.36,415.42,387.5,409.3,382.25Z"/><path class="cls-3" d="M239.68,525.64l.13,13.73c-6.36,5.26-12.82,10.41-19,15.83-3.2,2.79-7.5,5.6-8.65,9.24-3.36,10.57-10.81,16.61-19.69,22-6.62,4-9.89,10.49-9.67,18.45h-9l1.75-9.93-1.31-1.21-15.44,11.14h-11c.85-5.95,4.72-9.93,9.4-12.88,5.18-3.27,11-5.49,16.23-8.73,3.68-2.29,8.05-4.87,9.88-8.46,3.72-7.29,6.18-15.27,8.54-23.15.47-1.58-1.31-5.13-2.88-5.78a93.8,93.8,0,0,0-16.08-4.86c-2.86-.63-6-.2-9-.11-17.88.52-27-7.68-29.11-25.45-1.15-9.79-.89-19.21,3.31-28.32.63-1.36.28-3.21.25-4.83-.1-5.65-.88-11.36-.27-16.93,1.69-15.54,10-23.07,25.9-24.48,7.28-.65,14.6-1.06,21.84-2.07a22.84,22.84,0,0,0,18.42-13.71,168.54,168.54,0,0,0,6.82-17.66c3.24-9.84,9.94-15.43,19.93-17.4.31,1.26.61,2.52.92,3.79-11.15,2.63-16.83,10.39-19.6,20.88-.13.48-.37.92-.51,1.4-5,17-15.53,29.81-29.64,40.09-5.6,4.09-10.88,8.61-16.86,13.37,5.6,2,10.36,3.75,15.17,5.37a42.27,42.27,0,0,0,6.71,1.78c9.87,1.59,17.47-2.75,20.45-12.41A60.91,60.91,0,0,0,210,449.21c.73-15.52,6.27-28,20.74-35.42L233.9,417c-9.13,5.7-16.92,12.5-18.72,23.89-.68,4.26-1.06,8.58-1.4,12.88-1.27,16.08-7.83,23.68-22.28,25.7-.21,0-.35.48-.46.63l6.69,9.73c8.58-2.91,15-11.74,15.66-21.21a93.57,93.57,0,0,1,.92-9.91c1.8-10.14,9.07-15.87,17.2-20.85l4.18,3.2a13.88,13.88,0,0,1-1.61,1.05c-11.44,5.44-17.49,14.22-17.45,27.16,0,2.85-1.15,5.86-2.34,8.54-3.1,6.92-8.61,11.56-15.42,14.76,3.93,5,8.87,5.86,12.56,1.12,4.42-5.69,7.55-12.37,11.31-18.58,2.89-4.78,5.87-9.5,8.81-14.25q1.26,2.1,2.5,4.2l-17.32,29.88.06-.05-1.06,1.05.05-.05a12,12,0,0,0-2.18.89c-6.85,4.52-11.21,4-17-2a5.64,5.64,0,0,0-3.27-1.6c-8.22-.89-12.52-4.72-14.65-13.3,1.77,2.37,3.51,4.76,5.32,7.09,2.67,3.44,6,5,10.62,3.62-2.5-7.81-7.74-11.94-15.57-13l-1-.31.43.91.3,1.74c-.85-.66-1.74-1.28-2.55-2-7.64-6.64-14.4-8.23-18.53,3.12s-1.15,22.52,8.74,29.7c5.23,3.81,11.19,6.66,16.25,10.67a35.8,35.8,0,0,1,9.38,10.67c4.31,8.09,7.63,16.7,10.93,24.12,5.5-4.1,11.26-8.82,17.44-12.9C227.85,538.45,235.06,533.49,239.68,525.64Zm-99-42.76c5.54-8.25,12.46-12,20.94-13.09.71-.09,1.38-.84,2-1.35,7-5.8,14.17-11.52,21.1-17.45,4.1-3.5,7.9-7.35,11.66-10.88-10.69,1-21,1.76-31.3,3.07-7.57,1-15.53,2.05-20.21,9.14C139,461.28,139.1,471.31,140.66,482.88Zm-1.2,9.52c-.88,3.85-2.17,7.67-2.57,11.57-1.74,17.27,7.81,26.49,25,24.56a31.62,31.62,0,0,1,9.42.14c5.87,1.15,11.62,2.89,17.2,4.32-3.47-6.14-8.46-8.53-17.42-10.16a39.68,39.68,0,0,1-14.54-5.77C147.86,511.27,143.78,502,139.46,492.4Zm20.07-19.79c-8.78,2.37-13.61,7.35-17,13.89a4.8,4.8,0,0,0-.11,3.72c2.9,6.28,5.35,12.93,9.22,18.58,5.7,8.34,14.11,12.42,25.79,12-9.1-5.79-18.16-9.91-21.83-19.68S153.33,482.23,159.53,472.61Zm31.68,70.8.95-1.27a27.35,27.35,0,0,0-2.87-3.52c-7.44-6.58-16.42-8.58-26-7.91-9.1.64-17.56-.17-24.35-7.92,1.88,10.31,9.9,16.53,20.63,16.19S181.18,537.79,191.21,543.41Zm5,9.84-7.13,22.21C198.67,571.07,201.58,562,196.18,553.25Zm1.29-114.84c-.11-.11-.21-.29-.32-.29s-.22.17-.33.27c.1.1.21.28.32.29S197.36,438.5,197.47,438.41Z"/><path class="cls-3" d="M252.75,441l1.23-4.31,16.72,14.19c.95-13.91-3.63-26.33-17-34.55.06-1.54.11-3.07.17-4.6,10.56,5.77,17.46,14.21,19.13,26.39,1,7.4,1.24,15,3,22.2,2.66,11.17,11.07,16.24,22.22,13.81,6.25-1.35,12.29-3.66,19.66-5.91-5.29-4.71-9.62-8.74-14.14-12.54-13.4-11.26-24.09-24.58-29.39-41.4-3.41-10.8-9.26-18.24-20.67-20.55.11-1.38.21-2.76.32-4.14,11.13,1.95,18.37,8,22.16,19a117,117,0,0,0,11.34,24.21c5,7.86,13.69,11.31,22.35,14.16q9.94,3.26,19.83,6.66c10.24,3.54,16.25,10.64,17.6,21.46,1.21,9.66,3,19.31,3.32,29,.55,16.38-10.51,25.41-26.8,24.44-7-.42-14.33,1.73-21.36,3.37-5.06,1.18-7.27,5.22-7.74,10.4-1.24,13.65,2.86,25.62,11.17,36.25a15.56,15.56,0,0,0,5.17,3.69c5.6,2.9,11.43,5.38,16.92,8.48a24.42,24.42,0,0,1,11.89,14.21h-12c-3.88-5.64-9.76-8.09-16-10l-.7-.27.56.42,1.1,9.9h-8c-.91-9-4.94-15.89-13.17-20.38-6.35-3.46-12.35-8-14.51-15.16s-6.66-11.67-12.54-15.43c-7.74-4.94-15-10.43-19.83-18.47q.07-7.28.16-14.54c4.24,5.42,7.76,11.68,12.9,16,7.61,6.47,16.38,11.59,23.88,16.75,2.39-4.89,4.06-10.73,7.6-15a327.05,327.05,0,0,1,24.35-26.16C323,503.39,327.09,490,322.7,478c-.6-1.64-2.59-2.76-3.94-4.12l.06.09c1-2.3,1-4.12-2.22-3.22-3.5,1-6.86,2.45-10.3,3.65-16.27,5.66-25.45,2.48-33.29-11.5-1.46,15.47,5.4,22.68,16.08,26.94,7.22,2.87,11.3,1.64,16.46-4.1,1.81-2,3.55-4.09,5.32-6.14-4,9.62-11.3,15.09-21.42,16.87-10.39,1.83-18.9-3-23.61-12.4-2.68-5.36-6.6-10.11-10-15.08-1.23-1.77-2.7-3.36-4-5l2.21-4.12c5.55,8,11.76,15.33,14.95,24.93s17.19,13.89,25,8.37c-1-.08-1.79-.1-2.6-.24-10.8-1.88-21.27-11.53-21.37-20.82C269.74,458.46,264.45,448.08,252.75,441Zm45.07,133.84.31.61c0-.11.07-.27,0-.31a1.42,1.42,0,0,0-.42-.23c-4.42-10.57-8.23-21.26-6.3-33.74A26.76,26.76,0,0,0,286,559.12C286.59,567.17,291,573,297.82,574.87Zm47.72-93.1c.07-13.71-4.81-21.36-16.83-25.93-8.54-3.23-17.3-5.88-25.95-8.81-2.12-.72-4.21-1.53-6.32-2.3,6.5,7,13.51,13.08,20.19,19.52,2.4,2.32,4.53,3.8,8.09,3.77,6,0,11.17,3,12.68,6.25l-15.78-5.66c10.68,22.9,3.65,39.38-14.34,52.84a8,8,0,0,0,2.62-.1,29.59,29.59,0,0,1,3-.45c15.55-1,24.77-9.85,30.07-23.82,2.36-6.23,3.38-12.21-1.73-17.69-.32-.34-.19-1.11-.42-2.73ZM302,526.93c10.48-.29,19.55-.44,28.61-.82,7.32-.3,12.61-4.07,15.73-10.54,3.69-7.65,3.12-15.61,1.11-23.72-.37.26-.58.33-.62.45-.53,1.57-1,3.17-1.56,4.73-5.25,14.81-14.5,24.72-31.12,26.22C310.4,523.59,306.78,525.44,302,526.93Zm-30.89-71.34h.25v-1.27h-.25Z"/><path class="cls-3" d="M82.86,152.12l-7.23,21.25-1.15-.4Q78.24,162.29,82,151.6Z"/><path class="cls-3" d="M417.79,195.94l.92-1.17.24.35-1.22.76Z"/><path class="cls-3" d="M416.72,196.88c-.14.57-.27,1.14-.41,1.71l-.65-.37,1.13-1.27Z"/><path class="cls-3" d="M416.79,197c.33-.34.66-.68,1-1l-.06-.06-1,1Z"/><path class="cls-3" d="M260.8,287.07c4.14-1.34,4.09-4.68,3.89-8.1,19.74,8.62,40.62,14.9,58.12,28.12,6.35,4.78,11.47,10.66,14,18.36a22.64,22.64,0,0,1,.85,6.87c-6.1-19.38-22.53-26.12-39.2-32.32C286.05,295.37,273.37,291.36,260.8,287.07Z"/><path class="cls-3" d="M224.26,314.34c-.76-2.87-1.52-5.73-2.29-8.6-15.29,6.92-30.88,13.31-43.92,24.29-11.64,9.81-17.28,22.47-17.62,37.59a16.17,16.17,0,0,0,.73,3.26c1.27-5.55,2-10.42,3.52-15,3.88-11.9,12.2-20.26,23.09-25.69,9.94-4.95,20.43-8.78,30.67-13.13C220.41,316.19,222.33,315.24,224.26,314.34Z"/><path class="cls-3" d="M261.67,262.86l2.85-7.84c18,8.62,36.17,16.77,53.74,26.13,6.51,3.47,11.67,9.63,17.06,15,1.7,1.67,2.14,4.61,2.71,7.29-8.46-16.16-24.6-20.58-39.67-26.47-10.67-4.18-21.53-7.87-32.29-11.84A43.16,43.16,0,0,1,261.67,262.86Z"/><path class="cls-3" d="M261.7,218.87c3.2-2.2,3.63-5.29,2.85-8.78,19.66,7.14,39.44,14,58.9,21.6,5.24,2.05,9.52,6.52,14.24,9.88l-.93,1.36c-3.87-2.33-7.48-5.42-11.66-6.83-9.43-3.18-19.12-5.61-28.74-8.19C284.83,224.81,273.26,221.87,261.7,218.87Z"/><path class="cls-3" d="M260.65,240.44c3.46-1.35,4.07-4.23,4-7.46,19.15,7.9,38.38,15.61,57.38,23.86,4.6,2,8.53,5.65,12.54,8.82,1.23,1,1.71,2.86,2.2,4.55-7.16-8.28-17.09-11.16-26.78-14.29C293.61,250.61,277.11,245.58,260.65,240.44Z"/><path class="cls-3" d="M261.7,341.78l2.94-7.85c14.91,7.76,29.82,15.58,39.22,30.38,4.78,7.54,7.8,15.69,6.21,25-.6-2.31-1.14-4.63-1.79-6.93-4.87-17.39-17.81-27-33.14-34.24Z"/><path class="cls-3" d="M261.61,197.64c2.48-2.07,3.43-4.56,2.1-7.68,17.8,5.27,35.65,10.4,53.38,15.9a70.94,70.94,0,0,1,13.51,6.25c2.44,1.37,4.33,3.71,6.14,6C319.26,206,298.39,206.57,279,201.93,273.2,200.53,267.41,199.07,261.61,197.64Z"/><path class="cls-3" d="M261.62,179.49c.77-2.59,1.53-5.18,2.3-7.78,15.71,2.47,31.47,4.63,47.09,7.54,6.19,1.15,12.89,2.51,16.27,9.16a8.7,8.7,0,0,0-.69.67c-6.55-6.31-15-6.49-23.26-7.08C289.44,181,275.52,180.31,261.62,179.49Z"/><path class="cls-3" d="M260.76,376.67q2.06-3.44,4.1-6.89c24.39,13.41,37.81,33.62,34.9,56.22-2.18-6.46-4.22-15.78-8.37-24.06C285.06,389.32,272.87,382.83,260.76,376.67Z"/><path class="cls-3" d="M262.69,137.68c.38-2.64.77-5.28,1.15-7.91,11.64,2.7,23.35,5.12,34.89,8.21,5.66,1.52,10.81,4.58,13.62,10.18a15.88,15.88,0,0,1,1.27,6.35c-2.81-9.82-10.88-12.28-19.2-13.52C283.91,139.42,273.27,138.74,262.69,137.68Z"/><path class="cls-3" d="M263.73,154.55l.87-7.29c11.06,1.23,22.18,2.1,33.15,3.88,4.41.72,8.61,3.2,12.64,5.38,1.41.76,2,3,2.59,5-5.28-7.09-13-7-20.33-7.12C283,154.2,273.37,154.48,263.73,154.55Z"/><path class="cls-3" d="M427.2,511.83l-14.89-44.89,1.32-.45,14.61,44.9Z"/><path class="cls-3" d="M430.59,518.08l-1.87-4.59.75-.34c.7,1.46,1.39,2.91,2.08,4.37Z"/><path class="cls-3" d="M327.28,188.41l1.78,4.75-1,.33-1.5-4.41A8.7,8.7,0,0,1,327.28,188.41Z"/><path class="cls-3" d="M264.72,233l-1.09-.89Z"/><path class="cls-3" d="M263.94,171.75l-1.15-.72Z"/><path class="cls-3" d="M264.73,279l-1-.84Z"/><path class="cls-3" d="M264.89,369.85l-.95-1C264.26,369.16,264.58,369.5,264.89,369.85Z"/><path class="cls-3" d="M220,280.09c-.34,3.79,1.75,6,4.88,7.62-11.16,3.77-22.42,7.26-33.43,11.41a177.37,177.37,0,0,0-23.08,10.44c-10.68,5.92-17.64,14.9-18.93,28.75-1.46-9,1-18.25,8.42-24.74a126.29,126.29,0,0,1,24.74-17.25C194.65,290.07,207.51,285.42,220,280.09Z"/><path class="cls-3" d="M219.76,255.91q2.12,4,4.24,8.08Q210.82,269,197.63,274.1c-8.52,3.28-17.19,6.23-25.5,10-11.59,5.21-14.62,8-22.74,17,1.49-2.63,2.67-5.51,4.52-7.87,6.55-8.32,15.61-13.39,24.87-17.94C192.33,268.57,206.09,262.33,219.76,255.91Z"/><path class="cls-3" d="M220.71,233.85q2.08,3.45,4.18,6.9c-13.28,4.21-26.64,8.18-39.8,12.72-9.37,3.24-18.47,7.27-27.71,10.89a15.67,15.67,0,0,1-3.08.58l-.71-1.6c7.27-3.79,14.34-8.06,21.86-11.27C190.41,245.68,205.61,239.89,220.71,233.85Z"/><path class="cls-3" d="M220.77,334.94c1.39,2.35,2.79,4.71,4.19,7.05-6.35,3.21-12.73,6.35-19,9.62-14.68,7.62-24.62,19-27.86,35.6a3.24,3.24,0,0,1-2.09,2.41c.14-1.43.24-2.86.4-4.29,2-18.39,12.7-31,27.6-40.58C209.42,341.24,215.16,338.2,220.77,334.94Z"/><path class="cls-3" d="M220.89,211.93l3.09,6.2c-10.51,2.92-21,5.89-31.54,8.75-7.21,2-14.63,3.27-21.64,5.77s-13.69,6.15-21.4,9.71c3.62-3,6.35-6.31,9.87-7.89,9.82-4.39,19.89-8.28,30-11.95C199.72,218.74,210.34,215.44,220.89,211.93Z"/><path class="cls-3" d="M220.88,191.11c1,2.23,2,4.47,2.93,6.71l-37.9,8.09c-11.65,2.49-23.65,4-33.53,11.63l-.77-.76c4.33-2.94,8.27-7,13-8.62,15.41-5.17,31.13-9.42,46.73-14.06C214.57,193.16,217.72,192.11,220.88,191.11Z"/><path class="cls-3" d="M220.66,370.75l4.29,6.17c-4.6,2.91-9.28,5.7-13.79,8.74-13.91,9.35-20.9,22.72-22.48,39.17-.14,1.39-.34,2.78-.64,5.11C182.92,409.06,196.89,384.32,220.66,370.75Z"/><path class="cls-3" d="M220.86,170.81c.68,2.33,1.36,4.67,2,7-5.75.67-11.49,1.42-17.25,2-11.23,1.1-22.49,1.93-33.69,3.25-3.25.38-6.34,2-9.5,3.1l-.69-1.77c4.81-2,9.45-4.72,14.45-5.72C191,175.67,206,173.37,220.86,170.81Z"/><path class="cls-3" d="M220.91,149.08l1.8,7.67c-11.44-.37-22.89-.94-34.34-1.05-6.43,0-12.37,1.43-14,9.78-.76-5.61.51-8.95,5.43-10.69a83.07,83.07,0,0,1,17.32-3.89C205,149.9,213,149.65,220.91,149.08Z"/><path class="cls-3" d="M219.9,129c.61,2.25,1.22,4.49,1.82,6.74-8.8.42-17.63.58-26.41,1.36-7.74.68-15.34,2.27-20.6,9.29l-1.18-1.77c3.16-2.58,5.93-6.37,9.54-7.51,9.45-3,19.24-4.92,28.93-7.13C214.58,129.41,217.27,129.33,219.9,129Z"/><path class="cls-3" d="M61.55,506,76,456.76C77,462,66.5,498.21,61.55,506Z"/><path class="cls-3" d="M55.92,517.68l4-9.57.93.39q-2,4.78-4,9.57Z"/><path class="cls-3" d="M152.38,217.54,150.12,221l-1-.55,2.52-3.62Z"/><path class="cls-3" d="M77.86,437l.83-2.28.33.15Z"/><path class="cls-3" d="M216.73,494.94l14.72-10.2,5.2,1.12c-2.5,1.87-4.82,4.08-7.54,5.55-9.08,4.89-15.93,11.73-19.76,21.46l-1.26-.52c1.28-3.11,2.45-6.26,3.86-9.3,1.13-2.46,2.54-4.78,3.83-7.16l-.05.05,1.06-1.05Z"/><path class="cls-3" d="M253.73,481.86c8.15,7.07,17,13.56,21.28,23.5l-22.26-18.52C253.08,485.18,253.41,483.52,253.73,481.86Z"/><path class="cls-3" d="M254,502.69c8.64,3.46,14.28,9.57,16.74,18.52-4.49-6.54-9.58-12.2-17.93-13.66Q253.36,505.12,254,502.69Z"/><path class="cls-3" d="M234,508.07l-15.61,14.61c2.92-7,6.65-12.69,12.53-16.91Z"/><path class="cls-3" d="M252.86,501.83l1.12.89Z"/><path class="cls-3" d="M252.86,436l1.1.74Z"/><path class="cls-3" d="M318.76,473.89l-2.48,1.87-.51-1,3.05-.8Z"/><path class="cls-3" d="M313.06,478.46c-.11-.23-.33-.49-.28-.65s.35-.43.54-.64a3.45,3.45,0,0,1,.38.92C313.72,478.18,313.29,478.33,313.06,478.46Z"/><path class="cls-3" d="M88.74,212q0-4.54,0-9.09C91.64,205.91,90.63,208.93,88.74,212Z"/><path class="cls-3" d="M87.78,201l-1-2.08Z"/><path class="cls-3" d="M88.78,203l-1-2.08Z"/><path class="cls-3" d="M430.27,446.31l.94,2.26a7.2,7.2,0,0,1-1.31-.81C429.8,447.66,430,447.19,430.27,446.31Z"/><path class="cls-3" d="M429.48,445.27c0,.1,0,.21,0,.32l-.57-.19a1.41,1.41,0,0,1,.31-.29C429.26,445.08,429.39,445.21,429.48,445.27Z"/><path class="cls-3" d="M397.79,196.88c-.35.69-.7,1.39-1,2.08C397.09,198.27,397.44,197.57,397.79,196.88Z"/><path class="cls-3" d="M260.1,314.34l2.3-8.6c15.29,6.92,30.87,13.31,43.91,24.29,11.65,9.81,17.29,22.47,17.63,37.59a16.9,16.9,0,0,1-.73,3.26c-1.27-5.55-2-10.42-3.52-15-3.88-11.9-12.21-20.26-23.09-25.69-9.94-4.95-20.44-8.78-30.68-13.13C264,316.19,262,315.24,260.1,314.34Z"/></g></g></svg>