<svg xmlns="http://www.w3.org/2000/svg" viewBox="0 0 146.08 117.26"><defs><style>.cls-1{fill:#fcebdb;}.cls-2{fill:#333f67;}.cls-3{fill:#354068;}.cls-4{fill:#333e67;}.cls-5{fill:#38446b;}.cls-6{fill:#364169;}.cls-7{fill:#343f67;}.cls-8{fill:#f4e5d7;}</style></defs><title>Q1Asset 1</title><g id="Layer_2" data-name="Layer 2"><g id="Layer_1-2" data-name="Layer 1"><g id="bubble1"><path class="cls-1" d="M77.9,117.22c-1.3,0-2.6.1-3.9,0-2.1-.1-4.3-.3-6.4-.5-2.7-.3-5.4-.6-8.1-1.1-2-.3-3.9-.9-5.9-1.4a90.58,90.58,0,0,1-10-3.4,73.49,73.49,0,0,1-10.1-5.1A68.6,68.6,0,0,1,24.2,99c-2.4-2.1-4.5-4.4-6.7-6.6a50,50,0,0,1-6.9-9,73.44,73.44,0,0,1-5.3-10,58.54,58.54,0,0,1-3.8-12.1c-.4-2.1-.7-4.3-1-6.5C.3,52.92.1,51,0,49a24.23,24.23,0,0,1,.3-4.7,44.32,44.32,0,0,1,1.9-8,41.1,41.1,0,0,1,5.9-10.9,58.4,58.4,0,0,1,5.1-5.9,63.92,63.92,0,0,1,11.7-9,69.46,69.46,0,0,1,16.3-7.1A61.55,61.55,0,0,1,51.7,1c2.5-.3,5.1-.7,7.7-.8,2,0,4-.3,5.9-.2,2.5.1,4.9.4,7.4.7a75.11,75.11,0,0,1,15.4,3.7,108.76,108.76,0,0,1,16.4,7.2,97.08,97.08,0,0,1,13.2,8.7,102.45,102.45,0,0,1,11.8,11A66.27,66.27,0,0,1,142.9,53a52.1,52.1,0,0,1,2.5,9.6,42,42,0,0,1,.6,10,39.71,39.71,0,0,1-4.8,16.9,42.07,42.07,0,0,1-5.6,7.7,52.06,52.06,0,0,1-17.3,12.1,74.18,74.18,0,0,1-17.1,5.5c-2,.4-4,.9-6,1.2-1.8.3-3.7.4-5.5.6s-3.5.3-5.2.5h-1c-2.1.1-3.8.1-5.6.1ZM46.5,31.12H43l-1.2,5.7h-.2c-.6-1.9-1.2-3.9-1.7-5.8H36.4c-.7,1.9-1,3.9-1.9,6-.4-2.2-.8-4.1-1.2-6H29.8c.9,3.9,1.8,7.6,2.6,11.4h3.7c.7-2.3,1.3-4.5,2.1-7,.8,2.5,1.4,4.8,2.1,7H44C44.7,38.82,45.6,35,46.5,31.12ZM36.1,81.42c1-2.8,2.1-5.5,3.2-8.3H36.1c-.6,1.6-.7,3.2-1.5,4.9-.6-1.8-1.2-3.4-1.7-4.9h-3c-.6,1.6-1.1,3.2-1.6,4.7h-.2c-.4-1.6-.9-3.2-1.3-4.7H23.6c1.1,2.8,2.1,5.6,3.2,8.3h3c.5-1.5,1.1-3,1.7-4.8.7,1.8,1.2,3.3,1.7,4.8Zm63.3-11.5a72.71,72.71,0,0,0,.1,11.5h2.8l.3-.9a1.76,1.76,0,0,0,.5.4,3.44,3.44,0,0,0,5.4-1.8,5.78,5.78,0,0,0,.2-3.2,3.56,3.56,0,0,0-5.1-2.7c-.3.1-.5.2-1,.4v-3.7Zm-59.8-8.5a9.25,9.25,0,0,0,1,.5,3.44,3.44,0,0,0,4.9-2.5,7.08,7.08,0,0,0,0-2.9c-.7-3-3.4-3.9-5.8-2.1a.37.37,0,0,1-.3.1c-.1-.3-.1-.6-.2-.8H36.3v11.5h3.3Zm70.3-7.1a9,9,0,0,0-.9-.5,3.51,3.51,0,0,0-5.2,2.5,6.61,6.61,0,0,0,0,2.8c.7,3,3.3,3.9,5.8,2.1a.37.37,0,0,1,.3-.1,3.09,3.09,0,0,1,.2.8H113V50.52h-3.3A24.2,24.2,0,0,1,109.9,54.32ZM51.3,35.12v-4H48v11.4h3.3v-1.6c0-1,0-2,.1-3s.5-1.4,1.2-1.4,1.1.5,1.1,1.4v4.5H57c0-2.1.1-4.1,0-6.1a2.48,2.48,0,0,0-2.6-2.4A5.53,5.53,0,0,0,51.3,35.12Zm8.9,46.3c0-2.1.1-4.2,0-6.2a2.6,2.6,0,0,0-2.5-2.4,3.73,3.73,0,0,0-3,.9c-.1.1-.2.1-.4.2L54,73H51v8.3h3.3v-2.5a17,17,0,0,1,.1-2.3,1.29,1.29,0,0,1,1.3-1.2,1.16,1.16,0,0,1,1,1.3v3.6c0,.4.1.7.1,1.1C58.1,81.42,59.1,81.42,60.2,81.42Zm-14.4-5.6a12.09,12.09,0,0,1-1.8.5c-1,.3-2.1.4-3.1.8a2.06,2.06,0,0,0-.7,3.5,3.26,3.26,0,0,0,1.8.8,4.9,4.9,0,0,0,3.9-.9c.3.3.6.8.9.8a10.42,10.42,0,0,0,2.5,0,25.28,25.28,0,0,1-.1-2.7v-2.8c-.1-1.2-.5-2.3-1.7-2.6a9.57,9.57,0,0,0-5.8,0,2.09,2.09,0,0,0-1.6,2.2c.4,0,.7.1,1,.1,1,0,1.9.3,2.9-.5C44.5,74.42,45.4,74.82,45.8,75.82Zm22.6-33.2c-.1-1.1-.1-1.9-.2-2.8V37a2.63,2.63,0,0,0-2-2.7,9.91,9.91,0,0,0-5.4.1,2.46,2.46,0,0,0-1.9,2.2c.4,0,.7.1,1,.1,1,0,1.9.4,2.9-.5.7-.7,1.6-.2,2.1.8a12.09,12.09,0,0,1-1.8.5c-1,.3-2.1.4-3.1.8a2.09,2.09,0,0,0-.6,3.6,2.84,2.84,0,0,0,1.7.7,4.59,4.59,0,0,0,3.8-.9c.4.3.7.7,1.1.8A9.66,9.66,0,0,0,68.4,42.62Zm22.1,11.1h-3a54,54,0,0,0,.1,8.3h3.2v-3.9a3.65,3.65,0,0,1,.3-1.5,2.28,2.28,0,0,1,1.2-.6c.5,0,.8.4.9.9v5h3.4c0-2.1.1-4,0-6a2.53,2.53,0,0,0-2.7-2.5,4.06,4.06,0,0,0-3.1,1.2A1.61,1.61,0,0,1,90.5,53.72Zm-33.6,4.8c.1-2.8-.9-4.4-3.1-4.8a10.28,10.28,0,0,0-3.5,0,4,4,0,0,0-3.4,4.2,4.12,4.12,0,0,0,3.3,4.2,11.5,11.5,0,0,0,3.7-.1,3.58,3.58,0,0,0,2.8-2.3c-1.4.1-2.6-.5-4,.3-1.1.7-2.2,0-2.3-1.5Zm63,19.4c.3-2.5-.8-4.3-2.9-4.8a9.73,9.73,0,0,0-3.8-.1,4.29,4.29,0,0,0,0,8.3,8.14,8.14,0,0,0,4.1-.1,3.5,3.5,0,0,0,2.4-2.2c-1.3.1-2.5-.6-3.8.3-1,.7-2.1,0-2.3-1.4Zm-.1-15.7h0a4.87,4.87,0,0,1,1.2-.1,4.19,4.19,0,0,0,3.8-4,4,4,0,0,0-3.1-4.3,7.72,7.72,0,0,0-3.7,0,4.26,4.26,0,0,0,0,8.2C118.5,62.12,119.2,62.12,119.8,62.22Zm-39,0v-.1H82a4.27,4.27,0,0,0,3.9-3.8,4,4,0,0,0-3-4.5,6.16,6.16,0,0,0-3.8,0,4.26,4.26,0,0,0,0,8.2A11.14,11.14,0,0,1,80.8,62.22Zm-64.3,0h0a4.87,4.87,0,0,1,1.2-.1,4.37,4.37,0,0,0,3.9-4,4.23,4.23,0,0,0-3.1-4.4,7.72,7.72,0,0,0-3.7,0,4.29,4.29,0,0,0-3.2,4.1,4.07,4.07,0,0,0,3.1,4.1A11.27,11.27,0,0,0,16.5,62.22Zm81-19.4v-.1h1.2a4.29,4.29,0,0,0,3.9-4,4.06,4.06,0,0,0-3.1-4.4,7.72,7.72,0,0,0-3.7,0,4.26,4.26,0,0,0,0,8.2C96.3,42.62,96.9,42.72,97.5,42.82ZM87,81.62v-.1h1.2a4.27,4.27,0,0,0,3.9-3.8,4,4,0,0,0-3-4.5,6.16,6.16,0,0,0-3.8,0,4.09,4.09,0,0,0-3.1,4.1,4.17,4.17,0,0,0,3.1,4.1C85.8,81.52,86.4,81.52,87,81.62Zm-21.5-22a14.17,14.17,0,0,0,1.1,1.6c1,1.3,6.1,1.3,7.5-.1s1.1-3.2-.6-3.9a8,8,0,0,0-2.1-.5,12.23,12.23,0,0,1-1.7-.3c-.2-.1-.4-.4-.6-.6.2-.2.5-.5.7-.5a3.26,3.26,0,0,1,1.4.4c.3.1.5.3.8.3a22.86,22.86,0,0,0,2.5-.2,2.51,2.51,0,0,0-1.7-2,7.44,7.44,0,0,0-5.3.1,2.27,2.27,0,0,0,.1,4.3,15.54,15.54,0,0,0,2.3.5l1.4.3a.68.68,0,0,1,.4.6.89.89,0,0,1-.4.5c-.5.3-1.6.3-1.9-.2-.5-.7-1-.6-1.7-.6S66.5,59.52,65.5,59.62ZM91,36.42c-.3-1.1-.7-1.7-1.6-2a7.44,7.44,0,0,0-5.3.1,2.25,2.25,0,0,0-1.5,2.2,2.28,2.28,0,0,0,1.6,2.1c.7.2,1.5.3,2.3.5l1.4.3a.82.82,0,0,1,.4.6.89.89,0,0,1-.4.5,1.73,1.73,0,0,1-2.1-.4,1.52,1.52,0,0,0-.8-.4,24.52,24.52,0,0,0-2.7.2,3,3,0,0,0,2,2.3,8.52,8.52,0,0,0,5,0,3.13,3.13,0,0,0,1-.5,2.35,2.35,0,0,0-.4-4.2c-.6-.2-1.3-.3-2-.5a12.23,12.23,0,0,1-1.7-.3c-.2-.1-.4-.4-.6-.6.2-.2.5-.5.7-.5a3.26,3.26,0,0,1,1.4.4,2.12,2.12,0,0,0,.7.3A11.33,11.33,0,0,0,91,36.42ZM23.5,56v5.9h3.3v-6c.6,0,1-.1,1.5-.1v-2.2c-.5-.1-1-.1-1.5-.2,0-1.5,1.2-.7,1.9-1.1q.15-.75.3-1.8a7.35,7.35,0,0,0-3.6-.2,2.14,2.14,0,0,0-1.9,2c-.1.3,0,.6-.1.9,0,.1-.1.2-.1.3-.4.1-.7.1-1,.2v2.2A4.87,4.87,0,0,1,23.5,56Zm52.1-15.6H74a24.44,24.44,0,0,1-.1-3.8c.7,0,1.2-.1,1.7-.1v-2.2c-.6-.1-1.2-.1-1.8-.2v-3c-1.2.6-2.3,1.1-3.3,1.6a7.6,7.6,0,0,0-.1,1.4c-.4.1-.7.1-1.1.2v2.1l1.1.3v1.5a22.6,22.6,0,0,0,.1,2.6,1.83,1.83,0,0,0,1.4,1.8,7,7,0,0,0,3.8-.1A14.08,14.08,0,0,0,75.6,40.42Zm37.4-3.8v4a1.75,1.75,0,0,0,1.2,1.8,7.15,7.15,0,0,0,4.1,0c-.1-.7-.2-1.4-.3-2h-.6c-.9,0-1,0-1-.9v-2.9c.7-.1,1.2-.1,1.7-.2v-2.2c-.6,0-1.1-.1-1.8-.1V31c-1.2.6-2.3,1.1-3.3,1.6-.1.5-.1,1-.2,1.4a4.25,4.25,0,0,1-1.1.2v2.1A6.11,6.11,0,0,0,113,36.62ZM62.9,75.42v2a22.75,22.75,0,0,0,.2,2.6,1.63,1.63,0,0,0,1.1,1.3,6.82,6.82,0,0,0,4,0c-.1-.8-.2-1.4-.3-2h-.5c-1.1,0-1.2,0-1.2-1.1v-2.7c.7,0,1.2-.1,1.7-.1v-2.2c-.6-.1-1.2-.1-1.8-.2V70c-1.2.6-2.3,1.1-3.3,1.6a6.6,6.6,0,0,1-.1,1.4c-.4.1-.7.1-1.1.2v2.2A2.85,2.85,0,0,1,62.9,75.42Zm18-2.3c-.6-.1-1.2-.1-1.8-.2v-3c-1.2.6-2.2,1.1-3.3,1.6,0,.5-.1,1-.1,1.4-.4.1-.7.1-1.1.2v2.1a4.25,4.25,0,0,0,1.1.2v2a19.42,19.42,0,0,0,.2,2.4,1.83,1.83,0,0,0,1.3,1.5,7,7,0,0,0,3.8-.1c-.1-.7-.2-1.4-.3-2-.4,0-.7.1-.9,0s-.7-.4-.7-.6c-.1-1.1,0-2.2,0-3.3.7,0,1.2-.1,1.7-.1A14.77,14.77,0,0,0,80.9,73.12Zm51.5-22.6V62a22.88,22.88,0,0,0,3.7-.1V50.42C134.7,50.52,133.6,50.52,132.4,50.52Zm-6.1,27.3c.7-.8,1.1-1.4,1.6-1.9s.9-.8,1.3-1.2a2.57,2.57,0,0,0,.1-3.3,4.43,4.43,0,0,0-1.5-1.2,6,6,0,0,0-4.9,0,3.78,3.78,0,0,0-2.2,3.3,29.09,29.09,0,0,1,3.1.4,7.6,7.6,0,0,0,.4-1.1,1.14,1.14,0,0,1,1.3-.5,1.28,1.28,0,0,1,.7.5c.2.5-.1.9-.5,1.2a17.38,17.38,0,0,0-1.5,1.3,2.7,2.7,0,0,0-.8,2.6C124.7,77.82,125.6,77.82,126.3,77.82ZM111,34.52a2.65,2.65,0,0,0-3.6.6c-.1-.4-.1-.6-.2-.9h-3v8.3h3.4V40a19.42,19.42,0,0,1,.2-2.4c.2-.9.7-1.1,1.6-1a.9.9,0,0,1,.5.1C110.3,36,110.6,35.32,111,34.52ZM61.4,53.72h-3V62h3.3v-3.2A5.66,5.66,0,0,1,62,57a1.3,1.3,0,0,1,1.6-1,1.27,1.27,0,0,1,.6.1,22,22,0,0,1,.9-2.1c-1.5-.8-2.2-.6-3.6.5A2,2,0,0,0,61.4,53.72Zm65.4,27.7v-2.8h-3.3v2.8Z"/><path class="cls-2" d="M46.7,31.12c-.9,3.9-1.8,7.6-2.6,11.4H40.4c-.7-2.2-1.3-4.5-2.1-7-.7,2.5-1.4,4.7-2.1,7H32.5c-.9-3.8-1.7-7.5-2.6-11.4h3.5c.4,1.9.8,3.8,1.2,6,.8-2.1,1.2-4.1,1.9-6H40c.6,1.9,1.1,3.8,1.7,5.8h.2l1.2-5.7C44.3,31.12,45.4,31.12,46.7,31.12Z"/><path class="cls-3" d="M36.3,81.32h-3c-.5-1.5-1.1-3-1.7-4.8-.6,1.8-1.1,3.3-1.7,4.8h-3c-1-2.7-2.1-5.5-3.2-8.3h3.2c.4,1.6.9,3.1,1.3,4.7h.2c.5-1.6,1.1-3.1,1.6-4.7h3c.5,1.5,1.1,3.1,1.7,4.9.8-1.7.9-3.3,1.5-4.9h3.2C38.4,75.82,37.3,78.62,36.3,81.32Z"/><path class="cls-4" d="M99.6,69.92h3.2v3.7c.5-.2.7-.3,1-.4a3.61,3.61,0,0,1,5.1,2.7,7,7,0,0,1-.2,3.2,3.46,3.46,0,0,1-5.4,1.8c-.1-.1-.3-.2-.5-.4l-.3.9H99.7A72.85,72.85,0,0,1,99.6,69.92Zm6.1,7.3c0-.2-.1-.4-.1-.6-.2-.9-.7-1.3-1.4-1.3a1.32,1.32,0,0,0-1.3,1.3v.9c.1,1,.6,1.6,1.4,1.6s1.2-.4,1.4-1.4A.45.45,0,0,1,105.7,77.22Z"/><path class="cls-4" d="M39.8,61.32v3.8H36.5V53.62h2.9c.1.2.1.5.2.8.1,0,.3,0,.3-.1,2.5-1.8,5.2-.9,5.8,2.1a7.08,7.08,0,0,1,0,2.9,3.55,3.55,0,0,1-4.9,2.5A9.25,9.25,0,0,1,39.8,61.32Zm2.9-3.7a7,7,0,0,0-.3-1.2,1.27,1.27,0,0,0-2.2-.1,3,3,0,0,0,0,2.6,1.2,1.2,0,0,0,1.3.6,1.17,1.17,0,0,0,1-.9A8.66,8.66,0,0,0,42.7,57.62Z"/><path class="cls-2" d="M110.1,54.32v-3.7h3.3V62h-2.9c-.1-.2-.1-.5-.2-.8-.1,0-.3,0-.3.1-2.5,1.8-5.1.9-5.8-2.1a6.61,6.61,0,0,1,0-2.8,3.51,3.51,0,0,1,5.2-2.5C109.5,53.92,109.7,54,110.1,54.32ZM107.3,58a1.49,1.49,0,0,0,.1.6,1.36,1.36,0,0,0,1.3,1.1,1.27,1.27,0,0,0,1.3-1,2,2,0,0,0,.1-.8,1.73,1.73,0,0,0-1.5-2.1C107.8,55.92,107.2,56.62,107.3,58Z"/><path class="cls-5" d="M51.5,35.12A4.19,4.19,0,0,1,54.7,34a2.48,2.48,0,0,1,2.6,2.4c.1,2,0,4,0,6.1H54V38c0-1-.4-1.4-1.1-1.4s-1.2.5-1.2,1.4,0,2-.1,3v1.6H48.3V31.22h3.3C51.5,32.32,51.5,33.62,51.5,35.12Z"/><path class="cls-5" d="M60.4,81.42H57.2c0-.4-.1-.8-.1-1.1v-3.6a1.16,1.16,0,0,0-1-1.3,1.22,1.22,0,0,0-1.3,1.2,17.7,17.7,0,0,0-.1,2.3v2.5H51.4v-8.3h3l.3.9c.1-.1.3-.1.4-.2a3.73,3.73,0,0,1,3-.9,2.45,2.45,0,0,1,2.5,2.4C60.5,77.22,60.4,79.22,60.4,81.42Z"/><path class="cls-3" d="M46,75.82c-.4-1-1.4-1.4-2.1-.8-.9.9-1.9.5-2.9.5a3.75,3.75,0,0,1-1-.1,2.19,2.19,0,0,1,1.6-2.2,9.57,9.57,0,0,1,5.8,0,2.5,2.5,0,0,1,1.7,2.6v2.8c0,.8.1,1.7.1,2.7a7,7,0,0,1-2.5,0c-.3,0-.6-.5-.9-.8a4.9,4.9,0,0,1-3.9.9,4.17,4.17,0,0,1-1.8-.8,2.14,2.14,0,0,1,.7-3.5c1-.4,2.1-.5,3.1-.8S45.4,75.92,46,75.82Zm-.1,1.8a15.46,15.46,0,0,0-2.3.7,1,1,0,0,0-.4.7c0,.2.3.5.6.6C45,80,46,79,45.9,77.62Z"/><path class="cls-3" d="M68.6,42.62a19.22,19.22,0,0,1-2.4,0c-.4-.1-.7-.5-1.1-.8a4.67,4.67,0,0,1-3.8.9,4.36,4.36,0,0,1-1.7-.7,2.13,2.13,0,0,1,.6-3.6c1-.4,2.1-.5,3.1-.8.6-.2,1.2-.3,1.8-.5-.4-1-1.3-1.4-2.1-.8-.9.9-1.9.5-2.9.5-.3,0-.7-.1-1-.1a2.46,2.46,0,0,1,1.9-2.2,11,11,0,0,1,5.4-.1,2.63,2.63,0,0,1,2,2.7v2.8A18.7,18.7,0,0,1,68.6,42.62ZM65,38.82c-.6.1-1.2.3-1.7.4a.76.76,0,0,0-.5.2,1.77,1.77,0,0,0-.5.8c0,.2.4.5.7.6C64.3,41.12,65.2,40.22,65,38.82Z"/><path class="cls-6" d="M90.7,53.62c.1.3.1.6.2,1a4.21,4.21,0,0,1,3.1-1.2c1.6.1,2.6.8,2.7,2.5.1,2,0,3.9,0,6H93.3v-5c0-.5-.4-1-.9-.9a1.74,1.74,0,0,0-1.2.6,2.54,2.54,0,0,0-.3,1.5V62H87.7c-.3-.9-.3-5.9-.1-8.3C88.6,53.62,89.6,53.62,90.7,53.62Z"/><path class="cls-4" d="M57.1,58.42H50.7c.1,1.4,1.2,2.2,2.3,1.5,1.3-.9,2.5-.2,4-.3a3.28,3.28,0,0,1-2.8,2.3,15.28,15.28,0,0,1-3.7.1,3.89,3.89,0,0,1-3.3-4.2,4,4,0,0,1,3.4-4.2,10.28,10.28,0,0,1,3.5,0C56.2,54,57.2,55.72,57.1,58.42Zm-6.5-1.7h3.1c-.4-1.1-.8-1.3-1.6-1.3S51,55.72,50.6,56.72Z"/><path class="cls-4" d="M120.1,77.92h-6.4c.2,1.4,1.2,2.2,2.3,1.4,1.3-.9,2.5-.2,3.8-.3a3.52,3.52,0,0,1-2.4,2.2,8.14,8.14,0,0,1-4.1.1,3.93,3.93,0,0,1-3.2-4.1c0-2.2,1.2-3.9,3.2-4.2a9.73,9.73,0,0,1,3.8.1C119.3,73.52,120.3,75.32,120.1,77.92Zm-3.5-1.7c-.2-1.1-.6-1.4-1.5-1.4s-1.3.4-1.5,1.4h3Z"/><path class="cls-7" d="M120,62.22a12.5,12.5,0,0,1-1.9-.3,4.26,4.26,0,0,1,0-8.2,7.72,7.72,0,0,1,3.7,0,4.24,4.24,0,0,1-.7,8.3c-.3.1-.7.1-1.1.2Zm1.7-4.6a5.76,5.76,0,0,0-.2-1,1.64,1.64,0,0,0-1.5-1,1.72,1.72,0,0,0-1.5,1.9c-.1,1.3.4,2.1,1.4,2.3S121.6,59.22,121.7,57.62Z"/><path class="cls-2" d="M81,62.12a11.27,11.27,0,0,1-1.8-.3,4.07,4.07,0,0,1-3.1-4.1,4.17,4.17,0,0,1,3.1-4.1,7,7,0,0,1,3.8,0,4,4,0,0,1,3,4.5,4.18,4.18,0,0,1-3.9,3.8H80.9Zm-1.6-4.3c0,.3.1.5.1.8a1.52,1.52,0,0,0,3,0,3.79,3.79,0,0,0,0-1.5,1.7,1.7,0,0,0-1.5-1.4,1.6,1.6,0,0,0-1.6,1.4A.85.85,0,0,1,79.4,57.82Z"/><path class="cls-7" d="M16.7,62.22l-1.9-.3a4.24,4.24,0,0,1,.1-8.2,7.72,7.72,0,0,1,3.7,0,4.23,4.23,0,0,1,3.1,4.4,4.13,4.13,0,0,1-3.9,4,4.48,4.48,0,0,0-1.1.1C16.8,62.12,16.7,62.12,16.7,62.22Zm-1.5-4.5a1.7,1.7,0,0,0,.1.7,1.6,1.6,0,0,0,1.6,1.4,1.34,1.34,0,0,0,1.5-1.4,3.3,3.3,0,0,0,0-1.4,1.43,1.43,0,0,0-1.4-1.4A1.6,1.6,0,0,0,15.4,57,1,1,0,0,0,15.2,57.72Z"/><path class="cls-7" d="M97.7,42.72a11.27,11.27,0,0,1-1.8-.3,4.26,4.26,0,0,1,0-8.2,7.72,7.72,0,0,1,3.7,0,4,4,0,0,1,3.1,4.4,4.29,4.29,0,0,1-3.9,4H97.6Zm1.7-4.4c0-1.3-.6-2.1-1.6-2.1s-1.7.9-1.6,2.3.7,2,1.8,1.9C98.9,40.32,99.4,39.62,99.4,38.32Z"/><path class="cls-2" d="M87.2,81.62a11.27,11.27,0,0,1-1.8-.3,4.07,4.07,0,0,1-3.1-4.1,4.17,4.17,0,0,1,3.1-4.1,7,7,0,0,1,3.8,0,4,4,0,0,1,3,4.5,4.18,4.18,0,0,1-3.9,3.8H87.1C87.2,81.52,87.2,81.52,87.2,81.62Zm1.8-4.4a5.27,5.27,0,0,0-.3-1.2,1.41,1.41,0,0,0-1.4-1,1.33,1.33,0,0,0-1.4.9,3.31,3.31,0,0,0,0,2.4,1.42,1.42,0,0,0,1.3.9c.7,0,1.2-.2,1.4-.9A3.58,3.58,0,0,0,89,77.22Z"/><path class="cls-3" d="M65.7,59.52c1-.1,1.6-.2,2.3-.2a1.52,1.52,0,0,1,1.7.6c.3.5,1.4.5,1.9.2a.66.66,0,0,0,.4-.5.82.82,0,0,0-.4-.6,5.77,5.77,0,0,0-1.4-.3c-.8-.2-1.5-.3-2.3-.5a2.05,2.05,0,0,1-1.6-2.1,2.09,2.09,0,0,1,1.5-2.2,7.44,7.44,0,0,1,5.3-.1,2.51,2.51,0,0,1,1.7,2,22.86,22.86,0,0,1-2.5.2c-.3,0-.5-.2-.8-.3-.5-.1-1-.3-1.4-.4-.2,0-.4.3-.7.5.2.2.4.5.6.6a8.58,8.58,0,0,0,1.7.3,7.17,7.17,0,0,1,2.1.5c1.7.7,1.9,2.6.6,3.9s-6.4,1.3-7.5.1A7.35,7.35,0,0,1,65.7,59.52Z"/><path class="cls-3" d="M91.2,36.32a22.86,22.86,0,0,1-2.5.2c-.2,0-.4-.2-.7-.3a7.37,7.37,0,0,0-1.4-.4c-.2,0-.5.3-.7.5.2.2.3.5.6.6a8.58,8.58,0,0,0,1.7.3,11.7,11.7,0,0,1,2,.5,2,2,0,0,1,1.5,1.9,2.3,2.3,0,0,1-1.1,2.3,4.67,4.67,0,0,1-1,.5,10.57,10.57,0,0,1-5,0,2.57,2.57,0,0,1-2-2.3,26.45,26.45,0,0,1,2.7-.2,1.23,1.23,0,0,1,.8.4,1.88,1.88,0,0,0,2.1.4.66.66,0,0,0,.4-.5.82.82,0,0,0-.4-.6,5.77,5.77,0,0,0-1.4-.3c-.8-.2-1.5-.3-2.3-.5a2.05,2.05,0,0,1-1.6-2.1,2,2,0,0,1,1.5-2.2,7.44,7.44,0,0,1,5.3-.1A2.35,2.35,0,0,1,91.2,36.32Z"/><path class="cls-3" d="M23.7,56c-.5-.1-.8-.1-1.2-.2v-2.2c.4-.1.7-.1,1-.2,0-.1.1-.2.1-.3a2.77,2.77,0,0,1,.1-.9,2.23,2.23,0,0,1,1.9-2,8.77,8.77,0,0,1,3.6.2q-.15,1-.3,1.8c-.7.4-1.9-.3-1.9,1.1.5.1.9.1,1.5.2v2.2c-.5,0-.9.1-1.5.1v6H23.7Z"/><path class="cls-3" d="M75.8,40.32c.1.8.1,1.4.2,2.1a7,7,0,0,1-3.8.1,1.92,1.92,0,0,1-1.4-1.8,22.6,22.6,0,0,1-.1-2.6v-1.5c-.4-.1-.8-.2-1.1-.3v-2.1c.4-.1.7-.1,1.1-.2,0-.4.1-.9.1-1.4,1-.5,2.1-1,3.3-1.6v3c.6.1,1.2.1,1.8.2v2.2c-.5,0-1,.1-1.7.1a24.44,24.44,0,0,0,.1,3.8Z"/><path class="cls-3" d="M113.2,36.62a7.38,7.38,0,0,0-1.2-.2v-2.1c.3-.1.7-.1,1.1-.2.1-.4.1-.9.2-1.4,1-.5,2-1,3.3-1.6v3.1c.7,0,1.2.1,1.8.1v2.2a12.77,12.77,0,0,0-1.7.2v2.9c0,.8.1.9,1,.9h.6c.1.6.2,1.3.3,2a6.39,6.39,0,0,1-4.1,0,1.83,1.83,0,0,1-1.2-1.8C113.2,39.32,113.2,38,113.2,36.62Z"/><path class="cls-4" d="M63,75.42c-.4-.1-.8-.1-1.1-.2V73c.4-.1.7-.1,1.1-.2a6.6,6.6,0,0,1,.1-1.4c1.1-.5,2.1-1,3.3-1.6v3c.6.1,1.1.1,1.8.2v2.2c-.5,0-1.1.1-1.7.1V78c0,1.1.1,1.1,1.2,1.1h.5c.1.6.2,1.3.3,2a6.09,6.09,0,0,1-4,0,1.63,1.63,0,0,1-1.1-1.3,22.75,22.75,0,0,1-.2-2.6A5.24,5.24,0,0,1,63,75.42Z"/><path class="cls-4" d="M81.1,73v2.2c-.6,0-1.1.1-1.7.1v3.3c0,.2.4.5.7.6a2.72,2.72,0,0,0,.9,0c.1.7.2,1.3.3,2a7,7,0,0,1-3.8.1,1.71,1.71,0,0,1-1.3-1.5,19.42,19.42,0,0,1-.2-2.4v-2a5.16,5.16,0,0,0-1.1-.2v-2.1c.4-.1.7-.1,1.1-.2,0-.5.1-.9.1-1.4,1-.5,2.1-1,3.3-1.6v3A9.7,9.7,0,0,1,81.1,73Z"/><path class="cls-5" d="M132.6,50.52h3.7V62a22.57,22.57,0,0,1-3.7.1Z"/><path class="cls-6" d="M126.5,77.72h-2.6a2.7,2.7,0,0,1,.8-2.6,17.38,17.38,0,0,0,1.5-1.3c.4-.3.7-.7.5-1.2a1.28,1.28,0,0,0-.7-.5,1.14,1.14,0,0,0-1.3.5,2.82,2.82,0,0,0-.4,1.1c-1-.1-2-.2-3.1-.4a3.66,3.66,0,0,1,2.2-3.3,6,6,0,0,1,4.9,0,3.49,3.49,0,0,1,1.5,1.2,2.57,2.57,0,0,1-.1,3.3c-.4.4-.9.8-1.3,1.2A18.41,18.41,0,0,0,126.5,77.72Z"/><path class="cls-7" d="M111.2,34.42c-.4.8-.7,1.5-1,2.2a4.33,4.33,0,0,1-.5-.1c-1-.1-1.4.1-1.6,1a9.74,9.74,0,0,0-.2,2.4v2.5h-3.4v-8.3h3c.1.3.1.5.2.9C108.6,33.92,109.7,33.72,111.2,34.42Z"/><path class="cls-7" d="M61.6,53.62c.1.3.1.5.2.8,1.3-1.1,2.1-1.3,3.6-.5L64.5,56c-.2,0-.4-.1-.6-.1-.9-.1-1.3.1-1.6,1a11.27,11.27,0,0,0-.3,1.8v3.2H58.7v-8.3Z"/><path class="cls-5" d="M127,81.32h-3.3v-2.8H127Z"/><path class="cls-8" d="M105.7,77.22a4.33,4.33,0,0,1-.1.5c-.2,1-.6,1.4-1.4,1.4s-1.3-.6-1.4-1.6v-.9a1.32,1.32,0,0,1,1.3-1.3c.7,0,1.2.4,1.4,1.3C105.6,76.82,105.6,77,105.7,77.22Z"/><path class="cls-8" d="M42.7,57.62c-.1.4-.1.8-.2,1.1a1.3,1.3,0,0,1-1,.9,1.14,1.14,0,0,1-1.3-.6,3,3,0,0,1,0-2.6,1.27,1.27,0,0,1,2.2.1C42.5,56.82,42.6,57.32,42.7,57.62Z"/><path class="cls-8" d="M107.3,58c0-1.4.5-2.1,1.4-2.1s1.5.8,1.5,2.1c0,.3-.1.5-.1.8a1.27,1.27,0,0,1-1.3,1,1.36,1.36,0,0,1-1.3-1.1A1.23,1.23,0,0,1,107.3,58Z"/><path class="cls-8" d="M45.9,77.62c.2,1.5-.9,2.5-2.1,2a1.72,1.72,0,0,1-.6-.6,1,1,0,0,1,.4-.7A15.46,15.46,0,0,1,45.9,77.62Z"/><path class="cls-8" d="M65,38.82c.2,1.4-.7,2.3-2,2-.3-.1-.7-.4-.7-.6a1.77,1.77,0,0,1,.5-.8c.1-.1.3-.1.5-.2C63.9,39.12,64.4,38.92,65,38.82Z"/><path class="cls-8" d="M50.6,56.72c.3-1,.7-1.3,1.5-1.3s1.1.3,1.6,1.3Z"/><path class="cls-8" d="M116.6,76.22a1.48,1.48,0,0,0-.7.1h-2.2c.2-1.1.6-1.4,1.5-1.4S116.4,75.12,116.6,76.22Z"/><path class="cls-8" d="M121.7,57.62c0,1.6-.7,2.4-1.9,2.2-.9-.1-1.4-1-1.4-2.3a1.87,1.87,0,0,1,1.5-1.9,1.64,1.64,0,0,1,1.5,1A9.25,9.25,0,0,1,121.7,57.62Z"/><path class="cls-8" d="M79.4,57.82c0-.3.1-.5.1-.8a1.6,1.6,0,0,1,1.6-1.4A1.68,1.68,0,0,1,82.6,57a3.79,3.79,0,0,1,0,1.5,1.58,1.58,0,0,1-1.5,1.3,1.42,1.42,0,0,1-1.5-1.3C79.5,58.32,79.5,58,79.4,57.82Z"/><path class="cls-8" d="M15.2,57.72a1.7,1.7,0,0,1,.1-.7,1.79,1.79,0,0,1,1.6-1.4A1.43,1.43,0,0,1,18.3,57a3.3,3.3,0,0,1,0,1.4c-.2,1-.7,1.4-1.5,1.4a1.6,1.6,0,0,1-1.6-1.4Z"/><path class="cls-8" d="M99.4,38.32c0,1.2-.5,2-1.5,2.1s-1.7-.6-1.8-1.9.6-2.3,1.6-2.3S99.4,37.12,99.4,38.32Z"/><path class="cls-8" d="M89,77.22a5.27,5.27,0,0,1-.3,1.2,1.51,1.51,0,0,1-1.4.9,1.29,1.29,0,0,1-1.3-.9A3.31,3.31,0,0,1,86,76a1.42,1.42,0,0,1,1.4-.9,1.31,1.31,0,0,1,1.4,1A6.53,6.53,0,0,0,89,77.22Z"/></g></g></g></svg>