<svg xmlns="http://www.w3.org/2000/svg" viewBox="0 0 126.11 103.23"><defs><style>.cls-1{fill:#fcebdb;}.cls-2{fill:#323d66;}.cls-3{fill:#333e67;}.cls-4{fill:#333f67;}.cls-5{fill:#343f67;}.cls-6{fill:#354068;}.cls-7{fill:#f4e5d7;}</style></defs><title>Q2Asset 2</title><g id="Layer_2" data-name="Layer 2"><g id="Layer_1-2" data-name="Layer 1"><g id="bubble2"><path class="cls-1" d="M74.29.1a1.85,1.85,0,0,0,.7.2A31,31,0,0,1,85,2.6a50.79,50.79,0,0,1,12.6,7.2,59.81,59.81,0,0,1,8.2,7.7A81.43,81.43,0,0,1,116,31.9a92.18,92.18,0,0,1,6.5,14.3,76.09,76.09,0,0,1,2.8,10.4,51.89,51.89,0,0,1,.8,11.1,39.73,39.73,0,0,1-4.4,18.2,30.19,30.19,0,0,1-9.5,10.9,34.93,34.93,0,0,1-13.5,5.6,44.29,44.29,0,0,1-5.1.6,41.8,41.8,0,0,1-5,.2c-2.4-.1-4.9-.4-7.3-.7-3.2-.4-6.3-1.1-9.5-1.5-2.2-.3-4.4-.4-6.7-.6-6.1-.6-12.1-.2-18.2-.2-2.4,0-4.9.3-7.3.5h-.3c-5.1.1-10.2.4-15.2.2a28,28,0,0,1-13-3.1,18,18,0,0,1-5.8-5.2,25.83,25.83,0,0,1-4.2-10.3c-.4-2.1-.6-4.2-.8-6.4a2.77,2.77,0,0,0-.1-.9,3.93,3.93,0,0,1,0-2.4c.2-1.2.2-2.5.3-3.7A42.3,42.3,0,0,1,3,58.4a67.86,67.86,0,0,1,6.3-13,87.27,87.27,0,0,1,6.9-9.9c1.7-2.2,3.6-4.2,5.5-6.3a57.74,57.74,0,0,1,4.2-4.4c3.2-3,6.4-5.9,9.9-8.7a94.74,94.74,0,0,1,11.3-7.8c5.3-3.1,10.8-6,16.8-7.3,1.5-.3,3.1-.5,4.7-.7a1.91,1.91,0,0,0,.8-.3C71,.1,72.69.1,74.29.1ZM34.09,40.4h-.2c-.4-1.9-.8-3.8-1.2-5.6h-3.5c.9,3.9,1.8,7.6,2.6,11.4h3.6c.8-2.2,1.2-4.4,2.3-6.5.6,2.2,1.3,4.3,1.9,6.5h3.7c.9-3.8,1.7-7.5,2.6-11.4h-3.5c-.6,1.9-.7,3.8-1.4,5.9-.6-2.2-1.2-4.1-1.8-6h-3.5C35.19,36.6,34.69,38.5,34.09,40.4Zm6.8,25.1h3c.5-1.5,1.1-3.1,1.7-4.8.7,1.8,1.2,3.4,1.7,4.8h3c1-2.7,2.1-5.5,3.1-8.3h-3.2c-.4,1.6-.9,3.1-1.3,4.6h-.3c-.5-1.5-1.1-3-1.6-4.6H44c-.7,1.6-1,3.2-1.8,4.9-.5-1.8-.9-3.3-1.3-4.9h-3.2C38.89,60.1,39.89,62.8,40.89,65.5Zm19.2,19.4a72.3,72.3,0,0,0,0-11.4h-3.2v3.7a9.25,9.25,0,0,0-1-.5A3.48,3.48,0,0,0,51,79a5.53,5.53,0,0,0,.3,4,3.43,3.43,0,0,0,4.4,1.9c.4-.2.8-.5,1.2-.7h.3a6.37,6.37,0,0,1,.2.7Zm31.2-38.8V34.7h-3.4v3.7c-.4-.2-.7-.4-.9-.5a3.58,3.58,0,0,0-5.1,2.4,5.55,5.55,0,0,0,.4,4,3.32,3.32,0,0,0,3.9,1.8c.6-.2,1.2-.5,1.9-.8.1.2.2.5.3.7A27.15,27.15,0,0,0,91.29,46.1Zm-38.1,0h3.3c0-2.1.1-4.1,0-6.1-.1-1.5-1.1-2.3-2.7-2.4a4.47,4.47,0,0,0-3,1.1V34.8h-3.3V46.1h3.3V42.2a3.53,3.53,0,0,1,.3-1.4c.2-.6.7-.7,1.3-.6a.89.89,0,0,1,.8,1v4.9Zm5.3-5.9c1.3,0,2.6.8,3.8-.4.3-.3,1.1-.1,1.7-.1.2,0,.3.4.5.8-.9.2-1.7.4-2.5.6a21,21,0,0,0-2.4.6,2.25,2.25,0,0,0-1.5,2.2,2.13,2.13,0,0,0,1.6,2.1,3.72,3.72,0,0,0,1.8.2c1-.2,2-.5,3.2-.8,0,.7.6.7,1.2.7H68a23.2,23.2,0,0,1-.2-2.4V40.6c-.1-1.5-.7-2.4-1.9-2.7a11,11,0,0,0-5.4,0A2.36,2.36,0,0,0,58.49,40.2Zm1.8,19.7c-.7.2-1.2.4-1.6.5-1,.2-2,.4-3,.7-1.3.4-1.9,1.1-1.8,2.3a2.33,2.33,0,0,0,2,2.2,5.09,5.09,0,0,0,4.4-.9c.2.8.8.9,1.5.9h1.8c-.1-1.2-.1-2.2-.1-3.3V59.8a2.7,2.7,0,0,0-2-2.6,11.42,11.42,0,0,0-5.2,0,2.57,2.57,0,0,0-2,2.3,2,2,0,0,0,.7.1c1.1.1,2.2.5,3.1-.5.3-.3,1.1-.1,1.6-.1A6.78,6.78,0,0,0,60.29,59.9Zm8.4,5.6V62.3a9.7,9.7,0,0,1,.1-1.7,1,1,0,0,1,1.2-1c.7,0,1,.4,1.1,1.2v4.8h3.4c0-2,.1-3.9,0-5.8a2.65,2.65,0,0,0-2.8-2.7,3.94,3.94,0,0,0-2.7,1c-.1.1-.2.1-.4.2-.1-.3-.1-.6-.2-.9h-3v8.3A18.84,18.84,0,0,1,68.69,65.5Zm-1.9,10.8a9.83,9.83,0,0,0-2.2.5,4,4,0,0,0-2.7,4,4.08,4.08,0,0,0,2.8,4,6.35,6.35,0,0,0,4.3,0,4.08,4.08,0,0,0,2.9-4.1,4,4,0,0,0-3.2-4C68.09,76.5,67.49,76.5,66.79,76.3Zm31.1-38.8-1.9.3a4,4,0,0,0-3,4,4.12,4.12,0,0,0,2.9,4.1,6.7,6.7,0,0,0,4.2,0,4.33,4.33,0,0,0-.3-8.2A12.25,12.25,0,0,1,97.89,37.5Zm3.5,28.3c.8-.2,1.6-.3,2.3-.5a4,4,0,0,0,2.7-4,3.8,3.8,0,0,0-2.8-3.9,6.35,6.35,0,0,0-4.3,0,4.23,4.23,0,0,0-.1,8A17,17,0,0,0,101.39,65.8ZM69.89,40.2v1.6A16.2,16.2,0,0,0,70,44c.2,1.6.8,2.2,2.4,2.3.9,0,1.9-.1,2.9-.2-.1-.8-.2-1.5-.3-2.2-.4,0-.6.1-.9.1-.5,0-.8-.2-.8-.8V40.1c.7-.1,1.2-.1,1.7-.2V37.7c-.6,0-1.1-.1-1.7-.1v-3c-1.2.6-2.3,1.1-3.3,1.6,0,.5-.1,1-.1,1.4l-1.1.3V40C69.19,40.1,69.49,40.1,69.89,40.2Zm10.6,16.9v-3c-1.2.6-2.2,1.1-3.3,1.6-.1.5-.1,1-.2,1.4a4.4,4.4,0,0,1-1,.2v2.1a4.25,4.25,0,0,0,1.1.2v1.5a19.27,19.27,0,0,0,.1,2.4,2.18,2.18,0,0,0,2.1,2.1,7,7,0,0,0,3.2-.3,13.55,13.55,0,0,1-.2-2c-.3,0-.6.1-.8.1-.5,0-.9-.2-.9-.7V59.5a10.9,10.9,0,0,1,1.7-.1V57.2C81.69,57.2,81.19,57.1,80.49,57.1Zm14.7,6.3c-.3,0-.4.1-.6.1-.9,0-1.1-.1-1.1-.9V59.7c.6-.1,1.2-.1,1.8-.2V57.3c-.6-.1-1.1-.1-1.8-.2v-3l-3.2,1.6c-.1.6-.1,1-.2,1.4-.4.1-.7.2-1,.3v2.1c.4.1.8.2,1.1.3v2a19.42,19.42,0,0,0,.2,2.4,1.71,1.71,0,0,0,1.3,1.4,6.19,6.19,0,0,0,3.8-.2A13.8,13.8,0,0,1,95.19,63.4Zm-64.5,2.1V54.1a10.89,10.89,0,0,0-3.6.1V65.5Zm47.8,15.8c.6-.7,1-1.3,1.5-1.8s.9-.8,1.3-1.2a2.57,2.57,0,0,0-.1-3.7,5.49,5.49,0,0,0-2.1-1.2,8.08,8.08,0,0,0-3.1,0c-1.8.3-2.8,1.6-3,3.6,1,.1,2,.2,2.8.3.5-.6.8-1.1,1.2-1.5a1.09,1.09,0,0,1,1.4.2c.4.5.1.9-.3,1.2a17.41,17.41,0,0,1-1.4,1.2,2.92,2.92,0,0,0-1.1,2.8C76.69,81.3,77.69,81.3,78.49,81.3Zm-2.8.9v2.7h3.2V82.2Z"/><path class="cls-2" d="M34.09,40.4c.6-1.9,1.1-3.8,1.7-5.7h3.5c.6,1.9,1.1,3.8,1.8,6,.7-2.1.8-4.1,1.4-5.9H46c-.9,3.9-1.7,7.6-2.6,11.4h-3.7c-.6-2.2-1.3-4.3-1.9-6.5-1.1,2.1-1.5,4.4-2.3,6.5h-3.6c-.9-3.8-1.7-7.5-2.6-11.4h3.5c.4,1.9.8,3.7,1.2,5.6Z"/><path class="cls-3" d="M40.89,65.5c-1-2.7-2.1-5.4-3.2-8.3h3.2c.4,1.6.8,3.1,1.3,4.9.8-1.7,1.1-3.3,1.8-4.9h3c.5,1.5,1.1,3,1.6,4.6h.3c.4-1.5.8-3,1.3-4.6h3.2c-1.1,2.8-2.1,5.5-3.1,8.3h-3c-.5-1.5-1.1-3-1.7-4.8-.6,1.8-1.1,3.3-1.7,4.8Z"/><path class="cls-4" d="M60.09,84.9h-2.8a6.37,6.37,0,0,0-.2-.7h-.3c-.4.2-.8.5-1.2.7a3.35,3.35,0,0,1-4.4-1.9,6.14,6.14,0,0,1-.3-4,3.48,3.48,0,0,1,4.9-2.3,9.25,9.25,0,0,1,1,.5V73.5H60C60.39,74.7,60.39,83.9,60.09,84.9Zm-6-4.2c0,1.1.3,1.7.9,2a1.42,1.42,0,0,0,1.6-.5,2.61,2.61,0,0,0-.1-2.7,1.28,1.28,0,0,0-1.6-.4C54.19,79.4,54.09,80,54.09,80.7Z"/><path class="cls-4" d="M91.29,46.1h-2.9a4.88,4.88,0,0,0-.3-.7,9.73,9.73,0,0,1-1.9.8,3.37,3.37,0,0,1-3.9-1.8,6.18,6.18,0,0,1-.4-4A3.58,3.58,0,0,1,87,38a9,9,0,0,1,.9.5V34.8h3.4Zm-3.3-4a2,2,0,0,0-.1-.8,1.42,1.42,0,0,0-1.5-1.2c-.7,0-1.2.5-1.3,1.4a7.57,7.57,0,0,0,.1,1.5,1.17,1.17,0,0,0,1.1.9,1.21,1.21,0,0,0,1.3-.8A1.62,1.62,0,0,0,88,42.1Z"/><path class="cls-2" d="M53.19,46.1v-5a1,1,0,0,0-.8-1,1.09,1.09,0,0,0-1.3.6,3.19,3.19,0,0,0-.3,1.4V46h-3.3V34.7h3.3v3.9a5,5,0,0,1,3-1.1c1.6.1,2.6.8,2.7,2.4.1,2,0,4,0,6.1C55.39,46.1,54.39,46.1,53.19,46.1Z"/><path class="cls-5" d="M58.49,40.2a2.47,2.47,0,0,1,1.9-2.3,9.91,9.91,0,0,1,5.4,0,2.55,2.55,0,0,1,1.9,2.7c.1,1,0,2.1,0,3.1a21.16,21.16,0,0,0,.2,2.4h-2.1c-.6,0-1.2,0-1.2-.7-1.1.3-2.1.6-3.2.8a5.54,5.54,0,0,1-1.8-.2A2.22,2.22,0,0,1,58,43.9a2.25,2.25,0,0,1,1.5-2.2,21,21,0,0,1,2.4-.6c.8-.2,1.6-.4,2.5-.6-.2-.4-.4-.8-.5-.8-.6-.1-1.4-.3-1.7.1C61,41,59.79,40.2,58.49,40.2Zm5.9,2.1c-.8.2-1.5.4-2.2.6-.4.1-.7.4-.6.8s.5.6,1,.6C63.69,44.5,64.29,43.8,64.39,42.3Z"/><path class="cls-6" d="M60.29,59.9c-.4-.4-.5-.8-.7-.8-.5-.1-1.3-.2-1.6.1-1,1-2.1.5-3.1.5-.2,0-.4-.1-.7-.1a2.57,2.57,0,0,1,2-2.3,9.2,9.2,0,0,1,5.2,0,2.61,2.61,0,0,1,2,2.6,20.83,20.83,0,0,1,0,2.5c0,1.1.1,2.1.1,3.3h-1.8c-.7,0-1.3,0-1.5-.9a5.36,5.36,0,0,1-4.4.9,2.24,2.24,0,0,1-2-2.2,2.16,2.16,0,0,1,1.8-2.3c1-.3,2-.5,3-.7C59.19,60.3,59.59,60.1,60.29,59.9ZM60,61.7c-.8.3-1.6.4-2.3.7-.2.1-.5.5-.4.7a.86.86,0,0,0,.7.6C59.19,64.1,60.09,63.3,60,61.7Z"/><path class="cls-2" d="M68.69,65.5h-3.3V57.2h3c.1.3.1.6.2.9.1-.1.3-.1.4-.2a3.94,3.94,0,0,1,2.7-1c1.7.1,2.8,1,2.8,2.7.1,1.9,0,3.8,0,5.8h-3.4V60.6c-.1-.8-.4-1.2-1.1-1.2a1.06,1.06,0,0,0-1.2,1,9.15,9.15,0,0,0-.1,1.7Z"/><path class="cls-4" d="M66.79,76.3c.7.1,1.3.2,1.9.3a4,4,0,0,1,3.2,4A4.08,4.08,0,0,1,69,84.7a6.35,6.35,0,0,1-4.3,0,4.28,4.28,0,0,1-.1-8A17,17,0,0,0,66.79,76.3Zm1.7,4.5c0-.2-.1-.5-.1-.7a1.42,1.42,0,0,0-1.5-1.3,1.52,1.52,0,0,0-1.6,1.2,4.08,4.08,0,0,0,.1,1.9,1.3,1.3,0,0,0,1.6,1,1.6,1.6,0,0,0,1.4-1.2A2.77,2.77,0,0,1,68.49,80.8Z"/><path class="cls-4" d="M97.89,37.5c.7.1,1.3.2,1.9.3a4,4,0,0,1,3.1,4,4.2,4.2,0,0,1-2.8,4.2,6.07,6.07,0,0,1-4.2,0A3.9,3.9,0,0,1,93,41.9a4.08,4.08,0,0,1,3-4A10.62,10.62,0,0,1,97.89,37.5Zm1.6,4.5c0-.2-.1-.5-.1-.7a1.42,1.42,0,0,0-1.5-1.3,1.52,1.52,0,0,0-1.6,1.2,4.08,4.08,0,0,0,.1,1.9,1.3,1.3,0,0,0,1.6,1,1.39,1.39,0,0,0,1.3-1.2A1.49,1.49,0,0,0,99.49,42Z"/><path class="cls-4" d="M101.39,65.8c-.8-.2-1.6-.3-2.3-.5a4.23,4.23,0,0,1,.1-8,6.35,6.35,0,0,1,4.3,0,4.08,4.08,0,0,1,2.8,3.9,3.91,3.91,0,0,1-2.7,4A5.12,5.12,0,0,1,101.39,65.8Zm-1.6-4.5c0,1.3.6,2.1,1.5,2.2,1.1.1,1.7-.7,1.7-2.1s-.6-2.1-1.7-2.1C100.39,59.3,99.79,60.1,99.79,61.3Z"/><path class="cls-5" d="M69.89,40.2c-.4-.1-.7-.1-1.1-.2V37.9c.3-.1.7-.2,1.1-.3,0-.4.1-.9.1-1.4,1-.5,2.1-1,3.3-1.6v3a9.7,9.7,0,0,0,1.7.1v2.2c-.5.1-1.1.1-1.7.2v3.1a.74.74,0,0,0,.8.8c.3,0,.5-.1.9-.1.1.7.2,1.3.3,2.2-1,.1-2,.2-2.9.2-1.6-.1-2.2-.8-2.4-2.3-.1-.7,0-1.5-.1-2.2Z"/><path class="cls-4" d="M80.49,57.1a11.48,11.48,0,0,0,1.8.1v2.2c-.6,0-1.1.1-1.7.1v3.2c0,.5.4.7.9.7.2,0,.5-.1.8-.1a13.55,13.55,0,0,1,.2,2,5.88,5.88,0,0,1-3.2.3,2.11,2.11,0,0,1-2.1-2.1,19.27,19.27,0,0,1-.1-2.4V59.6a4.25,4.25,0,0,0-1.1-.2V57.3a3.55,3.55,0,0,1,1-.2c.1-.4.1-.9.2-1.4,1-.5,2-1,3.3-1.6Z"/><path class="cls-5" d="M95.19,63.4c.1.7.1,1.3.2,2a6.19,6.19,0,0,1-3.8.2,1.71,1.71,0,0,1-1.3-1.4,19.42,19.42,0,0,1-.2-2.4v-2L89,59.5V57.4c.3-.1.6-.2,1-.3.1-.4.1-.9.2-1.4l3.2-1.6v3c.7.1,1.2.1,1.8.2v2.2c-.6.1-1.1.1-1.8.2v2.9c0,.9.2,1,1.1.9A1.7,1.7,0,0,1,95.19,63.4Z"/><path class="cls-2" d="M30.69,65.5h-3.6V54.2a21.66,21.66,0,0,1,3.6-.1Z"/><path class="cls-5" d="M78.49,81.3h-2.8a3.14,3.14,0,0,1,1.1-2.8c.5-.4.9-.8,1.4-1.2a.86.86,0,0,0,.3-1.2.91.91,0,0,0-1.4-.2,11.12,11.12,0,0,0-1.2,1.5c-.8-.1-1.8-.2-2.8-.3.2-2,1.2-3.4,3-3.6a8.08,8.08,0,0,1,3.1,0,3.75,3.75,0,0,1,2.1,1.2,2.57,2.57,0,0,1,.1,3.7c-.4.4-.9.8-1.3,1.2A6.62,6.62,0,0,0,78.49,81.3Z"/><path class="cls-6" d="M75.69,82.2h3.2v2.7h-3.2Z"/><path class="cls-7" d="M54.09,80.7c0-.7.1-1.3.8-1.6a1.25,1.25,0,0,1,1.6.4,2.86,2.86,0,0,1,.1,2.7,1.42,1.42,0,0,1-1.6.5A2,2,0,0,1,54.09,80.7Z"/><path class="cls-7" d="M88,42.1c-.1.3-.1.6-.2,1a1.21,1.21,0,0,1-1.3.8,1,1,0,0,1-1.1-.9,3.81,3.81,0,0,1-.1-1.5,1.35,1.35,0,0,1,1.3-1.4,1.49,1.49,0,0,1,1.5,1.2A2,2,0,0,0,88,42.1Z"/><path class="cls-7" d="M64.39,42.3c-.1,1.5-.7,2.2-1.9,2.1-.4,0-.9-.1-1-.6s.2-.7.6-.8C62.89,42.7,63.59,42.6,64.39,42.3Z"/><path class="cls-7" d="M60,61.7c.1,1.5-.8,2.4-2.1,2a1.41,1.41,0,0,1-.7-.6c-.1-.2.2-.6.4-.7A21.72,21.72,0,0,0,60,61.7Z"/><path class="cls-7" d="M68.49,80.8c0,.3-.1.6-.1.9A1.6,1.6,0,0,1,67,82.9a1.43,1.43,0,0,1-1.6-1,4.08,4.08,0,0,1-.1-1.9,1.38,1.38,0,0,1,1.6-1.2,1.5,1.5,0,0,1,1.5,1.3C68.39,80.3,68.49,80.5,68.49,80.8Z"/><path class="cls-7" d="M99.49,42c0,.3-.1.6-.1.9a1.6,1.6,0,0,1-1.3,1.2,1.43,1.43,0,0,1-1.6-1,4.08,4.08,0,0,1-.1-1.9A1.38,1.38,0,0,1,98,40a1.5,1.5,0,0,1,1.5,1.3Z"/><path class="cls-7" d="M99.79,61.3c0-1.2.6-2,1.5-2,1.1-.1,1.7.7,1.7,2.1s-.6,2.2-1.7,2.1S99.79,62.6,99.79,61.3Z"/></g></g></g></svg>