<svg xmlns="http://www.w3.org/2000/svg" viewBox="0 0 149.86 102.2"><defs><style>.cls-1{fill:#fcebdb;}.cls-2{fill:#2f3b64;}.cls-3{fill:#333e67;}.cls-4{fill:#333f67;}.cls-5{fill:#343f67;}.cls-6{fill:#354068;}.cls-7{fill:#364169;}.cls-8{fill:#323d66;}.cls-9{fill:#38446b;}.cls-10{fill:#f4e5d7;}</style></defs><title>Q3Asset 3</title><g id="Layer_2" data-name="Layer 2"><g id="Layer_1-2" data-name="Layer 1"><g id="bubble3"><path class="cls-1" d="M67,102.1h-4.1c-2.5,0-5-.3-7.4-.5a79.14,79.14,0,0,1-8.5-1.3A70.83,70.83,0,0,1,35.92,97a50.06,50.06,0,0,1-11.8-6.4c-1.8-1.3-3.4-2.7-5.1-4.1a47.92,47.92,0,0,1-9.3-10.8,62.85,62.85,0,0,1-5.8-11.6,63.78,63.78,0,0,1-3-11.4c-.3-1.6-.3-3.2-.6-4.8a41,41,0,0,1-.2-8.5,28.76,28.76,0,0,1,5.8-16.9c3.2-4.4,7.5-7.5,12.2-10.2a81.64,81.64,0,0,1,22.5-8c3.41-.7,6.8-1.4,10.2-2,2.21-.4,4.5-.6,6.8-.8,1.91-.2,3.8-.5,5.7-.7l3.5-.3c2.41-.2,4.91-.3,7.3-.5h1C79.12.1,83,0,87,.3a98.69,98.69,0,0,1,10.9,1.4,75.75,75.75,0,0,1,16.2,4.9A58,58,0,0,1,127,14.3a50.78,50.78,0,0,1,6.8,6.3,52.05,52.05,0,0,1,8.1,11.7,64.67,64.67,0,0,1,4.4,10.5,61.76,61.76,0,0,1,2.5,10.5c.3,2.2.6,4.4.8,6.6a39.73,39.73,0,0,1,.1,7.7,21.22,21.22,0,0,1-3,9.5,28.89,28.89,0,0,1-6,7,37.05,37.05,0,0,1-6.91,4.8A75.21,75.21,0,0,1,119.53,95a110.62,110.62,0,0,1-14,3.5c-2.91.5-5.71,1.1-8.6,1.5-2.3.4-4.7.6-7,.8s-4.3.5-6.5.7h-.3l-6,.3c-3.4.1-6.8.2-10.2.4C67,102.2,67,102.2,67,102.1ZM43.72,28.7v4.5h3.6V21.9h-3.6v3.9c-1.4-.1-2.7.1-4.1-.1V22H36V33.3h3.7V28.8C41,28.7,42.32,28.7,43.72,28.7Zm28.4,4.6c1-2.7,2.1-5.4,3.1-8.3H72c-.4,1.6-.9,3.1-1.3,4.6h-.3c-.6-1.6-1.1-3.1-1.7-4.6h-3c-.6,1.6-1.1,3.2-1.6,4.7-.1,0-.1,0-.2-.1-.4-1.5-.8-3.1-1.2-4.6h-3.2c1.1,2.8,2.1,5.6,3.2,8.2h3c.5-1.5,1.1-3.1,1.7-4.8.6,1.8,1.2,3.3,1.7,4.8C70.12,33.3,71.12,33.3,72.12,33.3ZM93.82,49h-.3c-.6-1.5-1.1-3.1-1.7-4.6h-3c-.5,1.6-1.1,3.1-1.6,4.7H87c-.4-1.6-.9-3.1-1.3-4.6h-3.2c1.1,2.8,2.1,5.6,3.2,8.2h3.1c.5-1.6,1-3,1.7-4.8.6,1.8,1.2,3.3,1.7,4.8h3c1-2.8,2.1-5.5,3.1-8.3h-3.2C94.62,45.9,94.22,47.5,93.82,49Zm-61.7,3.7A103.57,103.57,0,0,0,32,41.3h-3.2V45c-.4-.2-.5-.3-.7-.4-2.5-1.1-4.9.1-5.3,2.8a8.1,8.1,0,0,0,0,2.2c.5,3.1,3.2,4.3,5.8,2.5a.37.37,0,0,1,.3-.1,6.37,6.37,0,0,1,.2.7Zm21.5,18.5a1.38,1.38,0,0,1,.4.3,3.46,3.46,0,0,0,5.5-1.7,5.78,5.78,0,0,0,.2-3.2,3.56,3.56,0,0,0-5.1-2.7,10.26,10.26,0,0,0-1,.5V60.8h-3.3V72.2h3A5.39,5.39,0,0,0,53.62,71.2Zm33.9-45.5a4.53,4.53,0,0,0-1-.5,3.58,3.58,0,0,0-5.1,2.4,5.55,5.55,0,0,0,.4,4,3.32,3.32,0,0,0,3.9,1.8c.6-.2,1.2-.5,1.9-.8a1.85,1.85,0,0,1,.2.7h2.91V21.9h-3.3C87.52,23.1,87.52,24.3,87.52,25.7ZM78.22,72h3.4V69.5c0-1.2,0-2.3-.1-3.5a2.47,2.47,0,0,0-2.8-2.4,8,8,0,0,0-2.1.5,9,9,0,0,0-.9.5V60.7h-3.2V72h3.3V68.2a5.9,5.9,0,0,1,.2-1.4,1.17,1.17,0,0,1,1.4-.7.89.89,0,0,1,.8,1V72ZM67.62,56.2c1.1,0,2.1.1,3.1,0a3.06,3.06,0,0,0,2.6-1.9c.2-.4.3-.7.5-1.1l3-7.8c.1-.3.2-.6.3-1h-3.2c-.7,1.7-.9,3.4-1.7,5.2-.6-1.9-1.2-3.6-1.7-5.3h-1.8c-.5,0-1.1-.2-1.6.2a11.73,11.73,0,0,0,.5,1.1c.9,2.1,1.8,4.3,2.8,6.4a1.23,1.23,0,0,1-1.2,1.9c-.5,0-1-.1-1.6-.1A6.45,6.45,0,0,0,67.62,56.2Zm-16.4-9.4c0,.1-.1.3-.1.4-.8.2-1.6.4-2.3.6a21,21,0,0,0-2.4.6,2,2,0,0,0-1.5,2.1,2.26,2.26,0,0,0,1.5,2.1,5.25,5.25,0,0,0,4.7-.6c.4.3.7.7,1.1.7a20.85,20.85,0,0,0,2.5,0,22.86,22.86,0,0,1-.2-2.5V47.1a2.65,2.65,0,0,0-2-2.7,11,11,0,0,0-5.1,0,2.56,2.56,0,0,0-2.1,2.3,4.4,4.4,0,0,0,1,.2c.9,0,1.9.4,2.8-.5.3-.3,1-.2,1.5-.1C50.72,46.3,51,46.6,51.22,46.8Zm38.4,19.7A14.24,14.24,0,0,1,88,67c-1,.3-2.1.5-3.1.7a2,2,0,0,0-1.6,1.5A2.33,2.33,0,0,0,85,72.1a5.81,5.81,0,0,0,4.7-.9,1,1,0,0,0,1.3.9,13.33,13.33,0,0,1,2,0c-.1-1-.1-2-.21-2.9V66.5a2.48,2.48,0,0,0-1.7-2.5,10.22,10.22,0,0,0-6,0,2.29,2.29,0,0,0-1.59,2.2c1.4.1,2.7.7,3.9-.4.3-.3,1.1-.1,1.6,0C89.22,65.8,89.32,66.1,89.62,66.5ZM105,47.1c-.7.2-1.2.4-1.6.5-1,.2-2,.4-3,.7-1.3.4-1.9,1.1-1.8,2.3a2.33,2.33,0,0,0,2,2.2,5.09,5.09,0,0,0,4.4-.9c.2.8.8.9,1.5.9h1.8c-.1-1.1-.1-2.1-.2-3.1V47.2a2.63,2.63,0,0,0-2-2.7,11.42,11.42,0,0,0-5.2,0,2.57,2.57,0,0,0-2,2.3,2,2,0,0,0,.7.1c1.1.1,2.2.5,3.1-.5.3-.3,1.1-.1,1.6-.1C104.52,46.3,104.72,46.7,105,47.1Zm-67.8,2.2h6.4c.3-2.2-.4-3.9-2.2-4.6a6.76,6.76,0,0,0-5.4,0,3.71,3.71,0,0,0-2.3,3.7,3.91,3.91,0,0,0,2.1,3.9,6.58,6.58,0,0,0,6.1-.1,2.52,2.52,0,0,0,1.5-1.8c-.5,0-.9-.1-1.2-.1a3.71,3.71,0,0,0-2.7.4C38.62,51.3,37.62,50.7,37.22,49.3ZM71,68.7c.2-2.3-.5-3.9-2.2-4.6a6.37,6.37,0,0,0-5.4,0A4.22,4.22,0,0,0,61,68.7a3.93,3.93,0,0,0,3.3,3.5,11.5,11.5,0,0,0,3.7-.1,3.55,3.55,0,0,0,2.7-2.2c-1.5,0-2.8-.6-4.1.3-.9.6-1.9-.1-2.1-1.5Zm42.5,1.1c-1.5,0-2.8-.6-4.1.3-.9.6-1.9-.1-2.1-1.5h6.4c.2-2.3-.6-3.9-2.3-4.6a6.7,6.7,0,0,0-5.2,0,4.09,4.09,0,0,0-2.5,4.5,3.93,3.93,0,0,0,3.3,3.6,15.27,15.27,0,0,0,3.7,0A3.62,3.62,0,0,0,113.52,69.8Zm0-17.1V49.1a3.89,3.89,0,0,1,.2-1.5,1.11,1.11,0,0,1,1.3-.8,1.17,1.17,0,0,1,1,1v4.9h3.4c0-2,.1-4,0-5.9a2.61,2.61,0,0,0-2.7-2.6,3.59,3.59,0,0,0-2.9,1,.37.37,0,0,1-.3.1,3.09,3.09,0,0,1-.2-.8h-3v8.2c.4,0,.7.1,1,.1A13.47,13.47,0,0,1,113.52,52.7Zm-16.2-28-1.9.3a4.06,4.06,0,0,0-3.1,4,4.21,4.21,0,0,0,3,4.2,7.15,7.15,0,0,0,4.1,0,4.08,4.08,0,0,0,2.9-4.1,4,4,0,0,0-3.2-4A8,8,0,0,0,97.32,24.7Zm-43,0a5.72,5.72,0,0,0-1.4.1c-.4.1-.8.2-1.1.3a4.12,4.12,0,0,0-2.7,4,4.08,4.08,0,0,0,2.8,4,6.35,6.35,0,0,0,4.3,0,4.2,4.2,0,0,0,2.9-4.1,4,4,0,0,0-3.2-4C55.42,24.9,54.72,24.8,54.32,24.7ZM38.22,63.5a11.27,11.27,0,0,0-1.8.3,4.12,4.12,0,0,0-3.2,4.3,4.16,4.16,0,0,0,3.4,4,7.35,7.35,0,0,0,3.3,0,4.27,4.27,0,0,0,3.3-4.1A4.09,4.09,0,0,0,40,63.8Zm60.5,5h-.3c-.5-1.6-1-3.1-1.5-4.7h-3.5c1.2,2.9,2.4,5.6,3.6,8.3h3c1.2-2.7,2.4-5.5,3.6-8.3h-3.4A36.76,36.76,0,0,1,98.72,68.5ZM32,66V63.8c-.6-.1-1.1-.1-1.8-.2v-3c-1.2.6-2.2,1.1-3.3,1.6,0,.5-.1.9-.1,1.4l-1.1.3V66c.4.1.8.2,1.1.3v2a19.42,19.42,0,0,0,.2,2.4,1.71,1.71,0,0,0,1.3,1.4,6.19,6.19,0,0,0,3.8-.2c-.1-.7-.2-1.3-.3-2-.2,0-.4.1-.6.1-.9,0-1.1-.1-1.1-.9V66.2C30.92,66.1,31.52,66.1,32,66Zm88.8-21.6v2.2c.4.1.7.1,1.1.2v3.6c.1,1.7.9,2.4,2.6,2.4a24.52,24.52,0,0,0,2.7-.2,18,18,0,0,1-.2-2.2,2,2,0,0,0-.5.1c-1,.1-1.2,0-1.2-1V46.7c.7-.1,1.2-.1,1.8-.2V44.3c-.6-.1-1.1-.1-1.8-.2v-3c-1.2.6-2.2,1.1-3.3,1.6-.1.5-.1,1-.2,1.5A4.4,4.4,0,0,1,120.82,44.4Zm-10.9-11.2h3.6c.2-2.1.2-10.5-.1-11.3h-3.5Zm10.5,35.2c.6-.7,1-1.3,1.5-1.8s.9-.8,1.3-1.2a2.57,2.57,0,0,0-.1-3.7,5.49,5.49,0,0,0-2.1-1.2,8.08,8.08,0,0,0-3.1,0c-1.8.3-2.8,1.6-3,3.6,1,.1,2,.2,2.8.3.5-.6.8-1.1,1.2-1.5a1.09,1.09,0,0,1,1.4.2c.41.5.1.9-.29,1.2s-.91.8-1.41,1.2a2.89,2.89,0,0,0-1.09,2.8C118.62,68.4,119.62,68.4,120.42,68.4ZM56.62,41.3V52.7h3.3V41.3Zm5.6,0V52.6h3.2V41.3ZM17.62,52.7h3.2c.2-1.9.2-7.4-.1-8.2h-3.1Zm103.2,16.7h-3.2v2.7h3.2ZM17.72,41.3v2h3.2v-2Z"/><path class="cls-2" d="M43.72,28.7h-4v4.5H36V21.9h3.6v3.7a18.75,18.75,0,0,0,4.1.1V21.8h3.6V33.1h-3.6Z"/><path class="cls-3" d="M72.12,33.3h-3c-.5-1.5-1.1-3-1.7-4.8-.6,1.8-1.1,3.3-1.7,4.8h-3c-1-2.7-2.1-5.4-3.2-8.2h3.2c.4,1.5.8,3.1,1.2,4.6.1,0,.1,0,.2.1.5-1.6,1.1-3.1,1.6-4.7h3c.5,1.5,1.1,3,1.7,4.6h.3c.4-1.5.8-3,1.3-4.6h3.2C74.12,27.8,73.12,30.6,72.12,33.3Z"/><path class="cls-3" d="M93.82,49c.4-1.5.8-3,1.3-4.6h3.2c-1.1,2.8-2.1,5.5-3.1,8.3h-3c-.5-1.5-1.1-3-1.7-4.8-.6,1.8-1.1,3.2-1.7,4.8h-3.1c-1-2.7-2.1-5.4-3.2-8.2h3.2c.4,1.5.8,3.1,1.3,4.6h.2c.5-1.6,1.1-3.1,1.6-4.7h3c.6,1.5,1.1,3.1,1.7,4.6Z"/><path class="cls-3" d="M32.12,52.7h-3a6.37,6.37,0,0,0-.2-.7c-.1,0-.3,0-.3.1-2.6,1.8-5.4.7-5.8-2.5a8.1,8.1,0,0,1,0-2.2,3.53,3.53,0,0,1,5.3-2.8,5.74,5.74,0,0,1,.7.4V41.3H32A103.57,103.57,0,0,1,32.12,52.7Zm-3.3-4.1a1.48,1.48,0,0,0-.1-.7c-.2-.7-.6-1.2-1.3-1.2a1.16,1.16,0,0,0-1.3,1.1,3.93,3.93,0,0,0,.1,1.8c.1.6.6.9,1.3.9a1.29,1.29,0,0,0,1.3-.9Z"/><path class="cls-3" d="M53.62,71.2c-.1.3-.1.6-.2.9h-3V60.7h3.3v3.6a9.29,9.29,0,0,0,1-.5,3.61,3.61,0,0,1,5.1,2.7,7,7,0,0,1-.2,3.2,3.46,3.46,0,0,1-5.5,1.7C53.92,71.4,53.82,71.3,53.62,71.2Zm.1-3a3.71,3.71,0,0,0,.2.9,1.16,1.16,0,0,0,1.2.8,1.64,1.64,0,0,0,1.1-.7,2.86,2.86,0,0,0,.1-2.4,1.08,1.08,0,0,0-1.1-.7Q53.72,66.1,53.72,68.2Z"/><path class="cls-4" d="M87.52,25.7V22h3.3V33.4h-2.9c-.1-.2-.1-.5-.2-.7a9.73,9.73,0,0,1-1.9.8,3.37,3.37,0,0,1-3.9-1.8,6.18,6.18,0,0,1-.4-4,3.58,3.58,0,0,1,5.1-2.4C86.72,25.2,87,25.4,87.52,25.7Zm0,3.6a3.08,3.08,0,0,1-.1-.9A1.39,1.39,0,0,0,86,27.3a1.1,1.1,0,0,0-1.2,1.2,3.72,3.72,0,0,0,.2,1.8,1.08,1.08,0,0,0,1.1.8,1.36,1.36,0,0,0,1.3-.7A2,2,0,0,1,87.52,29.3Z"/><path class="cls-3" d="M78.22,72V67.2a.89.89,0,0,0-.8-1,1.22,1.22,0,0,0-1.4.7,3.18,3.18,0,0,0-.2,1.4v3.8h-3.3V60.8h3.2v3.9a9,9,0,0,1,.9-.5,8,8,0,0,1,2.1-.5,2.47,2.47,0,0,1,2.8,2.4c.1,1.2.1,2.3.1,3.5v2.5C80.52,72,79.42,72,78.22,72Z"/><path class="cls-4" d="M67.62,56.2c-.1-.9-.2-1.6-.3-2.3.6,0,1.1.1,1.6.1,1.2,0,1.7-.8,1.2-1.9-.9-2.1-1.8-4.3-2.8-6.4-.2-.4-.3-.7-.5-1.1.5-.4,1.1-.2,1.6-.2h1.8c.5,1.7,1.1,3.3,1.7,5.3.8-1.8,1.1-3.5,1.7-5.2h3.2c-.1.4-.2.7-.3,1l-3,7.8a5.36,5.36,0,0,1-.5,1.1,2.94,2.94,0,0,1-2.6,1.9C69.72,56.3,68.72,56.2,67.62,56.2Z"/><path class="cls-5" d="M51.22,46.8c-.2-.2-.5-.5-.7-.5a2.45,2.45,0,0,0-1.5.1c-.8.9-1.8.6-2.8.5a3.55,3.55,0,0,1-1-.2,2.66,2.66,0,0,1,2.1-2.3,11,11,0,0,1,5.1,0c1.3.3,1.9,1.2,2,2.7.1,1,0,2.1,0,3.1a22.86,22.86,0,0,0,.2,2.5,20.85,20.85,0,0,1-2.5,0c-.3,0-.6-.4-1.1-.7a4.73,4.73,0,0,1-3.1.9,4.15,4.15,0,0,1-1.6-.3,2.41,2.41,0,0,1-1.5-2.1,2,2,0,0,1,1.5-2.1,21,21,0,0,1,2.4-.6c.8-.2,1.6-.4,2.3-.6A.76.76,0,0,0,51.22,46.8Zm-.1,2.1a16.25,16.25,0,0,1-1.9.4.76.76,0,0,0-.5.2,1.77,1.77,0,0,0-.5.8c0,.2.4.5.7.6C50.22,51.3,51.12,50.5,51.12,48.9Z"/><path class="cls-5" d="M89.62,66.5c-.3-.4-.4-.7-.6-.8a2.88,2.88,0,0,0-1.6,0c-1.2,1.1-2.5.5-3.9.4a2.53,2.53,0,0,1,1.6-2.2,8.83,8.83,0,0,1,6,0,2.58,2.58,0,0,1,1.7,2.5,24.32,24.32,0,0,1,0,2.7c0,.9.1,1.9.2,2.9H91c-.7.1-1.2-.1-1.3-.9A5.67,5.67,0,0,1,85,72a2.25,2.25,0,0,1-1.7-2.9,2,2,0,0,1,1.6-1.5c1-.3,2.1-.5,3.1-.7A6.18,6.18,0,0,0,89.62,66.5Zm-.2,1.8c-.9.3-1.6.4-2.3.7a1.13,1.13,0,0,0-.5.8c0,.2.4.5.7.6C88.52,70.7,89.42,69.9,89.42,68.3Z"/><path class="cls-6" d="M105,47.1c-.3-.4-.5-.8-.7-.8-.5-.1-1.3-.2-1.6.1-1,1-2.1.6-3.1.5-.2,0-.4-.1-.7-.1a2.46,2.46,0,0,1,2-2.3,9.2,9.2,0,0,1,5.2,0c1.3.3,1.9,1.2,2,2.7v2.5c0,1,.1,2,.2,3.1h-1.8c-.7,0-1.3,0-1.5-.9a5.36,5.36,0,0,1-4.4.9,2.24,2.24,0,0,1-2-2.2,2.16,2.16,0,0,1,1.8-2.3c1-.3,2-.5,3-.7C103.92,47.5,104.32,47.3,105,47.1Zm-.3,1.8c-.8.3-1.6.4-2.3.7-.2.1-.5.5-.4.7a1.41,1.41,0,0,0,.6.7C103.92,51.3,104.82,50.5,104.72,48.9Z"/><path class="cls-7" d="M37.22,49.3c.4,1.5,1.3,2.1,2.3,1.4a3.71,3.71,0,0,1,2.7-.4c.4,0,.8.1,1.2.1a2.52,2.52,0,0,1-1.5,1.8,6.89,6.89,0,0,1-6.1.1,4,4,0,0,1-2.1-3.9A3.85,3.85,0,0,1,36,44.7a6.37,6.37,0,0,1,5.4,0c1.7.7,2.5,2.4,2.2,4.6Zm3.1-1.8c-.2-1-.5-1.3-1.4-1.3s-1.3.3-1.6,1.3Z"/><path class="cls-7" d="M71,68.7h-6.4c.2,1.3,1.2,2.1,2.1,1.5,1.4-.9,2.7-.4,4.1-.3a3.32,3.32,0,0,1-2.7,2.2,15.28,15.28,0,0,1-3.7.1,3.83,3.83,0,0,1-3.3-3.5,4.1,4.1,0,0,1,2.4-4.6,6.76,6.76,0,0,1,5.4,0C70.52,64.8,71.22,66.4,71,68.7Zm-3.4-1.8c-.3-1.1-.5-1.3-1.4-1.3s-1.3.2-1.6,1.3Z"/><path class="cls-7" d="M113.52,69.8a3.33,3.33,0,0,1-2.8,2.2,11.48,11.48,0,0,1-3.7,0,3.68,3.68,0,0,1-3.3-3.6,4.09,4.09,0,0,1,2.5-4.5,7.18,7.18,0,0,1,5.2,0c1.7.7,2.5,2.3,2.3,4.6h-6.4c.2,1.4,1.2,2.1,2.1,1.5C110.82,69.2,112.12,69.8,113.52,69.8Zm-3.3-2.9c-.3-1.1-.6-1.4-1.6-1.3s-1.2.3-1.3,1.3Z"/><path class="cls-8" d="M113.52,52.7h-2.4a3.75,3.75,0,0,1-1-.1V44.4h3c.1.3.1.5.2.8a1,1,0,0,0,.3-.1,4.27,4.27,0,0,1,2.9-1,2.61,2.61,0,0,1,2.7,2.6c.1,1.9,0,3.9,0,5.9h-3.4V47.7a.9.9,0,0,0-1-1,1.11,1.11,0,0,0-1.3.8,7.72,7.72,0,0,0-.2,1.5C113.42,50.2,113.52,51.4,113.52,52.7Z"/><path class="cls-5" d="M97.32,24.7l1.8.3a4.07,4.07,0,0,1,3.2,4,4.2,4.2,0,0,1-2.9,4.1,6.39,6.39,0,0,1-4.1,0,4.21,4.21,0,0,1-3-4.2,4.14,4.14,0,0,1,3.1-4A11.08,11.08,0,0,0,97.32,24.7Zm-1.6,4.4a2,2,0,0,0,1.2,2.1,1.63,1.63,0,0,0,1.7-.6,2.75,2.75,0,0,0-.1-2.9,1.57,1.57,0,0,0-1.7-.5C96.12,27.4,95.72,28.1,95.72,29.1Z"/><path class="cls-4" d="M54.32,24.7a14.25,14.25,0,0,1,1.6.3,4,4,0,0,1,3.2,4,4.2,4.2,0,0,1-2.9,4.1,6.35,6.35,0,0,1-4.3,0,4,4,0,0,1-2.8-4,4.12,4.12,0,0,1,2.7-4l1.1-.3A6.6,6.6,0,0,0,54.32,24.7Zm1.5,4.4c-.1-.3-.1-.7-.2-1.1a1.58,1.58,0,0,0-2.9-.1,2.75,2.75,0,0,0,0,2.5,1.35,1.35,0,0,0,1.5.8,1.3,1.3,0,0,0,1.3-1A3.54,3.54,0,0,0,55.82,29.1Z"/><path class="cls-4" d="M38.22,63.5a11.27,11.27,0,0,1,1.8.3,4.11,4.11,0,0,1,3.2,4.2,4.16,4.16,0,0,1-3.3,4.1,6.16,6.16,0,0,1-3.3,0,4.25,4.25,0,0,1-3.4-4,4.2,4.2,0,0,1,3.2-4.3Zm-1.7,4.3c.1.4.1.9.2,1.3a1.41,1.41,0,0,0,1.4,1,1.33,1.33,0,0,0,1.4-.9,2.75,2.75,0,0,0,0-2.5,1.34,1.34,0,0,0-1.4-.8,1.6,1.6,0,0,0-1.4.8A2.34,2.34,0,0,1,36.52,67.8Z"/><path class="cls-3" d="M98.72,68.5c.5-1.5,1-3.1,1.6-4.7h3.4c-1.2,2.8-2.4,5.5-3.6,8.3h-3c-1.2-2.7-2.3-5.4-3.6-8.3H97c.5,1.5,1,3.1,1.5,4.7Z"/><path class="cls-5" d="M32,66c-.6.1-1.1.1-1.8.2v2.9c0,.9.2,1,1.1.9a1.49,1.49,0,0,0,.6-.1c.1.7.2,1.3.3,2a6.19,6.19,0,0,1-3.8.2,1.71,1.71,0,0,1-1.3-1.4,19.42,19.42,0,0,1-.2-2.4v-2l-1.1-.3V63.9c.3-.1.7-.2,1.1-.3,0-.5.1-.9.1-1.4,1-.5,2.1-1,3.3-1.6v3c.7.1,1.2.1,1.8.2A15.48,15.48,0,0,0,32,66Z"/><path class="cls-4" d="M120.82,44.4c.4-.1.7-.1,1-.2.1-.5.1-.9.2-1.5,1-.5,2-1,3.3-1.6v3c.7.1,1.2.1,1.8.2v2.2c-.5.1-1.1.1-1.8.2v2.8c0,1,.2,1.1,1.2,1a1.09,1.09,0,0,0,.5-.1,13.79,13.79,0,0,1,.2,2.2c-1,.1-1.9.2-2.7.2a2.37,2.37,0,0,1-2.6-2.4,16.15,16.15,0,0,1,0-2.2V46.8c-.4-.1-.7-.1-1.1-.2Z"/><path class="cls-8" d="M109.92,33.2V21.9h3.5c.3.9.3,9.3.1,11.3Z"/><path class="cls-5" d="M120.42,68.4h-2.8a3.14,3.14,0,0,1,1.1-2.8c.5-.4.9-.8,1.4-1.2a.86.86,0,0,0,.3-1.2A.91.91,0,0,0,119,63a11.12,11.12,0,0,0-1.2,1.5c-.8-.1-1.8-.2-2.8-.3.2-2,1.2-3.4,3-3.6a8.08,8.08,0,0,1,3.1,0,3.75,3.75,0,0,1,2.1,1.2,2.57,2.57,0,0,1,.1,3.7c-.4.4-.9.8-1.3,1.2A8.83,8.83,0,0,0,120.42,68.4Z"/><path class="cls-9" d="M56.62,41.3h3.3V52.7h-3.3Z"/><path class="cls-8" d="M62.22,41.3h3.2V52.6h-3.2Z"/><path class="cls-8" d="M17.62,52.7V44.5h3.1a43.51,43.51,0,0,1,.1,8.2Z"/><path class="cls-6" d="M120.82,69.4v2.7h-3.2V69.4Z"/><path class="cls-9" d="M17.72,41.3h3.2v2h-3.2Z"/><path class="cls-10" d="M28.82,48.6a2.77,2.77,0,0,1-.1.9,1.22,1.22,0,0,1-1.3.9,1.29,1.29,0,0,1-1.3-.9A5.46,5.46,0,0,1,26,47.7a1.14,1.14,0,0,1,1.29-1.1,1.22,1.22,0,0,1,1.3,1.2A1.2,1.2,0,0,1,28.82,48.6Z"/><path class="cls-10" d="M53.72,68.2c0-1.5.5-2.1,1.5-2.1a1.08,1.08,0,0,1,1.1.7,2.31,2.31,0,0,1-.1,2.4,2.1,2.1,0,0,1-1.1.7,1.06,1.06,0,0,1-1.2-.8C53.82,68.8,53.82,68.4,53.72,68.2Z"/><path class="cls-10" d="M87.52,29.3a6.15,6.15,0,0,1-.3,1.1,1.27,1.27,0,0,1-1.3.7,1.08,1.08,0,0,1-1.1-.8,11,11,0,0,1-.2-1.8,1.21,1.21,0,0,1,1.2-1.2,1.3,1.3,0,0,1,1.4,1.1C87.42,28.6,87.42,28.9,87.52,29.3Z"/><path class="cls-10" d="M51.12,48.9c-.1,1.5-.9,2.3-2.1,2a1.41,1.41,0,0,1-.7-.6c0-.2.3-.5.5-.8a.76.76,0,0,1,.5-.2A11.63,11.63,0,0,0,51.12,48.9Z"/><path class="cls-10" d="M89.42,68.3c0,1.5-.9,2.4-2.1,2.1-.3-.1-.7-.4-.7-.6a1,1,0,0,1,.5-.8C87.82,68.7,88.62,68.6,89.42,68.3Z"/><path class="cls-10" d="M104.72,48.9c.1,1.5-.9,2.4-2.1,2a.86.86,0,0,1-.6-.7c-.1-.2.2-.6.4-.7A11.2,11.2,0,0,0,104.72,48.9Z"/><path class="cls-10" d="M40.32,47.5h-3c.2-1,.6-1.3,1.6-1.3C39.72,46.2,40,46.5,40.32,47.5Z"/><path class="cls-10" d="M67.62,66.9h-3c.4-1.1.7-1.3,1.6-1.3S67.22,65.8,67.62,66.9Z"/><path class="cls-10" d="M110.22,66.9h-2.9c.2-1,.4-1.3,1.3-1.3S110,65.8,110.22,66.9Z"/><path class="cls-10" d="M95.72,29.1c0-1.1.4-1.8,1.1-2a1.57,1.57,0,0,1,1.7.5,3,3,0,0,1,.1,2.9,1.43,1.43,0,0,1-1.7.6C96.12,31,95.72,30.2,95.72,29.1Z"/><path class="cls-10" d="M55.82,29.1c-.1.4-.1.7-.2,1.1a1.38,1.38,0,0,1-1.3,1,1.48,1.48,0,0,1-1.5-.8,2.75,2.75,0,0,1,0-2.5,1.55,1.55,0,0,1,1.5-.9,1.5,1.5,0,0,1,1.4,1A3.75,3.75,0,0,0,55.82,29.1Z"/><path class="cls-10" d="M36.52,67.8c.1-.4.2-.8.3-1.1a1.49,1.49,0,0,1,1.4-.8,1.6,1.6,0,0,1,1.4.8,2.75,2.75,0,0,1,0,2.5,1.51,1.51,0,0,1-2.8-.1A6.11,6.11,0,0,1,36.52,67.8Z"/></g></g></g></svg>