<svg xmlns="http://www.w3.org/2000/svg" viewBox="0 0 452.23 231.18"><defs><style>.cls-1{isolation:isolate;}.cls-2{fill:#cfd7eb;}.cls-3{fill:#d0d1da;}.cls-3,.cls-9{mix-blend-mode:multiply;}.cls-4{fill:#3d4166;}.cls-5{fill:#4f6eb6;}.cls-6{fill:#515475;}.cls-7{fill:#474a6e;}.cls-8{fill:#ffbf47;}.cls-9{fill:#c5c6d1;}.cls-10{fill:#6e708c;}.cls-11{font-size:34px;font-family:OpenSans-Bold, Open Sans;font-weight:700;}</style></defs><title>scalesAsset 1</title><g class="cls-1"><g id="Layer_2" data-name="Layer 2"><g id="BACKGROUND"><path class="cls-2" d="M5.2,101.47C3.89,117.74,9.12,133.61,21,147.08a61.54,61.54,0,0,0,22.07,16.17c20.19,8.74,49,9,76.3,6.71,12.55-1.05,25.19-2.58,37.57-2.56,49.33.07,84.59,24.25,133.46,25.74,32.82,1,68-8.87,94-23.75s43.34-34.29,53.29-53.94c12.14-24,13.65-49.4-1.84-70S386.32,9.87,345.87,10c-29.25.1-59.85,7.73-88.5,6.08-30.86-1.77-49.45-10.31-79-14.53C110.34-8.17,42.65,29.48,18.48,66,10.79,77.56,6.16,89.62,5.2,101.47Z"/></g><g id="OBJECTS"><ellipse class="cls-3" cx="214.66" cy="217.8" rx="185.78" ry="13.38"/><path class="cls-4" d="M213.57,130.43h0a25.81,25.81,0,0,1,25.81,25.81v13.44a0,0,0,0,1,0,0H187.76a0,0,0,0,1,0,0V156.24A25.81,25.81,0,0,1,213.57,130.43Z"/><path class="cls-5" d="M213.3,143.52l-2.58,31.84h7.21l-2.58-31.84A1,1,0,0,0,213.3,143.52Z"/><path class="cls-6" d="M344.88,203.23c-15.35-7.68-126.82-11.09-126.82-11.09v-4c.22-.22-2.76-.94-4.15-1.26v-.16l-.34.08-.35-.08v.16c-1.38.32-4.36,1-4.14,1.26v4S98.29,196.41,82.26,203.23c-11.35,4.83-9.1,10.52-9.1,10.52H354S355.92,208.75,344.88,203.23Z"/><path class="cls-7" d="M328,189.79l1.4-7.55-98.54-14.09-29.69-6.07v.06l-96.89-25.79-2,7,101.1,34.52a10.07,10.07,0,0,0,19.77,3.84Z"/><circle class="cls-4" cx="214.33" cy="179.74" r="3.41"/><path class="cls-4" d="M355.28,218.55H71.81a3.09,3.09,0,0,1-3.09-3.09h0a3.09,3.09,0,0,1,3.09-3.09H355.28a3.09,3.09,0,0,1,3.09,3.09h0A3.09,3.09,0,0,1,355.28,218.55Z"/><rect class="cls-4" x="101.38" y="134.14" width="3.63" height="12.33"/><path class="cls-4" d="M91.25,106h23.89a0,0,0,0,1,0,0v17.49a11.94,11.94,0,0,1-11.94,11.94h0a11.94,11.94,0,0,1-11.94-11.94V106A0,0,0,0,1,91.25,106Z"/><path class="cls-8" d="M160.64,113.86H45.76A16.2,16.2,0,0,1,29.55,97.65h147.3A16.21,16.21,0,0,1,160.64,113.86Z"/><path class="cls-9" d="M174.4,106.18a16.1,16.1,0,0,0,2.45-8.53H29.55A16.09,16.09,0,0,0,32,106.18Z"/><path class="cls-8" d="M188.36,101.92H18a4.12,4.12,0,0,1-4.12-4.12h0A4.12,4.12,0,0,1,18,93.67H188.36a4.12,4.12,0,0,1,4.12,4.13h0A4.12,4.12,0,0,1,188.36,101.92Z"/><path class="cls-10" d="M108,123.39a4.84,4.84,0,1,1-4.83-4.84A4.83,4.83,0,0,1,108,123.39Z"/><path class="cls-7" d="M106.4,149.14H100a1.71,1.71,0,0,1-1.71-1.71h0a1.71,1.71,0,0,1,1.71-1.7h6.4a1.7,1.7,0,0,1,1.7,1.7h0A1.7,1.7,0,0,1,106.4,149.14Z"/><rect class="cls-4" x="327.04" y="177.89" width="3.63" height="12.33" transform="translate(657.7 368.11) rotate(180)"/><path class="cls-4" d="M328.85,182h0a12,12,0,0,0,11.94-11.94V152.58H316.9v17.49A12,12,0,0,0,328.85,182Z"/><path class="cls-8" d="M271.41,160.4H386.29a16.21,16.21,0,0,0,16.21-16.21H255.2A16.21,16.21,0,0,0,271.41,160.4Z"/><path class="cls-9" d="M257.64,152.72a16.09,16.09,0,0,1-2.44-8.53H402.5a16.1,16.1,0,0,1-2.45,8.53Z"/><path class="cls-8" d="M243.68,148.46H414a4.13,4.13,0,0,0,4.13-4.13h0a4.13,4.13,0,0,0-4.13-4.12H243.68a4.13,4.13,0,0,0-4.12,4.12h0A4.13,4.13,0,0,0,243.68,148.46Z"/><path class="cls-10" d="M324,169.93a4.84,4.84,0,1,0,4.84-4.84A4.84,4.84,0,0,0,324,169.93Z"/><path class="cls-7" d="M325.65,192.89h6.4a1.71,1.71,0,0,0,1.7-1.71h0a1.71,1.71,0,0,0-1.7-1.71h-6.4a1.72,1.72,0,0,0-1.71,1.71h0A1.72,1.72,0,0,0,325.65,192.89Z"/><text class="cls-11" transform="translate(0.07 81.68) rotate(-0.13)">Importance</text><text class="cls-11" transform="translate(227.44 128.22) rotate(-0.13)">effectiveness</text></g></g></g></svg>