<svg xmlns="http://www.w3.org/2000/svg" viewBox="0 0 732.65 531.22"><defs><style>.cls-1{fill:#e3f1f2;}.cls-2{fill:#333956;}.cls-3{fill:#6cb7bf;}.cls-4{fill:#f89747;}.cls-5{fill:#c65648;}.cls-6{fill:#fdb17e;}.cls-7{fill:#1a3862;}.cls-8{fill:#d1a78a;}.cls-9{fill:#e4bd9e;}.cls-10{fill:#a37e65;}.cls-11{fill:#c65548;}.cls-12{fill:#1d478a;}.cls-13{fill:#e0b594;}.cls-14{fill:#599dad;}.cls-15{fill:#c7a084;}.cls-16{fill:#6bb7bf;}.cls-17{fill:#79c8cc;}.cls-18{fill:#5b9eae;}.cls-19{fill:#f0a350;}.cls-20{fill:#ffb27e;}</style></defs><title>SittingAsset 3</title><g id="Layer_2" data-name="Layer 2"><g id="Layer_1-2" data-name="Layer 1"><path class="cls-1" d="M621.67,295.83a7.58,7.58,0,0,1-.63-2.54l1.9-3.81m4.45,27.95a2.13,2.13,0,0,0,.32-1.91c0-.31-.32-.63-.32-1.27M304.67,522.42c-.32,1.27,54.29-18.07,54.61-16.49-.32.32.32-.31,0,0,2.74,2.52,241.43,20.47,241.43,23.32,223.58,1.91-336.63-.63-337-.63H161.82c0-1-4.75,3.17-5.7,2.53-.32-.95-1-1.27-1.91-1.59a22.62,22.62,0,0,0-2.22-.63c-1.91-.64-3.87.11-5.46-1.16-3.17-2.54-9.6-2-13.09-4.26-.64-1-3.14-10.43-3.14-11.7,0-.95,3.1-3.08,3.1-3.71-.32-3.18,5.87-6.16,5.87-9.33V487c.64,0,1.27-.32,2.23-.32,3.17-.32,6.35-.95,9.52-1.59a49.15,49.15,0,0,0,7.31-2.22,4,4,0,0,0,.32-1.91c.31-2.86.31-5.71.63-8.89.64-7.94,1.27-16.2,1.59-24.14,0-1.58.32-3.49.32-5.08.31-4.13.31-7.94.63-12.07.32-3.49.32-7.3.64-10.79.63-7.94.95-15.56,1.27-23.5.31-5.08.31-10.17.63-15.25.32-9.21.32-18.73.32-27.94a31.22,31.22,0,0,0-1.59-9.21c-.63-2.23-1.59-4.45-2.22-6.67.32,0,.63-.32,1.27-.32a14.43,14.43,0,0,0,8.57-7.62c.64-1,1-2.23,1.59-3.18.32-.32.64-.32.95-.63a74.76,74.76,0,0,0,10.48-9.53c1.27-1.59,2.86-2.86,4.13-4.45,2.54-2.85,4.77-6,7.62-8.57A19,19,0,0,0,198,300.6a18,18,0,0,1,2.23-2.54c1.59-2.23,1.59-4.77.95-7.31a10.2,10.2,0,0,0-4.13-5.71v-1.59a6,6,0,0,0,.64-2.54c.31,0-.32,4.11-.64,4.13-1.49.08-3.64-.52-3.89-2.46-5.4,0-6.27-3.58-11.35-3.58-.64,1.27-.64,1.27.32,1.91a7.15,7.15,0,0,0,.31,2.54V285c.32,2.22.64,4.44,1,7a30.94,30.94,0,0,0,.63,5.4h4.45c.32,1.27-.32,2.54-.32,3.81,0,.32-.32.64-.64,1a7.08,7.08,0,0,1-1.58,1.27c-1.59,1.27-3.5,2.22-5.4,3.49-2.54,1.59-5.4,2.86-7.94,4.45h-3.81c-2.54,0-3.5-.64-3.81-3.18-.32-1.59-.64-3.18-1-4.45a55.45,55.45,0,0,1-.95-10.16,2,2,0,0,0,1.59-1.59,20.71,20.71,0,0,0,.32-4.44,93.9,93.9,0,0,0-2.23-21c-.63-2.23-1.27-4.45-1.9-6.67A18.67,18.67,0,0,0,159,255.5a11.53,11.53,0,0,1-1.27-3.49,43.57,43.57,0,0,1-.31-6.35c0-5.08.56-7.28-.08-12.36-.74.71,1.14-.16,1.14-.16a8.4,8.4,0,0,1,3.06-1.46,141.56,141.56,0,0,0,18.74-8.57c4.76-2.54,9.85-5.08,14.29-8.26,3.18-2.22,6.67-4.13,9.85-6.35s6.35-4.45,9.52-7c2.86-2.22,5.4-4.44,8.26-6.67,1.59-1.27,3.18-2.85,4.76-4.12,2.86-2.54,5.4-5.08,8.26-7.63a96.28,96.28,0,0,0,9.85-9.84c2.22-2.22,4.44-4.76,6.67-7,2.54-2.54,4.76-5.4,7-7.94,1.91-2.22,3.5-4.44,5.4-6.67,3.18-3.49,5.72-7.3,8.58-10.79a35.47,35.47,0,0,0,4.12-5.4c2.54-3.5,5.09-6.67,7.31-10.16a48.92,48.92,0,0,0,4.44-6.67,14,14,0,0,1,2.86-3.5c2.54-2.86,4.45-6,7.31-8.57a28.42,28.42,0,0,1,6-6.35c2.22-1.91,3.81-3.81,6.35-5.4a38.82,38.82,0,0,0,4.13-3.5,35.61,35.61,0,0,1,4.13-3.17c2.86-1.91,5.72-4.13,8.57-6a86.14,86.14,0,0,1,9.21-5.4,89,89,0,0,1,9.53-5.08,143.54,143.54,0,0,1,16.2-7c3.49-1.27,7-2.54,10.16-3.81,6.67-2.23,13.34-3.81,20-5.4,4.13-1,7.94-1.91,12.07-2.54,2.54-.32,5.08-1,7.62-1.27,1.9-.32,3.81-.32,5.4-.64h1.58a9,9,0,0,0,2.86-.31c.64-.32,1.27,0,1.59,0a15.34,15.34,0,0,0,3.81-.32,10.59,10.59,0,0,1,3.18,0,17.9,17.9,0,0,0,4.12-.32c.64-.32,1.28,0,1.91,0h25.09a6.16,6.16,0,0,1,2.54.32,5.35,5.35,0,0,0,2.22.32c2.23,0,4.13-.32,6.35.31h1.27a15.42,15.42,0,0,1,3.82.32h.63c3.81,0,7.62,1,11.43,1.27,3.5.32,7.31,1.27,10.8,1.59,2.86.32,5.4,1.27,8.26,1.59,5.08,1,10.16,2.22,15.24,3.49a87,87,0,0,1,8.58,2.54c3.81,1.27,7.94,2.54,11.75,3.81,5.4,1.91,10.79,3.81,15.88,6,8.25,3.49,16.51,7.3,24.13,11.43q8.1,4.29,16.2,9.53c3.49,2.22,6.67,4.44,10.16,6.66,2.54,1.91,5.4,3.82,7.62,5.72,1.91,1.59,4.13,3.18,6,4.76a39.09,39.09,0,0,1,3.81,3.5,87.15,87.15,0,0,1,7.94,7.3c2.54,2.54,5.4,5.08,7.62,7.62,1.59,1.91,3.49,3.5,4.76,5.4,2.86,2.54,4.77,6,7.31,8.89a25.46,25.46,0,0,1,2.54,3.5,9.52,9.52,0,0,0,1.58,2.22c2.54,3.49,4.45,7,7,10.8,2.86,4.44,5.08,9.53,7.62,14.29a92.92,92.92,0,0,1,5.4,13,117.23,117.23,0,0,1,5.08,17.15c.64,3.18,1.27,6,1.91,9.21.63,3.49,1.27,7.3,1.59,10.8.31,2.54.95,5.08.63,7.62v1.27c.64,1.59.32,3.49.32,5.08v16.2a6.16,6.16,0,0,1-.32,2.54c-.32.31-.32.95-.32,1.59.32,2.85-.31,5.39-.63,7.93-.32,1.91-.32,3.82-.64,5.4a51.59,51.59,0,0,1-1.27,7c-.63,2.86-.63,6-1.58,8.89-.32.64-.32,1.59-.64,2.23-1,4.44-2.22,8.57-3.18,13-1.27,4.76-2.22,9.52-3.17,14.6-.32,1.91-.32,3.82-.64,5.72v.64c-.63,2.54-.31,4.76-.63,7.3,0,1.59-.64,3.49-.32,5.08.32,2.54.32,5.4.64,7.94.31,3.49.95,7,1.58,10.48.32,2.22,1.27,4.45,1.59,7A89.69,89.69,0,0,0,684.87,373a114,114,0,0,0,6,12.38c1.91,3.18,3.81,6.67,5.72,9.85l3.81,5.71,1.91,2.86c1.58,2.22,3.17,4.76,5.08,7,.63,1.27,1.59,2.22,2.22,3.49l3.81,5.72c2.23,3.17,4.13,6.67,6.35,10.16a52.42,52.42,0,0,1,3.81,7.3,72.23,72.23,0,0,1,3.18,7.31c1.27,3.17,2.22,6,3.18,9.21a69.67,69.67,0,0,1,1.58,7.94c.32,2.22,1,4.44.64,6.67,0,1.27-.32,2.54.32,3.81.31.31,0,.95,0,1.58a5.4,5.4,0,0,0-.32,2.23,96,96,0,0,1-1,9.84c-.32,3.5-1.59,7-2.23,10.48a21.05,21.05,0,0,0-1.27,4.13,55.28,55.28,0,0,1-3.81,10.16c-1.9,4.45-3.81,8.58-6,12.71-1.27,2.22-2.22,4.44-3.5,6.35H683.92a6.4,6.4,0,0,0-2.54-1.27,16.06,16.06,0,0,0-5.4-1H670.9a5.69,5.69,0,0,1-3.18-.64c.32-.63.95-.95,1.27-1.27,3.49-2.22,7.31-4.76,10.8-7a39.34,39.34,0,0,0,3.81-2.85,17.73,17.73,0,0,0,2.22-2.86c.64-1.59,2.11,14.86.52,13.91a7.68,7.68,0,0,0-8.58.31c-1.9,1.27-2.85-.24-4.12,1.34-2.22,3.5-5.28-2.66-6.55,1.15-.31.64-1-1.34-1.58-.7a5,5,0,0,1-2.9-.44c0-.64,1.51.83,1.51.19,1.27-3.17,1.7,4.13,3,.95,1.59-3.49-8.77,3.52-6.54.66a21.15,21.15,0,0,0,2.22-3.49,21.91,21.91,0,0,0,2.22-4.76c.32-1.27.08,7.28-.87,6.64-2.22-1.59-4,0-6.55.95-1.9,1-9.22-2.1-10.49-.52-1.59,2.54,14.92-27.31,14-24.45a105.09,105.09,0,0,0-3.17,17.47,2.67,2.67,0,0,1-.64,2.22,6.16,6.16,0,0,1-2.54-.32,9.08,9.08,0,0,0-4.13.32c-1.27.32-.6,3.36-1.56,4.31-.63.64-2.25-.5-1.93.45H600.71c0-1.27-3,.52-3-.75s-9.88,2.33-10.2,1.38c-.64-1.59-339.85-4.09-340.49-5.67-1.9-4.45-1.9-4.45-1.58-9.21a85.39,85.39,0,0,0,.31-8.9c.32-2.22.32-4.12.64-6,.63-.32.95-.32,1.59-.64a5.7,5.7,0,0,0,2.22-1.58,3.45,3.45,0,0,0,.63-2.54,23.58,23.58,0,0,1,.64-6.67,5.47,5.47,0,0,0-.32-4.45c0-.32.32-.63.32-.95.32-4.45.63-8.58,1.27-13,.32-3.81.63-7.94,1.27-11.75A143.52,143.52,0,0,0,255.26,442c.32-10.48,0-21-.32-31.12-.31-12.07-1.27-23.82-1.9-35.89a4.18,4.18,0,0,0,1.9-2.85,34.78,34.78,0,0,0,.64-5.72c0-5.4-.32-10.48-.64-15.88a47.16,47.16,0,0,0-.63-6.67c0-.32-.32-.63-.32-1.27.64-.32.95-.95,1.59-1.27,2.86-1.9,5.71-3.81,8.57-6,.32-.32.64-.32,1-.64"/><path class="cls-1" d="M112.47,529.62a1.75,1.75,0,0,0-1-1.59,44,44,0,0,1-5.08-5.72l-3.81-4.76c-1.91-2.54-4.13-5.4-6-7.94-1.59-2.23-3.18-4.45-4.45-6.67a51.89,51.89,0,0,1-4.45-7c-1.27-1.9-2.22-3.81-3.49-5.71a177.32,177.32,0,0,1-8.89-17.15,139.28,139.28,0,0,1-6-14.29c-1-2.54-1.9-4.77-2.85-7.31s-1.59-5.4-2.54-8.26c-.64-2.54-1.59-5.39-2.23-7.94a34.31,34.31,0,0,1-1.27-6,80.93,80.93,0,0,1-1.59-9.21,9.27,9.27,0,0,0-.63-2.86c-.64-1.9,0-4.13-.95-6.35-.32-.63,0-1.59,0-2.54a18,18,0,0,0-.32-4.13c-.32-.63,0-1.27,0-1.9V390.83c0-1.9-.32-3.49.32-5.39.31-.64,0-1.27,0-1.91,0-1.59-.32-3.18.31-4.76-.31-2.86,1-5.72,1.27-8.58a77.53,77.53,0,0,1,1.59-8.26c1-5.08,2.54-9.84,3.81-14.6a32.93,32.93,0,0,1,1.91-5.09c1.59-4.12,3.17-8.25,5.08-12.38,1.27-3.18,2.86-6,4.45-9.21,2.54-4.45,5.08-8.89,7.62-13,2.86-4.45,6-8.58,8.89-13a69.33,69.33,0,0,1,4.45-5.72c1.27-1.59,2.54-3.17,3.81-5.08a54.78,54.78,0,0,1,4.13-4.76c1.9-2.23,4.12-4.77,6-7l.32-.32c4.76-4.76,8.89-9.84,13.65-14.29,2.23-1.9,4.13-4.13,6.35-5.71,3.5-2.86,7-6,10.8-9.21,3.18-2.54,6.67-5.09,10.16-7.63s7-4.76,10.48-7l6.67-3.81a94.11,94.11,0,0,1,9.85-5.08c4.13-1.91,8.57-3.82,12.7-5.4,3.18-1.27,6.67-2.54,9.85-3.5,3.81-1.27,7.94-2.22,12.06-3.17s8.48-1.55,12.93-2.19a7.69,7.69,0,0,1,2.69.24s5.91,2.08,5.6,2.08c-1.91,2.54-8.51,2.73-8.51,5.9a25.19,25.19,0,0,0,1.59,8.26,26.08,26.08,0,0,0,3.81,8.57,10,10,0,0,0,2.22,6.67,22.66,22.66,0,0,0,2.54,3.18v1c-.32,2.22-.32,4.45-.63,6.35a2.69,2.69,0,0,1-.64,2.23,21.31,21.31,0,0,0-4.45.63,131.09,131.09,0,0,1-29.53,5.4c-1.27,0-2.54.32-3.81.32a18.24,18.24,0,0,0-6.67,2.22,11.22,11.22,0,0,0-4.76,5.4,15.84,15.84,0,0,0-1,7.62c-.54,10.81,24,20.55,25.86,19.17.64,5.72,14.14,15.1,15.09,20.81.32,1.27-30.3,0-30.62,1.29-.95,4.13-7.47,2.87-8.1,7-.32,2.54-.32,5.08-.64,7.62a46.4,46.4,0,0,0,0,6.67c0,1.59.64,2.23,2.22,2.54a4.7,4.7,0,0,0,2.23.32,50.52,50.52,0,0,0,12.06-.63c.32,0,.32-.32.64-.32a12.91,12.91,0,0,0,3.49-.32,11.89,11.89,0,0,1,3.5-.32v2.23c-.32,3.81-1,7.62-1.27,11.75v4.76a15.8,15.8,0,0,0,.63,3.81,3.7,3.7,0,0,0,1.91,2.54v22.55c0,14.61.31,29.53-.64,44.14-.32,3.18-.32,6.35-.63,9.85v.32a77.25,77.25,0,0,0-.64,8.89,63.29,63.29,0,0,0-.32,7.94c-.31,4.13-.31,8.25-.31,12.06-.32,7.31-.32,14.3,0,21.6.31,6,.31,12.07.63,18.42,0,3.81.64,7.94.64,11.75,0,.32,0,.32.31.63,1,.32,1.59,1,2.54,1.28,0,.31-.31.63-.31,1-2.23,4.76-2.23,4.76-2.86,9.84H167.09a3.14,3.14,0,0,0-2.22-2.22,1.26,1.26,0,0,1-1.27-.64,4.41,4.41,0,0,0,.63-3.49c0-1.27-.95-1.9-2.22-1.9a4.05,4.05,0,0,0-3.5,3.81v1.58c0,1-.31,1-1.58,1a42.07,42.07,0,0,1-1.59-6,71.57,71.57,0,0,0-4.13-10.48,16.36,16.36,0,0,0-4.13-5.4,6.75,6.75,0,0,0-4.76-2.22c-3.18-.32-4.13,1.27-2.86,3.81a42.25,42.25,0,0,0,5.08,7.94,115.05,115.05,0,0,0,9.85,11.43c.31.32.63.64.31,1-.63.32-.95.32-1.58-.32a30.49,30.49,0,0,0-2.86-3.18,12.18,12.18,0,0,0-6.35-3.17,4.45,4.45,0,0,0-2.86.32.68.68,0,0,0-.64.63c0,.32,0,.64.32.64.63.31,1.27.95,1.91.95,2.54,1,4.76,1.9,7.3,2.86.32,0,.95,0,.95,1a14.64,14.64,0,0,0-8.25,1.27H116C113.42,529.93,113.1,529.62,112.47,529.62Z"/><path class="cls-2" d="M245.86,523l3.73,0,1.55,0c.32,0,.64.1,1,.1h18.41a9.29,9.29,0,0,0,1.15-.15l1.55,0c.7,0,1.41.11,2.11.11h21.14c1.15,0,2.3-.06,3.46-.1l1.5.05,8.05-.19,1.25.12c.65,0,1.29.12,1.93.12h31c.64,0,1.28,0,1.92-.08l1.3-.15,8,.14,1.5,0c.71,0,1.41.14,2.12.14h22.93c1.92,0,3.85,0,5.77-.08.84,0,1.67.09,2.5.09q9.4,0,18.82.05l2.49-.06,19.19,0,10.66-.07,10.75,0,1.13,0h11.11l5.28-.06,9.81,0h1.29l10.35.07,1.49.1,7.82-.12,1.5,0a6.48,6.48,0,0,0,.77.09h22.5a7.79,7.79,0,0,0,1.15-.17l10.43.08,1.28-.08,8.05.06h1.5c.57,0,1.15.13,1.73.13H593c.64,0,1.28-.12,1.92-.18s1.28.18,1.92.18H633.5c.64,0,1.28-.12,1.92-.18s1.28.18,1.93.18H698c.64,0,1.28-.13,1.92-.19s1.29.18,1.93.18c4.32,0,8.64,0,13,0,.63,0,1.27.07,1.82.11a5.89,5.89,0,0,1,.1,4.74,4.52,4.52,0,0,1-.91.25c-.65,0-1.29,0-1.94,0H61.25a22.4,22.4,0,0,1-2.32,0c-.71-.07-1.06-.87-1.09-2.31,0-1.69.33-2.64,1.09-2.75a10.14,10.14,0,0,1,1.35,0H74c.64,0,1.28-.12,1.93-.18a13.29,13.29,0,0,0,1.53.18H110a13.72,13.72,0,0,0,1.54-.18c.7.06,1.41.17,2.11.17H189.5c.71,0,1.41-.1,2.12-.16l.46.06h6.77c.39,0,.78.1,1.16.1h30.53a12.33,12.33,0,0,0,1.35-.13h1.85l4.4,0Z"/><path class="cls-3" d="M506.81,242.73a7.32,7.32,0,0,1,4.79,5.12,31.7,31.7,0,0,1,1.88,9.54c0,2.76.17,5.53.26,8.3a65,65,0,0,1-.6,6.85c-.88,4.5-2.08,8.93-3,13.42-1.28,6.08-2.44,12.18-3.66,18.28a8,8,0,0,0-.82,1.73c-.57,2.73-1.08,5.47-1.57,8.21a35.25,35.25,0,0,0,.26,15.63c1.4,5.23,2.75,10.47,4.21,15.68,2.45,8.68,5.11,17.31,6.48,26.26.68,4.38.09,5.72-3.88,7.82a5,5,0,0,0-1.27-.73,63.74,63.74,0,0,1-16-6.22c-8.08-4.32-16.08-8.8-24.08-13.28-1.83-1-3.52-2.33-5.27-3.51,7-2.72,12.12-7.68,16.17-13.87,3.89-5.95,6.61-12.44,9.15-19,4.27-11.07,6.16-22.73,8.62-34.25.11-.49.31-1.39-1-1.43-.85,1.41-1.69,3-2.68,4.44-4.14,6.12-8.13,12.34-12.53,18.26a109.8,109.8,0,0,1-13.09,15.31,78.46,78.46,0,0,1-8.9,7.74c-4.45,3-9,5.86-14.52,7a48.11,48.11,0,0,1-10.75.76l-5.67-2c-2.41-2.44-4.82-4.84-6.16-8.15a4.72,4.72,0,0,1-.19-1.71c-.07-.14,0-.91,0-1a12,12,0,0,1-.54-3.32h0c-.05-.32.8-2.28.92-3a75.34,75.34,0,0,0,2.91-9.78c.5-1.22,1.66-4.67,2.05-6.14,1.92-7.07,3.9-14.13,5.86-21.18.72-2.53,1.38-5.07,2.16-7.58,2.71-8.79,5.39-17.58,8.24-26.32.69-2.14,1.34-4.45,3.36-5.9,2.77,3.57,6.41,6,10.25,8.29a23.64,23.64,0,0,0,18.94,2.47A118.18,118.18,0,0,0,506.81,242.73ZM448.94,302c0-2.31.38-4-.08-5.53-.86-2.75-.68-5.5-.73-8.26,0-2.13,0-4.26,0-6.38a8.36,8.36,0,0,0-1.67-5.47,76.81,76.81,0,0,0-1.21,8.5,22,22,0,0,1-1.24,6.7c-1,2.92-2.18,5.8-3.21,8.72a13,13,0,0,0-.4,2.38C443.45,304,445.87,301.84,448.94,302Z"/><path class="cls-4" d="M299.34,90.12c0-47.78.08-37.65.09-85.43,0-1.44.18-2.89.28-4.46a10.4,10.4,0,0,1,6.76.8,25.61,25.61,0,0,1,.43,3.14c.06,2.79,0,5.6,0,8.4,0,43.17-.1,28.43-.09,71.6,0,2.27-.25,4.59.77,7.13,8.89,1.69,17.24,4.93,24.4,10.84a54,54,0,0,1,10.26,11.3,52.68,52.68,0,0,1,7.12,15.13,50.61,50.61,0,0,1,2.3,15.06c-1.81.06-3.62.16-5.43.17H322.53c-13.34,0-26.68,0-40,0-1.75,0-3.61.41-5.39-.71a10.54,10.54,0,0,1-.28-2.4c.22-2.27.73-4.53.84-6.8.28-5.65,1.91-11,3.75-16.24,3.84-10.94,10.16-19.85,21.05-24.86a11.33,11.33,0,0,0,1.4-1C302.25,91,300.27,91.85,299.34,90.12Z"/><path class="cls-5" d="M485.59,170.33a22.91,22.91,0,0,0,8.18,1.57c1.14.06,2.3.06,3.45.1,3.06.12,5.47,1.39,6.55,4.34,1.58,4.35,4.69,7.43,7.92,10.51a38.48,38.48,0,0,1,4.52,5.19,8.56,8.56,0,0,1,1.13,8.86,18.44,18.44,0,0,0-1.1,10.63c.21,1.3.3,2.62.56,3.9a11.77,11.77,0,0,1-1.26,8.1,36,36,0,0,0-2.09,4.45c-1.67,4.59-5.1,6.74-9.76,7a14.48,14.48,0,0,0-7.47,2.14,4.44,4.44,0,0,0-.68.69l-9.64-1.19c-2.44-7.1-4.47-14.24-3-21.81-2-3.13-3-6.68-5.82-9.19-.64-.58-.79-1.75-1.06-2.68s-.38-1.87-.6-3l-5.2-1.6a5,5,0,0,1-3.61-3.06c-.23-.61-.53-1.2-.81-1.79a4.5,4.5,0,0,0-4.22-2.91,66.15,66.15,0,0,0-7.83.53c-2.61.33-4,2-4.33,4.63-.15,1.3,0,2.76-.54,3.86-1.53,3-1.11,6.15-.54,9.17.77,4,1.89,8,3,11.93a27.16,27.16,0,0,0,2.11,5c1.45,2.82,3.44,4.82,7,4.16.4-.08.87.25,1.43.43.34,3.11,1.3,6.11.5,9.38-3.31.59-6.35,2-9.71,1.52a13.18,13.18,0,0,1-.46-2.89c.15-3-1.37-4.95-3.67-6.52a45.55,45.55,0,0,1-4-2.82,43.55,43.55,0,0,1-4.55-4.46,8.36,8.36,0,0,1-1.76-8.74,20.11,20.11,0,0,0-.14-14.43c-1.06-2.84-.39-5.5,1.1-8,.58-1,1.25-1.93,1.87-2.9a14.51,14.51,0,0,0,2.19-5.93c.85-6.16,4.81-10.05,11-10.74a42.38,42.38,0,0,1,8.35.07c2.24.19,4.34,0,6-1.5,4.7-4.2,9.83-4.88,15.49-2.23A6.6,6.6,0,0,0,485.59,170.33Z"/><path class="cls-6" d="M452.74,241.12c3.36.44,6.4-.93,9.71-1.52.8-3.27-.16-6.27-.5-9.38-.56-.18-1-.51-1.43-.43-3.58.66-5.57-1.34-7-4.16a27.16,27.16,0,0,1-2.11-5c-1.13-3.94-2.25-7.9-3-11.93-.57-3-1-6.13.54-9.17.56-1.1.39-2.56.54-3.86.3-2.62,1.72-4.3,4.33-4.63a66.15,66.15,0,0,1,7.83-.53,4.5,4.5,0,0,1,4.22,2.91c.28.59.58,1.18.81,1.79a5,5,0,0,0,3.61,3.06l5.2,1.6c.22,1.17.34,2.13.6,3s.42,2.1,1.06,2.68c2.78,2.51,3.81,6.06,5.82,9.19-1.5,7.57.53,14.71,3,21.81l9.64,1.19a51.5,51.5,0,0,1,5.07,1.44c2.22.87,4.62,1.47,6.2,3.49a118.18,118.18,0,0,1-29.75,12.66,23.64,23.64,0,0,1-18.94-2.47c-3.84-2.26-7.48-4.72-10.25-8.29Z"/><path class="cls-7" d="M343.5,405.24c1.28-3,10.15-28.63,11.46-31.61.72-1.64,1.58-3.22,2.3-4.86a21.67,21.67,0,0,1,15.47-13c1.42-.35,2.79-.89,4.18-1.34l1.1-.62-.1.06c1.45-.15,2.92-.22,4.35-.47,3.06-.53,6.09-1.23,9.15-1.72,6.78-1.08,13.57-2.07,20.35-3.1a28.81,28.81,0,0,0,2.94,0q8.31-.85,16.62-1.77c2.67,1.85,5.9,2.13,8.87,3.13a21,21,0,0,1-7,1.85c-3.58.28-7.17.6-10.72,1.17-5,.81-10,1.8-14.92,2.82a90.24,90.24,0,0,0-15.48,4.77A13.35,13.35,0,0,0,385,367,139,139,0,0,0,374.23,394c-3.22,11.16-6.11,22.42-9,33.68-2,7.77-8.37,33.19-10.16,41-.2-.44-1.52-9.9-1.58-10.36-2.28-9.72-1.3-5.45-2.68-15.66-2-8.78-2.31-8.78-3.55-18.15C346.49,421.7,343.62,408.33,343.5,405.24Z"/><path class="cls-4" d="M267.81,144.53c-5.56.45-11.12.13-16.59.21-1-3.51-.73-8,1.1-14.67a53.48,53.48,0,0,1,14.77-25.17c6.67-6.35,14.39-10.83,23.56-12.54a2.87,2.87,0,0,1-1.59,2.29c-1.86,1.33-3.68,2.74-5.42,4.22-3.3,2.82-5.31,6.6-7.51,10.26A52.87,52.87,0,0,0,270,124.6,73.38,73.38,0,0,0,267.81,144.53Z"/><path class="cls-6" d="M267.81,144.53A73.38,73.38,0,0,1,270,124.6a52.87,52.87,0,0,1,6.09-15.47c2.2-3.66,4.21-7.44,7.51-10.26,1.74-1.48,3.56-2.89,5.42-4.22a2.87,2.87,0,0,0,1.59-2.29c1-.33,2.06-.72,3.12-1,1.85-.46,3.71-.84,5.57-1.26.93,1.73,2.91.87,4.53,1.6a11.33,11.33,0,0,1-1.4,1c-10.89,5-17.21,13.92-21.05,24.86-1.84,5.25-3.47,10.59-3.75,16.24-.11,2.27-.62,4.53-.84,6.8a10.54,10.54,0,0,0,.28,2.4c1.78,1.12,3.64.71,5.39.71,13.35,0,26.69,0,40,0h23.72c1.81,0,3.62-.11,5.43-.17-.37.46-.68,1.26-1.12,1.34a25.85,25.85,0,0,1-4.4.33c-21.36,0-42.73.06-64.1,0C277.31,145.26,272.56,144.79,267.81,144.53Z"/><path class="cls-6" d="M406.71,337.58c3.47-.54,6.27-2.61,9.3-4.15,3.76-1.91,7.41-4.07,11.12-6.09a5.79,5.79,0,0,1,1.42-.34q3.46,5.83,6.93,11.69c.07.12,0,.32,0,.74l-5.21,2.13c-5.55.4-10.88,1.87-16.21,3.35a25.67,25.67,0,0,0-12.46,3.84c-3.3,2.1-6.85,3.81-10.29,5.69a18.2,18.2,0,0,1-3.38,0,2.64,2.64,0,0,1-2-3.75,43.34,43.34,0,0,1,2-3.91c1-1.85,2-3.68,3.06-5.52a5.92,5.92,0,0,1,3.86-1.79q4.31-.57,8.61-1.23C404.52,338.1,405.61,337.81,406.71,337.58Z"/><path class="cls-6" d="M411.77,348.57c-6.79,1-13.58,2-20.36,3.1-3.06.49-6.09,1.19-9.15,1.72-1.43.25-2.9.32-4.35.47,2.47-3.87,6.29-6,10.39-7.53,1.57-.59,3.51-.24,5.28-.22a9.41,9.41,0,0,1,1.88.47c2.7.61,5.16.28,7.14-1.87a84.7,84.7,0,0,0,13.94-12.82c1.28-1.46,4.47-5.94,5.83-7.34.87,1,.32,4.93.78,6.06,1.34,3.31,3.75,5.71,6.16,8.15-.7.42-1.4.84-2.12,1.24Z"/><path class="cls-6" d="M378,353.8l-1.1.62Z"/><path class="cls-8" d="M423.26,526.72l-3.84-.05c.65-3,1.42-6.08,1.92-9.15,1.48-9.08,3-18.15,4.25-27.26,1.33-9.42,2.68-18.86,3.55-28.33.77-8.35.9-16.75,1.31-25.13a22.41,22.41,0,0,1,.1-3c1.11-6,.56-12.15.59-18.23a57.4,57.4,0,0,0-1.16-9.35,120.41,120.41,0,0,0-12.57-.1l-8.49-.12a15,15,0,0,1,.36-1.91,5.23,5.23,0,0,1,6-4c1.14.1,2.3,0,3.46.06,7.07.22,14.14.66,21.21.62,8.72-.05,17.43-.48,26.15-.78,1,0,2-.23,2.94-.34l13.71-1.47c1.29,1.51,3.06,1,4.63,1q17.06.06,34.1,0a29.18,29.18,0,0,0,3-.06,2.73,2.73,0,0,0,2.78-2.86c.1-1.15,0-2.31.06-3.46,0-6.92-.09-13.84,0-20.75.1-5.57,1.43-11.07,1-16.68,1.16-2.83.85-5.82.95-8.77a26.47,26.47,0,0,1,.5-2.89c.18-1.3.3-2.6.45-3.89a26.2,26.2,0,0,1,.11-3.44c.55-3.38,1.28-6.72,1.8-10.09.76-5,1.37-10,2.1-15,.21-1.45.64-2.87.91-4.31.89-4.63,1.63-9.3,2.65-13.91,1.16-5.26,2.56-10.46,3.86-15.69.64-2.6.82-5.14-.46-7.65a8.13,8.13,0,0,0-4.83-3.93c-.93-.33-1.93-.46-2-1.73a45.72,45.72,0,0,1,4.84.84,11.13,11.13,0,0,1,6.23,4.6,7.89,7.89,0,0,1,1.23,6.56c-2.07,8.95-4.19,17.9-6,26.92-1.45,7.4-2.5,14.89-3.59,22.36-1,7-1.92,14-2.75,21-.48,4.08-.82,8.18-1.06,12.27-.82,13.8-1.49,27.6-1.17,41.42a17.18,17.18,0,0,1,0,3c-.13.77-.38,1.87-.93,2.16-2.16,1.16-2.08,3.17-2.28,5.11-.19,1.79-.44,3.58-.52,5.38-.51,11.53.65,23,1.09,34.51.33,8.67,1.62,17.32,2.62,25.95,1,8.32,1.92,16.64,3.24,24.9,1.37,8.58,3.18,17.09,4.8,25.64h-3.84c-.23-1.11-.4-2.25-.71-3.34-1.89-6.63-3.9-13.22-5.69-19.87a309.32,309.32,0,0,1-7.72-36.54c-.74-5.2-1.37-10.39-2-15.59a213.68,213.68,0,0,1-1.87-27,27.68,27.68,0,0,0-.26-4.91,14.42,14.42,0,0,1,0-4.86c.39-2.71.76-5.49-.29-8.26a90,90,0,0,0-12.91-.15h-19q-20.75-.06-41.49-.09a15.18,15.18,0,0,0-3,.63c0,1.68,0,3.15,0,4.62q-.07,10.86-.17,21.73a37.15,37.15,0,0,1-.15,4c-.87,7.66-1.68,15.34-2.72,23-1,7.16-1.89,14.34-3.38,21.4a350.08,350.08,0,0,1-10.6,40.51A38,38,0,0,0,423.26,526.72Z"/><path class="cls-9" d="M534.32,264.12c.12,1.27,1.12,1.4,2,1.73a8.13,8.13,0,0,1,4.83,3.93c1.28,2.51,1.1,5.05.46,7.65-1.3,5.23-2.7,10.43-3.86,15.69-1,4.61-1.76,9.28-2.65,13.91-.27,1.44-.7,2.86-.91,4.31-.73,5-1.34,10-2.1,15-.52,3.37-1.25,6.71-1.8,10.09a26.2,26.2,0,0,0-.11,3.44c-2.55-.45-2.88-2.46-2.91-4.45,0-2.36-.06-4.51-2.46-6-.85-.52-1.28-1.85-1.75-2.89-3.18-7.05-7.76-13.21-12.35-19.36-1.05-1.41-2.22-2.91-4.3-2.94,1.22-6.1,2.38-12.2,3.66-18.28.94-4.49,2.14-8.92,3-13.42a65,65,0,0,0,.6-6.85c5.86-1.1,11.72-2.18,17.72-1.92C532.42,263.82,533.37,264,534.32,264.12Zm-5.49,56.67-.82-.35c-.12.27-.38.61-.31.81s.51.25.78.37C528.6,321.34,528.72,321.07,528.83,320.79Zm.67-5c.12-.27.39-.61.31-.81s-.51-.25-.78-.37c-.12.27-.39.61-.31.81S529.22,315.64,529.5,315.76Zm1.36-6.29c-.11-.28-.15-.71-.35-.79s-.54.17-.82.28c.11.28.16.7.35.79S530.58,309.58,530.86,309.47Z"/><path class="cls-10" d="M417.41,406.16c0,5.25.12,10.51.1,15.77a296.18,296.18,0,0,1-2.8,35.81,358.8,358.8,0,0,1-14.49,64.76,32.39,32.39,0,0,0-.78,4.31l-3.83-.12c2.05-12,4.28-23.93,6.09-35.94,1.49-9.91,2.75-19.86,3.62-29.84.84-9.66,1.06-19.37,1.54-29.05a6.32,6.32,0,0,0-.9-4.26c.51-3.83,1.2-7.66,1.47-11.52a56.58,56.58,0,0,1,1.49-10Z"/><path class="cls-10" d="M512.41,526.71c-.7-2.52-1.29-5.08-2.1-7.57a342.49,342.49,0,0,1-12.48-53.62,269.55,269.55,0,0,1-3.43-34.75c-.13-5.08-.53-10.16-.59-15.24-.05-3.11.3-6.22.47-9.33h10.46c0,11-.38,22,0,33,.4,10.32,1.61,20.61,2.48,30.92,1.09,12.93,3.14,25.74,5.24,38.54,1,6,2.11,12,3.17,17.93Z"/><path class="cls-11" d="M308.79,526.05c-5-.5-5-.5-5.09-5.56,0-.49,0-1,0-1.47a6,6,0,0,1,1.47.07,18.25,18.25,0,0,0,11.16-.11c3.58-1.16,7.1-2.51,10.64-3.81,2.76-1,5.5-2.09,8.25-3.14.45,1.61.89,3.23,1.34,4.84-.38.82-1.39,1.5-.55,2.66a8.19,8.19,0,0,0,1.32.35,34.67,34.67,0,0,0,18.89-3.42c2.17-1,6.29-2.26,8.54-3.15a11.43,11.43,0,0,1,.38,3c.14,1.73-1.2,3.56-1.21,5.3-3.21.45-6.42.87-9.62,1.38a53.94,53.94,0,0,0-6.18,1.2c-2.49.69-4.92,1.62-7.37,2.45l-13.5.07c-2-1.76-2-1.76-2.94-4.3a25.15,25.15,0,0,0-7.58,1.38C314.15,524.65,311.45,525.29,308.79,526.05Z"/><path class="cls-11" d="M303.71,517.87c1,2.09,5.08,5.82,5.08,8.18-.58,0-9.37.65-10,.66a5.67,5.67,0,0,1-2.88-1c-.8-.7-1.91-1-2.44-2.14C294.92,521.43,301.9,518.82,303.71,517.87Z"/><path class="cls-12" d="M408.92,406a56.58,56.58,0,0,0-1.49,10c-.27,3.86-1,7.69-1.47,11.52a44.57,44.57,0,0,1-4.08,11c-5.33,11.29-11.58,22.09-18,32.78-4.9,8.16-9.94,16.24-15,24.31a29,29,0,0,1-2.79,3.32c-1.39-10.11-6.54-4.71-7.94-14.82-.54-3.91-2.06-8.19-2.55-12.11-.24-2-.38-1.5-.51-3.47,1.79-7.81,8.2-33.23,10.16-41,2.85-11.26,5.74-22.52,9-33.68A139,139,0,0,1,385,367a13.35,13.35,0,0,1,7.05-6.52,90.24,90.24,0,0,1,15.48-4.77c5-1,9.93-2,14.92-2.82,3.55-.57,7.14-.89,10.72-1.17a21,21,0,0,0,7-1.85c8.33,1.1,16.65,2.28,24.36,5.92,1.75,1.18,3.44,2.48,5.27,3.51,8,4.48,16,9,24.08,13.28a63.74,63.74,0,0,0,16,6.22,5,5,0,0,1,1.27.73c-1.21,6.26-4.93,10.5-10.63,13.09a65.21,65.21,0,0,1-6.33,2.53c-2.47.82-5,1.44-7.5,2.15l-1.51.53-2.43.37L469,399.71c-1,.11-2,.31-2.94.34-8.72.3-17.43.73-26.15.78-7.07,0-14.14-.4-21.21-.62-1.16,0-2.32,0-3.46-.06a5.23,5.23,0,0,0-6,4A15,15,0,0,0,408.92,406Z"/><path class="cls-13" d="M486.68,397.34c2.5-.71,5-1.33,7.5-2.15a65.21,65.21,0,0,0,6.33-2.53c5.7-2.59,9.42-6.83,10.63-13.09,4-2.1,4.56-3.44,3.88-7.82-1.37-8.95-4-17.58-6.48-26.26-1.46-5.21-2.81-10.45-4.21-15.68a35.25,35.25,0,0,1-.26-15.63c.49-2.74,1-5.48,1.57-8.21a8,8,0,0,1,.82-1.73c2.08,0,3.25,1.53,4.3,2.94,4.59,6.15,9.17,12.31,12.35,19.36.47,1,.9,2.37,1.75,2.89,2.4,1.47,2.43,3.62,2.46,6,0,2,.36,4,2.91,4.45-.15,1.29-.27,2.59-.45,3.89a26.47,26.47,0,0,0-.5,2.89c-.1,2.95.21,5.94-.95,8.77.4,5.61-.93,11.11-1,16.68-.12,6.91,0,13.83,0,20.75,0,1.15,0,2.31-.06,3.46a2.73,2.73,0,0,1-2.78,2.86,29.18,29.18,0,0,1-3,.06q-17,0-34.1,0c-1.57,0-3.34.55-4.63-1l2.43-.37Z"/><path class="cls-14" d="M464.55,355.83c-7.71-3.64-16-4.82-24.36-5.92-3-1-6.2-1.28-8.87-3.13-.23-2.88,2-4.23,3.66-6a48.11,48.11,0,0,0,10.75-.76c5.49-1.19,10.07-4,14.52-7a78.46,78.46,0,0,0,8.9-7.74,109.8,109.8,0,0,0,13.09-15.31c4.4-5.92,8.39-12.14,12.53-18.26,1-1.46,1.83-3,2.68-4.44,1.35,0,1.15.94,1,1.43-2.46,11.52-4.35,23.18-8.62,34.25-2.54,6.61-5.26,13.1-9.15,19C476.67,348.15,471.57,353.11,464.55,355.83Z"/><path class="cls-14" d="M448.94,302c-3.07-.12-5.49,2-8.55.66a13,13,0,0,1,.4-2.38c1-2.92,2.18-5.8,3.21-8.72a22,22,0,0,0,1.24-6.7,76.81,76.81,0,0,1,1.21-8.5,8.36,8.36,0,0,1,1.67,5.47c0,2.12,0,4.25,0,6.38.05,2.76-.13,5.51.73,8.26C449.32,297.91,448.94,299.65,448.94,302Z"/><path class="cls-7" d="M342.61,407.28c.3-.68.6-1.36.89-2,1.93,3.39,1.93,7.27,2.62,10.94,2.35,12.61,4.52,25.24,6.71,37.87.84,4.86,1.52,9.73,2.28,14.6-.79,1-1.62,2-2.35,3.08q-7,10.32-14,20.68c-.91,1.35-1.74,2.78-3.47,3.27-4.42.62-8.83,1.67-13.32.49-1.86-1-1.57-2.61-1.18-4.3C325.78,470.38,331,449,336.9,427.71Q339.77,417.5,342.61,407.28Z"/><path class="cls-6" d="M336.57,516.87c2.58-.44,4.41-2.12,6-4,3.33-4,7.07-7.7,9.66-12.29a17.4,17.4,0,0,0,8.66-.18c.66,3.48,1.36,7,2,10.46a21.5,21.5,0,0,1,.15,2.9c-2.25.89-4.57,1.64-6.74,2.68a34.67,34.67,0,0,1-18.89,3.42,8.19,8.19,0,0,1-1.32-.35C335.18,518.37,336.19,517.69,336.57,516.87Z"/><path class="cls-12" d="M360.85,500.42a17.4,17.4,0,0,1-8.66.18c-1-.6-2.11-1.1-1.81-2.57,1.74-8.64,3-20.74,4.73-29.38,0-.14-.11.12,0,0,1.59,8.91,10.61,21.72,11,30.4C366.23,499.69,360.81,499.76,360.85,500.42Z"/><path class="cls-13" d="M528.83,320.8c-.11.27-.23.54-.35.82-.27-.12-.7-.18-.78-.37s.19-.54.31-.81Z"/><path class="cls-13" d="M529.5,315.76c-.28-.12-.7-.18-.78-.37s.19-.54.31-.81c.27.12.7.18.78.37S529.62,315.49,529.5,315.76Z"/><path class="cls-13" d="M530.86,309.47c-.28.11-.63.37-.82.28s-.24-.51-.35-.79c.28-.11.63-.37.82-.28S530.75,309.19,530.86,309.47Z"/><path class="cls-6" d="M303.71,517.87a6.59,6.59,0,0,0,1.35-.6c7.35-5.66,14.28-11.67,16.95-21.1,4.49,1.18,8.9.13,13.32-.49a39.35,39.35,0,0,1-.82,4.33,15.75,15.75,0,0,0,.11,9.65c.26.77.41,1.58.62,2.37-2.76,1.05-5.5,2.12-8.26,3.14-3.54,1.3-7.06,2.65-10.64,3.81a18.25,18.25,0,0,1-11.16.11c-.45-.14-.71.26-1.17-.38C304,518.33,303.71,518.25,303.71,517.87Z"/><path class="cls-6" d="M333.53,518.28c.45-.19.07.1.45-.19,8.89-3.36,14.72-8.56,17.39-18,4.49,1.18,9.17-.09,13.59-.58a19.21,19.21,0,0,1-.63,2.94,15.67,15.67,0,0,0,.11,9.65c.26.78.41,1.58.61,2.37-2.75,1-5.49,2.13-8.25,3.14-3.54,1.3-7.06,2.65-10.65,3.81a18.22,18.22,0,0,1-11.15.12c-.46-.14-.62-1.06-1.11-1.08C333.89,520.08,333.53,518.67,333.53,518.28Z"/><path class="cls-15" d="M486.68,397.34l-1.51.53Z"/><path class="cls-16" d="M125.92,389a36.69,36.69,0,0,1-6.56-4.54,45.29,45.29,0,0,1-10-11,30.06,30.06,0,0,1-2.82-5.82,22.59,22.59,0,0,1,.77-17,19.4,19.4,0,0,1,3.46-5.45,74.52,74.52,0,0,1,14-12.43,32.66,32.66,0,0,1,7.08-3.69,7.88,7.88,0,0,1,.83-.24,1.71,1.71,0,0,1,.43.06c.43.59.2,1.25.12,1.87-.66,4.63-1.43,9.25-2,13.89a88.38,88.38,0,0,0-.52,14.46,14.33,14.33,0,0,0,.95,4.42,2.39,2.39,0,0,0,1.94,1.83c1.06.08,1.69-.7,2.09-1.6a17.57,17.57,0,0,0,1-2.62,47.83,47.83,0,0,0,1.33-8.74c.59-7.41.52-14.84.4-22.26,0-1-.16-2-.2-3,0-.78,0-1.56,0-2.38.42-.24.78-.48,1.16-.66a243.5,243.5,0,0,1,28.49-11.35,78.67,78.67,0,0,1,12.19-2.84,16.71,16.71,0,0,1,4.25,0,10.42,10.42,0,0,1-.55,1.44c-3.63,6.32-7.12,12.71-10.21,19.31-1.19,2.54-2.22,5.16-3.25,7.77a23.58,23.58,0,0,0-.86,3.12,4.22,4.22,0,0,0-.12,1.28,1.2,1.2,0,0,0,1.63,1.2,8,8,0,0,0,2.1-1.05,32.41,32.41,0,0,0,5.6-5.38,256.61,256.61,0,0,0,17-22.64c1.63-2.37,3.25-4.75,5-7.28,1.69-.17,3.48-.29,5.25-.56a46.65,46.65,0,0,1,9.07-.27,41.52,41.52,0,0,1,13.31,2.51,21.31,21.31,0,0,1,7.6,4.84,16.25,16.25,0,0,1,4.14,7,43.36,43.36,0,0,1,1.87,14.71,26.21,26.21,0,0,1-3,11.18,17.44,17.44,0,0,1-3.27,4.27,9,9,0,0,1-5.8,2.57l-8.41.5c-4.6.29-9.21.49-13.8.89-3,.26-6,.77-9,1.25a10.13,10.13,0,0,0-2.64.93c-.88.42-1,1.16-.38,2a4.31,4.31,0,0,0,1.24,1.17,42,42,0,0,0,5,2.58,55.93,55.93,0,0,0,13.38,3.33,50.31,50.31,0,0,0,6.25.4,28.19,28.19,0,0,0,7.49-.79,2.2,2.2,0,0,1,.57,0c.38.41.11.72,0,1a7.94,7.94,0,0,1-.31.81c-3.54,7.61-7.67,14.86-13.3,21.16a28.29,28.29,0,0,1-8.4,6.7c-1.21.61-2.49,1.07-3.78,1.61l.23.54h-1.09a2.19,2.19,0,0,0-.74-.33c-.78,0-1.57,0-2.36,0a31,31,0,0,1-6.56-.94c-.63-.13-1.25-.37-1.85.07a1.74,1.74,0,0,0-1.09-.94c-1.2-.43-2.36-1-3.56-1.4-.94-.34-1.91-.56-2.86-.84-.18-.22-.31-.52-.53-.66-3.26-2-6.51-4-9.8-5.9a21,21,0,0,0-5.74-2.45,32.84,32.84,0,0,0-12.65-.21,20.75,20.75,0,0,0-2.92.72,6.39,6.39,0,0,0-1.74.85c-1.14.79-1.15,1.51-.17,2.44a6.05,6.05,0,0,0,2.66,1.37,50.94,50.94,0,0,0,7.86,1.3c3.14.39,6.27.8,9.41,1.21,2.41.33,4.75,1.13,7.22,1.09l-.12.59a20.27,20.27,0,0,1,8.28,5.06,3.93,3.93,0,0,0,2,1.13,4.09,4.09,0,0,0,.55.9c1.22,1.22,2.46,2.41,3.72,3.6a3.58,3.58,0,0,0,.74.43c.23.6.53,1.18.7,1.8a2.69,2.69,0,0,1-.21,2.48A5.06,5.06,0,0,1,191,411.1c-1.14.42-2.27.86-3.44,1.19a44.23,44.23,0,0,1-6.28,1.4,53.21,53.21,0,0,1-7,.74,23.8,23.8,0,0,0-3.85.31,16,16,0,0,1-4.94,0,27.47,27.47,0,0,0-3.84-.3,9.83,9.83,0,0,1-2.37-.06,19.25,19.25,0,0,0-5.13-.38,5.83,5.83,0,0,0-4.27-.76c-.6-.71-1.49-.74-2.31-1a33.94,33.94,0,0,1-10.7-4.85,8.57,8.57,0,0,0-1.75-.76,1.24,1.24,0,0,0-.09-.4c-1-1.32-2-2.62-3-3.93-.07-.09-.24-.13-.36-.19a14.31,14.31,0,0,0-.41-2.09,13,13,0,0,1-.29-6.41,24.32,24.32,0,0,1,3.69-9.15,52.24,52.24,0,0,1,7.43-9.21c1.28-1.27,2.5-2.61,3.86-3.78,1.9-1.63,4-3.09,5.88-4.7a69.26,69.26,0,0,1,6.56-4.88c2.77-1.8,5.5-3.67,8.31-5.41,3-1.86,6-3.68,9.08-5.39s6.5-3.42,9.75-5.13c1.34-.7,2.62-1.5,4-2.17,2.05-1,4.15-2,6.23-2.93,3.06-1.45,6.08-3,9.17-4.34,3.81-1.7,7.67-3.27,11.49-4.94a15.45,15.45,0,0,0,1.82-1.1,2.58,2.58,0,0,0,.4,0c.06,0,.11-.08.17-.11-.1-.05-.23-.16-.3-.13s-.18.18-.27.29a5.67,5.67,0,0,0-1.49.15c-2.43.87-4.86,1.75-7.25,2.73-5.92,2.43-11.92,4.63-17.74,7.3-3.85,1.78-7.78,3.38-11.6,5.21-5.78,2.77-11.47,5.7-17,8.88-3.62,2.07-7.24,4.14-10.68,6.48-3.2,2.18-6.34,4.46-9.48,6.74a36.8,36.8,0,0,0-3,2.48,35.15,35.15,0,0,1-3.22,2.86,13.88,13.88,0,0,0-2.05,2.2c-.38.43-.72.9-1.12,1.3a31.61,31.61,0,0,0-5.72,8.05C127.11,386.22,126.54,387.62,125.92,389Z"/><path class="cls-17" d="M25.61,345.19l2.55.35a3.48,3.48,0,0,0,.64.07,3.74,3.74,0,0,1,3.86,2.1c1.12,1.9,2.41,3.71,3.68,5.52A10.12,10.12,0,0,0,38.6,356a14.36,14.36,0,0,0,2.55,4q3.16,4.23,6.56,8.29a42.49,42.49,0,0,0,3.95,4,8.56,8.56,0,0,0,2,1.22.88.88,0,0,0,1.31-.87,7.55,7.55,0,0,0-.16-1.49,25.87,25.87,0,0,0-2.11-5.87c-2.66-5.59-5.45-11.12-8.56-16.48a6.73,6.73,0,0,1-.39-1,2.75,2.75,0,0,1,2.17-.29,70.72,70.72,0,0,1,15.38,4c5.35,2,10.55,4.22,15.76,6.49a7.25,7.25,0,0,1,1,.51,1.4,1.4,0,0,1,.72,1.46c-.63,4.59-.31,9.2-.28,13.8a72.11,72.11,0,0,0,.68,8.8,22.61,22.61,0,0,0,1,4.84,6.68,6.68,0,0,0,1.06,1.85,1.06,1.06,0,0,0,1.7,0,3.42,3.42,0,0,0,.75-1.27,12.93,12.93,0,0,0,.7-3.14c.06-2.3-.06-4.6-.12-6.9,0-.5-.15-1-.16-1.49a75.2,75.2,0,0,0-1.22-10c-.16-1-.35-2-.48-3a6.32,6.32,0,0,1,0-1.17,1.59,1.59,0,0,1,1.74.08c1.16.58,2.3,1.19,3.46,1.77.38.19.78.35,1.16.52,1.61,1.29,3.29,2.5,4.81,3.9,2.14,2,4.21,4.07,6.23,6.18a11.79,11.79,0,0,1,2.57,4.41,8.5,8.5,0,0,0,.58,1.12,23.41,23.41,0,0,1,.6,6.41,15.94,15.94,0,0,1-1.53,6.44c-2.06,4.57-5.46,8.06-9.23,11.21A54.32,54.32,0,0,1,88,407.6a30.46,30.46,0,0,0-5.69-9.32,41.5,41.5,0,0,0-6.64-6.13,92.88,92.88,0,0,0-10.94-7.61c-3.69-2.08-7.33-4.25-11.06-6.25-5-2.64-10.08-4.91-15.21-7.18-2.43-1.07-4.89-2.06-7.35-3.06s-4.64-1.94-7-2.78a8.29,8.29,0,0,0-2.55-.88c-.12.76.42.83.76,1q6.48,2.65,12.76,5.76c3.35,1.67,6.71,3.33,10,5,2.05,1,4.12,2.07,6.07,3.28C55,381.81,59,384,62.69,386.62a90.15,90.15,0,0,1,13.15,10.72,43.84,43.84,0,0,1,5.66,7,18.06,18.06,0,0,1,2.91,7.8,11.26,11.26,0,0,1-.21,2.77c-.14.92-.38,1.82-.57,2.72a4.89,4.89,0,0,0-.59.62,14.12,14.12,0,0,1-5.63,4.87,36.34,36.34,0,0,1-9,2.94,66,66,0,0,1-11.3,1.2,53.51,53.51,0,0,1-8.57-.43A50.63,50.63,0,0,1,40,425.12c-.76-.41-1.53-.79-2.27-1.24a1.47,1.47,0,0,1-.7-.76,3,3,0,0,1,.49-3,10.75,10.75,0,0,0,1.18-1.26,4.49,4.49,0,0,0,.39-1.19,4.16,4.16,0,0,0,1.2-.42,17.68,17.68,0,0,0,2.19-1.75,18.73,18.73,0,0,1,8.85-4.68,47.14,47.14,0,0,1,4.86-.88c1.78-.23,3.56-.43,5.34-.68s3.83-.57,5.73-.89a3.77,3.77,0,0,0,2.25-1.19,5.82,5.82,0,0,0,.6-1,2.81,2.81,0,0,0-1.75-1.38,21.58,21.58,0,0,0-4.41-.9,18.93,18.93,0,0,0-8.1.56,21,21,0,0,0-6,2.91,48.44,48.44,0,0,1-9.48,5.12,13.36,13.36,0,0,0-1.33.62,2.68,2.68,0,0,0-.64.06c-3.18.84-6.36,1.6-9.68.81a2,2,0,0,0-.43,0c-.76-.39-1.55-.73-2.28-1.16a26.08,26.08,0,0,1-6.73-5.63,57.76,57.76,0,0,1-7.38-11.08c-.82-1.59-1.6-3.2-2.38-4.82a4.13,4.13,0,0,1-.19-.77c.22-.09.35-.2.47-.19,1.56.22,3.11.46,4.67.67a6.17,6.17,0,0,0,1.29.05,56,56,0,0,0,11.43-1.84,6.46,6.46,0,0,0,1.13-.6c3.32-.49,5.87-1.93,7.15-4.06a2.09,2.09,0,0,0-1.56-1.27,17.53,17.53,0,0,0-5.66-.83c-1.07-.14-2.13-.35-3.19-.41-3.37-.19-6.73-.46-10.1-.57-1.71-.06-3.43-.25-5.15-.33a7.62,7.62,0,0,1-5.66-2.71,16.08,16.08,0,0,1-3.57-7.27,26.09,26.09,0,0,1-.12-10c.18-1,.31-2,.51-3,.84-4.14,2.84-7.49,6.66-9.55,1.07-.57,2.19-1.05,3.29-1.56.58-.27,1.18-.51,1.77-.76,2-.29,3.93-.63,5.9-.86,1.13-.14,2.28-.13,3.42-.16S24.4,345.2,25.61,345.19Z"/><path class="cls-18" d="M202.88,397.92H204a27.26,27.26,0,0,1,6.64,1.83,29.31,29.31,0,0,1,8,4.28,15.39,15.39,0,0,1,3.76,4.12,8.85,8.85,0,0,1,1.45,4A23.23,23.23,0,0,1,219,428.34a11.32,11.32,0,0,1-4.27,3.23,5.41,5.41,0,0,1-4,.33c-2.82-.88-5.64-1.74-8.48-2.54-3.18-.91-6.37-1.79-9.58-2.59a12.41,12.41,0,0,0-3-.22.8.8,0,0,0-.71,1.23,7.81,7.81,0,0,0,1.21,1.77,34.41,34.41,0,0,0,3.35,3A32.24,32.24,0,0,0,206.83,439a8.56,8.56,0,0,1,.83.23c-.7,1.49-3.11,3.81-7.06,6.83a41.41,41.41,0,0,1-8.47,5.09c-.91.24-1.81.48-2.72.7a10.84,10.84,0,0,1-8.32-1.19,27.49,27.49,0,0,1-8.25-7.19c-.92-1.2-1.87-2.38-2.8-3.57a14,14,0,0,0-6.28-4.77,41.81,41.81,0,0,0-4.74-1.46,11.77,11.77,0,0,0-2.79-.13,1,1,0,0,0-1.08.86,2.55,2.55,0,0,0,1.18,1.73,26.23,26.23,0,0,0,2.34,1.54c1.32.73,2.72,1.33,4,2.06,2.14,1.18,4.3,2.35,6.36,3.65a13.72,13.72,0,0,1,4.49,4.6c.92,1.55,1.79,3.13,2.64,4.72a9.07,9.07,0,0,1,.77,2c.42,1.65-.09,2.46-1.72,2.86a5.1,5.1,0,0,1-1.5.15c-1.72-.15-3.45-.24-5.14-.56a54.45,54.45,0,0,1-15.78-5.7,31.84,31.84,0,0,1-8.32-6.12,11.27,11.27,0,0,1-3-5.39,4.06,4.06,0,0,0-.35-.8,8.17,8.17,0,0,0-3.25,1.79,85.42,85.42,0,0,0-8.68,7.79,30.27,30.27,0,0,0-6.7,10.22h-3.46a35.39,35.39,0,0,1,9.06-11.67,47.53,47.53,0,0,0,5.86-6,43.44,43.44,0,0,0,6-9.7,2.3,2.3,0,0,0-.24-2.6,32.79,32.79,0,0,1-2.15-3.22c-2.51-4.3-4.25-8.8-3.87-13.91a11.43,11.43,0,0,1,1.4-5.15,8.57,8.57,0,0,1,1.75.76,33.94,33.94,0,0,0,10.7,4.85c.82.25,1.71.28,2.31,1-.11.7-.25,1.4-.31,2.1a2,2,0,0,0,.91,2,1.64,1.64,0,0,0,1.85-.74c.68-.82,1.22-1.74,1.82-2.62a19.25,19.25,0,0,1,5.13.38,9.83,9.83,0,0,0,2.37.06,27.47,27.47,0,0,1,3.84.3,16,16,0,0,0,4.94,0,23.8,23.8,0,0,1,3.85-.31,53.21,53.21,0,0,0,7-.74,44.23,44.23,0,0,0,6.28-1.4c1.17-.33,2.3-.77,3.44-1.19a5.06,5.06,0,0,0,2.13-1.78,2.69,2.69,0,0,0,.21-2.48c-.17-.62-.47-1.2-.7-1.8q2.22-1.52,4.43-3C199,400.65,200.94,399.28,202.88,397.92Z"/><path class="cls-18" d="M110,458.89c-.24-2.36-.64-4.71-.68-7.07a65.7,65.7,0,0,1,.39-8.18,61.54,61.54,0,0,1,7.53-23,68.18,68.18,0,0,0,7-18.25,39.39,39.39,0,0,0,1.33-8.28,14.6,14.6,0,0,0,.32-5.1c.62-1.38,1.19-2.78,1.87-4.13a31.61,31.61,0,0,1,5.72-8.05c.4-.4.74-.87,1.12-1.3a13.88,13.88,0,0,1,2.05-2.2,35.15,35.15,0,0,0,3.22-2.86,36.8,36.8,0,0,1,3-2.48c3.14-2.28,6.28-4.56,9.48-6.74,3.44-2.34,7.06-4.41,10.68-6.48,5.57-3.18,11.26-6.11,17-8.88,3.82-1.83,7.75-3.43,11.6-5.21,5.82-2.67,11.82-4.87,17.74-7.3,2.39-1,4.82-1.86,7.25-2.73a5.67,5.67,0,0,1,1.49-.15h0a15.45,15.45,0,0,1-1.82,1.1c-3.82,1.67-7.68,3.24-11.49,4.94-3.09,1.38-6.11,2.89-9.17,4.34-2.08,1-4.18,1.91-6.23,2.93-1.36.67-2.64,1.47-4,2.17-3.25,1.71-6.54,3.34-9.75,5.13s-6.09,3.53-9.08,5.39c-2.81,1.74-5.54,3.61-8.31,5.41a69.26,69.26,0,0,0-6.56,4.88c-1.93,1.61-4,3.07-5.88,4.7-1.36,1.17-2.58,2.51-3.86,3.78a52.24,52.24,0,0,0-7.43,9.21,24.32,24.32,0,0,0-3.69,9.15,13,13,0,0,0,.29,6.41,14.31,14.31,0,0,1,.41,2.09,14.68,14.68,0,0,0-3.11,3.56c-1.47,2.38-3,4.74-4.29,7.22q-3.11,6-5.92,12.22a33.64,33.64,0,0,0-1.77,5.3c-1.56,5.87-1.86,11.91-2.06,17.93-.11,3.51.18,7,.29,10.55Z"/><path class="cls-16" d="M96.57,458.89c0-2.66,0-5.33,0-8a48.39,48.39,0,0,0-1.71-12.56,26.24,26.24,0,0,0-1.5-4.26A131.49,131.49,0,0,0,87.16,422a17.1,17.1,0,0,0-3.53-4.32c.19-.91.43-1.81.57-2.73a11.26,11.26,0,0,0,.21-2.77,18.06,18.06,0,0,0-2.91-7.8,43.84,43.84,0,0,0-5.66-7,90.15,90.15,0,0,0-13.15-10.72C59,384,55,381.81,51.19,379.44c-1.95-1.21-4-2.23-6.07-3.28-3.33-1.7-6.69-3.36-10-5q-6.27-3.12-12.76-5.76c-.34-.15-.88-.22-.76-1a8.29,8.29,0,0,1,2.55.88c2.37.84,4.68,1.83,7,2.78s4.92,2,7.35,3.06c5.13,2.27,10.26,4.54,15.21,7.18,3.73,2,7.37,4.17,11.06,6.25a92.88,92.88,0,0,1,10.94,7.61,41.5,41.5,0,0,1,6.64,6.13A30.46,30.46,0,0,1,88,407.6a33,33,0,0,0,1,9,58.35,58.35,0,0,0,6.44,16.62,42.33,42.33,0,0,1,4.17,11.75,53.15,53.15,0,0,1,.79,14Z"/><path class="cls-5" d="M96.57,458.89h25.94c.86,0,1.73.08,2.59.08h60.43c.72,0,1.44,0,2.16,0,.24,0,.47.26.71.4-.07.46-.13.93-.21,1.47l-1.41.29c-1.08,0-2.16-.08-3.24-.08H88.73c-.86,0-1.73,0-2.59,0h-23l-2-.25v-1.7a5.37,5.37,0,0,1,2.42-.22H94.21C95,459,95.78,458.92,96.57,458.89Z"/><path class="cls-19" d="M86.14,461.15c.86,0,1.73,0,2.59,0h94.81c1.08,0,2.16.05,3.24.08-.05.79-.12,1.58-.14,2.37A55.3,55.3,0,0,1,185,474.41a60.33,60.33,0,0,1-4.24,11.77,58.42,58.42,0,0,1-7.89,12.36c-.88,1-1.76,2.1-2.69,3.1a61.06,61.06,0,0,1-19.09,13.92c-.61.29-1.35.42-1.78,1.06.4.45.85.27,1.24.27h27.9c.58,0,1.16,0,1.73,0a7.4,7.4,0,0,1,7.39,6.26,3.15,3.15,0,0,0,.09.42c-.71.06-1.42.18-2.14.18H64.21c-.65,0-1.29-.08-1.94-.12a.29.29,0,0,0-.09-.21c.31-.81.56-1.64.94-2.41a7,7,0,0,1,6.35-4.12c.65,0,1.3,0,2,0h27a14.45,14.45,0,0,0,2.08,0c-.06-.83-.7-.8-1.1-1a63.19,63.19,0,0,1-10.26-6A61.82,61.82,0,0,1,67,480.77a58.83,58.83,0,0,1-3.13-11.87c-.38-2.56-.47-5.16-.68-7.74h7.5a6.54,6.54,0,0,0,0,1.93,13.5,13.5,0,0,1,.37,3.63,7.93,7.93,0,0,0,.18,1.27c.2,1,.51,1.95.62,2.94A46,46,0,0,0,75,482.07a62.53,62.53,0,0,0,4.7,9.45,50.83,50.83,0,0,0,7.56,9.89c.45.46.87,1,1.34,1.41,1.48,1.45,2.92,3,4.5,4.32a49.35,49.35,0,0,0,7.18,5.09c2.12,1.23,4.26,2.4,6.44,3.51a11,11,0,0,0,5.59,1.25c3.52-.13,7.06,0,10.59,0,.29,0,.7.22,1-.32l-1.5-.81c-2.15-1.16-4.34-2.25-6.46-3.47a54.63,54.63,0,0,1-9.67-7.16,62.48,62.48,0,0,1-10.45-12.53,60.76,60.76,0,0,1-4.67-8.75,64.56,64.56,0,0,1-3.64-11.47,42.36,42.36,0,0,1-1.31-10.64C86.18,461.58,86.15,461.36,86.14,461.15Z"/><path class="cls-20" d="M86.14,461.15c0,.21,0,.43,0,.64a42.36,42.36,0,0,0,1.31,10.64,64.56,64.56,0,0,0,3.64,11.47,60.76,60.76,0,0,0,4.67,8.75,62.48,62.48,0,0,0,10.45,12.53,54.63,54.63,0,0,0,9.67,7.16c2.12,1.22,4.31,2.31,6.46,3.47l1.5.81c-.25.54-.66.32-1,.32-3.53,0-7.07-.08-10.59,0a11,11,0,0,1-5.59-1.25c-2.18-1.11-4.32-2.28-6.44-3.51a49.35,49.35,0,0,1-7.18-5.09c-1.58-1.34-3-2.87-4.5-4.32-.47-.45-.89-.95-1.34-1.41a50.83,50.83,0,0,1-7.56-9.89,62.53,62.53,0,0,1-4.7-9.45,46,46,0,0,1-3.16-11.15c-.11-1-.42-2-.62-2.94a7.93,7.93,0,0,1-.18-1.27,13.5,13.5,0,0,0-.37-3.63,6.54,6.54,0,0,1,0-1.93Z"/></g></g></svg>