<?xml version="1.0" encoding="UTF-8"?>
<svg width="800px" height="500px" viewBox="0 0 800 500" version="1.1" xmlns="http://www.w3.org/2000/svg" xmlns:xlink="http://www.w3.org/1999/xlink">
    <!-- Generator: Sketch 64 (93537) - https://sketch.com -->
    <title>Artboard Copy 3</title>
    <desc>Created with Sketch.</desc>
    <defs>
        <polygon id="path-1" points="0.0863445378 0.192726018 684.090144 0.192726018 684.090144 439.80163 0.0863445378 439.80163"></polygon>
    </defs>
    <g id="Artboard-Copy-3" stroke="none" stroke-width="1" fill="none" fill-rule="evenodd">
        <rect fill="#FFFFFF" x="0" y="0" width="800" height="500"></rect>
        <g id="2978421" transform="translate(58.000000, 44.000000)">
            <g id="Group-3">
                <mask id="mask-2" fill="white">
                    <use xlink:href="#path-1"></use>
                </mask>
                <g id="Clip-2"></g>
                <path d="M100.184128,375.421395 C233.760567,461.260748 450.332815,461.26363 583.907815,375.424277 C717.484254,289.583483 717.484254,150.410513 583.907815,64.572601 C450.331376,-21.2667519 233.757689,-21.2667519 100.18125,64.5697187 C-33.39375,150.409072 -33.39375,289.583483 100.184128,375.421395" id="Fill-1" fill="#F1F0EC" mask="url(#mask-2)"></path>
            </g>
            <polyline id="Fill-9" fill="#00A798" points="169.950783 82 138 100.432764 516.096993 337 580 300.133033 169.950783 82"></polyline>
            <polyline id="Fill-10" fill="#00A798" points="122.284387 73.0722509 117 113 191 70 122.284387 73.0722509"></polyline>
            <path d="M481.466664,347.616545 L439.636703,322.806648 C387.948369,292.930864 322.813389,272.531367 251.285859,263.813818 C198.869824,257.424307 144.052089,257.633068 91.7698021,264.356595 L83,242.610952 L115.63724,237.55463 C173.824546,228.541936 235.742398,227.573 294.696236,234.757239 C367.912147,243.682109 434.580188,264.561036 487.488068,295.142286 L538,324.337078 L481.466664,347.616545 Z" id="Fill-11" fill="#00A798"></path>
            <polyline id="Fill-12" fill="#00A798" points="75.7567844 223 105 287 46 262.059565 75.7567844 223"></polyline>
            <path d="M606,285.324664 L558.164982,313 L507.670227,283.786025 C454.777395,253.184681 418.663912,214.627939 403.228809,172.283667 C390.805678,138.193012 392.473406,102.382194 408.066655,68.7208601 L416.807846,49.846598 L458.189047,46 C442.963848,78.8833702 441.324875,113.870124 453.469092,147.17273 C468.549084,188.544548 503.831579,226.215275 555.503807,256.110689 L606,285.324664" id="Fill-13" fill="#00A798"></path>
            <polyline id="Fill-14" fill="#00A798" points="380 48.147901 489 65 446.520675 31 380 48.147901"></polyline>
            <path d="M556,352 C610,340.966579 621.094352,321.49225 621.094352,306.206081 C621.094352,296.015302 610.687751,285.946608 589.874551,276 L474.402704,343 C492.800901,356.355614 520,359.355614 556,352 Z" id="Fill-15" fill="#00A798"></path>
            <path d="M280.000716,174 C276.160991,174 272.322699,173.121515 269.39276,171.364546 C263.535747,167.849119 263.535747,162.150881 269.39276,158.635454 C272.322699,156.878485 276.160991,156 280.000716,156 C283.839009,156 287.678733,156.878485 290.60724,158.635454 C296.464253,162.150881 296.464253,167.849119 290.60724,171.364546 C287.678733,173.121515 283.839009,174 280.000716,174" id="Fill-20" fill="#00A593"></path>
            <path d="M575.535991,96.7986391 C579.18134,105.667425 586.469153,128.280168 587.983242,134.205156 C589.497331,140.130143 568.46736,160.347005 569.191239,159.996108 C569.413305,159.886812 562.611442,148.538736 562.611442,148.538736 L572.412643,133.49617 L566.274095,117.163626 L560,85.250666 C565.662691,83.9161057 571.887759,87.9312914 575.535991,96.7986391 Z" id="Fill-28" fill="#EB9598"></path>
            <path d="M573.843159,296.389544 C574.602962,296.674101 574.795769,298.109625 574.910025,300.963687 C574.998573,303.121221 575.464167,306.889827 572.9134,307.642982 C570.361205,308.396137 566.625032,308.011065 564.989743,305.975282 C562.948844,303.435507 561.569202,301.200109 558.657101,298.101131 C556.132042,295.412708 553.399894,292.902663 552.380159,289.134056 C551.457541,285.726455 552.224485,284.248459 554.56959,283.257465 C557.794467,281.895557 562.860295,286.346533 565.386782,287.047307 C567.56336,287.650398 573.083356,296.103572 573.843159,296.389544" id="Fill-29" fill="#132529"></path>
            <path d="M549.348404,321.030171 C549.778846,323.264952 550.396191,327.003539 549.652828,328.685231 C548.912298,330.366922 524.324706,337.195336 520.937806,336.775287 C516.947721,336.280496 512.813211,333.837933 512.167548,332.093458 C511.521885,330.348984 512.351618,329.51038 521.756213,325.278498 C521.842585,325.239632 531.674789,320.551824 536.225582,315.249638 L547.80221,315 C547.80221,315 548.807519,318.216889 549.348404,321.030171 Z" id="Fill-31" fill="#132529"></path>
            <path d="M575.492979,194.763184 C577.582389,167.579256 575.904813,158.691037 570.566808,146.496782 C570.566808,146.496782 525.023133,141.873812 523.633552,160.833037 C521.902697,184.444081 524.199464,230.072289 524.825855,238.413829 C525.450807,246.755369 526.224076,250.511442 529.170274,267.94314 C531.412322,281.204789 534.872593,317.605324 534.872593,317.605324 C540.916188,320.878184 546.645867,317.364439 546.645867,317.364439 C546.645867,317.364439 550.369654,273.399831 549.97798,263.775976 C549.499906,252.024545 549.158631,204.290397 549.9823,198.165863 C549.9823,198.165863 551.404999,210.371658 552.029951,218.713198 C552.654902,227.054738 555.127347,235.021247 557.536433,250.514327 C559.627283,263.953394 563.508028,296.993323 563.508028,296.993323 C566.570005,298.651512 569.07162,298.53801 570.794699,298.02242 C572.472557,297.520362 573.412208,296.637044 573.412208,296.637044 C573.412208,296.637044 578.298059,255.747442 576.666562,244.085441 C575.036505,232.423441 574.326595,209.937488 575.492979,194.763184 Z" id="Fill-33" fill="#253C40"></path>
            <polyline id="Fill-34" fill="#EB9598" points="538 80.1851954 540.185609 97 556 95.6653825 554.194113 77 538 80.1851954"></polyline>
            <path d="M558.541022,85.1510701 C556.991251,85.4387812 555.628721,85.6646344 554.16969,85.9580997 C554.034301,90.0076332 546.394911,92.105047 538.777126,89.6479944 C536.487037,90.3025371 534.39139,90.9700268 532.487304,91.649025 C527.040062,93.5925134 524.850795,102.629519 524.731249,117.748736 C524.611704,132.867954 523,166.717238 523,166.717238 C523,166.717238 525.122533,168.670292 529.367598,172.576399 L533.543049,174.758688 C540.43636,176.492147 547.672463,176.366993 555.535101,174.652235 C571.904193,171.080302 577,162.25908 577,162.25908 C577,162.25908 574.502507,100.68603 571.977649,93.8226822 C570.276646,89.196288 564.490931,84.0476981 558.541022,85.1510701 Z" id="Fill-35" fill="#00A798"></path>
            <path d="M523.4165,134 L523.5835,126 C523.5395,128.477946 523.4825,131.18894 523.4165,133.998683 L523.4165,134" id="Fill-36" fill="#B5B7B3"></path>
            <path d="M535.768029,91 C535.768029,91 526.362408,91.7374222 522.322622,97.8534356 C518.284269,103.969449 502.500718,126.577035 502.500718,126.577035 C502.500718,126.577035 477.376056,113.993513 476.140323,112.501453 C475.537172,111.77319 471.314004,108.422108 468.105917,105.054563 C464.741292,101.522701 462.366776,97.9474862 460.881457,96.2480359 C457.979921,92.9282013 454.173806,94.9324402 456.253909,97.7788325 C458.334011,100.622356 458.421459,102.463042 458.117543,102.73563 C457.555586,103.2392 454.106428,110.042422 454.106428,111.893151 C454.106428,113.74388 454.457652,113.646322 455.036812,114.334965 C457.075341,116.762433 459.862192,117.690667 462.532924,119.169815 C464.753516,120.400765 467.04722,120.938768 469.6047,122.076464 C472.16218,123.21416 502.363095,146.392746 507.059455,143.797421 C511.75438,141.203532 535.32219,113.74388 535.32219,113.74388 C543.328651,100.983893 535.768029,91 535.768029,91 L466.825206,139.18306" id="Fill-38" fill="#EB9598"></path>
            <path d="M529.205185,57.8053986 C529.205185,57.8053986 523.236133,50.9464449 527.589544,43.9875824 C532.720909,35.7863762 542.609594,34.3876536 554.330097,37.5861819 C560.138437,39.1731385 568.262149,45.4558068 568.990325,56.8019671 C569.550679,65.5504995 545.582031,72.0054743 546.129585,78 L529.205185,57.8053986" id="Fill-39" fill="#132529"></path>
            <path d="M534.497992,43.5408883 C531.175518,45.3282834 525.439341,48.6193603 524.276112,60.7665546 C523.082347,73.2357639 526.038405,77.4801181 527.8196,79.0632396 C529.023543,80.131421 535.083969,80.3725775 538.213057,79.3327674 C542.127325,78.0333595 550.56801,73.6840312 554.399398,67.1642945 C558.908367,59.4926809 559.604851,49.4080839 554.051883,45.6077413 C546.23498,40.2583228 537.308646,42.0286952 534.497992,43.5408883" id="Fill-41" fill="#EB9598"></path>
            <path d="M535.003565,62.8133666 C535.003565,62.8133666 537,71.1717912 537,71.1717912 C537,71.1717912 537.360908,74.9498181 541.430689,78.8241079 C541.430689,78.8241079 553.142823,83.9903099 563.285832,72.6654628 C572.488537,62.3894805 570.777562,44.4661884 556.681762,40.2389013 C542.590349,36.0116142 533.903862,43.9583931 533.903862,43.9583931 C533.903862,43.9583931 531.265744,55.6000697 535.003565,62.8133666 Z" id="Fill-42" fill="#132529"></path>
            <path d="M537,71.1717912 C533.708143,78.3340712 533.708143,82.9434742 537,85 C540.291857,87.0565258 546.32622,86.2169784 555.103089,82.4813578 C563.064584,81.3730412 569,74.4524734 569,66.2768581 L569,56 L554.636825,65.3580095 L547.841691,71.4751191 L540.966745,70.9052906 L538,71.1717912 L537,71.1717912 Z" id="Fill-43" fill="#132529"></path>
            <path d="M535.012249,62 L547,38.0547015 C541.247954,34.4949114 529.385373,33.2292729 524.942572,38.0547015 C519.964564,43.4605781 520.079662,58.6686067 535.012249,62 Z" id="Fill-44" fill="#132529"></path>
        </g>
    </g>
</svg>