<?xml version="1.0" encoding="UTF-8"?>
<svg width="800px" height="500px" viewBox="0 0 800 500" version="1.1" xmlns="http://www.w3.org/2000/svg" xmlns:xlink="http://www.w3.org/1999/xlink">
    <title>Artboard Copy 4</title>
    <g id="Artboard-Copy-4" stroke="none" stroke-width="1" fill="none" fill-rule="evenodd">
        <rect fill="#FFFFFF" x="0" y="0" width="800" height="500"></rect>
        <g id="5236" transform="translate(0.000000, 59.000000)">
            <path d="M39.3009423,398 C39.3009423,398 -44.6670606,219.2353 120.824362,219.2353 C208.264089,219.2353 172.243176,170.187628 231.690796,113.424141 C291.138119,56.6612487 499.040528,11.3106822 543.289556,120.92199 C587.538584,230.533595 478.182861,313.756478 583.852402,299.478821 C710.837042,282.323658 761,398 761,398 L39.3009423,398" id="Fill-2" fill="#FBECDB"></path>
            <polygon id="Fill-4" fill="#4A75CB" points="217 398 338 398 338 372 217 372"></polygon>
            <polygon id="Fill-5" fill="#699DEE" points="177 398 298 398 298 372 177 372"></polygon>
            <polygon id="Fill-6" fill="#D86713" points="384 398 475 398 475 273 384 273"></polygon>
            <polygon id="Fill-7" fill="#F1A34F" points="355 398 446 398 446 273 355 273"></polygon>
            <path d="M524.911338,96.7029389 C523.523863,96.4996644 519.343536,100.228571 519.343536,100.228571 C510.418942,101.223637 497.370713,103.510619 492.674186,104.383029 C489.341263,105.002066 480.38683,102.055738 471.63828,98.6732042 C461.233712,94.6485997 451.124542,90.0058218 451.124542,90.0058218 C445.350857,89.7219286 438.795413,99.8853651 450.503908,106.34696 C452.291214,107.333676 459.004801,109.017169 466.738853,110.554397 C466.738853,110.554397 466.738853,110.554397 466.738853,110.553533 C477.405997,112.674383 490.009638,114.515658 494.297382,113.868404 C499.280355,113.116346 513.384855,108.137561 521.775347,104.324868 L521.775347,104.325156 C521.775347,104.325156 521.784298,104.321125 521.796234,104.315079 C521.829056,104.300683 521.858894,104.286575 521.888732,104.272466 C522.392997,104.045294 524.445863,103.162806 525.818418,103.240834 C527.390889,103.330954 530.890906,100.555077 530.998323,99.8142478 C531.102757,99.0737068 526.298813,96.9059254 524.911338,96.7029389" id="Fill-18" fill="#ED975D"></path>
            <path d="M513,228.005654 L508.091306,229 C508.091306,229 485.628147,203.841898 482.161959,193.255549 C480.30816,187.598148 468.449209,185.15343 456.053789,181.95976 C445.267776,179.179632 434.076432,175.830289 428.732602,169.294999 C417.243219,155.253545 435.945133,138 435.945133,138 C435.945133,138 455.83324,149.78093 472.988335,161.952231 C484.978423,170.45809 495.636279,179.153489 497.242706,184.15136 C501.14403,196.304242 509.414597,219.405323 513,228.005654" id="Fill-19" fill="#2B478B"></path>
            <path d="M508.069346,236.972087 L510.618684,236.972087 C511.471213,236.827474 512.100985,236.560815 512.975515,236.437285 C514.306561,236.24902 514.917083,236.837273 515.038087,236.972087 C515.054587,236.990201 515.062838,237 515.062838,237 L525.884462,237 C526.156722,236.580413 525.895463,235.607911 525.639704,234.892267 C525.469198,234.405868 525.092435,234.037356 524.627669,233.892149 C523.480879,233.533139 521.217551,233.213624 519.143979,231.188146 C517.980689,230.050837 513.517284,227.005939 513.517284,227.005939 L513.492533,227 C513.39353,227.002079 512.928764,227.156788 510.896443,229.007958 C509.848657,229.962941 508.058345,227.658926 508.058345,227.658926 C508.058345,227.658926 507.722834,227.958843 507.472575,228.517995 C507.271818,228.958962 507.123313,229.564735 507.238817,230.311854 C507.401073,231.36483 506.881305,233.321416 506.46329,234.64491 C506.213031,235.447262 506.001274,236.015916 506.001274,236.015916 C506.001274,236.015916 505.87752,236.676327 508.069346,236.972087" id="Fill-20" fill="#233862"></path>
            <path d="M460,151.654912 C460,151.654912 458.598907,155.976489 456.316778,162.478302 C453.431995,170.699292 449.136942,182.40471 444.477849,193.260114 C443.453032,195.645299 442.40986,197.990691 441.36057,200.24812 C437.484621,208.601653 433.519957,215.762593 430.026402,219.401407 C423.749017,225.943312 408.493012,268 408.493012,268 L404.690483,266.970768 C404.690483,266.970768 399.388968,231.058954 418.166059,210.623016 C418.367963,210.405202 418.52398,210.15298 418.545394,209.860367 C418.548454,209.857974 418.548454,209.855281 418.548454,209.852588 C418.799304,206.827425 419.692577,193.281357 421.6382,179.554575 C422.115428,176.186534 422.656898,172.810713 423.262611,169.575514 C423.30238,169.368172 423.342149,169.163821 423.381918,168.959471 C426.236109,154.000304 428.970994,147.3465 432.501258,144 L460,151.654912" id="Fill-22" fill="#2B478B"></path>
            <path d="M403.071741,272.973278 L405.620739,272.973278 C406.473154,272.827791 407.102842,272.56057 407.977256,272.435867 C409.308124,272.248812 409.918563,272.836698 410.039551,272.973278 C410.05605,272.991093 410.064299,273 410.064299,273 L420.884478,273 C421.156701,272.578385 420.895476,271.607482 420.639752,270.891924 C420.466519,270.404988 420.092556,270.036817 419.627852,269.89133 C418.478466,269.532067 416.21819,269.214371 414.144895,267.18943 C412.97901,266.052257 408.516202,263.005938 408.516202,263.005938 L408.494204,263 C408.395214,263.002969 407.93051,263.157363 405.898461,265.007126 C404.850815,265.963183 403.060742,263.659145 403.060742,263.659145 C403.060742,263.659145 402.725276,263.959026 402.47505,264.517221 C402.27432,264.95962 402.125835,265.565321 402.241323,266.313539 C402.403557,267.364608 401.883859,269.321259 401.46865,270.645487 C401.215675,271.44715 401.001196,272.014252 401.001196,272.014252 C401.001196,272.014252 400.880208,272.676366 403.071741,272.973278" id="Fill-23" fill="#233862"></path>
            <path d="M412.284705,102.671494 C412.284705,102.671494 408.050654,113.169006 403.169569,123.387572 C399.063733,131.978397 394.501692,140.370665 391.609418,142.161906 C387.530418,144.687534 376.295275,151.811095 369.004955,157.124979 C369.004955,157.124979 363.318804,157.081157 362.433232,158.184854 C361.550641,159.288551 359.511141,164.247632 360.107486,164.749313 C360.703831,165.251296 365.224127,165.018588 366.321402,163.877114 C367.281518,162.881913 369.413452,162.165961 369.944199,161.999439 C369.976998,161.988861 370.009797,161.97919 370.042596,161.968613 C370.057505,161.964684 370.06645,161.962266 370.06645,161.962266 L370.06645,161.961964 C378.922175,159.200304 392.817017,153.446392 397.021251,150.632146 C400.644047,148.209271 408.670853,138.187448 415.072618,129.267207 C415.0756,129.266602 415.0756,129.266602 415.0756,129.266602 C419.718147,122.800969 423.504939,116.914686 424.137065,114.93063 C428.284645,101.932573 416.351779,98.5147992 412.284705,102.671494" id="Fill-24" fill="#FFB27D"></path>
            <path d="M431.963596,61.0021767 C433.35609,60.3729109 433.989549,55.5394773 433.780256,54.1059121 C433.570964,52.6729577 431.63989,48.5268291 429.256743,48.1135298 C428.183679,47.927295 425.319692,47.7653263 423.692348,49.3957678 C421.705559,51.3863385 421.03016,55.2895729 421.060841,55.597211 C413.46212,52.6335522 409,68.3004383 409,68.3004383 L428.687467,81 C428.687467,81 428.737697,77.5393435 430.615751,77.7626412 C433.545849,78.1102647 435.984806,70.2368053 431.634308,63.2974696 C431.165493,62.5472381 431.436178,61.2404424 431.963596,61.0021767 Z" id="Fill-25" fill="#2C3A64"></path>
            <path d="M432.799123,95.1797277 C428.457735,97.5028761 422.697822,94.1569944 422.727318,94.1216752 C423.10005,93.6990632 422.968656,92.4336629 422.628102,90.7791428 C422.287548,89.0539844 421.48041,86.6949079 419.992164,83.8791182 C419.683789,83.2802148 419.372732,82.6819203 419,82.0480023 L419.496082,81.8373052 L427.929475,78 C427.929475,78 429.294371,80.7807751 430.720942,83.3155339 C431.930309,85.4279852 433.201351,87.328826 433.759108,87.2587966 C433.791287,87.2234775 439.371538,91.5887433 432.799123,95.1797277" id="Fill-26" fill="#FFB27D"></path>
            <path d="M417.879949,85.9367319 C417.879949,85.9367319 429.475817,81.2569687 426.516676,73.9083572 C423.560367,66.5600357 423.064817,61.0066045 415.538122,63.6838617 C408.011427,66.360539 407.708434,69.7679309 408.113369,72.4666456 C408.518304,75.1650704 414.787718,86.9646618 417.879949,85.9367319" id="Fill-28" fill="#FFB27D"></path>
            <path d="M429,69.3307473 C429,69.3307473 424.190165,67.8156674 421.363938,62.6448056 C421.363938,62.6448056 415.493232,60.4716547 411.142002,64.1043891 C410.876785,64.4822492 410.686159,64.9274328 410.592228,65.4511604 C409.594899,65.0924055 408.094761,65.1858091 407.23004,68.2790465 C405.931578,72.9258776 410.553551,78 410.553551,78 C411.675201,77.6521624 410.409891,73.5108634 410.233079,71.3007149 C410.103233,69.6737327 410.904412,67.5918626 411.33539,66.6044527 C411.887927,67.3926217 420.656691,72.7044988 422.25076,72.4573431 C427.474998,71.647946 429,69.3307473 429,69.3307473 Z" id="Fill-29" fill="#2C3A64"></path>
            <path d="M456.241564,110.066601 C456.138714,109.709949 456.029988,109.33958 455.915384,108.959579 C457.702024,105.56759 458.58065,102.510655 458.950908,99.922738 C459.767825,94.4556288 458.374952,91.0808592 458.374952,91.0808592 C458.374952,91.0808592 450.029466,86.6854574 446.344523,86.1259631 C446.326892,86.119834 446.312199,86.1139968 446.297506,86.1122457 C446.253428,86.1061166 446.203473,86.1020306 446.150579,86.0985283 C442.430373,85.5889419 434.375804,87.2218949 434.375804,87.2218949 C434.375804,87.2218949 435.930298,91.3295233 431.548918,94.0677477 C427.164599,96.8056802 422.483487,93.3661178 422.483487,93.3661178 C422.342437,93.4606803 422.192571,93.5645822 422.039766,93.6731539 L422.036827,93.6725701 C422.036827,93.6725701 410.505952,101.229684 409.471582,102.956616 C408.434274,104.684131 404,113.234443 404,113.234443 C404,113.234443 405.407566,120.412723 420.984826,121.013078 C422.266034,124.097739 423.247511,127.107101 423.564874,129.617092 C424.802004,139.361108 423.365053,147.047807 424.807881,152.73527 C426.25071,158.423317 452.242195,155.179592 456.949755,154.085412 C461.657314,152.990939 460.596497,147.998977 460.960877,143.149442 C461.416352,137.055419 457.775487,115.442359 456.241564,110.066601" id="Fill-30" fill="#699DEE"></path>
            <path d="M352.049868,166.404819 C352.049868,166.404819 356.846851,160.432786 357.880181,159.727028 C358.913512,159.02097 363.442702,157.7835 363.701763,158.032609 C363.960823,158.282017 363.972466,158.642672 363.410684,159.151954 C362.851812,159.661237 360.706559,160.945956 361.012192,161.090697 C361.320736,161.235736 367.782691,157.929138 368.717055,159.041306 C369.648508,160.153174 368.187291,164.743595 365.695654,166.944305 C363.206928,169.144717 355.769858,170.083435 355.304132,170.39056 C351.336724,172.995885 352.049868,166.404819 352.049868,166.404819" id="Fill-32" fill="#ED975D"></path>
            <path d="M266,150.602396 C266,150.602396 271.818182,159.956305 279.223587,156.043163 C279.223587,156.043163 280.818182,150.819201 280.840295,146.968003 C280.842752,146.494429 280.847666,146.035176 280.85258,145.598237 C280.891892,141.261809 281,138.828667 281,138.828667 C281,138.828667 280.997543,138.827668 280.992629,138.826669 C280.65602,138.636173 269.668305,132.522679 269.678133,133.029889 C269.867322,144.758326 266,150.602396 266,150.602396" id="Fill-33" fill="#FFB27D"></path>
            <path d="M285.846212,140.385095 C285.846212,140.385095 271.995083,143.72103 270.100158,134.852853 C268.205234,125.984676 265.139752,120.442841 273.903779,117.938138 C282.667806,115.433435 285.113581,118.430783 286.449392,121.233161 C287.785204,124.035539 289.399195,139.288917 285.846212,140.385095" id="Fill-35" fill="#FFB27D"></path>
            <path d="M269.334611,136.929513 C269.130727,137.056598 265.93358,138.018856 259.879093,126.201387 C258.927632,124.346349 258.28052,120.333181 260.496657,116.787245 C262.712794,113.24131 270.569738,110.453543 277.097001,109.24001 C283.624263,108.027057 285.190333,111.62481 286.726855,115.24167 C288.340203,119.037723 293,122.163033 293,122.163033 C287.373967,125.243472 280.592588,120.837758 278.243482,121.562346 C275.894377,122.286934 275.067019,125.913057 274.889728,127.07564 C274.712437,128.237933 274.443546,129.203664 271.488697,128.165561 C268.536802,127.127458 270.153105,132.266155 270.625881,133.248677 C270.625881,133.248677 271.02774,135.866225 269.334611,136.929513" id="Fill-36" fill="#A9453D"></path>
            <path d="M231.747296,369 L223.754992,369 C222.07989,369 220.218168,367.214642 219.752016,363.949751 C219.285864,360.679349 215.842218,358.896746 215.096532,356.221464 C214.350846,353.548937 218.170091,349.782603 218.170091,349.782603 L219.472483,348 L225.803332,349.58423 C225.803332,349.58423 225.959503,351.187746 226.057143,353.232091 C226.124861,354.706114 226.16187,356.411572 226.082866,357.904881 C225.89651,361.472842 227.021732,365.310811 229.999751,366.005117 C232.980132,366.699423 231.747296,369 231.747296,369" id="Fill-37" fill="#2C3A64"></path>
            <path d="M294,370 L270.603661,370 C270.380452,369.956896 270.209422,369.908044 270.107963,369.853445 C268.545502,369.054575 269.035401,362.950984 269.220926,361.065882 C269.25861,360.715299 269.2847,360.511271 269.2847,360.511271 C269.2847,360.511271 277.511538,353.795596 278.642076,358.939395 C278.67976,359.097445 278.720344,359.255495 278.763826,359.410671 L278.763826,359.413544 C280.192942,364.224002 286.576134,366.410835 290.266326,367.020045 C293.083974,367.488447 293.814476,369.163773 294,370" id="Fill-38" fill="#2C3A64"></path>
            <path d="M288,232.218311 C288,232.218311 286.711724,248.226648 285.19628,267.468682 C283.136832,293.610939 280.661906,325.721679 280.419794,331.803281 C279.99535,342.364967 278.297576,359.261283 278.297576,359.261283 C278.297576,359.261283 274.268349,363.276986 266.206908,361.583187 C266.206908,361.583187 259.024244,337.465154 256.973763,311.945049 C256.940883,311.52532 256.908004,311.105591 256.878114,310.682886 C254.968117,284.704353 252,230 252,230 L288,232.218311" id="Fill-39" fill="#EE9849"></path>
            <path d="M284,234.492655 C284,234.492655 261.145485,292.679226 246.116046,320.024482 C231.089254,347.369738 226.393032,355 226.393032,355 C226.393032,355 217.782802,351.50454 217,349.117469 C217,349.117469 222.747018,296.327053 232.811065,283.459575 C238.497776,276.187823 245.177625,254.366589 245.492393,246.73334 C245.804219,239.103078 247.525148,224 247.525148,224 L284,234.492655" id="Fill-41" fill="#EE9849"></path>
            <path d="M232,224.906287 C232,224.906287 231.418619,232.262318 230.992696,233.391898 C230.566485,234.521479 227.72864,238.023026 227.399807,237.972822 C227.070974,237.922619 226.874772,237.646802 227.040922,236.933972 C227.207361,236.221746 228.186058,234.018838 227.876296,234.075695 C227.565668,234.13346 224.317504,240.334809 223.023844,239.985804 C221.729606,239.636496 220.464553,235.226748 221.234334,232.11201 C222.004404,228.997272 227.229611,224.106054 227.42928,223.604321 C229.121412,219.34851 232,224.906287 232,224.906287" id="Fill-42" fill="#ED975D"></path>
            <path d="M230.230352,226.340495 C232.827437,227.169192 233.243575,226.981835 233.243575,226.981835 C233.243575,226.981835 245.88202,204.10167 247.162443,202.007406 C248.442867,199.912843 274,176.349903 274,176.349903 L267.43179,152 C267.43179,152 238.365269,189.424111 235.226117,194.794433 C230.039194,203.668405 227,224.278358 227,224.278358 C227,224.278358 228.190432,225.689246 230.230352,226.340495" id="Fill-43" fill="#2A4E96"></path>
            <path d="M293.969306,185.673445 C293.877382,190.587936 293.58016,196.111723 293.178756,201.722551 C293.154243,202.055377 293.12973,202.388203 293.105217,202.720733 C292.850892,206.19652 292.572055,209.680568 292.253383,213.077575 C292.127753,214.440154 291.989866,215.78621 291.848916,217.108661 L291.827466,217.287171 C291.818274,217.782279 291.753927,218.31899 291.698772,218.809082 C290.396509,231.533766 289.032963,241.588172 288.781703,241.741603 C288.478352,241.936341 288.138231,242.03371 287.767469,241.989452 C284.301917,241.570469 273.960415,242.328769 265.497236,240.554878 C258.354705,239.103781 252.201895,236.353543 245.68445,232.644365 C244.82036,232.152208 242.847048,230.847755 243.009448,229.873178 C243.16572,228.801821 243.456814,227.25365 243.827576,225.307741 C245.111454,218.539104 247.326834,206.896103 248.083679,193.270311 C248.230758,190.73163 248.445248,188.225405 248.724086,185.760193 C249.450289,179.340314 250.614665,173.242344 252.177381,167.825074 C255.07913,157.761816 259.344425,150.055484 264.694429,147.040873 C265.393055,146.663493 269.15583,148.968489 272.609125,151.103236 C275.801968,153.073045 279.160275,153.618017 282.426658,153.342728 L285.30083,156.404843 C288.784767,160.302563 292.492387,165.491753 293.503556,172.86762 C293.58016,173.412593 293.644507,173.991497 293.699661,174.606989 C293.978499,177.611273 294.048974,181.414869 293.969306,185.673445" id="Fill-44" fill="#2A4E96"></path>
            <path d="M357.465306,165.408908 C356.468543,162.739184 354.918024,162.912839 354.918024,162.912839 C354.918024,162.912839 326.164571,170.006322 323.584364,170.310663 C321.007149,170.6153 292.624863,159.339575 292.624863,159.339575 C292.624863,159.339575 281.45394,154.376182 276.221686,158.908105 C271.674893,162.846459 271.468357,167.835041 272.530971,172.024692 C273.800122,177.017423 278.065547,180.705667 283.225963,181.356133 C294.803972,182.816198 317.90611,185.564452 322.746245,184.897392 C333.522055,183.411841 357.941237,169.457205 357.941237,169.457205 C357.941237,169.457205 358.246552,167.505808 357.465306,165.408908" id="Fill-46" fill="#2A4E96"></path>
            <path d="M635.831351,218.613301 C635.831351,218.613301 639.64767,222.018884 638.903859,224.438697 C638.157188,226.858511 634.712775,228.471537 634.246463,231.429393 C633.783012,234.386974 631.920626,236 630.244192,236 C628.567758,236 622.253954,236 622.253954,236 C622.253954,236 621.018084,233.918872 623.999047,233.291339 C626.980009,232.664082 628.101446,229.188835 627.915494,225.962233 C627.729541,222.735906 628.195853,218.434045 628.195853,218.434045 L634.526822,217 L635.831351,218.613301" id="Fill-47" fill="#2C3A64"></path>
            <path d="M585.028028,236.540023 C584.653567,236.753966 583.333248,236.901209 581.52197,237 L564,237 C564.061023,236.408826 564.468769,234.301806 567.334084,233.777647 C570.571085,233.181125 576.176895,231.047048 577.425096,226.351322 C577.469477,226.201563 577.502762,226.04614 577.536047,225.891346 C578.526287,220.874078 585.749211,227.426384 585.749211,227.426384 C585.749211,227.426384 585.771401,227.626798 585.801912,227.969106 C585.971113,229.814046 586.398275,235.764482 585.028028,236.540023" id="Fill-48" fill="#2C3A64"></path>
            <path d="M570,109.032595 C570,109.032595 571.143995,123.707494 572.490723,141.347412 C574.321115,165.309671 576.522219,194.743639 576.739433,200.319446 C577.115938,210.002084 578.624853,225.489842 578.624853,225.489842 C578.624853,225.489842 582.204543,229.169571 589.372613,227.618505 C589.372613,227.618505 595.755815,205.509197 597.580415,182.116207 C597.609376,181.732828 597.638338,181.346772 597.664404,180.960418 C599.361571,157.145978 602,107 602,107 L570,109.032595" id="Fill-49" fill="#35488B"></path>
            <path d="M575,110.691875 C575,110.691875 596.149311,164.437068 610.055992,189.694052 C623.962672,214.951337 628.30647,222 628.30647,222 C628.30647,222 636.276034,218.769375 637,216.566499 C637,216.566499 631.683002,167.80605 622.369353,155.920021 C617.105762,149.203413 610.925345,129.047575 610.634571,121.99861 C610.346765,114.950248 608.750479,101 608.750479,101 L575,110.691875" id="Fill-51" fill="#35488B"></path>
            <path d="M509.51538,82.2361528 C509.51538,82.2361528 503.86707,80.9368608 502.914484,81.0023985 C501.96482,81.068524 498.639535,82.467445 498.595705,82.7387064 C498.548952,83.00938 498.706742,83.230386 499.282385,83.2694735 C499.858027,83.308561 501.748589,83.0637498 501.628785,83.2944542 C501.508982,83.5245709 496.059371,84.6019752 496.00093,85.7052419 C495.939567,86.8079209 498.925895,88.8581043 501.447619,88.9953514 C503.969342,89.1325985 508.928049,86.1854598 509.354667,86.1481356 C512.960469,85.8313211 509.51538,82.2361528 509.51538,82.2361528" id="Fill-52" fill="#FFB27D"></path>
            <path d="M505.65004,85.5952933 C504.827126,82.8633618 505.019534,82.4281458 505.019534,82.4281458 C505.019534,82.4281458 528.220987,69.3197 530.343396,67.9902343 C532.468765,66.6613872 556.44281,40 556.44281,40 L581,47.0630575 C581,47.0630575 542.997926,77.3131979 537.551298,80.5703581 C528.552521,85.9534881 507.710287,89 507.710287,89 C507.710287,89 506.292387,87.7407503 505.65004,85.5952933" id="Fill-53" fill="#EE9849"></path>
            <path d="M559,25.6018335 C559,25.6018335 553.394425,43.6449957 547.914146,46 C547.914146,46 548.141607,39.940245 549.475534,35.7933359 C548.930012,34.6145996 548.45003,33.5317701 548.03366,32.5624773 C546.655397,29.3295031 546,27.3503687 546,27.3503687 L547.858244,18.204673 L549.120848,12 C549.728055,14.0136891 550.395018,15.7297852 551.092823,17.1969469 C554.684015,24.7496033 559,25.6018335 559,25.6018335" id="Fill-54" fill="#FFB27D"></path>
            <path d="M542.352213,28.9355734 C542.352213,28.9355734 554.58893,24.0975438 551.500187,16.4159831 C548.411444,8.73413681 547.913078,2.93626911 539.970192,5.70040868 C532.027307,8.46454825 531.697879,12.0194619 532.114592,14.8375763 C532.528489,17.6559763 539.091717,29.9959361 542.352213,28.9355734" id="Fill-56" fill="#FFB27D"></path>
            <path d="M608.95801,104.388501 C603.780187,111.805963 565.069089,121.716907 565.526911,116.582194 C565.704133,114.617605 565.940428,111.152866 565.521004,106.455219 C565.423532,105.355049 565.287662,104.189835 565.110441,102.956338 C564.126861,96.2102215 561.79049,87.5354234 556.580176,77.4946844 C556.190288,76.7418129 555.782679,75.9842323 555.360301,75.2160562 C553.21592,71.3280843 551.387584,67.2181949 549.993441,63.1995447 C547.311488,55.4762842 546.230436,48.0870774 547.583228,43.2561031 C547.589135,43.2325574 547.597996,43.2116607 547.603903,43.1881151 C555.697022,39.4596648 558.833843,25 558.833843,25 C558.833843,25 586.439056,29.9384013 601.904592,66.6065972 C601.904592,66.6065972 613.462392,97.9319956 608.95801,104.388501" id="Fill-57" fill="#EE9849"></path>
            <path d="M522.370634,100 C522.370634,100 515.476992,100.379122 514.408024,100.782254 C513.341723,101.185386 509.985537,103.989998 510.022858,104.328361 C510.060179,104.666444 510.310759,104.875827 510.98253,104.726467 C511.651634,104.576828 513.741586,103.639073 513.677608,103.955101 C513.616295,104.271129 507.722312,107.416338 508.010213,108.7522 C508.30078,110.088341 512.384717,111.514098 515.319713,110.816993 C518.252043,110.119888 522.978426,104.911003 523.45293,104.721163 C527.480885,103.112824 522.370634,100 522.370634,100" id="Fill-59" fill="#FFB27D"></path>
            <path d="M520.815859,101.11997 C519.276609,98.6841415 520.38796,97.5727656 520.38796,97.5727656 C520.38796,97.5727656 544.121531,79.3686721 545.981706,77.5295748 C547.841881,75.6910598 556.459304,46.406973 556.459304,46.406973 C556.459304,46.406973 559.424886,34.5558863 566.372311,33.2488989 C572.407479,32.1133626 576.5795,35.0385111 579.310332,38.4681159 C582.56118,42.5547076 582.882105,48.1916367 580.180989,52.6479108 C574.122049,62.6511676 561.897195,82.5068973 558.328393,85.8992429 C550.382535,93.4489146 523.799271,104 523.799271,104 C523.799271,104 522.02527,103.033004 520.815859,101.11997" id="Fill-60" fill="#EE9849"></path>
            <path d="M535.402456,1.91735358 C521.583161,6.31199185 528.48835,13.971032 530.581011,14.5852539 C532.676645,15.1991919 536.532018,11.258408 539.997988,10.7202543 C543.466932,10.1823844 545.342598,14.7944413 546.662402,15.1770527 C547.985178,15.5596641 547.233128,14.5100372 548.618327,13.4589912 C550.003527,12.4079452 550.797192,14.8807275 550.767467,16.6172383 C550.737742,18.3537491 553.436799,20 553.436799,20 C553.436799,20 553.436799,20 555.021158,17.2272027 C556.602545,14.4546892 556.11191,4.40561521 554.658509,2.57698927 C552.70483,0.118927458 545.886572,-1.4171559 535.402456,1.91735358 Z" id="Fill-61" fill="#2B478B"></path>
            <polygon id="Fill-64" fill="#4A75CB" points="532 398 654 398 654 236 532 236"></polygon>
            <polygon id="Fill-65" fill="#699DEE" points="494 398 616 398 616 236 494 236"></polygon>
        </g>
    </g>
</svg>