<?xml version="1.0" encoding="UTF-8"?>
<svg width="800px" height="500px" viewBox="0 0 800 500" version="1.1" xmlns="http://www.w3.org/2000/svg" xmlns:xlink="http://www.w3.org/1999/xlink">
    <!-- Generator: Sketch 64 (93537) - https://sketch.com -->
    <title>Artboard</title>
    <desc>Created with Sketch.</desc>
    <defs>
        <path d="M0.0371866395,0.128827583 L0.0371866395,101.594863 C9.69284062,85.46565 11.268982,64.9992413 17.0128876,47.1795237 C16.0560467,30.8026751 8.69452238,14.667736 0.0371866395,0.128827583" id="path-1"></path>
        <path d="M0.0371866395,0.133121836 L0.0371866395,20.0255321 C8.69452238,34.5644405 16.0560467,50.6993796 17.0128876,67.0762282 C18.2786636,63.1484183 19.7489661,59.3465732 21.5510879,55.7494208 C18.1513709,37.8996435 10.1462316,20.8056547 2.08960309,4.32860679 C1.40737128,2.93297464 0.72227896,1.53304824 0.0371866395,0.133121836" id="path-3"></path>
        <path d="M4.1177052,0.134553253 L0.121571706,0.134553253 C25.382742,46.4480693 32.0820581,102.814431 17.6107343,153.621167 C14.0136421,166.251996 9.17651843,178.600835 5.07025528,191.089954 C7.01111181,193.514775 8.80179153,196.038364 10.3450371,198.733724 C25.6745141,160.994399 38.6841169,121.461508 34.433398,81.2644393 C31.5757477,54.2464324 21.05908,28.8831441 7.79346149,4.97703896 C6.57774443,3.35667425 5.35201558,1.74203521 4.1177052,0.134553253" id="path-5"></path>
    </defs>
    <g id="Artboard" stroke="none" stroke-width="1" fill="none" fill-rule="evenodd">
        <rect fill="#FFFFFF" x="0" y="0" width="800" height="500"></rect>
        <path d="M167.407687,35 L613.723275,35 C611.336609,47.593333 609.167276,60.2039994 612.953942,72.0786657 C620.004609,94.1906652 645.509941,106.555998 652.279274,128.754664 C658.311274,148.534664 647.551275,169.331997 635.600608,186.207996 C623.649942,203.085329 609.565942,220.186662 607.915276,240.799995 C606.505942,258.409328 614.573942,275.346661 623.767275,290.43066 C632.961942,305.51466 643.648608,320.109326 648.455275,337.107992 C653.261941,354.106659 650.688608,374.701325 636.903275,385.747991 C620.496609,398.891991 596.673942,393.565324 576.24061,388.618658 C555.80861,383.671991 530.617944,381.237325 517.227278,397.443991 C508.656611,407.815991 508.109945,422.526657 502.509945,434.75999 C491.333945,459.178656 460.425946,469.999989 434.12328,464.581323 C407.820614,459.161323 385.911281,440.86399 368.671282,420.27599 C351.429949,399.686658 337.709949,376.335991 320.391283,355.813325 C305.72995,338.439992 284.43795,322.022659 262.336618,327.342659 C242.517951,332.113326 229.196618,353.083992 209.043286,356.145325 C194.611419,358.338659 179.982753,350.205325 171.32702,338.450659 C162.670753,326.694659 159.162353,311.895993 157.860353,297.355993 C154.477554,259.589328 165.12542,220.726662 187.285286,189.957329 C198.972352,173.730663 214.631285,154.59333 206.560619,136.297331 C196.154086,112.702665 155.237954,114.837331 147.217687,90.329332 C144.08902,80.7679989 147.49102,70.3493324 151.74942,61.2359993 C156.069687,51.9890662 161.346753,43.2051998 167.407687,35" id="path22" fill="#D3E2F5" fill-rule="nonzero" transform="translate(400.004224, 250.474926) scale(1, -1) translate(-400.004224, -250.474926) "></path>
        <g id="2164247-(1)-copy" transform="translate(128.000000, 0.000000)">
            <g id="g10" transform="translate(272.500000, 233.500000) scale(-1, 1) rotate(-180.000000) translate(-272.500000, -233.500000) translate(0.000000, -0.000000)">
                <g id="g12" transform="translate(-0.000000, 0.000000)">
                    <path d="M32.2461409,28.2347091 C31.731678,28.2347091 31.2428167,28.4409764 30.8812482,28.8016936 C30.522111,29.1622677 30.3158682,29.6518125 30.3158682,30.1671228 L30.3544851,30.5407228 L30.4577496,30.9128914 L30.6371036,31.2363918 L30.8812482,31.5312638 L31.1784552,31.7774676 C31.2807185,31.8418814 31.3835538,31.9048638 31.5125629,31.9563948 L31.8724151,32.0594569 C32.1177039,32.1109879 32.3747208,32.1109879 32.6188654,32.0594569 C32.7484465,32.0351228 32.8635821,31.9950431 32.9797188,31.9563948 L33.3138265,31.7774676 L33.6098894,31.5312638 L33.854606,31.2363918 L34.0228041,30.9128914 L34.1379396,30.5407228 L34.1764135,30.1671228 C34.1764135,29.6518125 33.9708858,29.1622677 33.6098894,28.8016936 C33.2373078,28.4409764 32.7613188,28.2347091 32.2461409,28.2347091" id="path16" fill="#6A43A4" fill-rule="nonzero"></path>
                    <g id="g24" transform="translate(437.587806, 225.734551)">
                        <g id="g26-Clipped">
                            <mask id="mask-2" fill="white">
                                <use xlink:href="#path-1"></use>
                            </mask>
                            <g id="path28"></g>
                        </g>
                    </g>
                    <path d="M459.138894,261.587267 C457.336772,265.18442 455.86647,268.986265 454.600694,272.914075 C454.600694,272.9198 454.600694,272.924095 454.602124,272.92982 C455.8679,268.996285 457.336772,265.193008 459.140324,261.592993 C459.140324,261.591561 459.138894,261.588699 459.138894,261.587267" id="path40" fill="#A3B0C8" fill-rule="nonzero"></path>
                    <g id="g42" transform="translate(437.587806, 205.837846)">
                        <g id="g44-Clipped">
                            <mask id="mask-4" fill="white">
                                <use xlink:href="#path-3"></use>
                            </mask>
                            <g id="path46"></g>
                        </g>
                    </g>
                    <path d="M497.579868,282.271251 C497.578437,282.274114 497.577007,282.278408 497.575577,282.281271 C499.515003,284.706093 501.307113,287.231113 502.850359,289.927904 C502.851789,289.922178 502.853219,289.920747 502.854649,289.915021 C501.311404,287.219662 499.520724,284.696073 497.579868,282.271251" id="path74" fill="#A3B0C8" fill-rule="nonzero"></path>
                    <g id="g76" transform="translate(492.509612, 91.181298)">
                        <g id="g78-Clipped">
                            <mask id="mask-6" fill="white">
                                <use xlink:href="#path-5"></use>
                            </mask>
                            <g id="path80"></g>
                        </g>
                    </g>
                    <path d="M411.8475,3.44541929 L133.179405,3.44541929 C118.942643,3.44541929 107.400482,14.9958141 107.400482,29.2440016 L107.400482,405.104058 C107.400482,419.352388 118.942643,430.903928 133.179405,430.903928 L411.8475,430.903928 C426.084262,430.903928 437.624993,419.352388 437.624993,405.104058 L437.624993,29.2440016 C437.624993,14.9958141 426.084262,3.44541929 411.8475,3.44541929" id="path132" fill="#6A43A4" fill-rule="nonzero"></path>
                    <path d="M133.309228,3.44541929 L133.309228,3.44541929 C133.285228,3.44541929 133.261228,3.44541929 133.237228,3.44541929 C133.261228,3.44541929 133.285228,3.44541929 133.309228,3.44541929 M133.207895,3.44541929 C133.194562,3.44541929 133.181228,3.44541929 133.167895,3.44541929 C133.181228,3.44541929 133.194562,3.44541929 133.207895,3.44541929 M133.127895,3.44541929 C133.117228,3.44541929 133.106562,3.44541929 133.098562,3.44541929 C133.106562,3.44541929 133.119895,3.44541929 133.127895,3.44541929 M133.058562,3.44541929 C133.047895,3.44541929 133.037228,3.44541929 133.029228,3.44541929 C133.037228,3.44541929 133.047895,3.44541929 133.058562,3.44541929" id="path134" fill="#D8E6F6" fill-rule="nonzero"></path>
                    <path d="M176.463223,3.44541929 L133.179405,3.44541929 L133.179405,3.44541929 C133.166533,3.44541929 133.153661,3.44541929 133.140788,3.44541929 C133.135067,3.44541929 133.130776,3.44541929 133.125055,3.44541929 C133.117904,3.44541929 133.110753,3.44541929 133.103602,3.44541929 C133.09645,3.44541929 133.089299,3.44541929 133.082148,3.44541929 C133.077857,3.44541929 133.070706,3.44541929 133.066415,3.44541929 C133.057833,3.44541929 133.052112,3.44541929 133.044961,3.44541929 C133.03924,3.44541929 133.033519,3.44541929 133.029228,3.44541929 C133.020647,3.44541929 133.012065,3.44541929 133.003484,3.44541929 C133.002053,3.44541929 133.003484,3.44541929 133.002053,3.44541929 C127.066494,3.48678726 121.620081,5.55117771 117.280686,8.96195954 L121.864655,13.5497961 C125.048403,11.2450706 128.957291,9.88522388 133.179405,9.88522388 L182.897942,9.88522388 L176.463223,3.44541929 M431.190274,258.37946 L431.190274,323.126772 L437.624993,329.56672 L437.624993,264.819408 L431.190274,258.37946" id="path136" fill="#7C50AD" fill-rule="nonzero"></path>
                    <path d="M110.539893,33.9775565 C113.600639,71.1371571 112.533669,108.628847 107.400482,145.557989 L107.400482,160.330218 L113.835201,166.768735 L113.835201,37.2755426 L110.539893,33.9775565 M431.190274,354.888497 L431.190274,405.104058 C431.190274,415.77957 422.512915,424.46398 411.84607,424.46398 L371.319784,424.46398 L377.754503,430.903928 L411.8475,430.903928 C426.084262,430.903928 437.624993,419.352388 437.624993,405.104058 L437.624993,361.328445 L431.190274,354.888497" id="path138" fill="#7C50AD" fill-rule="nonzero"></path>
                    <path d="M411.84607,424.46398 L343.745891,424.46398 L343.745891,417.03206 C343.745891,412.239674 339.849875,408.341924 335.062811,408.341924 L209.962665,408.341924 C205.1756,408.341924 201.279584,412.239674 201.279584,417.03206 L201.279584,424.46398 L133.179405,424.46398 C122.512561,424.46398 113.835201,415.77957 113.835201,405.104058 L113.835201,29.2440016 C113.835201,18.568203 122.512561,9.88522388 133.179405,9.88522388 L411.84607,9.88522388 C422.512915,9.88522388 431.190274,18.568203 431.190274,29.2440016 L431.190274,405.104058 C431.190274,415.77957 422.512915,424.46398 411.84607,424.46398" id="path140" fill="#FFFFFF" fill-rule="nonzero"></path>
                    <path d="M169.410634,315.988293 L146.998532,315.988293 C137.827735,315.988293 130.366093,323.454567 130.366093,332.634248 L130.366093,355.064561 C130.366093,364.244242 137.827735,371.710517 146.998532,371.710517 L169.410634,371.710517 C178.582862,371.710517 186.044504,364.244242 186.044504,355.064561 L186.044504,332.634248 C186.044504,323.454567 178.582862,315.988293 169.410634,315.988293 M146.998532,360.118897 C144.213825,360.118897 141.948301,357.851532 141.948301,355.064561 L141.948301,332.634248 C141.948301,329.847278 144.213825,327.579912 146.998532,327.579912 L169.410634,327.579912 C172.195341,327.579912 174.460866,329.847278 174.460866,332.634248 L174.460866,355.064561 C174.460866,357.851532 172.195341,360.118897 169.410634,360.118897 L146.998532,360.118897" id="path148" fill="#E0E1DE" fill-rule="nonzero"></path>
                    <path d="M400.438353,358.73901 L203.894091,358.73901 C201.08793,358.73901 198.813824,361.014964 198.813824,363.821974 C198.813824,366.630416 201.08793,368.904938 203.894091,368.904938 L400.438353,368.904938 C403.243084,368.904938 405.51862,366.630416 405.51862,363.821974 C405.51862,361.014964 403.243084,358.73901 400.438353,358.73901" id="path150" fill="#E0E1DE" fill-rule="nonzero"></path>
                    <path d="M399.984962,338.404292 L203.4407,338.404292 C200.634539,338.404292 198.360433,340.680246 198.360433,343.488687 C198.360433,346.295697 200.634539,348.571651 203.4407,348.571651 L399.984962,348.571651 C402.791123,348.571651 405.065229,346.295697 405.065229,343.488687 C405.065229,340.680246 402.791123,338.404292 399.984962,338.404292" id="path152" fill="#E0E1DE" fill-rule="nonzero"></path>
                    <path d="M299.173413,318.071005 L203.894091,318.071005 C201.08793,318.071005 198.813824,320.346959 198.813824,323.153969 C198.813824,325.960979 201.08793,328.238364 203.894091,328.238364 L299.173413,328.238364 C301.979574,328.238364 304.25368,325.960979 304.25368,323.153969 C304.25368,320.346959 301.979574,318.071005 299.173413,318.071005" id="path154" fill="#E0E1DE" fill-rule="nonzero"></path>
                    <path d="M169.410634,233.625956 L146.998532,233.625956 C137.827735,233.625956 130.366093,241.09223 130.366093,250.271911 L130.366093,272.700793 C130.366093,281.880474 137.827735,289.34818 146.998532,289.34818 L169.410634,289.34818 C178.582862,289.34818 186.044504,281.880474 186.044504,272.700793 L186.044504,250.271911 C186.044504,241.09223 178.582862,233.625956 169.410634,233.625956 M146.998532,277.75656 C144.213825,277.75656 141.948301,275.487763 141.948301,272.700793 L141.948301,250.271911 C141.948301,247.484941 144.213825,245.216144 146.998532,245.216144 L169.410634,245.216144 C172.195341,245.216144 174.460866,247.484941 174.460866,250.271911 L174.460866,272.700793 C174.460866,275.487763 172.195341,277.75656 169.410634,277.75656 L146.998532,277.75656" id="path156" fill="#E0E1DE" fill-rule="nonzero"></path>
                    <path d="M400.438353,276.375242 L203.894091,276.375242 C201.08793,276.375242 198.813824,278.651196 198.813824,281.459638 C198.813824,284.266648 201.08793,286.542601 203.894091,286.542601 L400.438353,286.542601 C403.243084,286.542601 405.51862,284.266648 405.51862,281.459638 C405.51862,278.651196 403.243084,276.375242 400.438353,276.375242" id="path158" fill="#E0E1DE" fill-rule="nonzero"></path>
                    <path d="M399.984962,256.041956 L203.4407,256.041956 C200.634539,256.041956 198.360433,258.317909 198.360433,261.124919 C198.360433,263.933361 200.634539,266.209315 203.4407,266.209315 L399.984962,266.209315 C402.791123,266.209315 405.065229,263.933361 405.065229,261.124919 C405.065229,258.317909 402.791123,256.041956 399.984962,256.041956" id="path160" fill="#E0E1DE" fill-rule="nonzero"></path>
                    <path d="M299.173413,235.708669 L203.894091,235.708669 C201.08793,235.708669 198.813824,237.984623 198.813824,240.790201 C198.813824,243.598642 201.08793,245.874596 203.894091,245.874596 L299.173413,245.874596 C301.979574,245.874596 304.25368,243.598642 304.25368,240.790201 C304.25368,237.984623 301.979574,235.708669 299.173413,235.708669" id="path162" fill="#E0E1DE" fill-rule="nonzero"></path>
                    <path d="M169.410634,151.262188 L146.998532,151.262188 C137.827735,151.262188 130.366093,158.728462 130.366093,167.909575 L130.366093,190.337025 C130.366093,199.518138 137.827735,206.984412 146.998532,206.984412 L169.410634,206.984412 C178.582862,206.984412 186.044504,199.518138 186.044504,190.337025 L186.044504,167.909575 C186.044504,158.728462 178.582862,151.262188 169.410634,151.262188 M146.998532,195.394224 C144.213825,195.394224 141.948301,193.125427 141.948301,190.337025 L141.948301,167.909575 C141.948301,165.121173 144.213825,162.853808 146.998532,162.853808 L169.410634,162.853808 C172.195341,162.853808 174.460866,165.121173 174.460866,167.909575 L174.460866,190.337025 C174.460866,193.125427 172.195341,195.394224 169.410634,195.394224 L146.998532,195.394224" id="path164" fill="#E0E1DE" fill-rule="nonzero"></path>
                    <path d="M400.438353,194.012906 L203.894091,194.012906 C201.08793,194.012906 198.813824,196.28886 198.813824,199.097301 C198.813824,201.902879 201.08793,204.178833 203.894091,204.178833 L400.438353,204.178833 C403.243084,204.178833 405.51862,201.902879 405.51862,199.097301 C405.51862,196.28886 403.243084,194.012906 400.438353,194.012906" id="path166" fill="#E0E1DE" fill-rule="nonzero"></path>
                    <path d="M399.984962,173.679619 L203.4407,173.679619 C200.634539,173.679619 198.360433,175.955573 198.360433,178.762583 C198.360433,181.569593 200.634539,183.845547 203.4407,183.845547 L399.984962,183.845547 C402.791123,183.845547 405.065229,181.569593 405.065229,178.762583 C405.065229,175.955573 402.791123,173.679619 399.984962,173.679619" id="path168" fill="#E0E1DE" fill-rule="nonzero"></path>
                    <path d="M299.173413,153.344901 L203.894091,153.344901 C201.08793,153.344901 198.813824,155.619423 198.813824,158.427864 C198.813824,161.234874 201.08793,163.51226 203.894091,163.51226 L299.173413,163.51226 C301.979574,163.51226 304.25368,161.234874 304.25368,158.427864 C304.25368,155.619423 301.979574,153.344901 299.173413,153.344901" id="path170" fill="#E0E1DE" fill-rule="nonzero"></path>
                    <path d="M169.410634,68.8998514 L146.998532,68.8998514 C137.827735,68.8998514 130.366093,76.3661255 130.366093,85.5458065 L130.366093,107.974689 C130.366093,117.155801 137.827735,124.622075 146.998532,124.622075 L169.410634,124.622075 C178.582862,124.622075 186.044504,117.155801 186.044504,107.974689 L186.044504,85.5458065 C186.044504,76.3661255 178.582862,68.8998514 169.410634,68.8998514 M146.998532,113.030456 C144.213825,113.030456 141.948301,110.76309 141.948301,107.974689 L141.948301,85.5458065 C141.948301,82.7588365 144.213825,80.4900396 146.998532,80.4900396 L169.410634,80.4900396 C172.195341,80.4900396 174.460866,82.7588365 174.460866,85.5458065 L174.460866,107.974689 C174.460866,110.76309 172.195341,113.030456 169.410634,113.030456 L146.998532,113.030456" id="path172" fill="#E0E1DE" fill-rule="nonzero"></path>
                    <path d="M400.438353,111.650569 L203.894091,111.650569 C201.08793,111.650569 198.813824,113.926523 198.813824,116.733533 C198.813824,119.540543 201.08793,121.816497 203.894091,121.816497 L400.438353,121.816497 C403.243084,121.816497 405.51862,119.540543 405.51862,116.733533 C405.51862,113.926523 403.243084,111.650569 400.438353,111.650569" id="path174" fill="#E0E1DE" fill-rule="nonzero"></path>
                    <path d="M399.984962,91.3158508 L203.4407,91.3158508 C200.634539,91.3158508 198.360433,93.5932362 198.360433,96.3988147 C198.360433,99.2058246 200.634539,101.48321 203.4407,101.48321 L399.984962,101.48321 C402.791123,101.48321 405.065229,99.2058246 405.065229,96.3988147 C405.065229,93.5932362 402.791123,91.3158508 399.984962,91.3158508" id="path176" fill="#E0E1DE" fill-rule="nonzero"></path>
                    <path d="M299.173413,70.982564 L203.894091,70.982564 C201.08793,70.982564 198.813824,73.2585179 198.813824,76.0655278 C198.813824,78.8725377 201.08793,81.1484917 203.894091,81.1484917 L299.173413,81.1484917 C301.979574,81.1484917 304.25368,78.8725377 304.25368,76.0655278 C304.25368,73.2585179 301.979574,70.982564 299.173413,70.982564" id="path178" fill="#E0E1DE" fill-rule="nonzero"></path>
                    <path d="M158.205298,365.915062 C156.800788,362.650821 146.701206,370.439218 141.948301,373.900064 C137.195396,377.36091 128.55539,372.793023 138.791727,365.915062 C149.028065,359.0371 159.53043,344.048372 166.342736,363.821974 C173.155043,383.595577 187.030665,397.833321 183.8934,400.033732 C178.891797,404.001269 159.609809,369.179302 158.205298,365.915062 Z" id="path206" fill="#1F335D" fill-rule="nonzero"></path>
                    <path d="M160.507601,183.142319 C159.10309,179.878078 149.003508,187.666475 144.250604,191.127321 C139.497699,194.588167 130.857692,190.02028 141.09403,183.142319 C151.330368,176.264357 161.832733,161.275629 168.645039,181.049232 C175.457345,200.822834 189.332968,215.060579 186.195703,217.260989 C181.1941,221.228526 161.912112,186.406559 160.507601,183.142319 Z" id="path206-copy-2" fill="#1F335D" fill-rule="nonzero"></path>
                    <path d="M157.289526,100.477951 C155.885016,97.2137105 145.785434,105.002108 141.032529,108.462953 C136.279624,111.923799 127.639618,107.355913 137.875955,100.477951 C148.112293,93.5999895 158.614658,78.6112611 165.426964,98.3848637 C172.239271,118.158466 186.114893,132.396211 182.977628,134.596621 C177.976025,138.564158 158.694037,103.742192 157.289526,100.477951 Z" id="path206-copy-3" fill="#1F335D" fill-rule="nonzero"></path>
                    <polyline id="path208" fill="#ED4BAE" fill-rule="nonzero" points="26.3949662 22.8880781 32.285902 36.9320024 43.4659221 30.4147581 34.1702634 18.35621 26.3949662 22.8880781"></polyline>
                    <polygon id="path210" fill="#1C5FA4" fill-rule="nonzero" points="90.8352643 31.1476439 109.071021 31.1476439 106.294513 13.481088 93.6132104 13.481088"></polygon>
                    <path d="M30.4365818,171.62124 C31.7970407,169.05614 30.0069331,165.025268 27.6789064,163.291821 C25.3501646,161.558375 21.7683761,161.810304 19.7046606,163.851506 C18.1084956,165.430359 17.4977766,167.75355 17.2659322,169.989424 C16.6424839,176.00281 18.3632241,182.228045 21.986347,187.064805 C21.9254181,188.587833 22.7276484,190.29122 24.2478668,190.378536 C25.766941,190.46299 28.3275272,188.125485 28.8381284,186.691205 C30.5705967,181.822954 32.3053534,176.436529 30.4365818,171.62124 Z" id="path212" fill="#F0AD95" fill-rule="nonzero"></path>
                    <path d="M77.9872808,309.588425 C75.7374891,312.816271 75.9620392,317.299471 77.6697641,320.843661 C79.377489,324.389283 82.3452689,327.156213 85.4203179,329.609662 C88.495367,332.063112 91.7677912,334.314732 94.4109032,337.229098 C99.220852,342.5325 101.622251,349.944381 100.83561,357.06282 C100.446581,360.592696 99.1622115,364.244242 96.3374571,366.394232 C91.9251193,369.749475 85.2515478,368.166327 81.1481451,364.440347 C77.0447425,360.712935 74.840719,355.39665 72.5494499,350.348041 C70.2567505,345.297999 67.5507074,340.100522 62.8937959,337.094545 C60.0289944,335.245154 56.6242715,334.369126 53.7530338,332.528323 C47.6711589,328.629141 44.9257838,320.235309 47.5287055,313.4919 C44.9402293,310.961154 44.3821437,306.668333 45.789515,303.330267 C47.1963142,299.995064 50.130483,297.494377 53.3591415,295.86113 C59.5112419,292.746365 67.0401062,292.49873 73.384719,295.196952 C72.1060707,298.413348 72.785442,303.155634 75.4185421,305.398665 C76.6685853,306.46364 78.1088525,307.949452 77.9872808,309.588425" id="path214" fill="#1F335D" fill-rule="nonzero"></path>
                    <path d="M143.055318,360.745858 C142.368796,364.081061 144.788788,368.406805 148.1599,368.860564 C150.315295,369.149711 152.759601,368.026048 153.406077,365.949061 C153.783664,364.735219 153.520497,363.421177 153.180096,362.197315 C151.758422,357.087155 149.018053,352.350594 145.297959,348.571651 C144.037904,349.363225 142.119931,350.332295 141.316128,351.586217 C139.466808,354.470523 140.277763,358.741873 143.055318,360.745858 Z" id="path216" fill="#F0AD95" fill-rule="nonzero"></path>
                    <path d="M30.3717912,181.771422 C33.473586,205.458521 44.8112203,227.983308 61.9827232,244.577732 C66.44512,248.892025 71.2965462,252.82556 75.3541806,257.522041 C79.4103849,262.221385 82.6971117,267.865465 83.2720744,274.049189 C83.5581254,277.138188 83.1147463,280.393232 81.4170331,282.988392 C79.7207503,285.584983 76.6113751,287.374255 73.5420471,286.940536 C64.0294187,285.595003 56.0269968,278.542409 49.8405703,271.186354 C30.4410156,248.120491 19.7705954,217.873206 20.4007659,187.728983 C23.6267069,184.597041 26.041264,182.979539 30.3717912,181.771422" id="path218" fill="#F8A023" fill-rule="nonzero"></path>
                    <path d="M34.1764135,18.35621 C30.0057889,19.6616629 28.2666309,18.1371527 25.2188997,21.2705258 C29.8041554,46.3002937 55.8224703,86.1298249 57.8192498,111.495976 C58.8833598,125.009989 55.3476255,138.400901 53.6507706,151.849069 C51.9540586,165.295806 48.0079841,185.503128 55.9224452,196.502141 C67.7251985,190.32128 82.104986,175.580541 88.9644907,164.150672 C91.2357362,160.367435 93.1837441,156.309366 93.9374886,151.959288 C94.6912332,147.60921 91.1885378,146.57859 90.8538581,142.176981 C87.778809,101.67502 61.146739,48.70942 34.1764135,18.35621 Z" id="path222" fill="#1C5FA4" fill-rule="nonzero"></path>
                    <path d="M53.2697506,154.741964 C53.2693215,154.743396 53.2693215,154.743396 53.2693215,154.743396 C53.1251517,155.805507 52.9742598,156.897679 52.8217946,158.015616 C52.8227958,158.015616 52.8217946,158.017048 52.8223667,158.015616 C52.9748319,156.897679 53.1257238,155.804076 53.2697506,154.741964" id="path226" fill="#BFC0BE" fill-rule="nonzero"></path>
                    <path d="M52.8223667,158.015616 C52.8217946,158.017048 52.8227958,158.015616 52.8217946,158.015616 C52.6463022,159.305323 52.4686645,160.630816 52.2987502,161.974917 C52.4692366,160.629385 52.6463022,159.306755 52.8223667,158.015616" id="path228" fill="#A3B0C8" fill-rule="nonzero"></path>
                    <path d="M97.6046634,196.646714 C111.207822,141.306679 115.387028,83.6577667 109.90915,26.9308308 L91.3558777,26.9308308 C86.1983768,47.6891055 81.5271628,70.6347295 81.7316893,92.0258339 C81.8589821,105.267878 84.03154,118.774734 80.6718701,131.58449 C77.6797759,142.991457 70.5671159,152.779491 64.6601613,162.986929 C58.7546369,173.192937 53.8402794,184.893344 55.9224452,196.502141 C69.7118232,199.825893 83.8198622,199.990506 97.6046634,196.646714" id="path232" fill="#1C5FA4" fill-rule="nonzero"></path>
                    <path d="M48.1152532,175.133939 C63.9478941,170.527637 86.9878778,183.583597 102.477543,189.237697 C101.241803,205.630291 97.5474532,222.790125 96.3102823,239.184151 C94.9715633,256.930866 93.1765928,275.881403 82.0005773,289.723211 C77.4638073,295.338663 67.0973164,292.113679 61.6480435,287.378549 C56.2007729,282.64342 53.2022425,275.713927 50.9741907,268.845986 C42.2563551,241.966826 40.5456267,202.359502 48.1152532,175.133939" id="path242" fill="#F8A023" fill-rule="nonzero"></path>
                    <path d="M96.3817951,238.415479 C96.3775043,238.418342 96.3732135,238.419774 96.3689228,238.422636 C96.3488992,238.677429 96.3288756,238.93079 96.3102823,239.184151 C96.3288756,238.929358 96.3603412,238.670272 96.3817951,238.415479" id="path244" fill="#A3B0C8" fill-rule="nonzero"></path>
                    <path d="M66.7826602,288.293225 C70.3954853,287.305547 74.2929312,285.9457 77.9686875,286.67286 C79.0556815,294.17492 79.3817798,301.987597 79.0256462,309.559796 C75.439996,310.700636 72.6481375,310.782227 68.9080197,310.359959 C67.6193596,303.075475 66.9085227,295.68936 66.7826602,288.293225 Z" id="path248" fill="#F0AD95" fill-rule="nonzero"></path>
                    <path d="M68.9080197,310.359959 C69.312782,310.405764 69.7061022,310.444412 70.0908409,310.478766 C69.7061022,310.444412 69.312782,310.405764 68.9080197,310.359959" id="path250" fill="#1A2848" fill-rule="nonzero"></path>
                    <path d="M87.0694024,303.902834 C85.2343847,300.448823 81.9190528,297.895174 78.184656,296.738589 C72.7339528,295.05381 66.44512,295.895484 61.931234,299.388143 C57.4173481,302.87937 55.0017898,309.074546 56.4459186,314.598386 C57.8907626,320.122227 64.2139216,327.419594 69.2326877,324.702763 C77.445214,320.258211 83.9257011,312.700327 87.0694024,303.902834 Z" id="path254" fill="#F0AD95" fill-rule="nonzero"></path>
                    <path d="M147.856686,350.980727 C143.428615,334.011272 138.037983,317.157761 129.636663,301.765728 C121.235343,286.372263 109.644553,272.415941 94.7226988,263.21622 C90.0743689,260.349091 85.0327187,257.928564 79.6249232,257.168481 C74.2185579,256.411261 68.3802555,257.481962 64.1710139,260.961738 C59.9632026,264.442945 54.9347108,272.277094 58.0895681,276.73596 C62.0399334,282.31992 69.0653478,284.585854 75.4185421,287.108011 C105.09205,298.882853 129.266226,323.82101 140.127586,353.862171 L147.856686,350.980727" id="path256" fill="#F8A023" fill-rule="nonzero"></path>
                    <path d="M77.0046953,319.748627 C76.504106,319.133117 75.8333162,318.683652 75.1539449,318.274267 C71.5096542,316.079903 67.3089942,314.815962 63.0582753,314.637034 C64.5357291,312.61301 64.8360827,309.695781 64.2096308,307.268097 C65.5683734,306.180219 61.9369551,305.87819 61.3105032,305.334252 C60.8428097,304.92916 60.7512734,304.210589 60.9457881,303.623708 C61.1417331,303.038258 61.5722399,302.561596 62.0284914,302.143622 C63.3800827,300.904014 65.056342,300.017967 66.8413007,299.598561 C67.3819372,297.919508 67.2017251,295.972781 66.9414186,294.227883 C62.0098981,295.431705 55.9689285,297.756327 53.384314,302.127876 C51.6384013,305.080891 51.6026449,308.720986 51.8769679,312.139211 C52.2720044,317.044679 53.2871997,322.101877 56.2594133,326.021099 C59.2323422,329.941751 64.5929393,332.385181 69.2140944,330.70756 C72.8598153,329.383498 77.047603,325.78062 77.6883574,321.951578 C77.8199409,321.170024 77.5052847,320.362705 77.0046953,319.748627 Z" id="path258" fill="#1F335D" fill-rule="nonzero"></path>
                    <path d="M95.1789413,2.19356168 C103.00363,-0.299783973 120.2991,0.794375356 125.19715,3.44541929 C130.0952,6.09646323 109.951383,12.3209573 106.310628,13.481088 C102.669872,14.6412187 93.7029268,13.481088 93.7029268,13.481088 C90.735862,8.46325365 87.3542525,4.68690732 95.1789413,2.19356168 Z" id="path268" fill="#C3C5C2" fill-rule="nonzero"></path>
                    <path d="M38.5395616,20.4566781 L32.2461409,22.3135787 C28.2307015,23.2903605 25.8882878,22.9426762 25.2188997,21.2705258 C24.4486449,19.3464075 18.2003342,11.5352344 24.1918435,8.49760767 C27.2594782,6.94235199 36.8590194,5.94533741 52.9904669,5.50656395 C54.6206487,5.50656395 55.837133,6.17280043 56.6399199,7.50527338 C57.4427068,8.83774634 57.0413134,10.2732524 55.4357396,11.8117917 L38.5395616,20.4566781 Z" id="path270" fill="#C3C5C2" fill-rule="nonzero"></path>
                    <path d="M332.492642,18.35621 L212.534264,18.35621 C210.348833,18.35621 208.579608,20.1287344 208.579608,22.3145091 C208.579608,24.5001406 210.348833,26.2709473 212.534264,26.2709473 L332.492642,26.2709473 C334.676642,26.2709473 336.445868,24.5001406 336.445868,22.3145091 C336.445868,20.1287344 334.676642,18.35621 332.492642,18.35621" id="path272" fill="#C3C5C2" fill-rule="nonzero"></path>
                </g>
            </g>
        </g>
    </g>
</svg>