<svg xmlns="http://www.w3.org/2000/svg" viewBox="0 0 458.79 281.02"><defs><style>.cls-1{fill:#2f3552;}.cls-2{fill:#50566e;}.cls-3{fill:#fcecdb;}.cls-4{fill:#a8d2a0;}.cls-5{fill:#83b37a;}.cls-6{fill:#2d3b66;}.cls-7{fill:#f8e8d8;}.cls-8{fill:#fbebda;}.cls-9{fill:#2d478b;}.cls-10{fill:#f99746;}.cls-11{fill:#feb27e;}.cls-12{fill:#2e3b64;}.cls-13{fill:#84b47b;}.cls-14{fill:#ffb27e;}.cls-15{fill:#ed7e2c;}.cls-16{fill:#fcebda;}.cls-17{fill:#ed9960;}.cls-18{fill:#fbebdb;}.cls-19{fill:#323e67;}.cls-20{fill:#323f67;}.cls-21{fill:#333f67;}.cls-22{fill:#344068;}.cls-23{fill:#354169;}.cls-24{fill:#313d66;}.cls-25{fill:#38446b;}.cls-26{fill:#f3e5d6;}</style></defs><title>thought_bubblesAsset 1</title><g id="Layer_2" data-name="Layer 2"><g id="Layer_1-2" data-name="Layer 1"><g id="Desktop---Values"><g id="Desktop---Screen-4.1"><g id="woman"><path class="cls-1" d="M.52,279.74c.43,0,.86-.07,1.29-.07H117.35c.39,0,.77,0,1.16,0H377.29c.47,0,.94-.06,1.42-.09.3,0,.6.05.9.05l78.25,0c.22,0,.43,0,.65,0l.25.06v.77a15.27,15.27,0,0,1-2,.25H.62Z"/><path class="cls-2" d="M.52,279.74l.1,1H456.74a15.27,15.27,0,0,0,2-.25c-.1.17.26.55-.25.53-.31,0-.61,0-.91,0H0v-1.29Z"/><path class="cls-3" d="M125.52,266.61a27.06,27.06,0,0,1,3.09-7.48,58.64,58.64,0,0,1,5.32-7.58c1.12-1.37,2.36-2.63,3.58-3.89,1.59-1.64,3.18-3.29,4.86-4.84,2.2-2,4.48-4,6.73-6,.74-.66,1.5-1.29,2.22-2,3-2.76,6-5.45,8.81-8.33a36.88,36.88,0,0,0,7.17-9.71,16,16,0,0,0,1.64-8.63,15.58,15.58,0,0,0-2.18-6.4,51,51,0,0,1-6-15.17c-.42-1.91-.55-3.89-.86-5.83a47.56,47.56,0,0,1-.19-9.54,57,57,0,0,1,1.09-7.88,54.7,54.7,0,0,1,3.26-10.83A66.32,66.32,0,0,1,171.55,139a62.72,62.72,0,0,1,8.63-9.56,51.15,51.15,0,0,1,9.26-6.72,50.45,50.45,0,0,1,9.62-4.36,58.78,58.78,0,0,1,9.49-2.26,60.53,60.53,0,0,1,12.1-.4,55.7,55.7,0,0,1,12.5,2.23,72.48,72.48,0,0,1,9.83,3.45,41.71,41.71,0,0,1,9.58,5.78,37.3,37.3,0,0,1,7.52,8.1,40.16,40.16,0,0,1,4.36,8.47c1.33,3.72,2.61,7.46,3.9,11.19a74.69,74.69,0,0,0,4.53,11,32.17,32.17,0,0,0,8.18,10,40.51,40.51,0,0,0,11.81,6.48A68.31,68.31,0,0,0,307,185.8c2.12.29,4.24.57,6.37.77,2.43.22,4.88.27,7.31.54,4.25.46,8.52.08,12.77.25,2,.09,4,.31,6,.49s4.11.25,6.14.58c2.66.44,5.29,1.06,7.92,1.65a70.53,70.53,0,0,1,12.06,4.1,3.61,3.61,0,0,1,.6.45c-1.19,1.3-2.39,2.58-3.57,3.89A13.62,13.62,0,0,0,359.2,208a13.9,13.9,0,0,0,2.08,7.09,29.94,29.94,0,0,0,11,10.61c-.23,2.17-.35,4.36-.73,6.51a44.55,44.55,0,0,1-4.36,12.5c-1,1.95-2.06,3.88-2.88,5.91a35.56,35.56,0,0,0-2.52,12.57l-.05,0-1.05,0,0,0c-.71-1.65-1.31-3.37-2.16-4.95A32.75,32.75,0,0,1,354.21,243c1.36-1,2.8-1.88,4.05-3a16.43,16.43,0,0,0,5.32-7.64,10.3,10.3,0,0,0-1.74-9.64,29.86,29.86,0,0,0-5.77-5.51,18.81,18.81,0,0,0-5.36-2.93,4.44,4.44,0,0,0-.07.82c.25,1.83.48,3.66.79,5.48a36.15,36.15,0,0,1,.44,7.84,9,9,0,0,1-.55,2.49,1.33,1.33,0,0,1-.82.67c-.48.13-.81-.21-1-.64a7.94,7.94,0,0,1-.45-1.2,28.15,28.15,0,0,1-.79-6.77c0-3.15,0-6.3,0-9.45a1.44,1.44,0,0,0-1-1.58c-1.51-.62-3-1.33-4.5-2a72.71,72.71,0,0,0-12.32-4.19,10.23,10.23,0,0,0-4.15-.25c.26.52.46,1,.67,1.36,1.53,2.89,3.1,5.76,4.57,8.69a43.51,43.51,0,0,1,1.67,4.19c.2.55.55,1.21-.08,1.67s-1.15,0-1.58-.45a39.32,39.32,0,0,1-3.77-3.87c-2.73-3.54-5.4-7.14-7.92-10.84-1-1.46-2-2.41-3.82-2.15a1.72,1.72,0,0,1-.39,0,21.24,21.24,0,0,0-10.77,1.23,8,8,0,0,0-5.36,6.14l-.51,2.79a13.65,13.65,0,0,0,.6,7.36c1,2.65,2.59,4.65,5.74,4.78s6.1.32,9.14.53c1.45.1,2.9.3,4.35.5a6,6,0,0,1,1.61.41c.74.33.77.88.15,1.38a6.2,6.2,0,0,1-1,.63,22,22,0,0,1-9.27,2.49c-1.91.11-3.84-.07-5.88-.12.73,1.41,1.44,2.87,2.23,4.3a27.88,27.88,0,0,0,6.47,8.28,8.35,8.35,0,0,0,5.89,2.26,14,14,0,0,0,5.25-1.21c1.81-.88,3.56-1.89,5.36-2.82A30,30,0,0,1,334,241c2-.67,4.18-.34,6.28-.22a5,5,0,0,1,1.73.49c.32.14.77.52.75.76a1.53,1.53,0,0,1-.69,1,3.27,3.27,0,0,1-1.31.5c-1.53.23-3.08.36-4.6.59-1.91.3-3.82.59-5.7,1-2.68.58-4.63,2.39-6.59,4.14a11.08,11.08,0,0,0-1.55,1.73,1.41,1.41,0,0,0,.5,2.35,6.19,6.19,0,0,0,.95.41,25.2,25.2,0,0,0,7.82,1.44,37.17,37.17,0,0,0,10.78-.76c3.51-.82,6.93-1.89,9-5.18a20.19,20.19,0,0,1,2.17,2.66q2,3.52,3.73,7.19a38.53,38.53,0,0,1,1.49,4.23c-.47,0-.94,0-1.41,0q-10.8,0-21.59,0H294.44c-.51,0-1,0-1.54-.05a61.05,61.05,0,0,0-.55-11.14c-.07-.46-.14-.93-.2-1.39-.46-3.23-.84-6.47-1.38-9.68-.8-4.86-1.61-9.73-2.61-14.56-1.33-6.47-2.73-12.93-4.29-19.35s-3.3-12.72-5.05-19c-.69-2.53-1.65-5-2.44-7.48a4.08,4.08,0,0,0-2.2-2.55c-1.25-.59-2.47-1.23-3.73-1.78-1.52-.68-3.08-1.29-4.61-1.92a58.81,58.81,0,0,0-.19-15.74,26.71,26.71,0,0,0-.46-11.15c-.93-3.54-2.82-6.41-6.2-8a50.15,50.15,0,0,1-4.45-2.59c-1.59-1-3.17-1.93-4.8-2.8a35.15,35.15,0,0,0-12.13-4.23c-4.5-.56-8.5.35-11.45,4.13,0,0-.14.06-.21.09s-.1,0-.12-.06l-.56-.7a11.6,11.6,0,0,0-7-4.36,17.93,17.93,0,0,0-9.54.78l-3.35,1.15.07.2,4.85-1.11h3l1,.23.08,0c-.33.56-.85.26-1.28.26a11.37,11.37,0,0,0-4.41.53.32.32,0,0,0-.14,0l-.64.22a6.18,6.18,0,0,0-4.18,4.84,19.26,19.26,0,0,0-.11,7.18,9.48,9.48,0,0,0,2.6,5.51c1.2,1.23,2.42,2.44,3.72,3.57a14.59,14.59,0,0,0,2.38,1.52,3.1,3.1,0,0,0,3.09,0c.61-.3,1.21-.61,1.92-1,0,.32,0,.53,0,.73a27.31,27.31,0,0,0,.36,8.22,23,23,0,0,0,6.29,12.2,12.14,12.14,0,0,0,5.3,3.34,4.5,4.5,0,0,0,4.39-.68,2.47,2.47,0,0,1,2.79-.28,13.65,13.65,0,0,1,1.73,1.1,13.16,13.16,0,0,1-.11,1.42c-.93,5.1-2.25,10.07-5.15,14.47-3.87,0-7.75-.12-11.63-.11a42.39,42.39,0,0,0-4.63.33,8.69,8.69,0,0,0-4.83,1.94c-1.27,1.11-2.58,2.16-3.77,3.34a94.14,94.14,0,0,0-11.48,14.6,224.53,224.53,0,0,0-19.32,35.29,60,60,0,0,0-4,11.58,21.76,21.76,0,0,0-.23,2.38l1.16.47c-.81,0-1.63.05-2.44.05l-35.22,0c-.64,0-1.28.08-1.92.13-1.34.24-2.7.4-4,.72A18,18,0,0,0,125.52,266.61Z"/><path class="cls-4" d="M372.28,225.7a29.94,29.94,0,0,1-11-10.61A13.9,13.9,0,0,1,359.2,208a13.62,13.62,0,0,1,3.37-9.48c1.18-1.31,2.38-2.59,3.57-3.89,1.35-1.06,2.68-2.13,4-3.18a26.18,26.18,0,0,1,5.46-3.13c.38-.16.8-.27,1.39-.47-.12.9-.2,1.64-.31,2.38-.41,2.79-.84,5.57-1.24,8.37a11.07,11.07,0,0,0,0,1.41c-.09,2.14-.24,4.27-.26,6.41a7.31,7.31,0,0,0,.88,3.71,1.14,1.14,0,0,0,2.13.07,6,6,0,0,0,.59-1.29,22.53,22.53,0,0,0,1-6c.52-5.76.23-11.53.24-17.47,1.48-.68,3.05-1.47,4.68-2.13,3.87-1.56,7.75-3.12,11.67-4.55a47.57,47.57,0,0,1,9.47-2.44,23.51,23.51,0,0,1,3.16,0c-.58,1.05-1.13,2-1.62,3-2.23,4.38-4.48,8.74-6.64,13.15a23,23,0,0,0-1.16,3.55,2.3,2.3,0,0,0-.05,1,.71.71,0,0,0,1.05.58,9.87,9.87,0,0,0,2.14-1.4,54.76,54.76,0,0,0,7.59-8.78c2.79-3.82,5.48-7.72,8.18-11.61a2.22,2.22,0,0,1,1.9-1.08c1.72-.09,3.42-.38,5.14-.42a38.26,38.26,0,0,1,5,.23,23.35,23.35,0,0,1,6.26,1.5c3,1.22,5.49,3.1,6.73,6.21a27.34,27.34,0,0,1,1.18,4.48,20.24,20.24,0,0,1,.46,3.71c0,4.08-.66,8-3.48,11.19a5.65,5.65,0,0,1-4.12,2.12c-3.05.13-6.1.28-9.15.54-3.59.3-7.21.33-10.74,1.21l-.13,0c-.67.24-1.62.23-1.74,1.09s.71,1.29,1.32,1.61a28.06,28.06,0,0,0,4,1.79,40.44,40.44,0,0,0,8.81,1.81,28.82,28.82,0,0,0,7.55-.46,7,7,0,0,1-.25.88,51.13,51.13,0,0,1-7.77,12.74,18.19,18.19,0,0,1-7.32,5.59,10,10,0,0,1-4.83.51,28.16,28.16,0,0,1-11.83-4.53c-1.56-1-3.16-1.94-4.81-2.77a9.69,9.69,0,0,0-5.11-1.13c-1.79.08-3.6.08-5.39.27a7.76,7.76,0,0,0-2.53.87c-.77.39-.83,1-.11,1.51a7.32,7.32,0,0,0,2.68,1.15c2.45.39,4.93.59,7.4.87,1.21.22,2.41.47,3.63.66a17.12,17.12,0,0,1,9.42,4.69c.89.86,1.88,1.63,2.75,2.53,2,2.11,1.77,3.6-1,4.58-1.84.66-3.81,1-5.72,1.47a48.83,48.83,0,0,1-7.25.53c-1.46-.06-2.91,0-4.37,0-1.27,0-2.55-.15-3.82-.23a5.49,5.49,0,0,0-2.88-.47,2.13,2.13,0,0,0-.41-.28q-2.91-.91-5.83-1.8c-.52-.15-1.07-.22-1.61-.33a4.06,4.06,0,0,0-.73-.81,11.17,11.17,0,0,1-3.59-3.42c-.12-.19-.39-.28-.59-.42a12.77,12.77,0,0,0-.22-1.51,8.22,8.22,0,0,1-.22-3.45,16.91,16.91,0,0,1,2.81-6.72,39.42,39.42,0,0,1,8-8.55,92,92,0,0,1,10.34-7.43,169.49,169.49,0,0,1,19-10.3q5.81-2.62,11.61-5.28c.85-.39,1.68-.83,2.52-1.25l1.09-.27-.12-.31-1,.57a12.54,12.54,0,0,0-1.74.39c-3.95,1.55-7.92,3.08-11.84,4.73s-7.68,3.24-11.4,5.1q-6.46,3.21-12.7,6.86A62,62,0,0,0,377,218.07,20.24,20.24,0,0,0,372.28,225.7Z"/><path class="cls-5" d="M391.34,241.44c1.27.08,2.55.19,3.82.23,1.46,0,2.91,0,4.37,0a48.83,48.83,0,0,0,7.25-.53c-.92,1-1.88,2-2.74,3.08-.44.54-1,1.07-.87,1.95a2.37,2.37,0,0,0,2.21-.25c1.83-.95,3.68-1.9,5.41-3,2.72-1.74,5.37-3.59,8-5.46a2,2,0,0,1,1.8-.4,24.89,24.89,0,0,1,7.75,3.12,15.56,15.56,0,0,1,1.83,1.43,7.05,7.05,0,0,1,2.48,6.1,14.38,14.38,0,0,1-3,8.24,9.48,9.48,0,0,1-1.2,1.17,4.7,4.7,0,0,1-4.8,1c-2.82-.93-5.68-1.73-8.53-2.56-.95-.27-1.93-.44-2.9-.63a3,3,0,0,0-.9,0c-.65.06-.86.4-.56,1a4.67,4.67,0,0,0,.84,1.14,20.09,20.09,0,0,0,10.51,5.69,2.12,2.12,0,0,1,.42.16,2,2,0,0,1-.24.44,32,32,0,0,1-8,6.24,10.67,10.67,0,0,1-6.47,1.36c-1.28-.69-2.61-1.3-3.82-2.09a15.87,15.87,0,0,1-4.27-4.45,11.28,11.28,0,0,0-7.71-4.94,7.11,7.11,0,0,0-1.66-.12,1.18,1.18,0,0,0-.82.46c-.09.15.09.61.28.77a12.55,12.55,0,0,0,2,1.42q2.14,1.19,4.37,2.23c3.41,1.6,5.4,4.43,6.83,7.76a2.69,2.69,0,0,1,.19.74c.14,1.08-.21,1.58-1.29,1.63a15.73,15.73,0,0,1-3.22-.12,33.54,33.54,0,0,1-11.13-4c-3-1.72-5.87-3.64-6.87-7.45a7.71,7.71,0,0,0-1.41.71c-1.5,1.22-3,2.49-4.44,3.74l-1.08.9-.88-.7a3.29,3.29,0,0,0,.54-.34,29.13,29.13,0,0,0,6.53-9,1.42,1.42,0,0,0-.21-1.65,18.78,18.78,0,0,1-3.61-7.77,9.06,9.06,0,0,1,4.51-10.07c.54.11,1.09.18,1.61.33q2.92.88,5.83,1.8a2.13,2.13,0,0,1,.41.28c-.7,1.7-1.45,3.39-2.09,5.11a7.3,7.3,0,0,0-.33,2.14c0,.33.21.9.41.94a1.52,1.52,0,0,0,1.11-.35,3.86,3.86,0,0,0,.88-1.08A29.64,29.64,0,0,0,391.34,241.44Z"/><path class="cls-6" d="M125.52,266.61a18,18,0,0,1,5-2.49c1.33-.32,2.69-.48,4-.72H157a17.85,17.85,0,0,0-11.06,7.94,15.47,15.47,0,0,0-2.57,8.36H118.51c.11-.58.23-1.15.33-1.73a17.08,17.08,0,0,1,6-10.75C125.09,267,125.3,266.81,125.52,266.61Z"/><path class="cls-7" d="M373.73,268.12l1.08-.9c1.48-1.25,2.94-2.52,4.44-3.74a7.71,7.71,0,0,1,1.41-.71c1,3.81,3.86,5.73,6.87,7.45a33.54,33.54,0,0,0,11.13,4,15.73,15.73,0,0,0,3.22.12c1.08-.05,1.43-.55,1.29-1.63a2.69,2.69,0,0,0-.19-.74c-1.43-3.33-3.42-6.16-6.83-7.76q-2.22-1.05-4.37-2.23a12.55,12.55,0,0,1-2-1.42c-.19-.16-.37-.62-.28-.77a1.18,1.18,0,0,1,.82-.46,7.11,7.11,0,0,1,1.66.12,11.28,11.28,0,0,1,7.71,4.94A15.87,15.87,0,0,0,404,268.8c1.21.79,2.54,1.4,3.82,2.09-.17.2-.5.41-.5.62,0,2.58,0,5.16,0,7.87.65,0,1.19.06,1.74.06h48a11.12,11.12,0,0,1,1.49.21c-.22,0-.43,0-.65,0l-78.25,0c-.3,0-.6,0-.9-.05A17.28,17.28,0,0,0,374,268.56,2.09,2.09,0,0,1,373.73,268.12Z"/><path class="cls-8" d="M379.83,202.87a22.53,22.53,0,0,1-1,6,6,6,0,0,1-.59,1.29,1.14,1.14,0,0,1-2.13-.07,7.31,7.31,0,0,1-.88-3.71c0-2.14.17-4.27.26-6.41l3.57,2.45C379.29,202.62,379.57,202.73,379.83,202.87Z"/><path class="cls-8" d="M397.68,227.24c-2.47-.28-4.95-.48-7.4-.87a7.32,7.32,0,0,1-2.68-1.15c-.72-.46-.66-1.12.11-1.51a7.76,7.76,0,0,1,2.53-.87c1.79-.19,3.6-.19,5.39-.27.56,1.11,1.14,2.21,1.67,3.33A9.82,9.82,0,0,1,397.68,227.24Z"/><path class="cls-9" d="M373.73,268.12a2.09,2.09,0,0,0,.25.44,17.28,17.28,0,0,1,4.73,11.06c-.48,0-.95.09-1.42.09H143.37a15.47,15.47,0,0,1,2.57-8.36A17.85,17.85,0,0,1,157,263.4H134.6c.64,0,1.28-.13,1.92-.13l35.22,0c.81,0,1.63,0,2.44-.05l15.09.06c1.15,0,2.31,0,3.47-.06.39,0,.77.06,1.16.06h37.27c.39,0,.77,0,1.16-.05s.69.06,1,.06h30.78c.34,0,.69,0,1-.06H292.9c.51,0,1,.05,1.54.05H335.8q10.8,0,21.59,0c.47,0,.94,0,1.41,0l1.86-.05,0,0,1.05,0,.05,0,3.19.28a1.4,1.4,0,0,0,.32.2,18.63,18.63,0,0,1,7.55,3.75Z"/><path class="cls-10" d="M265.17,263.19c-.34,0-.69.06-1,.06H233.36c-.34,0-.69,0-1-.06a7,7,0,0,1,1.33-.27c4.78,0,9.56,0,14.35,0,.44,0,.88-.05,1.33-.07l.11-.3c-.87-.88-1.75-1.73-2.6-2.63a12.54,12.54,0,0,0-3.83-2.79,4.88,4.88,0,0,0-1.72-.42,25.85,25.85,0,0,0-6.38.65c-1.89.34-3.74.95-5.7.39-.66-.18-1.36-.16-2-.28-1.38-.24-2.76-.52-4.15-.78a65.27,65.27,0,0,0-14.19-20.59l-.27.64a9.49,9.49,0,0,0-1,.74c-.78.79-1.52,1.63-2.3,2.43-2.86,3-5.74,5.93-8.6,8.9a5.45,5.45,0,0,0-.52.71l4.77,2.16a21.79,21.79,0,0,1-6.57,10.06c-.54.48-1.06,1-1.59,1.46-1.16,0-2.32.06-3.47.06l-15.09-.06-1.16-.47a21.76,21.76,0,0,1,.23-2.38,60,60,0,0,1,4-11.58,224.53,224.53,0,0,1,19.32-35.29A94.14,94.14,0,0,1,208,198.87c1.19-1.18,2.5-2.23,3.77-3.34a8.69,8.69,0,0,1,4.83-1.94,42.39,42.39,0,0,1,4.63-.33c3.88,0,7.76.07,11.63.11a4.39,4.39,0,0,0,.56.84c.83.8,1.72,1.54,2.56,2.35a20.68,20.68,0,0,0,5.74,3.88,11.34,11.34,0,0,0,7,1.17,9.59,9.59,0,0,0,6.16-3.64c.5-.65.95-1.32,1.42-2a49.18,49.18,0,0,1,10.66,3.32,9.05,9.05,0,0,1,3.53,2.9,67.57,67.57,0,0,1,5.36,8.94,8.07,8.07,0,0,1,.25,1.51c-.1,4.93.21,9.86-.21,14.79-.26,3-.2,6.08-.32,9.12a20.08,20.08,0,0,1-.25,2,5.39,5.39,0,0,1-.9,0A2,2,0,0,0,272,240c-.56,1.21-1.24,2.37-1.78,3.59a22,22,0,0,0-2.2,8.53c-.37,1.27-.77,2.53-1.1,3.81C266.32,258.34,265.75,260.77,265.17,263.19Z"/><path class="cls-4" d="M351.41,249.15c-2.11,3.29-5.53,4.36-9,5.18a37.17,37.17,0,0,1-10.78.76,25.2,25.2,0,0,1-7.82-1.44,6.19,6.19,0,0,1-.95-.41,1.41,1.41,0,0,1-.5-2.35,11.08,11.08,0,0,1,1.55-1.73c2-1.75,3.91-3.56,6.59-4.14,1.88-.41,3.79-.7,5.7-1,1.52-.23,3.07-.36,4.6-.59a3.27,3.27,0,0,0,1.31-.5,1.53,1.53,0,0,0,.69-1c0-.24-.43-.62-.75-.76a5,5,0,0,0-1.73-.49c-2.1-.12-4.25-.45-6.28.22a30,30,0,0,0-4.27,2.08c-1.8.93-3.55,1.94-5.36,2.82a14,14,0,0,1-5.25,1.21,8.35,8.35,0,0,1-5.89-2.26,27.88,27.88,0,0,1-6.47-8.28c-.79-1.43-1.5-2.89-2.23-4.3,2,.05,4,.23,5.88.12a22,22,0,0,0,9.27-2.49,6.2,6.2,0,0,0,1-.63c.62-.5.59-1.05-.15-1.38a6,6,0,0,0-1.61-.41c-1.45-.2-2.9-.4-4.35-.5-3-.21-6.09-.4-9.14-.53s-4.75-2.13-5.74-4.78a13.65,13.65,0,0,1-.6-7.36l.51-2.79a8,8,0,0,1,5.36-6.14,21.24,21.24,0,0,1,10.77-1.23,1.72,1.72,0,0,0,.39,0c1.83-.26,2.83.69,3.82,2.15,2.52,3.7,5.19,7.3,7.92,10.84A39.32,39.32,0,0,0,331.6,221c.43.42,1,.89,1.58.45s.28-1.12.08-1.67a43.51,43.51,0,0,0-1.67-4.19c-1.47-2.93-3-5.8-4.57-8.69-.21-.41-.41-.84-.67-1.36a10.23,10.23,0,0,1,4.15.25A72.71,72.71,0,0,1,342.82,210c1.51.63,3,1.34,4.5,2a1.44,1.44,0,0,1,1,1.58c-.05,3.15,0,6.3,0,9.45a28.15,28.15,0,0,0,.79,6.77,7.94,7.94,0,0,0,.45,1.2c.18.43.51.77,1,.64a1.33,1.33,0,0,0,.82-.67,9,9,0,0,0,.55-2.49,36.15,36.15,0,0,0-.44-7.84c-.31-1.82-.54-3.65-.79-5.48a4.44,4.44,0,0,1,.07-.82,18.81,18.81,0,0,1,5.36,2.93,29.86,29.86,0,0,1,5.77,5.51,10.3,10.3,0,0,1,1.74,9.64,16.43,16.43,0,0,1-5.32,7.64c-1.25,1.09-2.69,2-4.05,3a14.55,14.55,0,0,0-3-5.18,42,42,0,0,0-7.95-6.93c-2.12-1.39-4.26-2.77-6.49-4-3.74-2-7.51-4-11.38-5.78-3.66-1.69-7.45-3.11-11.2-4.6-1-.41-2.11-.65-3.17-1l-.51-.22-.05.17.56.05a4.31,4.31,0,0,0,.63.42c3.64,1.66,7.32,3.23,10.91,5s7.16,3.6,10.62,5.6a70.3,70.3,0,0,1,11,7.68,28.61,28.61,0,0,1,6.39,7.36,8.57,8.57,0,0,1,1.36,5C351.81,247.48,351.57,248.31,351.41,249.15Z"/><path class="cls-11" d="M275.3,238.59a20.08,20.08,0,0,0,.25-2c.12-3,.06-6.09.32-9.12.42-4.93.11-9.86.21-14.79a8.07,8.07,0,0,0-.25-1.51,5.14,5.14,0,0,0,.22-1.21c-.13-2.53-.3-5.06-.46-7.59-.18-2.78-.35-5.57-.56-8.35a8.12,8.12,0,0,0-2.55-5.74,5.19,5.19,0,0,1-1.55-3.06,8.7,8.7,0,0,0-1.49-3.67c-.21-.31-.38-.65-.58-1,.89-.12.89-.12,2.22.7a2.9,2.9,0,0,0-3.69-3.26,1.9,1.9,0,0,1-1.85-.38l1.49-1-1.4-.93c-.35.8-.62,1.48-.94,2.13a3.15,3.15,0,0,1-2.55,1.94c-.81.09-1.61.25-2.41.39l-2.77.51c-1.89,0-3.79,0-5.68,0a20.15,20.15,0,0,1-5.57-.84c-1-.28-1.91-.6-3.05-1a5.7,5.7,0,0,0,.33.81,19.45,19.45,0,0,0,6.94,6.93,11.84,11.84,0,0,0,6.23,1.84c-.07,1-.17,2-.19,2.92a12.72,12.72,0,0,0,.31,4.68c-.47.67-.92,1.34-1.42,2a9.59,9.59,0,0,1-6.16,3.64,11.34,11.34,0,0,1-7-1.17,20.68,20.68,0,0,1-5.74-3.88c-.84-.81-1.73-1.55-2.56-2.35a4.39,4.39,0,0,1-.56-.84c2.9-4.4,4.22-9.37,5.15-14.47a13.16,13.16,0,0,0,.11-1.42c.2-.9.67-1.78,0-2.7-1.75-2.58-1.91-5.66-2.81-8.63,4.86-1.55,9.3-3.56,11.94-8.2A56.21,56.21,0,0,1,242,169.17a3.67,3.67,0,0,0,1-.74,23.72,23.72,0,0,0,4.25-5.51,44.35,44.35,0,0,0,5.25-17.18l.32-2.79c3,1.82,5.7,3.65,7.13,6.81.79,1.72,1.55,3.46,2.39,5.16a25.47,25.47,0,0,0,1.56,2.67,1.79,1.79,0,0,0,1.71,1,58.81,58.81,0,0,1,.19,15.74c1.53.63,3.09,1.24,4.61,1.92,1.26.55,2.48,1.19,3.73,1.78a4.08,4.08,0,0,1,2.2,2.55c.79,2.5,1.75,5,2.44,7.48,1.75,6.33,3.5,12.67,5.05,19s3,12.88,4.29,19.35c1,4.83,1.81,9.7,2.61,14.56.54,3.21.92,6.45,1.38,9.68.06.46.13.93.2,1.39-1.07.54-2.12,1.1-3.2,1.6a16.48,16.48,0,0,1-7.42,1.74c-1.87,0-3.75-.18-5.63-.27-.26-2-.67-4-.75-6C275.23,245.64,275.31,242.11,275.3,238.59Z"/><path class="cls-12" d="M265.65,158.55a1.79,1.79,0,0,1-1.71-1,25.47,25.47,0,0,1-1.56-2.67c-.84-1.7-1.6-3.44-2.39-5.16-1.43-3.16-4.11-5-7.13-6.81l-.32,2.79a44.35,44.35,0,0,1-5.25,17.18,23.72,23.72,0,0,1-4.25,5.51,3.67,3.67,0,0,1-1,.74A56.21,56.21,0,0,0,247.3,158c-2.64,4.64-7.08,6.65-11.94,8.2.9,3,1.06,6,2.81,8.63.63.92.16,1.8,0,2.7a13.65,13.65,0,0,0-1.73-1.1,2.47,2.47,0,0,0-2.79.28,4.5,4.5,0,0,1-4.39.68,12.14,12.14,0,0,1-5.3-3.34,23,23,0,0,1-6.29-12.2,27.31,27.31,0,0,1-.36-8.22c0-.2,0-.41,0-.73-.71.37-1.31.68-1.92,1a3.1,3.1,0,0,1-3.09,0,14.59,14.59,0,0,1-2.38-1.52c-1.3-1.13-2.52-2.34-3.72-3.57a9.48,9.48,0,0,1-2.6-5.51,19.26,19.26,0,0,1,.11-7.18,6.18,6.18,0,0,1,4.18-4.84l.64-.22a.31.31,0,0,1,.13,0,27,27,0,0,1,6.72-.2,1.08,1.08,0,0,0-1-.59l-.08,0-1-.23h-.08a4.11,4.11,0,0,0-2.81,0h-.06l-1.57-.24a17.93,17.93,0,0,1,9.54-.78,11.6,11.6,0,0,1,7,4.36l.56.7s.08,0,.12.06.17,0,.21-.09c3-3.78,7-4.69,11.45-4.13A35.15,35.15,0,0,1,249.74,134c1.63.87,3.21,1.84,4.8,2.8a50.15,50.15,0,0,0,4.45,2.59c3.38,1.6,5.27,4.47,6.2,8A26.71,26.71,0,0,1,265.65,158.55Z"/><path class="cls-13" d="M365,263.47l-3.19-.28a35.56,35.56,0,0,1,2.52-12.57c.82-2,1.88-4,2.88-5.91a44.55,44.55,0,0,0,4.36-12.5c.38-2.15.5-4.34.73-6.51a20.24,20.24,0,0,1,4.67-7.63,62,62,0,0,1,14.89-11.58q6.24-3.65,12.7-6.86c3.72-1.86,7.57-3.49,11.4-5.1s7.89-3.18,11.84-4.73a12.54,12.54,0,0,1,1.74-.39h0c-.84.42-1.67.86-2.52,1.25q-5.81,2.66-11.61,5.28a169.49,169.49,0,0,0-19,10.3A92,92,0,0,0,386,213.68a39.42,39.42,0,0,0-8,8.55,16.91,16.91,0,0,0-2.81,6.72,8.22,8.22,0,0,0,.22,3.45,12.77,12.77,0,0,1,.22,1.51,31.54,31.54,0,0,0-2.88,3.79c-1.92,3.51-3.69,7.1-5.47,10.69a15,15,0,0,0-1,2.81,44.58,44.58,0,0,0-1.31,9.69C365.06,261.75,365,262.61,365,263.47Z"/><path class="cls-10" d="M276.1,255.12c1.88.09,3.76.23,5.63.27a16.48,16.48,0,0,0,7.42-1.74c1.08-.5,2.13-1.06,3.2-1.6a61.05,61.05,0,0,1,.55,11.14H282.83c-.42-.19-.83-.41-1.26-.57A8.13,8.13,0,0,1,276.1,255.12Z"/><path class="cls-13" d="M351.41,249.15c.16-.84.4-1.67.48-2.52a8.57,8.57,0,0,0-1.36-5,28.61,28.61,0,0,0-6.39-7.36,70.3,70.3,0,0,0-11-7.68c-3.46-2-7-3.84-10.62-5.6s-7.27-3.33-10.91-5a4.31,4.31,0,0,1-.63-.42h0c1.06.32,2.15.56,3.17,1,3.75,1.49,7.54,2.91,11.2,4.6,3.87,1.77,7.64,3.76,11.38,5.78,2.23,1.19,4.37,2.57,6.49,4a42,42,0,0,1,7.95,6.93,14.55,14.55,0,0,1,3,5.18,32.75,32.75,0,0,0,4.29,15.26c.85,1.58,1.45,3.3,2.16,4.95l-1.86.05a38.53,38.53,0,0,0-1.49-4.23q-1.72-3.66-3.73-7.19A20.19,20.19,0,0,0,351.41,249.15Z"/><path class="cls-5" d="M214.32,130.14a1.08,1.08,0,0,1,1,.59,27,27,0,0,0-6.72.2,11.44,11.44,0,0,1,4.42-.53C213.47,130.4,214,130.7,214.32,130.14Z"/><path class="cls-5" d="M208.75,129.65l1.57.24L205.47,131l-.07-.2Z"/><path class="cls-5" d="M210.38,129.88a4.11,4.11,0,0,1,2.81,0Z"/><path class="cls-13" d="M361.74,263.23l-1.05,0Z"/><path class="cls-5" d="M213.27,129.88l1,.23Z"/><path class="cls-5" d="M208.49,131l-.64.22Z"/><path class="cls-8" d="M365,263.47c0-.86.08-1.72.11-2.58a44.58,44.58,0,0,1,1.31-9.69,15,15,0,0,1,1-2.81c1.78-3.59,3.55-7.18,5.47-10.69a31.54,31.54,0,0,1,2.88-3.79c.2.14.47.23.59.42a11.17,11.17,0,0,0,3.59,3.42,4.06,4.06,0,0,1,.73.81,9.06,9.06,0,0,0-4.51,10.07,18.78,18.78,0,0,0,3.61,7.77,1.42,1.42,0,0,1,.21,1.65,29.13,29.13,0,0,1-6.53,9,3.29,3.29,0,0,1-.54.34,18.63,18.63,0,0,0-7.55-3.75A1.4,1.4,0,0,1,365,263.47Z"/><path class="cls-7" d="M391.34,241.44a29.64,29.64,0,0,1-2.9,6.29,3.86,3.86,0,0,1-.88,1.08,1.52,1.52,0,0,1-1.11.35c-.2,0-.42-.61-.41-.94a7.3,7.3,0,0,1,.33-2.14c.64-1.72,1.39-3.41,2.09-5.11A5.49,5.49,0,0,1,391.34,241.44Z"/><path class="cls-13" d="M429.52,189.41l1-.57.12.31-1.09.27Z"/><path class="cls-14" d="M223,256.68c1.39.26,2.77.54,4.15.78.68.12,1.38.1,2,.28,2,.56,3.81-.05,5.7-.39a25.85,25.85,0,0,1,6.38-.65,4.88,4.88,0,0,1,1.72.42,12.54,12.54,0,0,1,3.83,2.79c.85.9,1.73,1.75,2.6,2.63l-.11.3c-.45,0-.89.06-1.33.07-4.79,0-9.57,0-14.35,0a7,7,0,0,0-1.33.27c-.39,0-.77.05-1.16.05H193.9c-.39,0-.77,0-1.16-.06.53-.49,1-1,1.59-1.46a21.81,21.81,0,0,0,6.57-10.05c1.61.41,3.21.86,4.83,1.25s3.4.76,5.1,1.14a2.66,2.66,0,0,0,.56.28c1.54.35,3.07.72,4.62,1C218.34,255.84,220.69,256.25,223,256.68Z"/><path class="cls-15" d="M276.1,255.12a8.13,8.13,0,0,0,5.47,7.5c.43.16.84.38,1.26.57H278c-.59-.43-1.2-.82-1.76-1.27a33.13,33.13,0,0,1-8.2-9.81,22,22,0,0,1,2.2-8.53c.54-1.22,1.22-2.38,1.78-3.59a2,2,0,0,1,2.39-1.42,5.39,5.39,0,0,0,.9,0c0,3.52-.07,7,.05,10.57C275.43,251.15,275.84,253.13,276.1,255.12Z"/><path class="cls-16" d="M268,252.11a33.13,33.13,0,0,0,8.2,9.81c.56.45,1.17.84,1.76,1.27H265.17c.58-2.42,1.15-4.85,1.76-7.27C267.26,254.64,267.66,253.38,268,252.11Z"/><path class="cls-16" d="M256.28,196a12.72,12.72,0,0,1-.31-4.68c0-1,.12-2,.19-2.92.27-2.59.53-5.17.8-7.76l2.77-.51c.8-.14,1.6-.3,2.41-.39a3.15,3.15,0,0,0,2.55-1.94c.32-.65.59-1.33.94-2.13l1.4.93-1.49,1a1.9,1.9,0,0,0,1.85.38,2.9,2.9,0,0,1,3.69,3.26c-1.33-.82-1.33-.82-2.22-.7.2.35.37.69.58,1a8.7,8.7,0,0,1,1.49,3.67,5.19,5.19,0,0,0,1.55,3.06A8.12,8.12,0,0,1,275,194c.21,2.78.38,5.57.56,8.35.16,2.53.33,5.06.46,7.59a5.14,5.14,0,0,1-.22,1.21,67.57,67.57,0,0,0-5.36-8.94,9.05,9.05,0,0,0-3.53-2.9A49.18,49.18,0,0,0,256.28,196Z"/><path class="cls-16" d="M210.83,254.07c-1.7-.38-3.41-.73-5.1-1.14s-3.22-.84-4.83-1.25l-4.77-2.17a5.45,5.45,0,0,1,.52-.71c2.86-3,5.74-5.93,8.6-8.9.78-.8,1.52-1.64,2.3-2.43a9.49,9.49,0,0,1,1-.74c.49,2.88,1.09,5.74,1.47,8.63S210.58,251.17,210.83,254.07Z"/><path class="cls-15" d="M210.83,254.07c-.25-2.9-.42-5.82-.79-8.71s-1-5.75-1.47-8.63l.27-.64A65.27,65.27,0,0,1,223,256.68c-2.34-.43-4.69-.84-7-1.3-1.55-.31-3.08-.68-4.62-1A2.66,2.66,0,0,1,210.83,254.07Z"/><path class="cls-13" d="M311,215.55l-.56-.05.05-.17.51.22Z"/><path class="cls-17" d="M257,180.62c-.27,2.59-.53,5.17-.8,7.76a11.84,11.84,0,0,1-6.23-1.84,19.45,19.45,0,0,1-6.94-6.93,5.7,5.7,0,0,1-.33-.81c1.14.37,2.09.69,3.05,1a20.15,20.15,0,0,0,5.57.84C253.17,180.63,255.07,180.62,257,180.62Z"/></g><g id="bubble3"><path class="cls-18" d="M348.71,152.76c-1.38,0-2.76,0-4.14,0A88,88,0,0,1,328.63,151a66.12,66.12,0,0,1-11.09-3.33,52.1,52.1,0,0,1-11.76-6.38c-1.76-1.3-3.44-2.7-5.12-4.1a47.45,47.45,0,0,1-9.27-10.81,60.58,60.58,0,0,1-5.8-11.65,70.73,70.73,0,0,1-3-11.42c-.31-1.59-.33-3.23-.59-4.84a48.4,48.4,0,0,1-.22-8.51A28.57,28.57,0,0,1,287.55,73a37.51,37.51,0,0,1,12.17-10.15c7-4,14.67-6.28,22.51-8,3.39-.72,6.79-1.4,10.21-2,2.23-.39,4.5-.57,6.75-.85,1.91-.24,3.81-.51,5.72-.73,1.15-.13,2.31-.22,3.46-.3l7.31-.5c.35,0,.69,0,1,0,3.95.08,7.92,0,11.86.3a91.7,91.7,0,0,1,10.94,1.42,74.37,74.37,0,0,1,16.24,4.88,59.89,59.89,0,0,1,12.95,7.69,53.58,53.58,0,0,1,6.79,6.33,54.69,54.69,0,0,1,8.15,11.71,65.46,65.46,0,0,1,6.87,21c.31,2.21.57,4.41.81,6.63a50,50,0,0,1,.15,7.73,21,21,0,0,1-3,9.5,29.88,29.88,0,0,1-6,7,41.22,41.22,0,0,1-6.86,4.77,74.25,74.25,0,0,1-14.34,6.11,114.94,114.94,0,0,1-14,3.51c-2.86.54-5.72,1.07-8.6,1.5-2.32.35-4.67.57-7,.84l-6.5.73-.26,0c-2,.09-4,.19-6.05.27l-10.18.37ZM325.46,79.35v4.51H329V72.53H325.4v3.92a26.28,26.28,0,0,1-4.08-.15V72.55h-3.58v11.3h3.68v-4.5Zm28.34,4.56c1-2.73,2.06-5.45,3.14-8.28h-3.2c-.44,1.56-.85,3.06-1.27,4.56h-.27l-1.65-4.58h-3c-.56,1.59-1.1,3.15-1.64,4.71l-.21,0c-.42-1.53-.83-3.06-1.25-4.6h-3.24l3.17,8.24h3l1.68-4.84c.64,1.8,1.19,3.33,1.72,4.84Zm21.71,15.68h-.27c-.56-1.54-1.12-3.08-1.68-4.6h-3l-1.63,4.71-.21,0c-.43-1.55-.86-3.1-1.27-4.61h-3.23c1.08,2.83,2.13,5.55,3.15,8.22h3.06c.54-1.55,1.05-3,1.65-4.8.65,1.79,1.19,3.31,1.73,4.81h3L380,95h-3.19C376.34,96.57,375.93,98.08,375.51,99.59Zm-61.71,3.7a85.9,85.9,0,0,0-.11-11.36h-3.23v3.7c-.37-.21-.55-.32-.74-.41A3.55,3.55,0,0,0,304.44,98a7.18,7.18,0,0,0,0,2.17c.49,3.13,3.22,4.26,5.84,2.47a1,1,0,0,1,.35-.09l.16.71Zm21.54,18.54.45.33a3.45,3.45,0,0,0,5.52-1.71,6,6,0,0,0,.21-3.18,3.58,3.58,0,0,0-5.08-2.74c-.29.12-.57.25-1,.45v-3.64h-3.28v11.35h3Zm33.84-45.56c-.49-.26-.74-.42-1-.54a3.56,3.56,0,0,0-5.07,2.44,5.76,5.76,0,0,0,.39,4A3.26,3.26,0,0,0,367.38,84a13.39,13.39,0,0,0,1.9-.83l.22.71h2.95V72.53h-3.27ZM360,122.67h3.39c0-.9,0-1.71,0-2.53,0-1.16,0-2.33-.09-3.48a2.47,2.47,0,0,0-2.79-2.42,9.19,9.19,0,0,0-2.1.51,5.49,5.49,0,0,0-.9.46v-3.85h-3.25v11.31h3.3c0-1.33,0-2.57,0-3.82a4.3,4.3,0,0,1,.23-1.38,1.11,1.11,0,0,1,1.36-.7,1,1,0,0,1,.8,1c0,.51,0,1,0,1.55C360,120.46,360,121.57,360,122.67Zm-10.64-15.84c1.1,0,2.09,0,3.07,0a2.85,2.85,0,0,0,2.56-1.88c.16-.36.32-.71.46-1.07l3-7.85c.11-.3.19-.61.31-1h-3.2c-.66,1.66-.9,3.41-1.72,5.2-.62-1.92-1.17-3.59-1.71-5.26-.69,0-1.25,0-1.8,0s-1.1-.17-1.63.21c.17.4.31.76.46,1.11.92,2.14,1.85,4.27,2.75,6.41a1.26,1.26,0,0,1-1.22,1.92c-.5,0-1,0-1.62-.09C349.13,105.24,349.21,105.91,349.33,106.83Zm-16.4-9.41-.09.4c-.78.2-1.55.41-2.33.6s-1.61.31-2.38.57a2.09,2.09,0,0,0-1.53,2.15,2.16,2.16,0,0,0,1.47,2.08,5.65,5.65,0,0,0,1.64.29,5,5,0,0,0,3.13-.89c.42.29.72.67,1.05.7a21,21,0,0,0,2.5,0c-.07-.92-.16-1.72-.19-2.53,0-1,0-2.07,0-3.1a2.59,2.59,0,0,0-2-2.65,10.56,10.56,0,0,0-5.12,0,2.5,2.5,0,0,0-2.07,2.26,6.38,6.38,0,0,0,1,.19c.95,0,1.92.41,2.76-.51.25-.28,1-.19,1.48-.13C332.46,96.91,332.69,97.24,332.93,97.42Zm38.37,19.71c-.63.2-1.11.37-1.59.49-1,.25-2.1.45-3.14.73a2.07,2.07,0,0,0-1.59,1.54,2.26,2.26,0,0,0,1.73,2.85,5.4,5.4,0,0,0,4.65-.87c.14.83.65,1,1.32.91s1.36,0,2,0c0-1-.13-2-.15-2.89s0-1.81,0-2.72a2.54,2.54,0,0,0-1.66-2.54,9.35,9.35,0,0,0-6,0,2.38,2.38,0,0,0-1.63,2.16c1.4.05,2.67.71,3.88-.43.29-.28,1.07-.11,1.61,0C370.9,116.39,371,116.77,371.3,117.13Zm15.47-19.39c-.73.21-1.17.35-1.62.46-1,.24-2,.41-3,.7a2.16,2.16,0,0,0-1.84,2.31,2.32,2.32,0,0,0,2,2.18,5.28,5.28,0,0,0,4.37-.89c.22.85.83.9,1.5.86s1.28,0,1.84,0c0-1.12-.12-2.14-.15-3.15,0-.82,0-1.64,0-2.46a2.6,2.6,0,0,0-2-2.68,10.49,10.49,0,0,0-5.25,0,2.5,2.5,0,0,0-2,2.26,4.62,4.62,0,0,0,.7.13c1.07.06,2.16.47,3.14-.49.29-.29,1.07-.14,1.61-.08C386.27,97,386.42,97.32,386.77,97.74ZM319,99.88h6.39c.33-2.21-.42-3.87-2.16-4.58a6.68,6.68,0,0,0-5.4,0,3.9,3.9,0,0,0-2.33,3.73,3.86,3.86,0,0,0,2.1,3.86,6.88,6.88,0,0,0,6.11-.08,2.56,2.56,0,0,0,1.49-1.8l-1.24-.13a3.47,3.47,0,0,0-2.68.41C320.3,102,319.36,101.36,319,99.88Zm33.77,19.43c.21-2.28-.53-3.88-2.17-4.57a6.68,6.68,0,0,0-5.4,0,4.11,4.11,0,0,0-2.36,4.58,3.82,3.82,0,0,0,3.31,3.45,14,14,0,0,0,3.71,0,3.53,3.53,0,0,0,2.74-2.23c-1.45,0-2.76-.63-4.14.32-.91.62-1.9-.15-2.08-1.47Zm42.54,1.15c-1.46,0-2.77-.63-4.15.32-.91.62-1.9-.15-2.1-1.51h6.41c.21-2.29-.57-3.89-2.29-4.58a6.74,6.74,0,0,0-5.16,0,4.07,4.07,0,0,0-2.5,4.49,3.83,3.83,0,0,0,3.32,3.59,14,14,0,0,0,3.71,0A3.61,3.61,0,0,0,395.27,120.46Zm-.08-17.1c0-1.34,0-2.49,0-3.65a6.67,6.67,0,0,1,.17-1.54,1.1,1.1,0,0,1,1.29-.82,1,1,0,0,1,1,1c0,.73,0,1.46,0,2.2v2.69H401c0-2,.07-4,0-5.89a2.57,2.57,0,0,0-2.69-2.57,3.72,3.72,0,0,0-2.85,1,.93.93,0,0,1-.34.13l-.23-.84h-3v8.23c.36,0,.66,0,1,0Zm-16.13-28a17.9,17.9,0,0,0-1.87.33,4.26,4.26,0,0,0-.12,8.17,6.58,6.58,0,0,0,4.07,0,4.12,4.12,0,0,0,2.92-4.12,4,4,0,0,0-3.17-4C380.31,75.49,379.71,75.44,379.06,75.33Zm-43,0a13.09,13.09,0,0,0-1.36.11,6.17,6.17,0,0,0-1.12.3,4.12,4.12,0,0,0-2.72,4,4,4,0,0,0,2.77,4,6.38,6.38,0,0,0,4.31.05,4.11,4.11,0,0,0,2.9-4.13,4.06,4.06,0,0,0-3.2-4C337.08,75.49,336.47,75.44,336.07,75.37ZM320,114.15a17.39,17.39,0,0,0-1.78.3,4.26,4.26,0,0,0,.17,8.3,7.07,7.07,0,0,0,3.33,0,4.13,4.13,0,0,0,3.25-4.12,4,4,0,0,0-3.18-4.15C321.16,114.3,320.56,114.25,320,114.15Zm60.52,5-.27,0c-.51-1.56-1-3.13-1.53-4.65h-3.46c1.22,2.86,2.4,5.6,3.55,8.28h3l3.61-8.27H382Zm-66.7-2.49v-2.2l-1.81-.19v-3l-3.27,1.57-.1,1.4-1.08.27v2.09l1.13.28c0,.73,0,1.38,0,2a22.13,22.13,0,0,0,.21,2.43,1.68,1.68,0,0,0,1.33,1.42,6.31,6.31,0,0,0,3.79-.18c-.09-.7-.17-1.33-.26-2-.24,0-.4.06-.57.07-.95,0-1.09-.06-1.12-.95s0-1.88,0-2.87Zm88.71-21.59V97.2l1.12.23v1.43c0,.73,0,1.47,0,2.2a2.28,2.28,0,0,0,2.56,2.45,26.6,26.6,0,0,0,2.73-.2c-.09-.83-.17-1.49-.25-2.16l-.51.06c-1,.06-1.16,0-1.19-1s0-1.86,0-2.8l1.77-.18V95l-1.8-.19v-3l-3.26,1.56-.17,1.46ZM391.59,83.87h3.58a81.85,81.85,0,0,0-.09-11.32h-3.49Zm10.49,35.2c.6-.74,1-1.31,1.51-1.82s.93-.77,1.33-1.21a2.61,2.61,0,0,0-.08-3.72,4.63,4.63,0,0,0-2.1-1.15,9,9,0,0,0-3.07,0c-1.77.26-2.82,1.59-3,3.63l2.82.34a8.13,8.13,0,0,1,1.2-1.48,1,1,0,0,1,1.38.23c.38.49.1.9-.27,1.24s-.91.79-1.37,1.17a3.05,3.05,0,0,0-1.13,2.79ZM338.28,91.9v11.39h3.27V91.9Zm5.59,0v11.33h3.24V91.94Zm-44.51,11.34h3.19a43.77,43.77,0,0,0-.09-8.22h-3.1ZM402.49,120h-3.23v2.69h3.23ZM299.4,91.92v2h3.2v-2Z"/><path class="cls-12" d="M325.46,79.35h-4v4.5h-3.68V72.55h3.58V76.3a26.28,26.28,0,0,0,4.08.15V72.53H329V83.86h-3.58Z"/><path class="cls-19" d="M353.8,83.91h-3c-.53-1.51-1.08-3-1.72-4.84l-1.68,4.84h-3l-3.17-8.24h3.24c.42,1.54.83,3.07,1.25,4.6l.21,0c.54-1.56,1.08-3.12,1.64-4.71h3l1.65,4.58h.27c.42-1.5.83-3,1.27-4.56h3.2C355.86,78.46,354.83,81.18,353.8,83.91Z"/><path class="cls-19" d="M375.51,99.59c.42-1.51.83-3,1.26-4.57H380l-3.11,8.27h-3c-.54-1.5-1.08-3-1.73-4.81-.6,1.75-1.11,3.25-1.65,4.8h-3.06c-1-2.67-2.07-5.39-3.15-8.22h3.23c.41,1.51.84,3.06,1.27,4.61l.21,0L370.56,95h3c.56,1.52,1.12,3.06,1.68,4.6Z"/><path class="cls-19" d="M313.8,103.29h-3l-.16-.71a1,1,0,0,0-.35.09c-2.62,1.79-5.35.66-5.84-2.47a7.18,7.18,0,0,1,0-2.17,3.55,3.55,0,0,1,5.28-2.81c.19.09.37.2.74.41v-3.7h3.23A85.9,85.9,0,0,1,313.8,103.29Zm-3.28-4c0-.3,0-.52-.07-.73a1.36,1.36,0,0,0-1.32-1.18,1.16,1.16,0,0,0-1.32,1.12,5,5,0,0,0,.06,1.76,1.15,1.15,0,0,0,1.26.89,1.26,1.26,0,0,0,1.25-.93A4.29,4.29,0,0,0,310.52,99.25Z"/><path class="cls-19" d="M335.34,121.83l-.2.86h-3V111.34h3.28V115c.43-.2.71-.33,1-.45a3.58,3.58,0,0,1,5.08,2.74,6,6,0,0,1-.21,3.18,3.45,3.45,0,0,1-5.52,1.71Zm.12-3a3.87,3.87,0,0,0,.19.91,1.11,1.11,0,0,0,1.22.77,1.82,1.82,0,0,0,1.13-.69,2.58,2.58,0,0,0,.05-2.36,1.15,1.15,0,0,0-1.13-.71C336,116.74,335.46,117.38,335.46,118.83Z"/><path class="cls-20" d="M369.18,76.27V72.53h3.27V83.88H369.5l-.22-.71a13.39,13.39,0,0,1-1.9.83,3.26,3.26,0,0,1-3.88-1.79,5.76,5.76,0,0,1-.39-4,3.56,3.56,0,0,1,5.07-2.44C368.44,75.85,368.69,76,369.18,76.27Zm0,3.61A8,8,0,0,0,369,79a1.36,1.36,0,0,0-1.42-1.07,1.22,1.22,0,0,0-1.25,1.23,5.81,5.81,0,0,0,.16,1.76,1,1,0,0,0,1.07.78,1.21,1.21,0,0,0,1.27-.7A7.93,7.93,0,0,0,369.19,79.88Z"/><path class="cls-19" d="M360,122.67c0-1.1,0-2.21,0-3.32,0-.52,0-1,0-1.55a1,1,0,0,0-.8-1,1.11,1.11,0,0,0-1.36.7,4.3,4.3,0,0,0-.23,1.38c0,1.25,0,2.49,0,3.82h-3.3V111.36h3.25v3.85a5.49,5.49,0,0,1,.9-.46,9.19,9.19,0,0,1,2.1-.51,2.47,2.47,0,0,1,2.79,2.42c.12,1.15.07,2.32.09,3.48,0,.82,0,1.63,0,2.53Z"/><path class="cls-20" d="M349.33,106.83c-.12-.92-.2-1.59-.3-2.31.61,0,1.12.11,1.62.09a1.26,1.26,0,0,0,1.22-1.92c-.9-2.14-1.83-4.27-2.75-6.41-.15-.35-.29-.71-.46-1.11.53-.38,1.1-.17,1.63-.21s1.11,0,1.8,0c.54,1.67,1.09,3.34,1.71,5.26.82-1.79,1.06-3.54,1.72-5.2h3.2c-.12.38-.2.69-.31,1l-3,7.85c-.14.36-.3.71-.46,1.07a2.85,2.85,0,0,1-2.56,1.88C351.42,106.88,350.43,106.83,349.33,106.83Z"/><path class="cls-21" d="M332.93,97.42c-.24-.18-.47-.51-.74-.53-.5-.06-1.23-.15-1.48.13-.84.92-1.81.56-2.76.51a6.38,6.38,0,0,1-1-.19A2.5,2.5,0,0,1,329,95.08a10.56,10.56,0,0,1,5.12,0,2.59,2.59,0,0,1,2,2.65c.07,1,0,2.07,0,3.1,0,.81.12,1.61.19,2.53a21,21,0,0,1-2.5,0c-.33,0-.63-.41-1.05-.7a5,5,0,0,1-3.13.89,5.65,5.65,0,0,1-1.64-.29,2.16,2.16,0,0,1-1.47-2.08A2.09,2.09,0,0,1,328.13,99c.77-.26,1.59-.38,2.38-.57s1.55-.4,2.33-.6Zm-.06,2.15c-.7.16-1.28.29-1.85.44a1,1,0,0,0-.47.2c-.21.24-.52.55-.48.79a1,1,0,0,0,.68.61C331.94,101.89,332.81,101.09,332.87,99.57Z"/><path class="cls-21" d="M371.3,117.13c-.26-.36-.4-.74-.59-.77-.54-.08-1.32-.25-1.61,0-1.21,1.14-2.48.48-3.88.43a2.38,2.38,0,0,1,1.63-2.16,9.35,9.35,0,0,1,6,0,2.54,2.54,0,0,1,1.66,2.54c0,.91,0,1.81,0,2.72s.1,1.85.15,2.89c-.61,0-1.29,0-2,0s-1.18-.08-1.32-.91a5.4,5.4,0,0,1-4.65.87,2.26,2.26,0,0,1-1.73-2.85,2.07,2.07,0,0,1,1.59-1.54c1-.28,2.09-.48,3.14-.73C370.19,117.5,370.67,117.33,371.3,117.13Zm-.16,1.8a23.63,23.63,0,0,0-2.31.71.92.92,0,0,0-.46.78,1,1,0,0,0,.7.6C370.26,121.29,371.12,120.48,371.14,118.93Z"/><path class="cls-22" d="M386.77,97.74c-.35-.42-.5-.78-.7-.81-.54-.06-1.32-.21-1.61.08-1,1-2.07.55-3.14.49a4.62,4.62,0,0,1-.7-.13,2.5,2.5,0,0,1,2-2.26,10.49,10.49,0,0,1,5.25,0,2.6,2.6,0,0,1,2,2.68c0,.82,0,1.64,0,2.46,0,1,.1,2,.15,3.15-.56,0-1.2,0-1.84,0s-1.28,0-1.5-.86a5.28,5.28,0,0,1-4.37.89,2.32,2.32,0,0,1-2-2.18,2.16,2.16,0,0,1,1.84-2.31c1-.29,2-.46,3-.7C385.6,98.09,386,98,386.77,97.74Zm-.31,1.8c-.84.25-1.59.44-2.3.72-.22.09-.49.5-.44.67a1.13,1.13,0,0,0,.65.65C385.59,102,386.54,101.08,386.46,99.54Z"/><path class="cls-23" d="M319,99.88c.4,1.48,1.34,2.09,2.28,1.44a3.47,3.47,0,0,1,2.68-.41l1.24.13a2.56,2.56,0,0,1-1.49,1.8,6.88,6.88,0,0,1-6.11.08,3.86,3.86,0,0,1-2.1-3.86,3.9,3.9,0,0,1,2.33-3.73,6.68,6.68,0,0,1,5.4,0c1.74.71,2.49,2.37,2.16,4.58Zm3-1.75c-.24-1-.51-1.29-1.4-1.3s-1.32.27-1.56,1.3Z"/><path class="cls-23" d="M352.73,119.31h-6.39c.18,1.32,1.17,2.09,2.08,1.47,1.38-1,2.69-.37,4.14-.32a3.53,3.53,0,0,1-2.74,2.23,14,14,0,0,1-3.71,0,3.82,3.82,0,0,1-3.31-3.45,4.11,4.11,0,0,1,2.36-4.58,6.68,6.68,0,0,1,5.4,0C352.2,115.43,352.94,117,352.73,119.31Zm-3.45-1.79c-.32-1.08-.53-1.26-1.38-1.29s-1.25.21-1.62,1.29Z"/><path class="cls-23" d="M395.27,120.46a3.61,3.61,0,0,1-2.76,2.23,14,14,0,0,1-3.71,0,3.83,3.83,0,0,1-3.32-3.59,4.07,4.07,0,0,1,2.5-4.49,6.74,6.74,0,0,1,5.16,0c1.72.69,2.5,2.29,2.29,4.58H389c.2,1.36,1.19,2.13,2.1,1.51C392.5,119.83,393.81,120.41,395.27,120.46ZM392,117.55c-.29-1.12-.61-1.37-1.59-1.32s-1.16.34-1.32,1.32Z"/><path class="cls-24" d="M395.19,103.36h-2.36c-.3,0-.6,0-1,0V95.07h3l.23.84a.93.93,0,0,0,.34-.13,3.72,3.72,0,0,1,2.85-1A2.57,2.57,0,0,1,401,97.38c.09,1.93,0,3.87,0,5.89h-3.35v-2.69c0-.74,0-1.47,0-2.2a1,1,0,0,0-1-1,1.1,1.1,0,0,0-1.29.82,6.67,6.67,0,0,0-.17,1.54C395.17,100.87,395.19,102,395.19,103.36Z"/><path class="cls-21" d="M379.06,75.33c.65.11,1.25.16,1.83.31a4,4,0,0,1,3.17,4,4.12,4.12,0,0,1-2.92,4.12,6.58,6.58,0,0,1-4.07,0,4.26,4.26,0,0,1,.12-8.17A17.9,17.9,0,0,1,379.06,75.33Zm-1.61,4.43c0,1.11.42,1.83,1.2,2a1.52,1.52,0,0,0,1.69-.63,3,3,0,0,0-.07-2.94,1.56,1.56,0,0,0-1.74-.49C377.84,78,377.45,78.71,377.45,79.76Z"/><path class="cls-20" d="M336.07,75.37c.4.07,1,.12,1.58.26a4.06,4.06,0,0,1,3.2,4,4.11,4.11,0,0,1-2.9,4.13,6.38,6.38,0,0,1-4.31-.05,4,4,0,0,1-2.77-4,4.12,4.12,0,0,1,2.72-4,6.17,6.17,0,0,1,1.12-.3A13.09,13.09,0,0,1,336.07,75.37Zm1.45,4.39a7.26,7.26,0,0,0-.22-1.09,1.54,1.54,0,0,0-2.82-.14,2.86,2.86,0,0,0,0,2.49,1.41,1.41,0,0,0,1.47.83,1.43,1.43,0,0,0,1.34-1A8.85,8.85,0,0,0,337.52,79.76Z"/><path class="cls-20" d="M320,114.15c.61.1,1.21.15,1.79.3a4,4,0,0,1,3.18,4.15,4.13,4.13,0,0,1-3.25,4.12,7.07,7.07,0,0,1-3.33,0,4.26,4.26,0,0,1-.17-8.3A17.39,17.39,0,0,1,320,114.15Zm-1.68,4.27a8.76,8.76,0,0,0,.24,1.26,1.53,1.53,0,0,0,2.82.11,3,3,0,0,0,0-2.49,1.35,1.35,0,0,0-1.35-.81,1.4,1.4,0,0,0-1.36.81A7.32,7.32,0,0,0,318.27,118.42Z"/><path class="cls-19" d="M380.47,119.13l1.56-4.68h3.37l-3.61,8.27h-3c-1.15-2.68-2.33-5.42-3.55-8.28h3.46c.5,1.52,1,3.09,1.53,4.65Z"/><path class="cls-21" d="M313.77,116.64l-1.76.17c0,1,0,1.93,0,2.87s.17,1,1.12.95c.17,0,.33,0,.57-.07.09.67.17,1.3.26,2a6.31,6.31,0,0,1-3.79.18,1.68,1.68,0,0,1-1.33-1.42,22.13,22.13,0,0,1-.21-2.43c0-.64,0-1.29,0-2l-1.13-.28V114.5l1.08-.27.1-1.4,3.27-1.57v3l1.81.19Z"/><path class="cls-20" d="M402.48,95.05l1-.18.17-1.46,3.26-1.56v3l1.8.19v2.18L407,97.4c0,.94,0,1.87,0,2.8s.17,1.07,1.19,1l.51-.06c.08.67.16,1.33.25,2.16a26.6,26.6,0,0,1-2.73.2,2.28,2.28,0,0,1-2.56-2.45c-.06-.73,0-1.47,0-2.2V97.43l-1.12-.23Z"/><path class="cls-24" d="M391.59,83.87V72.55h3.49a81.85,81.85,0,0,1,.09,11.32Z"/><path class="cls-21" d="M402.08,119.07h-2.77a3.05,3.05,0,0,1,1.13-2.79c.46-.38.93-.76,1.37-1.17s.65-.75.27-1.24a1,1,0,0,0-1.38-.23,8.13,8.13,0,0,0-1.2,1.48l-2.82-.34c.17-2,1.22-3.37,3-3.63a9,9,0,0,1,3.07,0,4.63,4.63,0,0,1,2.1,1.15,2.61,2.61,0,0,1,.08,3.72c-.4.44-.92.77-1.33,1.21S402.68,118.33,402.08,119.07Z"/><path class="cls-25" d="M338.28,91.9h3.27v11.39h-3.27Z"/><path class="cls-24" d="M343.87,91.94h3.24v11.33h-3.24Z"/><path class="cls-24" d="M299.36,103.28V95.06h3.1a43.77,43.77,0,0,1,.09,8.22Z"/><path class="cls-22" d="M402.49,120v2.69h-3.23V120Z"/><path class="cls-25" d="M299.4,91.92h3.2v2h-3.2Z"/><path class="cls-26" d="M310.52,99.25a4.29,4.29,0,0,1-.14.93,1.26,1.26,0,0,1-1.25.93,1.15,1.15,0,0,1-1.26-.89,5,5,0,0,1-.06-1.76,1.16,1.16,0,0,1,1.32-1.12,1.36,1.36,0,0,1,1.32,1.18C310.49,98.73,310.49,99,310.52,99.25Z"/><path class="cls-26" d="M335.46,118.83c0-1.45.51-2.09,1.46-2.08a1.15,1.15,0,0,1,1.13.71,2.58,2.58,0,0,1-.05,2.36,1.82,1.82,0,0,1-1.13.69,1.11,1.11,0,0,1-1.22-.77A3.87,3.87,0,0,1,335.46,118.83Z"/><path class="cls-26" d="M369.19,79.88a7.93,7.93,0,0,1-.32,1.13,1.21,1.21,0,0,1-1.27.7,1,1,0,0,1-1.07-.78,5.81,5.81,0,0,1-.16-1.76,1.22,1.22,0,0,1,1.25-1.23A1.36,1.36,0,0,1,369,79,8,8,0,0,1,369.19,79.88Z"/><path class="cls-26" d="M332.87,99.57c-.06,1.52-.93,2.32-2.12,2a1,1,0,0,1-.68-.61c0-.24.27-.55.48-.79a1,1,0,0,1,.47-.2C331.59,99.86,332.17,99.73,332.87,99.57Z"/><path class="cls-26" d="M371.14,118.93c0,1.55-.88,2.36-2.07,2.09a1,1,0,0,1-.7-.6.92.92,0,0,1,.46-.78A23.63,23.63,0,0,1,371.14,118.93Z"/><path class="cls-26" d="M386.46,99.54c.08,1.54-.87,2.41-2.09,2a1.13,1.13,0,0,1-.65-.65c-.05-.17.22-.58.44-.67C384.87,100,385.62,99.79,386.46,99.54Z"/><path class="cls-26" d="M322,98.13h-3c.24-1,.61-1.32,1.56-1.3S321.74,97.09,322,98.13Z"/><path class="cls-26" d="M349.28,117.52h-3c.37-1.08.68-1.32,1.62-1.29S349,116.44,349.28,117.52Z"/><path class="cls-26" d="M392,117.55h-2.91c.16-1,.45-1.27,1.32-1.32S391.67,116.43,392,117.55Z"/><path class="cls-26" d="M377.45,79.76c0-1.05.39-1.77,1.08-2a1.56,1.56,0,0,1,1.74.49,3,3,0,0,1,.07,2.94,1.52,1.52,0,0,1-1.69.63C377.87,81.59,377.45,80.87,377.45,79.76Z"/><path class="cls-26" d="M337.52,79.76a8.85,8.85,0,0,1-.21,1,1.43,1.43,0,0,1-1.34,1A1.41,1.41,0,0,1,334.5,81a2.86,2.86,0,0,1,0-2.49,1.54,1.54,0,0,1,2.82.14A7.26,7.26,0,0,1,337.52,79.76Z"/><path class="cls-26" d="M318.27,118.42a7.32,7.32,0,0,1,.32-1.12,1.4,1.4,0,0,1,1.36-.81,1.35,1.35,0,0,1,1.35.81,3,3,0,0,1,0,2.49,1.53,1.53,0,0,1-2.82-.11A8.76,8.76,0,0,1,318.27,118.42Z"/></g><g id="bubble2"><path class="cls-18" d="M217.92,0a2.37,2.37,0,0,0,.69.24,31.55,31.55,0,0,1,10,2.27,47.43,47.43,0,0,1,12.58,7.22,58.9,58.9,0,0,1,8.18,7.68,78.36,78.36,0,0,1,10.2,14.36A89.55,89.55,0,0,1,266,46.1a75.21,75.21,0,0,1,2.8,10.42,55.43,55.43,0,0,1,.85,11.15,39.31,39.31,0,0,1-4.43,18.21,30.45,30.45,0,0,1-9.49,10.87,35.31,35.31,0,0,1-13.46,5.63,43.34,43.34,0,0,1-5.09.59,38.35,38.35,0,0,1-5,.24c-2.43-.12-4.86-.37-7.27-.71-3.18-.45-6.33-1.11-9.5-1.54-2.21-.31-4.44-.37-6.66-.57-6.06-.56-12.14-.18-18.21-.22-2.43,0-4.87.3-7.31.47H183c-5.08.09-10.17.37-15.23.2a28.51,28.51,0,0,1-13-3.07,17.33,17.33,0,0,1-5.82-5.15,25.63,25.63,0,0,1-4.18-10.3c-.43-2.09-.56-4.24-.82-6.36a4.41,4.41,0,0,0,0-.9,4.8,4.8,0,0,1,0-2.41c.2-1.22.19-2.48.3-3.71a42,42,0,0,1,2.5-10.49,70.66,70.66,0,0,1,6.27-13,100,100,0,0,1,6.91-9.93c1.73-2.19,3.61-4.25,5.47-6.33,1.35-1.51,2.71-3,4.17-4.41,3.16-3,6.43-5.93,9.86-8.66a100.76,100.76,0,0,1,11.33-7.85c5.29-3.14,10.75-6,16.83-7.33,1.54-.35,3.12-.47,4.69-.71A4.84,4.84,0,0,0,213,0ZM177.74,40.32l-.24,0q-.58-2.82-1.16-5.62h-3.52c.89,3.87,1.76,7.62,2.63,11.38h3.64c.79-2.16,1.19-4.43,2.25-6.52.64,2.17,1.27,4.35,1.91,6.52h3.68c.86-3.78,1.72-7.53,2.6-11.39h-3.47c-.57,1.87-.66,3.83-1.36,5.94-.65-2.2-1.2-4.09-1.75-6h-3.54C178.85,36.54,178.29,38.43,177.74,40.32Zm6.81,25.11h3c.54-1.55,1.06-3.06,1.67-4.83.65,1.83,1.19,3.36,1.72,4.84h3c1-2.75,2.06-5.46,3.12-8.27H194l-1.28,4.57-.27,0c-.55-1.52-1.09-3-1.63-4.57h-3c-.67,1.56-1,3.21-1.8,4.87-.48-1.78-.9-3.31-1.32-4.86h-3.24C182.48,60,183.51,62.71,184.55,65.43Zm19.18,19.42a81.21,81.21,0,0,0,0-11.36h-3.23v3.67c-.42-.22-.71-.4-1-.53a3.55,3.55,0,0,0-4.93,2.3,5.67,5.67,0,0,0,.25,4,3.36,3.36,0,0,0,4.38,1.88,7.74,7.74,0,0,0,1.21-.7c.06,0,.16,0,.29,0l.2.71ZM234.92,46V34.65h-3.35v3.72c-.42-.24-.67-.4-.94-.52a3.56,3.56,0,0,0-5,2.44,5.66,5.66,0,0,0,.37,4,3.25,3.25,0,0,0,3.85,1.83,12.52,12.52,0,0,0,1.92-.83L232,46Zm-38.11,0h3.31c0-2.08.1-4.1,0-6.1-.1-1.55-1.14-2.31-2.7-2.38a4.78,4.78,0,0,0-3,1.06V34.68h-3.31V46h3.31c0-1.35,0-2.63,0-3.91a4.27,4.27,0,0,1,.26-1.38,1.09,1.09,0,0,1,1.28-.63.93.93,0,0,1,.84,1c0,.43,0,.86,0,1.29C196.82,43.55,196.81,44.75,196.81,46Zm5.28-5.86c1.3,0,2.55.76,3.78-.41.32-.3,1.15-.12,1.73-.05.17,0,.29.43.53.81l-2.5.64c-.79.2-1.61.32-2.38.58a2.1,2.1,0,0,0-1.51,2.16A2.22,2.22,0,0,0,203.35,46a4.38,4.38,0,0,0,1.78.23c1-.16,2-.5,3.15-.79,0,.66.56.67,1.16.65s1.45,0,2.09,0c-.07-.9-.16-1.66-.19-2.42,0-1,0-2.07,0-3.1a2.63,2.63,0,0,0-1.94-2.74,10.3,10.3,0,0,0-5.37,0A2.43,2.43,0,0,0,202.09,40.15ZM204,59.86c-.73.21-1.17.36-1.62.47-1,.24-2,.4-3,.69a2.16,2.16,0,0,0-1.85,2.3,2.3,2.3,0,0,0,2,2.19,5.23,5.23,0,0,0,4.38-.88c.23.83.81.91,1.5.86s1.28,0,1.83,0c0-1.16-.11-2.22-.14-3.27,0-.82,0-1.64,0-2.46a2.57,2.57,0,0,0-2-2.56,10.61,10.61,0,0,0-5.25,0,2.51,2.51,0,0,0-2,2.27,6.2,6.2,0,0,0,.69.13c1.07,0,2.16.47,3.14-.49.3-.29,1.07-.14,1.61-.08C203.44,59.08,203.6,59.44,204,59.86Zm8.41,5.58c0-1.11,0-2.18,0-3.24a10.26,10.26,0,0,1,.11-1.67,1.12,1.12,0,0,1,1.24-1.05c.68,0,1,.36,1.08,1.18,0,.38,0,.77,0,1.16v3.57h3.36c0-2,.05-3.87,0-5.75a2.61,2.61,0,0,0-2.83-2.7,3.66,3.66,0,0,0-2.71,1,1.52,1.52,0,0,1-.36.17l-.21-.91h-3v8.28Zm-2,10.82a15.68,15.68,0,0,0-2.16.48,4.24,4.24,0,0,0,.06,7.94,6.38,6.38,0,0,0,4.31,0,4.1,4.1,0,0,0,2.89-4.14,4,4,0,0,0-3.2-4C211.69,76.43,211.09,76.38,210.37,76.26Zm31.11-38.8a14.81,14.81,0,0,0-1.9.35,4.26,4.26,0,0,0-.1,8.13,6.47,6.47,0,0,0,4.19,0,4.11,4.11,0,0,0,2.85-4.17,4,4,0,0,0-3.12-3.95C242.78,37.62,242.13,37.56,241.48,37.46Zm3.58,28.3a18.31,18.31,0,0,0,2.27-.53,4.26,4.26,0,0,0-.1-8,6.66,6.66,0,0,0-4.32,0,4.2,4.2,0,0,0-2.89,4,4.07,4.07,0,0,0,2.76,4A18,18,0,0,0,245.06,65.76ZM213.53,40.15c0,.55,0,1.06,0,1.57,0,.73,0,1.46.05,2.19a2.2,2.2,0,0,0,2.4,2.31,27.18,27.18,0,0,0,2.89-.17l-.26-2.17-.87.09a.69.69,0,0,1-.83-.75c0-1,0-2,0-3.1l1.73-.17V37.74l-1.72-.14V34.55l-3.34,1.59-.11,1.39-1.07.3v2.11ZM224.12,57V54l-3.25,1.56L220.69,57l-1.05.24v2.12l1.14.24c0,.56,0,1,0,1.5a22.2,22.2,0,0,0,.09,2.45,2.05,2.05,0,0,0,2.06,2.07,6.06,6.06,0,0,0,3.17-.31l-.24-2-.81.09c-.52,0-.86-.17-.87-.7,0-1.06,0-2.11,0-3.17l1.75-.14V57.15Zm14.69,6.28-.59.06c-.94,0-1.09-.06-1.12-1s0-1.87,0-2.86l1.76-.18v-2.2L237,57V54l-3.24,1.56L233.63,57l-1,.25v2.1l1.13.27c0,.73,0,1.37,0,2a21.74,21.74,0,0,0,.21,2.42,1.68,1.68,0,0,0,1.33,1.43,6.27,6.27,0,0,0,3.78-.17Zm-64.45,2.14V54.07a14.5,14.5,0,0,0-3.61,0V65.43ZM222.11,81.2c.6-.74,1-1.31,1.5-1.82s.94-.77,1.33-1.22a2.6,2.6,0,0,0-.07-3.71,4.63,4.63,0,0,0-2.1-1.15,9,9,0,0,0-3.07,0c-1.77.26-2.82,1.58-3,3.62l2.82.35a8.13,8.13,0,0,1,1.19-1.48,1,1,0,0,1,1.39.23c.38.48.1.9-.27,1.24s-.91.79-1.37,1.17a3.05,3.05,0,0,0-1.13,2.79Zm-2.83.9v2.71h3.2V82.1Z"/><path class="cls-24" d="M177.74,40.32c.55-1.89,1.11-3.78,1.67-5.69H183c.55,1.87,1.1,3.76,1.75,6,.7-2.11.79-4.07,1.36-5.94h3.47c-.88,3.86-1.74,7.61-2.6,11.39h-3.68c-.64-2.17-1.27-4.35-1.91-6.52-1.06,2.09-1.46,4.36-2.25,6.52h-3.64c-.87-3.76-1.74-7.51-2.63-11.38h3.52q.57,2.81,1.16,5.62Z"/><path class="cls-19" d="M184.55,65.43c-1-2.72-2.07-5.44-3.16-8.27h3.24c.42,1.55.84,3.08,1.32,4.86.84-1.66,1.13-3.31,1.8-4.87h3c.54,1.52,1.08,3.05,1.63,4.57l.27,0L194,57.17h3.19c-1.06,2.81-2.09,5.52-3.12,8.27h-3c-.53-1.48-1.07-3-1.72-4.84-.61,1.77-1.13,3.28-1.67,4.83Z"/><path class="cls-20" d="M203.73,84.85h-2.82l-.2-.71c-.13,0-.23,0-.29,0a7.74,7.74,0,0,1-1.21.7A3.36,3.36,0,0,1,194.83,83a5.67,5.67,0,0,1-.25-4,3.55,3.55,0,0,1,4.93-2.3c.3.13.59.31,1,.53V73.49h3.23A81.21,81.21,0,0,1,203.73,84.85Zm-6-4.23c0,1,.28,1.71.92,1.95a1.36,1.36,0,0,0,1.59-.5,2.62,2.62,0,0,0-.07-2.69,1.39,1.39,0,0,0-1.63-.4A1.67,1.67,0,0,0,197.72,80.62Z"/><path class="cls-20" d="M234.92,46H232l-.26-.72a12.52,12.52,0,0,1-1.92.83A3.25,3.25,0,0,1,226,44.31a5.66,5.66,0,0,1-.37-4,3.56,3.56,0,0,1,5-2.44c.27.12.52.28.94.52V34.65h3.35Zm-3.28-4a7.56,7.56,0,0,0-.1-.76,1.4,1.4,0,0,0-1.47-1.18c-.72,0-1.19.48-1.26,1.36a4.87,4.87,0,0,0,.13,1.52,1.12,1.12,0,0,0,1.13.89A1.26,1.26,0,0,0,231.4,43,7.56,7.56,0,0,0,231.64,42Z"/><path class="cls-24" d="M196.81,46c0-1.26,0-2.46,0-3.66,0-.43,0-.86,0-1.29a.93.93,0,0,0-.84-1,1.09,1.09,0,0,0-1.28.63,4.27,4.27,0,0,0-.26,1.38c0,1.28,0,2.56,0,3.91h-3.31V34.68h3.31v3.91a4.78,4.78,0,0,1,3-1.06c1.56.07,2.6.83,2.7,2.38.13,2,0,4,0,6.1Z"/><path class="cls-21" d="M202.09,40.15a2.43,2.43,0,0,1,1.92-2.3,10.3,10.3,0,0,1,5.37,0,2.63,2.63,0,0,1,1.94,2.74c.05,1,0,2.06,0,3.1,0,.76.12,1.52.19,2.42-.64,0-1.37,0-2.09,0s-1.15,0-1.16-.65c-1.11.29-2.12.63-3.15.79a4.38,4.38,0,0,1-1.78-.23,2.22,2.22,0,0,1-1.61-2.11,2.1,2.1,0,0,1,1.51-2.16c.77-.26,1.59-.38,2.38-.58l2.5-.64c-.24-.38-.36-.79-.53-.81-.58-.07-1.41-.25-1.73.05C204.64,40.91,203.39,40.11,202.09,40.15ZM208,42.26c-.82.23-1.52.41-2.21.62-.4.12-.7.37-.63.84s.53.63,1,.65C207.31,44.42,208,43.75,208,42.26Z"/><path class="cls-22" d="M204,59.86c-.36-.42-.52-.78-.72-.8-.54-.06-1.31-.21-1.61.08-1,1-2.07.54-3.14.49a6.2,6.2,0,0,1-.69-.13,2.51,2.51,0,0,1,2-2.27,10.61,10.61,0,0,1,5.25,0,2.57,2.57,0,0,1,2,2.56c.05.82,0,1.64,0,2.46,0,1.05.09,2.11.14,3.27-.55,0-1.2,0-1.83,0s-1.27,0-1.5-.86a5.23,5.23,0,0,1-4.38.88,2.3,2.3,0,0,1-2-2.19,2.16,2.16,0,0,1,1.85-2.3c1-.29,2-.45,3-.69C202.79,60.22,203.23,60.07,204,59.86Zm-.33,1.81c-.83.25-1.58.44-2.29.72-.22.09-.49.5-.44.68a1.13,1.13,0,0,0,.66.64C202.79,64.07,203.73,63.2,203.63,61.67Z"/><path class="cls-24" d="M212.37,65.44h-3.31V57.16h3l.21.91a1.52,1.52,0,0,0,.36-.17,3.66,3.66,0,0,1,2.71-1,2.61,2.61,0,0,1,2.83,2.7c.07,1.88,0,3.77,0,5.75h-3.36V61.82c0-.39,0-.78,0-1.16-.07-.82-.4-1.17-1.08-1.18a1.12,1.12,0,0,0-1.24,1.05,10.26,10.26,0,0,0-.11,1.67C212.36,63.26,212.37,64.33,212.37,65.44Z"/><path class="cls-20" d="M210.37,76.26c.72.12,1.32.17,1.9.31a4,4,0,0,1,3.2,4,4.1,4.1,0,0,1-2.89,4.14,6.38,6.38,0,0,1-4.31,0,4.24,4.24,0,0,1-.06-7.94A15.68,15.68,0,0,1,210.37,76.26Zm1.75,4.44A6.62,6.62,0,0,0,212,80a1.46,1.46,0,0,0-1.48-1.34A1.44,1.44,0,0,0,209,79.85a4.86,4.86,0,0,0,.08,1.9,1.38,1.38,0,0,0,1.57,1A1.48,1.48,0,0,0,212,81.61,8.23,8.23,0,0,0,212.12,80.7Z"/><path class="cls-20" d="M241.48,37.46c.65.1,1.3.16,1.92.32a4,4,0,0,1,3.12,3.95,4.11,4.11,0,0,1-2.85,4.17,6.47,6.47,0,0,1-4.19,0,4.26,4.26,0,0,1,.1-8.13A14.81,14.81,0,0,1,241.48,37.46Zm1.69,4.42a6.79,6.79,0,0,0-.11-.75,1.47,1.47,0,0,0-1.49-1.32A1.42,1.42,0,0,0,240,41.05a4.81,4.81,0,0,0,.08,1.89,1.4,1.4,0,0,0,1.58,1A1.5,1.5,0,0,0,243,42.79C243.1,42.5,243.12,42.19,243.17,41.88Z"/><path class="cls-20" d="M245.06,65.76a18,18,0,0,1-2.28-.5,4.07,4.07,0,0,1-2.76-4,4.2,4.2,0,0,1,2.89-4,6.66,6.66,0,0,1,4.32,0,4.26,4.26,0,0,1,.1,8A18.31,18.31,0,0,1,245.06,65.76Zm-1.67-4.53c0,1.29.57,2.1,1.54,2.16s1.71-.73,1.71-2.1-.63-2.14-1.71-2.08S243.41,60,243.39,61.23Z"/><path class="cls-21" d="M213.53,40.15l-1.12-.21V37.83l1.07-.3.11-1.39,3.34-1.59V37.6l1.72.14V40l-1.73.17c0,1.06,0,2.08,0,3.1a.69.69,0,0,0,.83.75l.87-.09.26,2.17a27.18,27.18,0,0,1-2.89.17,2.2,2.2,0,0,1-2.4-2.31c-.08-.73,0-1.46-.05-2.19C213.53,41.21,213.53,40.7,213.53,40.15Z"/><path class="cls-20" d="M224.12,57l1.8.14v2.22l-1.75.14c0,1.06,0,2.11,0,3.17,0,.53.35.75.87.7l.81-.09.24,2a6.06,6.06,0,0,1-3.17.31,2.05,2.05,0,0,1-2.06-2.07,22.2,22.2,0,0,1-.09-2.45c0-.47,0-.94,0-1.5l-1.14-.24V57.21l1.05-.24.18-1.43L224.12,54Z"/><path class="cls-21" d="M238.81,63.29l.23,2a6.27,6.27,0,0,1-3.78.17A1.68,1.68,0,0,1,233.93,64a21.74,21.74,0,0,1-.21-2.42c0-.65,0-1.29,0-2l-1.13-.27v-2.1l1-.25.17-1.43L237,54v3l1.81.19v2.2l-1.76.18c0,1,0,1.93,0,2.86s.18,1,1.12,1Z"/><path class="cls-24" d="M174.36,65.43h-3.61V54.12a14.5,14.5,0,0,1,3.61,0Z"/><path class="cls-21" d="M222.11,81.2h-2.77a3.05,3.05,0,0,1,1.13-2.79c.46-.38.93-.76,1.37-1.17s.65-.76.27-1.24a1,1,0,0,0-1.39-.23,8.13,8.13,0,0,0-1.19,1.48l-2.82-.35c.17-2,1.22-3.36,3-3.62a9,9,0,0,1,3.07,0,4.63,4.63,0,0,1,2.1,1.15,2.6,2.6,0,0,1,.07,3.71c-.39.45-.92.78-1.33,1.22S222.71,80.46,222.11,81.2Z"/><path class="cls-22" d="M219.28,82.1h3.2v2.71h-3.2Z"/><path class="cls-26" d="M197.72,80.62a1.67,1.67,0,0,1,.81-1.64,1.39,1.39,0,0,1,1.63.4,2.62,2.62,0,0,1,.07,2.69,1.36,1.36,0,0,1-1.59.5C198,82.33,197.69,81.67,197.72,80.62Z"/><path class="cls-26" d="M231.64,42a7.56,7.56,0,0,1-.24,1,1.26,1.26,0,0,1-1.33.82,1.12,1.12,0,0,1-1.13-.89,4.87,4.87,0,0,1-.13-1.52c.07-.88.54-1.34,1.26-1.36a1.4,1.4,0,0,1,1.47,1.18A7.56,7.56,0,0,1,231.64,42Z"/><path class="cls-26" d="M208,42.26c-.06,1.49-.7,2.16-1.87,2.11-.44,0-.88-.1-1-.65s.23-.72.63-.84C206.49,42.67,207.19,42.49,208,42.26Z"/><path class="cls-26" d="M203.63,61.67c.1,1.53-.84,2.4-2.07,2a1.13,1.13,0,0,1-.66-.64c-.05-.18.22-.59.44-.68C202.05,62.11,202.8,61.92,203.63,61.67Z"/><path class="cls-26" d="M212.12,80.7a8.23,8.23,0,0,1-.15.91,1.48,1.48,0,0,1-1.35,1.18,1.38,1.38,0,0,1-1.57-1,4.86,4.86,0,0,1-.08-1.9,1.44,1.44,0,0,1,1.56-1.23A1.46,1.46,0,0,1,212,80,6.62,6.62,0,0,1,212.12,80.7Z"/><path class="cls-26" d="M243.17,41.88c0,.31-.07.62-.14.91A1.5,1.5,0,0,1,241.68,44a1.4,1.4,0,0,1-1.58-1,4.81,4.81,0,0,1-.08-1.89,1.42,1.42,0,0,1,1.55-1.24,1.47,1.47,0,0,1,1.49,1.32A6.79,6.79,0,0,1,243.17,41.88Z"/><path class="cls-26" d="M243.39,61.23c0-1.21.59-2,1.54-2s1.71.7,1.71,2.08-.64,2.16-1.71,2.1S243.38,62.52,243.39,61.23Z"/></g><g id="bubble1"><path class="cls-18" d="M84.71,201.54c-1.29,0-2.59.06-3.88,0-2.14-.11-4.28-.26-6.4-.49-2.72-.3-5.45-.62-8.15-1.08-2-.34-3.93-.86-5.88-1.38a86.5,86.5,0,0,1-10-3.39,77.41,77.41,0,0,1-10.12-5.12A62.55,62.55,0,0,1,31,183.37c-2.36-2.06-4.49-4.38-6.69-6.62a54.61,54.61,0,0,1-6.89-9,67,67,0,0,1-5.27-10A63.2,63.2,0,0,1,8.3,145.6c-.43-2.14-.72-4.3-1-6.46-.24-1.92-.44-3.84-.49-5.76a26,26,0,0,1,.29-4.75,45.13,45.13,0,0,1,1.92-8,39.72,39.72,0,0,1,5.85-10.86A59.19,59.19,0,0,1,20,103.86a58.64,58.64,0,0,1,11.72-9A74.09,74.09,0,0,1,48,87.71a66.19,66.19,0,0,1,10.52-2.38,59.66,59.66,0,0,1,7.67-.77c2,0,4-.28,5.92-.2,2.47.11,4.94.44,7.41.7a75.07,75.07,0,0,1,15.36,3.68A98.52,98.52,0,0,1,111.28,96a103.38,103.38,0,0,1,13.24,8.69,96.64,96.64,0,0,1,11.77,11,65,65,0,0,1,8.28,11.15,63.89,63.89,0,0,1,5.05,10.59,53.83,53.83,0,0,1,2.51,9.56,41.52,41.52,0,0,1,.56,10,39.9,39.9,0,0,1-4.83,17,42.48,42.48,0,0,1-5.6,7.69A52.16,52.16,0,0,1,125,193.77a73,73,0,0,1-17.14,5.47c-2,.37-4,.87-6,1.19-1.81.28-3.66.41-5.49.59s-3.49.33-5.24.48c-.34,0-.69,0-1,0ZM53.32,115.45H49.79l-1.15,5.73-.2,0-1.73-5.78H43.2c-.68,1.92-1,3.91-1.87,6l-1.21-6H36.58l2.64,11.38H42.9l2.05-7,2.09,7H50.7C51.57,123.09,52.43,119.32,53.32,115.45ZM42.9,165.71l3.15-8.34H42.88c-.6,1.56-.73,3.19-1.48,4.87l-1.75-4.89h-3L35,162.09l-.2,0-1.29-4.72H30.27l3.18,8.33h3l1.67-4.81,1.74,4.84Zm63.29-11.47a78.74,78.74,0,0,0,.09,11.46h2.79l.29-.89c.21.17.34.28.48.38a3.47,3.47,0,0,0,5.44-1.77,6,6,0,0,0,.22-3.19,3.57,3.57,0,0,0-5.09-2.73l-1,.44v-3.7Zm-59.75-8.55c.42.2.71.36,1,.49a3.52,3.52,0,0,0,4.94-2.46,7.23,7.23,0,0,0,0-2.93c-.65-3-3.35-3.92-5.83-2.12a1.22,1.22,0,0,1-.34.1L46,138H43.11v11.49h3.33Zm70.3-7.06c-.43-.24-.64-.37-.87-.48a3.54,3.54,0,0,0-5.19,2.52,6.78,6.78,0,0,0,0,2.8c.68,3,3.32,3.9,5.82,2.11.09-.07.23-.06.35-.09l.21.78H120V134.88h-3.28ZM58.15,119.46v-4H54.84v11.39h3.33v-1.63c0-1,0-2,.06-3s.55-1.38,1.24-1.39,1.09.47,1.12,1.43,0,1.89,0,2.84c0,.58,0,1.16,0,1.72h3.3c0-2.09.08-4.11,0-6.11a2.47,2.47,0,0,0-2.58-2.38A4.38,4.38,0,0,0,58.15,119.46ZM67,165.73c0-2.14.08-4.16,0-6.17a2.45,2.45,0,0,0-2.48-2.36,3.8,3.8,0,0,0-3,.88,1.14,1.14,0,0,1-.35.18l-.27-.9h-3v8.32h3.35c0-.89,0-1.7,0-2.51a22.49,22.49,0,0,1,.09-2.32,1.22,1.22,0,0,1,1.31-1.15c.61.05,1,.46,1,1.27,0,1.21,0,2.42,0,3.63,0,.36.06.73.09,1.13Zm-14.39-5.6c-.62.19-1.22.38-1.82.53a26.9,26.9,0,0,0-3.12.8A2.1,2.1,0,0,0,47,165a3.54,3.54,0,0,0,1.81.85,4.71,4.71,0,0,0,3.87-.89c.32.3.59.77.91.8a8.62,8.62,0,0,0,2.54,0c-.05-1-.12-1.85-.14-2.7s0-1.89,0-2.84a2.51,2.51,0,0,0-1.73-2.6,9.7,9.7,0,0,0-5.84,0,2.22,2.22,0,0,0-1.63,2.21c.37,0,.67.07,1,.07,1,0,1.92.35,2.86-.51C51.29,158.73,52.21,159.15,52.65,160.13ZM75.26,127c-.07-1.08-.13-1.93-.16-2.78s0-1.9,0-2.84a2.58,2.58,0,0,0-2-2.69,10.58,10.58,0,0,0-5.36.06A2.49,2.49,0,0,0,65.83,121c.38,0,.71.11,1,.12,1,0,1.92.36,2.86-.51.71-.66,1.64-.22,2.06.77-.62.18-1.22.36-1.83.52a24.43,24.43,0,0,0-3.11.8,2.12,2.12,0,0,0-.64,3.59,3.42,3.42,0,0,0,1.73.75,4.72,4.72,0,0,0,3.82-.86c.39.3.72.73,1.09.78A16.18,16.18,0,0,0,75.26,127Zm22,11h-3a47.71,47.71,0,0,0,.13,8.29h3.17c0-1.34,0-2.62,0-3.9a2.92,2.92,0,0,1,.31-1.48,1.67,1.67,0,0,1,1.17-.57c.52,0,.84.39.88.92s.05,1,.05,1.55c0,1.15,0,2.29,0,3.46h3.35c0-2.06.09-4,0-6-.1-1.63-1.09-2.4-2.73-2.48A4.22,4.22,0,0,0,97.5,139ZM63.7,142.8c.12-2.76-.91-4.43-3.09-4.82a10.85,10.85,0,0,0-3.46,0,4,4,0,0,0-3.42,4.21A3.93,3.93,0,0,0,57,146.3a13.25,13.25,0,0,0,3.72-.06,3.52,3.52,0,0,0,2.78-2.31c-1.42.09-2.64-.53-3.95.33-1.09.71-2.18,0-2.27-1.46Zm63,19.43c.25-2.54-.78-4.34-2.9-4.77a10.44,10.44,0,0,0-3.82-.07,4.3,4.3,0,0,0,0,8.32,8.58,8.58,0,0,0,4.09-.12,3.49,3.49,0,0,0,2.37-2.18c-1.3.11-2.53-.64-3.84.26-1,.72-2.13,0-2.29-1.44Zm-.07-15.7v-.07c.39,0,.78,0,1.16-.06a4.26,4.26,0,0,0,3.84-4.05,4.11,4.11,0,0,0-3.12-4.35,7.08,7.08,0,0,0-3.71,0,4.14,4.14,0,0,0-3.14,4.08,4.06,4.06,0,0,0,3.06,4.12A17.55,17.55,0,0,0,126.63,146.53Zm-39,0v-.11a9,9,0,0,0,1.16,0,4.23,4.23,0,0,0,3.91-3.82,4.08,4.08,0,0,0-3-4.54,6.8,6.8,0,0,0-3.82,0,4.18,4.18,0,0,0-3.14,4.1,4.1,4.1,0,0,0,3.12,4.1A17.22,17.22,0,0,0,87.6,146.52Zm-64.23,0v-.07c.39,0,.78,0,1.17-.06a4.26,4.26,0,0,0,3.85-4A4.09,4.09,0,0,0,25.3,138a7.08,7.08,0,0,0-3.71,0,4.17,4.17,0,0,0-3.17,4.07,4.05,4.05,0,0,0,3.06,4.13A15,15,0,0,0,23.37,146.53Zm80.92-19.42V127a11.22,11.22,0,0,0,1.16,0,4.26,4.26,0,0,0,3.92-4,4.09,4.09,0,0,0-3.15-4.44,6.88,6.88,0,0,0-3.71,0,4.14,4.14,0,0,0-3.11,4.11,4.08,4.08,0,0,0,3.11,4.09A17.2,17.2,0,0,0,104.29,127.11ZM93.8,165.92v-.1a9.14,9.14,0,0,0,1.17,0A4.25,4.25,0,0,0,98.89,162a4.1,4.1,0,0,0-3-4.55,6.84,6.84,0,0,0-3.83,0,4.17,4.17,0,0,0-3.14,4.1A4.1,4.1,0,0,0,92,165.61,15.24,15.24,0,0,0,93.8,165.92Zm-21.52-22c.45.66.75,1.16,1.12,1.61,1,1.25,6.14,1.28,7.45-.05a2.33,2.33,0,0,0-.61-3.94,10.53,10.53,0,0,0-2.11-.54c-.55-.11-1.12-.13-1.66-.28-.22-.06-.38-.36-.57-.55.22-.17.46-.48.67-.46a6.78,6.78,0,0,1,1.44.37c.27.08.53.29.79.28.81,0,1.61-.14,2.5-.23a2.45,2.45,0,0,0-1.7-2,8,8,0,0,0-5.32.11,2.17,2.17,0,0,0-1.47,2.22,2.23,2.23,0,0,0,1.64,2.1,21.15,21.15,0,0,0,2.26.51,10.64,10.64,0,0,1,1.38.32.84.84,0,0,1,.42.56c0,.13-.2.36-.36.47a1.57,1.57,0,0,1-1.91-.2c-.47-.7-1-.64-1.68-.56Zm25.51-23.19c-.29-1.13-.67-1.7-1.64-2a7.93,7.93,0,0,0-5.31.11,2.18,2.18,0,0,0-1.47,2.23A2.21,2.21,0,0,0,91,123.15c.73.24,1.5.35,2.26.52a9.21,9.21,0,0,1,1.38.32.83.83,0,0,1,.41.56c0,.13-.2.37-.37.47a1.86,1.86,0,0,1-2.12-.38,1.4,1.4,0,0,0-.83-.41c-.88,0-1.76.14-2.71.24a2.79,2.79,0,0,0,2,2.27,9.42,9.42,0,0,0,5,0,3.33,3.33,0,0,0,1-.5A2.35,2.35,0,0,0,98.22,124a2.16,2.16,0,0,0-1.54-1.89,15.35,15.35,0,0,0-2-.49c-.55-.11-1.12-.12-1.65-.28-.23-.06-.39-.36-.57-.56.23-.16.47-.47.68-.45a6.57,6.57,0,0,1,1.43.38c.24.07.46.29.67.28C96.09,120.91,96.94,120.8,97.79,120.72ZM30.36,140.34v5.94h3.32v-6l1.51-.11V138l-1.47-.17c0-1.49,1.21-.74,1.93-1.14l.3-1.84a8.48,8.48,0,0,0-3.63-.2,2.12,2.12,0,0,0-1.93,2c-.05.29,0,.6-.08.9a1.38,1.38,0,0,1-.12.34l-1,.16v2.16ZM82.42,124.7H80.84a20.38,20.38,0,0,1-.09-3.81l1.73-.12v-2.21l-1.8-.16v-3L77.38,117l-.13,1.42-1.07.18v2.13l1.14.27c0,.52,0,1,0,1.46,0,.86,0,1.72.09,2.58a1.87,1.87,0,0,0,1.37,1.84,7.07,7.07,0,0,0,3.84-.1ZM119.84,121c0,1.41,0,2.7,0,4a1.82,1.82,0,0,0,1.19,1.84,6.53,6.53,0,0,0,4,0l-.28-2-.62,0c-.9,0-1,0-1-.89s0-2,0-3l1.73-.16v-2.22l-1.78-.09v-3.07L119.84,117l-.17,1.43-1,.22v2.12ZM69.68,159.73c0,.68,0,1.32,0,2,0,.86.09,1.72.2,2.57A1.6,1.6,0,0,0,71,165.6a6.64,6.64,0,0,0,4,0l-.27-2c-.23,0-.36,0-.48,0-1.11,0-1.18,0-1.21-1.12,0-.89,0-1.78,0-2.73l1.74-.12v-2.21L73,157.21v-3l-3.32,1.59-.08,1.42-1.1.18v2.16Zm18.08-2.36L86,157.21v-3l-3.28,1.58-.11,1.43-1.09.18v2.13l1.15.24c0,.72,0,1.36,0,2,0,.82.08,1.64.19,2.44a1.68,1.68,0,0,0,1.3,1.47,7.24,7.24,0,0,0,3.83-.11l-.25-2a2.63,2.63,0,0,1-1,0c-.28-.1-.68-.36-.7-.58-.07-1.1,0-2.2,0-3.31l1.75-.08Zm51.43-22.55v11.52a30.2,30.2,0,0,0,3.69-.06c0-3.9,0-7.67,0-11.46Zm-6,27.26c.66-.78,1.12-1.38,1.64-1.92s.93-.77,1.32-1.22a2.6,2.6,0,0,0,.13-3.33,4.06,4.06,0,0,0-1.47-1.2,5.93,5.93,0,0,0-4.88,0,3.69,3.69,0,0,0-2.15,3.34l3.08.36a9.9,9.9,0,0,1,.45-1.07,1.17,1.17,0,0,1,1.35-.52,1.09,1.09,0,0,1,.66.5c.22.52-.12.89-.5,1.21s-1,.82-1.46,1.27a2.6,2.6,0,0,0-.8,2.59Zm-15.35-43.29c-1.45-.67-2.61-.56-3.6.63l-.19-.87h-3v8.32h3.36c0-.88,0-1.69,0-2.5a13,13,0,0,1,.25-2.42c.23-.92.69-1.12,1.64-1l.55.08ZM68.23,138h-3v8.26h3.33c0-1.13,0-2.16,0-3.19a6.65,6.65,0,0,1,.26-1.77c.26-.84.69-1,1.56-1l.63.07.93-2.14c-1.51-.75-2.24-.65-3.56.5Zm65.42,27.71V163h-3.26v2.75Z"/><path class="cls-20" d="M53.51,115.41c-.88,3.87-1.75,7.63-2.62,11.44H47.23l-2.08-7-2.06,7H39.41l-2.63-11.38h3.54l1.21,6c.83-2.12,1.18-4.1,1.87-6h3.5l1.74,5.77.19,0L50,115.41Z"/><path class="cls-22" d="M43.09,165.67h-3l-1.74-4.85-1.67,4.81h-3l-3.18-8.33H33.7L35,162l.2,0,1.63-4.74h3l1.75,4.88c.75-1.68.89-3.31,1.48-4.86h3.18Z"/><path class="cls-19" d="M106.38,154.2h3.24v3.69l1-.44a3.58,3.58,0,0,1,5.1,2.74,6.12,6.12,0,0,1-.22,3.18,3.48,3.48,0,0,1-5.45,1.77l-.48-.38-.28.89h-2.8A80.05,80.05,0,0,1,106.38,154.2Zm6.1,7.31c0-.19,0-.4-.1-.61-.19-.86-.68-1.31-1.37-1.28a1.46,1.46,0,0,0-1.34,1.34,4.53,4.53,0,0,0,0,.9c.07,1,.56,1.56,1.35,1.59s1.22-.43,1.4-1.4C112.43,161.88,112.45,161.71,112.48,161.51Z"/><path class="cls-19" d="M46.64,145.64v3.77H43.3V137.92h2.93l.2.81a1.13,1.13,0,0,0,.34-.11c2.48-1.8,5.18-.86,5.84,2.12a7.41,7.41,0,0,1,0,2.93,3.5,3.5,0,0,1-4.93,2.46C47.35,146,47.06,145.84,46.64,145.64Zm2.84-3.7a5.23,5.23,0,0,0-.32-1.15,1.31,1.31,0,0,0-2.24-.09,2.71,2.71,0,0,0,0,2.59,1.35,1.35,0,0,0,1.34.59,1.15,1.15,0,0,0,1-.85A8.26,8.26,0,0,0,49.48,141.94Z"/><path class="cls-20" d="M116.94,138.58v-3.74h3.28v11.39H117.3l-.22-.79a1.21,1.21,0,0,0-.34.09c-2.51,1.79-5.15.87-5.83-2.11a7,7,0,0,1,0-2.8,3.53,3.53,0,0,1,5.18-2.51C116.29,138.21,116.51,138.35,116.94,138.58Zm-2.85,3.74a3,3,0,0,0,.08.64,1.34,1.34,0,0,0,2.62.07,2.82,2.82,0,0,0,.13-.76c.06-1.21-.54-2.05-1.47-2.06S114.07,141,114.09,142.32Z"/><path class="cls-25" d="M58.35,119.42a4.39,4.39,0,0,1,3.18-1.09,2.48,2.48,0,0,1,2.58,2.38c.11,2,0,4,0,6.12H60.84c0-.57,0-1.15-.05-1.73,0-.94,0-1.89,0-2.84s-.42-1.43-1.12-1.42-1.17.48-1.23,1.38,0,2-.06,3c0,.51,0,1,0,1.62H55V115.42h3.31Z"/><path class="cls-25" d="M67.24,165.68H64c0-.4-.09-.76-.09-1.13,0-1.21,0-2.42,0-3.62,0-.82-.39-1.23-1-1.28a1.2,1.2,0,0,0-1.3,1.15,22.58,22.58,0,0,0-.1,2.33c0,.81,0,1.62,0,2.51H58.13v-8.33h3l.28.91a1.9,1.9,0,0,0,.35-.18,3.79,3.79,0,0,1,3-.89,2.45,2.45,0,0,1,2.47,2.36C67.32,161.52,67.24,163.54,67.24,165.68Z"/><path class="cls-22" d="M52.85,160.09c-.44-1-1.37-1.41-2.08-.76-.94.85-1.89.53-2.87.51-.3,0-.59-.05-1-.08a2.23,2.23,0,0,1,1.63-2.21,9.7,9.7,0,0,1,5.84-.05,2.55,2.55,0,0,1,1.74,2.61c0,.94,0,1.89,0,2.84s.09,1.7.15,2.7a8.63,8.63,0,0,1-2.54,0c-.32,0-.59-.51-.91-.81a4.73,4.73,0,0,1-3.88.89,3.53,3.53,0,0,1-1.8-.84,2.1,2.1,0,0,1,.74-3.5,24.84,24.84,0,0,1,3.11-.79C51.63,160.46,52.23,160.27,52.85,160.09Zm-.16,1.79c-.78.24-1.56.43-2.3.73a.86.86,0,0,0-.4.71,1,1,0,0,0,.58.59C51.8,164.33,52.86,163.36,52.69,161.88Z"/><path class="cls-22" d="M75.45,126.9a17.48,17.48,0,0,1-2.4,0c-.38-.06-.7-.49-1.1-.78a4.75,4.75,0,0,1-3.82.86,3.57,3.57,0,0,1-1.72-.75,2.12,2.12,0,0,1,.63-3.6,25,25,0,0,1,3.12-.79c.61-.16,1.21-.35,1.83-.53-.42-1-1.35-1.42-2.06-.77-.94.87-1.89.54-2.87.51a8.31,8.31,0,0,1-1-.12,2.54,2.54,0,0,1,1.92-2.25,10.58,10.58,0,0,1,5.36-.05,2.55,2.55,0,0,1,2,2.68c0,1,0,1.9,0,2.84S75.39,125.82,75.45,126.9Zm-3.62-3.8c-.58.15-1.15.29-1.72.45a1,1,0,0,0-.48.17c-.21.24-.52.56-.48.8a1,1,0,0,0,.71.6C71.12,125.42,72,124.5,71.83,123.1Z"/><path class="cls-23" d="M97.47,138l.22,1a4.26,4.26,0,0,1,3.13-1.21c1.64.09,2.64.85,2.74,2.49.12,2,0,3.94,0,6h-3.35c0-1.17,0-2.32,0-3.47,0-.51,0-1,0-1.54s-.36-1-.89-.93a1.72,1.72,0,0,0-1.17.58,3.08,3.08,0,0,0-.31,1.47c0,1.28,0,2.56,0,3.91H94.64a45.84,45.84,0,0,1-.13-8.29Z"/><path class="cls-19" d="M63.9,142.75H57.52c.09,1.42,1.18,2.17,2.27,1.46,1.31-.85,2.53-.23,4-.33A3.56,3.56,0,0,1,61,146.2a13.57,13.57,0,0,1-3.71.06,3.94,3.94,0,0,1-3.32-4.15,4,4,0,0,1,3.42-4.22,10.85,10.85,0,0,1,3.46,0C63,138.32,64,140,63.9,142.75ZM57.46,141h3.07c-.44-1.06-.79-1.34-1.58-1.32S57.78,140,57.46,141Z"/><path class="cls-19" d="M126.89,162.18h-6.4c.17,1.41,1.24,2.16,2.29,1.44,1.31-.9,2.55-.15,3.85-.26a3.56,3.56,0,0,1-2.37,2.19,8.71,8.71,0,0,1-4.09.12,4,4,0,0,1-3.22-4.1,3.93,3.93,0,0,1,3.22-4.22,10.72,10.72,0,0,1,3.83.06C126.12,157.85,127.14,159.65,126.89,162.18Zm-3.46-1.7c-.19-1.06-.56-1.4-1.47-1.38s-1.29.38-1.46,1.44h2.18C122.93,160.53,123.18,160.5,123.43,160.48Z"/><path class="cls-21" d="M126.83,146.48a16.74,16.74,0,0,1-1.9-.33,4,4,0,0,1-3.07-4.12A4.16,4.16,0,0,1,125,138a7,7,0,0,1,3.71,0,4.11,4.11,0,0,1,3.12,4.34,4.26,4.26,0,0,1-3.84,4c-.38.05-.77,0-1.16.06Zm1.64-4.57a4.62,4.62,0,0,0-.19-.95,1.51,1.51,0,0,0-1.5-1c-.89,0-1.49.78-1.55,1.89-.07,1.31.43,2.15,1.37,2.29C127.74,144.3,128.46,143.51,128.47,141.91Z"/><path class="cls-20" d="M87.79,146.47a14.88,14.88,0,0,1-1.77-.31,4.12,4.12,0,0,1-3.12-4.09A4.17,4.17,0,0,1,86,138a6.83,6.83,0,0,1,3.83,0,4.1,4.1,0,0,1,3,4.54A4.26,4.26,0,0,1,89,146.36a11.22,11.22,0,0,1-1.16,0Zm-1.53-4.36c0,.25.06.51.12.76a1.55,1.55,0,0,0,3.06,0,4.62,4.62,0,0,0,0-1.53A1.55,1.55,0,0,0,88,140a1.59,1.59,0,0,0-1.6,1.38C86.31,141.59,86.3,141.85,86.26,142.11Z"/><path class="cls-21" d="M23.57,146.48a16.74,16.74,0,0,1-1.9-.33A4.06,4.06,0,0,1,18.62,142,4.15,4.15,0,0,1,21.79,138a6.94,6.94,0,0,1,3.7,0,4.11,4.11,0,0,1,3.11,4.36,4.26,4.26,0,0,1-3.86,4c-.38.05-.77,0-1.16.06ZM22,142.06a6.67,6.67,0,0,0,.06.67,1.56,1.56,0,0,0,1.56,1.42,1.45,1.45,0,0,0,1.55-1.4,4.32,4.32,0,0,0,0-1.39,1.52,1.52,0,0,0-1.44-1.4,1.64,1.64,0,0,0-1.64,1.36A6.43,6.43,0,0,0,22,142.06Z"/><path class="cls-21" d="M104.49,127.06a12.82,12.82,0,0,1-1.77-.3,4.06,4.06,0,0,1-3.11-4.09,4.14,4.14,0,0,1,3.11-4.11,7,7,0,0,1,3.71,0,4.11,4.11,0,0,1,3.15,4.44,4.25,4.25,0,0,1-3.92,4,9,9,0,0,1-1.16,0Zm1.73-4.41c0-1.27-.63-2.09-1.6-2.1s-1.71.91-1.64,2.32c.06,1.26.73,2,1.79,1.87S106.23,123.9,106.22,122.65Z"/><path class="cls-20" d="M94,165.88a17.22,17.22,0,0,1-1.77-.31,4.13,4.13,0,0,1-3.12-4.1,4.18,4.18,0,0,1,3.14-4.1,6.93,6.93,0,0,1,3.83,0,4.1,4.1,0,0,1,3,4.54,4.26,4.26,0,0,1-3.92,3.83,11.22,11.22,0,0,1-1.16,0Zm1.79-4.4a7.88,7.88,0,0,0-.27-1.16,1.39,1.39,0,0,0-1.39-.95,1.46,1.46,0,0,0-1.42.93,3.05,3.05,0,0,0,0,2.39,1.54,1.54,0,0,0,2.77,0A7.49,7.49,0,0,0,95.79,161.48Z"/><path class="cls-22" d="M72.48,143.86l2.27-.25c.65-.07,1.22-.14,1.68.56a1.57,1.57,0,0,0,1.91.2c.17-.1.39-.34.37-.47a.81.81,0,0,0-.43-.55A8.94,8.94,0,0,0,76.9,143c-.75-.17-1.52-.28-2.25-.52a2.2,2.2,0,0,1-1.64-2.1,2.17,2.17,0,0,1,1.47-2.22,7.93,7.93,0,0,1,5.31-.11,2.44,2.44,0,0,1,1.7,2c-.88.09-1.68.2-2.49.23-.26,0-.53-.2-.8-.28a7.34,7.34,0,0,0-1.43-.37c-.22,0-.45.3-.68.46.19.19.35.49.58.56.53.15,1.1.16,1.65.28a10.79,10.79,0,0,1,2.12.53,2.33,2.33,0,0,1,.61,3.94c-1.31,1.34-6.43,1.31-7.46.05C73.22,145,72.93,144.52,72.48,143.86Z"/><path class="cls-22" d="M98,120.67c-.86.09-1.7.2-2.55.24-.22,0-.44-.21-.67-.29a6.1,6.1,0,0,0-1.44-.37c-.21,0-.45.29-.68.45.19.19.35.5.57.56.53.15,1.11.17,1.65.28a14.94,14.94,0,0,1,2,.48,2.17,2.17,0,0,1,1.54,1.9,2.35,2.35,0,0,1-1.12,2.31,3.53,3.53,0,0,1-1,.49,9.46,9.46,0,0,1-5,0,2.78,2.78,0,0,1-2-2.27c1-.09,1.83-.22,2.72-.24a1.44,1.44,0,0,1,.83.42,1.83,1.83,0,0,0,2.11.37c.17-.1.4-.33.38-.46a.86.86,0,0,0-.42-.57,10.64,10.64,0,0,0-1.38-.32c-.75-.17-1.53-.28-2.26-.51a2.22,2.22,0,0,1-1.64-2.1A2.16,2.16,0,0,1,91,118.79a7.9,7.9,0,0,1,5.32-.12C97.31,119,97.69,119.54,98,120.67Z"/><path class="cls-22" d="M30.55,140.3l-1.2-.19v-2.17l1-.16a1.4,1.4,0,0,0,.13-.34c0-.3,0-.6.07-.9a2.15,2.15,0,0,1,1.93-2,8.47,8.47,0,0,1,3.63.2l-.3,1.84c-.71.4-1.92-.34-1.92,1.15l1.46.16v2.22l-1.5.1v6H30.55Z"/><path class="cls-22" d="M82.62,124.66l.21,2a7.08,7.08,0,0,1-3.84.11A1.89,1.89,0,0,1,77.61,125c-.06-.86-.07-1.72-.09-2.59,0-.47,0-.94,0-1.45l-1.14-.27v-2.14l1.07-.17.13-1.43,3.29-1.6v3l1.8.15v2.21l-1.72.12a21.37,21.37,0,0,0,.08,3.82Z"/><path class="cls-22" d="M120,120.91l-1.23-.22v-2.12l1-.22.17-1.43,3.28-1.6v3.07l1.78.09v2.22l-1.74.16c0,1,0,2,0,3s.12.9,1,.89l.62,0,.28,2a6.53,6.53,0,0,1-4.05,0,1.83,1.83,0,0,1-1.19-1.84C120,123.61,120,122.32,120,120.91Z"/><path class="cls-19" d="M69.87,159.69l-1.13-.18v-2.15l1.1-.19.07-1.42,3.32-1.59v3l1.75.17v2.2l-1.74.13c0,.94,0,1.83,0,2.73,0,1.08.1,1.14,1.2,1.11h.48l.28,2a6.56,6.56,0,0,1-4,.05,1.56,1.56,0,0,1-1.09-1.34c-.11-.85-.16-1.71-.2-2.57C69.85,161,69.87,160.37,69.87,159.69Z"/><path class="cls-19" d="M88,157.33v2.22l-1.74.09c0,1.1,0,2.21,0,3.31,0,.21.42.48.69.57a2.83,2.83,0,0,0,.95,0l.26,2a7.17,7.17,0,0,1-3.84.11A1.66,1.66,0,0,1,83,164.17c-.11-.81-.16-1.63-.19-2.44,0-.64,0-1.29,0-2l-1.15-.23v-2.13l1.09-.18.11-1.44,3.28-1.57v3Z"/><path class="cls-25" d="M139.39,134.78h3.66c0,3.79,0,7.55,0,11.45a30.06,30.06,0,0,1-3.68.07Z"/><path class="cls-23" d="M133.36,162h-2.62a2.58,2.58,0,0,1,.8-2.6c.46-.44,1-.85,1.46-1.26s.71-.7.49-1.21a1.05,1.05,0,0,0-.66-.5,1.14,1.14,0,0,0-1.34.52,9.65,9.65,0,0,0-.45,1.06l-3.09-.36a3.67,3.67,0,0,1,2.16-3.33,5.93,5.93,0,0,1,4.88,0,4.06,4.06,0,0,1,1.47,1.2,2.61,2.61,0,0,1-.14,3.33c-.39.45-.91.79-1.32,1.22S134,161.25,133.36,162Z"/><path class="cls-21" d="M118,118.74,117,121l-.55-.08c-1-.12-1.41.09-1.64,1a12.19,12.19,0,0,0-.25,2.42c0,.81,0,1.62,0,2.5h-3.35V118.5h3l.19.88A2.68,2.68,0,0,1,118,118.74Z"/><path class="cls-21" d="M68.43,137.94l.18.77c1.32-1.14,2-1.25,3.57-.49l-.94,2.14-.62-.08c-.88-.09-1.31.12-1.57,1a7.58,7.58,0,0,0-.26,1.78c0,1,0,2.06,0,3.19H65.45v-8.27Z"/><path class="cls-25" d="M133.85,165.65h-3.27V162.9h3.27Z"/><path class="cls-26" d="M112.48,161.51c0,.2,0,.37-.08.54-.18,1-.64,1.42-1.4,1.4s-1.28-.59-1.35-1.59a4.53,4.53,0,0,1,0-.9,1.46,1.46,0,0,1,1.34-1.34c.69,0,1.18.42,1.37,1.28C112.43,161.11,112.45,161.32,112.48,161.51Z"/><path class="cls-26" d="M49.48,141.94a8.26,8.26,0,0,1-.2,1.09,1.15,1.15,0,0,1-1,.85,1.35,1.35,0,0,1-1.34-.59,2.71,2.71,0,0,1,0-2.59,1.31,1.31,0,0,1,2.24.09A5.23,5.23,0,0,1,49.48,141.94Z"/><path class="cls-26" d="M114.09,142.32c0-1.37.49-2.11,1.36-2.11s1.53.85,1.47,2.06a2.82,2.82,0,0,1-.13.76,1.34,1.34,0,0,1-2.62-.07A3,3,0,0,1,114.09,142.32Z"/><path class="cls-26" d="M52.69,161.88c.17,1.48-.89,2.45-2.12,2a1,1,0,0,1-.58-.59.86.86,0,0,1,.4-.71C51.13,162.31,51.91,162.12,52.69,161.88Z"/><path class="cls-26" d="M71.83,123.1c.2,1.4-.71,2.32-2,2a1,1,0,0,1-.71-.6c0-.24.27-.56.48-.8a1,1,0,0,1,.48-.17C70.68,123.39,71.25,123.25,71.83,123.1Z"/><path class="cls-26" d="M57.46,141c.32-1,.69-1.3,1.49-1.32s1.14.26,1.58,1.32Z"/><path class="cls-26" d="M123.43,160.48c-.25,0-.5.05-.75.06H120.5c.17-1.06.57-1.43,1.46-1.44S123.24,159.42,123.43,160.48Z"/><path class="cls-26" d="M128.47,141.91c0,1.6-.73,2.39-1.87,2.23-.94-.14-1.44-1-1.37-2.29.06-1.11.66-1.84,1.55-1.89a1.51,1.51,0,0,1,1.5,1A4.62,4.62,0,0,1,128.47,141.91Z"/><path class="cls-26" d="M86.26,142.11c0-.26,0-.52.11-.77A1.59,1.59,0,0,1,88,140a1.55,1.55,0,0,1,1.48,1.37,4.62,4.62,0,0,1,0,1.53,1.55,1.55,0,0,1-3.06,0C86.32,142.62,86.3,142.36,86.26,142.11Z"/><path class="cls-26" d="M22,142.06a6.43,6.43,0,0,1,.08-.74A1.64,1.64,0,0,1,23.69,140a1.52,1.52,0,0,1,1.44,1.4,4.32,4.32,0,0,1,0,1.39,1.45,1.45,0,0,1-1.55,1.4A1.56,1.56,0,0,1,22,142.73,6.67,6.67,0,0,1,22,142.06Z"/><path class="cls-26" d="M106.22,122.65c0,1.25-.51,2-1.45,2.09s-1.73-.61-1.79-1.87c-.07-1.41.58-2.33,1.64-2.32S106.21,121.38,106.22,122.65Z"/><path class="cls-26" d="M95.79,161.48a7.49,7.49,0,0,1-.3,1.22,1.54,1.54,0,0,1-2.77,0,3.05,3.05,0,0,1,0-2.39,1.46,1.46,0,0,1,1.42-.93,1.39,1.39,0,0,1,1.39.95A7.88,7.88,0,0,1,95.79,161.48Z"/></g></g></g></g></g></svg>