<svg xmlns="http://www.w3.org/2000/svg" viewBox="0 0 1083.5 1519.43"><defs><style>.cls-1{fill:#fff;}.cls-2{fill:#fcecdb;}.cls-3{font-size:63.1px;fill:#2c3a64;font-family:OpenSans-Bold, Open Sans;font-weight:700;}</style></defs><title>thoughts_Qs_mobileAsset 4</title><g id="Layer_2" data-name="Layer 2"><g id="Слой_2" data-name="Слой 2"><rect class="cls-1" width="1083.5" height="1519.43"/><path class="cls-2" d="M827.5,1336.76c0,61.84-48.53,100.9-112.9,124.53a426.13,426.13,0,0,1-46.16,13.85c-34.05,8.26-70.1,13.27-104.35,15.84-20.35,1.53-40.07,2.21-58.36,2.21-39.38,0-73.46-6.54-102.68-18-104.77-41.26-147-146.44-147-243.38,0-124,121.47-160.27,249.73-173.58C765.36,1031.24,827.5,1212.78,827.5,1336.76Z"/><path class="cls-2" d="M850,848.83c0,61.84-50.44,100.91-117.34,124.54a455.92,455.92,0,0,1-48,13.85c-35.39,8.26-72.86,13.26-108.45,15.84-21.15,1.53-41.64,2.2-60.65,2.2-40.93,0-76.35-6.53-106.71-18C299.94,946,256,840.77,256,743.83c0-124,126.24-160.26,259.54-173.57C785.37,543.31,850,724.86,850,848.83Z"/><path class="cls-2" d="M827.5,217.4c0-61.83-48.53-100.9-112.9-124.53A426.13,426.13,0,0,0,668.44,79c-34.05-8.26-70.1-13.26-104.35-15.84C543.74,61.65,524,61,505.73,61c-39.38,0-73.46,6.54-102.68,18C298.28,120.28,256,225.46,256,322.4c0,124,121.47,160.27,249.73,173.58C765.36,522.93,827.5,341.38,827.5,217.4Z"/><text class="cls-3" transform="translate(351.89 229.41)">What sort of<tspan x="0" y="75.72">student do I </tspan><tspan x="0" y="151.43">want to be?</tspan></text><text class="cls-3" transform="translate(397.99 717.07)">What do I <tspan x="-100.65" y="75.72">want to achieve </tspan><tspan x="-5.21" y="151.43">in college?</tspan></text><text class="cls-3" transform="translate(396.55 1216.59)">How do I <tspan x="-99.88" y="75.72">want to behave</tspan><tspan x="13.23" y="151.43">and act?</tspan></text></g></g></svg>