<svg xmlns="http://www.w3.org/2000/svg" viewBox="0 0 2601.89 1673.04"><defs><style>.cls-1{fill:#fcecdb;}.cls-2{font-size:82px;font-family:OpenSans-Bold, Open Sans;font-weight:700;}.cls-2,.cls-3{fill:#2c3a64;}.cls-4{fill:#ffb27d;}.cls-5{fill:#ed985f;}.cls-6{fill:#f99746;}.cls-7{fill:#ed7d2b;}.cls-8{fill:#2b478b;}.cls-9{fill:#2e3552;}</style></defs><title>thoughts_Qs_womanAsset 1</title><g id="Layer_2" data-name="Layer 2"><g id="Слой_2" data-name="Слой 2"><path class="cls-1" d="M2313.47,1669.65s51.45-562.05-475.63-562.05c-569.43,0-237-327.75-613.47-422.48C892.13,601.51,679.9,963.51,818.17,1191,917.7,1354.69,511.45,1445.43,560,1673Z"/><path class="cls-1" d="M2373.87,778.54c0,80.37-63.07,131.13-146.73,161.85a554.16,554.16,0,0,1-60,18c-44.25,10.74-91.1,17.24-135.6,20.59-26.45,2-52.08,2.87-75.85,2.87-51.18,0-95.47-8.5-133.44-23.46-136.16-53.61-191.11-190.31-191.11-316.3,0-161.11,157.86-208.27,324.55-225.57C2293.12,381.49,2373.87,617.42,2373.87,778.54Z"/><path class="cls-1" d="M1363.92,600.53a513.59,513.59,0,0,1-60.52-6.69c-52.46-8.84-103.18-11.38-151-11.32-197.74.24-347.11,44.86-372.08-126.28-25.46-174.56,219.83-386.67,399.13-443.1,210.6-66.27,398.11,131,442.36,303.11C1662.26,473.79,1570.82,610.63,1363.92,600.53Z"/><path class="cls-1" d="M747.62,730c0,141.58-130.27,217.42-288,232.8-20.17,2-40.78,2.94-61.63,2.94q-5.88,0-11.68-.12h-.56q-8.23-.2-16.3-.61a489.51,489.51,0,0,1-63.91-7.49,437.68,437.68,0,0,1-51-12.59q-6.9-2.16-13.62-4.52C81.85,884.56,0,746.12,0,622.21,0,462.53,215.22,349.08,398,387.44,577.78,425.17,747.62,570.28,747.62,730Z"/><text class="cls-2" transform="translate(107.9 601.05)">What sort of<tspan x="0" y="98.4">student do I </tspan><tspan x="0" y="196.8">want to be?</tspan></text><text class="cls-2" transform="translate(1017.97 260.12)">What do I <tspan x="-130.81" y="98.4">want to achieve </tspan><tspan x="-6.77" y="196.8">in college?</tspan></text><text class="cls-2" transform="translate(1813.81 622.37)">How do I <tspan x="-129.81" y="98.4">want to behave</tspan><tspan x="17.2" y="196.8">and act?</tspan></text><path class="cls-3" d="M1305.53,857.15c-2.67-4.82-33.28-55.87-115.37-17.81,0,0,42.07-15.35,57.76-1.37,0,0-37.93-7.88-56.42,10.18s-11.91,63.15-5.62,75.9,39.19,47.42,54.91,43.83c6-1.36,11.87-4.79,16.92-8.53a214.1,214.1,0,0,0-1,24.83c1.25,82.38,67.14,130.17,90.79,109.24,15.16-13.42,35.2,13.9,35.2,13.9l100.26-223.43S1355.21,786.38,1305.53,857.15Z"/><path class="cls-4" d="M1539.26,1321.29c-21,14.58-47.37,26.6-80.45,34.24-124,28.65-171.53-76.16-189.37-148.1,16.91-9.68,32.82-11.81,42-12.91,9-1,18.39-1.76,26.19-2.14,13.93-10.67,34.68-54.32,39.26-122.09l5.84,1.56,97.73,26.75s-4.48,31.07-6.67,60.43c-1.7,23-2,44.94,2.39,50.31,7.62,1.66,12.2,2.74,12.2,2.74s0,0,0,.09A629.89,629.89,0,0,1,1539.26,1321.29Z"/><path class="cls-5" d="M1480.47,1098.62s-4.49,31-6.67,60.43c-55.36-5.54-81.06-58.26-91.06-87.17Z"/><path class="cls-4" d="M1510.69,1109.37s-127.82,31.42-146.16-48.48-47.19-129.65,33.64-153.09,103.75,3.4,116.36,28.58S1543.47,1099.14,1510.69,1109.37Z"/><path class="cls-3" d="M1500.56,892.81c-25.32-19.5-39.1-10.81-45.85-1.66-78.93-22.54-111.1,44.78-111.1,44.78,4.51,59.3-29.33,101.6-29.33,101.6s26.68,9.1,77.42-17.07c15.5-8,27.53-23.06,36.79-40.11-13.47,41.55-37.14,74.68-37.14,74.68,57.59-44.47,63-139.94,63.41-150,9.44,5.25,28.37,17,36.49,30.9,11,18.89,23.49,60.13,35.38,55.91C1526.63,991.84,1538.54,922.07,1500.56,892.81Z"/><path class="cls-6" d="M1539.25,1222.3c-17.85-9.49-40.81-16.54-65.79-21.72,0,0-12.88,33.16-52.13,32.44-37.28-.69-74.17-41.93-77.76-46-42.73-1.38-74.13,0-74.13,0s-90,140.81-78.84,173.41a574.55,574.55,0,0,1,17.62,63.37c20.93,96.06,14.31,179.71,9,218.88-2.06,15.15-3.92,23.65-3.92,23.65l283.41,6.58s23.48-83.59,40.89-154.91c.53-2.14,1-4.27,1.55-6.39,11.81,24.32,45.29,60.89,60.44,63.77.91.17,5.16.26,11.28.32,22.69.18,66.59.48,66.59.48C1685.88,1508.92,1576.11,1238.29,1539.25,1222.3Z"/><path class="cls-7" d="M1217.2,1642.62c5.33-39.17,12-122.82-9-218.88.09-1.11.13-1.7.13-1.7s77.53,74.07,90.93,151.52C1308.42,1626.43,1252.6,1640.21,1217.2,1642.62Z"/><path class="cls-4" d="M1437,1573.56c-1.6-5.11-27.33-31.33-41.26-34.55s-59.93,7.37-59.93,7.37h0A1198,1198,0,0,1,1166,1510.24c-13.43-3.9-27.2-8.17-41.19-12.84l116.11-104.68L1343.57,1187s-87.09-6.87-109.13,6.27c-79.32,47.26-226.26,323.16-223.47,380.3,0,0,37.22,2,105.21,2.91,52.23.68,122.65.65,208.29-1.55a176.67,176.67,0,0,0,19.3-1.36Z"/><path class="cls-6" d="M1240.87,1392.72l-102.41,105.91c10.09,3.82,20.62,9.27,27.49,11.61,0,0-9.36,40.27-49.77,66.23-68-.86-105.21-2.91-105.21-2.91-2.79-57.14,144.15-333,223.47-380.3,22-13.14,109.13-6.27,109.13-6.27Z"/><path class="cls-7" d="M1677.44,1576.12c-6.12,0-77-.63-77.87-.8-15.15-2.88-48.63-39.45-60.44-63.77-.51,2.12,3.76-23,7.72-33.21a288.16,288.16,0,0,1,20-40.61C1607.53,1431.6,1677.55,1537.47,1677.44,1576.12Z"/><path class="cls-4" d="M1675,1512.25a2410.48,2410.48,0,0,0-66.21-323.11l-.23,0c-2.23-8.6-19.82-75.77-27.18-83.13-7.86-7.86-49.3-24.33-56.44-26.1a9,9,0,0,0,3.12,8.51,73,73,0,0,0,6.55,4.69l-9.82,5.29a12.15,12.15,0,0,0,9.18,2.41,72.84,72.84,0,0,0,9.2-2.28c2,1.24,4,2.44,5.87,3.5,3.08,2.93,6.74,6.61,7.06,7.93.37,1.56,1.71,8.44,2.54,12.79a21,21,0,0,1-3.68-4c-3.93-6.07-12.15-5.44-12.15-5.44s11.25,14.13,12.32,23.29c1.62,14,9.41,21.26,9.41,21.26h0c2.86,3.37,6.89,6.39,10.29,13.46,2.5,5.17,3.47,15.07,4.16,20.77h0c1.68,20.6,7.46,96.54,5.88,152.45-2.12,75.25-9.25,142.7-.79,184.56,2.18,10.83,5.41,20,10,27,18.45,28.29,83.28,20,83.28,20S1680.23,1551.65,1675,1512.25Z"/><path class="cls-6" d="M1677.44,1576.12s-64.83,8.26-83.28-20c-4.63-7.1-7.86-16.22-10-27,13.9,3.48,52,9.36,90.91-16.79C1680.23,1551.65,1677.44,1576.12,1677.44,1576.12Z"/><path class="cls-6" d="M1396.05,766.26a12.77,12.77,0,0,0-9.54-3.91,13.37,13.37,0,0,0-9.72,3.91,13.33,13.33,0,0,0,.1,19.16,13.31,13.31,0,0,0,9.62,4,12.81,12.81,0,0,0,9.54-3.91,14.08,14.08,0,0,0,0-19.26ZM1418.93,656q-12.4-10.5-30.89-10.49a49,49,0,0,0-22.5,5.43A39.92,39.92,0,0,0,1349,666.25a23.69,23.69,0,0,0-3.63,12.21,11.12,11.12,0,0,0,3,7.91,9.89,9.89,0,0,0,7.54,3.14c3.56,0,6.67-1.83,9.34-5.52l7.62-10.31q5.54-5.52,14.68-5.52a19.92,19.92,0,0,1,13.06,4.29q5.25,4.29,5.26,12.1c0,6-1.85,10.62-5.54,13.93q-4,3.62-13.73,6.67-7.24,2.29-9.62,4.67c-1.59,1.59-2.39,4-2.39,7.15V736a14.77,14.77,0,0,0,3,9.53,10.37,10.37,0,0,0,8.59,3.82q9,0,11.24-8.77.76-3,.76-15.64,15.63-3,24.7-13.44t9.06-26.22Q1431.9,667.21,1418.93,656Z"/><path class="cls-6" d="M1470.29,775.59a9.4,9.4,0,0,0-5.36-5.36,10,10,0,0,0-7.71-.1,9.51,9.51,0,0,0-5.43,5.41,9.39,9.39,0,0,0,.08,7.63,9.78,9.78,0,0,0,5.4,5.44,9.43,9.43,0,0,0,7.58,0,10.35,10.35,0,0,0,5.44-13.07Zm46.73-68.4q-5.44-10.62-18-15.85a36,36,0,0,0-16.81-2.68,29.43,29.43,0,0,0-15.6,5.73,17.46,17.46,0,0,0-5.91,7.26,8.16,8.16,0,0,0-.23,6.2,7.26,7.26,0,0,0,4.23,4.26c2.41,1,5,.64,7.89-1.1l8.1-4.84c3.53-1.45,7.38-1.32,11.52.41a14.61,14.61,0,0,1,7.65,6.6q2.36,4.4.14,9.7-2.54,6.09-7.69,7.88-3.75,1.34-11.21.65-5.56-.49-7.86.44a7.18,7.18,0,0,0-3.63,4.18l-5.39,13a10.8,10.8,0,0,0-.63,7.33,7.57,7.57,0,0,0,4.75,5q6.08,2.53,10.11-2.77,1.38-1.84,4.94-10.39,11.47,2.36,20.56-2.14t13.56-15.23Q1522.64,718.49,1517,707.19Z"/><path class="cls-6" d="M1324.63,796.53a9.74,9.74,0,0,0-6.55-3.89,9.45,9.45,0,0,0-7.3,2,9.84,9.84,0,0,0-3.9,6.65,9.8,9.8,0,0,0,8.66,11.1,9.79,9.79,0,0,0,7.41-2,9.44,9.44,0,0,0,3.79-6.57A9.79,9.79,0,0,0,1324.63,796.53Zm-22.06-67.1q-8.14-10.54-20.74-11.25-11.92-.54-22.69,7.77a36,36,0,0,0-10.65,13.28,29.44,29.44,0,0,0-2.76,16.38,17.58,17.58,0,0,0,3.38,8.73,8.18,8.18,0,0,0,5.27,3.28,7.32,7.32,0,0,0,5.8-1.55c2.07-1.61,3.06-4.08,3-7.43l-.18-9.42c.49-3.8,2.51-7.06,6-9.81a14.72,14.72,0,0,1,9.54-3.37q5,.13,8.48,4.69,4,5.21,3,10.58-.69,3.91-5,10.05-3.18,4.59-3.5,7a7.12,7.12,0,0,0,1.82,5.23l8.57,11.1a10.9,10.9,0,0,0,6.06,4.18,7.6,7.6,0,0,0,6.71-1.64c3.47-2.69,4.35-6.08,2.6-10.16q-.93-2.11-6.58-9.44,7.73-8.79,8.34-18.92T1302.57,729.43Z"/><path class="cls-3" d="M1923.45,1575.31H803.72a95,95,0,0,0-95,95H2018.44A95,95,0,0,0,1923.45,1575.31Z"/><path class="cls-8" d="M2060.64,1575.31H940.9a95,95,0,0,0-95,95H2155.63A95,95,0,0,0,2060.64,1575.31Z"/><path class="cls-9" d="M2601.89,1669.15v1A2.9,2.9,0,0,1,2599,1673H52.41a2.9,2.9,0,0,1-2.89-2.89v-1a2.89,2.89,0,0,1,2.89-2.88H2599A2.88,2.88,0,0,1,2601.89,1669.15Z"/></g></g></svg>